<svg xmlns="http://www.w3.org/2000/svg" width="283.761" height="228.23" viewBox="0 0 283.761 228.23">
  <g id="Grupo_86822" data-name="Grupo 86822" transform="translate(-861.496 -164.533)">
    <g id="Grupo_86718" data-name="Grupo 86718" transform="translate(956.149 214.835)">
      <g id="Grupo_86717" data-name="Grupo 86717">
        <path id="Trazado_152269" data-name="Trazado 152269" d="M1266.614,516.8H1109.5l13.952-95.836h157.112Z" transform="translate(-1109.502 -409.619)" fill="#e8e8e8"/>
        <path id="Trazado_152270" data-name="Trazado 152270" d="M1302.928,403.007H1145.817l1.719-11.733h157.112Z" transform="translate(-1131.943 -391.274)" fill="#e8e8e8"/>
        <g id="Grupo_86716" data-name="Grupo 86716" transform="translate(24.88 3.855)">
          <path id="Trazado_152271" data-name="Trazado 152271" d="M1178.668,403.376a2.406,2.406,0,0,1-2.3,2.011,1.7,1.7,0,0,1-1.72-2.011,2.406,2.406,0,0,1,2.3-2.012A1.7,1.7,0,0,1,1178.668,403.376Z" transform="translate(-1174.624 -401.364)" fill="#e8e8e8"/>
          <path id="Trazado_152272" data-name="Trazado 152272" d="M1200.731,403.376a2.406,2.406,0,0,1-2.3,2.011,1.7,1.7,0,0,1-1.72-2.011,2.406,2.406,0,0,1,2.3-2.012A1.7,1.7,0,0,1,1200.731,403.376Z" transform="translate(-1188.257 -401.364)" fill="#e8e8e8"/>
          <path id="Trazado_152273" data-name="Trazado 152273" d="M1222.794,403.376a2.406,2.406,0,0,1-2.3,2.011,1.7,1.7,0,0,1-1.72-2.011,2.406,2.406,0,0,1,2.3-2.012A1.7,1.7,0,0,1,1222.794,403.376Z" transform="translate(-1201.891 -401.364)" fill="#e8e8e8"/>
        </g>
      </g>
    </g>
    <g id="Grupo_86720" data-name="Grupo 86720" transform="translate(930.419 192.992)">
      <path id="Trazado_152274" data-name="Trazado 152274" d="M1191.732,447.515H1019.7l15.277-104.937h172.033Z" transform="translate(-1019.699 -330.159)" fill="#9114d4"/>
      <path id="Trazado_152275" data-name="Trazado 152275" d="M1231.5,322.92H1059.462l1.883-12.847h172.033Z" transform="translate(-1044.271 -310.072)" fill="#69039f"/>
      <g id="Grupo_86719" data-name="Grupo 86719" transform="translate(27.243 4.221)">
        <path id="Trazado_152276" data-name="Trazado 152276" d="M1095.434,323.324a2.634,2.634,0,0,1-2.522,2.2,1.861,1.861,0,0,1-1.884-2.2,2.635,2.635,0,0,1,2.522-2.2A1.861,1.861,0,0,1,1095.434,323.324Z" transform="translate(-1091.005 -321.121)" fill="#fff"/>
        <path id="Trazado_152277" data-name="Trazado 152277" d="M1119.593,323.324a2.635,2.635,0,0,1-2.522,2.2,1.861,1.861,0,0,1-1.884-2.2,2.634,2.634,0,0,1,2.521-2.2A1.861,1.861,0,0,1,1119.593,323.324Z" transform="translate(-1105.934 -321.121)" fill="#fff"/>
        <path id="Trazado_152278" data-name="Trazado 152278" d="M1143.751,323.324a2.634,2.634,0,0,1-2.522,2.2,1.861,1.861,0,0,1-1.884-2.2,2.634,2.634,0,0,1,2.522-2.2A1.861,1.861,0,0,1,1143.751,323.324Z" transform="translate(-1120.862 -321.121)" fill="#fff"/>
      </g>
    </g>
    <g id="Grupo_86721" data-name="Grupo 86721" transform="translate(964.026 219.946)">
      <path id="Trazado_152279" data-name="Trazado 152279" d="M1107.662,393.382l.22-1.568,8.757-3.229-.253,1.811-3.78,1.269-2.645.9-.011.075,2.395.9,3.424,1.269-.253,1.811Z" transform="translate(-1107.662 -385.543)" fill="#aa91c4"/>
      <path id="Trazado_152280" data-name="Trazado 152280" d="M1135.194,380.622h1.456l-6.621,16.238h-1.456Z" transform="translate(-1120.584 -380.622)" fill="#aa91c4"/>
      <path id="Trazado_152281" data-name="Trazado 152281" d="M1148.6,394.8l3.78-1.269,2.645-.9.01-.075-2.394-.9-3.425-1.269.253-1.811,7.854,3.229-.22,1.568-8.757,3.229Z" transform="translate(-1132.803 -385.543)" fill="#aa91c4"/>
    </g>
    <g id="Grupo_86722" data-name="Grupo 86722" transform="translate(956.253 283.646)">
      <path id="Trazado_152282" data-name="Trazado 152282" d="M1087.319,560.114l.219-1.568,8.758-3.229-.253,1.81-3.78,1.269-2.645.9-.01.075,2.394.9,3.425,1.269-.253,1.81Z" transform="translate(-1087.319 -552.274)" fill="#aa91c4"/>
      <path id="Trazado_152283" data-name="Trazado 152283" d="M1114.851,547.353h1.456l-6.621,16.239h-1.456Z" transform="translate(-1100.241 -547.353)" fill="#aa91c4"/>
      <path id="Trazado_152284" data-name="Trazado 152284" d="M1128.257,561.532l3.78-1.269,2.645-.9.011-.075-2.395-.9-3.425-1.269.253-1.81,7.854,3.229-.219,1.568L1128,563.343Z" transform="translate(-1112.46 -552.274)" fill="#aa91c4"/>
    </g>
    <line id="Línea_259" data-name="Línea 259" x2="59.198" transform="translate(1029.7 245.25)" fill="none" stroke="#ffce57" stroke-linecap="round" stroke-linejoin="round" stroke-width="3.583"/>
    <line id="Línea_260" data-name="Línea 260" x2="21.873" transform="translate(995.465 245.25)" fill="none" stroke="#ffce57" stroke-linecap="round" stroke-linejoin="round" stroke-width="3.583"/>
    <line id="Línea_261" data-name="Línea 261" x2="41.639" transform="translate(984.166 272.76)" fill="none" stroke="#9664f5" stroke-linecap="round" stroke-linejoin="round" stroke-width="3.583"/>
    <line id="Línea_262" data-name="Línea 262" x2="9.908" transform="translate(964.939 272.76)" fill="none" stroke="#9664f5" stroke-linecap="round" stroke-linejoin="round" stroke-width="3.385"/>
    <line id="Línea_263" data-name="Línea 263" x2="44.416" transform="translate(1040.681 272.76)" fill="none" stroke="#9664f5" stroke-linecap="round" stroke-linejoin="round" stroke-width="3.583"/>
    <line id="Línea_264" data-name="Línea 264" x2="23.518" transform="translate(1017.654 259.368)" fill="none" stroke="#ffce57" stroke-linecap="round" stroke-linejoin="round" stroke-width="3.583"/>
    <line id="Línea_265" data-name="Línea 265" x2="13.184" transform="translate(989.464 259.368)" fill="none" stroke="#ffce57" stroke-linecap="round" stroke-linejoin="round" stroke-width="3.583"/>
    <line id="Línea_266" data-name="Línea 266" x2="24.969" transform="translate(1061.953 259.368)" fill="none" stroke="#cfd6e6" stroke-linecap="round" stroke-linejoin="round" stroke-width="3.583"/>
    <line id="Línea_267" data-name="Línea 267" x2="23.476" transform="translate(961.582 245.25)" fill="none" stroke="#ffce57" stroke-linecap="round" stroke-linejoin="round" stroke-width="3.385"/>
    <circle id="Elipse_8346" data-name="Elipse 8346" cx="3.05" cy="3.05" r="3.05" transform="translate(906.126 211.835)" fill="none" stroke="#261936" stroke-linecap="round" stroke-linejoin="round" stroke-width="1.834"/>
    <circle id="Elipse_8347" data-name="Elipse 8347" cx="3.05" cy="3.05" r="3.05" transform="translate(1110.447 165.45)" fill="none" stroke="#261936" stroke-linecap="round" stroke-linejoin="round" stroke-width="1.834"/>
    <circle id="Elipse_8348" data-name="Elipse 8348" cx="3.05" cy="3.05" r="3.05" transform="translate(1047.914 335.092)" fill="none" stroke="#261936" stroke-linecap="round" stroke-linejoin="round" stroke-width="1.834"/>
    <g id="Grupo_86723" data-name="Grupo 86723" transform="translate(922.817 208.454)">
      <ellipse id="Elipse_8349" data-name="Elipse 8349" cx="13.246" cy="11.701" rx="13.246" ry="11.701" transform="matrix(0.729, -0.685, 0.685, 0.729, 0, 18.144)" fill="#ffce57"/>
      <path id="Trazado_152285" data-name="Trazado 152285" d="M1034.452,391.362l3.741,4.811,5.553-6.8" transform="translate(-1021.214 -374.535)" fill="none" stroke="#fff" stroke-linecap="round" stroke-linejoin="round" stroke-width="2.597"/>
    </g>
    <g id="Grupo_86724" data-name="Grupo 86724" transform="translate(1005.894 216.187)">
      <path id="Trazado_152286" data-name="Trazado 152286" d="M1221.193,372.74a2.421,2.421,0,0,1-2.292,1.958,1.608,1.608,0,0,1-1.624-1.958,2.42,2.42,0,0,1,2.292-1.958A1.608,1.608,0,0,1,1221.193,372.74Z" transform="translate(-1217.248 -370.782)" fill="#fff"/>
      <path id="Trazado_152287" data-name="Trazado 152287" d="M1242.667,372.74a2.42,2.42,0,0,1-2.292,1.958,1.607,1.607,0,0,1-1.623-1.958,2.419,2.419,0,0,1,2.292-1.958A1.607,1.607,0,0,1,1242.667,372.74Z" transform="translate(-1230.518 -370.782)" fill="#fff"/>
      <path id="Trazado_152288" data-name="Trazado 152288" d="M1264.142,372.74a2.421,2.421,0,0,1-2.292,1.958,1.608,1.608,0,0,1-1.624-1.958,2.42,2.42,0,0,1,2.292-1.958A1.607,1.607,0,0,1,1264.142,372.74Z" transform="translate(-1243.788 -370.782)" fill="#fff"/>
    </g>
    <path id="Trazado_152289" data-name="Trazado 152289" d="M1169.956,261.582H1065.373a7.831,7.831,0,0,1-7.808-7.808h0a7.831,7.831,0,0,1,7.808-7.808h104.583a7.831,7.831,0,0,1,7.808,7.808h0A7.831,7.831,0,0,1,1169.956,261.582Z" transform="translate(-112.679 -77.466)" fill="#d07efc"/>
    <g id="Grupo_86725" data-name="Grupo 86725" transform="translate(952.17 171.541)">
      <path id="Trazado_152290" data-name="Trazado 152290" d="M1084.159,257.55a4.189,4.189,0,0,1-4.129,3.623,3.267,3.267,0,0,1-3.38-3.623,4.189,4.189,0,0,1,4.128-3.624A3.268,3.268,0,0,1,1084.159,257.55Z" transform="translate(-1076.632 -253.926)" fill="none" stroke="#fff" stroke-linecap="round" stroke-linejoin="round" stroke-width="3.137"/>
      <line id="Línea_268" data-name="Línea 268" x1="4.237" y1="3.436" transform="translate(6.257 6.097)" fill="none" stroke="#fff" stroke-linecap="round" stroke-linejoin="round" stroke-width="3.137"/>
    </g>
    <g id="Grupo_87373" data-name="Grupo 87373" transform="translate(40.454 79.218)">
      <g id="Grupo_87371" data-name="Grupo 87371" transform="translate(915.695 184.116)">
        <path id="Trazado_152274-2" data-name="Trazado 152274" d="M1191.732,447.515H1019.7l15.277-104.937h172.033Z" transform="translate(-1019.699 -330.159)" fill="#7ff9ff"/>
        <path id="Trazado_152275-2" data-name="Trazado 152275" d="M1231.5,322.92H1059.462l1.883-12.847h172.033Z" transform="translate(-1044.271 -310.072)" fill="#18b6fe"/>
        <g id="Grupo_86719-2" data-name="Grupo 86719" transform="translate(27.243 4.221)">
          <path id="Trazado_152276-2" data-name="Trazado 152276" d="M1095.434,323.324a2.634,2.634,0,0,1-2.522,2.2,1.861,1.861,0,0,1-1.884-2.2,2.635,2.635,0,0,1,2.522-2.2A1.861,1.861,0,0,1,1095.434,323.324Z" transform="translate(-1091.005 -321.121)" fill="#7ff9ff"/>
          <path id="Trazado_152277-2" data-name="Trazado 152277" d="M1119.593,323.324a2.635,2.635,0,0,1-2.522,2.2,1.861,1.861,0,0,1-1.884-2.2,2.634,2.634,0,0,1,2.521-2.2A1.861,1.861,0,0,1,1119.593,323.324Z" transform="translate(-1105.934 -321.121)" fill="#7ff9ff"/>
          <path id="Trazado_152278-2" data-name="Trazado 152278" d="M1143.751,323.324a2.634,2.634,0,0,1-2.522,2.2,1.861,1.861,0,0,1-1.884-2.2,2.634,2.634,0,0,1,2.522-2.2A1.861,1.861,0,0,1,1143.751,323.324Z" transform="translate(-1120.862 -321.121)" fill="#7ff9ff"/>
        </g>
      </g>
      <g id="Grupo_87369" data-name="Grupo 87369" transform="translate(949.302 211.07)">
        <path id="Trazado_152279-2" data-name="Trazado 152279" d="M1107.662,393.382l.22-1.568,8.757-3.229-.253,1.811-3.78,1.269-2.645.9-.011.075,2.395.9,3.424,1.269-.253,1.811Z" transform="translate(-1107.662 -385.543)" fill="#aa91c4"/>
        <path id="Trazado_152280-2" data-name="Trazado 152280" d="M1135.194,380.622h1.456l-6.621,16.238h-1.456Z" transform="translate(-1120.584 -380.622)" fill="#aa91c4"/>
        <path id="Trazado_152281-2" data-name="Trazado 152281" d="M1148.6,394.8l3.78-1.269,2.645-.9.01-.075-2.394-.9-3.425-1.269.253-1.811,7.854,3.229-.22,1.568-8.757,3.229Z" transform="translate(-1132.803 -385.543)" fill="#aa91c4"/>
      </g>
      <g id="Grupo_87372" data-name="Grupo 87372" transform="translate(941.53 274.771)">
        <path id="Trazado_152282-2" data-name="Trazado 152282" d="M1087.319,560.114l.219-1.568,8.758-3.229-.253,1.81-3.78,1.269-2.645.9-.01.075,2.394.9,3.425,1.269-.253,1.81Z" transform="translate(-1087.319 -552.274)" fill="#aa91c4"/>
        <path id="Trazado_152283-2" data-name="Trazado 152283" d="M1114.851,547.353h1.456l-6.621,16.239h-1.456Z" transform="translate(-1100.241 -547.353)" fill="#aa91c4"/>
        <path id="Trazado_152284-2" data-name="Trazado 152284" d="M1128.257,561.532l3.78-1.269,2.645-.9.011-.075-2.395-.9-3.425-1.269.253-1.81,7.854,3.229-.219,1.568L1128,563.343Z" transform="translate(-1112.46 -552.274)" fill="#aa91c4"/>
      </g>
      <line id="Línea_295" data-name="Línea 295" x2="59.198" transform="translate(1014.976 236.374)" fill="none" stroke="#ffce57" stroke-linecap="round" stroke-linejoin="round" stroke-width="3.583"/>
      <line id="Línea_292" data-name="Línea 292" x2="21.873" transform="translate(980.741 236.374)" fill="none" stroke="#ffce57" stroke-linecap="round" stroke-linejoin="round" stroke-width="3.583"/>
      <line id="Línea_290" data-name="Línea 290" x2="41.639" transform="translate(969.442 263.884)" fill="none" stroke="#9664f5" stroke-linecap="round" stroke-linejoin="round" stroke-width="3.583"/>
      <line id="Línea_297" data-name="Línea 297" x2="44.416" transform="translate(1025.957 263.884)" fill="none" stroke="#9664f5" stroke-linecap="round" stroke-linejoin="round" stroke-width="3.583"/>
      <line id="Línea_294" data-name="Línea 294" x2="23.518" transform="translate(1002.93 250.492)" fill="none" stroke="#ffce57" stroke-linecap="round" stroke-linejoin="round" stroke-width="3.583"/>
      <line id="Línea_291" data-name="Línea 291" x2="13.184" transform="translate(974.74 250.492)" fill="none" stroke="#ffce57" stroke-linecap="round" stroke-linejoin="round" stroke-width="3.583"/>
      <line id="Línea_296" data-name="Línea 296" x2="24.969" transform="translate(1047.229 250.492)" fill="none" stroke="#cfd6e6" stroke-linecap="round" stroke-linejoin="round" stroke-width="3.583"/>
      <line id="Línea_293" data-name="Línea 293" x2="23.476" transform="translate(946.858 236.374)" fill="none" stroke="#ffce57" stroke-linecap="round" stroke-linejoin="round" stroke-width="3.385"/>
      <g id="Grupo_87370" data-name="Grupo 87370" transform="translate(991.17 207.311)">
        <path id="Trazado_152286-2" data-name="Trazado 152286" d="M1221.193,372.74a2.421,2.421,0,0,1-2.292,1.958,1.608,1.608,0,0,1-1.624-1.958,2.42,2.42,0,0,1,2.292-1.958A1.608,1.608,0,0,1,1221.193,372.74Z" transform="translate(-1217.248 -370.782)" fill="#fff"/>
        <path id="Trazado_152287-2" data-name="Trazado 152287" d="M1242.667,372.74a2.42,2.42,0,0,1-2.292,1.958,1.607,1.607,0,0,1-1.623-1.958,2.419,2.419,0,0,1,2.292-1.958A1.607,1.607,0,0,1,1242.667,372.74Z" transform="translate(-1230.518 -370.782)" fill="#fff"/>
        <path id="Trazado_152288-2" data-name="Trazado 152288" d="M1264.142,372.74a2.421,2.421,0,0,1-2.292,1.958,1.608,1.608,0,0,1-1.624-1.958,2.42,2.42,0,0,1,2.292-1.958A1.607,1.607,0,0,1,1264.142,372.74Z" transform="translate(-1243.788 -370.782)" fill="#fff"/>
      </g>
    </g>
    <g id="Grupo_86728" data-name="Grupo 86728" transform="translate(861.496 234.44)">
      <path id="Trazado_152291" data-name="Trazado 152291" d="M1356.572,594.24c2.931.883,4.838.6,6.8-1.317l4.456-10.156-2.864-1.372-7.647,9.068Z" transform="translate(-1313.456 -519.183)" fill="#fca78e" fill-rule="evenodd"/>
      <path id="Trazado_152292" data-name="Trazado 152292" d="M1347.653,576.7l1.7-2.334a2.413,2.413,0,0,1,1.4-.927l2.279-.533a1.167,1.167,0,0,1,1.424,1.286h0L1352.152,577a3.633,3.633,0,0,1-2.16,1.218l-1.466.271Z" transform="translate(-1296.687 -513.917)" fill="#fca78e"/>
      <path id="Trazado_152293" data-name="Trazado 152293" d="M1385.222,573.229c1.611.267,2.151-2.413,1.486-3.9l-4.44-11.454c-1.211-3.05-3.934-4.935-5.724-3.963h0c-.705.383-.8,1.622-.212,2.783l6.82,18.752Z" transform="translate(-1340.014 -502.038)" fill="#fca78e" fill-rule="evenodd"/>
      <path id="Trazado_152294" data-name="Trazado 152294" d="M1416.521,824.927c0,1.048-11.4,1.9-25.464,1.9s-25.465-.849-25.465-1.9,11.4-1.9,25.465-1.9S1416.521,823.88,1416.521,824.927Z" transform="translate(-1365.592 -668.501)" fill="#ebe8f2" fill-rule="evenodd"/>
      <path id="Trazado_152295" data-name="Trazado 152295" d="M1386.359,716.749s-3.447-23.041,1-32.158l-2.429-31.258,14.568,1-9.817,62.593Z" transform="translate(-1355.962 -563.637)" fill="#d96e4e" fill-rule="evenodd"/>
      <path id="Trazado_152296" data-name="Trazado 152296" d="M1397.366,816.95l2.892,2.106a19.819,19.819,0,0,0,3.671,1.532h0c.309.647-.3.987-.808,1.072l-9.154-.192s-2.114-.439-.239-4.513C1395.394,817.69,1396.932,818.217,1397.366,816.95Z" transform="translate(-1363.537 -664.743)" fill="#221f14" fill-rule="evenodd"/>
      <path id="Trazado_152297" data-name="Trazado 152297" d="M1400.746,667.411l-3.37,26.471-4.434,26.537H1382.28a37.471,37.471,0,0,0,.878-6.078c-.118-1.464-.505-15.351,2.744-21.739l-.258-26.018Z" transform="translate(-1356.193 -571.825)" fill="#dacfeb" fill-rule="evenodd"/>
      <path id="Trazado_152298" data-name="Trazado 152298" d="M1411.881,692.6l-.258-26.018,5.061.277.189,19.053a42.238,42.238,0,0,1-1.327,10.624c-1.73,6.932-1.448,16.6-1.352,17.8a37.508,37.508,0,0,1-.878,6.078h-5.058a37.474,37.474,0,0,0,.878-6.078C1409.019,712.877,1408.631,698.99,1411.881,692.6Z" transform="translate(-1382.246 -571.825)" fill="#c4bad4" fill-rule="evenodd"/>
      <path id="Trazado_152299" data-name="Trazado 152299" d="M1415.579,715.4s-1.531-23.318,3.678-32.545l.17-31.633,14.485,1.016-15.022,63.345Z" transform="translate(-1402 -562.332)" fill="#d96e4e" fill-rule="evenodd"/>
      <path id="Trazado_152300" data-name="Trazado 152300" d="M1442.293,816.8l2.717,2.131a18.036,18.036,0,0,0,3.543,1.55h0c.256.654-.377,1-.9,1.085l-9.137-.194s-2.077-.444.136-4.568C1440.26,817.551,1441.753,818.085,1442.293,816.8Z" transform="translate(-1425.208 -664.652)" fill="#221f14" fill-rule="evenodd"/>
      <path id="Trazado_152301" data-name="Trazado 152301" d="M1436.653,661.371l-5.571,26.789-6.641,26.856h-10.662a40.123,40.123,0,0,0,1.384-6.151c0-1.482.771-15.535,4.552-22L1421.29,658Z" transform="translate(-1404.135 -566.521)" fill="#dacfeb" fill-rule="evenodd"/>
      <path id="Trazado_152302" data-name="Trazado 152302" d="M1386.966,612.789l19.912,1.517c3.239,1.189,1.945,19.863,1.945,19.863l-13.093.607c-6.083-.127-13.278,4.644-14.035-5.492C1380.831,617.7,1386.966,612.789,1386.966,612.789Z" transform="translate(-1364.271 -538.583)" fill="#dacfeb" fill-rule="evenodd"/>
      <path id="Trazado_152303" data-name="Trazado 152303" d="M1401.655,550.585l-4.431-1.512-6-.408-7.621,2.658a5.6,5.6,0,0,0-2.777,6.953L1382.7,567c-1.981,6.579-3,11.192-2.66,17.963,10.806,4.013,25.66,3.816,29.07-1.141C1408.53,570.267,1406.917,559.308,1401.655,550.585Z" transform="translate(-1363.669 -498.958)" fill="#18b6fe" fill-rule="evenodd"/>
      <path id="Trazado_152304" data-name="Trazado 152304" d="M1417.209,548.061s2.4,5.931-1.675,6.192-6.3-5.9-6.3-5.9l2.974-1.321Z" transform="translate(-1383.655 -497.946)" fill="#fca78e"/>
      <path id="Trazado_152305" data-name="Trazado 152305" d="M1443.4,575.521l8.8-12.063c2.158-2.879,1.762-6.162-.833-6.9h0a3.087,3.087,0,0,0-3.123,1.625l-9.462,14.747Z" transform="translate(-1430.618 -503.796)" fill="#fca78e" fill-rule="evenodd"/>
      <g id="Grupo_86726" data-name="Grupo 86726" transform="translate(16.945)">
        <rect id="Rectángulo_7844" data-name="Rectángulo 7844" width="4.612" height="19.009" transform="translate(33.996 60.828) rotate(-132.389)" fill="#2e203d"/>
        <path id="Trazado_152306" data-name="Trazado 152306" d="M1354.322,591.552h0a5.035,5.035,0,0,0,7.093.312l28.761-26.337a5.036,5.036,0,0,0,.312-7.093h0a5.035,5.035,0,0,0-7.094-.312l-28.761,26.337A5.036,5.036,0,0,0,1354.322,591.552Z" transform="translate(-1353.01 -503.991)" fill="#573d78"/>
        <path id="Trazado_152307" data-name="Trazado 152307" d="M1261.633,427.241a26.74,26.74,0,1,1-37.779-1.662A26.74,26.74,0,0,1,1261.633,427.241Zm-35.943,32.915a22,22,0,1,0,1.367-31.078A22,22,0,0,0,1225.689,460.156Z" transform="translate(-1177.2 -418.56)" fill="#ab9dd4"/>
      </g>
      <path id="Trazado_152308" data-name="Trazado 152308" d="M1433.346,599.513c-1.187,2.538-.573,4.677,2.19,6.383l14.916,5.414-.111-3.3-11.45-7.351Z" transform="translate(-1425.19 -530.379)" fill="#fca78e" fill-rule="evenodd"/>
      <path id="Trazado_152309" data-name="Trazado 152309" d="M1425.919,621.745l2.213,1.859a2.412,2.412,0,0,1,.83,1.459l.377,2.309a1.167,1.167,0,0,1-1.381,1.332h0l-2.65-2.493a3.633,3.633,0,0,1-1.068-2.238l-.17-1.48Z" transform="translate(-1400.768 -544.117)" fill="#fca78e"/>
      <g id="Grupo_86727" data-name="Grupo 86727" transform="translate(13.92 36.974)">
        <path id="Trazado_152310" data-name="Trazado 152310" d="M1415.6,534.9l-1.689,5.756a2,2,0,0,1-1.46,1.388,1.968,1.968,0,0,1-1.91-.6l-.456-.507a2.584,2.584,0,0,1-.466-2.705l2.718-6.641,3.263,3.312Z" transform="translate(-1395.333 -525.378)" fill="#fca78e" fill-rule="evenodd"/>
        <path id="Trazado_152311" data-name="Trazado 152311" d="M1412.362,544.352l-.7,1.847-1.3-2.155Z" transform="translate(-1392.458 -533.076)" fill="#ee896d" fill-rule="evenodd"/>
        <path id="Trazado_152312" data-name="Trazado 152312" d="M1403.107,524.831a1.741,1.741,0,0,1,1.4-2.017l3.261-.58a1.834,1.834,0,0,1,1.994,1.413,18.819,18.819,0,0,1,.556,5.1,2.108,2.108,0,0,1-1.536,2.114c-1,.178-4.164-.253-4.767-2.009a25.331,25.331,0,0,1-.907-4.023Z" transform="translate(-1387.635 -519.583)" fill="#fca78e" fill-rule="evenodd"/>
        <path id="Trazado_152313" data-name="Trazado 152313" d="M1405.828,526.21s.775-4.874,2.184-6.281c1.894-1.891,4.464-2.951,7.321-.612,0,0-.4,4.3-5.1,7.9Z" transform="translate(-1393.696 -516.968)" fill="#1b2836" fill-rule="evenodd"/>
        <path id="Trazado_152314" data-name="Trazado 152314" d="M1409.771,533.647a1.3,1.3,0,0,0,1.721.649,1.335,1.335,0,0,0,.309-1.831,1.3,1.3,0,0,0-1.721-.648A1.334,1.334,0,0,0,1409.771,533.647Z" transform="translate(-1391.808 -525.437)" fill="#fca78e" fill-rule="evenodd"/>
        <path id="Trazado_152315" data-name="Trazado 152315" d="M1419.6,529.92a2.093,2.093,0,0,0-.225-1.694c-2.395-4.192,3.821-6.272,5.688-7.346,1.948-1.12.184-4.486,4.171-5.343s5.009,1.3,5.2,1.258c.279-.058-.886,3.668-.886,3.668s-1.986.4-2.379,4.249.4,5.955-2.307,8.71-11.683-2.192-11.683-2.192A2.014,2.014,0,0,0,1419.6,529.92Z" transform="translate(-1417.182 -515.337)" fill="#1b2836" fill-rule="evenodd"/>
        <path id="Trazado_152316" data-name="Trazado 152316" d="M1418.9,518.547s1.115,2.161-1.519,3.438" transform="translate(-1401.907 -517.32)" fill="none" stroke="#fff" stroke-linecap="round" stroke-linejoin="round" stroke-width="1.387"/>
      </g>
    </g>
  </g>
</svg>
