<svg xmlns="http://www.w3.org/2000/svg" xmlns:xlink="http://www.w3.org/1999/xlink" width="514" height="575.334" viewBox="0 0 514 575.334">
  <defs>
    <linearGradient id="linear-gradient" x1="1.332" y1="0.349" x2="-0.708" y2="0.754" gradientUnits="objectBoundingBox">
      <stop offset="0" stop-color="#d1e8ff"/>
      <stop offset="1" stop-color="#eaefff"/>
    </linearGradient>
    <linearGradient id="linear-gradient-2" x1="0.459" y1="0.443" x2="0.193" y2="0.101" gradientUnits="objectBoundingBox">
      <stop offset="0" stop-color="#965cf2"/>
      <stop offset="1" stop-color="#ff8adc"/>
    </linearGradient>
    <linearGradient id="linear-gradient-3" x1="0.49" y1="0.906" x2="0.513" y2="-0.021" gradientUnits="objectBoundingBox">
      <stop offset="0" stop-color="#6d6afe"/>
      <stop offset="1" stop-color="#3fb0f7"/>
    </linearGradient>
    <linearGradient id="linear-gradient-4" x1="0.847" y1="0.29" x2="0.547" y2="0.687" gradientUnits="objectBoundingBox">
      <stop offset="0" stop-color="#ff66bc"/>
      <stop offset="0.56" stop-color="#ff8ae6"/>
      <stop offset="1" stop-color="#ffbba8"/>
    </linearGradient>
    <linearGradient id="linear-gradient-5" x1="0.73" y1="0.469" x2="0.189" y2="0.542" xlink:href="#linear-gradient-4"/>
    <linearGradient id="linear-gradient-6" x1="0.871" y1="1.353" x2="0.313" y2="-0.045" xlink:href="#linear-gradient-3"/>
    <linearGradient id="linear-gradient-7" x1="0.155" y1="0.229" x2="0.873" y2="0.771" gradientUnits="objectBoundingBox">
      <stop offset="0" stop-color="#40457f"/>
      <stop offset="1" stop-color="#1e2353"/>
    </linearGradient>
    <linearGradient id="linear-gradient-8" x1="0.223" y1="0.21" x2="1.131" y2="0.778" xlink:href="#linear-gradient-7"/>
    <linearGradient id="linear-gradient-9" x1="0.515" y1="0.44" x2="0.56" y2="0.659" gradientUnits="objectBoundingBox">
      <stop offset="0" stop-color="#ffb89e"/>
      <stop offset="1" stop-color="#ffa799"/>
    </linearGradient>
    <linearGradient id="linear-gradient-10" x1="0.442" y1="0.429" x2="0.695" y2="0.659" gradientUnits="objectBoundingBox">
      <stop offset="0" stop-color="#ff8a78"/>
      <stop offset="1" stop-color="#ffa799"/>
    </linearGradient>
    <linearGradient id="linear-gradient-11" x1="0.403" y1="0.241" x2="0.688" y2="0.78" xlink:href="#linear-gradient-9"/>
    <linearGradient id="linear-gradient-12" x1="0.587" y1="0.35" x2="0.051" y2="0.693" gradientUnits="objectBoundingBox">
      <stop offset="0" stop-color="#3773b9"/>
      <stop offset="1" stop-color="#003c76"/>
    </linearGradient>
    <linearGradient id="linear-gradient-13" x1="0.68" y1="0.284" x2="0.367" y2="0.643" xlink:href="#linear-gradient-10"/>
    <linearGradient id="linear-gradient-14" x1="0.611" y1="0.315" x2="0.437" y2="0.79" xlink:href="#linear-gradient-9"/>
    <linearGradient id="linear-gradient-15" x1="0.465" y1="0.295" x2="0.575" y2="0.88" xlink:href="#linear-gradient"/>
    <linearGradient id="linear-gradient-16" x1="0.564" y1="0.561" x2="0.346" y2="0.354" xlink:href="#linear-gradient-3"/>
    <linearGradient id="linear-gradient-17" x1="0.408" y1="0.383" x2="0.586" y2="0.608" xlink:href="#linear-gradient"/>
  </defs>
  <g id="Grupo_86741" data-name="Grupo 86741" transform="translate(-543 -4066.323)">
    <g id="Grupo_86737" data-name="Grupo 86737" transform="translate(499.723 3968.831)">
      <g id="Layer_1" data-name="Layer 1" transform="translate(43.277 97.492)">
        <path id="Trazado_152347" data-name="Trazado 152347" d="M453.369,282.6a82.839,82.839,0,0,0-158.235-27.467c-6.555,14.65-20.771,24.365-36.823,24.365h-2.775a40.166,40.166,0,0,1-38.474-29.457q-1.16-4.052-2.548-8l-53.824,21.784a83.619,83.619,0,0,1-.434,51.489l53.5,22.669q1.958-5.3,3.5-10.786a39.8,39.8,0,0,1,38.408-28.837h2.571c15.724,0,30.259,9.069,36.514,23.5A82.843,82.843,0,0,0,453.369,282.6Z" transform="translate(60.395 -1.247)" fill="#856de9"/>
        <path id="Trazado_152348" data-name="Trazado 152348" d="M275.274,359.648a39.742,39.742,0,0,1-42.537-9.082l-2.141-2.141a39.847,39.847,0,0,1-6.287-47.72q2.08-3.735,3.94-7.6L174.766,270.44a83.8,83.8,0,0,1-36.695,36.106l21.8,53.845q5.127-2.368,10.033-5.121a39.841,39.841,0,0,1,47.6,6.736l1.89,1.892c11.349,11.349,14.535,28.271,8.809,43.265a82.839,82.839,0,1,0,47.073-47.514Z" transform="translate(40.733 55.781)" fill="#18b6fe"/>
        <path id="Trazado_152349" data-name="Trazado 152349" d="M174.815,347.839l53.85-21.8q-2.365-5.132-5.121-10.037a39.84,39.84,0,0,1,6.736-47.6l1.884-1.886c11.349-11.349,28.273-14.533,43.267-8.809a82.837,82.837,0,1,0-47.514-47.071,39.74,39.74,0,0,1-9.082,42.535l-2.147,2.148a39.828,39.828,0,0,1-47.711,6.272q-3.732-2.082-7.6-3.946l-22.669,53.5A83.783,83.783,0,0,1,174.815,347.839Z" transform="translate(41.299 -97.492)" fill="#d07efc"/>
        <path id="Trazado_152350" data-name="Trazado 152350" d="M184.745,399.942a83.466,83.466,0,1,1,26.383-162.65l22.671-53.5a141.47,141.47,0,1,0-2.156,266.141l-21.792-53.839A83.449,83.449,0,0,1,184.745,399.942Z" transform="translate(-43.277 -28.794)" fill="#7ff9ff"/>
      </g>
      <g id="Layer_2" data-name="Layer 2" transform="translate(62.14 112.614)">
        <g id="Grupo_86736" data-name="Grupo 86736" transform="translate(251.017)">
          <g id="Grupo_86733" data-name="Grupo 86733" transform="translate(8.717)">
            <path id="Trazado_152351" data-name="Trazado 152351" d="M210.788,221.128a67.748,67.748,0,1,1,95.81,0A67.824,67.824,0,0,1,210.788,221.128Z" transform="translate(-190.977 -105.509)" fill="#ecc8ff"/>
            <path id="Trazado_152352" data-name="Trazado 152352" d="M254.262,227.079a58.211,58.211,0,1,1,41.235-17.05A57.913,57.913,0,0,1,254.262,227.079Z" transform="translate(-186.546 -101.077)" fill="#f6f6f6"/>
          </g>
          <g id="Grupo_86734" data-name="Grupo 86734" transform="translate(93.536 204.814)">
            <path id="Trazado_152353" data-name="Trazado 152353" d="M235.944,281.838a67.747,67.747,0,1,1,67.748,67.748A67.824,67.824,0,0,1,235.944,281.838Z" transform="translate(-235.944 -214.092)" fill="#9a9aff"/>
            <path id="Trazado_152354" data-name="Trazado 152354" d="M299.261,335.725a58.317,58.317,0,1,1,58.315-58.317A58.382,58.382,0,0,1,299.261,335.725Z" transform="translate(-231.513 -209.662)" fill="#f6f6f6"/>
          </g>
          <g id="Grupo_86735" data-name="Grupo 86735" transform="translate(0 400.972)">
            <path id="Trazado_152356" data-name="Trazado 152356" d="M67.747,0A67.747,67.747,0,1,1,0,67.747,67.747,67.747,0,0,1,67.747,0Z" transform="translate(0 134.203) rotate(-82.082)" fill="#4dc7ff"/>
            <path id="Trazado_152355" data-name="Trazado 152355" d="M254.262,444.278A58.208,58.208,0,1,1,295.5,427.23,57.919,57.919,0,0,1,254.262,444.278Z" transform="translate(-177.828 -309.559)" fill="#f6f6f6"/>
          </g>
        </g>
        <path id="Trazado_152357" data-name="Trazado 152357" d="M122.606,0A122.606,122.606,0,1,1,0,122.606,122.606,122.606,0,0,1,122.606,0Z" transform="translate(0 149.955)" fill="#cefdff"/>
        <path id="Trazado_152358" data-name="Trazado 152358" d="M109.4,0A109.4,109.4,0,1,1,0,109.4,109.4,109.4,0,0,1,109.4,0Z" transform="matrix(0.004, -1, 1, 0.004, 12.784, 381.54)" fill="#f6f6f6"/>
      </g>
    </g>
    <g id="Grupo_86613" data-name="Grupo 86613" transform="translate(-2405.161 1496.48)">
      <g id="Grupo_86559" data-name="Grupo 86559" transform="translate(3028.667 2669.496)">
        <path id="Trazado_151894" data-name="Trazado 151894" d="M3322.122,3172.342l-186.588-107.364c-1.544-.739-3.754-1.348-5.327-.563-1.434.715-3.794,2.19-4.838,2.763-.793.435-3.545,2.025-1.831,2.994,5.042,2.852,182.46,105.037,187.583,107.934a7.256,7.256,0,0,0,3.873.677,10.071,10.071,0,0,0,4.194-1.159q1.277-.714,2.512-1.407a2.974,2.974,0,0,0,1.758-2.081C3323.513,3173.446,3323.07,3172.8,3322.122,3172.342Z" transform="translate(-3122.984 -2885.775)" fill="#4aabbe" fill-rule="evenodd" opacity="0.5"/>
        <g id="Grupo_86558" data-name="Grupo 86558" transform="translate(5.183 0)">
          <g id="Grupo_86556" data-name="Grupo 86556" transform="translate(4.031)">
            <path id="Trazado_151895" data-name="Trazado 151895" d="M3332.906,2781.347c8.033,4.627,14.333,15.827,14.308,24.782l-7.381,9.439-6.626-1.3c-3.622-6.331-17.561-11.855-14.307-24.784l-134.812-73.65-40.711-27.687h0c.174-1.044-1.1-6.187.036-6.875,1.266-.769,2.516-1.536,3.759-2.265,3.181-1.881,7.235-.718,10.212,1h0Z" transform="translate(-3142.937 -2678.044)" fill="#6be9ef" fill-rule="evenodd"/>
            <path id="Trazado_151896" data-name="Trazado 151896" d="M3563.083,3107.823c-.014,4.522-1.612,7.7-4.19,9.2l-3.67,2.207c-15.209-7.146-9.165-74.65-10.113-97.067l4.309-58.647,14.007-8.14Z" transform="translate(-3359.146 -2827.295)" fill="#6be9ef" fill-rule="evenodd"/>
          </g>
          <path id="Trazado_151897" data-name="Trazado 151897" d="M3134.551,2693.08c.025-9.1,6.472-12.786,14.4-8.208l175.523,101.338c7.92,4.574,14.333,15.681,14.307,24.783l-.341,152.445c-.026,9.1-6.482,12.781-14.4,8.207l-175.522-101.337c-7.93-4.578-14.334-15.682-14.308-24.783Z" transform="translate(-3134.208 -2680.66)" fill="#d5fdff" fill-rule="evenodd"/>
          <path id="Trazado_151898" data-name="Trazado 151898" d="M3134.551,2693.08c.025-9.1,6.472-12.786,14.4-8.208l14.7,8.487-.417,185.446-14.717-8.5c-7.931-4.578-14.335-15.682-14.309-24.783Z" transform="translate(-3134.208 -2680.66)" fill-rule="evenodd" fill="url(#linear-gradient)"/>
          <path id="Trazado_151899" data-name="Trazado 151899" d="M3135.6,2689.926c1.36-6.74,7.163-9.06,14.1-5.053l175.522,101.336c6.929,4,12.705,13.006,14.024,21.292Z" transform="translate(-3134.958 -2680.66)" fill="#f2f4ff" fill-rule="evenodd"/>
          <g id="Grupo_86557" data-name="Grupo 86557" transform="translate(7.581 6.242)">
            <path id="Trazado_151900" data-name="Trazado 151900" d="M3182.1,2710.227c-1.183-.683-2.143-.134-2.147,1.223a4.7,4.7,0,0,0,2.133,3.7c1.182.682,2.143.134,2.147-1.225A4.7,4.7,0,0,0,3182.1,2710.227Z" transform="translate(-3166.41 -2701.448)" fill="#7980ff" fill-rule="evenodd"/>
            <path id="Trazado_151901" data-name="Trazado 151901" d="M3166.792,2700.235c-1.183-.684-2.143-.135-2.147,1.223a4.7,4.7,0,0,0,2.133,3.7c1.182.683,2.143.135,2.147-1.225A4.7,4.7,0,0,0,3166.792,2700.235Z" transform="translate(-3158.17 -2696.07)" fill="#7980ff" fill-rule="evenodd"/>
            <path id="Trazado_151902" data-name="Trazado 151902" d="M3152.77,2691.853c-1.183-.683-2.144-.134-2.147,1.224a4.7,4.7,0,0,0,2.133,3.7c1.181.682,2.143.134,2.147-1.225A4.7,4.7,0,0,0,3152.77,2691.853Z" transform="translate(-3150.623 -2691.559)" fill="#7980ff" fill-rule="evenodd"/>
          </g>
          <path id="Trazado_151903" data-name="Trazado 151903" d="M3153.33,2758.1c-6.266-3.623-11.73-12.166-12.209-19.089s4.208-9.6,10.474-5.975,11.73,12.17,12.209,19.089-4.211,9.595-10.474,5.975Zm-.136-1.971c5.278,3.051,9.231.8,8.826-5.035s-5.012-13.037-10.289-16.088-9.232-.8-8.828,5.035S3147.914,2753.079,3153.194,2756.131Z" transform="translate(-3137.91 -2706.771)" fill="#e0ebff" fill-rule="evenodd"/>
        </g>
      </g>
      <g id="Grupo_86563" data-name="Grupo 86563" transform="translate(3149.167 2715.776)">
        <path id="Trazado_151904" data-name="Trazado 151904" d="M3384.755,2780.24c0-1.626,1.156-2.284,2.572-1.466,15,8.606,29.976,17.514,44.981,26.12a5.636,5.636,0,0,1,2.555,4.426l.074,59.394c0,1.625-1.158,2.282-2.573,1.466-15-8.606-29.979-17.515-44.981-26.119a5.637,5.637,0,0,1-2.555-4.426Z" transform="translate(-3384.358 -2778.344)" fill="#c2dcf6" fill-rule="evenodd"/>
        <g id="Grupo_86562" data-name="Grupo 86562" transform="translate(0 0)">
          <path id="Trazado_151905" data-name="Trazado 151905" d="M3385.445,2778.941l1.177-.623a1.868,1.868,0,0,1,1.5.265c14.087,8.08,28.144,16.443,42.233,24.524a5.292,5.292,0,0,1,2.4,4.155l.069,55.765a1.757,1.757,0,0,1-.6,1.472c-.443.329-1.357,1.039-2.081.621-14.088-8.08-27.885-17.162-41.97-25.24a5.286,5.286,0,0,1-2.4-4.155Z" transform="translate(-3384.729 -2778.253)" fill="#f2f4ff" fill-rule="evenodd"/>
          <g id="Grupo_86561" data-name="Grupo 86561" transform="translate(0 0.532)">
            <path id="Trazado_151906" data-name="Trazado 151906" d="M3383.9,2781.113c0-1.526,1.085-2.145,2.414-1.377,14.087,8.08,28.144,16.444,42.232,24.524a5.29,5.29,0,0,1,2.4,4.155l.069,55.765c0,1.526-1.087,2.143-2.415,1.376-14.087-8.08-28.147-16.445-42.232-24.523a5.289,5.289,0,0,1-2.4-4.156Z" transform="translate(-3383.895 -2779.406)" fill="#fff" fill-rule="evenodd"/>
            <path id="Trazado_151907" data-name="Trazado 151907" d="M3383.9,2781.113c0-1.526,1.085-2.145,2.414-1.377,14.087,8.08,28.144,16.444,42.232,24.524a5.29,5.29,0,0,1,2.4,4.155l.05,43.82-47.046-26.984Z" transform="translate(-3383.895 -2779.406)" fill="#18b6fe" fill-rule="evenodd"/>
            <g id="Grupo_86560" data-name="Grupo 86560" transform="translate(3.494 51.01)">
              <path id="Trazado_151909" data-name="Trazado 151909" d="M3391.461,2890.581c0-.659.468-.917,1.042-.577l12.975,7.331a2.332,2.332,0,0,1,1.036,1.812v1.3c0,.659-.469.918-1.043.577L3392.5,2893.7a2.328,2.328,0,0,1-1.036-1.812Z" transform="translate(-3391.46 -2889.854)" fill="#40aef6" fill-rule="evenodd" opacity="0.25"/>
              <path id="Trazado_151910" data-name="Trazado 151910" d="M3391.461,2903.065c0-.58.413-.809.918-.508,7.355,4.157,19.411,10.941,26.766,15.1a2.053,2.053,0,0,1,.913,1.6v1.149c0,.581-.414.808-.918.508-7.356-4.156-19.411-10.941-26.767-15.1a2.052,2.052,0,0,1-.913-1.6Z" transform="translate(-3391.46 -2896.619)" fill="#40aef6" fill-rule="evenodd" opacity="0.25"/>
            </g>
            <path id="Trazado_151911" data-name="Trazado 151911" d="M3409.2,2836.468a33.746,33.746,0,0,1,2.543,6.482,56.907,56.907,0,0,0,2.017,5.524,8.409,8.409,0,0,0,2.939,3.9,3.688,3.688,0,0,0,3.262.372,6.6,6.6,0,0,0,2.661-2.379c.329-.427.537-.58.711-.562.331.036,1,1.206,1.167,1.5a14.535,14.535,0,0,1,.855,1.7c.446,1.083,1.329,3.855,1.7,4.966l.117.35,2.638,1.469a2.147,2.147,0,0,0,.825.236l-.419-1.346c-.552-1.833-1.626-5.137-2.373-6.9a14.006,14.006,0,0,0-2.862-4.711,2.534,2.534,0,0,0-2.142-.657,4.509,4.509,0,0,0-2.5,2.02c-.131.17-.262.34-.4.507a3.315,3.315,0,0,1-1.157,1.025,1.053,1.053,0,0,1-.857-.173c-1.382-.8-2.991-6.072-3.493-7.6a56.642,56.642,0,0,0-2.025-5.543,8.468,8.468,0,0,0-2.953-3.919,2.7,2.7,0,0,0-2.118-.332,3.738,3.738,0,0,0-2.143,2.128,22.626,22.626,0,0,0-1.106,2.892,22.679,22.679,0,0,1-.932,2.5,3.237,3.237,0,0,1-.637.963.67.67,0,0,1-.116-.055c-.918-.524-1.992-2.85-2.4-3.787a69.584,69.584,0,0,1-2.626-7.481c-.566-1.864-1.1-3.738-1.629-5.611-.311-1.095-.621-2.19-.943-3.281-.192-.649-.389-1.3-.6-1.946l3.461.875-6.052-10.634-3.442,8.232,2.791.706.362,1.02c.281.793.525,1.607.764,2.414.318,1.075.623,2.154.929,3.233.557,1.967,1.116,3.932,1.713,5.887a68.966,68.966,0,0,0,2.819,7.884c.747,1.674,1.971,4.123,3.619,5.064a2.855,2.855,0,0,0,2.276.339,3.946,3.946,0,0,0,2.207-2.206,22.775,22.775,0,0,0,1.142-2.977,23.638,23.638,0,0,1,.865-2.342C3408.171,2835.062,3408.511,2835.371,3409.2,2836.468Z" transform="translate(-3386.198 -2795.312)" fill="#fff" fill-rule="evenodd" opacity="0.5"/>
          </g>
        </g>
      </g>
      <g id="Grupo_86567" data-name="Grupo 86567" transform="translate(3089.811 2720.567)">
        <path id="Trazado_151912" data-name="Trazado 151912" d="M3255.909,2790.529c.005-1.7,1.21-2.39,2.692-1.534,15.7,9.006,31.369,18.328,47.072,27.334a5.9,5.9,0,0,1,2.674,4.632l.077,62.156c0,1.7-1.212,2.388-2.692,1.533-15.7-9.006-31.373-18.329-47.072-27.334a5.9,5.9,0,0,1-2.674-4.631Z" transform="translate(-3255.662 -2788.627)" fill="#c2dcf6" fill-rule="evenodd"/>
        <g id="Grupo_86566" data-name="Grupo 86566" transform="translate(0 0.952)">
          <path id="Trazado_151913" data-name="Trazado 151913" d="M3256.985,2791.4l1.222-.646a1.946,1.946,0,0,1,1.559.275c14.627,8.39,29.224,17.075,43.853,25.466a5.494,5.494,0,0,1,2.491,4.314l.072,57.906a1.829,1.829,0,0,1-.62,1.529c-.46.34-1.409,1.079-2.161.644-14.628-8.39-28.955-17.821-43.581-26.21a5.489,5.489,0,0,1-2.491-4.314Z" transform="translate(-3256.241 -2790.687)" fill="#f2f4ff" fill-rule="evenodd"/>
          <path id="Trazado_151914" data-name="Trazado 151914" d="M3255.374,2793.655c0-1.584,1.127-2.226,2.508-1.43,14.627,8.39,29.225,17.075,43.854,25.466a5.5,5.5,0,0,1,2.491,4.315l.072,57.906c0,1.584-1.128,2.225-2.508,1.429-14.628-8.391-29.228-17.077-43.853-25.465a5.492,5.492,0,0,1-2.492-4.315Z" transform="translate(-3255.374 -2791.331)" fill="#fff" fill-rule="evenodd"/>
          <path id="Trazado_151915" data-name="Trazado 151915" d="M3255.375,2793.655c0-1.584,1.127-2.226,2.508-1.43,14.627,8.39,29.225,17.075,43.854,25.466a5.5,5.5,0,0,1,2.491,4.315l.051,45.5-48.852-28.02Z" transform="translate(-3255.375 -2791.331)" fill="#d07efc" fill-rule="evenodd"/>
          <g id="Grupo_86564" data-name="Grupo 86564" transform="translate(3.628 53.52)">
            <path id="Trazado_151916" data-name="Trazado 151916" d="M3263.231,2907.326c0-.684.487-.953,1.083-.6l13.472,7.613a2.421,2.421,0,0,1,1.076,1.881v1.354c0,.684-.487.952-1.083.6l-13.472-7.613a2.42,2.42,0,0,1-1.076-1.881Z" transform="translate(-3263.231 -2906.572)" fill="#03c8de" fill-rule="evenodd" opacity="0.25"/>
            <path id="Trazado_151917" data-name="Trazado 151917" d="M3263.231,2920.291c0-.6.429-.84.954-.528,7.638,4.316,20.156,11.362,27.794,15.677a2.137,2.137,0,0,1,.948,1.658v1.193c0,.6-.429.839-.954.528-7.638-4.316-20.156-11.362-27.794-15.678a2.131,2.131,0,0,1-.948-1.658Z" transform="translate(-3263.231 -2913.597)" fill="#03c8de" fill-rule="evenodd" opacity="0.25"/>
          </g>
          <path id="Trazado_151918" data-name="Trazado 151918" d="M3295.917,2849.746l-.052,28.774,8.076,4.708.052-28.775-8.076-4.707Zm-24.25-22.888-.081,38.516,8.076,4.707.081-38.515-8.076-4.707Zm12.1,13.653-.06,31.924,8.075,4.707.061-31.925-8.076-4.706Zm-24.237-10.97-.052,28.774,8.076,4.707.052-28.774Z" transform="translate(-3257.581 -2810.153)" fill="#e7b9ff" fill-rule="evenodd"/>
          <g id="Grupo_86565" data-name="Grupo 86565" transform="translate(1.691 29.787)">
            <path id="Trazado_151919" data-name="Trazado 151919" d="M3259.2,2856.056a.469.469,0,0,1,.04-.736.689.689,0,0,1,.865.034l7.651,7.165,3.706,1.579,7.945-1.621,4.823-5.283a.687.687,0,0,1,.86-.092.561.561,0,0,1,.134.123l11.339,12.171,6.911,1.7a.58.58,0,0,1,.632.5.565.565,0,0,1-.59.539l-7.206-1.7a.66.66,0,0,1-.523-.2l-11.074-11.879-4.47,4.9h0a.625.625,0,0,1-.34.187l-8.374,1.708a.7.7,0,0,1-.415-.041l-3.97-1.691a.621.621,0,0,1-.22-.131Z" transform="translate(-3259.036 -2855.184)" fill="#1895f0" fill-rule="evenodd" opacity="0.5" style="mix-blend-mode: multiply;isolation: isolate"/>
            <path id="Trazado_151920" data-name="Trazado 151920" d="M3259.2,2856.207a.612.612,0,0,1,.9-.824l7.651,8.411,3.706,1.852,7.945-1.9,4.823-6.2a.612.612,0,0,1,.86-.108.575.575,0,0,1,.134.144l10.75,13.87,7.589-.283a.611.611,0,0,1,.043,1.221l-7.885.294a.611.611,0,0,1-.522-.237l-10.485-13.528-4.47,5.748v0a.612.612,0,0,1-.34.22l-8.374,2a.608.608,0,0,1-.415-.047l-3.97-1.985a.6.6,0,0,1-.22-.155Z" transform="translate(-3259.036 -2855.183)" fill="#fff" fill-rule="evenodd"/>
          </g>
        </g>
      </g>
      <g id="Grupo_86578" data-name="Grupo 86578" transform="translate(3034.183 2744.929)">
        <path id="Trazado_151921" data-name="Trazado 151921" d="M3201.008,2980.164l-.705-.41a8.285,8.285,0,0,0,.092.832l-56.833-33.509c-.417-.247-.524-.969-.506-1.4h0l-3.88-44.659.01.006-.727-8.373a2.823,2.823,0,0,1,.761-1.556,40.049,40.049,0,0,0,5.142,3.633l-.061-49.1c.006-1.991,1.417-2.8,3.15-1.8,18.383,10.542,36.726,21.456,55.109,32a6.9,6.9,0,0,1,3.131,5.422l.045,36.3,4.185,2.354-4.147,28.032.007,6.079a2.033,2.033,0,0,1-1.225,2.148Z" transform="translate(-3136.828 -2842.465)" fill="#c2dcf6" fill-rule="evenodd" opacity="0.5"/>
        <g id="Grupo_86577" data-name="Grupo 86577" transform="translate(0)">
          <g id="Grupo_86568" data-name="Grupo 86568" transform="translate(6.353 43.394)">
            <path id="Trazado_151922" data-name="Trazado 151922" d="M3201.914,3022.84l-53.195-30.916,6.854-55.193c.062-.7.515-1.673,1.407-1.321l53.423,30.052Z" transform="translate(-3148.702 -2935.335)" fill-rule="evenodd" fill="url(#linear-gradient-2)"/>
            <path id="Trazado_151923" data-name="Trazado 151923" d="M3155.553,2938.357c23.459,24.712,50.251,40.078,49.551,61.345l-3.21,24.764-53.211-30.751Z" transform="translate(-3148.683 -2936.961)" fill="#783fd3" fill-rule="evenodd"/>
            <path id="Trazado_151924" data-name="Trazado 151924" d="M3255,3012.9l3.669,41.174,7.026-52.325c.2-1.753,1.6-1.608,1.438-.369L3259.9,3055a7.934,7.934,0,0,1-.534,2.207,2.382,2.382,0,0,1-.7.962l0,.009-.04.022c-.04.028-.08.055-.121.08v-.02a.743.743,0,0,1-.785-.017,1.975,1.975,0,0,1-.428-1.3l-3.7-42.531C3253.5,3013.264,3254.308,3012.262,3255,3012.9Z" transform="translate(-3205.133 -2970.372)" fill="#864de2" fill-rule="evenodd"/>
          </g>
          <g id="Grupo_86575" data-name="Grupo 86575" transform="translate(5.564)">
            <g id="Grupo_86569" data-name="Grupo 86569">
              <path id="Trazado_151925" data-name="Trazado 151925" d="M3148.9,2842.229l1.462-.772a2.324,2.324,0,0,1,1.865.33c17.505,10.04,34.974,20.433,52.48,30.474a6.579,6.579,0,0,1,2.981,5.164l.085,69.3a2.188,2.188,0,0,1-.74,1.83c-.55.407-1.687,1.291-2.586.77-17.505-10.041-34.65-21.326-52.153-31.365a6.574,6.574,0,0,1-2.981-5.164Z" transform="translate(-3148.011 -2841.376)" fill="#f2f4ff" fill-rule="evenodd"/>
              <path id="Trazado_151926" data-name="Trazado 151926" d="M3146.974,2844.927c.005-1.9,1.349-2.664,3-1.71,17.5,10.04,34.974,20.433,52.479,30.474a6.574,6.574,0,0,1,2.98,5.163l.086,69.3c-.005,1.9-1.35,2.663-3,1.71-17.506-10.041-34.977-20.435-52.479-30.474a6.569,6.569,0,0,1-2.981-5.163Z" transform="translate(-3146.974 -2842.146)" fill="#fff" fill-rule="evenodd"/>
            </g>
            <g id="Grupo_86574" data-name="Grupo 86574" transform="translate(3.557 12.068)">
              <g id="Grupo_86570" data-name="Grupo 86570" transform="translate(0.32)">
                <path id="Trazado_151927" data-name="Trazado 151927" d="M3159.266,2867.631c2.386.631,4.52,3.455,4.768,6.308s-1.487,4.653-3.874,4.022-4.52-3.455-4.768-6.307S3156.879,2867,3159.266,2867.631Z" transform="translate(-3155.369 -2867.505)" fill="#6d6afd" fill-rule="evenodd" opacity="0.2"/>
                <path id="Trazado_151928" data-name="Trazado 151928" d="M3161.8,2872.853a3.99,3.99,0,0,1,2.571,3.4c.133,1.538-.8,2.509-2.088,2.169a3.991,3.991,0,0,1-2.571-3.4C3159.583,2873.483,3160.518,2872.512,3161.8,2872.853Z" transform="translate(-3157.702 -2870.347)" fill-rule="evenodd" fill="url(#linear-gradient-3)"/>
                <path id="Trazado_151929" data-name="Trazado 151929" d="M3176.963,2879.431c0-.6.43-.841.956-.529l15.944,9.043a2.136,2.136,0,0,1,.949,1.66v1.195c0,.6-.43.841-.956.529l-15.943-9.044a2.133,2.133,0,0,1-.95-1.66Z" transform="translate(-3166.99 -2873.565)" fill="#6d6afd" fill-rule="evenodd" opacity="0.2"/>
                <path id="Trazado_151930" data-name="Trazado 151930" d="M3176.963,2889.265c0-.356.254-.5.564-.312l9.415,5.34a1.26,1.26,0,0,1,.561.98v.706c0,.356-.255.5-.565.313l-9.415-5.34a1.262,1.262,0,0,1-.561-.98Z" transform="translate(-3166.99 -2879.004)" fill="#6d6afd" fill-rule="evenodd" opacity="0.2"/>
              </g>
              <g id="Grupo_86573" data-name="Grupo 86573" transform="translate(0 19.12)">
                <g id="Grupo_86572" data-name="Grupo 86572">
                  <g id="Grupo_86571" data-name="Grupo 86571" transform="translate(5.694 14.743)">
                    <path id="Trazado_151931" data-name="Trazado 151931" d="M3167,2957.586l10.145-16.759,5.124,18.608,5.206-6.337,6.486,19.951Z" transform="translate(-3167.005 -2940.827)" fill-rule="evenodd" fill="url(#linear-gradient-4)"/>
                    <path id="Trazado_151932" data-name="Trazado 151932" d="M3204.31,2943.361a4.231,4.231,0,0,1,2.784,3.637c.144,1.663-.869,2.732-2.262,2.387a4.229,4.229,0,0,1-2.785-3.637C3201.9,2944.084,3202.916,2943.016,3204.31,2943.361Z" transform="translate(-3185.855 -2942.156)" fill="#ffdb59" fill-rule="evenodd"/>
                  </g>
                  <path id="Trazado_151933" data-name="Trazado 151933" d="M3154.771,2911.723c.008-2.522,1.793-3.542,3.99-2.273l32.6,18.486a8.743,8.743,0,0,1,3.964,6.866l-.095,26.913c-.007,2.521-1.8,3.541-3.99,2.274l-32.6-18.487a8.737,8.737,0,0,1-3.964-6.866Z" transform="translate(-3154.676 -2908.905)" fill-rule="evenodd" opacity="0.2" fill="url(#linear-gradient-5)"/>
                </g>
                <path id="Trazado_151934" data-name="Trazado 151934" d="M3253.927,2967.666c.007-2.522,1.793-3.542,3.99-2.273l5.179,2.936-.054,36.091-5.245-2.974a8.738,8.738,0,0,1-3.964-6.866Z" transform="translate(-3208.037 -2939.01)" fill-rule="evenodd" opacity="0.2" fill="url(#linear-gradient-6)"/>
              </g>
            </g>
          </g>
          <g id="Grupo_86576" data-name="Grupo 86576" transform="translate(0 45.869)">
            <path id="Trazado_151935" data-name="Trazado 151935" d="M3190.592,2981.572c.3,3.726,3.154,44.583,3.315,44.8l-54.12-31.91c-.4-.235-.5-.923-.481-1.336h0l-3.695-42.527.01.006-.693-7.973a2.69,2.69,0,0,1,.725-1.481c1.734,1.848,16.383,10.483,18.224,11.625,2.947,2.6,2.4,6,6.573,11.409a6.4,6.4,0,0,0,2.2,1.992Z" transform="translate(-3134.927 -2940.937)" fill="#856de9" fill-rule="evenodd"/>
            <path id="Trazado_151936" data-name="Trazado 151936" d="M3255,3027.185l3.669,41.174,1.227.929a7.943,7.943,0,0,1-.534,2.207,2.375,2.375,0,0,1-.7.961l0,.009-.04.023q-.06.042-.121.079v-.019a.742.742,0,0,1-.785-.017,1.977,1.977,0,0,1-.428-1.3l-3.7-42.531C3253.5,3027.551,3254.308,3026.549,3255,3027.185Z" transform="translate(-3198.78 -2987.133)" fill="#856de9" fill-rule="evenodd"/>
            <path id="Trazado_151937" data-name="Trazado 151937" d="M3164.277,2964.486l26.917,16.211c-.6-.3-1.5.85-1.462,1.563l-27.287-16.225a11.277,11.277,0,0,1-1.886-1.312c-3.112-2.771-4.063-6.719-5.834-9.865a7.2,7.2,0,0,0-1.652-2.016c-.571-.323-.873-.494-.771-.444l-17.374-10.028a1.69,1.69,0,0,1,1.607-1.677l17.4,10.042c-.1-.051.2.121.771.444a7.213,7.213,0,0,1,1.651,2.016c1.873,3.33,2.688,7.05,6.178,10.148A12.357,12.357,0,0,0,3164.277,2964.486Z" transform="translate(-3134.928 -2940.693)" fill="#5738d8" fill-rule="evenodd"/>
          </g>
        </g>
      </g>
      <g id="Grupo_86586" data-name="Grupo 86586" transform="translate(3074.6 2798.16)">
        <path id="Trazado_151938" data-name="Trazado 151938" d="M3302.314,3212.627l-26.07-14.848c-2.841-1.3-6.91-2.332-9.805-.825-2.638,1.373-6.985,4.183-8.906,5.28-1.459.832-6.526,3.868-3.371,5.584,9.284,5.048,18.472,10.725,27.9,15.854a13.228,13.228,0,0,0,7.129,1.093,18.88,18.88,0,0,0,7.721-2.3l4.623-2.691c2.045-1.191,3.129-2.6,3.236-3.9C3304.876,3214.6,3304.059,3213.424,3302.314,3212.627Z" transform="translate(-3238.965 -3085.563)" fill="#4aabbe" fill-rule="evenodd" opacity="0.5"/>
        <g id="Grupo_86585" data-name="Grupo 86585" transform="translate(0 0)">
          <g id="Grupo_86580" data-name="Grupo 86580" transform="translate(0 18.161)">
            <path id="Trazado_151939" data-name="Trazado 151939" d="M3250.722,3012.107a56.453,56.453,0,0,0-11.453-4.286c-.353-.1-2.883-.735-3.224-.853-.188-.093-1.036-.443-1.186-.524a6.189,6.189,0,0,1-1.664,4.187c.175.071,1.1.557,1.29.638.281.156.678.951.888,1.192,2.091,2.4,8.794,6.073,14.074,8.09l.02.007a3.6,3.6,0,0,0,4.165-.857c.6-.413,1.18-.863,1.568-1.115,2.995-1.956,8.584-9.011,12.966-20.194a13.428,13.428,0,0,0-3.639-2.127,4.85,4.85,0,0,0-4.537.619c-1.288,1.082-2.779,3.2-4.082,6.779-.88,2.411-3.3,5.417-5.083,8.279Z" transform="translate(-3228.228 -2995.959)" fill="#18b6fe" fill-rule="evenodd"/>
            <path id="Trazado_151940" data-name="Trazado 151940" d="M3274.124,3020.3c.6-.413,1.18-.863,1.567-1.116,3-1.956,8.584-9.011,12.967-20.194-4.431-5.074-10.549,1-12.189,5.5-2.124,5.827-4.074,10.776-5.2,16.981A2.957,2.957,0,0,0,3274.124,3020.3Z" transform="translate(-3248.72 -2996.554)" fill="#18b6fe" fill-rule="evenodd" opacity="0.35" style="mix-blend-mode: multiply;isolation: isolate"/>
            <g id="Grupo_86579" data-name="Grupo 86579" transform="translate(0 6.597)">
              <path id="Trazado_151941" data-name="Trazado 151941" d="M3225.75,3011.83l-.782-1.3a.649.649,0,0,0-.77-.233c-1.064.562-.8,2.569.591,3.623-1.668.058-2.238.456-2.318,1.207-.125,1.174.1,5.558.855,5.873.623.26,3.678.549,4.258.057.424-.36-.032-.656.538-1.256.189-.2.995-.2,1.6-.685.787-.625.96-2.783.421-4.024a3.046,3.046,0,0,0-.355-1.631C3228.807,3011.959,3226.728,3013.453,3225.75,3011.83Z" transform="translate(-3222.439 -3010.242)" fill="#ffb89e" fill-rule="evenodd"/>
              <path id="Trazado_151942" data-name="Trazado 151942" d="M3229.44,3020.531c-.405.094-.3.239-.85.286a3.043,3.043,0,0,0,1.169.548c.627-.2.865-.234,1.1.145.689,1.106.444,3.432.39,4.09.254-.593,1.806-.473,2.177-1.428.266-.817.5-2.827.049-3.234a1.561,1.561,0,0,1-1.545.614C3230.979,3021.352,3229.7,3020.47,3229.44,3020.531Z" transform="translate(-3225.749 -3015.778)" fill="#ffb89e" fill-rule="evenodd"/>
            </g>
          </g>
          <g id="Grupo_86581" data-name="Grupo 86581" transform="translate(26.49 51.441)">
            <path id="Trazado_151943" data-name="Trazado 151943" d="M3331.5,3214.337a11.589,11.589,0,0,0,.322,1.648,19.069,19.069,0,0,1,.847,2.648c.434,1.845-.163,4.316.422,6.926a2.852,2.852,0,0,1-.414,2.8c-.679.9-1.958,2.352-3.625,2.3a2.5,2.5,0,0,1-1.76-.854,4.2,4.2,0,0,1-1.051-3.093,25.616,25.616,0,0,0,.275-3.56c-.042-1.278-.276-1.982-.247-3.383.031-1.482.145-3.521.168-4.477Z" transform="translate(-3304.785 -3146.761)" fill="#20234a" fill-rule="evenodd"/>
            <path id="Trazado_151944" data-name="Trazado 151944" d="M3291.781,3196.228a8.6,8.6,0,0,1,.824,3.706c-.3.968-.978,1.361-1.737,2.029l-.535.117c-1.327.718-1.812,3.236-3.043,4.383-.869.808-2.6,1.249-4.314,1.58-1.834.354-3.577-.17-3.1-1.612,1.186-3.584,6.314-7.632,6.431-11.636Z" transform="translate(-3279.796 -3136.244)" fill="#20234a" fill-rule="evenodd"/>
            <path id="Trazado_151945" data-name="Trazado 151945" d="M3287.371,3102.458c.132,6.866,1.627,19.715,1.4,26.481a4.507,4.507,0,0,0,6.408-.586c.713-6.225,1.543-15.07,1.625-18.486a26.489,26.489,0,0,0-.913-8.011c1.02-7.512,5.358-17.763,4.325-24.831-.453-3.1-2.488-6.446-3.08-9.008-5.118,6.3-9.017,3.283-11.135,2.735.012,2.178-.153,1.888-.082,4.177.239,7.741.6,16.008,1.024,24.041A10.983,10.983,0,0,0,3287.371,3102.458Z" transform="translate(-3283.081 -3068.018)" fill-rule="evenodd" fill="url(#linear-gradient-7)"/>
            <path id="Trazado_151946" data-name="Trazado 151946" d="M3296.471,3116.38c.24-2.7.411-5.057.446-6.512a26.505,26.505,0,0,0-.914-8.011c1.02-7.512,5.358-17.763,4.325-24.831-.454-3.1-2.488-6.446-3.08-9.008-5.117,6.3-9.017,3.283-11.134,2.735,0,.243,0,.455,0,.643l6.706,4.956-1.652-.373c.063,8.921,1.166,17.054,1.333,25.852a133.522,133.522,0,0,1,3.944,14.392Z" transform="translate(-3283.196 -3068.018)" fill="#1e2353" fill-rule="evenodd" opacity="0.3" style="mix-blend-mode: multiply;isolation: isolate"/>
            <path id="Trazado_151947" data-name="Trazado 151947" d="M3302.858,3109.607c1.233,6.866,4.831,23.527,5.688,30.293,2.215,1.23,5.471.8,6.254-1,.025-6.225,0-17.423-.466-20.839a42.788,42.788,0,0,0-2.53-9.782c.454-16.042,1.82-20.531-.347-27.6-.952-3.1-3.442-6.1-4.445-8.661-1.374,2.11-3.492,5.1-8.032,4.732-.445-.036-4.229-2.74-5.479-3.051,1.583,9.543,6.148,22.009,8.369,32.417A12.055,12.055,0,0,0,3302.858,3109.607Z" transform="translate(-3287.172 -3070.172)" fill-rule="evenodd" fill="url(#linear-gradient-8)"/>
          </g>
          <path id="Trazado_151948" data-name="Trazado 151948" d="M3290.573,2994.785a3.785,3.785,0,0,0-1.416.477c-3.377,1.875-4.555,7.394-5.1,12.228a73.2,73.2,0,0,0,.019,11.512c.106,3.061-.289,5.894-.151,8.792.04.858.366,1.789.454,2.7a4.413,4.413,0,0,1,.222,1.808c1.691,6.447,17.672,6.981,20,2.616a12.769,12.769,0,0,1-.41-1.952c1.5-1.37.635-4.71.873-7.043a18.859,18.859,0,0,1,.948-4.815c1.024-2.521,2.239-4.77,3.44-7.15a21.9,21.9,0,0,0,2.37-6.435c.416-2.831-3.2-6.355-7.972-9.21C3299.261,2995.568,3293.032,2994.069,3290.573,2994.785Z" transform="translate(-3255.474 -2977.07)" fill="#18b6fe" fill-rule="evenodd"/>
          <path id="Trazado_151949" data-name="Trazado 151949" d="M3303.825,3034.083a.453.453,0,0,0-.407.452.382.382,0,0,0,.407.394.454.454,0,0,0,.406-.453.381.381,0,0,0-.406-.394Zm2.247.749-.06.147c-.064.158-.125.324-.181.5l-1.878-3.908-2.449,4.132a17.525,17.525,0,0,0,4.3-.155c-.085.267-.161.549-.23.844-9.96,1.44-18.861-5.982-21.723-8.68-.012-.393-.022-.787-.028-1.185.369.369,1.036,1.011,1.95,1.791l-1.756-6.61.021-.2h0v0h0v0h0v0h0v0h0v0h0v0h0v0h0v0h0v0h0v0h0v0h0v0h0v0h0v0h0v0h0v0h0v0h0v0h0v0h0v0h0v0h0v0h0v0h0v0h0v0h0v0h0v-.006h0v-.006h0v-.033h0v-.031h0v-.03h0v-.029h0v-.018l0-.006v0h0v-.06h0v-.012h0v-.016h0v-.012h0v-.016h0v-.012h0v-.03h0v-.029h0v-.03h0v-.012h0q.034-.292.072-.587l.109.413.115-.11c.024.026,6.218,6.689,14.455,8.889l.024-.033.018.044a18.383,18.383,0,0,0,8.756.283l.12.788a17.725,17.725,0,0,1-3.512.415l1.809,3.764Zm-2.366-3.762-2.449,4.132-1.965-4.684a20.26,20.26,0,0,0,4.414.552Zm-5.373-.8a26.717,26.717,0,0,1-4.162-1.569l1.446,5.2,2.717-3.634Zm-4.893-1.925a35.1,35.1,0,0,1-4.269-2.563l1.306,5.762,2.963-3.2Zm-4.971-3.064a39.2,39.2,0,0,1-3.839-3.2l1.705,6.42,2.134-3.222Zm-1.891,3.7a38.481,38.481,0,0,0,3.368,2.437l-1.27-5.6-2.1,3.167Zm4.181,2.942a30.325,30.325,0,0,0,4.411,2.218l-1.491-5.369-2.92,3.151Zm5.071,2.472a22.081,22.081,0,0,0,5.073,1.244l-2.158-5.144-2.915,3.9Zm10.712-2.72a.453.453,0,0,0-.406.452.38.38,0,0,0,.406.394.452.452,0,0,0,.406-.452.381.381,0,0,0-.406-.394Zm-22.614-6.489a.443.443,0,0,0-.1.021q0,.412,0,.818a.394.394,0,0,0,.105.006.452.452,0,0,0,.406-.452.381.381,0,0,0-.406-.394Zm2.612-.407a.453.453,0,0,0-.407.452.381.381,0,0,0,.407.394.453.453,0,0,0,.406-.452.381.381,0,0,0-.406-.394Zm1.625,3.855a.453.453,0,0,0-.407.451.382.382,0,0,0,.407.395.453.453,0,0,0,.406-.453.38.38,0,0,0-.406-.393Zm3.065-.752a.451.451,0,0,0-.406.452.382.382,0,0,0,.406.395.455.455,0,0,0,.406-.453.381.381,0,0,0-.406-.393Zm1.812,3.548a.452.452,0,0,0-.406.451.38.38,0,0,0,.406.394.453.453,0,0,0,.407-.452.381.381,0,0,0-.407-.393Zm3.039-1.2a.453.453,0,0,0-.406.452.381.381,0,0,0,.406.394.452.452,0,0,0,.406-.452.381.381,0,0,0-.406-.394Zm2.426,3.211a.453.453,0,0,0-.406.452.381.381,0,0,0,.406.394.453.453,0,0,0,.406-.452.382.382,0,0,0-.406-.394Zm2.865-1.844a.453.453,0,0,0-.406.452.381.381,0,0,0,.406.394.453.453,0,0,0,.406-.452A.382.382,0,0,0,3301.373,3031.593Z" transform="translate(-3255.474 -2990.94)" fill="#fff" fill-rule="evenodd"/>
          <path id="Trazado_151950" data-name="Trazado 151950" d="M3285.042,3044.446a3.179,3.179,0,0,1,.217,1.654c1.691,6.447,17.672,6.981,20,2.616a12.857,12.857,0,0,1-.41-1.952c1.5-1.37.635-4.71.873-7.043a18.888,18.888,0,0,1,.948-4.815c1.751-4.314,4.062-7.828,5.208-11.181l-2.278-2.1-4.584-1.386a29.124,29.124,0,0,0-1.773,7.177c-.4,2.991-.566,6-1.106,9.029C3301.491,3044.542,3300.25,3050,3285.042,3044.446Z" transform="translate(-3256.129 -2990.866)" fill="#f969ac" fill-rule="evenodd" opacity="0.35" style="mix-blend-mode: multiply;isolation: isolate"/>
          <g id="Grupo_86582" data-name="Grupo 86582" transform="translate(8.659 41.156)">
            <path id="Trazado_151951" data-name="Trazado 151951" d="M3271.3,3067.9a2.771,2.771,0,0,1-.863.518.723.723,0,0,1-.407-.042l-11.835-7.928-1.948-1.74-13.845-11.423c-.37-.325-1.153-.8-1.212-1a5.805,5.805,0,0,1,.827-.5c.1-.1.484,0,1.295.488l11.973,6.992a5.04,5.04,0,0,1,1.261.86l14.666,13.2C3271.407,3067.493,3271.484,3067.764,3271.3,3067.9Z" transform="translate(-3241.187 -3045.747)" fill="#d8fff7" fill-rule="evenodd"/>
            <path id="Trazado_151952" data-name="Trazado 151952" d="M3270.509,3068.451c.046.146.33.8-.7.43l-12.412-7.391-1.948-1.741-13.547-11.923c-.889-.783-1.2-1.6.611-.517l11.973,6.991a5.026,5.026,0,0,1,1.26.861Z" transform="translate(-3241.189 -3046.306)" fill="#9fd2fb" fill-rule="evenodd"/>
          </g>
          <path id="Trazado_151953" data-name="Trazado 151953" d="M3297.78,3073.594a7.047,7.047,0,0,1-1.061.516c0-.031-.008-.063-.013-.095a1.72,1.72,0,0,1-.337.233c-.213.082-.424.161-.628.241a12.443,12.443,0,0,1-1.566.248c-.621.1-2.091.312-2.717.467-.818.2-1.466.94-2.6,1.584l1.242,1.118a1.512,1.512,0,0,1-.8.167c-1.13-.113-4.029-1.56-3.911-.981a10.38,10.38,0,0,0,1.213,2.316,9.121,9.121,0,0,0,2.554,2.175,15.944,15.944,0,0,0,3.04,1.632c.818.25,3.542-1.687,4.051-2.294,1.625-1.943.975-2.935,2.6-3.713Z" transform="translate(-3256.31 -3019.578)" fill-rule="evenodd" fill="url(#linear-gradient-9)"/>
          <path id="Trazado_151954" data-name="Trazado 151954" d="M3324.831,3016.5c1.123,4.918.39,12.9.9,18.66a3.464,3.464,0,0,1-.065,1.114c0,.08-.01.158-.02.235-.1,1.266-1.07,2.037-2.251,2.8-3.031,1.966-5.536,4.466-10.971,6.186a5.36,5.36,0,0,1-1.74-.085c-.338.1-.781.356-1.141.46a5.314,5.314,0,0,0-2.283-3.827c.354-.189.774-.508,1.154-.737a3.468,3.468,0,0,1,.707-1,56.4,56.4,0,0,1,9.146-6.57c-.411-1.43-.686-2.9-.965-4.019a68.751,68.751,0,0,1-1.335-6.929c-.128-.9-.217-1.35-.323-2.264C3314.863,3013.742,3323.468,3010.538,3324.831,3016.5Z" transform="translate(-3268.087 -2987.164)" fill="#18b6fe" fill-rule="evenodd"/>
          <g id="Grupo_86584" data-name="Grupo 86584" transform="translate(29.984)">
            <g id="Grupo_86583" data-name="Grupo 86583">
              <path id="Trazado_151955" data-name="Trazado 151955" d="M3303.058,2992.666c-.048-.258-.11-.516-.165-.793-.158-.789.047-2.321-.164-4.128l6.844-2.891c.114,3.843.743,4.635,1.451,7.766-.076,3.079-7.724,4.457-7.884.84A5.672,5.672,0,0,0,3303.058,2992.666Z" transform="translate(-3295.632 -2971.821)" fill="#ffa698" fill-rule="evenodd"/>
              <path id="Trazado_151956" data-name="Trazado 151956" d="M3303.058,2992.666c-.048-.258-.11-.516-.165-.793-.158-.789.047-2.321-.164-4.128l6.844-2.891c.026.872.078,1.591.152,2.216.244,2.545-2.2,6.978-6.585,6.39A5.661,5.661,0,0,0,3303.058,2992.666Z" transform="translate(-3295.632 -2971.821)" fill-rule="evenodd" fill="url(#linear-gradient-10)"/>
              <path id="Trazado_151957" data-name="Trazado 151957" d="M3295.679,2980.252c.84-.555,3.135-1.948,3.887-2.5,1.645-1.207,1.445-2.747,1.922-5.16,1.539-1.1,2.056-1.972,2.193-2.959a7.147,7.147,0,0,0-2.8-6.243,6.214,6.214,0,0,0-5.381-1.1c-3.927.86-5.544,3.831-5.752,7.228a2.268,2.268,0,0,0,.11.844,10.655,10.655,0,0,1,.363,1.262c.206,1.007-.474,1.372-.2,2.625a18.96,18.96,0,0,0,2.361,5.58C3292.828,2980.255,3294.812,2980.393,3295.679,2980.252Z" transform="translate(-3288.646 -2959.579)" fill="#ffa698" fill-rule="evenodd"/>
              <path id="Trazado_151958" data-name="Trazado 151958" d="M3289.941,2974.953a10.89,10.89,0,0,0-.189,1.48,2.263,2.263,0,0,0,.11.843,10.731,10.731,0,0,1,.363,1.261c.206,1.008-.474,1.373-.2,2.625a20.316,20.316,0,0,0,1.063,3.129c2.528,1.922,4.739-.426,5.077-.862,1.584-2.043,1.706-5.1.508-7.954A9.7,9.7,0,0,1,3289.941,2974.953Z" transform="translate(-3288.646 -2966.493)" fill-rule="evenodd" fill="url(#linear-gradient-11)"/>
              <path id="Trazado_151959" data-name="Trazado 151959" d="M3303.5,2965.583a19.583,19.583,0,0,1-1.89,5.87c-.8,1.281-.45-.29-.87-1.166-.323-.674-1.369-.753-1.685-1.448a2.181,2.181,0,0,1-.742,1.375c-.243.132-.733.313-.753-.384-.067-2.409-1.207-2.577-.847-4.021.27-1.083.2-1.548-.061-1.939-.787.11-1.292.915-2.214,1.313a8.056,8.056,0,0,1-5.476-.521,2.961,2.961,0,0,1-.492-4.945c.907-.845,1.926-1.06,3.351-2.013a6.176,6.176,0,0,1,7.947.842C3303.34,2959.27,3303.729,2962.681,3303.5,2965.583Z" transform="translate(-3287.362 -2956.635)" fill="#12263f" fill-rule="evenodd"/>
              <path id="Trazado_151960" data-name="Trazado 151960" d="M3312.8,2980.232c1.481-.671,1.664,1.1,1.532,2.194-.091.753-.705.758-.869,1.361a1.4,1.4,0,0,1-1.163,1.127c-.935.066-.493-1.376-.436-1.937C3311.667,2982.085,3311.86,2980.659,3312.8,2980.232Z" transform="translate(-3300.465 -2969.254)" fill="#ffa698" fill-rule="evenodd"/>
            </g>
          </g>
        </g>
      </g>
      <g id="Grupo_86593" data-name="Grupo 86593" transform="translate(3136.343 2843.466)">
        <path id="Trazado_151962" data-name="Trazado 151962" d="M3425.583,3167.184l-53.393-31.027a2.125,2.125,0,0,1-.787-1.425l-12.738-44.8.011.007-2.388-8.4a2.174,2.174,0,0,1,.46-1.519c2.219,2.02,14.066,9.271,16.251,10.557,3.055,2.393,3.647,5.257,6.984,9.557l5.54-26.294,0-.016v-.007l0-.009,0-.015v0l0-.018v0l0-.014,0-.012,0-.006,0-.02h0l0-.018,0-.01,0-.01.005-.019h0l.005-.022,0-.006,0-.015,0-.016v-.005l.007-.023v0l.006-.019,0-.013,0-.01.007-.023h0l.008-.023,0-.01,0-.013.007-.021v0l.009-.023,0-.006.007-.019.006-.016,0-.009.009-.024v0l.01-.023,0-.012.005-.012.01-.022v0l.012-.025,0-.008.007-.017.009-.02,0-.006.012-.025,0,0,.01-.021.007-.014.005-.011.014-.025h0l.014-.025,0-.01.008-.014.012-.021,0,0,.014-.025,0-.006.012-.019.01-.016.005-.008.015-.024v0l.014-.022.008-.011.008-.012.015-.021v0l.017-.023.006-.008.011-.015.018-.022.018-.022,0,0,.016-.018.01-.012.007-.008.02-.021.019-.02.008-.009.011-.01.017-.016,0,0,.021-.019.006,0,.015-.013.015-.012.006-.006.022-.017h0l.02-.015.012-.008.01-.008.022-.014h0l.023-.015.008,0,.016-.009a.88.88,0,0,1,.8-.037l53.428,31.052h0c.234.135.338.478.242.922l-12.475,59.272a8.926,8.926,0,0,1-.757,2.32,2.67,2.67,0,0,1-1,1.133A.875.875,0,0,1,3425.583,3167.184Z" transform="translate(-3356.202 -3064.225)" fill="#c2dcf6" fill-rule="evenodd"/>
        <g id="Grupo_86592" data-name="Grupo 86592" transform="translate(0 0)">
          <g id="Grupo_86589" data-name="Grupo 86589">
            <g id="Grupo_86587" data-name="Grupo 86587" transform="translate(16.014 6.467)">
              <path id="Trazado_151963" data-name="Trazado 151963" d="M3441.585,3155.606l-50.782-29.512,11.789-55.956,0-.016v-.006l0-.01,0-.014v0l0-.018v0l0-.013,0-.011v-.006l0-.018h0l0-.018,0-.01,0-.01,0-.018h0l0-.021,0-.007,0-.014,0-.016,0,0,.007-.021v0l.006-.018,0-.013,0-.009.007-.021h0l.008-.023,0-.009,0-.013.006-.019,0,0,.008-.023,0-.006.006-.017.006-.016,0-.008.009-.023v0l.01-.021,0-.012.005-.012.009-.021v0l.011-.023,0-.008.007-.016.009-.018,0-.005.012-.024,0,0,.01-.02.007-.014.005-.01.013-.024h0l.012-.023.006-.01.008-.014.011-.019,0,0,.014-.024,0-.006.01-.017.01-.015.006-.007.014-.023v0l.014-.021.008-.01.008-.011.014-.02v0l.017-.022.005-.007.012-.014.017-.021.017-.021,0,0,.014-.018.01-.011.007-.008.019-.02.018-.02.008-.008.011-.01.016-.015,0,0,.019-.017,0-.005.016-.013.014-.012.007,0,.02-.016v0l.02-.014.01-.008.011-.008.02-.013h0l.022-.014.008,0,.014-.009a.835.835,0,0,1,.757-.035l50.777,29.511C3453.222,3097.408,3446.468,3139.106,3441.585,3155.606Z" transform="translate(-3390.802 -3068.736)" fill="#f2a121" fill-rule="evenodd"/>
              <path id="Trazado_151964" data-name="Trazado 151964" d="M3402.592,3071.772c21.328,24.442,46.768,39.536,44.28,60.748l-5.288,24.72-50.783-29.512Z" transform="translate(-3390.802 -3070.37)" fill="#cf8510" fill-rule="evenodd"/>
            </g>
            <g id="Grupo_86588" data-name="Grupo 86588" transform="translate(11.684)">
              <path id="Trazado_151965" data-name="Trazado 151965" d="M3435.833,3086.391l-1.147,56.751-53.26-30.745.159-56.26Z" transform="translate(-3381.425 -3055.488)" fill="#fff" fill-rule="evenodd"/>
              <path id="Trazado_151966" data-name="Trazado 151966" d="M3496.906,3121.959l1.113-.647-.159,56.262-1.112.643Z" transform="translate(-3443.487 -3090.563)" fill="#f2f4ff" fill-rule="evenodd"/>
              <path id="Trazado_151967" data-name="Trazado 151967" d="M3381.769,3055.381l1.118-.648,53.255,30.749-1.112.647Z" transform="translate(-3381.61 -3054.733)" fill="#f2f4ff" fill-rule="evenodd"/>
              <path id="Trazado_151968" data-name="Trazado 151968" d="M3435.241,3137.471l-.01,3.549-49.3-28.462.011-3.547,49.3,28.46Zm.11-40.791,0,3.547-49.3-28.46.01-3.547,49.29,28.46Zm-.016,5.825-49.29-28.46-.01,3.547,49.29,28.46.011-3.547Zm-.016,5.829-49.3-28.459,0,3.548,49.29,28.458.011-3.547Zm-.016,5.829-49.3-28.459-.011,3.547,49.3,28.46.01-3.548Zm-.015,5.826-49.3-28.46-.01,3.547,49.3,28.46.011-3.547Zm-.016,5.829-49.3-28.461-.011,3.548,49.3,28.459.011-3.546Zm-.016,5.829-49.3-28.46-.011,3.547,49.3,28.46Z" transform="translate(-3383.852 -3061.991)" fill="#daecfd" fill-rule="evenodd"/>
            </g>
            <path id="Trazado_151969" data-name="Trazado 151969" d="M3409.185,3123.415l12.106,42.571,0,0a5.091,5.091,0,0,0,.745,1.354l-50.777-29.507a2.016,2.016,0,0,1-.748-1.354l-12.106-42.574.011.006-2.269-7.981a2.067,2.067,0,0,1,.437-1.444c2.108,1.921,13.369,8.812,15.445,10.034,3.478,2.725,3.6,6.09,8.864,11.675a9.109,9.109,0,0,0,2.606,2.087Z" transform="translate(-3356.128 -3070.746)" fill="#ffce57" fill-rule="evenodd"/>
            <path id="Trazado_151970" data-name="Trazado 151970" d="M3471.6,3147.7a1.478,1.478,0,0,1,.248-.183c.4-.228.753-.13.872.262l11.992,42.228,11.787-55.956a1.993,1.993,0,0,1,.86-1.261,1.08,1.08,0,0,1,.245-.1c.487-.129.771.285.635.912l-11.856,56.331a8.472,8.472,0,0,1-.719,2.2,2.539,2.539,0,0,1-.955,1.077.824.824,0,0,1-.941.022,2.526,2.526,0,0,1-.687-1.315l-12.108-42.577A1.863,1.863,0,0,1,3471.6,3147.7Z" transform="translate(-3417.915 -3096.672)" fill="#dc992e" fill-rule="evenodd"/>
            <path id="Trazado_151971" data-name="Trazado 151971" d="M3385.084,3106.065l25.614,14.884c-.666-.326-1.689,1.172-1.513,1.884l-25.869-15.032a15.94,15.94,0,0,1-2.157-1.395c-3.677-2.9-5.413-6.884-7.815-10.1a10.29,10.29,0,0,0-2.06-2.086c-.638-.347-.977-.532-.864-.478l-14.276-8.4a2.079,2.079,0,0,1,.44-1.432c.271-.287.693-.641,1.077-.44l14.3,8.418c-.113-.055.224.13.863.477a10.29,10.29,0,0,1,2.06,2.085c2.542,3.406,4.36,7.235,8.485,10.484A13.474,13.474,0,0,0,3385.084,3106.065Z" transform="translate(-3356.128 -3070.165)" fill="#f2a121" fill-rule="evenodd"/>
          </g>
          <g id="Grupo_86591" data-name="Grupo 86591" transform="translate(20.481 47.928)">
            <path id="Trazado_151972" data-name="Trazado 151972" d="M3406.959,3158.739c4.439,1.144,8.818,6.264,9.779,11.436s-1.859,8.436-6.3,7.292-8.818-6.265-9.779-11.437S3402.52,3157.595,3406.959,3158.739Z" transform="translate(-3400.473 -3158.51)" fill="#fff" fill-rule="evenodd" opacity="0.5"/>
            <g id="Grupo_86590" data-name="Grupo 86590" transform="translate(4.707 3.701)">
              <path id="Trazado_151973" data-name="Trazado 151973" d="M3411.211,3170.452l-.144-1.662a2.444,2.444,0,0,1,.363-1.985c.41-.4,1-.362,1.783.069l1.692.9a3.258,3.258,0,0,1,1.645,1.571,7.25,7.25,0,0,1,.531,2.408l.118,1.2a6.6,6.6,0,0,1,.738,1.99c.43,2.313-.831,3.772-2.816,3.261a6.848,6.848,0,0,1-4.373-5.113,3.221,3.221,0,0,1,.462-2.641Zm4.833.942a5.505,5.505,0,0,0-.392-1.7,2.194,2.194,0,0,0-1.127-1.042c-.576-.274-1.153-.638-1.729-.92-.345-.19-.558-.258-.627-.189-.138.135-.173.541-.1,1.243l.088,1.032a2.618,2.618,0,0,1,1.412.01A5.475,5.475,0,0,1,3416.045,3171.393Z" transform="translate(-3410.666 -3166.525)" fill="#d07efc" fill-rule="evenodd"/>
              <path id="Trazado_151974" data-name="Trazado 151974" d="M3418.08,3181.04l.117,1.175a.445.445,0,0,1-.451.5.566.566,0,0,1-.55-.5l-.155-1.559a1.661,1.661,0,0,1-.389-.77c-.1-.536.192-.875.654-.757a1.589,1.589,0,0,1,1.014,1.187A.639.639,0,0,1,3418.08,3181.04Z" transform="translate(-3413.877 -3173.296)" fill="#21389b" fill-rule="evenodd"/>
            </g>
          </g>
        </g>
      </g>
      <g id="Grupo_86598" data-name="Grupo 86598" transform="translate(3177.578 2781.476)">
        <path id="Trazado_151975" data-name="Trazado 151975" d="M3446.56,2925.661c.011-3.791,2.7-5.324,6-3.418l42.349,24.544a13.144,13.144,0,0,1,5.958,10.321l-.005,22.444c-.01,3.79-2.7,5.322-6,3.418l-42.349-24.545a13.136,13.136,0,0,1-5.958-10.32Z" transform="translate(-3446.026 -2921.002)" fill="#c2dcf6" fill-rule="evenodd"/>
        <g id="Grupo_86597" data-name="Grupo 86597" transform="translate(0 0)">
          <path id="Trazado_151976" data-name="Trazado 151976" d="M3447.521,2924.631c0-1.286-.451-2.083.1-2.786a6.115,6.115,0,0,1,2.087-1.168,4.449,4.449,0,0,1,3.646.629l39.859,23.207a12.787,12.787,0,0,1,5.795,10.038l-.139,18.5a4.755,4.755,0,0,1-1.119,3.409,5,5,0,0,1-2.533,1.211c-.835.067-1.159-.705-2.181-1.3l-39.858-23.207a12.779,12.779,0,0,1-5.8-10.038Z" transform="translate(-3446.453 -2920.51)" fill="#f2f4ff" fill-rule="evenodd"/>
          <g id="Grupo_86596" data-name="Grupo 86596" transform="translate(0 0.504)">
            <path id="Trazado_151977" data-name="Trazado 151977" d="M3445.55,2925.814c.01-3.687,2.621-5.179,5.833-3.324l39.859,23.207a12.783,12.783,0,0,1,5.794,10.039l-.137,18.5c-.011,3.687-2.625,5.176-5.834,3.324l-39.858-23.207a12.776,12.776,0,0,1-5.8-10.037Z" transform="translate(-3445.411 -2921.651)" fill="#fff" fill-rule="evenodd"/>
            <path id="Trazado_151978" data-name="Trazado 151978" d="M3445.423,2925.777c.01-3.7,2.629-5.246,5.849-3.386l39.96,23.251a12.557,12.557,0,0,1,5.8,10.127l-.013,3.5-51.612-29.948Z" transform="translate(-3445.411 -2921.602)" fill="#18b6fe" fill-rule="evenodd"/>
            <g id="Grupo_86594" data-name="Grupo 86594" transform="translate(3.823 4.447)">
              <path id="Trazado_151979" data-name="Trazado 151979" d="M3454.829,2931.267a2.167,2.167,0,0,1,1.4,1.847c.073.836-.436,1.364-1.135,1.178a2.167,2.167,0,0,1-1.4-1.847C3453.622,2931.609,3454.13,2931.082,3454.829,2931.267Z" transform="translate(-3453.688 -2931.23)" fill="#fff" fill-rule="evenodd"/>
              <path id="Trazado_151980" data-name="Trazado 151980" d="M3463.308,2936.414a2.169,2.169,0,0,1,1.4,1.848c.072.835-.436,1.363-1.135,1.178a2.168,2.168,0,0,1-1.4-1.848C3462.1,2936.757,3462.609,2936.229,3463.308,2936.414Z" transform="translate(-3458.25 -2934)" fill="#fff" fill-rule="evenodd"/>
              <path id="Trazado_151981" data-name="Trazado 151981" d="M3471.786,2941.561a2.171,2.171,0,0,1,1.4,1.848c.072.835-.436,1.363-1.135,1.178a2.168,2.168,0,0,1-1.4-1.847C3470.579,2941.9,3471.086,2941.376,3471.786,2941.561Z" transform="translate(-3462.813 -2936.77)" fill="#fff" fill-rule="evenodd"/>
            </g>
            <g id="Grupo_86595" data-name="Grupo 86595" transform="translate(1.914 15.289)">
              <path id="Trazado_151982" data-name="Trazado 151982" d="M3455.9,2954.911c3.887,1.028,7.365,5.629,7.767,10.275s-2.422,7.58-6.309,6.552-7.364-5.629-7.767-10.275S3452.017,2953.883,3455.9,2954.911Z" transform="translate(-3449.556 -2954.706)" fill="#6d6afd" fill-rule="evenodd" opacity="0.2"/>
              <path id="Trazado_151983" data-name="Trazado 151983" d="M3460.04,2963.417c2.1.554,3.971,3.035,4.188,5.54s-1.306,4.087-3.4,3.532-3.971-3.034-4.187-5.539S3457.944,2962.863,3460.04,2963.417Z" transform="translate(-3453.356 -2959.334)" fill="#d07efc" fill-rule="evenodd"/>
              <path id="Trazado_151984" data-name="Trazado 151984" d="M3484.733,2974.133c0-.983.7-1.37,1.557-.86L3512.263,2988a3.481,3.481,0,0,1,1.546,2.705v1.946c0,.984-.7,1.37-1.556.861l-25.973-14.732a3.481,3.481,0,0,1-1.547-2.7Z" transform="translate(-3468.487 -2964.577)" fill="#6d6afd" fill-rule="evenodd" opacity="0.2"/>
              <path id="Trazado_151985" data-name="Trazado 151985" d="M3484.733,2990.153c0-.581.413-.809.92-.509l15.337,8.7a2.055,2.055,0,0,1,.913,1.6v1.149c0,.581-.414.809-.919.508l-15.338-8.7a2.057,2.057,0,0,1-.913-1.6Z" transform="translate(-3468.487 -2973.437)" fill="#6d6afd" fill-rule="evenodd" opacity="0.2"/>
            </g>
            <path id="Trazado_151986" data-name="Trazado 151986" d="M3533.03,2977.517c0-.366.26-.514.579-.33l5.54,2.979a1.268,1.268,0,0,1,.576,1v1.362c0,.366-.26.514-.579.33l-5.54-2.979a1.268,1.268,0,0,1-.575-1Z" transform="translate(-3492.564 -2951.473)" fill="#fff" fill-rule="evenodd" opacity="0.5"/>
          </g>
        </g>
      </g>
      <g id="Grupo_86612" data-name="Grupo 86612" transform="translate(2978.868 2803.256)">
        <path id="Trazado_151994" data-name="Trazado 151994" d="M2969.58,3223.466l27.928-15.906c3.045-1.391,7.4-2.5,10.5-.884,2.827,1.471,7.483,4.481,9.542,5.656,1.563.892,6.992,4.144,3.61,5.982-9.945,5.408-19.788,11.49-29.887,16.984a14.163,14.163,0,0,1-7.637,1.171,20.22,20.22,0,0,1-8.272-2.463l-4.953-2.883c-2.191-1.275-3.352-2.783-3.467-4.178C2966.836,3225.581,2967.711,3224.318,2969.58,3223.466Z" transform="translate(-2966.938 -3095.862)" fill="#4aabbe" fill-rule="evenodd" opacity="0.5"/>
        <g id="Grupo_86611" data-name="Grupo 86611" transform="translate(4.157 0)">
          <g id="Grupo_86602" data-name="Grupo 86602" transform="translate(6.973 121.528)">
            <path id="Trazado_151995" data-name="Trazado 151995" d="M2993.973,3240.169c.632-.014,2.766-2.02,4.788-1.007,2.427,1.216,7.035.139,9.361.7.414.1,1.224-.2,1.384.079.5.891.986,2.224-.246,3.1a21.1,21.1,0,0,1-4.122,1.942,34.84,34.84,0,0,1-5.214,1.476c-1.717.269-2.5.379-3.143.875a4.577,4.577,0,0,1-2.4.577,4.042,4.042,0,0,1-3.057-2.135,9.114,9.114,0,0,1,.024-3.384,17.043,17.043,0,0,1,1.081-2.954Z" transform="translate(-2991.115 -3235.149)" fill="#fff" fill-rule="evenodd"/>
            <path id="Trazado_151996" data-name="Trazado 151996" d="M3000.423,3231.512c-.768,1.843-.532,4.7-2.352,5.686a2.706,2.706,0,0,1-3.951-1.222c-.463-1.054.152-2.856.016-5.17Z" transform="translate(-2992.602 -3230.806)" fill="#ffa495" fill-rule="evenodd"/>
            <path id="Trazado_151997" data-name="Trazado 151997" d="M2999.364,3236.684c1.4.406,5.244.135,7.678.332,1.046.085,1.984.077,2.474,1.027.45.874.213,1.622-.805,2.343a17.237,17.237,0,0,1-3.718,1.824,34.867,34.867,0,0,1-5.214,1.476c-1.717.268-2.5.379-3.143.875a4.572,4.572,0,0,1-2.4.577,4.223,4.223,0,0,1-3.057-2.269,8.4,8.4,0,0,1,.024-3.25,5.887,5.887,0,0,1,.179-.688c.191-1.832.8-2.573,1.367-2.258a3.516,3.516,0,0,1,1.372,1.836,1.792,1.792,0,0,0,1.061,1.011,2.1,2.1,0,0,0,2.337-1.027,6.616,6.616,0,0,0,.64-1.856c0-.062,0-.125,0-.186.183-1.6.962-1.462.843-1.124A1.378,1.378,0,0,0,2999.364,3236.684Z" transform="translate(-2991.037 -3233.123)" fill="#193161" fill-rule="evenodd"/>
            <path id="Trazado_151998" data-name="Trazado 151998" d="M3029.991,3240.621c-.018.619.93.677.656,1.765.456-.447-.18-1.73-.462-1.925C3030.07,3240.381,3029.971,3240.348,3029.991,3240.621Z" transform="translate(-3011.999 -3235.971)" fill="#fff" fill-rule="evenodd"/>
          </g>
          <g id="Grupo_86603" data-name="Grupo 86603" transform="translate(22.7 114.024)">
            <path id="Trazado_151999" data-name="Trazado 151999" d="M3029.411,3221.387c.589-.231,1.9-2.849,4.149-2.593a11.425,11.425,0,0,0,3.841-.554c2.358-.67,5.642-2.778,6.2-2.434,1.221.751,1.319,2.123.462,3.365a17.251,17.251,0,0,1-2.864,2.992,30.256,30.256,0,0,1-4.042,3.075c-1.3.719-1.727.655-2.651,1.9a4.334,4.334,0,0,1-2.052,1.3,4.882,4.882,0,0,1-4.01-1.506c-.448-1.45-1.225-2.823-.727-5Z" transform="translate(-3026.419 -3215.21)" fill="#fff" fill-rule="evenodd"/>
            <path id="Trazado_152000" data-name="Trazado 152000" d="M3031.2,3214.559c-.037,2,1.232,4.562-.1,6.153a2.706,2.706,0,0,1-4.124.315c-.818-.811-.908-2.711-1.886-4.813Z" transform="translate(-3025.09 -3214.559)" fill="#ffa495" fill-rule="evenodd"/>
            <path id="Trazado_152001" data-name="Trazado 152001" d="M3036.468,3217.374c.134-.035.269-.072.4-.11,2.358-.671,5.508-2.294,6.068-1.95a1.751,1.751,0,0,1,.6,2.881,17.231,17.231,0,0,1-2.864,2.992,30.2,30.2,0,0,1-4.042,3.075c-1.3.719-1.727.656-2.649,1.9a4.338,4.338,0,0,1-2.053,1.3,5.011,5.011,0,0,1-4.069-1.514,12.065,12.065,0,0,1-.827-3.464c-.2-1.776-.074-2.679.7-2.657a4.287,4.287,0,0,1,2.624,1.169c1.279.8,2.134-.233,2.344-1.507a7.449,7.449,0,0,0-.117-1.684c-.021-.059-.042-.118-.066-.174-.418-1.556.357-1.712.372-1.355a1.334,1.334,0,0,0,1.186,1.36A10.453,10.453,0,0,0,3036.468,3217.374Z" transform="translate(-3026.09 -3214.939)" fill="#193161" fill-rule="evenodd"/>
            <path id="Trazado_152002" data-name="Trazado 152002" d="M3061.186,3215.525c.25.566,1.131.211,1.353,1.31.219-.6-.908-1.483-1.247-1.538C3061.154,3215.274,3061.05,3215.287,3061.186,3215.525Z" transform="translate(-3044.481 -3214.952)" fill="#fff" fill-rule="evenodd"/>
          </g>
          <path id="Trazado_152003" data-name="Trazado 152003" d="M2977.965,3033.72c4.689,5.44,4.76,5.864,13.919,11.245l1.743-3.43c-3.074-6.294-3.993-7.133-7.984-12.033a46.494,46.494,0,0,0,9.388-8.83c5.973-7.974,2.656-13.514-2.5-12.391-4.5.979-11.524,12.632-15.344,19.2C2975.592,3030.219,2975.206,3030.518,2977.965,3033.72Z" transform="translate(-2975.939 -2989.446)" fill="#ffce57" fill-rule="evenodd"/>
          <path id="Trazado_152004" data-name="Trazado 152004" d="M2999.572,3028.549a46.165,46.165,0,0,0,7.844-7.7c5.973-7.973,2.483-13.354-2.677-12.231C3002.045,3009.444,2997.241,3015.141,2999.572,3028.549Z" transform="translate(-2988.323 -2989.629)" fill="#f2c760" fill-rule="evenodd" style="mix-blend-mode: multiply;isolation: isolate"/>
          <g id="Grupo_86604" data-name="Grupo 86604" transform="translate(13.562 54.001)">
            <path id="Trazado_152005" data-name="Trazado 152005" d="M3019.19,3090.69c.516,5.786,3.416,24.264,2.61,29.337-1.213,7.629-.867,16.844-.854,24.94-.2,3.4-4.881,5.18-6.243,3.018-1.093-7.234-2.648-13.573-3.281-17.594-.708-4.5-.475-9.972.668-12.93a153.888,153.888,0,0,0-4.514-17.348c-.664-2.086-4.428-8.823-.532-15.519Z" transform="translate(-3005.303 -3084.595)" fill="#856de9" fill-rule="evenodd"/>
            <path id="Trazado_152006" data-name="Trazado 152006" d="M3031.646,3210.613c0,.6-.018,1.515-.017,2.1-.2,3.4-4.94,5.248-6.3,3.085-.081-.533-.2-1.062-.283-1.585C3026.875,3216.19,3030.462,3213.629,3031.646,3210.613Z" transform="translate(-3015.927 -3152.412)" fill="#856de9" fill-rule="evenodd"/>
            <path id="Trazado_152007" data-name="Trazado 152007" d="M3027.383,3125.5c-1.525,7.65-5.839,17.869-8.194,25.561-1.225-6.59-4.293-17.814-1.64-24.683-.267-1.841-1.1-5.338-2.1-9.075,2.041-3.87.09-6.958,1.054-12.408,5.4-.942-2.752-7.539,8.684-.591C3026.209,3112.51,3027.169,3117.671,3027.383,3125.5Z" transform="translate(-3010.763 -3093.507)" fill="#856de9" fill-rule="evenodd" opacity="0.3" style="mix-blend-mode: multiply;isolation: isolate"/>
          </g>
          <g id="Grupo_86605" data-name="Grupo 86605" transform="translate(7.817 57.508)">
            <path id="Trazado_152008" data-name="Trazado 152008" d="M3012.255,3127.927c-3.118,7.057-8.87,20.9-11.929,29.564-1.583,2.3-7.226,2.061-7.215-.085,1.246-7.242,2.71-18.411,5.31-24.763a56.914,56.914,0,0,1,4.789-8.009c.823-3.2,1.854-11.828,2.649-16.5-.713-3.866-3.831-10.328,2.159-15.946,2.417,1.719,9.89,2.795,13.279.88C3021.844,3108.336,3018.1,3114.7,3012.255,3127.927Z" transform="translate(-2992.997 -3092.188)" fill="#856de9" fill-rule="evenodd"/>
            <path id="Trazado_152009" data-name="Trazado 152009" d="M3000.828,3230.315c-.136.378-.408,1.143-.536,1.505-1.629,2.368-7.439,2.122-7.427-.087q.092-.537.186-1.1C2994.436,3232.044,2998.625,3232.063,3000.828,3230.315Z" transform="translate(-2992.865 -3166.522)" fill-rule="evenodd" fill="url(#linear-gradient-12)"/>
          </g>
          <path id="Trazado_152010" data-name="Trazado 152010" d="M3004.428,3028.764c.5,4.535-.861,9,.528,13.136.062.428.1,2.106.175,2.563.914,5.364,12.26,10.792,21.723,5.645.052-.665-.008-1.36.043-2.592a14.68,14.68,0,0,1,.319-3.085c-.013-2.919-.922-4.411-.486-7.66.887-6.609,4.547-12.959,2.522-18.159a5.531,5.531,0,0,0-2.059-2.35c-2.236-1.8-13.8-7.686-17.309-8.1C2999.7,3006.842,3003.882,3023.844,3004.428,3028.764Z" transform="translate(-2990.566 -2989.421)" fill="#ffce57" fill-rule="evenodd"/>
          <path id="Trazado_152011" data-name="Trazado 152011" d="M3043.193,3055.07c.4-1.729,2.8-13.015,3.313-15.045,1.023-4.066,1.858-8.295.837-10.914-1.217-3.574-6.857-.314-7.667,4.5C3038.707,3039.374,3031.843,3055.564,3043.193,3055.07Z" transform="translate(-3008.657 -2999.919)" fill="#f2c760" fill-rule="evenodd" style="mix-blend-mode: multiply;isolation: isolate"/>
          <g id="Grupo_86606" data-name="Grupo 86606" transform="translate(18.196)">
            <path id="Trazado_152012" data-name="Trazado 152012" d="M3030.955,2988.09c-.644.319-3.911-.145-3.815.148.048,1.462.482,2.349.624,4.352-3.593-.5-8.3-1.021-8.493-3.776.015-.221.028-.441.037-.658,0-.025.007-.051.013-.076l-.01,0a4.88,4.88,0,0,0-.289-2.36c-.761-1.23-2.324-2.6-2.877-4.465-.886-2.98-.563-6.291,2.216-8.5,5.074-4.029,11.563-1.162,13.207,4.732.321,1.151-.587,1.773-.555,2.758.006.192.261.393.468.821C3031.766,2981.657,3031.744,2987.7,3030.955,2988.09Z" transform="translate(-3015.536 -2969.397)" fill="#e7a376" fill-rule="evenodd"/>
            <path id="Trazado_152013" data-name="Trazado 152013" d="M3030.922,2988.057c-.643.319-3.877-.111-3.781.181.048,1.462.482,2.349.624,4.352-2.086.512-7.713-.238-8.554-3.4a19.513,19.513,0,0,0-.188-3.467c-.761-1.23-2.324-2.6-2.877-4.465-.886-2.98-.563-6.291,2.216-8.5,5.074-4.029,11.563-1.162,13.207,4.732.321,1.151-.587,1.773-.555,2.758.006.192.261.393.468.821C3031.766,2981.657,3031.711,2987.666,3030.922,2988.057Z" transform="translate(-3015.536 -2969.397)" fill-rule="evenodd" fill="url(#linear-gradient-13)"/>
            <path id="Trazado_152014" data-name="Trazado 152014" d="M3030.822,2988.09a5.228,5.228,0,0,1-2.8-.341,4.9,4.9,0,0,1-1.244-.864c-.436-.175-1.4-1.548.1-3.732,1.46-2.13-7.38,3.322-7.849,2.565-.76-1.23-2.324-2.6-2.877-4.465-.886-2.98-.563-6.291,2.216-8.5,5.074-4.029,11.563-1.162,13.207,4.732.321,1.151-.587,1.773-.555,2.758.006.192.261.393.468.821C3031.766,2981.657,3031.6,2987.674,3030.822,2988.09Z" transform="translate(-3015.536 -2969.397)" fill-rule="evenodd" fill="url(#linear-gradient-14)"/>
            <path id="Trazado_152015" data-name="Trazado 152015" d="M3037.989,2997.209c-1.818-1.694-3.573,3.7-.647,3.64C3036.2,2999.641,3037.067,2997.728,3037.989,2997.209Z" transform="translate(-3026.339 -2983.389)" fill="#ffa698" fill-rule="evenodd"/>
            <path id="Trazado_152016" data-name="Trazado 152016" d="M3038.7,2998.18c.273-.754.043-1.028-.289-.947a2.142,2.142,0,0,0-1.151,1.394c-.434,1.26.188,2.852,1.405,2.23-1.046.061-.949-1.2-.635-1.979C3038.248,2998.35,3038.577,2997.975,3038.7,2998.18Z" transform="translate(-3027.064 -2983.572)" fill="#ffb49c" fill-rule="evenodd"/>
            <path id="Trazado_152017" data-name="Trazado 152017" d="M3039.154,3000.038c.293.545.394.868.3,1.056-.065.13-.267.278-.6-.042A1.874,1.874,0,0,1,3039.154,3000.038Z" transform="translate(-3027.995 -2985.089)" fill="#ffa698" fill-rule="evenodd"/>
            <path id="Trazado_152018" data-name="Trazado 152018" d="M3028.788,2974.994l.071-.037a3.11,3.11,0,0,0,1.027-4.913c-1.993-1.768-7.4-1.583-10.829.182-3.49,1.8-4.345,6.27-3.3,9.783.694,2.338,2.384,3.56,3.229,5.332a2.122,2.122,0,0,0,2.149.784c2.42-.5,2.979-3.053,4.433-4.176.8-.617,1.618-.782,1.918.9.058.739.069,1.489.122,2.169.085,1.07-.182,1.269.725,1.636a8.127,8.127,0,0,0,2.85.583c.226-.088.211-1.424.17-2.421-.091-.007-.1.343-.143.336-.089-.013-.2-.036-.325-.048a3.925,3.925,0,0,1,.144-1.211,1.923,1.923,0,0,1,.4-.907,1.537,1.537,0,0,0,.048-.784,2.471,2.471,0,0,0-1.034,1.46,7.354,7.354,0,0,0-.269,1.326,2.52,2.52,0,0,1-1.239-.406,4.713,4.713,0,0,1-.784-2.482c-.043-2.029.046-2.33,1.1-3.835.292-.416.307-1.268-.416-3.165C3028.815,2975.065,3028.8,2975.03,3028.788,2974.994Z" transform="translate(-3015.339 -2968.282)" fill="#12263f" fill-rule="evenodd"/>
          </g>
          <path id="Trazado_152020" data-name="Trazado 152020" d="M3021.059,3008.637c-.981.3-1.968,1.274-1.789,1.921.977,3.991,8.392,4.747,12.941,3.786.054-.011-1.77-2.4-2.641-2.686C3026.708,3011.938,3021.943,3010.993,3021.059,3008.637Z" transform="translate(-2999.247 -2989.716)" fill="#ffce57" fill-rule="evenodd"/>
          <g id="Grupo_86610" data-name="Grupo 86610" transform="translate(24.107 27.445)">
            <path id="Trazado_152021" data-name="Trazado 152021" d="M3050.716,3132.664c-.523.8-1.228.646-1.367,1.526a12.848,12.848,0,0,0,1.213.615c.213.042.686-.359.714-.566.007-.049-.1-.7-.1-.7Z" transform="translate(-3039.553 -3083.908)" fill="#e7a376" fill-rule="evenodd"/>
            <g id="Grupo_86608" data-name="Grupo 86608" transform="translate(0 26.208)">
              <g id="Grupo_86607" data-name="Grupo 86607">
                <path id="Trazado_152022" data-name="Trazado 152022" d="M3050.437,3085.221c0-.351.275-.638.153-.864-.132-.243-.674-.394-.908-.469a1.507,1.507,0,0,0-1.2.219l-18.4,10.622a4.285,4.285,0,0,0-1.941,3.362l.047,13.179a1.372,1.372,0,0,0,.554,1.24,2.255,2.255,0,0,0,1.084.307c.2-.034.09-.3.316-.434l18.4-10.622a4.278,4.278,0,0,0,1.941-3.362Z" transform="translate(-3028.137 -3083.841)" fill-rule="evenodd" fill="url(#linear-gradient-15)"/>
                <path id="Trazado_152023" data-name="Trazado 152023" d="M3051.481,3085.6c0-1.235-.878-1.735-1.954-1.113l-18.4,10.621a4.284,4.284,0,0,0-1.941,3.363l.046,13.179c0,1.234.879,1.734,1.955,1.113l18.4-10.622a4.278,4.278,0,0,0,1.941-3.362Z" transform="translate(-3028.7 -3084.044)" fill-rule="evenodd" fill="url(#linear-gradient-16)"/>
              </g>
              <path id="Trazado_152024" data-name="Trazado 152024" d="M3067.853,3089.371c0-.506-.36-.71-.8-.456l-4.548,2.609a1.753,1.753,0,0,0-.8,1.377l-.022,5c0,.506.36.711.8.457l4.548-2.608a1.757,1.757,0,0,0,.795-1.377Z" transform="translate(-3046.193 -3086.513)" fill-rule="evenodd" fill="url(#linear-gradient-17)"/>
              <path id="Trazado_152025" data-name="Trazado 152025" d="M3052.82,3107.453c0-.254-.18-.353-.4-.222l-18.267,10.35a.9.9,0,0,0-.4.7v.5c0,.254.181.353.4.222l18.267-10.351a.9.9,0,0,0,.4-.7Z" transform="translate(-3031.16 -3096.398)" fill="#fff" fill-rule="evenodd" opacity="0.5"/>
              <path id="Trazado_152026" data-name="Trazado 152026" d="M3052.82,3113.781c0-.254-.18-.353-.4-.222l-18.267,10.349a.9.9,0,0,0-.4.7v.5c0,.254.181.354.4.222l18.267-10.35a.9.9,0,0,0,.4-.7Z" transform="translate(-3031.16 -3099.803)" fill="#fff" fill-rule="evenodd" opacity="0.5"/>
            </g>
            <g id="Grupo_86609" data-name="Grupo 86609" transform="translate(10.152 41.689)">
              <path id="Trazado_152027" data-name="Trazado 152027" d="M3055.94,3117.361a7.643,7.643,0,0,0,1.246,2.162c.391.672.651,1.039.6,1.6-.152,1.578-.413,2.779-.9,3.235-.881.826-4.375,1.905-5.9,2.242a4.524,4.524,0,0,0,.092-2.434,20.992,20.992,0,0,1-.912-1.986c-.185-.834.332-1.8.362-3.223Z" transform="translate(-3050.12 -3117.361)" fill="#e7a376" fill-rule="evenodd"/>
              <path id="Trazado_152028" data-name="Trazado 152028" d="M3052.352,3127.706c-.528.152-1.006.274-1.371.355a4.522,4.522,0,0,0,.092-2.434,21,21,0,0,1-.912-1.986c-.185-.834.332-1.8.362-3.223l1.173-.347-.029.215a8.725,8.725,0,0,0,.086,2.443c.444,1.343.857,1.5.947,2.316A6.712,6.712,0,0,1,3052.352,3127.706Z" transform="translate(-3050.12 -3118.82)" fill="#f0b186" fill-rule="evenodd"/>
            </g>
            <path id="Trazado_152029" data-name="Trazado 152029" d="M3052.266,3034.635c-1.114,5.146-3.182,12.67-3.856,17.748l2.336,15.759c-.332,2.7-4.744,3.429-5.8,2.312l-4.456-17.09c.2-3.994,1.466-15.234,1.9-19.042.294-2.578,1.691-5.541,3.618-6.639C3050.011,3025.4,3053.231,3030.176,3052.266,3034.635Z" transform="translate(-3034.784 -3027.094)" fill="#ffce57" fill-rule="evenodd"/>
          </g>
        </g>
      </g>
    </g>
    <path id="Trazado_153652" data-name="Trazado 153652" d="M5.263,21V6.781H9.276a6.461,6.461,0,0,1,3.281.82,5.548,5.548,0,0,1,2.2,2.334,7.6,7.6,0,0,1,.786,3.477v.908a7.624,7.624,0,0,1-.776,3.525,5.461,5.461,0,0,1-2.217,2.324A6.873,6.873,0,0,1,9.2,21ZM7.138,8.314V19.467H9.11a4.292,4.292,0,0,0,3.374-1.349,5.573,5.573,0,0,0,1.206-3.841v-.831a5.661,5.661,0,0,0-1.138-3.768A4.049,4.049,0,0,0,9.325,8.314ZM22.479,21.2a4.617,4.617,0,0,1-3.5-1.411,5.237,5.237,0,0,1-1.348-3.774v-.332a6.341,6.341,0,0,1,.6-2.808,4.685,4.685,0,0,1,1.68-1.934,4.223,4.223,0,0,1,2.339-.7,3.957,3.957,0,0,1,3.2,1.357A5.877,5.877,0,0,1,26.6,15.482v.752H19.442a3.756,3.756,0,0,0,.913,2.524,2.87,2.87,0,0,0,2.222.962A3.147,3.147,0,0,0,24.2,19.33a4.073,4.073,0,0,0,1.162-1.035l1.1.859A4.437,4.437,0,0,1,22.479,21.2Zm-.225-9.473a2.41,2.41,0,0,0-1.836.8A3.868,3.868,0,0,0,19.5,14.75h5.293v-.137a3.441,3.441,0,0,0-.742-2.134A2.269,2.269,0,0,0,22.255,11.723ZM29.579,21V11.83h-1.67v-1.4h1.67V9.35a3.6,3.6,0,0,1,.908-2.627,3.431,3.431,0,0,1,2.568-.928,4.77,4.77,0,0,1,1.24.165l-.1,1.456a5.189,5.189,0,0,0-.977-.088,1.763,1.763,0,0,0-1.357.514,2.086,2.086,0,0,0-.479,1.474v1.117h2.256v1.4H31.386V21Zm10.439.2a4.617,4.617,0,0,1-3.5-1.411,5.237,5.237,0,0,1-1.348-3.774v-.332a6.341,6.341,0,0,1,.6-2.808,4.685,4.685,0,0,1,1.68-1.934,4.223,4.223,0,0,1,2.339-.7A3.957,3.957,0,0,1,43,11.6a5.877,5.877,0,0,1,1.143,3.887v.752H36.981a3.756,3.756,0,0,0,.913,2.524,2.87,2.87,0,0,0,2.222.962,3.147,3.147,0,0,0,1.621-.391A4.073,4.073,0,0,0,42.9,18.295l1.1.859A4.437,4.437,0,0,1,40.019,21.2Zm-.225-9.473a2.41,2.41,0,0,0-1.836.8,3.868,3.868,0,0,0-.918,2.231h5.293v-.137a3.441,3.441,0,0,0-.742-2.134A2.269,2.269,0,0,0,39.794,11.723Zm10.674,8a2.6,2.6,0,0,0,1.689-.586,2.061,2.061,0,0,0,.8-1.465h1.709a3.276,3.276,0,0,1-.625,1.729A4.116,4.116,0,0,1,52.5,20.707a4.438,4.438,0,0,1-2.036.488,4.353,4.353,0,0,1-3.433-1.44,5.737,5.737,0,0,1-1.274-3.94v-.3a6.361,6.361,0,0,1,.566-2.744A4.314,4.314,0,0,1,47.953,10.9a4.619,4.619,0,0,1,2.5-.664A4.238,4.238,0,0,1,53.412,11.3a3.8,3.8,0,0,1,1.255,2.764H52.958a2.49,2.49,0,0,0-.776-1.685,2.415,2.415,0,0,0-1.724-.659,2.529,2.529,0,0,0-2.134.991,4.655,4.655,0,0,0-.757,2.866v.342a4.562,4.562,0,0,0,.752,2.813A2.541,2.541,0,0,0,50.468,19.721ZM59.149,7.875v2.559h1.973v1.4H59.149v6.561a1.467,1.467,0,0,0,.264.953,1.11,1.11,0,0,0,.9.318,4.374,4.374,0,0,0,.859-.117V21a5.268,5.268,0,0,1-1.387.194,2.25,2.25,0,0,1-1.826-.732,3.147,3.147,0,0,1-.615-2.08V11.83H55.419v-1.4h1.924V7.875Zm3.408,7.744a6.241,6.241,0,0,1,.61-2.793,4.553,4.553,0,0,1,1.7-1.914,4.626,4.626,0,0,1,2.485-.674,4.456,4.456,0,0,1,3.491,1.494,5.748,5.748,0,0,1,1.333,3.975v.127a6.3,6.3,0,0,1-.591,2.769A4.486,4.486,0,0,1,69.9,20.512a4.679,4.679,0,0,1-2.524.684A4.445,4.445,0,0,1,63.891,19.7a5.719,5.719,0,0,1-1.333-3.955Zm1.816.215a4.52,4.52,0,0,0,.815,2.822,2.763,2.763,0,0,0,4.37-.015,4.943,4.943,0,0,0,.811-3.022,4.513,4.513,0,0,0-.825-2.817,2.623,2.623,0,0,0-2.192-1.079,2.594,2.594,0,0,0-2.158,1.064A4.906,4.906,0,0,0,64.374,15.834ZM80.595,18.2a1.33,1.33,0,0,0-.552-1.138,5.311,5.311,0,0,0-1.924-.7,9.1,9.1,0,0,1-2.178-.7,3.1,3.1,0,0,1-1.191-.977,2.336,2.336,0,0,1-.386-1.348,2.741,2.741,0,0,1,1.1-2.2,4.291,4.291,0,0,1,2.808-.9,4.415,4.415,0,0,1,2.915.928A2.947,2.947,0,0,1,82.3,13.539H80.487a1.631,1.631,0,0,0-.63-1.279,2.36,2.36,0,0,0-1.587-.537,2.47,2.47,0,0,0-1.543.43,1.353,1.353,0,0,0-.557,1.123,1.1,1.1,0,0,0,.518.986,6.368,6.368,0,0,0,1.87.635,9.744,9.744,0,0,1,2.192.723A3.2,3.2,0,0,1,82,16.63a2.485,2.485,0,0,1,.405,1.44,2.7,2.7,0,0,1-1.133,2.271,4.752,4.752,0,0,1-2.939.854,5.321,5.321,0,0,1-2.246-.449,3.653,3.653,0,0,1-1.528-1.255A3.025,3.025,0,0,1,74,17.748H75.81a1.87,1.87,0,0,0,.728,1.44,2.822,2.822,0,0,0,1.792.532,2.913,2.913,0,0,0,1.646-.415A1.275,1.275,0,0,0,80.595,18.2Z" transform="translate(844 4134.743)" fill="#12263f"/>
    <path id="Trazado_153653" data-name="Trazado 153653" d="M11.475,8.314H6.9V21H5.039V8.314H.479V6.781h11ZM18.721,21a3.8,3.8,0,0,1-.254-1.113A4.031,4.031,0,0,1,15.459,21.2a3.73,3.73,0,0,1-2.563-.884,2.859,2.859,0,0,1-1-2.241,2.987,2.987,0,0,1,1.255-2.563,5.916,5.916,0,0,1,3.53-.913h1.758v-.83a2.029,2.029,0,0,0-.566-1.509,2.276,2.276,0,0,0-1.67-.562,2.634,2.634,0,0,0-1.621.488,1.439,1.439,0,0,0-.654,1.182H12.109a2.493,2.493,0,0,1,.562-1.528,3.832,3.832,0,0,1,1.523-1.167,5.125,5.125,0,0,1,2.114-.43,4.177,4.177,0,0,1,2.861.913,3.294,3.294,0,0,1,1.074,2.515v4.863a5.946,5.946,0,0,0,.371,2.314V21Zm-3-1.377a3.175,3.175,0,0,0,1.611-.439,2.658,2.658,0,0,0,1.1-1.143V15.873H17.021q-3.32,0-3.32,1.943a1.645,1.645,0,0,0,.566,1.328A2.177,2.177,0,0,0,15.723,19.623Zm12.461-7.568a5.414,5.414,0,0,0-.889-.068A2.381,2.381,0,0,0,24.883,13.5V21H23.076V10.434h1.758l.029,1.221a2.813,2.813,0,0,1,2.52-1.416,1.846,1.846,0,0,1,.8.137ZM34.229,21.2a4.617,4.617,0,0,1-3.5-1.411,5.237,5.237,0,0,1-1.348-3.774v-.332a6.341,6.341,0,0,1,.6-2.808,4.685,4.685,0,0,1,1.68-1.934,4.223,4.223,0,0,1,2.339-.7,3.957,3.957,0,0,1,3.2,1.357,5.877,5.877,0,0,1,1.143,3.887v.752H31.191a3.756,3.756,0,0,0,.913,2.524,2.87,2.87,0,0,0,2.222.962,3.147,3.147,0,0,0,1.621-.391,4.073,4.073,0,0,0,1.162-1.035l1.1.859A4.437,4.437,0,0,1,34.229,21.2ZM34,11.723a2.41,2.41,0,0,0-1.836.8,3.868,3.868,0,0,0-.918,2.231h5.293v-.137a3.441,3.441,0,0,0-.742-2.134A2.269,2.269,0,0,0,34,11.723ZM46.963,21a3.8,3.8,0,0,1-.254-1.113A4.031,4.031,0,0,1,43.7,21.2a3.73,3.73,0,0,1-2.563-.884,2.859,2.859,0,0,1-1-2.241,2.987,2.987,0,0,1,1.255-2.563,5.916,5.916,0,0,1,3.53-.913H46.68v-.83a2.029,2.029,0,0,0-.566-1.509,2.276,2.276,0,0,0-1.67-.562,2.634,2.634,0,0,0-1.621.488,1.439,1.439,0,0,0-.654,1.182H40.352a2.493,2.493,0,0,1,.562-1.528,3.832,3.832,0,0,1,1.523-1.167,5.125,5.125,0,0,1,2.114-.43,4.177,4.177,0,0,1,2.861.913,3.294,3.294,0,0,1,1.074,2.515v4.863a5.946,5.946,0,0,0,.371,2.314V21Zm-3-1.377a3.175,3.175,0,0,0,1.611-.439,2.658,2.658,0,0,0,1.1-1.143V15.873H45.264q-3.32,0-3.32,1.943a1.645,1.645,0,0,0,.566,1.328A2.177,2.177,0,0,0,43.965,19.623ZM57.471,18.2a1.33,1.33,0,0,0-.552-1.138,5.311,5.311,0,0,0-1.924-.7,9.1,9.1,0,0,1-2.178-.7,3.1,3.1,0,0,1-1.191-.977,2.336,2.336,0,0,1-.386-1.348,2.741,2.741,0,0,1,1.1-2.2,4.291,4.291,0,0,1,2.808-.9,4.415,4.415,0,0,1,2.915.928,2.947,2.947,0,0,1,1.118,2.373H57.363a1.631,1.631,0,0,0-.63-1.279,2.36,2.36,0,0,0-1.587-.537,2.47,2.47,0,0,0-1.543.43,1.353,1.353,0,0,0-.557,1.123,1.1,1.1,0,0,0,.518.986,6.368,6.368,0,0,0,1.87.635,9.744,9.744,0,0,1,2.192.723,3.2,3.2,0,0,1,1.245,1.011,2.485,2.485,0,0,1,.405,1.44,2.7,2.7,0,0,1-1.133,2.271,4.752,4.752,0,0,1-2.939.854,5.321,5.321,0,0,1-2.246-.449,3.653,3.653,0,0,1-1.528-1.255,3.025,3.025,0,0,1-.552-1.743h1.807a1.87,1.87,0,0,0,.728,1.44,2.822,2.822,0,0,0,1.792.532,2.913,2.913,0,0,0,1.646-.415A1.275,1.275,0,0,0,57.471,18.2ZM2.851,29.047,6.1,37.168l3.254-8.121h1.7V39H9.748V35.124l.123-4.184L6.6,39h-1L2.338,30.961l.13,4.163V39H1.155V29.047Zm13.4,10.09a3.232,3.232,0,0,1-2.447-.988,3.666,3.666,0,0,1-.943-2.642v-.232a4.438,4.438,0,0,1,.42-1.965,3.28,3.28,0,0,1,1.176-1.354,2.956,2.956,0,0,1,1.637-.489,2.77,2.77,0,0,1,2.242.95,4.114,4.114,0,0,1,.8,2.721v.526H14.123a2.629,2.629,0,0,0,.639,1.767,2.009,2.009,0,0,0,1.555.673,2.2,2.2,0,0,0,1.135-.273,2.851,2.851,0,0,0,.813-.725l.772.6A3.106,3.106,0,0,1,16.249,39.137Zm-.157-6.631a1.687,1.687,0,0,0-1.285.557,2.708,2.708,0,0,0-.643,1.562h3.705v-.1a2.409,2.409,0,0,0-.52-1.494A1.588,1.588,0,0,0,16.092,32.506Zm5.811-.9v8.251q0,2.133-1.935,2.133a2.36,2.36,0,0,1-.772-.122V40.859a2.445,2.445,0,0,0,.574.055.859.859,0,0,0,.646-.229,1.133,1.133,0,0,0,.222-.8V31.6Zm-1.395-1.962a.758.758,0,0,1,.188-.516.691.691,0,0,1,.55-.215.717.717,0,0,1,.561.212.747.747,0,0,1,.191.52.722.722,0,0,1-.191.513.73.73,0,0,1-.561.205.707.707,0,0,1-.554-.205A.738.738,0,0,1,20.508,29.642Zm3.1,5.592a4.369,4.369,0,0,1,.427-1.955,3.187,3.187,0,0,1,1.189-1.34,3.238,3.238,0,0,1,1.74-.472A3.119,3.119,0,0,1,29.4,32.513a4.024,4.024,0,0,1,.933,2.782v.089a4.407,4.407,0,0,1-.414,1.938,3.14,3.14,0,0,1-1.183,1.336,3.275,3.275,0,0,1-1.767.479,3.111,3.111,0,0,1-2.437-1.046,4,4,0,0,1-.933-2.769Zm1.271.15a3.164,3.164,0,0,0,.571,1.976,1.934,1.934,0,0,0,3.059-.01,3.46,3.46,0,0,0,.567-2.116,3.159,3.159,0,0,0-.578-1.972,1.836,1.836,0,0,0-1.535-.755,1.816,1.816,0,0,0-1.511.745A3.435,3.435,0,0,0,24.876,35.384ZM35.5,32.738a3.79,3.79,0,0,0-.622-.048,1.667,1.667,0,0,0-1.688,1.06V39H31.924V31.6h1.23l.021.854a1.969,1.969,0,0,1,1.764-.991,1.292,1.292,0,0,1,.561.1ZM40.954,39a2.657,2.657,0,0,1-.178-.779,2.822,2.822,0,0,1-2.105.916,2.611,2.611,0,0,1-1.794-.619,2,2,0,0,1-.7-1.569,2.091,2.091,0,0,1,.878-1.794,4.142,4.142,0,0,1,2.471-.639h1.23v-.581a1.42,1.42,0,0,0-.4-1.056,1.593,1.593,0,0,0-1.169-.393,1.844,1.844,0,0,0-1.135.342,1.007,1.007,0,0,0-.458.827H36.326a1.745,1.745,0,0,1,.393-1.07,2.683,2.683,0,0,1,1.066-.817,3.588,3.588,0,0,1,1.48-.3,2.924,2.924,0,0,1,2,.639,2.306,2.306,0,0,1,.752,1.76v3.4a4.162,4.162,0,0,0,.26,1.62V39Zm-2.1-.964a2.223,2.223,0,0,0,1.128-.308,1.861,1.861,0,0,0,.772-.8V35.411h-.991q-2.324,0-2.324,1.36a1.151,1.151,0,0,0,.4.93A1.524,1.524,0,0,0,38.855,38.036Zm9.454-1a.931.931,0,0,0-.386-.8,3.718,3.718,0,0,0-1.347-.489,6.367,6.367,0,0,1-1.524-.492,2.169,2.169,0,0,1-.834-.684,1.635,1.635,0,0,1-.27-.943,1.919,1.919,0,0,1,.769-1.538,3,3,0,0,1,1.965-.629,3.091,3.091,0,0,1,2.041.649,2.063,2.063,0,0,1,.783,1.661H48.234a1.142,1.142,0,0,0-.441-.9,1.652,1.652,0,0,0-1.111-.376,1.729,1.729,0,0,0-1.08.3.947.947,0,0,0-.39.786.767.767,0,0,0,.362.69,4.458,4.458,0,0,0,1.309.444,6.821,6.821,0,0,1,1.535.506,2.239,2.239,0,0,1,.872.708,1.74,1.74,0,0,1,.284,1.008,1.893,1.893,0,0,1-.793,1.589,3.326,3.326,0,0,1-2.058.6,3.725,3.725,0,0,1-1.572-.314,2.557,2.557,0,0,1-1.07-.878,2.117,2.117,0,0,1-.386-1.22H44.96a1.309,1.309,0,0,0,.509,1.008,1.976,1.976,0,0,0,1.254.373,2.039,2.039,0,0,0,1.152-.291A.893.893,0,0,0,48.31,37.038Zm2.939,1.3a.792.792,0,0,1,.195-.547.742.742,0,0,1,.584-.219.765.765,0,0,1,.591.219.776.776,0,0,1,.2.547.734.734,0,0,1-.2.526.778.778,0,0,1-.591.212.7.7,0,0,1-.779-.738ZM6,54.437q.15-1.094-1.135-1.6l-1.183-.431-.4-.171q-2-.909-1.866-2.557a2.674,2.674,0,0,1,.567-1.463,3.228,3.228,0,0,1,1.323-.981,4.243,4.243,0,0,1,1.753-.325,3.5,3.5,0,0,1,1.61.4,2.592,2.592,0,0,1,1.077,1.07,2.916,2.916,0,0,1,.328,1.548l-1.292-.007a1.783,1.783,0,0,0-.41-1.423A1.836,1.836,0,0,0,5,47.983a2.547,2.547,0,0,0-1.565.438,1.711,1.711,0,0,0-.725,1.233q-.137,1.02,1.251,1.548l1.019.363.513.219A2.574,2.574,0,0,1,7.28,54.423a2.636,2.636,0,0,1-.567,1.453,3.172,3.172,0,0,1-1.336.947,4.607,4.607,0,0,1-1.815.314,3.8,3.8,0,0,1-1.712-.4A2.794,2.794,0,0,1,.67,55.66a2.693,2.693,0,0,1-.355-1.552l1.285.007a1.693,1.693,0,0,0,.482,1.412,2.169,2.169,0,0,0,1.535.537,2.74,2.74,0,0,0,1.634-.431A1.677,1.677,0,0,0,6,54.437Zm5.612-6.624L11.293,49.6H12.64l-.171.978h-1.34l-.772,4.6a1.6,1.6,0,0,0-.007.328.521.521,0,0,0,.581.533,3.544,3.544,0,0,0,.6-.068l-.1,1.032a3.366,3.366,0,0,1-.9.123,1.292,1.292,0,0,1-1.107-.543,2.1,2.1,0,0,1-.287-1.425l.752-4.58H8.586l.171-.978h1.306l.314-1.791Zm5.209,1.654a2.666,2.666,0,0,1,1.593.506,2.874,2.874,0,0,1,.981,1.357,4.2,4.2,0,0,1,.215,1.89l-.014.15a4.975,4.975,0,0,1-.643,1.952,3.77,3.77,0,0,1-1.326,1.357,3.234,3.234,0,0,1-1.784.458,2.671,2.671,0,0,1-1.589-.506,2.809,2.809,0,0,1-.974-1.34,4.314,4.314,0,0,1-.219-1.866,5.04,5.04,0,0,1,.622-2.064,3.858,3.858,0,0,1,1.336-1.418A3.2,3.2,0,0,1,16.816,49.467ZM14.3,53.432a4.2,4.2,0,0,0,0,.9,2.194,2.194,0,0,0,.482,1.285,1.447,1.447,0,0,0,1.1.5,1.971,1.971,0,0,0,1.135-.3,2.554,2.554,0,0,0,.875-.981,4.131,4.131,0,0,0,.458-1.456,6.557,6.557,0,0,0,.021-1.06,2.277,2.277,0,0,0-.5-1.306,1.479,1.479,0,0,0-1.107-.506,2.016,2.016,0,0,0-1.627.752,3.715,3.715,0,0,0-.827,2.023Zm10.821-2.7-.581-.062a2.117,2.117,0,0,0-1.873,1.073L21.759,57H20.521l1.285-7.4L23,49.6l-.185.861a2.211,2.211,0,0,1,1.853-1,2.27,2.27,0,0,1,.588.1Zm2.714,4.4,2.632-5.53h1.367L27.446,58.23a2.656,2.656,0,0,1-2.352,1.777,4.029,4.029,0,0,1-.745-.123l.109-1.025.321.034A1.622,1.622,0,0,0,25.8,58.63a2.426,2.426,0,0,0,.755-.94L27,56.843,25.717,49.6h1.292Zm4.751.431a.74.74,0,0,1,.554.205.706.706,0,0,1,.212.547.739.739,0,0,1-.226.543.813.813,0,0,1-.547.222.689.689,0,0,1-.752-.725.765.765,0,0,1,.759-.793ZM6.672,70.4H2.488l-.615,3.527H6.74L6.549,75H.4l1.729-9.953H8.21L8.019,66.12H3.227l-.554,3.206H6.856Zm8.025.937a5.868,5.868,0,0,1-.608,2.03,3.455,3.455,0,0,1-1.169,1.35,2.676,2.676,0,0,1-1.545.427,2.463,2.463,0,0,1-1.969-.868l-.663,3.568H7.506L9.283,67.6,10.4,67.6l-.137.827a2.806,2.806,0,0,1,2.194-.957,2.063,2.063,0,0,1,1.661.786,3.46,3.46,0,0,1,.629,2.092,7.361,7.361,0,0,1-.034.848ZM13.48,71.2l.034-.573a2.6,2.6,0,0,0-.379-1.526,1.334,1.334,0,0,0-1.1-.556,2.194,2.194,0,0,0-1.853,1.017L9.563,73.1a1.548,1.548,0,0,0,1.5,1.01,1.946,1.946,0,0,0,1.569-.72A4.18,4.18,0,0,0,13.48,71.2ZM17.028,75H15.8l1.285-7.4h1.23Zm1.019-10.1a.677.677,0,0,1,.523.188.7.7,0,0,1,.208.53.73.73,0,0,1-.731.745.681.681,0,0,1-.526-.185.669.669,0,0,1-.2-.52.775.775,0,0,1,.205-.533A.723.723,0,0,1,18.047,64.9Zm4.129,9.208a1.877,1.877,0,0,0,1.2-.386,1.837,1.837,0,0,0,.7-1.049l1.169-.007a2.637,2.637,0,0,1-.557,1.271,3.22,3.22,0,0,1-2.56,1.2,2.64,2.64,0,0,1-1.562-.482,2.7,2.7,0,0,1-.94-1.306,4.35,4.35,0,0,1-.205-1.883l.034-.342a4.9,4.9,0,0,1,.622-1.907,3.6,3.6,0,0,1,1.285-1.309,3.192,3.192,0,0,1,1.75-.441,2.5,2.5,0,0,1,1.859.779,2.7,2.7,0,0,1,.7,1.907l-1.155-.007a1.775,1.775,0,0,0-.4-1.172,1.406,1.406,0,0,0-1.053-.475,1.972,1.972,0,0,0-1.6.718,3.76,3.76,0,0,0-.8,2.064l-.021.178a5.929,5.929,0,0,0-.014.9,2.061,2.061,0,0,0,.451,1.265A1.449,1.449,0,0,0,22.176,74.111Zm4.963-.547a.74.74,0,0,1,.554.205.706.706,0,0,1,.212.547.739.739,0,0,1-.226.543.813.813,0,0,1-.547.222.689.689,0,0,1-.752-.725.765.765,0,0,1,.759-.793Z" transform="translate(947 4315.49)" fill="#616161"/>
    <path id="Trazado_153654" data-name="Trazado 153654" d="M3.525,15.434V21H1.65V6.781H6.895a5.269,5.269,0,0,1,3.657,1.191,4.039,4.039,0,0,1,1.323,3.154,3.986,3.986,0,0,1-1.294,3.188,5.5,5.5,0,0,1-3.706,1.118Zm0-1.533H6.895a3.369,3.369,0,0,0,2.3-.709,2.593,2.593,0,0,0,.8-2.05,2.679,2.679,0,0,0-.8-2.035A3.156,3.156,0,0,0,7,8.314H3.525Zm15.566-1.846a5.414,5.414,0,0,0-.889-.068A2.381,2.381,0,0,0,15.791,13.5V21H13.984V10.434h1.758l.029,1.221a2.813,2.813,0,0,1,2.52-1.416,1.846,1.846,0,0,1,.8.137Zm8.184,7.9a3.837,3.837,0,0,1-3.1,1.24,3.285,3.285,0,0,1-2.573-.981,4.248,4.248,0,0,1-.894-2.905V10.434H22.52V17.26q0,2.4,1.953,2.4a2.7,2.7,0,0,0,2.754-1.543V10.434h1.807V21H27.314Zm8.887,1.24a4.617,4.617,0,0,1-3.5-1.411,5.237,5.237,0,0,1-1.348-3.774v-.332a6.341,6.341,0,0,1,.6-2.808,4.685,4.685,0,0,1,1.68-1.934,4.223,4.223,0,0,1,2.339-.7,3.957,3.957,0,0,1,3.2,1.357,5.877,5.877,0,0,1,1.143,3.887v.752H33.125a3.756,3.756,0,0,0,.913,2.524,2.87,2.87,0,0,0,2.222.962,3.147,3.147,0,0,0,1.621-.391,4.073,4.073,0,0,0,1.162-1.035l1.1.859A4.437,4.437,0,0,1,36.162,21.2Zm-.225-9.473a2.41,2.41,0,0,0-1.836.8,3.868,3.868,0,0,0-.918,2.231h5.293v-.137a3.441,3.441,0,0,0-.742-2.134A2.269,2.269,0,0,0,35.938,11.723Zm15.381,4.111a6.283,6.283,0,0,1-1.113,3.892,3.557,3.557,0,0,1-2.988,1.47,3.683,3.683,0,0,1-3.1-1.416L44.033,21h-1.66V6H44.18v5.6A3.663,3.663,0,0,1,47.2,10.238a3.579,3.579,0,0,1,3.022,1.455,6.471,6.471,0,0,1,1.1,3.984Zm-1.807-.205a4.882,4.882,0,0,0-.713-2.852,2.36,2.36,0,0,0-2.051-1.006,2.652,2.652,0,0,0-2.568,1.66V18a2.727,2.727,0,0,0,2.588,1.66,2.347,2.347,0,0,0,2.021-1.006A5.192,5.192,0,0,0,49.512,15.629ZM60.117,21a3.8,3.8,0,0,1-.254-1.113A4.031,4.031,0,0,1,56.855,21.2a3.73,3.73,0,0,1-2.563-.884,2.859,2.859,0,0,1-1-2.241,2.987,2.987,0,0,1,1.255-2.563,5.916,5.916,0,0,1,3.53-.913h1.758v-.83a2.029,2.029,0,0,0-.566-1.509,2.276,2.276,0,0,0-1.67-.562,2.634,2.634,0,0,0-1.621.488,1.439,1.439,0,0,0-.654,1.182H53.506a2.493,2.493,0,0,1,.562-1.528,3.832,3.832,0,0,1,1.523-1.167,5.125,5.125,0,0,1,2.114-.43,4.177,4.177,0,0,1,2.861.913,3.294,3.294,0,0,1,1.074,2.515v4.863a5.946,5.946,0,0,0,.371,2.314V21Zm-3-1.377a3.175,3.175,0,0,0,1.611-.439,2.658,2.658,0,0,0,1.1-1.143V15.873H58.418q-3.32,0-3.32,1.943a1.645,1.645,0,0,0,.566,1.328A2.177,2.177,0,0,0,57.119,19.623ZM70.625,18.2a1.33,1.33,0,0,0-.552-1.138,5.311,5.311,0,0,0-1.924-.7,9.1,9.1,0,0,1-2.178-.7,3.1,3.1,0,0,1-1.191-.977,2.336,2.336,0,0,1-.386-1.348,2.741,2.741,0,0,1,1.1-2.2,4.291,4.291,0,0,1,2.808-.9,4.415,4.415,0,0,1,2.915.928,2.947,2.947,0,0,1,1.118,2.373H70.518a1.631,1.631,0,0,0-.63-1.279,2.36,2.36,0,0,0-1.587-.537,2.47,2.47,0,0,0-1.543.43,1.353,1.353,0,0,0-.557,1.123,1.1,1.1,0,0,0,.518.986,6.368,6.368,0,0,0,1.87.635,9.744,9.744,0,0,1,2.192.723,3.2,3.2,0,0,1,1.245,1.011,2.485,2.485,0,0,1,.405,1.44A2.7,2.7,0,0,1,71.3,20.341a4.752,4.752,0,0,1-2.939.854,5.321,5.321,0,0,1-2.246-.449,3.653,3.653,0,0,1-1.528-1.255,3.025,3.025,0,0,1-.552-1.743H65.84a1.87,1.87,0,0,0,.728,1.44,2.822,2.822,0,0,0,1.792.532A2.913,2.913,0,0,0,70,19.306,1.275,1.275,0,0,0,70.625,18.2ZM2.292,32.382V36H1.073V26.758H4.481a3.425,3.425,0,0,1,2.377.774,2.625,2.625,0,0,1,.86,2.05,2.591,2.591,0,0,1-.841,2.073,3.578,3.578,0,0,1-2.409.727Zm0-1h2.19a2.19,2.19,0,0,0,1.5-.461A1.686,1.686,0,0,0,6.5,29.592a1.742,1.742,0,0,0-.521-1.323,2.051,2.051,0,0,0-1.428-.515H2.292Zm10.118-1.2a3.519,3.519,0,0,0-.578-.044,1.547,1.547,0,0,0-1.568.984V36H9.09V29.132h1.143l.019.793A1.829,1.829,0,0,1,11.889,29a1.2,1.2,0,0,1,.521.089Zm5.319,5.135a2.494,2.494,0,0,1-2.012.806,2.135,2.135,0,0,1-1.673-.638,2.761,2.761,0,0,1-.581-1.888V29.132h1.174v4.437q0,1.562,1.27,1.562a1.758,1.758,0,0,0,1.79-1v-5h1.174V36H17.754Zm5.776.806a3,3,0,0,1-2.272-.917,3.4,3.4,0,0,1-.876-2.453v-.216a4.121,4.121,0,0,1,.39-1.825,3.045,3.045,0,0,1,1.092-1.257A2.745,2.745,0,0,1,23.359,29a2.572,2.572,0,0,1,2.082.882,3.82,3.82,0,0,1,.743,2.526V32.9H21.531a2.441,2.441,0,0,0,.594,1.641,1.866,1.866,0,0,0,1.444.625,2.045,2.045,0,0,0,1.054-.254,2.648,2.648,0,0,0,.755-.673l.717.559A2.884,2.884,0,0,1,23.505,36.127Zm-.146-6.157a1.566,1.566,0,0,0-1.193.517,2.515,2.515,0,0,0-.6,1.45h3.44v-.089a2.237,2.237,0,0,0-.482-1.387A1.475,1.475,0,0,0,23.359,29.97Zm10,2.672a4.084,4.084,0,0,1-.724,2.53,2.312,2.312,0,0,1-1.942.955,2.394,2.394,0,0,1-2.012-.92L28.622,36H27.542V26.25h1.174v3.637A2.381,2.381,0,0,1,30.678,29a2.326,2.326,0,0,1,1.965.946,4.206,4.206,0,0,1,.714,2.59Zm-1.174-.133a3.173,3.173,0,0,0-.463-1.854A1.534,1.534,0,0,0,30.386,30a1.724,1.724,0,0,0-1.669,1.079v2.971A1.772,1.772,0,0,0,30.4,35.13a1.526,1.526,0,0,0,1.314-.654A3.374,3.374,0,0,0,32.183,32.509ZM39.076,36a2.467,2.467,0,0,1-.165-.724,2.62,2.62,0,0,1-1.955.851,2.424,2.424,0,0,1-1.666-.574,1.859,1.859,0,0,1-.651-1.457,1.942,1.942,0,0,1,.816-1.666,3.846,3.846,0,0,1,2.295-.594h1.143V31.3a1.319,1.319,0,0,0-.368-.981,1.48,1.48,0,0,0-1.085-.365,1.712,1.712,0,0,0-1.054.317.935.935,0,0,0-.425.768H34.779a1.621,1.621,0,0,1,.365-.993,2.491,2.491,0,0,1,.99-.759A3.331,3.331,0,0,1,37.508,29a2.715,2.715,0,0,1,1.86.594,2.141,2.141,0,0,1,.7,1.635v3.161a3.865,3.865,0,0,0,.241,1.5V36Zm-1.949-.9a2.064,2.064,0,0,0,1.047-.286,1.728,1.728,0,0,0,.717-.743V32.667h-.92q-2.158,0-2.158,1.263a1.069,1.069,0,0,0,.368.863A1.415,1.415,0,0,0,37.127,35.1Zm7.712-2.6a4.023,4.023,0,0,1,.749-2.542,2.548,2.548,0,0,1,3.872-.136V26.25h1.174V36H49.556l-.057-.736a2.391,2.391,0,0,1-1.961.863,2.346,2.346,0,0,1-1.946-.978A4.069,4.069,0,0,1,44.84,32.6Zm1.174.133A3.046,3.046,0,0,0,46.5,34.47a1.56,1.56,0,0,0,1.333.66,1.713,1.713,0,0,0,1.631-1V30.973A1.726,1.726,0,0,0,47.842,30a1.567,1.567,0,0,0-1.346.667A3.354,3.354,0,0,0,46.014,32.642Zm9.293,3.485a3,3,0,0,1-2.272-.917,3.4,3.4,0,0,1-.876-2.453v-.216a4.121,4.121,0,0,1,.39-1.825,3.045,3.045,0,0,1,1.092-1.257A2.745,2.745,0,0,1,55.161,29a2.572,2.572,0,0,1,2.082.882,3.82,3.82,0,0,1,.743,2.526V32.9H53.333a2.441,2.441,0,0,0,.594,1.641,1.866,1.866,0,0,0,1.444.625,2.045,2.045,0,0,0,1.054-.254,2.648,2.648,0,0,0,.755-.673l.717.559A2.884,2.884,0,0,1,55.307,36.127Zm-.146-6.157a1.566,1.566,0,0,0-1.193.517,2.515,2.515,0,0,0-.6,1.45h3.44v-.089a2.237,2.237,0,0,0-.482-1.387A1.475,1.475,0,0,0,55.161,29.97Zm10.156,5.2a1.691,1.691,0,0,0,1.1-.381,1.34,1.34,0,0,0,.521-.952h1.111a2.13,2.13,0,0,1-.406,1.124,2.676,2.676,0,0,1-1,.851,2.885,2.885,0,0,1-1.323.317,2.829,2.829,0,0,1-2.231-.936,3.729,3.729,0,0,1-.828-2.561v-.2a4.135,4.135,0,0,1,.368-1.784,2.8,2.8,0,0,1,1.057-1.212A3,3,0,0,1,65.311,29a2.755,2.755,0,0,1,1.92.692,2.473,2.473,0,0,1,.816,1.8H66.936a1.618,1.618,0,0,0-.5-1.095,1.57,1.57,0,0,0-1.12-.428,1.644,1.644,0,0,0-1.387.644,3.026,3.026,0,0,0-.492,1.863V32.7a2.965,2.965,0,0,0,.489,1.828A1.651,1.651,0,0,0,65.317,35.168Zm8.29.832a2.467,2.467,0,0,1-.165-.724,2.62,2.62,0,0,1-1.955.851,2.424,2.424,0,0,1-1.666-.574A1.859,1.859,0,0,1,69.17,34.1a1.942,1.942,0,0,1,.816-1.666,3.846,3.846,0,0,1,2.295-.594h1.143V31.3a1.319,1.319,0,0,0-.368-.981,1.48,1.48,0,0,0-1.085-.365,1.712,1.712,0,0,0-1.054.317.935.935,0,0,0-.425.768H69.31a1.621,1.621,0,0,1,.365-.993,2.491,2.491,0,0,1,.99-.759A3.331,3.331,0,0,1,72.04,29a2.715,2.715,0,0,1,1.86.594,2.141,2.141,0,0,1,.7,1.635v3.161a3.865,3.865,0,0,0,.241,1.5V36Zm-1.949-.9a2.064,2.064,0,0,0,1.047-.286,1.728,1.728,0,0,0,.717-.743V32.667H72.5q-2.158,0-2.158,1.263a1.069,1.069,0,0,0,.368.863A1.415,1.415,0,0,0,71.659,35.1Zm8.779-.927a.864.864,0,0,0-.359-.74,3.452,3.452,0,0,0-1.25-.454,5.912,5.912,0,0,1-1.416-.457,2.014,2.014,0,0,1-.774-.635,1.518,1.518,0,0,1-.251-.876,1.782,1.782,0,0,1,.714-1.428A2.789,2.789,0,0,1,78.927,29a2.87,2.87,0,0,1,1.895.6,1.915,1.915,0,0,1,.727,1.542H80.368a1.06,1.06,0,0,0-.409-.832,1.534,1.534,0,0,0-1.031-.349,1.606,1.606,0,0,0-1,.279.879.879,0,0,0-.362.73.712.712,0,0,0,.336.641,4.139,4.139,0,0,0,1.216.413,6.334,6.334,0,0,1,1.425.47,2.079,2.079,0,0,1,.809.657,1.615,1.615,0,0,1,.263.936,1.758,1.758,0,0,1-.736,1.476,3.089,3.089,0,0,1-1.911.555,3.459,3.459,0,0,1-1.46-.292,2.374,2.374,0,0,1-.993-.816,1.966,1.966,0,0,1-.359-1.133h1.174a1.216,1.216,0,0,0,.473.936,1.835,1.835,0,0,0,1.165.346,1.894,1.894,0,0,0,1.07-.27A.829.829,0,0,0,80.438,34.178ZM82.831,32.5a4.057,4.057,0,0,1,.4-1.815,2.96,2.96,0,0,1,1.1-1.244A3.007,3.007,0,0,1,85.947,29a2.9,2.9,0,0,1,2.269.971,3.736,3.736,0,0,1,.866,2.583v.083a4.092,4.092,0,0,1-.384,1.8,2.916,2.916,0,0,1-1.1,1.241,3.041,3.041,0,0,1-1.641.444,2.889,2.889,0,0,1-2.263-.971,3.718,3.718,0,0,1-.866-2.571Zm1.181.14a2.938,2.938,0,0,0,.53,1.834,1.8,1.8,0,0,0,2.841-.01,3.213,3.213,0,0,0,.527-1.965,2.933,2.933,0,0,0-.536-1.831,1.705,1.705,0,0,0-1.425-.7,1.686,1.686,0,0,0-1.4.692A3.189,3.189,0,0,0,84.011,32.642Zm10.543,1.536a.864.864,0,0,0-.359-.74,3.452,3.452,0,0,0-1.25-.454,5.912,5.912,0,0,1-1.416-.457,2.014,2.014,0,0,1-.774-.635,1.518,1.518,0,0,1-.251-.876,1.782,1.782,0,0,1,.714-1.428A2.789,2.789,0,0,1,93.044,29a2.87,2.87,0,0,1,1.895.6,1.915,1.915,0,0,1,.727,1.542H94.485a1.06,1.06,0,0,0-.409-.832,1.534,1.534,0,0,0-1.031-.349,1.606,1.606,0,0,0-1,.279.879.879,0,0,0-.362.73.712.712,0,0,0,.336.641,4.139,4.139,0,0,0,1.216.413,6.334,6.334,0,0,1,1.425.47,2.079,2.079,0,0,1,.809.657,1.615,1.615,0,0,1,.263.936,1.758,1.758,0,0,1-.736,1.476,3.089,3.089,0,0,1-1.911.555,3.459,3.459,0,0,1-1.46-.292,2.374,2.374,0,0,1-.993-.816,1.966,1.966,0,0,1-.359-1.133h1.174a1.216,1.216,0,0,0,.473.936,1.835,1.835,0,0,0,1.165.346,1.894,1.894,0,0,0,1.07-.27A.829.829,0,0,0,94.555,34.178Zm2.729,1.206a.735.735,0,0,1,.181-.508.689.689,0,0,1,.543-.2.71.71,0,0,1,.549.2.721.721,0,0,1,.187.508.681.681,0,0,1-.187.489.723.723,0,0,1-.549.2.653.653,0,0,1-.724-.686ZM1.073,51V41.758H4.094a3.507,3.507,0,0,1,2.263.622,2.242,2.242,0,0,1,.759,1.841,1.877,1.877,0,0,1-.368,1.146,2.387,2.387,0,0,1-1,.771,2.143,2.143,0,0,1,1.184.8,2.286,2.286,0,0,1,.435,1.4,2.472,2.472,0,0,1-.806,1.955A3.334,3.334,0,0,1,4.278,51Zm1.219-4.323V50H4.3a1.937,1.937,0,0,0,1.343-.441,1.549,1.549,0,0,0,.492-1.216q0-1.669-1.815-1.669Zm0-.978H4.132a1.93,1.93,0,0,0,1.279-.4,1.344,1.344,0,0,0,.479-1.088,1.321,1.321,0,0,0-.444-1.11,2.182,2.182,0,0,0-1.352-.347h-1.8ZM13.222,51a2.467,2.467,0,0,1-.165-.724,2.62,2.62,0,0,1-1.955.851,2.424,2.424,0,0,1-1.666-.574A1.859,1.859,0,0,1,8.785,49.1,1.942,1.942,0,0,1,9.6,47.429a3.846,3.846,0,0,1,2.295-.594h1.143V46.3a1.319,1.319,0,0,0-.368-.981,1.48,1.48,0,0,0-1.085-.365,1.712,1.712,0,0,0-1.054.317.935.935,0,0,0-.425.768H8.925a1.621,1.621,0,0,1,.365-.993,2.491,2.491,0,0,1,.99-.759A3.331,3.331,0,0,1,11.654,44a2.715,2.715,0,0,1,1.86.594,2.141,2.141,0,0,1,.7,1.635v3.161a3.865,3.865,0,0,0,.241,1.5V51Zm-1.949-.9a2.064,2.064,0,0,0,1.047-.286,1.728,1.728,0,0,0,.717-.743V47.667h-.92q-2.158,0-2.158,1.263a1.069,1.069,0,0,0,.368.863A1.415,1.415,0,0,0,11.273,50.1Zm5.891-5.973L17.2,45A2.5,2.5,0,0,1,19.259,44q2.177,0,2.2,2.457V51H20.281V46.455a1.581,1.581,0,0,0-.34-1.1A1.361,1.361,0,0,0,18.9,45a1.7,1.7,0,0,0-1,.3,2.069,2.069,0,0,0-.673.8V51H16.053V44.132Zm8.817,6.037a1.692,1.692,0,0,0,1.1-.381,1.34,1.34,0,0,0,.521-.952H28.71a2.13,2.13,0,0,1-.406,1.124,2.676,2.676,0,0,1-1,.851,2.885,2.885,0,0,1-1.323.317,2.829,2.829,0,0,1-2.231-.936,3.729,3.729,0,0,1-.828-2.561v-.2a4.135,4.135,0,0,1,.368-1.784,2.8,2.8,0,0,1,1.057-1.212A3,3,0,0,1,25.975,44a2.755,2.755,0,0,1,1.92.692,2.473,2.473,0,0,1,.816,1.8H27.6a1.618,1.618,0,0,0-.5-1.095,1.57,1.57,0,0,0-1.12-.428,1.644,1.644,0,0,0-1.387.644,3.026,3.026,0,0,0-.492,1.863V47.7a2.966,2.966,0,0,0,.489,1.828A1.651,1.651,0,0,0,25.981,50.168ZM29.72,47.5a4.057,4.057,0,0,1,.4-1.815,2.96,2.96,0,0,1,1.1-1.244A3.007,3.007,0,0,1,32.836,44a2.9,2.9,0,0,1,2.269.971,3.736,3.736,0,0,1,.866,2.583v.083a4.092,4.092,0,0,1-.384,1.8,2.916,2.916,0,0,1-1.1,1.241,3.041,3.041,0,0,1-1.641.444,2.889,2.889,0,0,1-2.263-.971,3.718,3.718,0,0,1-.866-2.571Zm1.181.14a2.938,2.938,0,0,0,.53,1.834,1.8,1.8,0,0,0,2.841-.01A3.213,3.213,0,0,0,34.8,47.5a2.933,2.933,0,0,0-.536-1.831,1.705,1.705,0,0,0-1.425-.7,1.686,1.686,0,0,0-1.4.692A3.189,3.189,0,0,0,30.9,47.642Zm10.543,1.536a.865.865,0,0,0-.359-.74,3.452,3.452,0,0,0-1.25-.454,5.912,5.912,0,0,1-1.416-.457,2.014,2.014,0,0,1-.774-.635,1.518,1.518,0,0,1-.251-.876,1.782,1.782,0,0,1,.714-1.428A2.789,2.789,0,0,1,39.933,44a2.87,2.87,0,0,1,1.895.6,1.915,1.915,0,0,1,.727,1.542H41.374a1.06,1.06,0,0,0-.409-.832,1.534,1.534,0,0,0-1.031-.349,1.605,1.605,0,0,0-1,.279.879.879,0,0,0-.362.73.712.712,0,0,0,.336.641,4.139,4.139,0,0,0,1.216.413,6.334,6.334,0,0,1,1.425.47,2.079,2.079,0,0,1,.809.657,1.615,1.615,0,0,1,.263.936,1.758,1.758,0,0,1-.736,1.476,3.089,3.089,0,0,1-1.911.555,3.459,3.459,0,0,1-1.46-.292,2.374,2.374,0,0,1-.993-.816,1.966,1.966,0,0,1-.359-1.133h1.174a1.216,1.216,0,0,0,.473.936,1.835,1.835,0,0,0,1.165.346,1.894,1.894,0,0,0,1.07-.27A.829.829,0,0,0,41.444,49.178Zm5.637-1.669a4.023,4.023,0,0,1,.749-2.542A2.548,2.548,0,0,1,51.7,44.83V41.25h1.174V51H51.8l-.057-.736a2.391,2.391,0,0,1-1.961.863,2.346,2.346,0,0,1-1.946-.978,4.069,4.069,0,0,1-.752-2.552Zm1.174.133a3.046,3.046,0,0,0,.482,1.828,1.56,1.56,0,0,0,1.333.66,1.713,1.713,0,0,0,1.631-1V45.973A1.726,1.726,0,0,0,50.083,45a1.567,1.567,0,0,0-1.346.667A3.354,3.354,0,0,0,48.255,47.642Zm9.293,3.485a3,3,0,0,1-2.272-.917,3.4,3.4,0,0,1-.876-2.453v-.216a4.121,4.121,0,0,1,.39-1.825,3.045,3.045,0,0,1,1.092-1.257A2.745,2.745,0,0,1,57.4,44a2.572,2.572,0,0,1,2.082.882,3.82,3.82,0,0,1,.743,2.526V47.9H55.574a2.441,2.441,0,0,0,.594,1.641,1.866,1.866,0,0,0,1.444.625,2.045,2.045,0,0,0,1.054-.254,2.648,2.648,0,0,0,.755-.673l.717.559A2.884,2.884,0,0,1,57.548,51.127ZM57.4,44.97a1.566,1.566,0,0,0-1.193.517,2.515,2.515,0,0,0-.6,1.45h3.44v-.089a2.237,2.237,0,0,0-.482-1.387A1.475,1.475,0,0,0,57.4,44.97ZM6.69,62.642a4.113,4.113,0,0,1-.717,2.526,2.3,2.3,0,0,1-1.942.958,2.519,2.519,0,0,1-1.968-.793v3.307H.889V59.132H1.961l.057.762A2.419,2.419,0,0,1,4.012,59a2.342,2.342,0,0,1,1.958.933,4.157,4.157,0,0,1,.72,2.6Zm-1.174-.133a3.035,3.035,0,0,0-.5-1.834A1.6,1.6,0,0,0,3.663,60a1.726,1.726,0,0,0-1.6.946v3.282a1.73,1.73,0,0,0,1.612.939,1.587,1.587,0,0,0,1.343-.67A3.312,3.312,0,0,0,5.516,62.509ZM11.5,60.186a3.519,3.519,0,0,0-.578-.044,1.547,1.547,0,0,0-1.568.984V66H8.182V59.132H9.325l.019.793A1.829,1.829,0,0,1,10.981,59a1.2,1.2,0,0,1,.521.089Zm5.319,5.135a2.494,2.494,0,0,1-2.012.806,2.135,2.135,0,0,1-1.673-.638,2.761,2.761,0,0,1-.581-1.888V59.132H13.73v4.437q0,1.562,1.27,1.562a1.758,1.758,0,0,0,1.79-1v-5h1.174V66H16.847Zm5.776.806a3,3,0,0,1-2.272-.917,3.4,3.4,0,0,1-.876-2.453v-.216a4.121,4.121,0,0,1,.39-1.825,3.045,3.045,0,0,1,1.092-1.257A2.745,2.745,0,0,1,22.452,59a2.572,2.572,0,0,1,2.082.882,3.82,3.82,0,0,1,.743,2.526V62.9H20.624a2.441,2.441,0,0,0,.594,1.641,1.866,1.866,0,0,0,1.444.625,2.045,2.045,0,0,0,1.054-.254,2.648,2.648,0,0,0,.755-.673l.717.559A2.884,2.884,0,0,1,22.6,66.127Zm-.146-6.157a1.566,1.566,0,0,0-1.193.517,2.515,2.515,0,0,0-.6,1.45H24.1v-.089a2.237,2.237,0,0,0-.482-1.387A1.475,1.475,0,0,0,22.452,59.97Zm10,2.672a4.084,4.084,0,0,1-.724,2.53,2.312,2.312,0,0,1-1.942.955,2.394,2.394,0,0,1-2.012-.92L27.714,66H26.635V56.25h1.174v3.637A2.381,2.381,0,0,1,29.771,59a2.326,2.326,0,0,1,1.965.946,4.206,4.206,0,0,1,.714,2.59Zm-1.174-.133a3.173,3.173,0,0,0-.463-1.854A1.534,1.534,0,0,0,29.479,60a1.724,1.724,0,0,0-1.669,1.079v2.971a1.772,1.772,0,0,0,1.682,1.079,1.526,1.526,0,0,0,1.314-.654A3.375,3.375,0,0,0,31.275,62.509ZM38.168,66A2.467,2.467,0,0,1,38,65.276a2.62,2.62,0,0,1-1.955.851,2.424,2.424,0,0,1-1.666-.574,1.859,1.859,0,0,1-.651-1.457,1.942,1.942,0,0,1,.816-1.666,3.846,3.846,0,0,1,2.295-.594h1.143V61.3a1.319,1.319,0,0,0-.368-.981,1.48,1.48,0,0,0-1.085-.365,1.712,1.712,0,0,0-1.054.317.935.935,0,0,0-.425.768H33.871a1.621,1.621,0,0,1,.365-.993,2.491,2.491,0,0,1,.99-.759A3.331,3.331,0,0,1,36.6,59a2.715,2.715,0,0,1,1.86.594,2.141,2.141,0,0,1,.7,1.635v3.161a3.865,3.865,0,0,0,.241,1.5V66Zm-1.949-.9a2.064,2.064,0,0,0,1.047-.286,1.728,1.728,0,0,0,.717-.743V62.667h-.92q-2.158,0-2.158,1.263a1.069,1.069,0,0,0,.368.863A1.415,1.415,0,0,0,36.22,65.1ZM45,64.178a.865.865,0,0,0-.359-.74,3.452,3.452,0,0,0-1.25-.454,5.912,5.912,0,0,1-1.416-.457,2.014,2.014,0,0,1-.774-.635,1.518,1.518,0,0,1-.251-.876,1.782,1.782,0,0,1,.714-1.428A2.789,2.789,0,0,1,43.488,59a2.87,2.87,0,0,1,1.895.6,1.915,1.915,0,0,1,.727,1.542H44.929a1.06,1.06,0,0,0-.409-.832,1.534,1.534,0,0,0-1.031-.349,1.605,1.605,0,0,0-1,.279.879.879,0,0,0-.362.73.712.712,0,0,0,.336.641,4.139,4.139,0,0,0,1.216.413,6.334,6.334,0,0,1,1.425.47,2.079,2.079,0,0,1,.809.657,1.615,1.615,0,0,1,.263.936,1.758,1.758,0,0,1-.736,1.476,3.089,3.089,0,0,1-1.911.555,3.459,3.459,0,0,1-1.46-.292,2.375,2.375,0,0,1-.993-.816,1.966,1.966,0,0,1-.359-1.133h1.174a1.216,1.216,0,0,0,.473.936,1.835,1.835,0,0,0,1.165.346,1.894,1.894,0,0,0,1.07-.27A.829.829,0,0,0,45,64.178Zm2.729,1.206a.735.735,0,0,1,.181-.508.689.689,0,0,1,.543-.2.71.71,0,0,1,.549.2.721.721,0,0,1,.187.508.681.681,0,0,1-.187.489.723.723,0,0,1-.549.2.653.653,0,0,1-.724-.686Z" transform="translate(851 4525.408)" fill="#616161"/>
  </g>
</svg>
