<svg xmlns="http://www.w3.org/2000/svg" width="253.403" height="229.194" viewBox="0 0 253.403 229.194">
  <g id="Grupo_86732" data-name="Grupo 86732" transform="translate(-875.452 -164.533)">
    <g id="Grupo_86718" data-name="Grupo 86718" transform="translate(956.149 214.835)">
      <g id="Grupo_86717" data-name="Grupo 86717">
        <path id="Trazado_152269" data-name="Trazado 152269" d="M1266.614,516.8H1109.5l13.952-95.836h157.112Z" transform="translate(-1109.502 -409.619)" fill="#e8e8e8"/>
        <path id="Trazado_152270" data-name="Trazado 152270" d="M1302.928,403.007H1145.817l1.719-11.733h157.112Z" transform="translate(-1131.943 -391.274)" fill="#e8e8e8"/>
        <g id="Grupo_86716" data-name="Grupo 86716" transform="translate(24.88 3.855)">
          <path id="Trazado_152271" data-name="Trazado 152271" d="M1178.668,403.376a2.406,2.406,0,0,1-2.3,2.011,1.7,1.7,0,0,1-1.72-2.011,2.406,2.406,0,0,1,2.3-2.012A1.7,1.7,0,0,1,1178.668,403.376Z" transform="translate(-1174.624 -401.364)" fill="#e8e8e8"/>
          <path id="Trazado_152272" data-name="Trazado 152272" d="M1200.731,403.376a2.406,2.406,0,0,1-2.3,2.011,1.7,1.7,0,0,1-1.72-2.011,2.406,2.406,0,0,1,2.3-2.012A1.7,1.7,0,0,1,1200.731,403.376Z" transform="translate(-1188.257 -401.364)" fill="#e8e8e8"/>
          <path id="Trazado_152273" data-name="Trazado 152273" d="M1222.794,403.376a2.406,2.406,0,0,1-2.3,2.011,1.7,1.7,0,0,1-1.72-2.011,2.406,2.406,0,0,1,2.3-2.012A1.7,1.7,0,0,1,1222.794,403.376Z" transform="translate(-1201.891 -401.364)" fill="#e8e8e8"/>
        </g>
      </g>
    </g>
    <g id="Grupo_86720" data-name="Grupo 86720" transform="translate(930.419 192.992)">
      <path id="Trazado_152274" data-name="Trazado 152274" d="M1191.732,447.515H1019.7l15.277-104.937h172.033Z" transform="translate(-1019.699 -330.159)" fill="#9114d4"/>
      <path id="Trazado_152275" data-name="Trazado 152275" d="M1231.5,322.92H1059.462l1.883-12.847h172.033Z" transform="translate(-1044.271 -310.072)" fill="#69039f"/>
      <g id="Grupo_86719" data-name="Grupo 86719" transform="translate(27.243 4.221)">
        <path id="Trazado_152276" data-name="Trazado 152276" d="M1095.434,323.324a2.634,2.634,0,0,1-2.522,2.2,1.861,1.861,0,0,1-1.884-2.2,2.635,2.635,0,0,1,2.522-2.2A1.861,1.861,0,0,1,1095.434,323.324Z" transform="translate(-1091.005 -321.121)" fill="#fff"/>
        <path id="Trazado_152277" data-name="Trazado 152277" d="M1119.593,323.324a2.635,2.635,0,0,1-2.522,2.2,1.861,1.861,0,0,1-1.884-2.2,2.634,2.634,0,0,1,2.521-2.2A1.861,1.861,0,0,1,1119.593,323.324Z" transform="translate(-1105.934 -321.121)" fill="#fff"/>
        <path id="Trazado_152278" data-name="Trazado 152278" d="M1143.751,323.324a2.634,2.634,0,0,1-2.522,2.2,1.861,1.861,0,0,1-1.884-2.2,2.634,2.634,0,0,1,2.522-2.2A1.861,1.861,0,0,1,1143.751,323.324Z" transform="translate(-1120.862 -321.121)" fill="#fff"/>
      </g>
    </g>
    <g id="Grupo_86721" data-name="Grupo 86721" transform="translate(964.026 219.946)">
      <path id="Trazado_152279" data-name="Trazado 152279" d="M1107.662,393.382l.22-1.568,8.757-3.229-.253,1.811-3.78,1.269-2.645.9-.011.075,2.395.9,3.424,1.269-.253,1.811Z" transform="translate(-1107.662 -385.543)" fill="#aa91c4"/>
      <path id="Trazado_152280" data-name="Trazado 152280" d="M1135.194,380.622h1.456l-6.621,16.238h-1.456Z" transform="translate(-1120.584 -380.622)" fill="#aa91c4"/>
      <path id="Trazado_152281" data-name="Trazado 152281" d="M1148.6,394.8l3.78-1.269,2.645-.9.01-.075-2.394-.9-3.425-1.269.253-1.811,7.854,3.229-.22,1.568-8.757,3.229Z" transform="translate(-1132.803 -385.543)" fill="#aa91c4"/>
    </g>
    <g id="Grupo_86722" data-name="Grupo 86722" transform="translate(956.253 283.646)">
      <path id="Trazado_152282" data-name="Trazado 152282" d="M1087.319,560.114l.219-1.568,8.758-3.229-.253,1.81-3.78,1.269-2.645.9-.01.075,2.394.9,3.425,1.269-.253,1.81Z" transform="translate(-1087.319 -552.274)" fill="#aa91c4"/>
      <path id="Trazado_152283" data-name="Trazado 152283" d="M1114.851,547.353h1.456l-6.621,16.239h-1.456Z" transform="translate(-1100.241 -547.353)" fill="#aa91c4"/>
      <path id="Trazado_152284" data-name="Trazado 152284" d="M1128.257,561.532l3.78-1.269,2.645-.9.011-.075-2.395-.9-3.425-1.269.253-1.81,7.854,3.229-.219,1.568L1128,563.343Z" transform="translate(-1112.46 -552.274)" fill="#aa91c4"/>
    </g>
    <line id="Línea_259" data-name="Línea 259" x2="59.198" transform="translate(1029.7 245.25)" fill="none" stroke="#ffce57" stroke-linecap="round" stroke-linejoin="round" stroke-width="3.583"/>
    <line id="Línea_260" data-name="Línea 260" x2="21.873" transform="translate(995.465 245.25)" fill="none" stroke="#ffce57" stroke-linecap="round" stroke-linejoin="round" stroke-width="3.583"/>
    <line id="Línea_261" data-name="Línea 261" x2="41.639" transform="translate(984.166 272.76)" fill="none" stroke="#9664f5" stroke-linecap="round" stroke-linejoin="round" stroke-width="3.583"/>
    <line id="Línea_262" data-name="Línea 262" x2="9.908" transform="translate(964.939 272.76)" fill="none" stroke="#9664f5" stroke-linecap="round" stroke-linejoin="round" stroke-width="3.385"/>
    <line id="Línea_263" data-name="Línea 263" x2="44.416" transform="translate(1040.681 272.76)" fill="none" stroke="#9664f5" stroke-linecap="round" stroke-linejoin="round" stroke-width="3.583"/>
    <line id="Línea_264" data-name="Línea 264" x2="23.518" transform="translate(1017.654 259.368)" fill="none" stroke="#ffce57" stroke-linecap="round" stroke-linejoin="round" stroke-width="3.583"/>
    <line id="Línea_265" data-name="Línea 265" x2="13.184" transform="translate(989.464 259.368)" fill="none" stroke="#ffce57" stroke-linecap="round" stroke-linejoin="round" stroke-width="3.583"/>
    <line id="Línea_266" data-name="Línea 266" x2="24.969" transform="translate(1061.953 259.368)" fill="none" stroke="#cfd6e6" stroke-linecap="round" stroke-linejoin="round" stroke-width="3.583"/>
    <line id="Línea_267" data-name="Línea 267" x2="23.476" transform="translate(961.582 245.25)" fill="none" stroke="#ffce57" stroke-linecap="round" stroke-linejoin="round" stroke-width="3.385"/>
    <circle id="Elipse_8346" data-name="Elipse 8346" cx="3.05" cy="3.05" r="3.05" transform="translate(906.126 211.835)" fill="none" stroke="#261936" stroke-linecap="round" stroke-linejoin="round" stroke-width="1.834"/>
    <circle id="Elipse_8347" data-name="Elipse 8347" cx="3.05" cy="3.05" r="3.05" transform="translate(1110.447 165.45)" fill="none" stroke="#261936" stroke-linecap="round" stroke-linejoin="round" stroke-width="1.834"/>
    <circle id="Elipse_8348" data-name="Elipse 8348" cx="3.05" cy="3.05" r="3.05" transform="translate(1047.914 335.092)" fill="none" stroke="#261936" stroke-linecap="round" stroke-linejoin="round" stroke-width="1.834"/>
    <g id="Grupo_86723" data-name="Grupo 86723" transform="translate(922.817 208.454)">
      <ellipse id="Elipse_8349" data-name="Elipse 8349" cx="13.246" cy="11.701" rx="13.246" ry="11.701" transform="matrix(0.729, -0.685, 0.685, 0.729, 0, 18.144)" fill="#ffce57"/>
      <path id="Trazado_152285" data-name="Trazado 152285" d="M1034.452,391.362l3.741,4.811,5.553-6.8" transform="translate(-1021.214 -374.535)" fill="none" stroke="#fff" stroke-linecap="round" stroke-linejoin="round" stroke-width="2.597"/>
    </g>
    <g id="Grupo_86724" data-name="Grupo 86724" transform="translate(1005.894 216.187)">
      <path id="Trazado_152286" data-name="Trazado 152286" d="M1221.193,372.74a2.421,2.421,0,0,1-2.292,1.958,1.608,1.608,0,0,1-1.624-1.958,2.42,2.42,0,0,1,2.292-1.958A1.608,1.608,0,0,1,1221.193,372.74Z" transform="translate(-1217.248 -370.782)" fill="#fff"/>
      <path id="Trazado_152287" data-name="Trazado 152287" d="M1242.667,372.74a2.42,2.42,0,0,1-2.292,1.958,1.607,1.607,0,0,1-1.623-1.958,2.419,2.419,0,0,1,2.292-1.958A1.607,1.607,0,0,1,1242.667,372.74Z" transform="translate(-1230.518 -370.782)" fill="#fff"/>
      <path id="Trazado_152288" data-name="Trazado 152288" d="M1264.142,372.74a2.421,2.421,0,0,1-2.292,1.958,1.608,1.608,0,0,1-1.624-1.958,2.42,2.42,0,0,1,2.292-1.958A1.607,1.607,0,0,1,1264.142,372.74Z" transform="translate(-1243.788 -370.782)" fill="#fff"/>
    </g>
    <path id="Trazado_152289" data-name="Trazado 152289" d="M1169.956,261.582H1065.373a7.831,7.831,0,0,1-7.808-7.808h0a7.831,7.831,0,0,1,7.808-7.808h104.583a7.831,7.831,0,0,1,7.808,7.808h0A7.831,7.831,0,0,1,1169.956,261.582Z" transform="translate(-112.679 -77.466)" fill="#d07efc"/>
    <g id="Grupo_86725" data-name="Grupo 86725" transform="translate(952.17 171.541)">
      <path id="Trazado_152290" data-name="Trazado 152290" d="M1084.159,257.55a4.189,4.189,0,0,1-4.129,3.623,3.267,3.267,0,0,1-3.38-3.623,4.189,4.189,0,0,1,4.128-3.624A3.268,3.268,0,0,1,1084.159,257.55Z" transform="translate(-1076.632 -253.926)" fill="none" stroke="#fff" stroke-linecap="round" stroke-linejoin="round" stroke-width="3.137"/>
      <line id="Línea_268" data-name="Línea 268" x1="4.237" y1="3.436" transform="translate(6.257 6.097)" fill="none" stroke="#fff" stroke-linecap="round" stroke-linejoin="round" stroke-width="3.137"/>
    </g>
    <g id="Grupo_86728" data-name="Grupo 86728" transform="translate(1005.1 234.44)">
      <path id="Trazado_152291" data-name="Trazado 152291" d="M1367.831,594.24c-2.931.883-4.838.6-6.8-1.317l-4.456-10.156,2.864-1.372,7.647,9.068Z" transform="translate(-1302.549 -519.183)" fill="#fca78e" fill-rule="evenodd"/>
      <path id="Trazado_152292" data-name="Trazado 152292" d="M1354.469,576.7l-1.7-2.334a2.413,2.413,0,0,0-1.4-.927l-2.279-.533a1.167,1.167,0,0,0-1.424,1.286h0l2.306,2.812a3.633,3.633,0,0,0,2.16,1.218l1.466.271Z" transform="translate(-1297.038 -513.917)" fill="#fca78e"/>
      <path id="Trazado_152293" data-name="Trazado 152293" d="M1377.712,573.229c-1.611.267-2.151-2.413-1.486-3.9l4.44-11.454c1.211-3.05,3.934-4.935,5.724-3.963h0c.705.383.8,1.622.212,2.783l-6.82,18.752Z" transform="translate(-1314.522 -502.038)" fill="#fca78e" fill-rule="evenodd"/>
      <path id="Trazado_152294" data-name="Trazado 152294" d="M1365.592,824.927c0,1.048,11.4,1.9,25.464,1.9s25.465-.849,25.465-1.9-11.4-1.9-25.465-1.9S1365.592,823.88,1365.592,824.927Z" transform="translate(-1308.123 -668.501)" fill="#ebe8f2" fill-rule="evenodd"/>
      <path id="Trazado_152295" data-name="Trazado 152295" d="M1398.076,716.749s3.447-23.041-1-32.158l2.429-31.258-14.568,1,9.817,62.593Z" transform="translate(-1320.075 -563.637)" fill="#d96e4e" fill-rule="evenodd"/>
      <path id="Trazado_152296" data-name="Trazado 152296" d="M1399.6,816.95l-2.892,2.106a19.819,19.819,0,0,1-3.671,1.532h0c-.309.647.3.987.808,1.072l9.154-.192s2.114-.439.239-4.513C1401.571,817.69,1400.033,818.217,1399.6,816.95Z" transform="translate(-1325.03 -664.743)" fill="#221f14" fill-rule="evenodd"/>
      <path id="Trazado_152297" data-name="Trazado 152297" d="M1382.28,667.411l3.37,26.471,4.434,26.537h10.661a37.472,37.472,0,0,1-.878-6.078c.118-1.464.505-15.351-2.744-21.739l.258-26.018Z" transform="translate(-1318.436 -571.825)" fill="#dacfeb" fill-rule="evenodd"/>
      <path id="Trazado_152298" data-name="Trazado 152298" d="M1413.251,692.6l.258-26.018-5.061.277-.189,19.053a42.238,42.238,0,0,0,1.327,10.624c1.73,6.932,1.448,16.6,1.352,17.8a37.509,37.509,0,0,0,.878,6.078h5.058a37.475,37.475,0,0,1-.878-6.078C1416.114,712.877,1416.5,698.99,1413.251,692.6Z" transform="translate(-1334.489 -571.825)" fill="#c4bad4" fill-rule="evenodd"/>
      <path id="Trazado_152299" data-name="Trazado 152299" d="M1433.7,715.4s1.531-23.318-3.678-32.545l-.17-31.633-14.485,1.016,15.022,63.345Z" transform="translate(-1338.883 -562.332)" fill="#d96e4e" fill-rule="evenodd"/>
      <path id="Trazado_152300" data-name="Trazado 152300" d="M1443.954,816.8l-2.717,2.131a18.036,18.036,0,0,1-3.543,1.55h0c-.256.654.377,1,.9,1.085l9.137-.194s2.077-.444-.136-4.568C1445.987,817.551,1444.493,818.085,1443.954,816.8Z" transform="translate(-1352.642 -664.652)" fill="#221f14" fill-rule="evenodd"/>
      <path id="Trazado_152301" data-name="Trazado 152301" d="M1413.779,661.371l5.571,26.789,6.641,26.856h10.662a40.123,40.123,0,0,1-1.384-6.151c0-1.482-.771-15.535-4.552-22L1429.143,658Z" transform="translate(-1337.9 -566.521)" fill="#dacfeb" fill-rule="evenodd"/>
      <path id="Trazado_152302" data-name="Trazado 152302" d="M1403.725,612.789l-19.912,1.517c-3.239,1.189-1.945,19.863-1.945,19.863l13.093.607c6.083-.127,13.278,4.644,14.035-5.492C1409.86,617.7,1403.725,612.789,1403.725,612.789Z" transform="translate(-1318.023 -538.583)" fill="#dacfeb" fill-rule="evenodd"/>
      <path id="Trazado_152303" data-name="Trazado 152303" d="M1387.419,550.585l4.431-1.512,6-.408,7.621,2.658a5.6,5.6,0,0,1,2.777,6.953L1406.379,567c1.981,6.579,3,11.192,2.66,17.963-10.806,4.013-25.66,3.816-29.07-1.141C1380.544,570.267,1382.157,559.308,1387.419,550.585Z" transform="translate(-1317.007 -498.958)" fill="#d07efc" fill-rule="evenodd"/>
      <path id="Trazado_152304" data-name="Trazado 152304" d="M1409.934,548.061s-2.4,5.931,1.675,6.192,6.3-5.9,6.3-5.9l-2.974-1.321Z" transform="translate(-1335.091 -497.946)" fill="#fca78e"/>
      <path id="Trazado_152305" data-name="Trazado 152305" d="M1448.964,575.521l-8.8-12.063c-2.158-2.879-1.762-6.162.833-6.9h0a3.087,3.087,0,0,1,3.123,1.625l9.462,14.747Z" transform="translate(-1353.345 -503.796)" fill="#fca78e" fill-rule="evenodd"/>
      <g id="Grupo_86726" data-name="Grupo 86726">
        <rect id="Rectángulo_7844" data-name="Rectángulo 7844" width="4.612" height="19.009" transform="matrix(0.674, -0.739, 0.739, 0.674, 43.416, 48.013)" fill="#2e203d"/>
        <path id="Trazado_152306" data-name="Trazado 152306" d="M1390.489,591.552h0a5.035,5.035,0,0,1-7.093.312l-28.761-26.337a5.036,5.036,0,0,1-.312-7.093h0a5.035,5.035,0,0,1,7.094-.312l28.761,26.337A5.036,5.036,0,0,1,1390.489,591.552Z" transform="translate(-1300.349 -503.991)" fill="#573d78"/>
        <path id="Trazado_152307" data-name="Trazado 152307" d="M1222.192,427.241a26.74,26.74,0,1,0,37.779-1.662A26.74,26.74,0,0,0,1222.192,427.241Zm35.943,32.915a22,22,0,1,1-1.367-31.078A22,22,0,0,1,1258.135,460.156Z" transform="translate(-1215.172 -418.56)" fill="#ab9dd4"/>
      </g>
      <path id="Trazado_152308" data-name="Trazado 152308" d="M1449.878,599.513c1.187,2.538.573,4.677-2.19,6.383l-14.916,5.414.111-3.3,11.45-7.351Z" transform="translate(-1349.636 -530.379)" fill="#fca78e" fill-rule="evenodd"/>
      <path id="Trazado_152309" data-name="Trazado 152309" d="M1427.5,621.745l-2.213,1.859a2.412,2.412,0,0,0-.83,1.459l-.377,2.309a1.167,1.167,0,0,0,1.381,1.332h0l2.65-2.493a3.633,3.633,0,0,0,1.068-2.238l.17-1.48Z" transform="translate(-1344.259 -544.117)" fill="#fca78e"/>
      <g id="Grupo_86727" data-name="Grupo 86727" transform="translate(71.792 36.974)">
        <path id="Trazado_152310" data-name="Trazado 152310" d="M1409.422,534.9l1.689,5.756a2,2,0,0,0,1.46,1.388,1.968,1.968,0,0,0,1.91-.6l.456-.507a2.584,2.584,0,0,0,.466-2.705l-2.718-6.641-3.263,3.312Z" transform="translate(-1406.999 -525.378)" fill="#fca78e" fill-rule="evenodd"/>
        <path id="Trazado_152311" data-name="Trazado 152311" d="M1410.362,544.352l.7,1.847,1.3-2.155Z" transform="translate(-1407.58 -533.076)" fill="#ee896d" fill-rule="evenodd"/>
        <path id="Trazado_152312" data-name="Trazado 152312" d="M1410.294,524.831a1.741,1.741,0,0,0-1.4-2.017l-3.261-.58a1.834,1.834,0,0,0-1.994,1.413,18.819,18.819,0,0,0-.556,5.1,2.108,2.108,0,0,0,1.536,2.114c1,.178,4.164-.253,4.767-2.009a25.333,25.333,0,0,0,.907-4.023Z" transform="translate(-1403.081 -519.583)" fill="#fca78e" fill-rule="evenodd"/>
        <path id="Trazado_152313" data-name="Trazado 152313" d="M1415.333,526.21s-.775-4.874-2.184-6.281c-1.894-1.891-4.464-2.951-7.321-.612,0,0,.4,4.3,5.1,7.9Z" transform="translate(-1404.778 -516.968)" fill="#1b2836" fill-rule="evenodd"/>
        <path id="Trazado_152314" data-name="Trazado 152314" d="M1411.8,533.647a1.3,1.3,0,0,1-1.721.649,1.335,1.335,0,0,1-.309-1.831,1.3,1.3,0,0,1,1.721-.648A1.334,1.334,0,0,1,1411.8,533.647Z" transform="translate(-1407.078 -525.437)" fill="#fca78e" fill-rule="evenodd"/>
        <path id="Trazado_152315" data-name="Trazado 152315" d="M1432.059,529.92a2.093,2.093,0,0,1,.225-1.694c2.395-4.192-3.821-6.273-5.688-7.346-1.948-1.12-.184-4.486-4.171-5.343s-5.009,1.3-5.2,1.258c-.279-.058.886,3.668.886,3.668s1.986.4,2.379,4.249-.4,5.955,2.307,8.71,11.683-2.192,11.683-2.192A2.014,2.014,0,0,1,1432.059,529.92Z" transform="translate(-1411.795 -515.337)" fill="#1b2836" fill-rule="evenodd"/>
        <path id="Trazado_152316" data-name="Trazado 152316" d="M1417.612,518.547s-1.115,2.161,1.519,3.438" transform="translate(-1411.916 -517.32)" fill="none" stroke="#fff" stroke-linecap="round" stroke-linejoin="round" stroke-width="1.387"/>
      </g>
    </g>
    <g id="Grupo_86730" data-name="Grupo 86730" transform="translate(875.452 258.827)">
      <path id="Trazado_152317" data-name="Trazado 152317" d="M1008.5,529.128c3.12,1.811,3.939,1.944,6.714.284l8.831-9.1-1.992-2.765-11.169,6.851Z" transform="translate(-957.814 -504.115)" fill="#ffc3b1" fill-rule="evenodd"/>
      <path id="Trazado_152318" data-name="Trazado 152318" d="M996.9,538.125a7.424,7.424,0,0,0,7.828-2.933l6.914-5.721-2.541-6.059a1.222,1.222,0,0,0-1.787-.557l-13.124,8.409Z" transform="translate(-948.969 -507.275)" fill="#7ff9ff" fill-rule="evenodd"/>
      <path id="Trazado_152319" data-name="Trazado 152319" d="M932.851,826.489c-.035,1.173-12.829,2.124-28.576,2.124s-28.484-.951-28.448-2.124,12.829-2.124,28.576-2.124S932.886,825.316,932.851,826.489Z" transform="translate(-875.827 -693.711)" fill="#ebe8f2" fill-rule="evenodd"/>
      <path id="Trazado_152320" data-name="Trazado 152320" d="M965.629,810.356c2,2.553,3.58,3.2,4.412.4l-.113-5.454-4.433.063Z" transform="translate(-931.237 -681.931)" fill="#c26245" fill-rule="evenodd"/>
      <path id="Trazado_152321" data-name="Trazado 152321" d="M942.727,602.982c7.073,9.084,7.819,3.578,7.819,3.578s1.627,34.285,1.437,35.421l-1.184,36.24c-.056,1.708.4,3.251-1.085,3.442l-3.081.456c-1.8-10.714-10.644-18.78-6.35-35.538l-7.121-26.209C923.39,600.895,942.727,602.982,942.727,602.982Z" transform="translate(-909.552 -556.869)" fill="#ccc5d6" fill-rule="evenodd"/>
      <path id="Trazado_152322" data-name="Trazado 152322" d="M951.425,710.076l-3.9-.023c-2.357.334-.859-1.223-1.134-2.546-2.032-9.779-5.621-17.4-1.646-32.917l-7.121-26.209h0a4.38,4.38,0,0,1,5.2,2.722C952.435,673.873,946.489,696.64,951.425,710.076Z" transform="translate(-914.012 -584.877)" fill="#ada7b5" fill-rule="evenodd"/>
      <path id="Trazado_152323" data-name="Trazado 152323" d="M916.39,611.763l-5.463,42.586L905.4,690.16l-3.6.724c-.494-12.9-6.557-22.561-1.167-38.183l2.068-29.075,6.869-10.456Z" transform="translate(-889.78 -562.335)" fill="#c26245" fill-rule="evenodd"/>
      <path id="Trazado_152324" data-name="Trazado 152324" d="M917.59,613.314,911.976,655.4l-4.546,31.144a1.971,1.971,0,0,1-1.845,1.745l-6.331.188a1.155,1.155,0,0,1-1.205-1.189c.053-2.743.281-6.966.284-8.568.016-8.638-2.376-12.187,1.33-23.7a10.236,10.236,0,0,0,.5-2.854l.769-28.349,8.127-9.7Z" transform="translate(-889.273 -563.294)" fill="#ccc5d6" fill-rule="evenodd"/>
      <path id="Trazado_152325" data-name="Trazado 152325" d="M910.068,816.514a24.5,24.5,0,0,1,1.545,4.694,1.1,1.1,0,0,1-.37.925,1.535,1.535,0,0,1-1.033.433l-2.264.013a1.412,1.412,0,0,1-.9-.286l-.487-.391c-.811-.652-.625-1.424-.4-2.508a20,20,0,0,0,.319-2.388A3.573,3.573,0,0,1,910.068,816.514Z" transform="translate(-894.453 -688.689)" fill="#241930" fill-rule="evenodd"/>
      <path id="Trazado_152326" data-name="Trazado 152326" d="M906.747,625.841s14.747,1.593,19.756-4.9l-19.793-4.361S906.5,624.183,906.747,625.841Z" transform="translate(-894.859 -565.309)" fill="#ada7b5" fill-rule="evenodd"/>
      <path id="Trazado_152327" data-name="Trazado 152327" d="M968.541,817.556l3.064,2.358a20.526,20.526,0,0,0,3.984,1.715h0c.293.724-.412,1.1-.993,1.2l-10.233-.215s-2.779-.492-.343-5.054C965.822,818.385,967.95,818.975,968.541,817.556Z" transform="translate(-929.706 -689.504)" fill="#241930" fill-rule="evenodd"/>
      <path id="Trazado_152328" data-name="Trazado 152328" d="M944.192,488.856s1.877-2.533-1.077-4.714-2.75,3.68-2.656,3.746S944.192,488.856,944.192,488.856Z" transform="translate(-915.739 -483.172)" fill="#241930" fill-rule="evenodd"/>
      <path id="Trazado_152329" data-name="Trazado 152329" d="M929.124,494.172s.687,2.949,2.947,2.768,1.571-6.665,1.571-6.665Z" transform="translate(-908.762 -487.262)" fill="#241930" fill-rule="evenodd"/>
      <path id="Trazado_152330" data-name="Trazado 152330" d="M939.584,498.987s.142,3.264.26,5.968a1.939,1.939,0,0,1-1.069,1.773,2.5,2.5,0,0,1-2.269.036l-.673-.334a2.515,2.515,0,0,1-1.476-2.406c.187-2.527.527-7.128.527-7.128l4.7,2.092Z" transform="translate(-911.992 -491.353)" fill="#ffc3b1" fill-rule="evenodd"/>
      <path id="Trazado_152331" data-name="Trazado 152331" d="M945.193,507.787l-.135,1.853-2.126-1.51Z" transform="translate(-917.294 -498.083)" fill="#943f25" fill-rule="evenodd"/>
      <path id="Trazado_152332" data-name="Trazado 152332" d="M932.288,489.162a1.733,1.733,0,0,1,1.15-2.156l3.158-.95a1.826,1.826,0,0,1,2.135,1.167,18.734,18.734,0,0,1,1.139,4.98,2.1,2.1,0,0,1-1.274,2.268c-.968.291-4.146.232-4.946-1.435a25.159,25.159,0,0,1-1.361-3.874Z" transform="translate(-910.672 -484.613)" fill="#ffc3b1" fill-rule="evenodd"/>
      <path id="Trazado_152333" data-name="Trazado 152333" d="M927.466,489.931s-.981-3.566.25-5.12c1.654-2.089,4.073-3.434,7.168-1.451,0,0,1.664.733-3.215,2.043-.619.166.684,3.068-.081,3.436a12.969,12.969,0,0,1-4.121,1.092Z" transform="translate(-907.508 -482.389)" fill="#241930" fill-rule="evenodd"/>
      <path id="Trazado_152334" data-name="Trazado 152334" d="M932.074,501.323a1.3,1.3,0,0,0,1.777.442,1.329,1.329,0,0,0,.094-1.846,1.3,1.3,0,0,0-1.776-.443A1.328,1.328,0,0,0,932.074,501.323Z" transform="translate(-910.385 -492.826)" fill="#ffc3b1" fill-rule="evenodd"/>
      <path id="Trazado_152335" data-name="Trazado 152335" d="M969.927,525.214c-5.792-3.093-13.749-6.71-13.749-6.71-2.9-1.675-7.8-1.666-8.794.445h0c-.39.832,1.13,7.777,2.344,8.323l18.21,7.542c3.957-1.291,4.195-.773,4.952-3.026A5.634,5.634,0,0,0,969.927,525.214Z" transform="translate(-920.007 -503.964)" fill="#7ff9ff" fill-rule="evenodd"/>
      <path id="Trazado_152336" data-name="Trazado 152336" d="M924.4,515.741l-6.22-1.3-5.67-.889-9.267,3.285c-1.275,7.926-3.708,4.594-2.59,7.674l-1,1.692c-.82,19.729-1.786,22.792-1.394,30.513,12.322,4.576,32.352,2.162,36.241-3.492C933.845,537.769,930.4,525.687,924.4,515.741Z" transform="translate(-889.634 -501.646)" fill="#7ff9ff" fill-rule="evenodd"/>
      <path id="Trazado_152337" data-name="Trazado 152337" d="M935.833,513.972s2.733,6.764-1.91,7.061-7.184-6.733-7.184-6.733l3.391-1.507Z" transform="translate(-907.288 -501.177)" fill="#ffc3b1"/>
      <line id="Línea_269" data-name="Línea 269" x2="0.775" y2="3.526" transform="translate(36.366 22.476)" fill="none" stroke="#4ac1c7" stroke-linecap="round" stroke-linejoin="round" stroke-width="2"/>
      <path id="Trazado_152338" data-name="Trazado 152338" d="M908.439,592.786c.9,2.9-2.254,3.587,1.814,3.636l20.731-2.169-2.779-2.242L910.6,589.968Z" transform="translate(-895.778 -548.867)" fill="#ffc3b1" fill-rule="evenodd"/>
      <path id="Trazado_152339" data-name="Trazado 152339" d="M961.328,595.627l3.559,1.025a3.34,3.34,0,0,0,2.047-.026l2.468-.9c.86-.313.916-1.336.108-1.982h0L965,592.662a4.826,4.826,0,0,0-2.971.227l-1.524.642Z" transform="translate(-928.153 -550.449)" fill="#ffc3b1"/>
      <path id="Trazado_152340" data-name="Trazado 152340" d="M1042.665,517.219l3.4.073a2.842,2.842,0,0,0,1.869-.649l2.128-1.753a1.375,1.375,0,0,0-.189-2.253h0l-4.285.15a4.284,4.284,0,0,0-2.685,1.153l-1.3,1.18Z" transform="translate(-978.27 -501.081)" fill="#ffc3b1"/>
      <path id="Trazado_152341" data-name="Trazado 152341" d="M904.41,522.15s-4.352,2.027-4.352,8.192c0,4.519.883,16.992,1.07,17.789s-.716,8.678,6.475,8.824a82.9,82.9,0,0,0,15.54-1.159l-.507-6.557L908.9,548.173s-1.477-21.979-2.431-23.2S904.41,522.15,904.41,522.15Z" transform="translate(-890.8 -506.959)" fill="#7ff9ff" fill-rule="evenodd"/>
      <path id="Trazado_152342" data-name="Trazado 152342" d="M916.809,555.6l3.063,13.943,5.513.842" transform="translate(-901.152 -527.632)" fill="none" stroke="#4ac1c7" stroke-linecap="round" stroke-linejoin="round" stroke-width="2" fill-rule="evenodd"/>
      <g id="Grupo_86729" data-name="Grupo 86729" transform="translate(25.25 31.528)">
        <path id="Trazado_152343" data-name="Trazado 152343" d="M941.918,592.686H959.89v-1.36H943.278a1.36,1.36,0,0,0-1.36,1.36Z" transform="translate(-941.918 -581.234)" fill="#fad0b9" fill-rule="evenodd"/>
        <path id="Trazado_152344" data-name="Trazado 152344" d="M957.717,576.363h17.03l5.138-11.451h-16.64a.6.6,0,0,0-.55.356Z" transform="translate(-951.681 -564.912)" fill="#fad0b9" fill-rule="evenodd"/>
        <path id="Trazado_152345" data-name="Trazado 152345" d="M959.446,576.363h17.03l4.9-10.924a.374.374,0,0,0-.341-.527h-16.21a.374.374,0,0,0-.341.221Z" transform="translate(-952.749 -564.912)" fill="#191e36" fill-rule="evenodd"/>
        <path id="Trazado_152346" data-name="Trazado 152346" d="M986.77,578c-.2.714.35,1.293,1.234,1.293A2.08,2.08,0,0,0,989.973,578c.2-.714-.35-1.293-1.234-1.293A2.08,2.08,0,0,0,986.77,578Z" transform="translate(-969.609 -572.198)" fill="#fff" fill-rule="evenodd"/>
      </g>
    </g>
  </g>
</svg>
