<svg xmlns="http://www.w3.org/2000/svg" width="223.645" height="186.84" viewBox="0 0 223.645 186.84">
  <g id="Grupo_86824" data-name="Grupo 86824" transform="translate(-905.21 -164.533)">
    <g id="Grupo_86718" data-name="Grupo 86718" transform="translate(956.149 214.835)">
      <g id="Grupo_86717" data-name="Grupo 86717">
        <path id="Trazado_152269" data-name="Trazado 152269" d="M1266.614,516.8H1109.5l13.952-95.836h157.112Z" transform="translate(-1109.502 -409.619)" fill="#e8e8e8"/>
        <path id="Trazado_152270" data-name="Trazado 152270" d="M1302.928,403.007H1145.817l1.719-11.733h157.112Z" transform="translate(-1131.943 -391.274)" fill="#e8e8e8"/>
        <g id="Grupo_86716" data-name="Grupo 86716" transform="translate(24.88 3.855)">
          <path id="Trazado_152271" data-name="Trazado 152271" d="M1178.668,403.376a2.406,2.406,0,0,1-2.3,2.011,1.7,1.7,0,0,1-1.72-2.011,2.406,2.406,0,0,1,2.3-2.012A1.7,1.7,0,0,1,1178.668,403.376Z" transform="translate(-1174.624 -401.364)" fill="#e8e8e8"/>
          <path id="Trazado_152272" data-name="Trazado 152272" d="M1200.731,403.376a2.406,2.406,0,0,1-2.3,2.011,1.7,1.7,0,0,1-1.72-2.011,2.406,2.406,0,0,1,2.3-2.012A1.7,1.7,0,0,1,1200.731,403.376Z" transform="translate(-1188.257 -401.364)" fill="#e8e8e8"/>
          <path id="Trazado_152273" data-name="Trazado 152273" d="M1222.794,403.376a2.406,2.406,0,0,1-2.3,2.011,1.7,1.7,0,0,1-1.72-2.011,2.406,2.406,0,0,1,2.3-2.012A1.7,1.7,0,0,1,1222.794,403.376Z" transform="translate(-1201.891 -401.364)" fill="#e8e8e8"/>
        </g>
      </g>
    </g>
    <g id="Grupo_86720" data-name="Grupo 86720" transform="translate(930.419 192.992)">
      <path id="Trazado_152274" data-name="Trazado 152274" d="M1191.732,447.515H1019.7l15.277-104.937h172.033Z" transform="translate(-1019.699 -330.159)" fill="#9114d4"/>
      <path id="Trazado_152275" data-name="Trazado 152275" d="M1231.5,322.92H1059.462l1.883-12.847h172.033Z" transform="translate(-1044.271 -310.072)" fill="#69039f"/>
      <g id="Grupo_86719" data-name="Grupo 86719" transform="translate(27.243 4.221)">
        <path id="Trazado_152276" data-name="Trazado 152276" d="M1095.434,323.324a2.634,2.634,0,0,1-2.522,2.2,1.861,1.861,0,0,1-1.884-2.2,2.635,2.635,0,0,1,2.522-2.2A1.861,1.861,0,0,1,1095.434,323.324Z" transform="translate(-1091.005 -321.121)" fill="#fff"/>
        <path id="Trazado_152277" data-name="Trazado 152277" d="M1119.593,323.324a2.635,2.635,0,0,1-2.522,2.2,1.861,1.861,0,0,1-1.884-2.2,2.634,2.634,0,0,1,2.521-2.2A1.861,1.861,0,0,1,1119.593,323.324Z" transform="translate(-1105.934 -321.121)" fill="#fff"/>
        <path id="Trazado_152278" data-name="Trazado 152278" d="M1143.751,323.324a2.634,2.634,0,0,1-2.522,2.2,1.861,1.861,0,0,1-1.884-2.2,2.634,2.634,0,0,1,2.522-2.2A1.861,1.861,0,0,1,1143.751,323.324Z" transform="translate(-1120.862 -321.121)" fill="#fff"/>
      </g>
    </g>
    <g id="Grupo_86721" data-name="Grupo 86721" transform="translate(964.026 219.946)">
      <path id="Trazado_152279" data-name="Trazado 152279" d="M1107.662,393.382l.22-1.568,8.757-3.229-.253,1.811-3.78,1.269-2.645.9-.011.075,2.395.9,3.424,1.269-.253,1.811Z" transform="translate(-1107.662 -385.543)" fill="#aa91c4"/>
      <path id="Trazado_152280" data-name="Trazado 152280" d="M1135.194,380.622h1.456l-6.621,16.238h-1.456Z" transform="translate(-1120.584 -380.622)" fill="#aa91c4"/>
      <path id="Trazado_152281" data-name="Trazado 152281" d="M1148.6,394.8l3.78-1.269,2.645-.9.01-.075-2.394-.9-3.425-1.269.253-1.811,7.854,3.229-.22,1.568-8.757,3.229Z" transform="translate(-1132.803 -385.543)" fill="#aa91c4"/>
    </g>
    <g id="Grupo_86722" data-name="Grupo 86722" transform="translate(956.253 283.646)">
      <path id="Trazado_152282" data-name="Trazado 152282" d="M1087.319,560.114l.219-1.568,8.758-3.229-.253,1.81-3.78,1.269-2.645.9-.01.075,2.394.9,3.425,1.269-.253,1.81Z" transform="translate(-1087.319 -552.274)" fill="#aa91c4"/>
      <path id="Trazado_152283" data-name="Trazado 152283" d="M1114.851,547.353h1.456l-6.621,16.239h-1.456Z" transform="translate(-1100.241 -547.353)" fill="#aa91c4"/>
      <path id="Trazado_152284" data-name="Trazado 152284" d="M1128.257,561.532l3.78-1.269,2.645-.9.011-.075-2.395-.9-3.425-1.269.253-1.81,7.854,3.229-.219,1.568L1128,563.343Z" transform="translate(-1112.46 -552.274)" fill="#aa91c4"/>
    </g>
    <line id="Línea_259" data-name="Línea 259" x2="59.198" transform="translate(1029.7 245.25)" fill="none" stroke="#ffce57" stroke-linecap="round" stroke-linejoin="round" stroke-width="3.583"/>
    <line id="Línea_260" data-name="Línea 260" x2="21.873" transform="translate(995.465 245.25)" fill="none" stroke="#ffce57" stroke-linecap="round" stroke-linejoin="round" stroke-width="3.583"/>
    <line id="Línea_261" data-name="Línea 261" x2="41.639" transform="translate(984.166 272.76)" fill="none" stroke="#9664f5" stroke-linecap="round" stroke-linejoin="round" stroke-width="3.583"/>
    <line id="Línea_262" data-name="Línea 262" x2="9.908" transform="translate(964.939 272.76)" fill="none" stroke="#9664f5" stroke-linecap="round" stroke-linejoin="round" stroke-width="3.385"/>
    <line id="Línea_263" data-name="Línea 263" x2="44.416" transform="translate(1040.681 272.76)" fill="none" stroke="#9664f5" stroke-linecap="round" stroke-linejoin="round" stroke-width="3.583"/>
    <line id="Línea_264" data-name="Línea 264" x2="23.518" transform="translate(1017.654 259.368)" fill="none" stroke="#ffce57" stroke-linecap="round" stroke-linejoin="round" stroke-width="3.583"/>
    <line id="Línea_265" data-name="Línea 265" x2="13.184" transform="translate(989.464 259.368)" fill="none" stroke="#ffce57" stroke-linecap="round" stroke-linejoin="round" stroke-width="3.583"/>
    <line id="Línea_266" data-name="Línea 266" x2="24.969" transform="translate(1061.953 259.368)" fill="none" stroke="#cfd6e6" stroke-linecap="round" stroke-linejoin="round" stroke-width="3.583"/>
    <line id="Línea_267" data-name="Línea 267" x2="23.476" transform="translate(961.582 245.25)" fill="none" stroke="#ffce57" stroke-linecap="round" stroke-linejoin="round" stroke-width="3.385"/>
    <circle id="Elipse_8346" data-name="Elipse 8346" cx="3.05" cy="3.05" r="3.05" transform="translate(906.126 211.835)" fill="none" stroke="#261936" stroke-linecap="round" stroke-linejoin="round" stroke-width="1.834"/>
    <circle id="Elipse_8347" data-name="Elipse 8347" cx="3.05" cy="3.05" r="3.05" transform="translate(1110.447 165.45)" fill="none" stroke="#261936" stroke-linecap="round" stroke-linejoin="round" stroke-width="1.834"/>
    <circle id="Elipse_8348" data-name="Elipse 8348" cx="3.05" cy="3.05" r="3.05" transform="translate(1047.914 335.092)" fill="none" stroke="#261936" stroke-linecap="round" stroke-linejoin="round" stroke-width="1.834"/>
    <g id="Grupo_86723" data-name="Grupo 86723" transform="translate(922.817 208.454)">
      <ellipse id="Elipse_8349" data-name="Elipse 8349" cx="13.246" cy="11.701" rx="13.246" ry="11.701" transform="matrix(0.729, -0.685, 0.685, 0.729, 0, 18.144)" fill="#ffce57"/>
      <path id="Trazado_152285" data-name="Trazado 152285" d="M1034.452,391.362l3.741,4.811,5.553-6.8" transform="translate(-1021.214 -374.535)" fill="none" stroke="#fff" stroke-linecap="round" stroke-linejoin="round" stroke-width="2.597"/>
    </g>
    <g id="Grupo_86724" data-name="Grupo 86724" transform="translate(1005.894 216.187)">
      <path id="Trazado_152286" data-name="Trazado 152286" d="M1221.193,372.74a2.421,2.421,0,0,1-2.292,1.958,1.608,1.608,0,0,1-1.624-1.958,2.42,2.42,0,0,1,2.292-1.958A1.608,1.608,0,0,1,1221.193,372.74Z" transform="translate(-1217.248 -370.782)" fill="#fff"/>
      <path id="Trazado_152287" data-name="Trazado 152287" d="M1242.667,372.74a2.42,2.42,0,0,1-2.292,1.958,1.607,1.607,0,0,1-1.623-1.958,2.419,2.419,0,0,1,2.292-1.958A1.607,1.607,0,0,1,1242.667,372.74Z" transform="translate(-1230.518 -370.782)" fill="#fff"/>
      <path id="Trazado_152288" data-name="Trazado 152288" d="M1264.142,372.74a2.421,2.421,0,0,1-2.292,1.958,1.608,1.608,0,0,1-1.624-1.958,2.42,2.42,0,0,1,2.292-1.958A1.607,1.607,0,0,1,1264.142,372.74Z" transform="translate(-1243.788 -370.782)" fill="#fff"/>
    </g>
    <path id="Trazado_152289" data-name="Trazado 152289" d="M1169.956,261.582H1065.373a7.831,7.831,0,0,1-7.808-7.808h0a7.831,7.831,0,0,1,7.808-7.808h104.583a7.831,7.831,0,0,1,7.808,7.808h0A7.831,7.831,0,0,1,1169.956,261.582Z" transform="translate(-112.679 -77.466)" fill="#d07efc"/>
    <g id="Grupo_86725" data-name="Grupo 86725" transform="translate(952.17 171.541)">
      <path id="Trazado_152290" data-name="Trazado 152290" d="M1084.159,257.55a4.189,4.189,0,0,1-4.129,3.623,3.267,3.267,0,0,1-3.38-3.623,4.189,4.189,0,0,1,4.128-3.624A3.268,3.268,0,0,1,1084.159,257.55Z" transform="translate(-1076.632 -253.926)" fill="none" stroke="#fff" stroke-linecap="round" stroke-linejoin="round" stroke-width="3.137"/>
      <line id="Línea_268" data-name="Línea 268" x1="4.237" y1="3.436" transform="translate(6.257 6.097)" fill="none" stroke="#fff" stroke-linecap="round" stroke-linejoin="round" stroke-width="3.137"/>
    </g>
    <g id="Grupo_87368" data-name="Grupo 87368" transform="translate(672.599 -123.579)">
      <g id="Grupo_87366" data-name="Grupo 87366" transform="translate(391.643 416.621)">
        <path id="Trazado_153598" data-name="Trazado 153598" d="M474,690.041,454.33,641.51c-1.461-3.6-5.459-3.69-7.018-.151l-22.1,50.178Z" transform="translate(-422.752 -638.756)" fill="#f06159"/>
        <path id="Trazado_153599" data-name="Trazado 153599" d="M480.033,679.586l-24.569-.042,4.589-10.418,15.751.027Z" transform="translate(-440.067 -656.137)" fill="#efefef"/>
        <path id="Trazado_153600" data-name="Trazado 153600" d="M476.112,729.568l-42.65-.072,4.589-10.418,33.832.057Z" transform="translate(-427.474 -684.726)" fill="#efefef"/>
        <rect id="Rectángulo_8088" data-name="Rectángulo 8088" width="53.883" height="8.425" rx="4.213" transform="translate(53.883 58.331) rotate(-179.903)" fill="#cc463f"/>
        <path id="Trazado_153601" data-name="Trazado 153601" d="M525.293,763.735l3.039.005-2.985-7.588-3.039-.005Z" transform="translate(-478.323 -705.942)" fill="#ff887d"/>
        <path id="Trazado_153602" data-name="Trazado 153602" d="M501.475,702.4l3.323-.117-14.162-36.63-3.323.117Z" transform="translate(-458.294 -654.151)" fill="#fff" opacity="0.68"/>
      </g>
      <g id="Grupo_87367" data-name="Grupo 87367" transform="translate(261.453 316.121)">
        <path id="Trazado_153603" data-name="Trazado 153603" d="M345.942,332.5l-75.186,81.118,3.788-27.28L324.96,332.5Z" transform="translate(-269.143 -332.033)" fill="#f06159"/>
        <path id="Trazado_153604" data-name="Trazado 153604" d="M302.3,433.515l8.478-9.133-3.925-18.945-8.478,9.133Z" transform="translate(-284.176 -369.786)" fill="#efefef"/>
        <path id="Trazado_153605" data-name="Trazado 153605" d="M347.364,384.965l8.478-9.133-3.925-18.945-8.478,9.133Z" transform="translate(-307.354 -344.816)" fill="#efefef"/>
        <path id="Trazado_153606" data-name="Trazado 153606" d="M393,348.264l8.478-8.911L400,332.381l-10.382-.222Z" transform="translate(-331.105 -331.696)" fill="#efefef"/>
        <path id="Trazado_153607" data-name="Trazado 153607" d="M270.755,476.246l3.1-3.4-.91-14.078-2.188,15.6Z" transform="translate(-269.143 -394.666)" fill="#efefef"/>
        <path id="Trazado_153608" data-name="Trazado 153608" d="M302.3,433.515l8.478-9.133-3.925-18.945-8.478,9.133Z" transform="translate(-284.176 -369.786)" fill="#efefef"/>
        <path id="Trazado_153609" data-name="Trazado 153609" d="M347.364,384.965l8.478-9.133-3.925-18.945-8.478,9.133Z" transform="translate(-307.354 -344.816)" fill="#efefef"/>
        <path id="Trazado_153610" data-name="Trazado 153610" d="M393,348.666l8.478-9.133L400,332.765H389.671Z" transform="translate(-331.105 -332.098)" fill="#efefef"/>
      </g>
    </g>
  </g>
</svg>
