<svg xmlns="http://www.w3.org/2000/svg" width="264" height="211.477" viewBox="0 0 264 211.477">
  <g id="Grupo_87365" data-name="Grupo 87365" transform="translate(654.962 8049.509)">
    <g id="Grupo_86826" data-name="Grupo 86826" transform="translate(-1540.452 -8214.042)">
      <g id="Grupo_86718" data-name="Grupo 86718" transform="translate(956.149 214.835)">
        <g id="Grupo_86717" data-name="Grupo 86717">
          <path id="Trazado_152269" data-name="Trazado 152269" d="M1266.614,516.8H1109.5l13.952-95.836h157.112Z" transform="translate(-1109.502 -409.619)" fill="#e8e8e8"/>
          <path id="Trazado_152270" data-name="Trazado 152270" d="M1302.928,403.007H1145.817l1.719-11.733h157.112Z" transform="translate(-1131.943 -391.274)" fill="#e8e8e8"/>
          <g id="Grupo_86716" data-name="Grupo 86716" transform="translate(24.88 3.855)">
            <path id="Trazado_152271" data-name="Trazado 152271" d="M1178.668,403.376a2.406,2.406,0,0,1-2.3,2.011,1.7,1.7,0,0,1-1.72-2.011,2.406,2.406,0,0,1,2.3-2.012A1.7,1.7,0,0,1,1178.668,403.376Z" transform="translate(-1174.624 -401.364)" fill="#e8e8e8"/>
            <path id="Trazado_152272" data-name="Trazado 152272" d="M1200.731,403.376a2.406,2.406,0,0,1-2.3,2.011,1.7,1.7,0,0,1-1.72-2.011,2.406,2.406,0,0,1,2.3-2.012A1.7,1.7,0,0,1,1200.731,403.376Z" transform="translate(-1188.257 -401.364)" fill="#e8e8e8"/>
            <path id="Trazado_152273" data-name="Trazado 152273" d="M1222.794,403.376a2.406,2.406,0,0,1-2.3,2.011,1.7,1.7,0,0,1-1.72-2.011,2.406,2.406,0,0,1,2.3-2.012A1.7,1.7,0,0,1,1222.794,403.376Z" transform="translate(-1201.891 -401.364)" fill="#e8e8e8"/>
          </g>
        </g>
      </g>
      <g id="Grupo_86720" data-name="Grupo 86720" transform="translate(930.419 192.992)">
        <path id="Trazado_152274" data-name="Trazado 152274" d="M1191.732,447.515H1019.7l15.277-104.937h172.033Z" transform="translate(-1019.699 -330.159)" fill="#9114d4"/>
        <path id="Trazado_152275" data-name="Trazado 152275" d="M1231.5,322.92H1059.462l1.883-12.847h172.033Z" transform="translate(-1044.271 -310.072)" fill="#69039f"/>
        <g id="Grupo_86719" data-name="Grupo 86719" transform="translate(27.243 4.221)">
          <path id="Trazado_152276" data-name="Trazado 152276" d="M1095.434,323.324a2.634,2.634,0,0,1-2.522,2.2,1.861,1.861,0,0,1-1.884-2.2,2.635,2.635,0,0,1,2.522-2.2A1.861,1.861,0,0,1,1095.434,323.324Z" transform="translate(-1091.005 -321.121)" fill="#fff"/>
          <path id="Trazado_152277" data-name="Trazado 152277" d="M1119.593,323.324a2.635,2.635,0,0,1-2.522,2.2,1.861,1.861,0,0,1-1.884-2.2,2.634,2.634,0,0,1,2.521-2.2A1.861,1.861,0,0,1,1119.593,323.324Z" transform="translate(-1105.934 -321.121)" fill="#fff"/>
          <path id="Trazado_152278" data-name="Trazado 152278" d="M1143.751,323.324a2.634,2.634,0,0,1-2.522,2.2,1.861,1.861,0,0,1-1.884-2.2,2.634,2.634,0,0,1,2.522-2.2A1.861,1.861,0,0,1,1143.751,323.324Z" transform="translate(-1120.862 -321.121)" fill="#fff"/>
        </g>
      </g>
      <g id="Grupo_86721" data-name="Grupo 86721" transform="translate(964.026 219.946)">
        <path id="Trazado_152279" data-name="Trazado 152279" d="M1107.662,393.382l.22-1.568,8.757-3.229-.253,1.811-3.78,1.269-2.645.9-.011.075,2.395.9,3.424,1.269-.253,1.811Z" transform="translate(-1107.662 -385.543)" fill="#aa91c4"/>
        <path id="Trazado_152280" data-name="Trazado 152280" d="M1135.194,380.622h1.456l-6.621,16.238h-1.456Z" transform="translate(-1120.584 -380.622)" fill="#aa91c4"/>
        <path id="Trazado_152281" data-name="Trazado 152281" d="M1148.6,394.8l3.78-1.269,2.645-.9.01-.075-2.394-.9-3.425-1.269.253-1.811,7.854,3.229-.22,1.568-8.757,3.229Z" transform="translate(-1132.803 -385.543)" fill="#aa91c4"/>
      </g>
      <g id="Grupo_86722" data-name="Grupo 86722" transform="translate(956.253 283.646)">
        <path id="Trazado_152282" data-name="Trazado 152282" d="M1087.319,560.114l.219-1.568,8.758-3.229-.253,1.81-3.78,1.269-2.645.9-.01.075,2.394.9,3.425,1.269-.253,1.81Z" transform="translate(-1087.319 -552.274)" fill="#aa91c4"/>
        <path id="Trazado_152283" data-name="Trazado 152283" d="M1114.851,547.353h1.456l-6.621,16.239h-1.456Z" transform="translate(-1100.241 -547.353)" fill="#aa91c4"/>
        <path id="Trazado_152284" data-name="Trazado 152284" d="M1128.257,561.532l3.78-1.269,2.645-.9.011-.075-2.395-.9-3.425-1.269.253-1.81,7.854,3.229-.219,1.568L1128,563.343Z" transform="translate(-1112.46 -552.274)" fill="#aa91c4"/>
      </g>
      <line id="Línea_259" data-name="Línea 259" x2="59.198" transform="translate(1029.7 245.25)" fill="none" stroke="#ffce57" stroke-linecap="round" stroke-linejoin="round" stroke-width="3.583"/>
      <line id="Línea_260" data-name="Línea 260" x2="21.873" transform="translate(995.465 245.25)" fill="none" stroke="#ffce57" stroke-linecap="round" stroke-linejoin="round" stroke-width="3.583"/>
      <line id="Línea_261" data-name="Línea 261" x2="41.639" transform="translate(984.166 272.76)" fill="none" stroke="#9664f5" stroke-linecap="round" stroke-linejoin="round" stroke-width="3.583"/>
      <line id="Línea_262" data-name="Línea 262" x2="9.908" transform="translate(964.939 272.76)" fill="none" stroke="#9664f5" stroke-linecap="round" stroke-linejoin="round" stroke-width="3.385"/>
      <line id="Línea_263" data-name="Línea 263" x2="44.416" transform="translate(1040.681 272.76)" fill="none" stroke="#9664f5" stroke-linecap="round" stroke-linejoin="round" stroke-width="3.583"/>
      <line id="Línea_264" data-name="Línea 264" x2="23.518" transform="translate(1017.654 259.368)" fill="none" stroke="#ffce57" stroke-linecap="round" stroke-linejoin="round" stroke-width="3.583"/>
      <line id="Línea_265" data-name="Línea 265" x2="13.184" transform="translate(989.464 259.368)" fill="none" stroke="#ffce57" stroke-linecap="round" stroke-linejoin="round" stroke-width="3.583"/>
      <line id="Línea_266" data-name="Línea 266" x2="24.969" transform="translate(1061.953 259.368)" fill="none" stroke="#cfd6e6" stroke-linecap="round" stroke-linejoin="round" stroke-width="3.583"/>
      <line id="Línea_267" data-name="Línea 267" x2="23.476" transform="translate(961.582 245.25)" fill="none" stroke="#ffce57" stroke-linecap="round" stroke-linejoin="round" stroke-width="3.385"/>
      <circle id="Elipse_8346" data-name="Elipse 8346" cx="3.05" cy="3.05" r="3.05" transform="translate(906.126 211.835)" fill="none" stroke="#261936" stroke-linecap="round" stroke-linejoin="round" stroke-width="1.834"/>
      <circle id="Elipse_8347" data-name="Elipse 8347" cx="3.05" cy="3.05" r="3.05" transform="translate(1110.447 165.45)" fill="none" stroke="#261936" stroke-linecap="round" stroke-linejoin="round" stroke-width="1.834"/>
      <circle id="Elipse_8348" data-name="Elipse 8348" cx="3.05" cy="3.05" r="3.05" transform="translate(1047.914 335.092)" fill="none" stroke="#261936" stroke-linecap="round" stroke-linejoin="round" stroke-width="1.834"/>
      <g id="Grupo_86723" data-name="Grupo 86723" transform="translate(922.817 208.454)">
        <ellipse id="Elipse_8349" data-name="Elipse 8349" cx="13.246" cy="11.701" rx="13.246" ry="11.701" transform="matrix(0.729, -0.685, 0.685, 0.729, 0, 18.144)" fill="#ffce57"/>
        <path id="Trazado_152285" data-name="Trazado 152285" d="M1034.452,391.362l3.741,4.811,5.553-6.8" transform="translate(-1021.214 -374.535)" fill="none" stroke="#fff" stroke-linecap="round" stroke-linejoin="round" stroke-width="2.597"/>
      </g>
      <g id="Grupo_86724" data-name="Grupo 86724" transform="translate(1005.894 216.187)">
        <path id="Trazado_152286" data-name="Trazado 152286" d="M1221.193,372.74a2.421,2.421,0,0,1-2.292,1.958,1.608,1.608,0,0,1-1.624-1.958,2.42,2.42,0,0,1,2.292-1.958A1.608,1.608,0,0,1,1221.193,372.74Z" transform="translate(-1217.248 -370.782)" fill="#fff"/>
        <path id="Trazado_152287" data-name="Trazado 152287" d="M1242.667,372.74a2.42,2.42,0,0,1-2.292,1.958,1.607,1.607,0,0,1-1.623-1.958,2.419,2.419,0,0,1,2.292-1.958A1.607,1.607,0,0,1,1242.667,372.74Z" transform="translate(-1230.518 -370.782)" fill="#fff"/>
        <path id="Trazado_152288" data-name="Trazado 152288" d="M1264.142,372.74a2.421,2.421,0,0,1-2.292,1.958,1.608,1.608,0,0,1-1.624-1.958,2.42,2.42,0,0,1,2.292-1.958A1.607,1.607,0,0,1,1264.142,372.74Z" transform="translate(-1243.788 -370.782)" fill="#fff"/>
      </g>
      <path id="Trazado_152289" data-name="Trazado 152289" d="M1169.956,261.582H1065.373a7.831,7.831,0,0,1-7.808-7.808h0a7.831,7.831,0,0,1,7.808-7.808h104.583a7.831,7.831,0,0,1,7.808,7.808h0A7.831,7.831,0,0,1,1169.956,261.582Z" transform="translate(-112.679 -77.466)" fill="#d07efc"/>
      <g id="Grupo_86725" data-name="Grupo 86725" transform="translate(952.17 171.541)">
        <path id="Trazado_152290" data-name="Trazado 152290" d="M1084.159,257.55a4.189,4.189,0,0,1-4.129,3.623,3.267,3.267,0,0,1-3.38-3.623,4.189,4.189,0,0,1,4.128-3.624A3.268,3.268,0,0,1,1084.159,257.55Z" transform="translate(-1076.632 -253.926)" fill="none" stroke="#fff" stroke-linecap="round" stroke-linejoin="round" stroke-width="3.137"/>
        <line id="Línea_268" data-name="Línea 268" x1="4.237" y1="3.436" transform="translate(6.257 6.097)" fill="none" stroke="#fff" stroke-linecap="round" stroke-linejoin="round" stroke-width="3.137"/>
      </g>
    </g>
    <g id="Grupo_87364" data-name="Grupo 87364" transform="translate(-2840.054 -8394.481)">
      <g id="Grupo_87362" data-name="Grupo 87362" transform="translate(2365.825 412.481)">
        <path id="Trazado_153541" data-name="Trazado 153541" d="M2687.965,445.745s3.691,6.217,3.839,6.217,2.06-3.5,2.06-3.5l-3.58-4.254Z" transform="translate(-2673.921 -431.92)" fill="#c95836"/>
        <path id="Trazado_153542" data-name="Trazado 153542" d="M2782.719,442.392a2.086,2.086,0,0,1,.478-1.633c2.995-3.764-2.81-6.757-4.486-8.1-1.749-1.4.5-4.445-3.3-5.894s-5.13.517-5.311.449c-.266-.1.316,3.746.316,3.746s1.894.7,1.7,4.545-1.3,5.8.949,8.926,11.838-.385,11.838-.385C2783.34,443.967,2782.847,443.129,2782.719,442.392Z" transform="translate(-2724.203 -420.907)" fill="#221f14" fill-rule="evenodd"/>
        <path id="Trazado_153543" data-name="Trazado 153543" d="M2718.656,766.3c0,1.179,12.835,2.135,28.668,2.135s28.668-.956,28.668-2.135-12.835-2.135-28.668-2.135S2718.656,765.119,2718.656,766.3Z" transform="translate(-2692.725 -627.947)" fill="#f2f2f2" fill-rule="evenodd"/>
        <path id="Trazado_153544" data-name="Trazado 153544" d="M2742.368,647.109s3.88-25.941-1.13-36.205l2.736-35.191-16.4,1.131,11.053,70.469Z" transform="translate(-2698.187 -512.489)" fill="#e3633d" fill-rule="evenodd"/>
        <path id="Trazado_153545" data-name="Trazado 153545" d="M2743.96,757.41l-3.256,2.371a22.311,22.311,0,0,1-4.133,1.725h0c-.348.728.333,1.111.91,1.207l10.305-.216s2.379-.494.269-5.081C2746.18,758.244,2744.449,758.837,2743.96,757.41Z" transform="translate(-2703.643 -623.81)" fill="#221f14" fill-rule="evenodd"/>
        <path id="Trazado_153546" data-name="Trazado 153546" d="M2724.626,591.359l3.794,29.8,4.992,29.876h12s-1.121-5.194-.988-6.843.569-17.282-3.089-24.475l.29-29.292Z" transform="translate(-2696.382 -521.504)" fill="#d07efc" fill-rule="evenodd"/>
        <path id="Trazado_153547" data-name="Trazado 153547" d="M2759.1,619.719l.29-29.292-5.7.312-.213,21.45a47.555,47.555,0,0,0,1.493,11.961c1.947,7.8,1.631,18.683,1.522,20.043-.132,1.648.988,6.843.988,6.843h5.694s-1.121-5.194-.988-6.843S2762.754,626.912,2759.1,619.719Z" transform="translate(-2714.057 -521.504)" fill="#af4ae5" fill-rule="evenodd"/>
        <path id="Trazado_153548" data-name="Trazado 153548" d="M2797.079,667.383l15.184,28.18c2.948,1.068,3.134-.647,2.3-3.386-3.484-11.884-1.955-19.138-11.76-29.733Z" transform="translate(-2740.772 -565.626)" fill="#e3633d" fill-rule="evenodd"/>
        <path id="Trazado_153549" data-name="Trazado 153549" d="M2759.388,581.746l8.955,29.349a26.89,26.89,0,0,0,1.856,4.62l14.444,25.577,7.6-4.371c-1.9-12.237-4.2-18.135-12.533-29.922l-3.249-28.366-7.759.311Z" transform="translate(-2717.68 -514.277)" fill="#d07efc" fill-rule="evenodd"/>
        <path id="Trazado_153550" data-name="Trazado 153550" d="M2833.881,742.643l-.115,4.026a22.31,22.31,0,0,1-1.163,4.324h0c.363.72,1.083.416,1.511.018l6.131-8.286s1.064-2.185-3.856-3.32C2835.9,741.4,2835.309,743.129,2833.881,742.643Z" transform="translate(-2762.538 -612.779)" fill="#221f14" fill-rule="evenodd"/>
        <path id="Trazado_153551" data-name="Trazado 153551" d="M2684.787,437.682l-1.222-3.008a2.708,2.708,0,0,0-1.273-1.391l-2.338-1.2a1.311,1.311,0,0,0-1.9,1.017h0l1.75,3.693a4.083,4.083,0,0,0,2.023,1.915l1.523.693Z" transform="translate(-2667.848 -424.402)" fill="#c95836"/>
        <path id="Trazado_153552" data-name="Trazado 153552" d="M2748.779,530.689l-22.418,1.707c-3.646,1.339-2.19,22.362-2.19,22.362l14.74.683c6.848-.143,14.948,5.228,15.8-6.183C2755.686,536.215,2748.779,530.689,2748.779,530.689Z" transform="translate(-2695.928 -484.904)" fill="#d07efc" fill-rule="evenodd"/>
        <path id="Trazado_153553" data-name="Trazado 153553" d="M2772.819,571.623s-14.876,1.6-19.716-4.93l19.942-1.712A58.286,58.286,0,0,1,2772.819,571.623Z" transform="translate(-2713.83 -505.914)" fill="#af4ae5" fill-rule="evenodd"/>
        <path id="Trazado_153554" data-name="Trazado 153554" d="M2731.693,460.212l8.234-.963,2.258.089,5.322,1.856c2.889,1.43,5.408,6.952,4.3,9.993l-.019,8.792c2.231,7.407,3.383,12.6,3,20.224-12.166,4.517-28.889,4.3-32.728-1.285C2722.706,483.658,2725.769,470.032,2731.693,460.212Z" transform="translate(-2694.809 -441.135)" fill="#f4e1ff" fill-rule="evenodd"/>
        <path id="Trazado_153555" data-name="Trazado 153555" d="M2757.727,443.711s.432,3.24.789,5.925a1.992,1.992,0,0,0,1.228,1.589,1.96,1.96,0,0,0,1.972-.3l.527-.43a2.575,2.575,0,0,0,.869-2.594c-.592-2.464-1.668-6.952-1.668-6.952l-3.716,2.766Z" transform="translate(-2716.663 -429.921)" fill="#c95836" fill-rule="evenodd"/>
        <path id="Trazado_153556" data-name="Trazado 153556" d="M2757.952,452.69l.407,1.924,1.609-1.924Z" transform="translate(-2716.8 -437.116)" fill="#873b24" fill-rule="evenodd"/>
        <path id="Trazado_153557" data-name="Trazado 153557" d="M2755.346,458.823s-2.7,6.678,1.886,6.971,7.093-6.648,7.093-6.648l-3.348-1.487Z" transform="translate(-2714.72 -440.161)" fill="#c95836"/>
        <path id="Trazado_153558" data-name="Trazado 153558" d="M2759.376,433.8a1.734,1.734,0,0,0-1.071-2.2l-3.123-1.066a1.828,1.828,0,0,0-2.178,1.089,18.768,18.768,0,0,0-1.322,4.939,2.1,2.1,0,0,0,1.191,2.315c.958.327,4.139.383,5-1.255a25.165,25.165,0,0,0,1.5-3.824Z" transform="translate(-2712.946 -423.492)" fill="#c95836" fill-rule="evenodd"/>
        <path id="Trazado_153559" data-name="Trazado 153559" d="M2765.359,436.179s-.023-4.917-1.2-6.517c-1.578-2.149-3.948-3.584-7.116-1.714,0,0,1.121,3.986,7.115,8.081Z" transform="translate(-2716.245 -421.427)" fill="#221f14" fill-rule="evenodd"/>
        <path id="Trazado_153560" data-name="Trazado 153560" d="M2767.574,446.014a1.3,1.3,0,0,1-1.793.377,1.33,1.33,0,0,1-.026-1.85,1.3,1.3,0,0,1,1.793-.378A1.33,1.33,0,0,1,2767.574,446.014Z" transform="translate(-2721.361 -431.757)" fill="#c95836" fill-rule="evenodd"/>
        <path id="Trazado_153561" data-name="Trazado 153561" d="M2689.758,451.527l4.449-3.353,5.231,6.466,12.555-1.176a4.7,4.7,0,0,1,2.241.393c.9.5-7.748,8.542-7.748,8.542l-5.882.993s-2.373.09-5.449-4.12S2689.758,451.527,2689.758,451.527Z" transform="translate(-2675.02 -434.349)" fill="#f4e1ff" fill-rule="evenodd"/>
        <line id="Línea_288" data-name="Línea 288" y1="4.833" x2="1.948" transform="translate(31.556 26.626)" fill="none" stroke="#8b939c" stroke-linecap="round" stroke-linejoin="round" stroke-width="0.978"/>
        <path id="Trazado_153562" data-name="Trazado 153562" d="M2770.547,428.98s2.085-.128,2.508,2.816" transform="translate(-2724.517 -422.589)" fill="none" stroke="#8b939c" stroke-linecap="round" stroke-linejoin="round" stroke-width="0.978" fill-rule="evenodd"/>
        <g id="Grupo_87361" data-name="Grupo 87361" transform="translate(0)">
          <rect id="Rectángulo_8085" data-name="Rectángulo 8085" width="11.882" height="5.272" transform="matrix(0.985, 0.171, -0.171, 0.985, 25.175, 6.643)" fill="#3e537a"/>
          <path id="Trazado_153563" data-name="Trazado 153563" d="M2744.624,437.753c-.249,1.434-1.263,2.456-2.267,2.283s-1.615-1.478-1.367-2.912,1.264-2.456,2.267-2.282S2744.872,436.319,2744.624,437.753Z" transform="translate(-2706.374 -426.169)" fill="#3e537a"/>
          <rect id="Rectángulo_8086" data-name="Rectángulo 8086" width="19.934" height="8.844" transform="translate(7.526 1.771) rotate(9.834)" fill="#4f6a9c"/>
          <path id="Trazado_153564" data-name="Trazado 153564" d="M2717.976,430.677c-.417,2.406-2.12,4.121-3.8,3.829s-2.709-2.479-2.292-4.885,2.12-4.12,3.8-3.829S2718.393,428.271,2717.976,430.677Z" transform="translate(-2688.517 -420.617)" fill="#4f6a9c"/>
          <rect id="Rectángulo_8087" data-name="Rectángulo 8087" width="12.501" height="11.395" transform="translate(5.019 0.042) rotate(9.834)" fill="#5978b0"/>
          <path id="Trazado_153565" data-name="Trazado 153565" d="M2659.679,418.818c-.537,3.1-2.731,5.309-4.9,4.933s-3.491-3.194-2.953-6.294,2.731-5.309,4.9-4.933S2660.217,415.717,2659.679,418.818Z" transform="translate(-2651.707 -412.481)" fill="#6588c7"/>
          <path id="Trazado_153566" data-name="Trazado 153566" d="M2659.761,420.849c-.354,2.043-1.8,3.5-3.229,3.251s-2.3-2.1-1.946-4.148,1.8-3.5,3.229-3.251S2660.115,418.806,2659.761,420.849Z" transform="translate(-2653.422 -415.05)" fill="#506c9e"/>
          <path id="Trazado_153567" data-name="Trazado 153567" d="M2691.48,424.33c-.538,3.1-2.731,5.309-4.9,4.933s-3.491-3.194-2.953-6.294,2.731-5.309,4.9-4.933S2692.017,421.23,2691.48,424.33Z" transform="translate(-2671.19 -415.859)" fill="#5978b0"/>
        </g>
        <path id="Trazado_153568" data-name="Trazado 153568" d="M2729.775,470.319a5.827,5.827,0,0,1-8.118-1.342l-8.064-15.942,3.708-.321,7.91,10.854Z" transform="translate(-2689.623 -437.13)" fill="#c95836" fill-rule="evenodd"/>
        <path id="Trazado_153569" data-name="Trazado 153569" d="M2710.319,447.865l-2.376-2.224a2.718,2.718,0,0,0-1.744-.73l-2.631-.109a1.314,1.314,0,0,0-1.3,1.724h0l3.144,2.626a4.092,4.092,0,0,0,2.646.892l1.677-.01Z" transform="translate(-2682.642 -432.283)" fill="#c95836"/>
        <path id="Trazado_153570" data-name="Trazado 153570" d="M2717.145,459.44l4.217-3.467,7.13,9.58c2.693.892,12.475-6.072,13.477-6.2,1.906-.243,6.217,2.58,4.608,5.417s-5.174,7.539-5.174,7.539l-12.66,2.3s-3.947.3-6.381-4.7S2717.145,459.44,2717.145,459.44Z" transform="translate(-2691.799 -439.128)" fill="#f4e1ff" fill-rule="evenodd"/>
        <path id="Trazado_153571" data-name="Trazado 153571" d="M2731.526,491.2s2.019,4.309,6.028,4.027,16.791-5.608,16.791-5.608" transform="translate(-2700.61 -459.742)" fill="none" stroke="#8b939c" stroke-linecap="round" stroke-linejoin="round" stroke-width="1.039" fill-rule="evenodd"/>
        <line id="Línea_289" data-name="Línea 289" x2="3.859" y2="5.314" transform="translate(32.53 20.703)" fill="none" stroke="#8b939c" stroke-linecap="round" stroke-linejoin="round" stroke-width="1.039"/>
      </g>
      <g id="Grupo_87363" data-name="Grupo 87363" transform="translate(2185.092 475.022)">
        <path id="Trazado_153572" data-name="Trazado 153572" d="M2241.542,595.506s-4.5.146-5.023-4.1,4.3-4.887,4.3-4.887Z" transform="translate(-2216.576 -581.65)" fill="#4a2a1a" fill-rule="evenodd"/>
        <ellipse id="Elipse_8402" data-name="Elipse 8402" cx="34.159" cy="5.814" rx="34.159" ry="5.814" transform="translate(0 69.8)" fill="#f2f2f2"/>
        <path id="Trazado_153573" data-name="Trazado 153573" d="M2287.413,648.754c2.189.06,4.832-.729,5.526-2.77-1.482-5.373-4.747-11.847-9.206-19.058-2.168-3.831-6.133-5.837-8.333-4.216h0c-.866.638-.764,2.3.229,3.737l12.5,23.668Z" transform="translate(-2240.062 -603.476)" fill="#c95836" fill-rule="evenodd"/>
        <path id="Trazado_153574" data-name="Trazado 153574" d="M2235.8,617.979l-5.944-2.028-8.043-.547-10.223,3.565a7.515,7.515,0,0,0-3.725,9.327l-1.155,7.626c-2.407,15.327-1.154,23.735.088,28.173,14.5,5.383,34.421,5.119,39-1.531C2240.6,649.375,2238.2,636.747,2235.8,617.979Z" transform="translate(-2197.499 -599.346)" fill="#bdcce6" fill-rule="evenodd"/>
        <path id="Trazado_153575" data-name="Trazado 153575" d="M2252.364,596.6s.28,3.885.512,7.1a2.374,2.374,0,0,1-1.048,2.15,2.334,2.334,0,0,1-2.375.123l-.719-.375a3.069,3.069,0,0,1-1.642-2.815c.094-3.018.265-8.514.265-8.514l5.005,2.327Z" transform="translate(-2223.078 -586.399)" fill="#c95836" fill-rule="evenodd"/>
        <path id="Trazado_153576" data-name="Trazado 153576" d="M2251.709,614.623s1.856,4.832-3.606,5.181-7.093-4.8-7.093-4.8l3.99-1.772Z" transform="translate(-2219.352 -598.018)" fill="#c95836"/>
        <path id="Trazado_153577" data-name="Trazado 153577" d="M2214.949,653.465l1.588-17.509c.424-4.808-2.349-8.271-5.829-7.277h0c-1.371.392-3.057,5.1-3.024,6.961L2207,653.817Z" transform="translate(-2198.514 -607.375)" fill="#c95836" fill-rule="evenodd"/>
        <path id="Trazado_153578" data-name="Trazado 153578" d="M2250.311,675.231l3.852-.447a3.235,3.235,0,0,1,2.188.535l2.6,1.759a1.565,1.565,0,0,1,.027,2.574h0l-4.872.289a4.876,4.876,0,0,1-3.167-1.019l-1.6-1.2Z" transform="translate(-2224.453 -635.714)" fill="#c95836"/>
        <path id="Trazado_153579" data-name="Trazado 153579" d="M2234.775,767.307s-10.288-.64-9.619-4.493,11.373-.659,11.373-.659Z" transform="translate(-2209.619 -688.496)" fill="#221f14" fill-rule="evenodd"/>
        <path id="Trazado_153580" data-name="Trazado 153580" d="M2259.25,707.678s16.1-11.667,21.623,1.878c4.728,11.6-28.808,20.266-38.518,22.511a3.3,3.3,0,0,1-3.715-1.789l-3.991-8.322Z" transform="translate(-2215.454 -653.019)" fill="#7ff9ff" fill-rule="evenodd"/>
        <path id="Trazado_153581" data-name="Trazado 153581" d="M2205.8,728.585s-20.316-6.943-14.343-20.293c3.008-6.723,13.816-.243,24.39,4.961,10.422,5.129,20.635,8.936,20.635,8.936l-3.262,8.656a3.128,3.128,0,0,1-3.471,1.98Z" transform="translate(-2188.32 -654.493)" fill="#7ff9ff" fill-rule="evenodd"/>
        <path id="Trazado_153582" data-name="Trazado 153582" d="M2296.676,761.411s10.245,1.145,9.389,4.96-11.391.1-11.391.1Z" transform="translate(-2252.229 -688.801)" fill="#221f14" fill-rule="evenodd"/>
        <path id="Trazado_153583" data-name="Trazado 153583" d="M2207,682.9c.013,3.658,4.507,5.482,7.509,4.62l12.536-8.158-2.672-3.386-11.3,4.249Z" transform="translate(-2198.514 -636.457)" fill="#c95836" fill-rule="evenodd"/>
        <path id="Trazado_153584" data-name="Trazado 153584" d="M2300.638,679.2c.843,2.921,1.09,6.4-2.254,6.875a5.261,5.261,0,0,1-3.648-.9l-7.357-4.929,1.906-3.89,7.117,1.537Z" transform="translate(-2247.76 -636.693)" fill="#c95836" fill-rule="evenodd"/>
        <path id="Trazado_153585" data-name="Trazado 153585" d="M2281.82,741.824l.762-2.473s-11.611-5.572-12.862-7.271" transform="translate(-2236.941 -670.831)" fill="none" stroke="#4ac1c7" stroke-linecap="round" stroke-linejoin="round" stroke-width="1.149" fill-rule="evenodd"/>
        <path id="Trazado_153586" data-name="Trazado 153586" d="M2255.447,769.605s-10.833-1.822-12.243-2.071" transform="translate(-2220.696 -692.553)" fill="none" stroke="#4ac1c7" stroke-linecap="round" stroke-linejoin="round" stroke-width="1.149" fill-rule="evenodd"/>
        <path id="Trazado_153587" data-name="Trazado 153587" d="M2258.769,580.495a2.821,2.821,0,0,1,2.326,3.217c-.276,2.813-2.451,2.367-2.451,2.367Z" transform="translate(-2230.155 -577.959)" fill="#4a2a1a" fill-rule="evenodd"/>
        <path id="Trazado_153588" data-name="Trazado 153588" d="M2242.112,585.488a1.957,1.957,0,0,1,1.25-2.469l3.575-1.172a2.083,2.083,0,0,1,2.469,1.25,20.943,20.943,0,0,1,1.442,5.584,2.372,2.372,0,0,1-1.389,2.6c-1.1.359-4.724.392-5.683-1.464a28.128,28.128,0,0,1-1.664-4.329Z" transform="translate(-2219.967 -578.731)" fill="#c95836" fill-rule="evenodd"/>
        <path id="Trazado_153589" data-name="Trazado 153589" d="M2236.808,586.559s-1.221-3.993.138-5.786c1.827-2.41,4.549-4,8.136-1.865a.9.9,0,0,1,.011.8c-.575,1.284-6.041.887-5.045,5.605.226,1.073-2.024,1-3.24,1.248Z" transform="translate(-2216.468 -576.372)" fill="#4a2a1a" fill-rule="evenodd"/>
        <path id="Trazado_153590" data-name="Trazado 153590" d="M2242.147,599.206a1.355,1.355,0,1,0,.055-2.087A1.489,1.489,0,0,0,2242.147,599.206Z" transform="translate(-2219.806 -587.995)" fill="#c95836" fill-rule="evenodd"/>
        <path id="Trazado_153591" data-name="Trazado 153591" d="M2258.743,599.338l-1.8.549s.408,1.215,1.241.849S2258.743,599.338,2258.743,599.338Z" transform="translate(-2229.116 -589.504)" fill="#fff" fill-rule="evenodd"/>
        <path id="Trazado_153592" data-name="Trazado 153592" d="M2254.514,575.983c.2,1.373-1.205,2.711-3.133,2.987s-3.65-.612-3.847-1.985,1.206-2.711,3.133-2.987S2254.317,574.61,2254.514,575.983Z" transform="translate(-2223.337 -573.948)" fill="#4a2a1a" fill-rule="evenodd"/>
        <ellipse id="Elipse_8403" data-name="Elipse 8403" cx="3.526" cy="2.512" rx="3.526" ry="2.512" transform="translate(20.63 3.003) rotate(-8.169)" fill="#4a2a1a"/>
        <path id="Trazado_153593" data-name="Trazado 153593" d="M2257.528,606.392l.083,1.765-2.382-1.726Z" transform="translate(-2228.063 -593.825)" fill="#873b24" fill-rule="evenodd"/>
        <path id="Trazado_153594" data-name="Trazado 153594" d="M2208.154,626.914s-3.921,2.616-4.935,12.487l-.676,4.329,11.749.269s2.17-16.067-1.269-17.085S2208.154,626.914,2208.154,626.914Z" transform="translate(-2195.783 -606.122)" fill="#bdcce6" fill-rule="evenodd"/>
        <path id="Trazado_153595" data-name="Trazado 153595" d="M2282.094,622.053s5.037,1.209,10.514,12.484c0,0-3.3,6.626-6.282,6.153,0,0-5.182-6.9-5.4-6.9S2282.094,622.053,2282.094,622.053Z" transform="translate(-2243.793 -603.42)" fill="#bdcce6" fill-rule="evenodd"/>
        <path id="Trazado_153596" data-name="Trazado 153596" d="M2270.815,675.774l2.739.022a2.88,2.88,0,0,0,2.618-1.826l2.532-7.817a1.371,1.371,0,0,0-1.425-1.858l-2.739-.022a2.881,2.881,0,0,0-2.618,1.826l-2.532,7.817A1.37,1.37,0,0,0,2270.815,675.774Z" transform="translate(-2236.687 -629.287)" fill="#221f14" fill-rule="evenodd"/>
        <path id="Trazado_153597" data-name="Trazado 153597" d="M2283.29,677.266a1.415,1.415,0,0,0,1.655-.7c.728-1.408,1.755-4.017.1-5.153-2.328-1.6-4.391,2.475-4.039,4.1C2281.212,676.478,2282.38,677,2283.29,677.266Z" transform="translate(-2243.83 -633.437)" fill="#c95836" fill-rule="evenodd"/>
      </g>
    </g>
  </g>
</svg>
