<svg xmlns="http://www.w3.org/2000/svg" width="457" height="313.108" viewBox="0 0 457 313.108">
  <g id="Grupo_87390" data-name="Grupo 87390" transform="translate(-284 -5248)">
    <path id="Trazado_152266" data-name="Trazado 152266" d="M2318.534,463.884c-40.282,19.649-88.791-2.189-101.065-45.294-10.7-37.582-11.856-81.81,11.929-132.831,51.807-111.123,170.193-21.27,196.016-62.491,0,0,51.971-86.722,135.586-22.021s9.742,254.913-137.76,246.847C2374.511,445.429,2341.241,452.807,2318.534,463.884Z" transform="translate(-1855.058 5089.95)" fill="#befcff"/>
    <g id="Grupo_86715" data-name="Grupo 86715" transform="translate(-51 424.292)">
      <g id="Grupo_86712" data-name="Grupo 86712" transform="translate(336 4824.708)">
        <path id="Trazado_152197" data-name="Trazado 152197" d="M290.774,283.916h0c-6.371-.021-9.442-7.84-4.868-12.393h0a13.373,13.373,0,0,0,.285-18.723l-2.584-2.669a12.932,12.932,0,0,0-18.467-.059h0a7.086,7.086,0,0,1-12.129-5.166h0a12.961,12.961,0,0,0-12.856-13.281l-3.711-.012a13.343,13.343,0,0,0-13.259,13.2h0c-.1,6.459-7.85,9.67-12.285,5.088h0a12.93,12.93,0,0,0-18.466-.059l-2.665,2.653a13.374,13.374,0,0,0-.284,18.723,7.319,7.319,0,0,1-5.245,12.361h0a13.343,13.343,0,0,0-13.259,13.2l-.057,3.763A12.961,12.961,0,0,0,183.78,313.82h0c6.371.02,9.443,7.84,4.868,12.394h0a13.374,13.374,0,0,0-.285,18.724l2.584,2.669a12.93,12.93,0,0,0,18.465.059,7.086,7.086,0,0,1,12.129,5.165A12.961,12.961,0,0,0,234.4,366.112l3.712.012a13.344,13.344,0,0,0,13.259-13.2h0c.1-6.459,7.85-9.67,12.285-5.088h0a12.932,12.932,0,0,0,18.467.059l2.664-2.652a13.374,13.374,0,0,0,.285-18.724h0a7.319,7.319,0,0,1,5.244-12.361h0a13.343,13.343,0,0,0,13.259-13.2l.057-3.764A12.96,12.96,0,0,0,290.774,283.916Zm-53.5,58.884a43.932,43.932,0,1,1,43.932-43.932A43.933,43.933,0,0,1,237.277,342.8Z" transform="translate(-162.357 -225.67)" fill="#e3e3e3"/>
        <path id="Trazado_152198" data-name="Trazado 152198" d="M518.79,542.035H272.277l.855-175.813H519.645Z" transform="translate(-209.163 -287.833)" fill="#d8fdff"/>
        <rect id="Rectángulo_7840" data-name="Rectángulo 7840" width="72.102" height="143.613" rx="4" transform="translate(79.523 98.8)" fill="#bdcce6"/>
        <rect id="Rectángulo_7841" data-name="Rectángulo 7841" width="134.831" height="143.613" rx="5" transform="translate(160.368 98.8)" fill="#bdcce6"/>
        <path id="Trazado_152199" data-name="Trazado 152199" d="M520.312,358.366H273.8l.123-25.21H520.435Z" transform="translate(-209.866 -272.563)" fill="#856de9"/>
        <g id="Grupo_86706" data-name="Grupo 86706" transform="translate(163.507 65.393)">
          <rect id="Rectángulo_7842" data-name="Rectángulo 7842" width="129.208" height="13.692" rx="6.846" fill="#bdcce6"/>
          <g id="Grupo_86705" data-name="Grupo 86705" transform="translate(8.97 3.141)">
            <path id="Trazado_152200" data-name="Trazado 152200" d="M481.174,350.728a2.791,2.791,0,0,1-2.813,2.816,2.874,2.874,0,0,1-2.882-2.816,2.791,2.791,0,0,1,2.813-2.817A2.874,2.874,0,0,1,481.174,350.728Z" transform="translate(-475.48 -347.911)" fill="none" stroke="#fff" stroke-linecap="round" stroke-linejoin="round" stroke-width="1.689"/>
            <line id="Línea_250" data-name="Línea 250" x1="3.515" y1="2.671" transform="translate(4.948 4.74)" fill="none" stroke="#fff" stroke-linecap="round" stroke-linejoin="round" stroke-width="1.689"/>
          </g>
        </g>
        <ellipse id="Elipse_8336" data-name="Elipse 8336" cx="115.773" cy="6.089" rx="115.773" ry="6.089" transform="translate(72.106 289.184)" fill="#f2f2f2"/>
        <g id="Grupo_86707" data-name="Grupo 86707" transform="translate(236.37 121.501)">
          <path id="Trazado_152201" data-name="Trazado 152201" d="M634.566,486.184l-32.792-.226a7.636,7.636,0,0,1-7.575-7.751l.39-24.236a7.808,7.808,0,0,1,7.823-7.645l32.792.225a7.637,7.637,0,0,1,7.575,7.752l-.391,24.235A7.808,7.808,0,0,1,634.566,486.184Z" transform="translate(-594.199 -446.327)" fill="#7896c9"/>
          <path id="Trazado_152202" data-name="Trazado 152202" d="M642.373,498.634l-6.146-5.078a10.493,10.493,0,0,0-13.939.571l-5.344,5.122-7.029-8.109a6.284,6.284,0,0,0-9.356-.109l-6.358,6.854v.028a7.636,7.636,0,0,0,7.575,7.751l32.792.226A7.811,7.811,0,0,0,642.373,498.634Z" transform="translate(-594.199 -466.032)" fill="#4669a3"/>
          <path id="Trazado_152203" data-name="Trazado 152203" d="M624.952,461.224a4,4,0,0,1-4.02,3.929,3.913,3.913,0,0,1-3.893-3.984,4,4,0,0,1,4.02-3.929A3.913,3.913,0,0,1,624.952,461.224Z" transform="translate(-604.747 -451.367)" fill="#fff"/>
        </g>
        <path id="Trazado_152204" data-name="Trazado 152204" d="M276.862,768.126c0,2.1-14.463,3.8-32.305,3.8s-32.305-1.7-32.305-3.8,14.463-3.8,32.305-3.8S276.862,766.028,276.862,768.126Z" transform="translate(-181.443 -471.68)" fill="#f2f2f2"/>
        <path id="Trazado_152205" data-name="Trazado 152205" d="M521.066,450.378h-48.95a4.358,4.358,0,0,1-4.345-4.345h0a4.358,4.358,0,0,1,4.345-4.345h48.95a4.358,4.358,0,0,1,4.345,4.345h0A4.358,4.358,0,0,1,521.066,450.378Z" transform="translate(-299.443 -322.683)" fill="#9bb0d4" fill-rule="evenodd"/>
        <path id="Trazado_152206" data-name="Trazado 152206" d="M366.942,450.378h-48.95a4.358,4.358,0,0,1-4.346-4.345h0a4.358,4.358,0,0,1,4.346-4.345h48.95a4.358,4.358,0,0,1,4.345,4.345h0A4.358,4.358,0,0,1,366.942,450.378Z" transform="translate(-228.268 -322.683)" fill="#9bb0d4" fill-rule="evenodd"/>
        <path id="Trazado_152207" data-name="Trazado 152207" d="M524.068,492.327H469.113a1.347,1.347,0,0,1-1.343-1.343h0a1.346,1.346,0,0,1,1.343-1.343h54.956a1.347,1.347,0,0,1,1.343,1.343h0A1.347,1.347,0,0,1,524.068,492.327Z" transform="translate(-299.443 -344.829)" fill="#9bb0d4" fill-rule="evenodd"/>
        <path id="Trazado_152208" data-name="Trazado 152208" d="M372.5,492.327H317.545a1.347,1.347,0,0,1-1.343-1.343h0a1.346,1.346,0,0,1,1.343-1.343H372.5a1.346,1.346,0,0,1,1.343,1.343h0A1.347,1.347,0,0,1,372.5,492.327Z" transform="translate(-229.448 -344.829)" fill="#9bb0d4" fill-rule="evenodd"/>
        <path id="Trazado_152209" data-name="Trazado 152209" d="M372.5,530.948H317.545A1.347,1.347,0,0,1,316.2,529.6h0a1.346,1.346,0,0,1,1.343-1.343H372.5a1.346,1.346,0,0,1,1.343,1.343h0A1.347,1.347,0,0,1,372.5,530.948Z" transform="translate(-229.448 -362.664)" fill="#9bb0d4" fill-rule="evenodd"/>
        <path id="Trazado_152210" data-name="Trazado 152210" d="M372.5,569.568H317.545a1.347,1.347,0,0,1-1.343-1.343h0a1.347,1.347,0,0,1,1.343-1.343H372.5a1.347,1.347,0,0,1,1.343,1.343h0A1.347,1.347,0,0,1,372.5,569.568Z" transform="translate(-229.448 -380.499)" fill="#9bb0d4" fill-rule="evenodd"/>
        <path id="Trazado_152211" data-name="Trazado 152211" d="M372.5,608.19H317.545a1.347,1.347,0,0,1-1.343-1.343h0a1.346,1.346,0,0,1,1.343-1.342H372.5a1.346,1.346,0,0,1,1.343,1.342h0A1.347,1.347,0,0,1,372.5,608.19Z" transform="translate(-229.448 -398.335)" fill="#9bb0d4" fill-rule="evenodd"/>
        <path id="Trazado_152212" data-name="Trazado 152212" d="M631.926,637.792H576.971a1.347,1.347,0,0,1-1.343-1.343h0a1.347,1.347,0,0,1,1.343-1.343h54.956a1.347,1.347,0,0,1,1.343,1.343h0A1.347,1.347,0,0,1,631.926,637.792Z" transform="translate(-349.253 -412.005)" fill="#9bb0d4" fill-rule="evenodd"/>
        <path id="Trazado_152213" data-name="Trazado 152213" d="M524.068,528.452H469.113a1.347,1.347,0,0,1-1.343-1.343h0a1.347,1.347,0,0,1,1.343-1.343h54.956a1.347,1.347,0,0,1,1.343,1.343h0A1.347,1.347,0,0,1,524.068,528.452Z" transform="translate(-299.443 -361.511)" fill="#9bb0d4" fill-rule="evenodd"/>
        <path id="Trazado_152214" data-name="Trazado 152214" d="M582.524,564.578H469.113a1.346,1.346,0,0,1-1.343-1.342h0a1.347,1.347,0,0,1,1.343-1.343H582.524a1.347,1.347,0,0,1,1.343,1.343h0A1.346,1.346,0,0,1,582.524,564.578Z" transform="translate(-299.443 -378.195)" fill="#9bb0d4" fill-rule="evenodd"/>
        <path id="Trazado_152215" data-name="Trazado 152215" d="M582.524,600.7H469.113a1.346,1.346,0,0,1-1.343-1.343h0a1.347,1.347,0,0,1,1.343-1.343H582.524a1.347,1.347,0,0,1,1.343,1.343h0A1.346,1.346,0,0,1,582.524,600.7Z" transform="translate(-299.443 -394.878)" fill="#9bb0d4" fill-rule="evenodd"/>
        <circle id="Elipse_8337" data-name="Elipse 8337" cx="3.103" cy="3.103" r="3.103" transform="translate(331.112 75.286)" fill="none" stroke="#1e170f" stroke-linecap="round" stroke-linejoin="round" stroke-width="2"/>
        <circle id="Elipse_8338" data-name="Elipse 8338" cx="3.103" cy="3.103" r="3.103" transform="translate(31.117 0)" fill="none" stroke="#1e170f" stroke-linecap="round" stroke-linejoin="round" stroke-width="2"/>
        <circle id="Elipse_8339" data-name="Elipse 8339" cx="3.103" cy="3.103" r="3.103" transform="translate(0 257.845)" fill="none" stroke="#1e170f" stroke-linecap="round" stroke-linejoin="round" stroke-width="2"/>
        <g id="Grupo_86708" data-name="Grupo 86708" transform="translate(142.327 225.065)">
          <path id="Trazado_152216" data-name="Trazado 152216" d="M486.609,703.294l-24.754-61.072c-1.838-4.535-6.869-4.644-8.831-.19l-27.813,63.146Z" transform="translate(-422.116 -638.756)" fill="#d07efc"/>
          <path id="Trazado_152217" data-name="Trazado 152217" d="M486.382,682.289l-30.917-.052,5.775-13.111,19.821.034Z" transform="translate(-436.088 -652.781)" fill="#efefef"/>
          <path id="Trazado_152218" data-name="Trazado 152218" d="M487.134,732.279l-53.671-.091,5.775-13.111,42.575.072Z" transform="translate(-425.927 -675.849)" fill="#efefef"/>
          <rect id="Rectángulo_7843" data-name="Rectángulo 7843" width="67.807" height="10.602" rx="5.301" transform="translate(67.807 73.406) rotate(-179.903)" fill="#9b43cb"/>
        </g>
        <g id="Grupo_86709" data-name="Grupo 86709" transform="translate(61.427 59.989)">
          <path id="Trazado_152221" data-name="Trazado 152221" d="M354.244,332.545,270.93,422.432l-1.786-23.942,61.771-66.456Z" transform="translate(-269.143 -332.033)" fill="#d07efc"/>
          <path id="Trazado_152222" data-name="Trazado 152222" d="M302.721,436.55l9.394-10.12-4.349-20.993-9.394,10.12Z" transform="translate(-282.641 -365.932)" fill="#efefef"/>
          <path id="Trazado_152223" data-name="Trazado 152223" d="M347.788,388l9.394-10.12-4.349-20.993-9.394,10.12Z" transform="translate(-303.453 -343.511)" fill="#efefef"/>
          <path id="Trazado_152224" data-name="Trazado 152224" d="M393.37,350.45l9.394-10.12-1.64-7.92-11.5-.252Z" transform="translate(-324.779 -332.091)" fill="#efefef"/>
          <path id="Trazado_152225" data-name="Trazado 152225" d="M270.93,478.671l3.433-3.771-4.369-21.086-.85.915Z" transform="translate(-269.143 -388.272)" fill="#efefef"/>
          <path id="Trazado_152226" data-name="Trazado 152226" d="M302.721,436.55l9.394-10.12-4.349-20.993-9.394,10.12Z" transform="translate(-282.641 -365.932)" fill="#efefef"/>
          <path id="Trazado_152227" data-name="Trazado 152227" d="M347.788,388l9.394-10.12-4.349-20.993-9.394,10.12Z" transform="translate(-303.453 -343.511)" fill="#efefef"/>
          <path id="Trazado_152228" data-name="Trazado 152228" d="M393.37,350.45l9.394-10.12-1.64-7.92-11.5-.252Z" transform="translate(-324.779 -332.091)" fill="#efefef"/>
        </g>
        <g id="Grupo_86710" data-name="Grupo 86710" transform="translate(53.277 156.819)">
          <line id="Línea_251" data-name="Línea 251" y1="146.66" x2="17.05" transform="translate(26.668 0)" fill="none" stroke="#21243b" stroke-linecap="round" stroke-linejoin="round" stroke-width="3.748"/>
          <line id="Línea_252" data-name="Línea 252" y1="146.66" x2="17.05" transform="translate(0 0)" fill="none" stroke="#21243b" stroke-linecap="round" stroke-linejoin="round" stroke-width="3.748"/>
          <line id="Línea_253" data-name="Línea 253" x1="26.52" transform="translate(2.1 131.064)" fill="none" stroke="#21243b" stroke-linecap="round" stroke-linejoin="round" stroke-width="3.748"/>
          <line id="Línea_254" data-name="Línea 254" x1="26.52" transform="translate(5.012 102.547)" fill="none" stroke="#21243b" stroke-linecap="round" stroke-linejoin="round" stroke-width="3.748"/>
          <line id="Línea_255" data-name="Línea 255" x1="26.52" transform="translate(8.53 74.029)" fill="none" stroke="#21243b" stroke-linecap="round" stroke-linejoin="round" stroke-width="3.748"/>
          <line id="Línea_256" data-name="Línea 256" x1="26.52" transform="translate(11.791 45.511)" fill="none" stroke="#21243b" stroke-linecap="round" stroke-linejoin="round" stroke-width="3.748"/>
          <line id="Línea_257" data-name="Línea 257" x1="26.52" transform="translate(14.97 16.993)" fill="none" stroke="#21243b" stroke-linecap="round" stroke-linejoin="round" stroke-width="3.748"/>
        </g>
        <g id="Grupo_86711" data-name="Grupo 86711" transform="translate(220.963 148.552)">
          <ellipse id="Elipse_8340" data-name="Elipse 8340" cx="89.518" cy="9.351" rx="89.518" ry="9.351" transform="translate(0 136.369)" fill="#f2f2f2"/>
          <path id="Trazado_152229" data-name="Trazado 152229" d="M649.071,548.527s-48.943,28.274-39.232,67.4c3.811,15.359,23.269,24.524,45.472,27.1s55.38.45,61.043.536c10.138.153,58.253-14.14,24.553-105-4.864-13.114-11.479-37.514-34.072-40.457S675.032,532,649.071,548.527Z" transform="translate(-585.426 -497.219)" fill="#ffce57"/>
          <path id="Trazado_152230" data-name="Trazado 152230" d="M742.714,540.076c-4.528-12.208-10.581-34.189-29.623-39.541,50.686,79.191,17.77,134.246-16,125.9-5.5-1.358-38.839,2.043-61.042-.536a88.8,88.8,0,0,1-23.577-5.844c5.268,13.781,23.735,22.051,44.642,24.479,22.2,2.578,55.38.45,61.043.535C728.3,645.226,776.414,630.933,742.714,540.076Z" transform="translate(-587.232 -498.412)" fill="#ffc436"/>
          <path id="Trazado_152231" data-name="Trazado 152231" d="M764.938,506.928s5.05,9.448,2,14.911-7.489-11.671-7.489-11.671Z" transform="translate(-655.104 -501.364)" fill="#e3cbbb" fill-rule="evenodd"/>
          <path id="Trazado_152232" data-name="Trazado 152232" d="M745.09,518.781s10.374-.726,10.378-9.021-5.93-9.217-5.93-9.217l-6.432,12.674Z" transform="translate(-647.558 -498.415)" fill="#e3cbbb" fill-rule="evenodd"/>
          <path id="Trazado_152233" data-name="Trazado 152233" d="M747.683,663.365l-42.377-1.028L705,651.464l28.575-14.486,16.674-3.475,5.216-2.481C763.1,640.63,759.437,663.3,747.683,663.365Z" transform="translate(-629.959 -558.672)" fill="#c95836" fill-rule="evenodd"/>
          <path id="Trazado_152234" data-name="Trazado 152234" d="M699.125,655.221l-39.84,2.365L651.1,644.928l12.7-7.156,37.89-12.637,6.622,7.727C715.983,641.8,710.916,654.129,699.125,655.221Z" transform="translate(-605.072 -555.953)" fill="#c95836" fill-rule="evenodd"/>
          <path id="Trazado_152235" data-name="Trazado 152235" d="M647.1,656.622s-7.095-.706-18.013,18.51c-5.983,10.53-30.621,32.75-30.621,32.75l-2.793-4.2,29.088-53.617a14.853,14.853,0,0,1,11.173-6.952l12.478-1.023Z" transform="translate(-579.474 -563.782)" fill="#c95836" fill-rule="evenodd"/>
          <path id="Trazado_152236" data-name="Trazado 152236" d="M586.455,753.781l-5.484,2.466c-1.161.656-6.789,1.15-6.789,1.15h0c-.774.97.112,1.78.944,2.124l15.513,3.251s3.736.085,2.165-7.519C589.708,755.842,586.692,756.088,586.455,753.781Z" transform="translate(-569.411 -615.362)" fill="#221f14" fill-rule="evenodd"/>
          <path id="Trazado_152237" data-name="Trazado 152237" d="M687.674,657.744s-7.121.339-15.113,20.945c-4.379,11.292-25.4,35.837-25.4,35.837l-2.521-3.856,19.973-56.148a14.855,14.855,0,0,1,10.037-8.51l12.194-2.837Z" transform="translate(-602.087 -564.283)" fill="#c95836" fill-rule="evenodd"/>
          <path id="Trazado_152238" data-name="Trazado 152238" d="M636.246,762.577l-5.2,3.015c-1.088.772-6.636,1.839-6.636,1.839h0c-.67,1.044.3,1.759,1.157,2.016l15.766,1.644s3.726-.3,1.383-7.7C639.694,764.293,636.719,764.847,636.246,762.577Z" transform="translate(-592.639 -619.424)" fill="#221f14" fill-rule="evenodd"/>
          <path id="Trazado_152239" data-name="Trazado 152239" d="M639.568,693.833l15.341,4.188s5.057-5.636,8.354-9.833c6.605-8.41,14.419-24.126,14.765-24.424s38.955,1.3,40.9,1.084c5.068-.576,17.165-7.719,7.6-34.064l-48.043,11.483s-11.406,1.383-13.941,5.325c-1.639,2.55-3.279,4.986-5.472,8.815C647.5,676.62,639.568,693.833,639.568,693.833Z" transform="translate(-599.744 -558.561)" fill="#856de9" fill-rule="evenodd"/>
          <path id="Trazado_152240" data-name="Trazado 152240" d="M601.25,686.524l12.9,5.069s22.921-23.444,26.361-28.773,60.431-7.019,60.431-7.019l-3.119-25.961-33.287.636s-18.741,4.991-20.431,5.48-12.556-1.994-19.489,10.692S601.25,686.524,601.25,686.524Z" transform="translate(-582.048 -558.126)" fill="#856de9" fill-rule="evenodd"/>
          <path id="Trazado_152241" data-name="Trazado 152241" d="M709.572,567.646l9.3-24.4c2.148-5.914,8.06-8.31,12.424-5.035h0a5.091,5.091,0,0,1,1.1,6.237l-13.831,27.015Z" transform="translate(-632.072 -515.129)" fill="#c95836" fill-rule="evenodd"/>
          <path id="Trazado_152242" data-name="Trazado 152242" d="M731.091,533.831l8.249-2.872,7.079-.828,3.472.136,13.193,4.6a9.7,9.7,0,0,1,4.807,12.037l-3.229,15.1c3.43,11.39,5.311,14.228,4.715,25.951-17.236,2.994-46.594,0-47.964-1.567C722.409,562.925,725.138,545.659,731.091,533.831Z" transform="translate(-637.54 -512.079)" fill="#fff" fill-rule="evenodd"/>
          <path id="Trazado_152243" data-name="Trazado 152243" d="M756.294,514.126s.664,4.983,1.214,9.11a3.063,3.063,0,0,0,1.887,2.443,3.013,3.013,0,0,0,3.033-.466l.809-.661a3.961,3.961,0,0,0,1.337-3.988c-.91-3.788-2.566-10.69-2.566-10.69l-5.715,4.252Z" transform="translate(-653.649 -502.725)" fill="#c95836" fill-rule="evenodd"/>
          <path id="Trazado_152244" data-name="Trazado 152244" d="M756.935,522.63l.625,2.959c2.115-.713,3.228-2.691,4.131-4.937Z" transform="translate(-653.944 -507.703)" fill="#873b24" fill-rule="evenodd"/>
          <path id="Trazado_152245" data-name="Trazado 152245" d="M754,530.159s-4.148,10.269,2.9,10.72,10.907-10.222,10.907-10.222l-5.148-2.287Z" transform="translate(-652.029 -511.266)" fill="#c95836"/>
          <path id="Trazado_152246" data-name="Trazado 152246" d="M756.7,501.6a2.665,2.665,0,0,0-3.341-1.723l-4.829,1.559a2.811,2.811,0,0,0-1.682,3.346,28.847,28.847,0,0,0,2.914,7.3,3.229,3.229,0,0,0,3.6,1.757c1.481-.478,5.453-3.334,5.007-6.144a38.811,38.811,0,0,0-1.665-6.1Z" transform="translate(-649.26 -498.049)" fill="#c95836" fill-rule="evenodd"/>
          <path id="Trazado_152247" data-name="Trazado 152247" d="M752.724,519.661l2.394-.827s.531,1.665-.669,1.925S752.724,519.661,752.724,519.661Z" transform="translate(-652 -506.862)" fill="#fff" fill-rule="evenodd"/>
          <path id="Trazado_152248" data-name="Trazado 152248" d="M798.833,577.368,788.865,554.2c-2.492-5.551.149-10.818,5.549-11.067h0a5.442,5.442,0,0,1,5.062,3.843l8.473,27.766Z" transform="translate(-668.254 -518.083)" fill="#c95836" fill-rule="evenodd"/>
          <path id="Trazado_152249" data-name="Trazado 152249" d="M796.36,600.673c1.024,4.74-.841,9.238-6.163,11.051l-27.263,3.383,1.462-5.533,19.82-5.8Z" transform="translate(-656.715 -544.656)" fill="#c95836" fill-rule="evenodd"/>
          <path id="Trazado_152250" data-name="Trazado 152250" d="M713.365,588.511c-3.316,3.413-4.433,8.132-1.616,12.422l6.765,9.821,5.069-2.532-5.72-12.138Z" transform="translate(-632.337 -539.04)" fill="#c95836" fill-rule="evenodd"/>
          <path id="Trazado_152251" data-name="Trazado 152251" d="M758.705,617.212l-4.453,2.283a4.18,4.18,0,0,0-1.964,2.143l-1.526,3.752a2.021,2.021,0,0,0,1.818,2.781h0l5.434-3.185a6.294,6.294,0,0,0,2.666-3.365l.858-2.433Z" transform="translate(-651.025 -552.294)" fill="#c95836"/>
          <path id="Trazado_152252" data-name="Trazado 152252" d="M725.265,621l4.818,1.35a4.18,4.18,0,0,1,2.351,1.709l2.243,3.372a2.021,2.021,0,0,1-1.227,3.088h0l-5.96-2.039a6.288,6.288,0,0,1-3.284-2.766l-1.326-2.213Z" transform="translate(-638.219 -554.042)" fill="#c95836"/>
          <path id="Trazado_152253" data-name="Trazado 152253" d="M739.715,638.573H699.186v-3.067h37.462a3.067,3.067,0,0,1,3.067,3.067Z" transform="translate(-627.276 -560.742)" fill="#fad0b9" fill-rule="evenodd"/>
          <path id="Trazado_152254" data-name="Trazado 152254" d="M694.027,619.045H655.622L644.034,593.22H681.56a1.359,1.359,0,0,1,1.24.8Z" transform="translate(-601.806 -541.214)" fill="#fad0b9" fill-rule="evenodd"/>
          <path id="Trazado_152255" data-name="Trazado 152255" d="M691.652,619.045h-38.4l-11.055-24.636a.843.843,0,0,1,.769-1.188h36.557a.844.844,0,0,1,.77.5Z" transform="translate(-600.921 -541.214)" fill="#221f14" fill-rule="evenodd"/>
          <path id="Trazado_152256" data-name="Trazado 152256" d="M684.026,615.011c.457,1.611-.79,2.916-2.784,2.916a4.691,4.691,0,0,1-4.438-2.916c-.456-1.611.79-2.916,2.784-2.916A4.691,4.691,0,0,1,684.026,615.011Z" transform="translate(-616.896 -549.931)" fill="#fff" fill-rule="evenodd"/>
          <path id="Trazado_152257" data-name="Trazado 152257" d="M660.547,679.088l12.4-22.466s4.3-8.18,23.426-8.871" transform="translate(-609.432 -566.397)" fill="none" stroke="#6349cf" stroke-linecap="round" stroke-linejoin="round" stroke-width="1.082" fill-rule="evenodd"/>
          <path id="Trazado_152258" data-name="Trazado 152258" d="M741.219,503.148s-2.823,8.154-2.189,12.788c0,0,2.867,2.449,4.134,1.8,0,0-1.184-11.1,3.226-14.877a4.1,4.1,0,0,0,1.888-3.514C748.247,496.927,743.4,498.827,741.219,503.148Z" transform="translate(-645.633 -497.372)" fill="#e3cbbb" fill-rule="evenodd"/>
          <path id="Trazado_152259" data-name="Trazado 152259" d="M752.275,500.407s4.332,3.4,7.264,3.169,2.644,1.151,2.644,1.151-.913-7.45-4.95-7.949C754.438,496.432,753.139,496.087,752.275,500.407Z" transform="translate(-651.792 -496.59)" fill="#e3cbbb" fill-rule="evenodd"/>
          <ellipse id="Elipse_8341" data-name="Elipse 8341" cx="2.186" cy="1.799" rx="2.186" ry="1.799" transform="translate(107.184 10.714) rotate(-89.483)" fill="#c95836"/>
          <path id="Trazado_152260" data-name="Trazado 152260" d="M747.059,515.56s-1.534,5.205-.881,9.276" transform="translate(-648.902 -505.35)" fill="none" stroke="#bfab9e" stroke-linecap="round" stroke-linejoin="round" stroke-width="1.082" fill-rule="evenodd"/>
          <line id="Línea_258" data-name="Línea 258" x1="0.364" y1="2.4" transform="translate(101.615 1.283)" fill="none" stroke="#bfab9e" stroke-linecap="round" stroke-linejoin="round" stroke-width="1.082"/>
          <path id="Trazado_152261" data-name="Trazado 152261" d="M785.013,547.3l6.452,17.543,14.44-5.215c-2.772-3.01-5.636-17.411-13.477-21.468C783.806,533.7,785.013,547.3,785.013,547.3Z" transform="translate(-666.885 -515.372)" fill="#fff" fill-rule="evenodd"/>
          <path id="Trazado_152262" data-name="Trazado 152262" d="M727.351,537.006s-5.568.384-8.506,10-5.53,11.579-5.53,11.579l10.542,4.269,8.1-19.937Z" transform="translate(-633.801 -515.254)" fill="#fff" fill-rule="evenodd"/>
          <path id="Trazado_152263" data-name="Trazado 152263" d="M727.978,567.055s2.477-8.871,4.205-12.27,1.693-5.184,1.693-5.184" transform="translate(-640.572 -521.07)" fill="none" stroke="#8b939c" stroke-linecap="round" stroke-linejoin="round" stroke-width="1.082" fill-rule="evenodd"/>
          <path id="Trazado_152264" data-name="Trazado 152264" d="M789.539,565.672,784.064,551.5v-1.9" transform="translate(-666.473 -521.07)" fill="none" stroke="#8b939c" stroke-linecap="round" stroke-linejoin="round" stroke-width="1.082" fill-rule="evenodd"/>
          <path id="Trazado_152265" data-name="Trazado 152265" d="M769.537,686.991s3.9-20.233,26.587-21.967v13.585Z" transform="translate(-659.764 -574.374)" fill="#ffce57" fill-rule="evenodd"/>
        </g>
      </g>
    </g>
  </g>
</svg>
