<svg xmlns="http://www.w3.org/2000/svg" xmlns:xlink="http://www.w3.org/1999/xlink" width="159.4" height="219" viewBox="0 0 159.4 219">
  <defs>
    <linearGradient id="linear-gradient" x1="10.349" y1="3.88" x2="0.824" y2="0.611" gradientUnits="objectBoundingBox">
      <stop offset="0" stop-color="#965cf2"/>
      <stop offset="1" stop-color="#ff8adc"/>
    </linearGradient>
    <linearGradient id="linear-gradient-2" x1="9.351" y1="3.538" x2="-0.174" y2="0.269" xlink:href="#linear-gradient"/>
    <linearGradient id="linear-gradient-3" x1="8.341" y1="3.191" x2="-1.185" y2="-0.078" xlink:href="#linear-gradient"/>
    <linearGradient id="linear-gradient-4" x1="7.341" y1="2.848" x2="-2.184" y2="-0.421" xlink:href="#linear-gradient"/>
    <linearGradient id="linear-gradient-5" x1="6.338" y1="2.504" x2="-3.187" y2="-0.766" xlink:href="#linear-gradient"/>
    <linearGradient id="linear-gradient-6" x1="5.324" y1="2.155" x2="-4.202" y2="-1.114" xlink:href="#linear-gradient"/>
    <linearGradient id="linear-gradient-7" x1="0.601" y1="0.773" x2="0.178" y2="-0.042" xlink:href="#linear-gradient"/>
    <linearGradient id="linear-gradient-8" x1="0.318" y1="0.201" x2="0.672" y2="0.829" gradientUnits="objectBoundingBox">
      <stop offset="0" stop-color="#1c8ef4"/>
      <stop offset="1" stop-color="#00cfdd"/>
    </linearGradient>
    <linearGradient id="linear-gradient-9" x1="0.414" y1="0.735" x2="0.781" y2="0.029" xlink:href="#linear-gradient"/>
    <linearGradient id="linear-gradient-10" x1="0.49" y1="0.906" x2="0.513" y2="-0.021" gradientUnits="objectBoundingBox">
      <stop offset="0" stop-color="#6d6afe"/>
      <stop offset="1" stop-color="#3fb0f7"/>
    </linearGradient>
    <linearGradient id="linear-gradient-11" x1="0.847" y1="0.29" x2="0.547" y2="0.687" gradientUnits="objectBoundingBox">
      <stop offset="0" stop-color="#ff66bc"/>
      <stop offset="0.56" stop-color="#ff8ae6"/>
      <stop offset="1" stop-color="#ffbba8"/>
    </linearGradient>
    <linearGradient id="linear-gradient-12" x1="0.73" y1="0.469" x2="0.189" y2="0.542" xlink:href="#linear-gradient-11"/>
    <linearGradient id="linear-gradient-13" x1="0.871" y1="1.353" x2="0.313" y2="-0.045" xlink:href="#linear-gradient-10"/>
    <linearGradient id="linear-gradient-14" x1="0.439" y1="0.738" x2="0.619" y2="0.15" xlink:href="#linear-gradient-10"/>
    <linearGradient id="linear-gradient-15" x1="0.456" y1="0.106" x2="0.625" y2="0.792" gradientUnits="objectBoundingBox">
      <stop offset="0" stop-color="#fd70cb"/>
      <stop offset="1" stop-color="#6e4dfd"/>
    </linearGradient>
    <linearGradient id="linear-gradient-16" x1="0.33" y1="0.529" x2="0.678" y2="0.366" xlink:href="#linear-gradient-8"/>
    <linearGradient id="linear-gradient-17" x1="0.286" y1="0.614" x2="0.605" y2="-0.1" xlink:href="#linear-gradient-10"/>
    <linearGradient id="linear-gradient-18" x1="0.493" y1="0.559" x2="0.654" y2="0.222" xlink:href="#linear-gradient-10"/>
    <linearGradient id="linear-gradient-19" x1="0.405" y1="0.651" x2="0.516" y2="0.474" xlink:href="#linear-gradient-8"/>
    <linearGradient id="linear-gradient-20" x1="0.378" y1="0.703" x2="0.621" y2="0.297" xlink:href="#linear-gradient-10"/>
    <linearGradient id="linear-gradient-21" x1="0.093" y1="0.458" x2="0.376" y2="0.501" gradientUnits="objectBoundingBox">
      <stop offset="0" stop-color="#3e4795"/>
      <stop offset="1" stop-color="#273088"/>
    </linearGradient>
    <linearGradient id="linear-gradient-22" x1="0.337" y1="0.459" x2="0.509" y2="0.543" xlink:href="#linear-gradient-21"/>
    <linearGradient id="linear-gradient-23" x1="0.392" y1="0.341" x2="0.592" y2="0.485" xlink:href="#linear-gradient-21"/>
    <linearGradient id="linear-gradient-24" x1="0.82" y1="0.345" x2="0.56" y2="0.515" xlink:href="#linear-gradient-21"/>
    <linearGradient id="linear-gradient-25" x1="0.547" y1="0.481" x2="0.655" y2="0.639" xlink:href="#linear-gradient-21"/>
    <linearGradient id="linear-gradient-26" x1="0.226" y1="0.332" x2="0.384" y2="0.446" xlink:href="#linear-gradient-21"/>
    <linearGradient id="linear-gradient-27" x1="0.694" y1="0.335" x2="0.411" y2="0.534" xlink:href="#linear-gradient-21"/>
    <linearGradient id="linear-gradient-28" x1="0.498" y1="0.511" x2="0.553" y2="0.936" xlink:href="#linear-gradient-21"/>
    <linearGradient id="linear-gradient-29" x1="0.514" y1="0.398" x2="0.366" y2="0.831" gradientUnits="objectBoundingBox">
      <stop offset="0" stop-color="#5a2d68"/>
      <stop offset="1" stop-color="#22043d"/>
    </linearGradient>
    <linearGradient id="linear-gradient-30" x1="0.345" y1="0.946" x2="0.694" y2="0.056" xlink:href="#linear-gradient-8"/>
    <linearGradient id="linear-gradient-31" x1="0.658" y1="0.681" x2="0.411" y2="0.419" xlink:href="#linear-gradient-8"/>
    <linearGradient id="linear-gradient-32" x1="0.647" y1="0.668" x2="0.374" y2="0.379" xlink:href="#linear-gradient-8"/>
    <linearGradient id="linear-gradient-33" x1="0.701" y1="0.693" x2="0.5" y2="0.48" xlink:href="#linear-gradient-8"/>
    <linearGradient id="linear-gradient-34" x1="0.511" y1="0.542" x2="0.632" y2="0.791" gradientUnits="objectBoundingBox">
      <stop offset="0" stop-color="#ff8a78"/>
      <stop offset="1" stop-color="#ffa799"/>
    </linearGradient>
    <linearGradient id="linear-gradient-35" x1="-0.024" y1="0.365" x2="0.632" y2="0.754" gradientUnits="objectBoundingBox">
      <stop offset="0" stop-color="#ffb89e"/>
      <stop offset="1" stop-color="#ffa799"/>
    </linearGradient>
    <linearGradient id="linear-gradient-36" x1="0.491" y1="0.912" x2="0.506" y2="0.351" xlink:href="#linear-gradient-34"/>
    <linearGradient id="linear-gradient-37" x1="0.501" y1="0.717" x2="0.661" y2="0.026" xlink:href="#linear-gradient-8"/>
  </defs>
  <g id="Grupo_87318" data-name="Grupo 87318" transform="translate(-3135.317 -3550.277)">
    <g id="Grupo_87269" data-name="Grupo 87269" transform="translate(3178.308 3568.01)">
      <g id="Grupo_87264" data-name="Grupo 87264">
        <path id="Trazado_153348" data-name="Trazado 153348" d="M3335.346,4048.222l-58.087-33.176c-2.156-.985-5.324-1.914-7.438-.626l-5.41,3.3c-1.089.663-4.667,2.864-2.274,4.166,7.043,3.829,52.04,30.12,59.191,34.011a10.036,10.036,0,0,0,5.408.829,13.585,13.585,0,0,0,5.857-1.744l2.161-1.333c1.528-.942,2.374-1.971,2.455-2.958C3337.289,4049.72,3336.669,4048.826,3335.346,4048.222Z" transform="translate(-3261.329 -3873.387)" fill="#9871d0" fill-rule="evenodd" opacity="0.5" style="mix-blend-mode: multiply;isolation: isolate"/>
        <g id="Grupo_87263" data-name="Grupo 87263" transform="translate(0.678)">
          <path id="Trazado_153349" data-name="Trazado 153349" d="M3339.33,3773.312c-.008,2.828-1.016,4.818-2.628,5.755l-2.558,1.538c-8.774-3.744-5.518-48.208-6.052-60.849l2.694-66.339c-2.266-3.958-10.98-7.412-8.947-15.5l-25.716-12.038c-1.141-.777-31.151-18.156-25.764-21.415.9-.545,1.793-1.094,2.682-1.611,1.989-1.177,4.524-.449,6.385.625h0l51.17,29.35c5.022,2.894,8.962,9.9,8.946,15.5Z" transform="translate(-3267.531 -3602.254)" fill="#303a7d" fill-rule="evenodd"/>
          <path id="Trazado_153350" data-name="Trazado 153350" d="M3263.53,3613.314c.008-2.772.968-4.741,2.523-5.7,1.638-1.01,3.938-.9,6.481.568l51.17,29.349c4.952,2.86,8.962,9.8,8.946,15.5l-.213,124.985c-.016,5.691-4.052,7.991-9.005,5.131l-51.169-29.35c-4.958-2.863-8.962-9.8-8.947-15.5Z" transform="translate(-3263.315 -3605.349)" fill="#3e4992" fill-rule="evenodd"/>
          <path id="Trazado_153351" data-name="Trazado 153351" d="M3271.6,3630.043c.015-5.239,3.725-7.358,8.288-4.723l47.1,27.013c4.558,2.633,8.249,9.024,8.234,14.263l-.2,117.4c-.015,5.238-3.729,7.355-8.289,4.723l-47.1-27.013c-4.563-2.635-8.249-9.025-8.234-14.263Z" transform="translate(-3268.644 -3616.705)" fill="#d07efc" fill-rule="evenodd"/>
        </g>
      </g>
      <g id="Grupo_87268" data-name="Grupo 87268" transform="translate(6.732 34.164)">
        <g id="Grupo_87265" data-name="Grupo 87265" transform="translate(9.054)">
          <path id="Trazado_153352" data-name="Trazado 153352" d="M3327.084,3750c10.8,6.234,19.577,1.227,19.612-11.179s-8.689-27.516-19.486-33.752-19.577-1.23-19.613,11.178S3316.287,3743.769,3327.084,3750Z" transform="translate(-3307.598 -3702.393)" fill="#b068eb" fill-rule="evenodd"/>
          <path id="Trazado_153353" data-name="Trazado 153353" d="M3346.464,3742.688l-8.514,1.381,4.216,3.031c-.222,5.1-3.985,7.109-8.58,4.456a17.572,17.572,0,0,1-6.118-6.5l-4.715.573c2.55,5.091,6.435,9.642,10.815,12.17,7.37,4.255,13.448,1.19,14-6.825l2.863,2.052-3.97-10.334Zm-21.4-6.112c.088-5.288,3.9-7.407,8.58-4.7a17.575,17.575,0,0,1,6.236,6.742l4.723-.578c-2.556-5.172-6.509-9.846-10.94-12.4-7.451-4.3-13.559-1.118-14,7.076l-2.795-1.989,3.958,10.3,8.527-1.353Z" transform="translate(-3313.704 -3716.441)" fill="#f1a4fd" fill-rule="evenodd"/>
        </g>
        <g id="Grupo_87267" data-name="Grupo 87267" transform="translate(0 39.292)">
          <path id="Trazado_153354" data-name="Trazado 153354" d="M3281.617,3819.17c0-.952.677-1.326,1.506-.833,17.136,9.683,36.5,20.594,53.636,30.277a3.37,3.37,0,0,1,1.5,2.617v1.883c0,.952-.678,1.326-1.506.833-17.137-9.684-36.5-20.594-53.636-30.277a3.365,3.365,0,0,1-1.5-2.617Z" transform="translate(-3281.427 -3817.929)" fill="#955cf1" fill-rule="evenodd"/>
          <path id="Trazado_153355" data-name="Trazado 153355" d="M3281.061,3818.8a1.515,1.515,0,0,1,.187-.775.949.949,0,0,1,.347-.346.961.961,0,0,1,.476-.119,1.564,1.564,0,0,1,.783.243c8.558,4.836,17.672,9.979,26.785,15.121,9.135,5.154,18.27,10.309,26.848,15.155h0a3.335,3.335,0,0,1,1.128,1.206,3.276,3.276,0,0,1,.461,1.575v1.883a1.517,1.517,0,0,1-.187.775.94.94,0,0,1-.348.346.954.954,0,0,1-.475.12,1.562,1.562,0,0,1-.782-.243c-8.538-4.824-17.629-9.954-26.721-15.084-9.156-5.166-18.314-10.333-26.912-15.191l0,0a3.326,3.326,0,0,1-1.128-1.2,3.269,3.269,0,0,1-.461-1.575V3818.8Zm.515-.582a1.146,1.146,0,0,0-.135.582v1.883a2.89,2.89,0,0,0,.412,1.386,2.936,2.936,0,0,0,.991,1.066c8.6,4.858,17.753,10.025,26.908,15.19,9.094,5.131,18.186,10.261,26.725,15.086h0a1.188,1.188,0,0,0,.588.191.578.578,0,0,0,.289-.071.567.567,0,0,0,.207-.209,1.147,1.147,0,0,0,.135-.581v-1.883a2.9,2.9,0,0,0-.412-1.385,2.953,2.953,0,0,0-.992-1.067c-8.576-4.846-17.71-10-26.844-15.154-9.115-5.143-18.23-10.286-26.789-15.122h0a1.188,1.188,0,0,0-.589-.191.586.586,0,0,0-.288.07A.579.579,0,0,0,3281.575,3818.221Z" transform="translate(-3281.06 -3817.562)" fill="#e297fa" fill-rule="evenodd"/>
          <g id="Grupo_87266" data-name="Grupo 87266" transform="translate(0.584 0.664)">
            <path id="Trazado_153356" data-name="Trazado 153356" d="M3282.772,3820.429c0-.836.594-1.164,1.323-.731l.593.333a2.956,2.956,0,0,1,1.314,2.3v1.654c0,.835-.6,1.163-1.322.731l-.593-.333a2.956,2.956,0,0,1-1.314-2.3Z" transform="translate(-3282.772 -3819.507)" fill-rule="evenodd" fill="url(#linear-gradient)"/>
            <path id="Trazado_153357" data-name="Trazado 153357" d="M3293.41,3826.3c0-.835.594-1.164,1.322-.731l.593.333a2.957,2.957,0,0,1,1.314,2.3v1.653c0,.835-.6,1.163-1.322.731l-.593-.333a2.957,2.957,0,0,1-1.314-2.3Z" transform="translate(-3289.78 -3823.377)" fill-rule="evenodd" fill="url(#linear-gradient-2)"/>
            <path id="Trazado_153358" data-name="Trazado 153358" d="M3304.047,3832.5c0-.836.594-1.164,1.323-.731l.593.333a2.956,2.956,0,0,1,1.314,2.3v1.654c0,.835-.6,1.163-1.322.731l-.594-.333a2.955,2.955,0,0,1-1.313-2.3Z" transform="translate(-3296.789 -3827.46)" fill-rule="evenodd" fill="url(#linear-gradient-3)"/>
            <path id="Trazado_153359" data-name="Trazado 153359" d="M3314.684,3838.42c0-.835.594-1.164,1.322-.731l.593.333a2.957,2.957,0,0,1,1.314,2.3v1.654c0,.835-.6,1.163-1.323.731l-.593-.333a2.956,2.956,0,0,1-1.314-2.3Z" transform="translate(-3303.796 -3831.36)" fill-rule="evenodd" fill="url(#linear-gradient-4)"/>
            <path id="Trazado_153360" data-name="Trazado 153360" d="M3325.274,3844.525c0-.836.594-1.164,1.322-.731l.594.333a2.958,2.958,0,0,1,1.314,2.3v1.653c0,.836-.6,1.163-1.322.731l-.594-.333a2.955,2.955,0,0,1-1.314-2.3Z" transform="translate(-3310.774 -3835.382)" fill-rule="evenodd" fill="url(#linear-gradient-5)"/>
            <path id="Trazado_153361" data-name="Trazado 153361" d="M3335.958,3850.722c0-.836.594-1.164,1.322-.731l.593.333a2.957,2.957,0,0,1,1.314,2.3v1.654c0,.835-.6,1.164-1.323.731l-.593-.333a2.953,2.953,0,0,1-1.314-2.3Z" transform="translate(-3317.813 -3839.465)" fill-rule="evenodd" fill="url(#linear-gradient-6)"/>
          </g>
        </g>
      </g>
    </g>
    <g id="Grupo_87289" data-name="Grupo 87289" transform="translate(3135.317 3550.277)">
      <path id="Trazado_153362" data-name="Trazado 153362" d="M3189.022,3678.828l.712-1.242,2.483,1.424-.712,1.241-2.483-1.424Zm5.021-84.993-2.339-1.341-.712,1.241,2.338,1.341.712-1.241Zm-6.064-3.478-.712,1.241-2.484-1.424.712-1.241,2.483,1.424Zm-6.656-3.169a5.894,5.894,0,0,0-3.2.306l.542,1.325a4.467,4.467,0,0,1,2.429-.218l.229-1.413Zm-6.332,3.888a10.2,10.2,0,0,0-.461,3.038l1.431.008a8.732,8.732,0,0,1,.391-2.6l-1.361-.445Zm-.458,7.336h1.431l0,2.863h-1.431l0-2.863Zm0,7.157h1.431v2.863h-1.431l0-2.863Zm0,7.157h1.431v2.863h-1.431l0-2.863Zm0,7.157h1.431l0,2.863h-1.431v-2.863Zm0,7.157h1.431l0,2.863h-1.431l0-2.863Zm0,7.157h1.431v2.863h-1.431l0-2.863Zm0,7.157h1.431v2.863h-1.431v-2.863Zm0,7.157h1.431v2.863h-1.431v-2.863Zm0,7.157H3176v2.863h-1.431l0-2.862Zm.356,7.284a19.949,19.949,0,0,0,.854,2.844l1.336-.515a17.843,17.843,0,0,1-.792-2.634l-1.4.305Zm2.851,6.8a20.971,20.971,0,0,0,1.75,2.385l1.09-.927a20.646,20.646,0,0,1-1.634-2.228l-1.207.77Zm5.019,5.427c.8.565,1.659,1.026,2.506,1.511l.712-1.241c-.809-.464-1.635-.9-2.4-1.442Z" transform="translate(-3161.152 -3574.535)" fill="#fff" fill-rule="evenodd"/>
      <g id="Grupo_87288" data-name="Grupo 87288">
        <g id="Grupo_87274" data-name="Grupo 87274" transform="translate(15.379 91.263)">
          <g id="Grupo_87271" data-name="Grupo 87271" transform="translate(9.368)">
            <path id="Trazado_153363" data-name="Trazado 153363" d="M3263.614,3846.676l24.735,13.511c2.955,1.707,4.439,6.861,4.43,10.257l-.127,17.048c-.01,3.4-2.418,4.769-5.374,3.063l-23.691-13.518Z" transform="translate(-3244.572 -3836.818)" fill-rule="evenodd" opacity="0.5" fill="url(#linear-gradient-7)" style="mix-blend-mode: multiply;isolation: isolate"/>
            <g id="Grupo_87270" data-name="Grupo 87270">
              <path id="Trazado_153364" data-name="Trazado 153364" d="M3210.338,3821.443c0-1.143-.4-1.851.088-2.476a5.438,5.438,0,0,1,1.855-1.038,3.956,3.956,0,0,1,3.24.559l35.425,20.626a11.361,11.361,0,0,1,5.15,8.921l-.123,16.447a4.228,4.228,0,0,1-.994,3.029,4.435,4.435,0,0,1-2.252,1.076c-.742.061-1.029-.625-1.938-1.15l-35.425-20.626a11.356,11.356,0,0,1-5.151-8.921Z" transform="translate(-3209.389 -3817.78)" fill="#f2f4ff" fill-rule="evenodd"/>
              <path id="Trazado_153365" data-name="Trazado 153365" d="M3207.978,3822.866c.009-3.277,2.329-4.6,5.183-2.954l35.426,20.626a11.361,11.361,0,0,1,5.15,8.921l-.123,16.447c-.009,3.276-2.333,4.6-5.185,2.955L3213,3848.234a11.356,11.356,0,0,1-5.15-8.921Z" transform="translate(-3207.854 -3818.718)" fill="#18b6fe" fill-rule="evenodd"/>
              <path id="Trazado_153366" data-name="Trazado 153366" d="M3219.621,3849.426c3.455.914,6.545,5,6.9,9.132s-2.153,6.737-5.608,5.823-6.545-5-6.9-9.132S3216.167,3848.512,3219.621,3849.426Z" transform="translate(-3211.89 -3838.509)" fill="#fff" fill-rule="evenodd" opacity="0.2"/>
              <path id="Trazado_153367" data-name="Trazado 153367" d="M3225.517,3859.69a5.776,5.776,0,0,1,3.722,4.924c.193,2.226-1.161,3.632-3.023,3.139a5.777,5.777,0,0,1-3.722-4.924c-.192-2.226,1.161-3.632,3.023-3.139Zm.164,1.89c-.99-.262-1.708.485-1.606,1.667a3.068,3.068,0,0,0,1.977,2.615c.989.262,1.708-.485,1.605-1.667A3.068,3.068,0,0,0,3225.681,3861.58Z" transform="translate(-3217.487 -3845.327)" fill="#fff" fill-rule="evenodd"/>
              <path id="Trazado_153368" data-name="Trazado 153368" d="M3256.3,3872.276c0-.874.622-1.218,1.384-.765l23.084,13.093a3.1,3.1,0,0,1,1.374,2.4v1.73c0,.874-.622,1.218-1.384.765l-23.084-13.093a3.09,3.09,0,0,1-1.374-2.4Z" transform="translate(-3239.774 -3853.048)" fill="#fff" fill-rule="evenodd" opacity="0.2"/>
              <path id="Trazado_153369" data-name="Trazado 153369" d="M3256.3,3891.69c0-.516.367-.719.817-.452l13.632,7.732a1.828,1.828,0,0,1,.812,1.42v1.022c0,.516-.368.719-.817.452l-13.631-7.732a1.825,1.825,0,0,1-.812-1.419Z" transform="translate(-3239.774 -3866.099)" fill="#fff" fill-rule="evenodd" opacity="0.2"/>
            </g>
          </g>
          <g id="Grupo_87273" data-name="Grupo 87273" transform="translate(0 14.332)">
            <path id="Trazado_153370" data-name="Trazado 153370" d="M3187.135,3860.006c4.128,1.092,7.82,5.977,8.248,10.91s-2.572,8.049-6.7,6.958-7.82-5.977-8.247-10.91S3183.007,3858.915,3187.135,3860.006Z" transform="translate(-3180.395 -3859.788)" fill="#fff" fill-rule="evenodd"/>
            <g id="Grupo_87272" data-name="Grupo 87272" transform="translate(4.154 3.531)">
              <path id="Trazado_153371" data-name="Trazado 153371" d="M3193.281,3873.886l.02-1.586a2.5,2.5,0,0,1,.535-1.894c.429-.385.991-.345,1.695.065l1.529.86a2.694,2.694,0,0,1,1.42,1.5,6.571,6.571,0,0,1,.278,2.3v1.146a5.771,5.771,0,0,1,.515,1.9c.191,2.206-1.149,3.6-2.995,3.111a5.723,5.723,0,0,1-3.688-4.877,3.27,3.27,0,0,1,.691-2.52Zm4.522.9a5,5,0,0,0-.214-1.619,1.816,1.816,0,0,0-.977-.993c-.524-.262-1.04-.609-1.563-.877-.312-.181-.507-.246-.581-.18-.144.129-.216.515-.216,1.186l-.013.984a2.5,2.5,0,0,1,1.345.011A4.585,4.585,0,0,1,3197.8,3874.784Z" transform="translate(-3192.572 -3870.139)" fill-rule="evenodd" fill="url(#linear-gradient-8)"/>
              <path id="Trazado_153372" data-name="Trazado 153372" d="M3201.391,3888.233v1.121a.477.477,0,1,1-.954,0v-1.488a1.417,1.417,0,0,1-.3-.734c-.045-.512.267-.835.695-.722a1.328,1.328,0,0,1,.856,1.132A.668.668,0,0,1,3201.391,3888.233Z" transform="translate(-3197.554 -3880.844)" fill="#21389b" fill-rule="evenodd"/>
            </g>
          </g>
        </g>
        <g id="Grupo_87282" data-name="Grupo 87282" transform="translate(29.087)">
          <path id="Trazado_153373" data-name="Trazado 153373" d="M3279.188,3606.746l5.239,2.935.049,39.257c0,1.326-.944,1.862-2.1,1.2-6.257-3.589-12.509-7.243-18.76-10.9l.029-4.992.76-26.083C3265.817,3603.1,3270.654,3602.284,3279.188,3606.746Z" transform="translate(-3248.932 -3585.561)" fill-rule="evenodd" opacity="0.5" fill="url(#linear-gradient-9)" style="mix-blend-mode: multiply;isolation: isolate"/>
          <g id="Grupo_87281" data-name="Grupo 87281">
            <g id="Grupo_87275" data-name="Grupo 87275">
              <path id="Trazado_153374" data-name="Trazado 153374" d="M3222.035,3550.756l.821-.434a1.3,1.3,0,0,1,1.046.186c9.817,5.63,19.614,11.459,29.432,17.09a3.689,3.689,0,0,1,1.672,2.9l.048,38.863a1.226,1.226,0,0,1-.416,1.026c-.309.229-.946.724-1.45.432-9.818-5.631-19.433-11.96-29.249-17.59a3.684,3.684,0,0,1-1.672-2.9Z" transform="translate(-3221.536 -3550.277)" fill="#f2f4ff" fill-rule="evenodd"/>
              <path id="Trazado_153375" data-name="Trazado 153375" d="M3220.573,3552.553c0-1.064.756-1.495,1.683-.959,9.817,5.631,19.614,11.459,29.432,17.09a3.688,3.688,0,0,1,1.671,2.9l.049,38.862c0,1.063-.758,1.493-1.683.958-9.817-5.631-19.616-11.46-29.432-17.09a3.686,3.686,0,0,1-1.671-2.9Z" transform="translate(-3220.573 -3550.993)" fill="#fff" fill-rule="evenodd"/>
            </g>
            <g id="Grupo_87280" data-name="Grupo 87280" transform="translate(1.995 6.768)">
              <g id="Grupo_87276" data-name="Grupo 87276" transform="translate(0.179)">
                <path id="Trazado_153376" data-name="Trazado 153376" d="M3229.131,3570.186a4.15,4.15,0,0,1,2.674,3.537c.138,1.6-.834,2.609-2.172,2.256a4.152,4.152,0,0,1-2.674-3.538C3226.82,3570.841,3227.793,3569.832,3229.131,3570.186Z" transform="translate(-3226.945 -3570.115)" fill="#6d6afd" fill-rule="evenodd" opacity="0.2"/>
                <path id="Trazado_153377" data-name="Trazado 153377" d="M3231.415,3574.161a2.237,2.237,0,0,1,1.442,1.907c.075.863-.45,1.407-1.171,1.216a2.236,2.236,0,0,1-1.441-1.907C3230.169,3574.514,3230.694,3573.97,3231.415,3574.161Z" transform="translate(-3229.114 -3572.755)" fill-rule="evenodd" fill="url(#linear-gradient-10)"/>
                <path id="Trazado_153378" data-name="Trazado 153378" d="M3243.34,3579.036c0-.339.241-.472.536-.3l8.942,5.072a1.2,1.2,0,0,1,.533.931v.67c0,.338-.241.471-.536.3l-8.942-5.072a1.2,1.2,0,0,1-.532-.931Z" transform="translate(-3237.747 -3575.746)" fill="#6d6afd" fill-rule="evenodd" opacity="0.2"/>
                <path id="Trazado_153379" data-name="Trazado 153379" d="M3243.34,3586.556c0-.2.142-.279.316-.175l5.28,3a.709.709,0,0,1,.314.55v.4c0,.2-.143.278-.316.175l-5.28-2.995a.706.706,0,0,1-.314-.55Z" transform="translate(-3237.747 -3580.802)" fill="#6d6afd" fill-rule="evenodd" opacity="0.2"/>
              </g>
              <g id="Grupo_87279" data-name="Grupo 87279" transform="translate(0 10.723)">
                <g id="Grupo_87278" data-name="Grupo 87278">
                  <g id="Grupo_87277" data-name="Grupo 87277" transform="translate(3.193 8.268)">
                    <path id="Trazado_153380" data-name="Trazado 153380" d="M3235.78,3635.178l5.69-9.4,2.873,10.436,2.92-3.554,3.637,11.189Z" transform="translate(-3235.78 -3625.78)" fill-rule="evenodd" fill="url(#linear-gradient-11)"/>
                    <path id="Trazado_153381" data-name="Trazado 153381" d="M3263.65,3627.691a2.371,2.371,0,0,1,1.562,2.04c.081.933-.487,1.532-1.268,1.338a2.371,2.371,0,0,1-1.562-2.04C3262.3,3628.1,3262.868,3627.5,3263.65,3627.691Z" transform="translate(-3253.301 -3627.015)" fill="#ffdb59" fill-rule="evenodd"/>
                  </g>
                  <path id="Trazado_153382" data-name="Trazado 153382" d="M3226.473,3603.125c0-1.414,1.005-1.986,2.237-1.275l18.282,10.367a4.9,4.9,0,0,1,2.223,3.851l-.053,15.094c0,1.415-1.007,1.986-2.238,1.275l-18.282-10.368a4.9,4.9,0,0,1-2.223-3.851Z" transform="translate(-3226.42 -3601.545)" fill-rule="evenodd" opacity="0.2" fill="url(#linear-gradient-12)"/>
                </g>
                <path id="Trazado_153383" data-name="Trazado 153383" d="M3301.751,3645.6c0-1.414,1.006-1.987,2.238-1.275l2.9,1.647-.03,20.241-2.942-1.668a4.9,4.9,0,0,1-2.223-3.851Z" transform="translate(-3276.016 -3629.525)" fill-rule="evenodd" opacity="0.2" fill="url(#linear-gradient-13)"/>
              </g>
            </g>
          </g>
        </g>
        <g id="Grupo_87287" data-name="Grupo 87287" transform="translate(0 38.087)">
          <g id="Grupo_87283" data-name="Grupo 87283">
            <path id="Trazado_153384" data-name="Trazado 153384" d="M3150.531,3685.909c-4.541-2.622-8.513-9.018-8.873-14.028-.535-6.129,4.566-7.226,9.107-4.6s8.514,8.808,8.874,13.819-3.552,8.1-9.107,4.813Zm9.167,5.231a10.226,10.226,0,0,0-3.9,1.271c-.939.551-1.131.986-.552,1.083a6.029,6.029,0,0,0,5.112-1.875c.232-.317.017-.51-.657-.479Zm-9.794-27.577a10.087,10.087,0,0,0-5.9-1.617,8.923,8.923,0,0,0-3.961,1.584c-1.385,1.28-1.269,3.854-1.055,6.826a25.46,25.46,0,0,0,11.806,18.78l6.529,2.018a7.678,7.678,0,0,0,3.907-2.482,8.769,8.769,0,0,0,1.18-5.631C3161.9,3675.978,3156.3,3667.259,3149.9,3663.563Z" transform="translate(-3137.652 -3661.915)" fill="#6d6afd" fill-rule="evenodd"/>
            <path id="Trazado_153385" data-name="Trazado 153385" d="M3153.571,3672.24c-4.086-2.36-8.281-.925-8.879,3.537-.441,3.283,1.2,7.4,2.822,10.06a21.535,21.535,0,0,0,7.275,7.347c4.6,2.659,8.912.123,8.523-5.283C3162.9,3682.129,3158.8,3675.261,3153.571,3672.24Z" transform="translate(-3141.445 -3667.977)" fill="#7fd1ff" fill-rule="evenodd" opacity="0.8"/>
            <path id="Trazado_153386" data-name="Trazado 153386" d="M3147.685,3688.651c-5.189-3-9.729-10.066-10.14-15.792s3.46-7.938,8.649-4.942,9.729,10.066,10.141,15.793-3.46,7.937-8.65,4.941Zm16.941,18.516-6.529-14.553c.072.2-.22.521-.865.9a10.263,10.263,0,0,1-3.911,1.274c-.427.02-.668-.051-.729-.186h0l6.582,14.669c.375.587,2.85-.168,3.232-.312.585-.22,2.478-1.091,2.219-1.79Zm-8.179-14-.531-1.19c1.847-1.138,2.86-3.553,2.613-7-.508-7.062-6.108-15.781-12.509-19.477s-11.175-.968-10.667,6.094,6.1,15.782,12.505,19.479a10.356,10.356,0,0,0,5.638,1.637l.587,1.318c.026.058.13.089.313.08a4.132,4.132,0,0,0,1.318-.363c.09-.04.183-.085.27-.132s.4-.223.46-.369A.109.109,0,0,0,3156.448,3693.169Z" transform="translate(-3135.317 -3663.191)" fill-rule="evenodd" fill="url(#linear-gradient-14)"/>
          </g>
          <g id="Grupo_87286" data-name="Grupo 87286" transform="translate(6.465 6.86)">
            <path id="Trazado_153387" data-name="Trazado 153387" d="M3162.168,3720.287c0-.268.19-.374.423-.235l5.271,2.979a.948.948,0,0,1,.421.736v.53c0,.268-.19.373-.423.234l-5.271-2.978a.948.948,0,0,1-.421-.736Z" transform="translate(-3159.473 -3707.038)" fill="#fff" fill-rule="evenodd"/>
            <g id="Grupo_87285" data-name="Grupo 87285">
              <path id="Trazado_153388" data-name="Trazado 153388" d="M3162.405,3696.246a8.035,8.035,0,0,1-3.645-6.313c.007-2.321,1.65-3.257,3.669-2.092a8.033,8.033,0,0,1,3.645,6.314c-.007,2.32-1.649,3.257-3.669,2.091Zm-1.639-4.824,0,1.577q1.653.963,3.3,1.929l0-1.606a.945.945,0,0,0-.428-.741l-.376-.216a1.029,1.029,0,0,1-.755-.164,2.762,2.762,0,0,1-.784-.718l-.532-.305a.3.3,0,0,0-.309-.027.3.3,0,0,0-.121.272Zm1.725.464c.558.323.977.084.933-.533a2.4,2.4,0,0,0-1.088-1.7c-.559-.323-.976-.084-.934.533a2.4,2.4,0,0,0,1.088,1.7Zm-.088,5.343c2.493,1.439,4.52.283,4.527-2.58a9.913,9.913,0,0,0-4.5-7.791c-2.492-1.439-4.52-.284-4.527,2.58A9.914,9.914,0,0,0,3162.4,3697.229Z" transform="translate(-3156.663 -3684.801)" fill="#fff" fill-rule="evenodd"/>
              <g id="Grupo_87284" data-name="Grupo 87284">
                <path id="Trazado_153389" data-name="Trazado 153389" d="M3160.064,3694.844c2.417,1.4,4.385.276,4.394-2.5a9.621,9.621,0,0,0-4.365-7.56c-2.42-1.4-4.389-.279-4.4,2.5a9.625,9.625,0,0,0,4.369,7.564Zm4.93-4.129c.254,1.57,1.328,2.956.425,5-.7,1.542-2.708.79-3.39.668-.39-.069-.882.061-1.323.02-2.554-.237-3.76-2.047-4.385-4.44a21.686,21.686,0,0,1-1.963-4.518c-.454-2.924.87-3.381,2.242-3.962.961-.674,3.076-.422,4.508.406a5.485,5.485,0,0,1,2.38,1.986A11.657,11.657,0,0,1,3164.994,3690.715Z" transform="translate(-3154.267 -3682.727)" fill="#fff" fill-rule="evenodd" opacity="0.2"/>
                <path id="Trazado_153390" data-name="Trazado 153390" d="M3160.434,3694.2c2.417,1.4,4.385.276,4.393-2.5a9.62,9.62,0,0,0-4.365-7.56c-2.42-1.4-4.389-.279-4.4,2.5a9.625,9.625,0,0,0,4.369,7.564Zm5.323-3.818a12.068,12.068,0,0,1-.2,2.782c-.294,1.761-1.14,3.2-2.594,3.339a2.661,2.661,0,0,1-1.558-.441,9.488,9.488,0,0,1-1.882-1.521,35.138,35.138,0,0,1-2.7-3.139c-1.463-1.894-2.2-3.389-1.726-5.258a14.659,14.659,0,0,0,.246-2.615c.076-.838.271-1.29.634-1.444a1.331,1.331,0,0,1,.866.029,7.287,7.287,0,0,0,1.379.34,1.461,1.461,0,0,0,.464-.038,3.191,3.191,0,0,1,2.1.125c1.4.807,1.781,2.187,2.813,3.386.415.483.932.883,1.223,1.259A5.492,5.492,0,0,1,3165.757,3690.38Z" transform="translate(-3154.72 -3682.023)" fill="#fff" fill-rule="evenodd" opacity="0.35"/>
              </g>
            </g>
          </g>
        </g>
      </g>
    </g>
    <g id="Grupo_87298" data-name="Grupo 87298" transform="translate(3217.918 3576.167)">
      <path id="Trazado_153391" data-name="Trazado 153391" d="M3425.552,3649.206l-.719,1.238-2.475-1.439.719-1.237,2.475,1.439Zm-6.188-3.6-.719,1.238-2.475-1.439.719-1.238,2.475,1.439Zm-6.187-3.6-.719,1.238-2.475-1.439.72-1.237,2.475,1.438Zm-6.187-3.6-.719,1.238-2.475-1.439.719-1.238,2.475,1.439Zm-6.187-3.6-.72,1.238-2.475-1.439.719-1.238,2.475,1.439Zm-6.188-3.6-.719,1.238-2.475-1.439.719-1.238,2.475,1.439Zm-6.188-3.6-.719,1.238-.9-.526a10.792,10.792,0,0,0-1.523-.721l.485-1.347a11.872,11.872,0,0,1,1.757.829l.905.526Zm-7.372-1.463a4.991,4.991,0,0,0-.771.393,5.338,5.338,0,0,0-1.7,1.728l1.216.755a3.91,3.91,0,0,1,1.257-1.278,3.551,3.551,0,0,1,.54-.273l-.542-1.325Zm-3.612,6.607c0,.955-.009,1.91-.013,2.864,0,.781,1.233,1.064,1.406.274l.038-3.131Z" transform="translate(-3377.43 -3626.163)" fill="#fff" fill-rule="evenodd"/>
      <g id="Grupo_87297" data-name="Grupo 87297" transform="translate(14.648 17.206)">
        <g id="Grupo_87290" data-name="Grupo 87290" transform="translate(16.588 62.953)">
          <path id="Trazado_153392" data-name="Trazado 153392" d="M3545.154,3922.039l-1.585.639-1.641,1.321,2.263,1.252,1.532-.514,1.694-1.446Z" transform="translate(-3517.043 -3901.255)" fill="#fff0cc" fill-rule="evenodd"/>
          <path id="Trazado_153393" data-name="Trazado 153393" d="M3541.326,3946.393l-1.785.919-1.441,1.041,1.729,2.651,1.349-.687,1.877-1.272Z" transform="translate(-3514.52 -3917.3)" fill="#fff0cc" fill-rule="evenodd"/>
          <path id="Trazado_153394" data-name="Trazado 153394" d="M3516.48,3951.051l.484,2.709,3.226-1.96-.179-2.492Z" transform="translate(-3500.276 -3919.22)" fill="#ffc945" fill-rule="evenodd"/>
          <path id="Trazado_153395" data-name="Trazado 153395" d="M3472.282,3881.707l-3.226,1.96,2.262,1.252,3.226-1.96Z" transform="translate(-3469.032 -3874.682)" fill="#e9b128" fill-rule="evenodd"/>
          <path id="Trazado_153396" data-name="Trazado 153396" d="M3500.316,3905.531l3.178-2.61c-1.522.928-3.562.119-5-.83a13.966,13.966,0,0,1-3.675-3.717,13.27,13.27,0,0,1-2.438-6.153c-.13-1.514.151-3.225,1.458-4.02l-3.743,1.815C3484.133,3893.724,3494.35,3909.26,3500.316,3905.531Z" transform="translate(-3481.704 -3878.961)" fill="#e9b128" fill-rule="evenodd"/>
          <path id="Trazado_153397" data-name="Trazado 153397" d="M3541.078,3956.125a5.719,5.719,0,0,1-1.082.853l3.226-1.96a5.676,5.676,0,0,0,.564-.392,5.75,5.75,0,0,0,.518-.46S3541.357,3955.955,3541.078,3956.125Z" transform="translate(-3515.77 -3922.42)" fill="#fb82b5" fill-rule="evenodd"/>
          <path id="Trazado_153398" data-name="Trazado 153398" d="M3485.721,3861.118l-3.226,1.96,1.747,3.139,3.208-2.448Z" transform="translate(-3477.886 -3861.118)" fill="#fff0cc" fill-rule="evenodd"/>
          <path id="Trazado_153399" data-name="Trazado 153399" d="M3479.857,3863.078l3.226-1.959a6.036,6.036,0,0,0-1.366.6l-3.226,1.96A6.085,6.085,0,0,1,3479.857,3863.078Z" transform="translate(-3475.248 -3861.118)" fill="#e9b128" fill-rule="evenodd"/>
          <path id="Trazado_153400" data-name="Trazado 153400" d="M3542.929,3934.175l-3.547,1.526c-.127,1.5-.282,3.5-1.283,4.6l3.226-1.96A7.071,7.071,0,0,0,3542.929,3934.175Z" transform="translate(-3514.52 -3909.25)" fill="#ffdd8a" fill-rule="evenodd"/>
          <path id="Trazado_153401" data-name="Trazado 153401" d="M3492.185,3870.982l3.226-1.96a7.94,7.94,0,0,0-4.623-.462l-3.226,1.96A7.97,7.97,0,0,1,3492.185,3870.982Z" transform="translate(-3481.224 -3865.909)" fill="#ffdd8a" fill-rule="evenodd"/>
          <path id="Trazado_153402" data-name="Trazado 153402" d="M3536.206,3911.707l3.226-1.96a24.089,24.089,0,0,0-2.361-6.365l-3.829,1.635C3534.3,3907.01,3535.76,3909.531,3536.206,3911.707Z" transform="translate(-3511.32 -3888.963)" fill="#ffdd8a" fill-rule="evenodd"/>
          <path id="Trazado_153403" data-name="Trazado 153403" d="M3510.5,3870.789l.556,2.694,3.226-1.96-.179-2.5Z" transform="translate(-3496.337 -3866.329)" fill="#ffc945" fill-rule="evenodd"/>
          <path id="Trazado_153404" data-name="Trazado 153404" d="M3504.346,3866.971l3.226-1.96a19.755,19.755,0,0,0-3.759-2.08l-3.226,1.96A19.769,19.769,0,0,1,3504.346,3866.971Z" transform="translate(-3489.806 -3862.313)" fill="#fff0cc" fill-rule="evenodd"/>
          <path id="Trazado_153405" data-name="Trazado 153405" d="M3517.067,3883.13l2.379-.357.846-1.6a25.4,25.4,0,0,0-4.937-4.829l-3.226,1.959A25.419,25.419,0,0,1,3517.067,3883.13Z" transform="translate(-3497.41 -3871.147)" fill="#ffdd8a" fill-rule="evenodd"/>
          <path id="Trazado_153406" data-name="Trazado 153406" d="M3533.793,3894.281l3.226-1.96a35.151,35.151,0,0,0-2.869-4.4l-3.226,1.96A35.592,35.592,0,0,1,3533.793,3894.281Z" transform="translate(-3509.793 -3878.778)" fill="#fff0cc" fill-rule="evenodd"/>
          <path id="Trazado_153407" data-name="Trazado 153407" d="M3483.22,3890.4a14.557,14.557,0,0,1-6.8-10.425c-.275-3.832,2.321-5.379,5.8-3.453a14.561,14.561,0,0,1,6.8,10.425c.276,3.833-2.322,5.377-5.8,3.453Zm12.914-1.5-2.263-1.252a24.093,24.093,0,0,0-2.361-6.365l1.476-.876a35.512,35.512,0,0,0-2.869-4.4l-1.475.878a25.345,25.345,0,0,0-4.937-4.83l-.179-2.495a21.982,21.982,0,0,0-1.888-1.18,17.726,17.726,0,0,0-1.871-.9l.18,2.495a7.8,7.8,0,0,0-4.624-.462l-1.729-2.651a5.735,5.735,0,0,0-2.447,1.457l1.729,2.648a6.979,6.979,0,0,0-1.6,4.171l-2.262-1.252a15.253,15.253,0,0,0,.019,2,19.558,19.558,0,0,0,.278,2.143l2.263,1.253a24.043,24.043,0,0,0,2.361,6.362l-1.475.878a35.483,35.483,0,0,0,2.868,4.4l1.475-.878a25.333,25.333,0,0,0,4.938,4.83l.179,2.492a21.387,21.387,0,0,0,1.89,1.184,17.268,17.268,0,0,0,1.868.9l-.179-2.492a7.808,7.808,0,0,0,4.624.462l1.729,2.651a5.742,5.742,0,0,0,2.447-1.457l-1.729-2.651a6.967,6.967,0,0,0,1.6-4.168l2.263,1.252a15.372,15.372,0,0,0-.02-2A19.536,19.536,0,0,0,3496.134,3888.9Z" transform="translate(-3468.986 -3864.903)" fill="#ffc945" fill-rule="evenodd"/>
          <path id="Trazado_153408" data-name="Trazado 153408" d="M3551.787,3925.71l-3.226,1.96a17.55,17.55,0,0,1,.3,4.14l3.226-1.96A17.448,17.448,0,0,0,3551.787,3925.71Z" transform="translate(-3521.413 -3903.673)" fill="#ffc945" fill-rule="evenodd"/>
        </g>
        <g id="Grupo_87293" data-name="Grupo 87293" transform="translate(0 6.871)">
          <path id="Trazado_153409" data-name="Trazado 153409" d="M3438.151,3705.2l1.043,25.281-.416,3.136-.028,1.951-2.661,1.83c-8.16-6.661-17.005-28.828-15.572-39.03a21.364,21.364,0,0,0,11.614-1.63C3433.62,3697.831,3437.371,3702.681,3438.151,3705.2Z" transform="translate(-3420.364 -3696.735)" fill-rule="evenodd" opacity="0.5" fill="url(#linear-gradient-15)" style="mix-blend-mode: multiply;isolation: isolate"/>
          <g id="Grupo_87292" data-name="Grupo 87292" transform="translate(2.927 1.336)">
            <path id="Trazado_153410" data-name="Trazado 153410" d="M3443.275,3700.651a88.056,88.056,0,0,0,12.844,17.24c1.373,11.822-5.861,19.053-12.023,18.736-6.141-6.786-16.234-22.489-14.8-32.69a10.511,10.511,0,0,0,2.7-.721C3435.853,3703.46,3440.71,3702.389,3443.275,3700.651Z" transform="translate(-3429.085 -3700.651)" fill="#f2f4ff" fill-rule="evenodd"/>
            <g id="Grupo_87291" data-name="Grupo 87291" transform="translate(0 0.918)">
              <path id="Trazado_153411" data-name="Trazado 153411" d="M3442.025,3703.342a88.069,88.069,0,0,0,12.844,17.24c1.373,11.822-6.794,19.359-12.956,19.042-6.141-6.786-14.238-23.713-12.8-33.915C3433.117,3706.454,3439.081,3705.336,3442.025,3703.342Z" transform="translate(-3428.943 -3703.342)" fill="#fff" fill-rule="evenodd"/>
              <path id="Trazado_153412" data-name="Trazado 153412" d="M3444.4,3708.537c2.3,4.466,8.617,12.4,11.888,15.573,1.214,10.458-6.012,17.125-11.461,16.844-5.433-6-12.6-20.977-11.329-30A16.655,16.655,0,0,0,3444.4,3708.537Z" transform="translate(-3431.846 -3706.765)" fill-rule="evenodd" fill="url(#linear-gradient-16)"/>
              <path id="Trazado_153413" data-name="Trazado 153413" d="M3452.034,3747.678c-3.749-2.167-7.02-7.278-7.306-11.421s2.519-5.744,6.267-3.577,7.02,7.282,7.307,11.424S3455.781,3749.845,3452.034,3747.678Z" transform="translate(-3439.329 -3722.035)" fill="#fff" fill-rule="evenodd"/>
              <path id="Trazado_153414" data-name="Trazado 153414" d="M3457.432,3747.872l.995.5-4.415,6.721-3.9-5.78,1.285.5,2.057,1.954Z" transform="translate(-3442.891 -3732.68)" fill-rule="evenodd" fill="url(#linear-gradient-17)"/>
            </g>
          </g>
        </g>
        <g id="Grupo_87296" data-name="Grupo 87296" transform="translate(24.711)">
          <g id="Grupo_87294" data-name="Grupo 87294">
            <path id="Trazado_153415" data-name="Trazado 153415" d="M3503.277,3680.191a9.159,9.159,0,0,1,3.243,3.082c-.011-.234-.023.625-.015-.7s-.753-3.468.284-4.541a11.2,11.2,0,0,1,2.894-1.33,4.285,4.285,0,0,1,3.136.548,11.84,11.84,0,0,1,4.452,5.023,21,21,0,0,1,1.854,7.283c0,1.342-.007.464-.02.689a3.833,3.833,0,0,1,3.328.54,13.174,13.174,0,0,1,4.542,5.128,16.759,16.759,0,0,1,1.91,7.406,7.8,7.8,0,0,1-1.187,4.533,6.578,6.578,0,0,1-3.254,2.048c-2.97,1.032-8.7-4.991-11.719-6.7q-4.809-2.723-9.571-5.415a11.873,11.873,0,0,1-4.391-5.071,16.323,16.323,0,0,1-1.754-7.225c.013-1.411-1.018-3.527.316-4.54A5.372,5.372,0,0,1,3503.277,3680.191Z" transform="translate(-3495.329 -3676.594)" fill="#6d6afd" fill-rule="evenodd"/>
            <path id="Trazado_153416" data-name="Trazado 153416" d="M3499.062,3682.329a9.16,9.16,0,0,1,3.243,3.082c-.011-.234-.023.624-.015-.7s.726-4.223,1.865-5.186a3.757,3.757,0,0,1,4.448-.138,11.835,11.835,0,0,1,4.453,5.023,21.008,21.008,0,0,1,1.854,7.283c0,1.342-.007.464-.02.689a3.834,3.834,0,0,1,3.329.539,13.178,13.178,0,0,1,4.542,5.128,16.722,16.722,0,0,1,1.91,7.406c.005,2.488-.72,4.341-1.89,5.316s-2.783,1.064-4.562.058l-9.708-5.494-9.571-5.415a11.871,11.871,0,0,1-4.391-5.071,16.32,16.32,0,0,1-1.754-7.225c.023-2.414.73-4.208,1.861-5.165A3.985,3.985,0,0,1,3499.062,3682.329Z" transform="translate(-3492.794 -3678.003)" fill-rule="evenodd" fill="url(#linear-gradient-18)"/>
          </g>
          <g id="Grupo_87295" data-name="Grupo 87295" transform="translate(6.644 8.653)">
            <path id="Trazado_153417" data-name="Trazado 153417" d="M3515.246,3709.592l-2.977-1.718,4.681,8.107,4.711-2.685-2.975-1.718.008-7.634-3.44-1.986Z" transform="translate(-3512.269 -3701.958)" fill="#fff" fill-rule="evenodd"/>
            <path id="Trazado_153418" data-name="Trazado 153418" d="M3538.835,3721.687l2.977,1.718-4.681-8.107-4.711,2.685,2.975,1.718-.008,7.634,3.44,1.986Z" transform="translate(-3525.545 -3710.747)" fill="#fff" fill-rule="evenodd"/>
          </g>
        </g>
      </g>
      <path id="Trazado_153419" data-name="Trazado 153419" d="M3554.932,3817.589l1.191.693-.719,1.238-1.713-1c-.524-.717.4-1.565,1.241-.934Zm4.184,4.088.719-1.238.857.5h0a9.9,9.9,0,0,0,1.575.739l-.481,1.348a11.314,11.314,0,0,1-1.808-.847l.008,0-.868-.5Zm7.387,1.407a5.221,5.221,0,0,0,2.441-2.147l-1.224-.742a3.793,3.793,0,0,1-1.783,1.575l.566,1.314Zm3.551-6.637-1.431,0c0-.954.009-1.909.013-2.864l1.431.006-.012,2.862Zm.032-7.156-1.431-.006.013-2.863,1.431.006-.013,2.863Zm.031-7.157-1.431-.006.013-2.863,1.431.006-.013,2.863Zm.031-7.157-1.431-.006.013-2.863,1.431.006-.013,2.863Zm.032-7.157-1.431-.006.012-2.863,1.431.006-.012,2.863Zm.031-7.157-1.431-.006.013-2.863,1.431.006-.013,2.863Zm.031-7.157-1.431-.006.013-2.863,1.431.006-.013,2.863Zm-.055-7.236a17.259,17.259,0,0,0-.586-2.925l-1.375.4a15.392,15.392,0,0,1,.538,2.682l1.423-.158Zm-2.271-7.028a23.069,23.069,0,0,0-1.226-2.023c-.453-.672-1.613.124-.8,1.38.276.429.529.872.769,1.321Z" transform="translate(-3493.455 -3712.345)" fill="#fff" fill-rule="evenodd"/>
    </g>
    <g id="Grupo_87317" data-name="Grupo 87317" transform="translate(3199.13 3669.319)">
      <path id="Trazado_153420" data-name="Trazado 153420" d="M3374.145,4119.444l-44.216-25.2c-1.023-.467-2.525-.908-3.528-.3l-2.565,1.563c-.516.314-2.213,1.357-1.078,1.975,3.34,1.816,41.348,23.748,44.74,25.593a4.763,4.763,0,0,0,2.565.393,6.447,6.447,0,0,0,2.778-.827l1.025-.632c.724-.447,1.126-.936,1.164-1.4S3374.773,4119.73,3374.145,4119.444Z" transform="translate(-3322.37 -4027.312)" fill="#9871d0" fill-rule="evenodd" opacity="0.5" style="mix-blend-mode: multiply;isolation: isolate"/>
      <g id="Grupo_87316" data-name="Grupo 87316" transform="translate(0 0)">
        <g id="Grupo_87302" data-name="Grupo 87302" transform="translate(0 30.281)">
          <g id="Grupo_87299" data-name="Grupo 87299">
            <path id="Trazado_153421" data-name="Trazado 153421" d="M3325.673,3991c0-.773-.6-1.4-.336-1.9.289-.538,1.484-.868,2-1.032a3.317,3.317,0,0,1,2.638.48l40.512,23.381a9.424,9.424,0,0,1,4.273,7.4l-.1,29.011a3.021,3.021,0,0,1-1.22,2.73,4.961,4.961,0,0,1-2.385.677c-.446-.077-.2-.668-.7-.956l-40.512-23.381a9.422,9.422,0,0,1-4.273-7.4Z" transform="translate(-3324.277 -3987.961)" fill="#f2f4ff" fill-rule="evenodd"/>
            <path id="Trazado_153422" data-name="Trazado 153422" d="M3322.464,3992.442c.008-2.718,1.933-3.818,4.3-2.451l40.512,23.381a9.426,9.426,0,0,1,4.273,7.4l-.1,29.012c-.008,2.718-1.936,3.817-4.3,2.451l-40.512-23.381a9.419,9.419,0,0,1-4.273-7.4Z" transform="translate(-3322.362 -3988.911)" fill="#7ff9ff" fill-rule="evenodd"/>
          </g>
          <g id="Grupo_87300" data-name="Grupo 87300" transform="translate(1.478 33.695)">
            <path id="Trazado_153423" data-name="Trazado 153423" d="M3326.7,4086.984c0-.236.168-.327.374-.2l44.94,26a.842.842,0,0,1,.371.651l-.009.716c0,.236-.168.327-.374.2l-44.94-26a.842.842,0,0,1-.371-.652Z" transform="translate(-3326.694 -4086.725)" fill="#00cedc" fill-rule="evenodd"/>
            <path id="Trazado_153424" data-name="Trazado 153424" d="M3326.771,4087.072c0-.228.162-.316.36-.2l18.127,10.484a.813.813,0,0,1,.358.629l-.009.689c0,.228-.162.316-.36.2l-18.127-10.485a.812.812,0,0,1-.358-.629Z" transform="translate(-3326.74 -4086.789)" fill="#1c8df3" fill-rule="evenodd"/>
          </g>
          <g id="Grupo_87301" data-name="Grupo 87301" transform="translate(2.451 3.935)">
            <path id="Trazado_153425" data-name="Trazado 153425" d="M3329.567,4000.087c0-.53.376-.744.838-.478l10.215,5.9a1.839,1.839,0,0,1,.833,1.443l-.02,8.872c0,.53-.377.744-.838.478l-10.215-5.9a1.835,1.835,0,0,1-.833-1.442Z" transform="translate(-3329.547 -3999.494)" fill-rule="evenodd" fill="url(#linear-gradient-19)"/>
            <path id="Trazado_153426" data-name="Trazado 153426" d="M3340.826,4012.661c-1.769-1.021-3.2-.2-3.21,1.83a7.03,7.03,0,0,0,3.19,5.526c1.767,1.021,3.2.2,3.21-1.832A7.03,7.03,0,0,0,3340.826,4012.661Z" transform="translate(-3334.863 -4007.88)" fill-rule="evenodd" fill="url(#linear-gradient-20)"/>
            <path id="Trazado_153427" data-name="Trazado 153427" d="M3342.994,4016.178l0,3.676,3.171.259Z" transform="translate(-3338.406 -4010.486)" fill="#fff" fill-rule="evenodd"/>
          </g>
        </g>
        <path id="Trazado_153428" data-name="Trazado 153428" d="M3382.787,4047.792c.681.684,1.063,3.09,1.425,5.864.413,3.153-.782,6.227.078,8.875.534,1.643,3.25.258,4.7,3.231.767,1.568.783,2.994-.257,5.451-.342.808.857,4.632.86,5.119l-12.348-7.11-6.037-22.488c-.277-1.356-.031-2.972.839-3.659,1.938-2.91,5.047-4.977,8.43-7.227,4.264-2.836,7.99-.886,12.281,1.822l6.17,3.9,1.838,1.043C3396.472,4046.951,3388.675,4047.874,3382.787,4047.792Z" transform="translate(-3354.475 -3988.313)" fill="#6d6afd" fill-rule="evenodd" opacity="0.5" style="mix-blend-mode: multiply;isolation: isolate"/>
        <g id="Grupo_87315" data-name="Grupo 87315" transform="translate(15.398)">
          <g id="Grupo_87306" data-name="Grupo 87306" transform="translate(0 40.402)">
            <g id="Grupo_87303" data-name="Grupo 87303" transform="translate(8.676 31.28)">
              <path id="Trazado_153429" data-name="Trazado 153429" d="M3398.091,4113.872a4.152,4.152,0,0,1-.715-1.324,10.361,10.361,0,0,1-.388-3.237l-4.065,2.745c.138.472.278.978.422,1.522.381,1.438.595,2.81.936,4.244Z" transform="translate(-3392.923 -4109.311)" fill="#ff8b7b" fill-rule="evenodd"/>
              <path id="Trazado_153430" data-name="Trazado 153430" d="M3396.284,4126.047c7.115,15.4,5.873-2,3.312-5.506a6.336,6.336,0,0,1-.508-.917c-.29,1.732-2.386,3.632-3.874,3.449.232.635.113.709.387,1.357Z" transform="translate(-3394.432 -4116.105)" fill="#cee0ff" fill-rule="evenodd"/>
              <path id="Trazado_153431" data-name="Trazado 153431" d="M3406.85,4125.109a1.777,1.777,0,0,1,.395.99c.2,2.655-.571,2.14-.691,3.667-.117,1.484.453,1.729.441,2.766a8.16,8.16,0,0,1-2.843,6.917c-1.366,1.017-3.3,1.735-4.239.861-.5-1.363,2.182-6.461,2.24-6.913.2-1.416-.347-9.625,2.1-9.7A4.216,4.216,0,0,1,3406.85,4125.109Z" transform="translate(-3397.487 -4118.791)" fill="#cee0ff" fill-rule="evenodd"/>
              <path id="Trazado_153432" data-name="Trazado 153432" d="M3397.219,4127.8c.282,1.072.5,2.293.683,3a12.252,12.252,0,0,1,.679,4.519,11.2,11.2,0,0,1-.848,2.535c-.53,1.488.585,1.957,2.025,1.409a6.963,6.963,0,0,0,1.8-1.029c2.716-2.229,2.6-6.513,2.273-9.228a5.846,5.846,0,0,1,.408-2.606c.831-2.15-.656-3.745-2.935-3.979a1.153,1.153,0,0,1-.574-.217c.322,1.662-1.712,4.322-3.763,4.721C3397.052,4127.214,3397.142,4127.507,3397.219,4127.8Z" transform="translate(-3395.588 -4117.805)" fill-rule="evenodd" fill="url(#linear-gradient-21)"/>
              <path id="Trazado_153433" data-name="Trazado 153433" d="M3398.4,4140.577a2.349,2.349,0,0,1,.435-.248,3.068,3.068,0,0,1,1.283-.247l0-.312a3.378,3.378,0,0,0-1.415.273,2.693,2.693,0,0,0-.374.2l.074.333Zm1.07,4.854.1-.05a3.069,3.069,0,0,1,1.283-.246l0-.312a3.391,3.391,0,0,0-1.415.273l-.007,0c.014.109.027.22.038.332Zm-.149-.995.092-.043a3.069,3.069,0,0,1,1.283-.246l0-.312a3.384,3.384,0,0,0-1.415.273l-.024.011c.024.1.047.21.068.317Zm-.235-.986c.066-.038.137-.072.211-.105a3.067,3.067,0,0,1,1.282-.247l0-.312a3.386,3.386,0,0,0-1.415.274c-.055.024-.108.05-.16.077.029.1.057.21.084.314Zm-.273-1.019a2.351,2.351,0,0,1,.3-.159,3.066,3.066,0,0,1,1.283-.247l0-.312a3.387,3.387,0,0,0-1.415.273,2.486,2.486,0,0,0-.245.123c.022.094.043.182.064.263l.015.058Zm-.218-.944a2.432,2.432,0,0,1,.37-.2,3.069,3.069,0,0,1,1.283-.246l0-.312a3.4,3.4,0,0,0-1.415.273,2.793,2.793,0,0,0-.305.158Z" transform="translate(-3396.481 -4129.378)" fill="#e5efff" fill-rule="evenodd"/>
            </g>
            <g id="Grupo_87304" data-name="Grupo 87304" transform="translate(0 37.613)">
              <path id="Trazado_153434" data-name="Trazado 153434" d="M3370.942,4137.755c-.091,1.105-.293,2.329-.356,3.055a12.249,12.249,0,0,1-.868,4.485,11.449,11.449,0,0,1-1.984,2.847c.121,1.149,2.545.913,3.713-.081.586.052,1.072-.428,1.683-1.572,2.521-1.956,2.306-3.059,2.919-5.811a5.369,5.369,0,0,1,1.282-2.125c1.5-1.75.715-2.3-.88-4.285a3.271,3.271,0,0,1-.65-2.113,13.764,13.764,0,0,1,.8-4.28h-4.648c-.069,1.275-.167,2.555-.291,3.845-.142,1.48-.419,2.841-.6,4.3C3371,4136.578,3370.99,4137.172,3370.942,4137.755Z" transform="translate(-3367.652 -4127.875)" fill="#ffac9a" fill-rule="evenodd"/>
              <path id="Trazado_153435" data-name="Trazado 153435" d="M3377.139,4147.072c1.7.873,6.364-2.422,5.508-3.486a1.676,1.676,0,0,1-.332-.586,5.351,5.351,0,0,1-.2-.983c-.852,1.536-3.427,2.586-4.769,1.917a12.193,12.193,0,0,1-.088,1.408Z" transform="translate(-3373.849 -4137.191)" fill="#cee0ff" fill-rule="evenodd"/>
              <path id="Trazado_153436" data-name="Trazado 153436" d="M3379.674,4149.9a1.782,1.782,0,0,1,.042,1.065c-.7,2.57-1.253,1.826-1.876,3.226-.606,1.359-.15,1.782-.508,2.755a8.16,8.16,0,0,1-4.989,5.57c-1.627.5-3.69.533-4.283-.6-.014-1.45,4.214-5.362,4.419-5.768.659-1.268,2.886-9.188,5.215-8.439A4.22,4.22,0,0,1,3379.674,4149.9Z" transform="translate(-3367.866 -4140.906)" fill="#cee0ff" fill-rule="evenodd"/>
              <path id="Trazado_153437" data-name="Trazado 153437" d="M3370.785,4148.908c-.091,1.1-.293,2.329-.356,3.054a12.263,12.263,0,0,1-.868,4.486,11.2,11.2,0,0,1-1.646,2.107c-1,1.225-.1,2.04,1.438,2a6.958,6.958,0,0,0,2.04-.368c3.3-1.194,4.629-5.271,5.224-7.941a5.848,5.848,0,0,1,1.254-2.319c1.5-1.75.631-3.75-1.437-4.731a1.146,1.146,0,0,1-.469-.4c-.251,1.673-3.057,3.5-5.123,3.194C3370.823,4148.3,3370.81,4148.6,3370.785,4148.908Z" transform="translate(-3367.494 -4139.028)" fill-rule="evenodd" fill="url(#linear-gradient-22)"/>
              <path id="Trazado_153438" data-name="Trazado 153438" d="M3375.571,4159.642a2.3,2.3,0,0,1,.493-.089,3.068,3.068,0,0,1,1.291.2l.1-.3a3.387,3.387,0,0,0-1.425-.214,2.649,2.649,0,0,0-.419.065c-.013.113-.027.227-.041.339Zm-.612,4.932c.038,0,.076-.008.115-.012a3.07,3.07,0,0,1,1.292.2l.1-.3a3.378,3.378,0,0,0-1.425-.214h-.008c-.023.107-.048.216-.075.325Zm.191-.987.1-.01a3.069,3.069,0,0,1,1.291.2l.1-.3a3.389,3.389,0,0,0-1.425-.214l-.027,0c-.012.107-.026.214-.041.321Zm.108-1.008c.074-.013.153-.022.234-.029a3.078,3.078,0,0,1,1.292.2l.1-.295a3.373,3.373,0,0,0-1.425-.215c-.06,0-.119.011-.176.019-.008.109-.017.217-.025.324Zm.083-1.052a2.39,2.39,0,0,1,.337-.049,3.06,3.06,0,0,1,1.291.2l.1-.3a3.38,3.38,0,0,0-1.425-.215,2.583,2.583,0,0,0-.271.034c-.011.1-.02.186-.027.27l-.005.06Zm.109-.962a2.393,2.393,0,0,1,.417-.068,3.068,3.068,0,0,1,1.291.2l.1-.3a3.4,3.4,0,0,0-1.425-.215,2.768,2.768,0,0,0-.341.048Z" transform="translate(-3372.412 -4148.532)" fill="#e5efff" fill-rule="evenodd"/>
            </g>
            <path id="Trazado_153439" data-name="Trazado 153439" d="M3384.738,4020.564c-5.046,1.256-10.042,4.818-13.774,10.463-.735,1.017-1.353,2.073-1.748,2.541a3.226,3.226,0,0,0-.729,1.913c-.156,2.06,1.22,4.163,2.646,6.608,3.389,5.813,3.888,6.371,5.548,12.629l4.488-2.036c-.472-4.125,1.037-11.787-3.305-16.26l9.356-7.687,1.227-2.677Z" transform="translate(-3368.14 -4019.562)" fill-rule="evenodd" fill="url(#linear-gradient-23)"/>
            <path id="Trazado_153440" data-name="Trazado 153440" d="M3387.173,4020.564q-.64.159-1.278.368-.166.055-.332.113a16.155,16.155,0,0,0,.163,4.609c-4.26,1.963-9.71,4.458-12.6,8.283-1.357,1.794-.98,4.045-.595,6.376.327.574.681,1.165,1.038,1.777,3.389,5.813,3.888,6.371,5.548,12.629l4.488-2.036c-.471-4.125,1.037-11.787-3.3-16.26l9.356-7.687,1.227-2.677Z" transform="translate(-3370.576 -4019.562)" fill-rule="evenodd" opacity="0.3" fill="url(#linear-gradient-24)" style="mix-blend-mode: multiply;isolation: isolate"/>
            <path id="Trazado_153441" data-name="Trazado 153441" d="M3395.278,4113.055a7.594,7.594,0,0,0-.492-1.918c-.552.784-3.493,2.792-5.745,2.113a14.443,14.443,0,0,0,1.236,1.989A8.575,8.575,0,0,0,3395.278,4113.055Z" transform="translate(-3381.69 -4079.234)" fill-rule="evenodd" fill="url(#linear-gradient-25)"/>
            <g id="Grupo_87305" data-name="Grupo 87305" transform="translate(2.818)">
              <path id="Trazado_153442" data-name="Trazado 153442" d="M3381.844,4058.523c.366-4.465,3.469-10.021,3.53-14.714a1.557,1.557,0,0,0-.013-.208,8.072,8.072,0,0,0-.083-1.292c-.264-1.761-1.484-3.638-2.132-6.4l-.058-.175c2.286-.6,7.516-.756,11.505-1.459,6.214-.854,11.255-4.711,9.767-11.525a9.726,9.726,0,0,0-1.5-3.136c-4.314,2.836-9.547,2.267-14.51-1.991a8.232,8.232,0,0,0,.022,1.42,19.6,19.6,0,0,0,1.917,5.858,38.975,38.975,0,0,0-10.75,4.864,7.3,7.3,0,0,0-2.334,1.692,3.144,3.144,0,0,0-1,1.241c-.863,1.877-.3,4.326.183,7.115l.027.156q.078.46.143.917c.811,5.721.107,11.143-.467,16.715A9.745,9.745,0,0,0,3381.844,4058.523Z" transform="translate(-3375.754 -4017.626)" fill-rule="evenodd" fill="url(#linear-gradient-26)"/>
              <path id="Trazado_153443" data-name="Trazado 153443" d="M3382.493,4062.368c.366-4.465,3.469-10.021,3.53-14.714a1.547,1.547,0,0,0-.012-.207,8.075,8.075,0,0,0-.083-1.293c-.263-1.761-1.484-3.638-2.132-6.4l-.058-.175c2.285-.6,7.516-.757,11.505-1.459,6.214-.854,11.254-4.711,9.767-11.525a9.724,9.724,0,0,0-1.5-3.136,11.149,11.149,0,0,1-1.773.953c1.4,4.586.207,7.566-2.618,9.182-3.619,2.07-9.92,2.244-16.9,4.337-.612.5-.385,1.673.343,3.274,2.282,5.022,1.594,10.735-1.556,18.052-.553,1.284-2.456.958-4.03-.053a10.6,10.6,0,0,0-.229,2.242A9.745,9.745,0,0,0,3382.493,4062.368Z" transform="translate(-3376.403 -4021.471)" fill-rule="evenodd" opacity="0.3" fill="url(#linear-gradient-27)" style="mix-blend-mode: multiply;isolation: isolate"/>
              <path id="Trazado_153444" data-name="Trazado 153444" d="M3382.437,4131.485a6.934,6.934,0,0,0,.506-1.793c-.889.359-4.7.324-6.218-1.468a14.48,14.48,0,0,0-.042,2.342A7.107,7.107,0,0,0,3382.437,4131.485Z" transform="translate(-3376.348 -4090.492)" fill-rule="evenodd" fill="url(#linear-gradient-28)"/>
            </g>
          </g>
          <g id="Grupo_87307" data-name="Grupo 87307" transform="translate(14.774)">
            <path id="Trazado_153445" data-name="Trazado 153445" d="M3414.45,3900.528c-1.759-.012-2.943,1.371-3.4,3.053a9.421,9.421,0,0,0,.39,5.556c1.722,3.914.011,5.982-.435,7.99a8.385,8.385,0,0,0,.045,3.206c.264,1.454,1.217,2.082,2.116,3.285a11.658,11.658,0,0,0,1.562,3.465c2.506,3.583,9.289,4.491,15.494,3.283,4.965-.967,9.536-3.45,11.423-5.806,2.071-2.586,1.545-8.3-2.573-8.278a4.162,4.162,0,0,1-3.029-.892c-.65-.587-.377-2.427-.591-4.792-.207-2.291-1.079-4.6-4.5-4.913a10.9,10.9,0,0,1-3.718-.6c-2.53-1.173-2.1-4.109-4.846-5.394-1.658-.777-4.12-.635-6.665.494C3415.308,3900.3,3414.882,3900.415,3414.45,3900.528Z" transform="translate(-3410.799 -3899.203)" fill-rule="evenodd" fill="url(#linear-gradient-29)"/>
            <path id="Trazado_153446" data-name="Trazado 153446" d="M3414.811,3910a4.216,4.216,0,0,0,1.365,2.868c1.857,1.942,2.639,1.653,3.888,4.292,1.247-1.127,2.175-1.408,2.708-.56.856,1.362.579,2.283.951,3.769.6,2.415,3.037-1.377,5.611.162,2.531,1.513,1.173,3.038,2.431,5.523.471.93.914,2.179,1.891,2.477,3.039.925,4.626,4.149-.182,6.576-2.978,1.5-7.565,1.915-11.557,1.181-5.27-.97-9.458-7.915-8.7-11.62.315-1.533,1.585-2.832,1.425-3.969C3414.094,3916.788,3412.97,3914.394,3414.811,3910Z" transform="translate(-3412.335 -3906.317)" fill="#22043d" fill-rule="evenodd"/>
          </g>
          <g id="Grupo_87308" data-name="Grupo 87308" transform="translate(10.995 13.788)">
            <path id="Trazado_153447" data-name="Trazado 153447" d="M3403.444,3945.656a65.222,65.222,0,0,0-3.427,8.278c-.529,1.494-.208,1.732-.093,3.1l2.822.094c1.249-2.15,4.614-6.55,5.875-9.25.8-1.717,2.816-7.257-.34-8.12C3404.479,3938.717,3404.4,3943.773,3403.444,3945.656Z" transform="translate(-3399.722 -3939.617)" fill-rule="evenodd" fill="url(#linear-gradient-30)"/>
            <path id="Trazado_153448" data-name="Trazado 153448" d="M3409.3,3945.5c-.672,1.089-1.922,3.025-2.008,4.43-.151,2.463.366,4.186-.1,5.514-.529,1.494.081,2.126.2,3.492l1.121-2.062c.957-2.611,2.621-5.678,3.882-8.378.8-1.717,3.778-6.783.61-7.6C3409.989,3940.117,3410.411,3943.7,3409.3,3945.5Z" transform="translate(-3404.503 -3940.387)" fill-rule="evenodd" opacity="0.5" fill="url(#linear-gradient-31)" style="mix-blend-mode: multiply;isolation: isolate"/>
          </g>
          <g id="Grupo_87309" data-name="Grupo 87309" transform="translate(14.089 14.607)">
            <path id="Trazado_153449" data-name="Trazado 153449" d="M3424.343,3960.035c-1.487,3.442,1.042,5.88.131,8.251l.281,1.605c-3.861,3.869-12.4,1.748-14.831-2.116l-.051-1.927c-.418-.923-.169-3.441-.047-4.056a45.941,45.941,0,0,0,.422-5.257c.054-.572.162-.932.214-1.511-2.162-1.616-2.026-4.741-.744-6.613a16.466,16.466,0,0,0,1.681-2.969,13.4,13.4,0,0,1,.374-1.7,2.81,2.81,0,0,1,.453-.929c.617-.881,1.615-.987,3.652-.519,4.038.927,8.2,3.023,10.053,5,1.351,1.438,1.3,3.033.522,6.482A36.995,36.995,0,0,1,3424.343,3960.035Z" transform="translate(-3408.789 -3942.018)" fill-rule="evenodd" fill="url(#linear-gradient-32)"/>
            <path id="Trazado_153450" data-name="Trazado 153450" d="M3426.472,3974.374c-1.487,3.442,1.007,5.855.1,8.226l.261,1.625c-2.593,3.344-12.264,2.49-14.8-2.092l-.055-1.822c0-.067,4.808,4.121,10.233,1.734.963-.424.494-2.268-5.448-5.718-.792-.46.38-2.387.1-3.286-.086-.277,5.339.333,4.323-.1a10.016,10.016,0,0,1-2.581-1.229c1.808.767,5.218,1.817,5.386-2.783a8.4,8.4,0,0,1,1.431-5.033c.51-.693,3.5,2.944,3.047,4.688A43.65,43.65,0,0,1,3426.472,3974.374Z" transform="translate(-3410.889 -3956.377)" fill-rule="evenodd" opacity="0.5" fill="url(#linear-gradient-33)" style="mix-blend-mode: multiply;isolation: isolate"/>
          </g>
          <g id="Grupo_87310" data-name="Grupo 87310" transform="translate(16.579 5.302)">
            <path id="Trazado_153451" data-name="Trazado 153451" d="M3431.819,3933.985a10.592,10.592,0,0,0,1.157,5.073c-1.243,1.546-3.888,1.358-4.662.237.01-.8.051-1.539.017-2.354Z" transform="translate(-3424.143 -3927.42)" fill="#ffa698" fill-rule="evenodd"/>
            <path id="Trazado_153452" data-name="Trazado 153452" d="M3431.848,3933.985a10.187,10.187,0,0,0,.238,2.5c-.17,1.77-3.194,3.395-3.728,2.086.013-.538.025-1.067,0-1.632Z" transform="translate(-3424.172 -3927.42)" fill-rule="evenodd" fill="url(#linear-gradient-34)"/>
            <path id="Trazado_153453" data-name="Trazado 153453" d="M3416.716,3914.743a5.769,5.769,0,0,0-.358,4.046,1.7,1.7,0,0,1,0,.953,3.728,3.728,0,0,0,.194,3.241c.5,1.133.568,1.754,1.03,2.1a2.38,2.38,0,0,0,1.637.315,9.5,9.5,0,0,0,3.812-1.818c.731-.552.657-.845.881-1.649.978-1.142.146-1.747-.241-1.764-1.109-.051-1.1,1.218-1.7,1.587C3421.76,3919.556,3417.055,3916.484,3416.716,3914.743Z" transform="translate(-3416.089 -3914.743)" fill="#ffa698" fill-rule="evenodd"/>
            <path id="Trazado_153454" data-name="Trazado 153454" d="M3416.368,3917.513a5.674,5.674,0,0,0-.01,3.1,1.7,1.7,0,0,1,0,.953,3.728,3.728,0,0,0,.194,3.241c.224.508.36.914.486,1.237a1.018,1.018,0,0,0,1.308.177,1.958,1.958,0,0,0,.762-1.763c-.013-.64,1.213-1.244,1.384-1.922.143-.562-.54-1.066-.945-1.317A9.069,9.069,0,0,1,3416.368,3917.513Z" transform="translate(-3416.089 -3916.568)" fill-rule="evenodd" fill="url(#linear-gradient-35)"/>
            <path id="Trazado_153455" data-name="Trazado 153455" d="M3417.927,3914.743c1,2.592,4.8,4.1,5.26,7.012C3421.783,3918.87,3418.08,3917.3,3417.927,3914.743Z" transform="translate(-3417.3 -3914.743)" fill="#ff8f7f" fill-rule="evenodd"/>
          </g>
          <g id="Grupo_87314" data-name="Grupo 87314" transform="translate(8.759 20.068)">
            <g id="Grupo_87313" data-name="Grupo 87313" transform="translate(0 8.612)">
              <g id="Grupo_87312" data-name="Grupo 87312">
                <path id="Trazado_153456" data-name="Trazado 153456" d="M3402.229,3985.21l.434,1.191-2.4.826c-.778-.651-.744-1.87-.539-3.047C3400.33,3983.612,3402.486,3984.129,3402.229,3985.21Z" transform="translate(-3397.408 -3983.715)" fill="#ff8b7b" fill-rule="evenodd"/>
                <path id="Trazado_153457" data-name="Trazado 153457" d="M3398.476,3984.366l-.411.38a4.129,4.129,0,0,0,.054,2.31,3.626,3.626,0,0,0,1.9,1.556c1.6.491,2.293-1.451,1.7-1.975C3400.821,3985.839,3399.321,3985.21,3398.476,3984.366Z" transform="translate(-3396.308 -3983.992)" fill="#ff8b7b" fill-rule="evenodd"/>
                <g id="Grupo_87311" data-name="Grupo 87311">
                  <path id="Trazado_153458" data-name="Trazado 153458" d="M3393.168,3983.582l3.6,1.287.1-.309-3.6-1.245Z" transform="translate(-3393.168 -3983.299)" fill="#583663" fill-rule="evenodd"/>
                  <path id="Trazado_153459" data-name="Trazado 153459" d="M3403.8,3986.674l-.09.408,5.542,1.664.047-.283Z" transform="translate(-3400.111 -3985.512)" fill="#311b38" fill-rule="evenodd"/>
                  <path id="Trazado_153460" data-name="Trazado 153460" d="M3393.306,3983.268l3.6,1.288,5.542,1.664-4.349-1.6Z" transform="translate(-3393.259 -3983.268)" fill="#160004" fill-rule="evenodd"/>
                </g>
                <path id="Trazado_153461" data-name="Trazado 153461" d="M3401.4,3983.785a7.139,7.139,0,0,1,.731.957,1.09,1.09,0,0,1-1.116-.271,2.145,2.145,0,0,1-.923-.26l-.325-.07-.948-.26a1.378,1.378,0,0,1,1.274-.486A3.172,3.172,0,0,1,3401.4,3983.785Z" transform="translate(-3396.891 -3983.352)" fill="#ffa698" fill-rule="evenodd"/>
              </g>
              <path id="Trazado_153462" data-name="Trazado 153462" d="M3405.332,3984.918a13.811,13.811,0,0,1-1.491.516c.392.959,1.143.477,2.227.417l.7.241c-1.032.115-2.082.292-3.115.4-.553-.177-1.135-.419-1.672-.642-.608-.252-.561-.265-.627.509-.047.546-.079,1.07-.092,1.647l2.106,1.952a28.838,28.838,0,0,0,5.367-.354,5.162,5.162,0,0,1,2.882.42l.263-2.325c-1.586-.437-2.007-.566-2.62-1.141a18.565,18.565,0,0,0-1.549-1.546A3.462,3.462,0,0,0,3405.332,3984.918Z" transform="translate(-3398.501 -3984.255)" fill-rule="evenodd" fill="url(#linear-gradient-36)"/>
            </g>
            <path id="Trazado_153463" data-name="Trazado 153463" d="M3433.586,3962.988c-.084-2.366.222-4.649,2.786-4.955,2.44-.209,2.794,4.363,2.618,6.508-.186,2.256.129,8.329-.644,10.354a1.54,1.54,0,0,1-.949.958,1.5,1.5,0,0,1-.94.129c-1.881-.206-6.73-1.969-9.55-3.137-.309-.128-.686-.567-.937-.668-.331-.132-.637-.134-.839-.21a5.131,5.131,0,0,0,.244-2.77,4.707,4.707,0,0,0,.814.206c.286.047.617-.063.927-.029a37.5,37.5,0,0,1,7.09.989A65.662,65.662,0,0,1,3433.586,3962.988Z" transform="translate(-3414.226 -3958.026)" fill-rule="evenodd" fill="url(#linear-gradient-37)"/>
          </g>
        </g>
      </g>
    </g>
  </g>
</svg>
