<svg xmlns="http://www.w3.org/2000/svg" width="49.461" height="38.462" viewBox="0 0 49.461 38.462">
  <path id="brackets-curly-regular" d="M17.8,32H10.248a4.808,4.808,0,0,0-4.808,4.808V43.46a3.434,3.434,0,0,1-1.006,2.429L.547,49.771a2.06,2.06,0,0,0,0,2.919l3.884,3.884A3.434,3.434,0,0,1,5.441,59v6.652a4.808,4.808,0,0,0,4.808,4.808H17.8a1.374,1.374,0,0,0,1.374-1.374V67.715A1.374,1.374,0,0,0,17.8,66.341H10.248a.687.687,0,0,1-.687-.687V59A7.559,7.559,0,0,0,7.349,53.66L4.92,51.231,7.348,48.8A7.56,7.56,0,0,0,9.562,43.46V36.808a.687.687,0,0,1,.687-.687H17.8a1.374,1.374,0,0,0,1.374-1.374V33.374A1.374,1.374,0,0,0,17.8,32ZM48.8,49.771l-3.885-3.884A3.44,3.44,0,0,1,43.9,43.46V36.808A4.808,4.808,0,0,0,39.095,32H31.54a1.374,1.374,0,0,0-1.374,1.374v1.374a1.374,1.374,0,0,0,1.374,1.374h7.555a.687.687,0,0,1,.687.687V43.46A7.555,7.555,0,0,0,42,48.8l2.427,2.427L42,53.659A7.555,7.555,0,0,0,39.782,59v6.652a.687.687,0,0,1-.687.687H31.54a1.374,1.374,0,0,0-1.374,1.374v1.374a1.374,1.374,0,0,0,1.374,1.374h7.555A4.808,4.808,0,0,0,43.9,65.654V59a3.434,3.434,0,0,1,1.006-2.429L48.8,52.69a2.06,2.06,0,0,0,0-2.919Z" transform="translate(0.059 -32)" fill="#d07efc"/>
</svg>
