<svg xmlns="http://www.w3.org/2000/svg" width="495.394" height="386.804" viewBox="0 0 495.394 386.804">
  <g id="Grupo_87386" data-name="Grupo 87386" transform="translate(-924.605 -1963.196)">
    <path id="Trazado_151690" data-name="Trazado 151690" d="M1468.581,4144.686A177.319,177.319,0,0,1,1750.1,4001.23v286.911a177.319,177.319,0,0,1-281.522-143.456Z" transform="translate(-330.103 -2004.187)" fill="#7ff9ff"/>
    <g id="Grupo_86474" data-name="Grupo 86474" transform="translate(-702.236 -849.883)">
      <g id="Grupo_86466" data-name="Grupo 86466" transform="translate(1626.842 2835.774)">
        <g id="Grupo_86465" data-name="Grupo 86465">
          <g id="Grupo_86461" data-name="Grupo 86461">
            <path id="Trazado_151677" data-name="Trazado 151677" d="M1969.72,3083.408l-161.674,115.976a5.827,5.827,0,0,1-8.132-1.339l-166.892-232.653a5.827,5.827,0,0,1,1.338-8.132l161.674-115.976a5.827,5.827,0,0,1,8.132,1.339l166.892,232.653A5.827,5.827,0,0,1,1969.72,3083.408Z" transform="translate(-1629.276 -2837.887)" fill="#332938"/>
            <rect id="Rectángulo_7649" data-name="Rectángulo 7649" width="207.842" height="64.454" transform="translate(137.151 310.864) rotate(-35.654)" fill="#ffca80"/>
            <path id="Rectángulo_7650" data-name="Rectángulo 7650" d="M14.936,0H196.119a14.936,14.936,0,0,1,14.936,14.936V31.819a0,0,0,0,1,0,0H0a0,0,0,0,1,0,0V14.936A14.936,14.936,0,0,1,14.936,0Z" transform="matrix(0.813, -0.583, 0.583, 0.813, 0, 123.02)" fill="#547896"/>
            <path id="Trazado_151678" data-name="Trazado 151678" d="M1969.213,3083.251l-161.674,115.976a7.358,7.358,0,0,1-10.256-1.687l-166.892-232.654a7.358,7.358,0,0,1,1.688-10.256l161.674-115.976a7.358,7.358,0,0,1,10.256,1.688L1970.9,3073A7.358,7.358,0,0,1,1969.213,3083.251ZM1633.854,2957.1a4.311,4.311,0,0,0-.989,6.008l166.892,232.653a4.311,4.311,0,0,0,6.008.989l161.674-115.976a4.309,4.309,0,0,0,.988-6.007l-166.892-232.653a4.309,4.309,0,0,0-6.008-.989Z" transform="translate(-1627.882 -2836.495)" fill="#547896"/>
          </g>
          <g id="Grupo_86462" data-name="Grupo 86462" transform="translate(146.431 30.456)">
            <path id="Trazado_151679" data-name="Trazado 151679" d="M1908.442,2901.405a4.574,4.574,0,1,0,1.051-6.383A4.573,4.573,0,0,0,1908.442,2901.405Z" transform="translate(-1907.584 -2894.165)" fill="#fff"/>
          </g>
          <g id="Grupo_86463" data-name="Grupo 86463" transform="translate(161.517 19.634)">
            <path id="Trazado_151680" data-name="Trazado 151680" d="M1937.364,2880.657a4.574,4.574,0,1,0,1.051-6.382A4.574,4.574,0,0,0,1937.364,2880.657Z" transform="translate(-1936.506 -2873.417)" fill="#e68466"/>
          </g>
          <g id="Grupo_86464" data-name="Grupo 86464" transform="translate(130.366 39.214)">
            <circle id="Elipse_8310" data-name="Elipse 8310" cx="4.574" cy="4.574" r="4.574" transform="translate(0 8.079) rotate(-62.028)" fill="#fff"/>
          </g>
        </g>
      </g>
      <g id="Grupo_86470" data-name="Grupo 86470" transform="translate(1678.775 2905.768)">
        <g id="Grupo_86469" data-name="Grupo 86469" transform="translate(0 0)">
          <g id="Grupo_86467" data-name="Grupo 86467" transform="translate(52.882 86.856)">
            <rect id="Rectángulo_7651" data-name="Rectángulo 7651" width="5.224" height="5.224" transform="translate(0 67.961) rotate(-35.653)" fill="#b0b7c7"/>
            <rect id="Rectángulo_7652" data-name="Rectángulo 7652" width="5.224" height="5.224" transform="translate(6.537 77.073) rotate(-35.653)" fill="#b0b7c7"/>
            <rect id="Rectángulo_7653" data-name="Rectángulo 7653" width="5.224" height="5.224" transform="translate(13.073 86.185) rotate(-35.654)" fill="#b0b7c7"/>
            <rect id="Rectángulo_7654" data-name="Rectángulo 7654" width="5.224" height="5.224" transform="translate(19.61 95.298) rotate(-35.653)" fill="#b0b7c7"/>
            <rect id="Rectángulo_7655" data-name="Rectángulo 7655" width="5.224" height="5.224" transform="matrix(0.813, -0.583, 0.583, 0.813, 26.147, 104.41)" fill="#b0b7c7"/>
            <rect id="Rectángulo_7656" data-name="Rectángulo 7656" width="34.855" height="5.224" transform="matrix(0.813, -0.583, 0.583, 0.813, 35.609, 42.417)" fill="#fff"/>
            <rect id="Rectángulo_7657" data-name="Rectángulo 7657" width="58.947" height="5.224" transform="matrix(0.813, -0.583, 0.583, 0.813, 41.444, 50.552)" fill="#ffca80"/>
            <rect id="Rectángulo_7658" data-name="Rectángulo 7658" width="7.65" height="5.224" transform="matrix(0.813, -0.583, 0.583, 0.813, 75.553, 41.366)" fill="#f37453"/>
            <rect id="Rectángulo_7659" data-name="Rectángulo 7659" width="11.476" height="5.224" transform="matrix(0.813, -0.583, 0.583, 0.813, 86.53, 47.293)" fill="#f37453"/>
            <rect id="Rectángulo_7660" data-name="Rectángulo 7660" width="11.476" height="5.224" transform="translate(93.067 56.405) rotate(-35.653)" fill="#f37453"/>
            <rect id="Rectángulo_7661" data-name="Rectángulo 7661" width="11.476" height="5.224" transform="matrix(0.813, -0.583, 0.583, 0.813, 140.73, 22.214)" fill="#f37453"/>
            <rect id="Rectángulo_7662" data-name="Rectángulo 7662" width="4.937" height="5.224" transform="matrix(0.813, -0.583, 0.583, 0.813, 104.316, 48.336)" fill="#fff"/>
            <rect id="Rectángulo_7663" data-name="Rectángulo 7663" width="36.073" height="5.224" transform="matrix(0.813, -0.583, 0.583, 0.813, 109.741, 44.444)" fill="#fff"/>
            <rect id="Rectángulo_7664" data-name="Rectángulo 7664" width="6.558" height="5.224" transform="matrix(0.813, -0.583, 0.583, 0.813, 97.335, 39.542)" fill="#619ed7"/>
            <rect id="Rectángulo_7665" data-name="Rectángulo 7665" width="6.558" height="5.224" transform="matrix(0.813, -0.583, 0.583, 0.813, 122.057, 21.808)" fill="#ffd0ab"/>
            <rect id="Rectángulo_7666" data-name="Rectángulo 7666" width="20.315" height="5.224" transform="translate(103.996 34.764) rotate(-35.654)" fill="#fff"/>
            <rect id="Rectángulo_7667" data-name="Rectángulo 7667" width="4.827" height="5.224" transform="matrix(0.813, -0.583, 0.583, 0.813, 107.993, 2.814)" fill="#ffd0ab"/>
            <rect id="Rectángulo_7668" data-name="Rectángulo 7668" width="18.218" height="5.224" transform="matrix(0.813, -0.583, 0.583, 0.813, 91.192, 14.866)" fill="#619ed7"/>
            <rect id="Rectángulo_7669" data-name="Rectángulo 7669" width="11.296" height="5.224" transform="translate(77.577 12.311) rotate(-35.653)" fill="#fff"/>
          </g>
          <g id="Grupo_86468" data-name="Grupo 86468">
            <rect id="Rectángulo_7670" data-name="Rectángulo 7670" width="5.224" height="5.224" transform="translate(0 81.097) rotate(-35.653)" fill="#b0b7c7"/>
            <rect id="Rectángulo_7671" data-name="Rectángulo 7671" width="5.224" height="5.224" transform="translate(6.537 90.209) rotate(-35.654)" fill="#b0b7c7"/>
            <rect id="Rectángulo_7672" data-name="Rectángulo 7672" width="5.224" height="5.224" transform="translate(13.073 99.322) rotate(-35.653)" fill="#b0b7c7"/>
            <rect id="Rectángulo_7673" data-name="Rectángulo 7673" width="5.224" height="5.224" transform="translate(19.61 108.434) rotate(-35.654)" fill="#b0b7c7"/>
            <rect id="Rectángulo_7674" data-name="Rectángulo 7674" width="5.224" height="5.224" transform="translate(26.147 117.546) rotate(-35.653)" fill="#b0b7c7"/>
            <rect id="Rectángulo_7675" data-name="Rectángulo 7675" width="5.224" height="5.224" transform="translate(32.683 126.659) rotate(-35.653)" fill="#b0b7c7"/>
            <rect id="Rectángulo_7676" data-name="Rectángulo 7676" width="5.224" height="5.224" transform="translate(39.22 135.771) rotate(-35.654)" fill="#b0b7c7"/>
            <rect id="Rectángulo_7677" data-name="Rectángulo 7677" width="12.261" height="5.224" transform="matrix(0.813, -0.583, 0.583, 0.813, 22.854, 64.703)" fill="#f37453"/>
            <rect id="Rectángulo_7678" data-name="Rectángulo 7678" width="12.261" height="5.224" transform="matrix(0.813, -0.583, 0.583, 0.813, 29.391, 73.815)" fill="#f37453"/>
            <rect id="Rectángulo_7679" data-name="Rectángulo 7679" width="12.261" height="5.224" transform="matrix(0.813, -0.583, 0.583, 0.813, 30.472, 86.841)" fill="#f37453"/>
            <rect id="Rectángulo_7680" data-name="Rectángulo 7680" width="4.768" height="5.224" transform="matrix(0.813, -0.583, 0.583, 0.813, 42.464, 92.039)" fill="#f37453"/>
            <rect id="Rectángulo_7681" data-name="Rectángulo 7681" width="24.46" height="5.224" transform="matrix(0.813, -0.583, 0.583, 0.813, 112.416, 14.257)" fill="#f37453"/>
            <rect id="Rectángulo_7682" data-name="Rectángulo 7682" width="12.261" height="5.224" transform="matrix(0.813, -0.583, 0.583, 0.813, 41.409, 65.194)" fill="#fff"/>
            <rect id="Rectángulo_7683" data-name="Rectángulo 7683" width="62.777" height="5.224" transform="translate(57.831 53.414) rotate(-35.654)" fill="#fff"/>
            <rect id="Rectángulo_7684" data-name="Rectángulo 7684" width="7.006" height="5.224" transform="matrix(0.813, -0.583, 0.583, 0.813, 34.398, 56.421)" fill="#619ed7"/>
            <rect id="Rectángulo_7685" data-name="Rectángulo 7685" width="13.977" height="5.224" transform="translate(80.01 23.702) rotate(-35.653)" fill="#ffd0ab"/>
            <rect id="Rectángulo_7686" data-name="Rectángulo 7686" width="43.3" height="5.224" transform="translate(41.514 51.317) rotate(-35.653)" fill="#fff"/>
            <rect id="Rectángulo_7687" data-name="Rectángulo 7687" width="14.795" height="5.224" transform="matrix(0.813, -0.583, 0.583, 0.813, 48.315, 87.842)" fill="#619ed7"/>
            <rect id="Rectángulo_7688" data-name="Rectángulo 7688" width="10.901" height="5.224" transform="translate(81.057 64.355) rotate(-35.654)" fill="#ffd0ab"/>
            <rect id="Rectángulo_7689" data-name="Rectángulo 7689" width="40.965" height="5.224" transform="matrix(0.813, -0.583, 0.583, 0.813, 85.253, 75.147)" fill="#b0b7c7"/>
            <rect id="Rectángulo_7690" data-name="Rectángulo 7690" width="21.704" height="5.224" transform="matrix(0.813, -0.583, 0.583, 0.813, 61.761, 78.197)" fill="#fff"/>
            <rect id="Rectángulo_7691" data-name="Rectángulo 7691" width="8.174" height="5.224" transform="matrix(0.813, -0.583, 0.583, 0.813, 49.001, 101.152)" fill="#f37453"/>
            <rect id="Rectángulo_7692" data-name="Rectángulo 7692" width="12.947" height="5.224" transform="matrix(0.813, -0.583, 0.583, 0.813, 72.405, 84.363)" fill="#ffd0ab"/>
            <rect id="Rectángulo_7693" data-name="Rectángulo 7693" width="15.569" height="5.224" transform="translate(57.619 94.97) rotate(-35.654)" fill="#619ed7"/>
            <rect id="Rectángulo_7694" data-name="Rectángulo 7694" width="16.348" height="5.224" transform="matrix(0.813, -0.583, 0.583, 0.813, 56.239, 111.241)" fill="#fff"/>
            <rect id="Rectángulo_7695" data-name="Rectángulo 7695" width="23.752" height="5.224" transform="translate(62.074 119.376) rotate(-35.654)" fill="#f37453"/>
            <rect id="Rectángulo_7696" data-name="Rectángulo 7696" width="24.63" height="5.224" transform="matrix(0.813, -0.583, 0.583, 0.813, 98.137, 93.507)" fill="#ffd0ab"/>
            <rect id="Rectángulo_7697" data-name="Rectángulo 7697" width="15.569" height="5.224" transform="matrix(0.813, -0.583, 0.583, 0.813, 83.351, 104.114)" fill="#619ed7"/>
            <rect id="Rectángulo_7698" data-name="Rectángulo 7698" width="8.174" height="5.224" transform="matrix(0.813, -0.583, 0.583, 0.813, 72.368, 99.671)" fill="#fff"/>
          </g>
        </g>
      </g>
      <path id="Rectángulo_7699" data-name="Rectángulo 7699" d="M0,0H43.713a0,0,0,0,1,0,0V31.428A14.078,14.078,0,0,1,29.635,45.506H14.078A14.078,14.078,0,0,1,0,31.428V0A0,0,0,0,1,0,0Z" transform="translate(1884.531 3060.171) rotate(-35.653)" fill="#619ed7"/>
      <g id="Grupo_86471" data-name="Grupo 86471" transform="translate(1794.409 3129.608)">
        <path id="Trazado_151681" data-name="Trazado 151681" d="M1969.268,3405.12l-15.923,11.423a3.309,3.309,0,0,1-4.618-.76h0a3.31,3.31,0,0,1,.76-4.618l15.923-11.423a3.309,3.309,0,0,1,4.617.76h0A3.308,3.308,0,0,1,1969.268,3405.12Z" transform="translate(-1948.107 -3399.122)" fill="#fff"/>
        <path id="Trazado_151682" data-name="Trazado 151682" d="M1971.623,3425.8l-11.862,8.51a1.209,1.209,0,0,1-1.687-.278h0a1.209,1.209,0,0,1,.278-1.687l11.862-8.51a1.209,1.209,0,0,1,1.687.278h0A1.209,1.209,0,0,1,1971.623,3425.8Z" transform="translate(-1952.767 -3410.836)" fill="#fff"/>
        <path id="Trazado_151683" data-name="Trazado 151683" d="M1982.727,3429l-16.3,11.689a1.209,1.209,0,0,1-1.687-.278h0a1.209,1.209,0,0,1,.278-1.687l16.3-11.69a1.209,1.209,0,0,1,1.687.278h0A1.208,1.208,0,0,1,1982.727,3429Z" transform="translate(-1955.958 -3412.368)" fill="#fff"/>
      </g>
      <g id="Grupo_86472" data-name="Grupo 86472" transform="translate(1847.899 3091.238)">
        <path id="Trazado_151684" data-name="Trazado 151684" d="M2071.821,3331.555l-15.923,11.422a3.31,3.31,0,0,1-4.618-.76h0a3.309,3.309,0,0,1,.761-4.617l15.923-11.422a3.309,3.309,0,0,1,4.618.76h0A3.309,3.309,0,0,1,2071.821,3331.555Z" transform="translate(-2050.66 -3325.557)" fill="#fff"/>
        <path id="Trazado_151685" data-name="Trazado 151685" d="M2074.176,3352.232l-11.862,8.51a1.209,1.209,0,0,1-1.687-.278h0a1.209,1.209,0,0,1,.278-1.687l11.862-8.51a1.209,1.209,0,0,1,1.687.278h0A1.208,1.208,0,0,1,2074.176,3352.232Z" transform="translate(-2055.32 -3337.271)" fill="#fff"/>
        <path id="Trazado_151686" data-name="Trazado 151686" d="M2085.28,3355.435l-16.3,11.69a1.209,1.209,0,0,1-1.687-.278h0a1.209,1.209,0,0,1,.277-1.687l16.3-11.689a1.209,1.209,0,0,1,1.687.277h0A1.209,1.209,0,0,1,2085.28,3355.435Z" transform="translate(-2058.511 -3338.802)" fill="#fff"/>
      </g>
      <g id="Grupo_86473" data-name="Grupo 86473" transform="translate(1901.389 3052.867)">
        <path id="Trazado_151687" data-name="Trazado 151687" d="M2174.374,3257.989l-15.924,11.422a3.308,3.308,0,0,1-4.617-.76h0a3.309,3.309,0,0,1,.76-4.618l15.923-11.422a3.309,3.309,0,0,1,4.618.76h0A3.309,3.309,0,0,1,2174.374,3257.989Z" transform="translate(-2153.213 -3251.991)" fill="#fff"/>
        <path id="Trazado_151688" data-name="Trazado 151688" d="M2176.729,3278.667l-11.862,8.51a1.209,1.209,0,0,1-1.687-.278h0a1.209,1.209,0,0,1,.278-1.687l11.862-8.51a1.21,1.21,0,0,1,1.688.278h0A1.209,1.209,0,0,1,2176.729,3278.667Z" transform="translate(-2157.873 -3263.705)" fill="#fff"/>
        <path id="Trazado_151689" data-name="Trazado 151689" d="M2187.833,3281.87l-16.3,11.689a1.209,1.209,0,0,1-1.687-.278h0a1.209,1.209,0,0,1,.278-1.687l16.3-11.689a1.209,1.209,0,0,1,1.687.278h0A1.209,1.209,0,0,1,2187.833,3281.87Z" transform="translate(-2161.064 -3265.237)" fill="#fff"/>
      </g>
    </g>
  </g>
</svg>
