<svg xmlns="http://www.w3.org/2000/svg" xmlns:xlink="http://www.w3.org/1999/xlink" width="120" height="225.725" viewBox="0 0 120 225.725">
  <defs>
    <linearGradient id="linear-gradient" x1="0.39" y1="-0.18" x2="0.573" y2="0.952" gradientUnits="objectBoundingBox">
      <stop offset="0" stop-color="#ff66bc"/>
      <stop offset="0.47" stop-color="#ff8adc"/>
      <stop offset="1" stop-color="#ffbba8"/>
    </linearGradient>
    <linearGradient id="linear-gradient-2" x1="0.55" y1="0.301" x2="0.428" y2="0.787" gradientUnits="objectBoundingBox">
      <stop offset="0" stop-color="#7670b3"/>
      <stop offset="1" stop-color="#6d97cf"/>
    </linearGradient>
    <linearGradient id="linear-gradient-3" x1="0.609" y1="0.284" x2="0.482" y2="0.654" gradientUnits="objectBoundingBox">
      <stop offset="0" stop-color="#ff8a78"/>
      <stop offset="1" stop-color="#ffa799"/>
    </linearGradient>
    <linearGradient id="linear-gradient-4" x1="0.555" y1="0.429" x2="0.25" y2="0.705" gradientUnits="objectBoundingBox">
      <stop offset="0" stop-color="#ffb89e"/>
      <stop offset="1" stop-color="#ffa799"/>
    </linearGradient>
  </defs>
  <g id="Grupo_87262" data-name="Grupo 87262" transform="translate(-511.386 -2841.986)">
    <g id="Grupo_87247" data-name="Grupo 87247" transform="translate(563.554 2841.987)">
      <path id="Trazado_153310" data-name="Trazado 153310" d="M616.655,2848.211c.015-5.568,3.959-7.821,8.809-5.02l50.061,28.713c4.845,2.8,8.767,9.592,8.752,15.16l-.208,39.465c-.016,5.567-3.965,7.818-8.81,5.021l-50.06-28.713c-4.851-2.8-8.768-9.593-8.752-15.161Z" transform="translate(-616.446 -2841.987)" fill="#b5b3ff" fill-rule="evenodd" opacity="0.35"/>
      <path id="Trazado_153311" data-name="Trazado 153311" d="M623.449,2856.708c.014-5.013,3.564-7.042,7.93-4.52l45.066,25.848c4.362,2.519,7.893,8.635,7.879,13.647l-.188,35.528c-.014,5.012-3.569,7.038-7.931,4.52l-45.066-25.849c-4.367-2.521-7.893-8.636-7.879-13.647Z" transform="translate(-619.876 -2846.577)" fill="#b5b3ff" fill-rule="evenodd" opacity="0.35"/>
      <g id="Grupo_87246" data-name="Grupo 87246" transform="translate(22.917 29.754)">
        <path id="Trazado_153312" data-name="Trazado 153312" d="M662.635,2903c0-.979.7-1.375,1.548-.883l18.873,10.9a3.394,3.394,0,0,1,1.538,2.665l-.037,16.391c0,.979-.7,1.374-1.549.882l-18.872-10.9a3.39,3.39,0,0,1-1.539-2.665Z" transform="translate(-662.598 -2901.906)" fill-rule="evenodd" opacity="0.5" fill="url(#linear-gradient)"/>
        <path id="Trazado_153313" data-name="Trazado 153313" d="M678.772,2918.874c-3.267-1.887-5.92-.371-5.932,3.38a12.989,12.989,0,0,0,5.894,10.211c3.264,1.885,5.921.371,5.931-3.383A12.989,12.989,0,0,0,678.772,2918.874Z" transform="translate(-667.754 -2910.04)" fill-rule="evenodd" opacity="0.5" fill="url(#linear-gradient-2)"/>
        <path id="Trazado_153314" data-name="Trazado 153314" d="M679.668,2923.084l.007,6.791,5.859.479Z" transform="translate(-671.192 -2912.568)" fill="#fff" fill-rule="evenodd" opacity="0.5"/>
      </g>
    </g>
    <g id="Grupo_87261" data-name="Grupo 87261" transform="translate(511.386 2868.976)">
      <path id="Trazado_153315" data-name="Trazado 153315" d="M514.587,3243.037l33.849-19.278c3.69-1.686,8.972-3.028,12.731-1.072,3.425,1.783,9.069,5.431,11.563,6.855,1.9,1.081,8.474,5.022,4.377,7.25-12.054,6.555-23.983,13.927-36.223,20.584-2.315,1.26-5.7,1.715-9.256,1.42a24.515,24.515,0,0,1-10.026-2.986l-6-3.494c-2.655-1.546-4.063-3.374-4.2-5.064C511.261,3245.6,512.322,3244.071,514.587,3243.037Z" transform="translate(-511.386 -3060.148)" fill="#b5b3ff" fill-rule="evenodd" opacity="0.5"/>
      <g id="Grupo_87260" data-name="Grupo 87260" transform="translate(9.787)">
        <g id="Grupo_87249" data-name="Grupo 87249" transform="translate(7.134)">
          <g id="Grupo_87248" data-name="Grupo 87248" transform="translate(27.714)">
            <path id="Trazado_153316" data-name="Trazado 153316" d="M612.032,2897.055c-.255.537-.5,1.079-.764,1.61l-1.094,2.189c-.233-1.073-1.089-1.483-1.748-.943a1.874,1.874,0,0,0-.533.716c-.1-.292-.934-.953-2.055.64a1.229,1.229,0,0,0-1.362.785,8.916,8.916,0,0,0-.47,1.147,4.631,4.631,0,0,0-.327,1.555c.007,1.056.053,2.2.023,3.46-.032,1.368-1.584,3.1-2.427,4.1l5.079,1.61a28.294,28.294,0,0,1,1.977-2.472c.8-.807,1.8-.9,2.565-1.527a9.786,9.786,0,0,0,1.393-1.834c.6-.849.926-1.765,1.5-2.693a2.488,2.488,0,0,0,.579-1.827,19.568,19.568,0,0,1,.381-2.158c-1.043-.52-1.866.768-1.858,2.023a3.113,3.113,0,0,0-1.125,1.528c-.83-1.085-.336-1.539,0-2.932a14.033,14.033,0,0,0,1.195-2.8c.162-.429.324-.874.5-1.354a1.347,1.347,0,0,0-.3-1.488C612.96,2896.265,612.456,2896.323,612.032,2897.055Z" transform="translate(-601.275 -2896.339)" fill="#ffa293" fill-rule="evenodd"/>
            <path id="Trazado_153317" data-name="Trazado 153317" d="M617.844,2905.2c-.742.107-1.265,1.13-1.259,2.132a3.041,3.041,0,0,0-1.1,1.452,6.918,6.918,0,0,1,1.334-1.329,3.182,3.182,0,0,1,1.021-2.255Zm-3.88-.637-.094.189a1.925,1.925,0,0,0-.277-.672,2.714,2.714,0,0,1-.724,1.611,1.811,1.811,0,0,0,1.095-1.127Zm-2.383-.055a.627.627,0,0,0-.269-.274,4.294,4.294,0,0,1-.57,1.456,2.435,2.435,0,0,0,.839-1.182Zm-2.024.624-.024.033a1.692,1.692,0,0,0-.325-.007,3.306,3.306,0,0,1-.593,1.627A2.632,2.632,0,0,0,609.557,2905.129Z" transform="translate(-604.97 -2900.235)" fill="#ffc945" fill-rule="evenodd"/>
          </g>
          <path id="Trazado_153318" data-name="Trazado 153318" d="M564.753,2939.32c2.556-4.454,4.557-10.034,8.13-14.558.3-.377,1-.666,1.255-1.063q.559-.864,1.114-1.7a7.923,7.923,0,0,1,5.141,2.317q-.3.9-.591,1.781c-.226.688.208,2.16.011,2.848-1.761,6.188-4.285,10.554-6.884,16.235-3.543,4.57-22.872,32.525-26.9,23.742-1.3-2.844-.222-6.59,1.683-9.656a26.113,26.113,0,0,1,3.6-4.225C553.9,2952.362,560.867,2943.327,564.753,2939.32Z" transform="translate(-545.462 -2909.259)" fill="#ffc945" fill-rule="evenodd"/>
        </g>
        <g id="Grupo_87250" data-name="Grupo 87250" transform="translate(0 175.885)">
          <path id="Trazado_153319" data-name="Trazado 153319" d="M534.641,3261.21c.767-.018,3.353-2.448,5.8-1.221,2.942,1.474,8.527.168,11.346.845.5.12,1.483-.249,1.677.1.608,1.08,1.2,2.7-.3,3.752a25.591,25.591,0,0,1-5,2.354,42.314,42.314,0,0,1-6.32,1.789c-2.081.326-3.031.459-3.809,1.061a5.553,5.553,0,0,1-2.906.7,4.9,4.9,0,0,1-3.7-2.586,11.054,11.054,0,0,1,.029-4.1,20.758,20.758,0,0,1,1.31-3.581Z" transform="translate(-531.179 -3255.126)" fill="#fff" fill-rule="evenodd"/>
          <path id="Trazado_153320" data-name="Trazado 153320" d="M542.225,3251.4c-.931,2.234-.645,5.691-2.85,6.891a3.28,3.28,0,0,1-4.789-1.482c-.561-1.278.184-3.46.019-6.266Z" transform="translate(-532.746 -3250.546)" fill="#ffa495" fill-rule="evenodd"/>
          <path id="Trazado_153321" data-name="Trazado 153321" d="M541.189,3257.305c1.691.492,6.356.164,9.306.4,1.268.1,2.4.093,3,1.244.546,1.059.26,1.966-.975,2.84A20.907,20.907,0,0,1,548.01,3264a42.217,42.217,0,0,1-6.32,1.789c-2.081.326-3.03.459-3.809,1.061a5.544,5.544,0,0,1-2.906.7,5.115,5.115,0,0,1-3.7-2.75,10.177,10.177,0,0,1,.029-3.938,7.25,7.25,0,0,1,.217-.834c.232-2.22.965-3.117,1.656-2.737a4.269,4.269,0,0,1,1.663,2.226,2.172,2.172,0,0,0,1.286,1.226,2.539,2.539,0,0,0,2.832-1.245,8,8,0,0,0,.776-2.25c0-.075,0-.151,0-.226.221-1.94,1.166-1.771,1.022-1.362A1.67,1.67,0,0,0,541.189,3257.305Z" transform="translate(-531.096 -3252.989)" fill="#273087" fill-rule="evenodd"/>
          <path id="Trazado_153322" data-name="Trazado 153322" d="M575.007,3261.628c-.022.75,1.127.821.795,2.139.553-.542-.218-2.1-.56-2.333C575.1,3261.337,574.983,3261.3,575.007,3261.628Z" transform="translate(-553.201 -3255.993)" fill="#fff" fill-rule="evenodd"/>
        </g>
        <g id="Grupo_87251" data-name="Grupo 87251" transform="translate(19.061 166.791)">
          <path id="Trazado_153323" data-name="Trazado 153323" d="M574.51,3240.4c.715-.28,2.308-3.452,5.029-3.143a13.846,13.846,0,0,0,4.656-.671c2.858-.812,6.839-3.367,7.518-2.948,1.48.91,1.6,2.572.56,4.078a20.886,20.886,0,0,1-3.471,3.627,36.585,36.585,0,0,1-4.9,3.726c-1.571.872-2.093.795-3.212,2.307a5.255,5.255,0,0,1-2.487,1.574,5.918,5.918,0,0,1-4.86-1.825c-.543-1.758-1.485-3.421-.881-6.059Z" transform="translate(-570.884 -3232.919)" fill="#fff" fill-rule="evenodd"/>
          <path id="Trazado_153324" data-name="Trazado 153324" d="M576.884,3232.231c-.044,2.42,1.494,5.53-.116,7.458a3.28,3.28,0,0,1-5,.383c-.992-.982-1.1-3.286-2.286-5.834Z" transform="translate(-569.483 -3232.231)" fill="#ffa495" fill-rule="evenodd"/>
          <path id="Trazado_153325" data-name="Trazado 153325" d="M583.115,3235.583q.244-.064.489-.134c2.857-.812,6.676-2.781,7.355-2.363,1.481.911,1.762,1.986.722,3.492a20.882,20.882,0,0,1-3.471,3.627,36.763,36.763,0,0,1-4.9,3.727c-1.572.871-2.093.794-3.212,2.306a5.256,5.256,0,0,1-2.488,1.575,6.073,6.073,0,0,1-4.931-1.835,14.577,14.577,0,0,1-1-4.2c-.238-2.153-.09-3.247.847-3.22a5.191,5.191,0,0,1,3.18,1.417c1.549.966,2.587-.283,2.84-1.827a9.011,9.011,0,0,0-.142-2.041c-.024-.072-.051-.143-.08-.212-.508-1.886.432-2.075.449-1.643a1.619,1.619,0,0,0,1.438,1.648A12.688,12.688,0,0,0,583.115,3235.583Z" transform="translate(-570.537 -3232.633)" fill="#273087" fill-rule="evenodd"/>
          <path id="Trazado_153326" data-name="Trazado 153326" d="M610.177,3233.34c.3.687,1.37.256,1.639,1.588.266-.727-1.1-1.8-1.51-1.864C610.137,3233.037,610.012,3233.052,610.177,3233.34Z" transform="translate(-589.931 -3232.646)" fill="#fff" fill-rule="evenodd"/>
        </g>
        <g id="Grupo_87252" data-name="Grupo 87252" transform="translate(7.986 94.044)">
          <path id="Trazado_153327" data-name="Trazado 153327" d="M564.009,3093.117c.626,7.013,4.14,29.407,3.163,35.556-1.47,9.245-1.051,20.415-1.034,30.228-.248,4.123-5.917,6.278-7.567,3.657-1.325-8.768-3.21-16.45-3.976-21.322-.859-5.456-.575-12.086.81-15.672-.568-3.917-3.24-14.023-5.471-21.026-.8-2.527-5.367-10.692-.645-18.808Z" transform="translate(-547.179 -3085.73)" fill="#856de9" fill-rule="evenodd"/>
          <path id="Trazado_153328" data-name="Trazado 153328" d="M577.433,3227.783c0,.728-.022,1.836-.021,2.551-.248,4.123-5.988,6.36-7.638,3.739-.1-.646-.239-1.286-.342-1.919C571.65,3234.544,576,3231.438,577.433,3227.783Z" transform="translate(-558.381 -3157.245)" fill="#856de9" fill-rule="evenodd"/>
          <path id="Trazado_153329" data-name="Trazado 153329" d="M573.079,3133.9c-1.849,9.271-7.076,21.656-9.931,30.979-1.486-7.988-5.2-21.59-1.988-29.916-.324-2.231-1.329-6.47-2.548-11,2.474-4.691.11-8.434,1.278-15.039,6.55-1.142-3.335-9.136,10.525-.716C571.655,3118.159,572.82,3124.415,573.079,3133.9Z" transform="translate(-552.935 -3095.128)" fill="#856de9" fill-rule="evenodd" opacity="0.3" style="mix-blend-mode: multiply;isolation: isolate"/>
        </g>
        <g id="Grupo_87253" data-name="Grupo 87253" transform="translate(1.023 98.295)">
          <path id="Trazado_153330" data-name="Trazado 153330" d="M556.636,3137.6c-3.778,8.553-10.75,25.333-14.457,35.832-1.919,2.788-8.758,2.5-8.745-.1,1.51-8.777,3.285-22.314,6.435-30.012a69.084,69.084,0,0,1,5.8-9.707c1-3.874,2.246-14.336,3.211-20-.864-4.685-4.643-12.518,2.617-19.326,2.929,2.083,11.986,3.387,16.093,1.067C568.257,3113.862,563.715,3121.579,556.636,3137.6Z" transform="translate(-533.296 -3094.29)" fill="#856de9" fill-rule="evenodd"/>
          <path id="Trazado_153331" data-name="Trazado 153331" d="M542.807,3249.992c-.165.459-.494,1.385-.649,1.824-1.975,2.87-9.016,2.571-9-.106q.112-.65.226-1.333C535.06,3252.088,540.138,3252.11,542.807,3249.992Z" transform="translate(-533.156 -3172.677)" fill="#4c57b7" fill-rule="evenodd"/>
        </g>
        <path id="Trazado_153332" data-name="Trazado 153332" d="M546.3,3024.547c.61,5.5-1.043,10.9.64,15.922.075.518.123,2.553.212,3.106,1.108,6.5,14.86,13.08,26.328,6.842.064-.806-.009-1.648.053-3.142-.212-1.394.39-2.889.386-3.739-.016-3.538-1.117-5.347-.589-9.284,1.074-8.01,5.511-15.707,3.057-22.008a6.7,6.7,0,0,0-2.5-2.848c-2.71-2.177-16.728-9.315-20.977-9.819C540.578,2997.978,545.64,3018.583,546.3,3024.547Z" transform="translate(-537.953 -2948.269)" fill="#ffc945" fill-rule="evenodd"/>
        <path id="Trazado_153333" data-name="Trazado 153333" d="M596.067,3041.99c.483-2.1,1.159-4.507,1.778-6.968,1.24-4.928,2.251-10.053,1.015-13.228a6.7,6.7,0,0,0-2.5-2.848c-2.71-2.177-2.3,3.667-6.552,3.163-.676.9-.467,2.942-.244,4.89C590.371,3034.036,593.743,3044.163,596.067,3041.99Z" transform="translate(-560.425 -2957.819)" fill="#dfa61c" fill-rule="evenodd" opacity="0.35" style="mix-blend-mode: multiply;isolation: isolate"/>
        <g id="Grupo_87254" data-name="Grupo 87254" transform="translate(29.917 35.612)">
          <path id="Trazado_153334" data-name="Trazado 153334" d="M651.618,2984.532c.592-1.5.826-3.077,1.418-4.947,1.042-3.289,3.793-7.649,5.384-11.038.556-1.183,2.1,0,1.7,1.124-.388,1.1-1.512,3.961-1.516,3.969-.02.035-.041.07-.063.1a5.549,5.549,0,0,1,2.61,2.507c.63,1.253-.741,4.493-1.5,6.664-.67,1.924-3.151,2.187-3.524,3.591C654.045,2986.954,652.93,2985.89,651.618,2984.532Z" transform="translate(-621.688 -2968.056)" fill="#ffa293" fill-rule="evenodd"/>
          <path id="Trazado_153335" data-name="Trazado 153335" d="M613.319,3016.087c1.43-3.932,3.585-9.222,5.493-11.615a11.933,11.933,0,0,0,1.6-1.933c.25-.628.607-1.546.757-1.873,1.286-.191,3.426.719,5.03,1.8-.166.779-.31,1.592-.437,2.426-.095.621.4,1.881.317,2.521-.489,3.981-3.184,10.079-4.361,14.008a11.825,11.825,0,0,1-2.185,4.8,8.437,8.437,0,0,1-3.191,1.467c-.177.071-.359.137-.548.2l-.493-.114a3.581,3.581,0,0,1-1.444-.344c-.836-.2-1.71-.426-2.536-.65a84.777,84.777,0,0,1-15.027-5.588c-6.622-3.519-5.877-9.9-2-11.964,3.333-1.777,8.233,1.4,11.109,2.832C608.014,3013.351,610.959,3014.845,613.319,3016.087Z" transform="translate(-591.344 -2984.46)" fill="#ffc945" fill-rule="evenodd"/>
        </g>
        <g id="Grupo_87259" data-name="Grupo 87259" transform="translate(10.645 29.537)">
          <g id="Grupo_87257" data-name="Grupo 87257">
            <path id="Trazado_153336" data-name="Trazado 153336" d="M570.4,2977.927a35.315,35.315,0,0,0,.3,7.1c-3.8-.124-9.073-1.116-9.649-3.943.027-.339.051-.682.068-1.02a1.381,1.381,0,0,0-.155-.122c-1.361-.905-3.613-1.577-5.061-3.232-2.313-2.646-3.543-6.2-1.727-9.777,3.316-6.532,11.336-6.643,15.8-1.362.872,1.032.233,2.1.73,3.1.1.195.454.281.867.623.572.472,2.771,4.281,2.728,6.412C574.287,2976.461,571.267,2977.483,570.4,2977.927Z" transform="translate(-552.92 -2958.832)" fill="#ffa698" fill-rule="evenodd"/>
            <path id="Trazado_153337" data-name="Trazado 153337" d="M577.167,2992.089a35.5,35.5,0,0,0,.3,7.114c-3.8-.124-9.073-1.116-9.649-3.943.027-.339.051-.682.068-1.02-.052-.047-.109-.079-.155-.122-2.886-2.7.974-5.8,5.851-3.129C574.372,2992.252,575.6,2992.172,577.167,2992.089Z" transform="translate(-559.683 -2973.012)" fill-rule="evenodd" fill="url(#linear-gradient-3)"/>
            <path id="Trazado_153338" data-name="Trazado 153338" d="M588.037,2977.648c-.017.375-1.571.94-2.222,1.028.443-4.035-3.4-4.651-2.818-8.592.348-2.367-2.088-3.224-1.132-4.957a11.054,11.054,0,0,1,2.379,2.114c.872,1.032.233,2.1.73,3.1.1.195.454.281.867.623A14.226,14.226,0,0,1,588.037,2977.648Z" transform="translate(-567.188 -2960.507)" fill-rule="evenodd" fill="url(#linear-gradient-4)"/>
            <g id="Grupo_87255" data-name="Grupo 87255" transform="translate(14.33 14.567)">
              <path id="Trazado_153339" data-name="Trazado 153339" d="M582.679,2986.093c-.075-.9-.44-1.077-.743-.837a2.422,2.422,0,0,0-.526,1.975c.148,1.5,1.537,2.842,2.495,1.63-1.047.555-1.541-.787-1.585-1.735C582.289,2986.482,582.451,2985.942,582.679,2986.093Z" transform="translate(-581.392 -2985.158)" fill="#ffb49c" fill-rule="evenodd"/>
              <path id="Trazado_153340" data-name="Trazado 153340" d="M583.293,2988.2c.558.422.814.707.806.944-.006.164-.143.412-.634.239A2.128,2.128,0,0,1,583.293,2988.2Z" transform="translate(-582.34 -2986.691)" fill="#ff9d8e" fill-rule="evenodd"/>
            </g>
            <path id="Trazado_153341" data-name="Trazado 153341" d="M566.792,3000.422c-1.124.346-2.173,1.5-1.968,2.242,1.118,4.57,9.5,5.591,14.705,4.49.063-.013-1.95-2.675-2.947-3C573.3,3004.478,567.8,3003.12,566.792,3000.422Z" transform="translate(-558.708 -2978.276)" fill="#f4b030" fill-rule="evenodd"/>
            <g id="Grupo_87256" data-name="Grupo 87256">
              <path id="Trazado_153342" data-name="Trazado 153342" d="M560.214,2977.686c-1.389-1.482-3.739-2.19-5.247-3.915-1.488-1.7-3.116-4.311-2.122-6.992-1.752-5.51,4.235-9.878,9.276-10.871a3.917,3.917,0,0,1,4.2,5.776,5.282,5.282,0,0,1,1.213,4.027,3.68,3.68,0,0,0,.255,2.949c.4.929,1.387,3.177-.405,1.754-1.158-.92-1.968,1.112-1.576,2.516a6.42,6.42,0,0,1,.251,2.716C565.722,2978.595,560.987,2978.51,560.214,2977.686Z" transform="translate(-552.534 -2955.823)" fill="#12263f" fill-rule="evenodd"/>
            </g>
          </g>
          <g id="Grupo_87258" data-name="Grupo 87258" transform="translate(10.313 4.02)">
            <path id="Trazado_153344" data-name="Trazado 153344" d="M574.26,2975.024c-1.785-1.675-.827-3.4.88-6.08,1.567-2.464,2.2-4.485,2.142-5.026a3.664,3.664,0,0,1,3.192,1.971c.459.778.21,1.961-3.55,5.652C574.893,2973.533,573.693,2974.2,574.26,2975.024Z" transform="translate(-573.304 -2963.918)" fill="#3e4794" fill-rule="evenodd"/>
            <path id="Trazado_153345" data-name="Trazado 153345" d="M580.952,2973.343c1.669-1.4,2.453-1.988,1.854-3.9-.718-2.288-2.028-3.957-3.048-4.3.459.778.246,2.4-3.22,6.718-1.518,1.89-2.85,2.851-1.8,3.707C575.537,2976.22,579,2974.977,580.952,2973.343Z" transform="translate(-573.837 -2964.538)" fill="#1f2873" fill-rule="evenodd"/>
            <path id="Trazado_153346" data-name="Trazado 153346" d="M588.912,2970.107c-.386,1.41-1.462,1.708-1.618,1.568-.325-.291.755-2.142.623-3.418A8.876,8.876,0,0,1,588.912,2970.107Z" transform="translate(-580.316 -2966.103)" fill="#548ff9" fill-rule="evenodd"/>
          </g>
          <path id="Trazado_153347" data-name="Trazado 153347" d="M582.886,2982.248c.616.656,1.672,2.019,2.238,2.621.891.947.789,1.339,1.924,1a9.853,9.853,0,0,0,3.138-1.608,8.349,8.349,0,0,0-1.415-1.984c-.1-.031-.324.153-.482.192-.449-.574-.874-1.747-.5-2.333.084-.131-.4-.856-.557-.971-1.039.849-.514,2.872.079,3.825a6.291,6.291,0,0,1-1.1.563c-.664.168-2.138-1.595-2.676-2Z" transform="translate(-567.814 -2967.573)" fill="#12263f" fill-rule="evenodd"/>
        </g>
      </g>
    </g>
  </g>
</svg>
