<svg xmlns="http://www.w3.org/2000/svg" xmlns:xlink="http://www.w3.org/1999/xlink" width="281.251" height="209.19" viewBox="0 0 281.251 209.19">
  <defs>
    <clipPath id="clip-path">
      <path id="Trazado_153215" data-name="Trazado 153215" d="M3249.606,663.827l-5.45,2.639c-3.8.4-10-16.994-12-25.591s-8.4-18.345-8.4-18.345v24.743c-6.722,0-10.773,3.271-19,2.759a32.676,32.676,0,0,1-4.291-.559c-11.292-2.2-16.9-3.027-16.9-3.027l1.4-6.17s-8.4,10.4-12.4,14.594-11.544,1.808-11.544,1.808c.4-2.6-3.607-4.438-3.607-4.438.6-3.4,10.552-12.763,15.351-19.361s13.351-31.677,16.55-34.264c1.4-1.131,4.642-1.867,7.861-2.343,4.147-.612,8.241-.784,8.241-.784s5.886.256,11.628.844c2.435.248,4.842.56,6.766.936,3.867.752,10.064,11.148,12.664,18.345s10.064,22.264,13.463,30.833S3249.606,663.827,3249.606,663.827Z" transform="translate(-3157.432 -595.488)" fill="none"/>
    </clipPath>
  </defs>
  <g id="Grupo_87242" data-name="Grupo 87242" transform="translate(3428.626 5541.871)">
    <g id="Grupo_87241" data-name="Grupo 87241" transform="translate(-3395.952 -5435.227)">
      <g id="Grupo_87235" data-name="Grupo 87235" transform="translate(0)" opacity="0.74">
        <path id="Trazado_153307" data-name="Trazado 153307" d="M3526.941,595.3l-.77-.428a1.515,1.515,0,0,1-.781-1.346c0-.063,0-.125,0-.188s0-.126,0-.188a1.514,1.514,0,0,1,.781-1.346l.77-.428a1.522,1.522,0,0,0,.732-1.722c0-.007,0-.015-.008-.023a1.519,1.519,0,0,0-1.491-1.125l-.884.015a1.528,1.528,0,0,1-1.358-.792c-.055-.1-.111-.194-.167-.29a1.53,1.53,0,0,1-.01-1.576l.452-.752a1.519,1.519,0,0,0-.229-1.855l-.018-.019a1.521,1.521,0,0,0-1.856-.228l-.752.453a1.531,1.531,0,0,1-1.576-.01l-.29-.167a1.528,1.528,0,0,1-.792-1.357l.014-.884a1.519,1.519,0,0,0-1.125-1.492l-.023-.007a1.522,1.522,0,0,0-1.721.731l-.428.771a1.514,1.514,0,0,1-1.346.781l-.188,0-.188,0a1.515,1.515,0,0,1-1.346-.781l-.428-.771a1.522,1.522,0,0,0-1.722-.731l-.023.007a1.52,1.52,0,0,0-1.125,1.492l.014.884a1.528,1.528,0,0,1-.792,1.357l-.29.167a1.531,1.531,0,0,1-1.576.01l-.752-.453a1.52,1.52,0,0,0-1.855.228l-.019.019a1.521,1.521,0,0,0-.229,1.855l.453.752a1.531,1.531,0,0,1-.01,1.576c-.056.1-.112.193-.167.29a1.53,1.53,0,0,1-1.358.792l-.884-.015a1.52,1.52,0,0,0-1.491,1.125l-.007.023a1.521,1.521,0,0,0,.731,1.722l.77.428a1.513,1.513,0,0,1,.781,1.346c0,.063,0,.126,0,.188s0,.125,0,.188a1.514,1.514,0,0,1-.781,1.346l-.77.428a1.521,1.521,0,0,0-.731,1.721l.007.023a1.519,1.519,0,0,0,1.491,1.125l.884-.014a1.529,1.529,0,0,1,1.358.792q.083.146.167.29a1.531,1.531,0,0,1,.01,1.575l-.453.752a1.521,1.521,0,0,0,.229,1.856l.019.018a1.519,1.519,0,0,0,1.855.228l.752-.452a1.531,1.531,0,0,1,1.576.01l.29.167a1.527,1.527,0,0,1,.792,1.357l-.014.883a1.519,1.519,0,0,0,1.125,1.492l.023.007a1.522,1.522,0,0,0,1.722-.731l.428-.771a1.515,1.515,0,0,1,1.346-.78l.188,0,.188,0a1.514,1.514,0,0,1,1.346.78l.428.771a1.521,1.521,0,0,0,1.721.731l.023-.007a1.518,1.518,0,0,0,1.125-1.492l-.014-.883a1.528,1.528,0,0,1,.792-1.357l.29-.167a1.531,1.531,0,0,1,1.576-.01l.752.452a1.52,1.52,0,0,0,1.856-.228l.018-.018a1.52,1.52,0,0,0,.229-1.856l-.452-.752a1.529,1.529,0,0,1,.01-1.575l.167-.29a1.528,1.528,0,0,1,1.358-.792l.884.014a1.518,1.518,0,0,0,1.491-1.125c0-.007.005-.016.008-.023A1.522,1.522,0,0,0,3526.941,595.3Zm-13.062,6.6a8.564,8.564,0,1,1,8.563-8.564A8.563,8.563,0,0,1,3513.879,601.9Z" transform="translate(-3500.034 -579.493)" fill="#f0ebf7"/>
      </g>
      <path id="Trazado_153308" data-name="Trazado 153308" d="M3524.549,610.272a6.264,6.264,0,1,1,6.264-6.264A6.271,6.271,0,0,1,3524.549,610.272Zm0-11.19a4.926,4.926,0,1,0,4.926,4.926A4.931,4.931,0,0,0,3524.549,599.082Z" transform="translate(-3510.705 -590.164)" fill="#f0ebf7"/>
    </g>
    <path id="Trazado_153292" data-name="Trazado 153292" d="M2338.279,833.147s2.579-.771,6.1-6.056,9.345,1.9,13.85-6.735,7.5-11.315,15.3-3.918,12.762,10.149,18.85,5.64,9.584,2.21,15,6.639,10.627,1.813,12.631,4.43Z" transform="translate(-5658.845 -6237.871)" fill="#18b6fe" opacity="0.14"/>
    <path id="Trazado_153309" data-name="Trazado 153309" d="M2338.279,827.263s1.857-.555,4.393-4.36,6.729,1.371,9.971-4.849,5.4-8.146,11.019-2.821,9.188,7.307,13.571,4.061,6.9,1.591,10.8,4.78,7.651,1.306,9.094,3.189Z" transform="translate(-5726.701 -6347.057)" fill="#18b6fe" opacity="0.14"/>
    <g id="Grupo_87238" data-name="Grupo 87238" transform="translate(-3262.716 -5541.871)">
      <path id="Trazado_153015" data-name="Trazado 153015" d="M3380.535,771.7c.2.16,2.843,2.191,2.279,3.1-.584.948-7.817-3.239-9.66-4.454s-3.191-2.068-3.147-.584.584,4.9,0,5.034-1.663-2.427-2.427-5.3c-.372-1.388-.736-3.063-1.02-4.414a17.629,17.629,0,0,0,6.146-2.7,80.957,80.957,0,0,0,7.233,6.754s3.326,2.155,2.955,2.831C3382.538,772.607,3380.7,771.779,3380.535,771.7Z" transform="translate(-3267.582 -654.872)" fill="#f6a49d"/>
      <path id="Trazado_153016" data-name="Trazado 153016" d="M3371.991,757.655a17.631,17.631,0,0,1-6.146,2.7c-.3-1.46-.508-2.555-.508-2.555s3.6-5.526,4.811-2.7A10.818,10.818,0,0,0,3371.991,757.655Z" transform="translate(-3266.866 -650.145)" fill="#d47c74"/>
      <path id="Trazado_153017" data-name="Trazado 153017" d="M3145.032,734.616s-.712,1.1-1.74,2.575c-1.807,2.6-4.6,6.362-6.2,7.254-1.867,1.047-2.763.3-2.763.3a4.565,4.565,0,0,1-2.236.732c-.868-.12-.8-.832-.8-.832s-2.015.936-2.331.264.92-1.712.92-1.712c-1.147.436-1.819-.24-1.583-.752s3.243-2.019,4.074-2.651,4.47-4.15,3.363-3.795-5.378.436-4.746-.316,3.123-1.268,5.338-2.5a16.238,16.238,0,0,1,3.89-1.4c.875-.208,1.488-.3,1.488-.3Z" transform="translate(-3128.255 -636.811)" fill="#f6a49d"/>
      <path id="Trazado_153018" data-name="Trazado 153018" d="M3161.876,734.616s-.712,1.1-1.739,2.575a21,21,0,0,0-3.071-5.4c.875-.208,1.488-.3,1.488-.3Z" transform="translate(-3145.099 -636.811)" fill="#d47c74"/>
      <path id="Trazado_153019" data-name="Trazado 153019" d="M3216.81,958.542s-.636,7.81,0,11.716a57.7,57.7,0,0,1,.726,6.629h-24.974s.635-4.087,9.263-6.266,7.9-12.987,7.9-12.987Z" transform="translate(-3165.853 -769.027)" fill="#24292f"/>
      <path id="Trazado_153020" data-name="Trazado 153020" d="M3315.676,953.844a50.344,50.344,0,0,1-.818,10.625,44.094,44.094,0,0,0-1.09,8.628h21.524s-.229-4.268-6.335-5.721-5.2-9.445-5.562-14.258S3315.676,953.844,3315.676,953.844Z" transform="translate(-3236.716 -765.237)" fill="#24292f"/>
      <path id="Trazado_153021" data-name="Trazado 153021" d="M3271.8,818.82h-12.927s-7.765-37.19-8.6-43.588c-.816-6.274-8.109-31.4-8.393-32.356a.159.159,0,0,1,0-.028h-3.427s-3.7,31.453-3.171,41.753c.424,8.225.428,25.139.407,31.616,0,1.631-.007,2.6-.007,2.6h-13.8s-.819-40.561-1.931-57.315c-1.164-17.525,1.28-35.647,2.858-45,.684-4.047,1.208-6.449,1.208-6.449h33.052s.583,3.358,1.4,8.289c1.175,7.1,2.834,17.466,3.938,25.763,1.863,14.059,2.131,27.526,4.263,38.31S3271.8,818.82,3271.8,818.82Z" transform="translate(-3181.69 -624.282)" fill="#18b6fe"/>
      <path id="Trazado_153022" data-name="Trazado 153022" d="M3262.922,718.349c-6.49-.792-9.593,1.808-20.189-.164a96.206,96.206,0,0,0-15.467-1.675c.684-4.047,1.208-6.449,1.208-6.449h33.052S3262.11,713.418,3262.922,718.349Z" transform="translate(-3186.143 -624.282)" fill="#0692d2"/>
      <path id="Trazado_153023" data-name="Trazado 153023" d="M3254.565,779.917s-3.7,31.453-3.171,41.753c.424,8.225.428,25.139.408,31.616,0,0-2.807-7-1.208-21.992s-5.4-20.592-2.8-31.788,2.4-26.043,2.4-26.043l7.8,6.454Z" transform="translate(-3197.803 -661.351)" fill="#0692d2"/>
      <path id="Trazado_153024" data-name="Trazado 153024" d="M3226.515,851.1c-1.614,0-2.879-2.319-2.879-5.278s1.264-5.278,2.879-5.278,2.879,2.319,2.879,5.278S3228.129,851.1,3226.515,851.1Zm0-10.2c-1.389,0-2.52,2.206-2.52,4.919s1.131,4.919,2.52,4.919,2.52-2.206,2.52-4.919S3227.905,840.9,3226.515,840.9Z" transform="translate(-3184.021 -700.571)" fill="#fff"/>
      <path id="Trazado_153025" data-name="Trazado 153025" d="M3313.465,851.113c-1.535,0-2.962-2.1-3.319-4.881-.378-2.935.58-5.4,2.181-5.6s3.154,1.959,3.529,4.867a8.057,8.057,0,0,1-.334,3.762c-.407,1.085-1.063,1.739-1.848,1.84A1.691,1.691,0,0,1,3313.465,851.113Zm-.929-10.137a1.3,1.3,0,0,0-.164.01c-1.378.177-2.217,2.51-1.871,5.2.343,2.665,1.726,4.732,3.128,4.556.645-.083,1.2-.655,1.557-1.609a7.694,7.694,0,0,0,.314-3.591C3315.169,842.983,3313.867,840.977,3312.536,840.977Z" transform="translate(-3234.55 -700.613)" fill="#fff"/>
      <g id="Grupo_87210" data-name="Grupo 87210" transform="translate(12.119 38.191)">
        <g id="Grupo_87209" data-name="Grupo 87209" clip-path="url(#clip-path)">
          <path id="Trazado_153026" data-name="Trazado 153026" d="M3249.606,663.827l-5.45,2.639c-3.8.4-10-16.994-12-25.591s-8.4-18.345-8.4-18.345v24.743c-6.722,0-10.773,3.271-19,2.759a32.676,32.676,0,0,1-4.291-.559c-11.292-2.2-16.9-3.027-16.9-3.027l1.4-6.17s-8.4,10.4-12.4,14.594-11.544,1.808-11.544,1.808c.4-2.6-3.607-4.438-3.607-4.438.6-3.4,10.552-12.763,15.351-19.361s13.351-31.677,16.55-34.264c1.4-1.131,4.642-1.867,7.861-2.343,4.147-.612,8.241-.784,8.241-.784s5.886.256,11.628.844c2.435.248,4.842.56,6.766.936,3.867.752,10.064,11.148,12.664,18.345s10.064,22.264,13.463,30.833S3249.606,663.827,3249.606,663.827Z" transform="translate(-3157.432 -595.488)" fill="#cbc0e0"/>
          <path id="Trazado_153027" data-name="Trazado 153027" d="M3249.606,663.827l-5.45,2.639c-3.8.4-10-16.994-12-25.591s-8.4-18.345-8.4-18.345v24.743c-6.722,0-10.773,3.271-19,2.759a32.676,32.676,0,0,1-4.291-.559c-11.292-2.2-16.9-3.027-16.9-3.027l1.4-6.17s-8.4,10.4-12.4,14.594-11.544,1.808-11.544,1.808c.4-2.6-3.607-4.438-3.607-4.438.6-3.4,10.552-12.763,15.351-19.361s13.351-31.677,16.55-34.264c1.4-1.131,4.642-1.867,7.861-2.343,4.147-.612,8.241-.784,8.241-.784s5.886.256,11.628.844c2.435.248,4.842.56,6.766.936,3.867.752,10.064,11.148,12.664,18.345s10.064,22.264,13.463,30.833S3249.606,663.827,3249.606,663.827Z" transform="translate(-3157.432 -595.488)" fill="#cbc0e0"/>
          <path id="Trazado_153028" data-name="Trazado 153028" d="M3249.606,663.827l-5.45,2.639c-3.8.4-10-16.994-12-25.591s-8.4-18.345-8.4-18.345v24.743c-6.722,0-10.773,3.271-19,2.759a32.676,32.676,0,0,1-4.291-.559c-11.292-2.2-16.9-3.027-16.9-3.027l1.4-6.17s-8.4,10.4-12.4,14.594-11.544,1.808-11.544,1.808c.4-2.6-3.607-4.438-3.607-4.438.6-3.4,10.552-12.763,15.351-19.361s13.351-31.677,16.55-34.264c1.4-1.131,4.642-1.867,7.861-2.343,4.147-.612,8.241-.784,8.241-.784s5.886.256,11.628.844c2.435.248,4.842.56,6.766.936,3.867.752,10.064,11.148,12.664,18.345s10.064,22.264,13.463,30.833S3249.606,663.827,3249.606,663.827Z" transform="translate(-3157.432 -595.488)" fill="#cbc0e0"/>
          <path id="Trazado_153029" data-name="Trazado 153029" d="M3290.394,650.359V675.1c-6.722,0-10.773,3.271-19,2.759,1.263-6.094,5.486-4.494,7.2-10.56,2-7.066,7.6-6.13,6.929-14.043s2.931-12.747,3.2-8.725S3290.394,650.359,3290.394,650.359Z" transform="translate(-3224.062 -623.316)" fill="#c0afe0"/>
          <path id="Trazado_153030" data-name="Trazado 153030" d="M3193.453,663.558c-.536,3.667-3.4,16-3.4,16s-8.4,10.4-12.4,14.595-11.543,1.807-11.543,1.807,10.608.588,12.943-6.59,8.4-14.883,10.728-17.81S3193.985,659.892,3193.453,663.558Z" transform="translate(-3162.509 -634.769)" fill="#c0afe0"/>
          <g id="Grupo_87108" data-name="Grupo 87108" transform="translate(-6.561 -11.433)">
            <g id="Grupo_87019" data-name="Grupo 87019" transform="translate(0 10.377)">
              <g id="Grupo_87009" data-name="Grupo 87009" transform="translate(95.033)">
                <path id="Trazado_153031" data-name="Trazado 153031" d="M3370.783,595.28l-.344-2.276.4-.06.294,1.946,2.133.1.319,2.111,2.134.1.344,2.276-.4.061-.294-1.947-2.134-.1-.318-2.111Z" transform="translate(-3370.439 -592.944)" fill="#fff"/>
              </g>
              <g id="Grupo_87010" data-name="Grupo 87010" transform="translate(84.474)">
                <path id="Trazado_153032" data-name="Trazado 153032" d="M3345.36,595.28l-.344-2.276.4-.06.294,1.946,2.133.1.319,2.111,2.134.1.344,2.276-.4.061-.294-1.947-2.134-.1-.319-2.111Z" transform="translate(-3345.017 -592.944)" fill="#fff"/>
              </g>
              <g id="Grupo_87011" data-name="Grupo 87011" transform="translate(73.914)">
                <path id="Trazado_153033" data-name="Trazado 153033" d="M3319.937,595.28l-.343-2.276.4-.06.294,1.946,2.133.1.318,2.111,2.134.1.344,2.276-.4.061-.294-1.947-2.134-.1-.318-2.111Z" transform="translate(-3319.594 -592.944)" fill="#fff"/>
              </g>
              <g id="Grupo_87012" data-name="Grupo 87012" transform="translate(63.355)">
                <path id="Trazado_153034" data-name="Trazado 153034" d="M3294.514,595.28l-.343-2.276.4-.06.293,1.946,2.133.1.318,2.111,2.134.1.344,2.276-.4.061-.294-1.947-2.133-.1-.319-2.111Z" transform="translate(-3294.171 -592.944)" fill="#fff"/>
              </g>
              <g id="Grupo_87013" data-name="Grupo 87013" transform="translate(52.796)">
                <path id="Trazado_153035" data-name="Trazado 153035" d="M3269.092,595.28l-.343-2.276.4-.06.294,1.946,2.133.1.319,2.111,2.133.1.344,2.276-.4.061-.295-1.947-2.133-.1-.319-2.111Z" transform="translate(-3268.749 -592.944)" fill="#fff"/>
              </g>
              <g id="Grupo_87014" data-name="Grupo 87014" transform="translate(42.237)">
                <path id="Trazado_153036" data-name="Trazado 153036" d="M3243.669,595.28l-.343-2.276.4-.06.294,1.946,2.133.1.319,2.111,2.133.1.344,2.276-.4.061-.294-1.947-2.134-.1-.319-2.111Z" transform="translate(-3243.326 -592.944)" fill="#fff"/>
              </g>
              <g id="Grupo_87015" data-name="Grupo 87015" transform="translate(31.678)">
                <path id="Trazado_153037" data-name="Trazado 153037" d="M3218.246,595.28,3217.9,593l.4-.06.294,1.946,2.133.1.318,2.111,2.134.1.344,2.276-.4.061-.294-1.947-2.134-.1-.318-2.111Z" transform="translate(-3217.903 -592.944)" fill="#fff"/>
              </g>
              <g id="Grupo_87016" data-name="Grupo 87016" transform="translate(21.118)">
                <path id="Trazado_153038" data-name="Trazado 153038" d="M3192.824,595.28,3192.48,593l.4-.06.294,1.946,2.133.1.319,2.111,2.133.1.344,2.276-.4.061-.295-1.947-2.133-.1-.318-2.111Z" transform="translate(-3192.48 -592.944)" fill="#fff"/>
              </g>
              <g id="Grupo_87017" data-name="Grupo 87017" transform="translate(10.559)">
                <path id="Trazado_153039" data-name="Trazado 153039" d="M3167.4,595.28l-.343-2.276.4-.06.293,1.946,2.133.1.319,2.111,2.134.1.344,2.276-.4.061-.295-1.947-2.134-.1-.318-2.111Z" transform="translate(-3167.058 -592.944)" fill="#fff"/>
              </g>
              <g id="Grupo_87018" data-name="Grupo 87018">
                <path id="Trazado_153040" data-name="Trazado 153040" d="M3141.978,595.28l-.343-2.276.4-.06.294,1.946,2.133.1.319,2.111,2.133.1.344,2.276-.4.061-.294-1.947-2.134-.1-.319-2.111Z" transform="translate(-3141.635 -592.944)" fill="#fff"/>
              </g>
            </g>
            <g id="Grupo_87030" data-name="Grupo 87030" transform="translate(2.467)">
              <g id="Grupo_87020" data-name="Grupo 87020" transform="translate(95.033)">
                <path id="Trazado_153041" data-name="Trazado 153041" d="M3376.723,570.3l-.343-2.276.4-.06.294,1.946,2.133.1.318,2.111,2.134.1L3382,574.5l-.4.061-.295-1.947-2.134-.1-.319-2.111Z" transform="translate(-3376.38 -567.96)" fill="#fff"/>
              </g>
              <g id="Grupo_87021" data-name="Grupo 87021" transform="translate(84.474)">
                <path id="Trazado_153042" data-name="Trazado 153042" d="M3351.3,570.3l-.343-2.276.4-.06.293,1.946,2.133.1.319,2.111,2.133.1.344,2.276-.4.061-.295-1.947-2.133-.1-.319-2.111Z" transform="translate(-3350.957 -567.96)" fill="#fff"/>
              </g>
              <g id="Grupo_87022" data-name="Grupo 87022" transform="translate(73.914)">
                <path id="Trazado_153043" data-name="Trazado 153043" d="M3325.878,570.3l-.344-2.276.4-.06.293,1.946,2.133.1.319,2.111,2.133.1.344,2.276-.4.061-.295-1.947-2.133-.1-.318-2.111Z" transform="translate(-3325.534 -567.96)" fill="#fff"/>
              </g>
              <g id="Grupo_87023" data-name="Grupo 87023" transform="translate(63.355)">
                <path id="Trazado_153044" data-name="Trazado 153044" d="M3300.455,570.3l-.343-2.276.4-.06.294,1.946,2.133.1.319,2.111,2.134.1.344,2.276-.4.061-.294-1.947-2.134-.1-.319-2.111Z" transform="translate(-3300.112 -567.96)" fill="#fff"/>
              </g>
              <g id="Grupo_87024" data-name="Grupo 87024" transform="translate(52.796)">
                <path id="Trazado_153045" data-name="Trazado 153045" d="M3275.032,570.3l-.343-2.276.4-.06.294,1.946,2.133.1.318,2.111,2.133.1.344,2.276-.4.061-.294-1.947-2.134-.1-.318-2.111Z" transform="translate(-3274.689 -567.96)" fill="#fff"/>
              </g>
              <g id="Grupo_87025" data-name="Grupo 87025" transform="translate(42.237)">
                <path id="Trazado_153046" data-name="Trazado 153046" d="M3249.61,570.3l-.344-2.276.4-.06.293,1.946,2.133.1.318,2.111,2.133.1.344,2.276-.4.061-.294-1.947-2.134-.1-.318-2.111Z" transform="translate(-3249.266 -567.96)" fill="#fff"/>
              </g>
              <g id="Grupo_87026" data-name="Grupo 87026" transform="translate(31.678)">
                <path id="Trazado_153047" data-name="Trazado 153047" d="M3224.187,570.3l-.344-2.276.4-.06.294,1.946,2.133.1.319,2.111,2.134.1.344,2.276-.4.061-.294-1.947-2.134-.1-.319-2.111Z" transform="translate(-3223.843 -567.96)" fill="#fff"/>
              </g>
              <g id="Grupo_87027" data-name="Grupo 87027" transform="translate(21.118)">
                <path id="Trazado_153048" data-name="Trazado 153048" d="M3198.764,570.3l-.343-2.276.4-.06.293,1.946,2.133.1.319,2.111,2.133.1.344,2.276-.4.061-.295-1.947-2.133-.1-.319-2.111Z" transform="translate(-3198.421 -567.96)" fill="#fff"/>
              </g>
              <g id="Grupo_87028" data-name="Grupo 87028" transform="translate(10.559)">
                <path id="Trazado_153049" data-name="Trazado 153049" d="M3173.341,570.3l-.343-2.276.4-.06.293,1.946,2.133.1.318,2.111,2.134.1.344,2.276-.4.061-.294-1.947-2.134-.1-.318-2.111Z" transform="translate(-3172.998 -567.96)" fill="#fff"/>
              </g>
              <g id="Grupo_87029" data-name="Grupo 87029">
                <path id="Trazado_153050" data-name="Trazado 153050" d="M3147.919,570.3l-.344-2.276.4-.06.293,1.946,2.133.1.319,2.111,2.133.1.344,2.276-.4.061-.294-1.947-2.134-.1-.318-2.111Z" transform="translate(-3147.575 -567.96)" fill="#fff"/>
              </g>
            </g>
            <g id="Grupo_87041" data-name="Grupo 87041" transform="translate(2.467 20.45)">
              <g id="Grupo_87031" data-name="Grupo 87031" transform="translate(95.033)">
                <path id="Trazado_153051" data-name="Trazado 153051" d="M3376.723,619.533l-.343-2.276.4-.06.294,1.946,2.133.1.318,2.111,2.134.1.344,2.277-.4.061-.295-1.947-2.134-.1-.319-2.111Z" transform="translate(-3376.38 -617.197)" fill="#fff"/>
              </g>
              <g id="Grupo_87032" data-name="Grupo 87032" transform="translate(84.474)">
                <path id="Trazado_153052" data-name="Trazado 153052" d="M3351.3,619.533l-.343-2.276.4-.06.293,1.946,2.133.1.319,2.111,2.133.1.344,2.277-.4.061-.295-1.947-2.133-.1-.319-2.111Z" transform="translate(-3350.957 -617.197)" fill="#fff"/>
              </g>
              <g id="Grupo_87033" data-name="Grupo 87033" transform="translate(73.914)">
                <path id="Trazado_153053" data-name="Trazado 153053" d="M3325.878,619.533l-.344-2.276.4-.06.293,1.946,2.133.1.319,2.111,2.133.1.344,2.277-.4.061-.295-1.947-2.133-.1-.318-2.111Z" transform="translate(-3325.534 -617.197)" fill="#fff"/>
              </g>
              <g id="Grupo_87034" data-name="Grupo 87034" transform="translate(63.355)">
                <path id="Trazado_153054" data-name="Trazado 153054" d="M3300.455,619.533l-.343-2.276.4-.06.294,1.946,2.133.1.319,2.111,2.134.1.344,2.277-.4.061-.294-1.947-2.134-.1-.319-2.111Z" transform="translate(-3300.112 -617.197)" fill="#fff"/>
              </g>
              <g id="Grupo_87035" data-name="Grupo 87035" transform="translate(52.796)">
                <path id="Trazado_153055" data-name="Trazado 153055" d="M3275.032,619.533l-.343-2.276.4-.06.294,1.946,2.133.1.318,2.111,2.133.1.344,2.277-.4.061-.294-1.947-2.134-.1-.318-2.111Z" transform="translate(-3274.689 -617.197)" fill="#fff"/>
              </g>
              <g id="Grupo_87036" data-name="Grupo 87036" transform="translate(42.237)">
                <path id="Trazado_153056" data-name="Trazado 153056" d="M3249.61,619.533l-.344-2.276.4-.06.293,1.946,2.133.1.318,2.111,2.133.1.344,2.277-.4.061-.294-1.947-2.134-.1-.318-2.111Z" transform="translate(-3249.266 -617.197)" fill="#fff"/>
              </g>
              <g id="Grupo_87037" data-name="Grupo 87037" transform="translate(31.678)">
                <path id="Trazado_153057" data-name="Trazado 153057" d="M3224.187,619.533l-.344-2.276.4-.06.294,1.946,2.133.1.319,2.111,2.134.1.344,2.277-.4.061-.294-1.947-2.134-.1-.319-2.111Z" transform="translate(-3223.843 -617.197)" fill="#fff"/>
              </g>
              <g id="Grupo_87038" data-name="Grupo 87038" transform="translate(21.118)">
                <path id="Trazado_153058" data-name="Trazado 153058" d="M3198.764,619.533l-.343-2.276.4-.06.293,1.946,2.133.1.319,2.111,2.133.1.344,2.277-.4.061-.295-1.947-2.133-.1-.319-2.111Z" transform="translate(-3198.421 -617.197)" fill="#fff"/>
              </g>
              <g id="Grupo_87039" data-name="Grupo 87039" transform="translate(10.559)">
                <path id="Trazado_153059" data-name="Trazado 153059" d="M3173.341,619.533l-.343-2.276.4-.06.293,1.946,2.133.1.318,2.111,2.134.1.344,2.277-.4.061-.294-1.947-2.134-.1-.318-2.111Z" transform="translate(-3172.998 -617.197)" fill="#fff"/>
              </g>
              <g id="Grupo_87040" data-name="Grupo 87040">
                <path id="Trazado_153060" data-name="Trazado 153060" d="M3147.919,619.533l-.344-2.276.4-.06.293,1.946,2.133.1.319,2.111,2.133.1.344,2.277-.4.061-.294-1.947-2.134-.1-.318-2.111Z" transform="translate(-3147.575 -617.197)" fill="#fff"/>
              </g>
            </g>
            <g id="Grupo_87052" data-name="Grupo 87052" transform="translate(0 41.009)">
              <g id="Grupo_87042" data-name="Grupo 87042" transform="translate(95.033)">
                <path id="Trazado_153061" data-name="Trazado 153061" d="M3370.783,669.032l-.344-2.276.4-.06.294,1.946,2.133.1.319,2.111,2.134.1.344,2.277-.4.061-.294-1.947-2.134-.1-.318-2.111Z" transform="translate(-3370.439 -666.696)" fill="#fff"/>
              </g>
              <g id="Grupo_87043" data-name="Grupo 87043" transform="translate(84.474)">
                <path id="Trazado_153062" data-name="Trazado 153062" d="M3345.36,669.032l-.344-2.276.4-.06.294,1.946,2.133.1.319,2.111,2.134.1.344,2.277-.4.061-.294-1.947-2.134-.1-.319-2.111Z" transform="translate(-3345.017 -666.696)" fill="#fff"/>
              </g>
              <g id="Grupo_87044" data-name="Grupo 87044" transform="translate(73.914)">
                <path id="Trazado_153063" data-name="Trazado 153063" d="M3319.937,669.032l-.343-2.276.4-.06.294,1.946,2.133.1.318,2.111,2.134.1.344,2.277-.4.061-.294-1.947-2.134-.1-.318-2.111Z" transform="translate(-3319.594 -666.696)" fill="#fff"/>
              </g>
              <g id="Grupo_87045" data-name="Grupo 87045" transform="translate(63.355)">
                <path id="Trazado_153064" data-name="Trazado 153064" d="M3294.514,669.032l-.343-2.276.4-.06.293,1.946,2.133.1.318,2.111,2.134.1.344,2.277-.4.061-.294-1.947-2.133-.1-.319-2.111Z" transform="translate(-3294.171 -666.696)" fill="#fff"/>
              </g>
              <g id="Grupo_87046" data-name="Grupo 87046" transform="translate(52.796)">
                <path id="Trazado_153065" data-name="Trazado 153065" d="M3269.092,669.032l-.343-2.276.4-.06.294,1.946,2.133.1.319,2.111,2.133.1.344,2.277-.4.061-.295-1.947-2.133-.1-.319-2.111Z" transform="translate(-3268.749 -666.696)" fill="#fff"/>
              </g>
              <g id="Grupo_87047" data-name="Grupo 87047" transform="translate(42.237)">
                <path id="Trazado_153066" data-name="Trazado 153066" d="M3243.669,669.032l-.343-2.276.4-.06.294,1.946,2.133.1.319,2.111,2.133.1.344,2.277-.4.061-.294-1.947-2.134-.1-.319-2.111Z" transform="translate(-3243.326 -666.696)" fill="#fff"/>
              </g>
              <g id="Grupo_87048" data-name="Grupo 87048" transform="translate(31.678)">
                <path id="Trazado_153067" data-name="Trazado 153067" d="M3218.246,669.032l-.343-2.276.4-.06.294,1.946,2.133.1.318,2.111,2.134.1.344,2.277-.4.061-.294-1.947-2.134-.1-.318-2.111Z" transform="translate(-3217.903 -666.696)" fill="#fff"/>
              </g>
              <g id="Grupo_87049" data-name="Grupo 87049" transform="translate(21.118)">
                <path id="Trazado_153068" data-name="Trazado 153068" d="M3192.824,669.032l-.344-2.276.4-.06.294,1.946,2.133.1.319,2.111,2.133.1.344,2.277-.4.061-.295-1.947-2.133-.1-.318-2.111Z" transform="translate(-3192.48 -666.696)" fill="#fff"/>
              </g>
              <g id="Grupo_87050" data-name="Grupo 87050" transform="translate(10.559)">
                <path id="Trazado_153069" data-name="Trazado 153069" d="M3167.4,669.032l-.343-2.276.4-.06.293,1.946,2.133.1.319,2.111,2.134.1.344,2.277-.4.061-.295-1.947-2.134-.1-.318-2.111Z" transform="translate(-3167.058 -666.696)" fill="#fff"/>
              </g>
              <g id="Grupo_87051" data-name="Grupo 87051">
                <path id="Trazado_153070" data-name="Trazado 153070" d="M3141.978,669.032l-.343-2.276.4-.06.294,1.946,2.133.1.319,2.111,2.133.1.344,2.277-.4.061-.294-1.947-2.134-.1-.319-2.111Z" transform="translate(-3141.635 -666.696)" fill="#fff"/>
              </g>
            </g>
            <g id="Grupo_87063" data-name="Grupo 87063" transform="translate(2.467 30.633)">
              <g id="Grupo_87053" data-name="Grupo 87053" transform="translate(95.033)">
                <path id="Trazado_153071" data-name="Trazado 153071" d="M3376.723,644.049l-.343-2.276.4-.061.294,1.947,2.133.1.318,2.111,2.134.1.344,2.276-.4.061-.295-1.947-2.134-.1-.319-2.111Z" transform="translate(-3376.38 -641.712)" fill="#fff"/>
              </g>
              <g id="Grupo_87054" data-name="Grupo 87054" transform="translate(84.474)">
                <path id="Trazado_153072" data-name="Trazado 153072" d="M3351.3,644.049l-.343-2.276.4-.061.293,1.947,2.133.1.319,2.111,2.133.1.344,2.276-.4.061-.295-1.947-2.133-.1-.319-2.111Z" transform="translate(-3350.957 -641.712)" fill="#fff"/>
              </g>
              <g id="Grupo_87055" data-name="Grupo 87055" transform="translate(73.914)">
                <path id="Trazado_153073" data-name="Trazado 153073" d="M3325.878,644.049l-.344-2.276.4-.061.293,1.947,2.133.1.319,2.111,2.133.1.344,2.276-.4.061-.295-1.947-2.133-.1-.318-2.111Z" transform="translate(-3325.534 -641.712)" fill="#fff"/>
              </g>
              <g id="Grupo_87056" data-name="Grupo 87056" transform="translate(63.355)">
                <path id="Trazado_153074" data-name="Trazado 153074" d="M3300.455,644.049l-.343-2.276.4-.061.294,1.947,2.133.1.319,2.111,2.134.1.344,2.276-.4.061-.294-1.947-2.134-.1-.319-2.111Z" transform="translate(-3300.112 -641.712)" fill="#fff"/>
              </g>
              <g id="Grupo_87057" data-name="Grupo 87057" transform="translate(52.796)">
                <path id="Trazado_153075" data-name="Trazado 153075" d="M3275.032,644.049l-.343-2.276.4-.061.294,1.947,2.133.1.318,2.111,2.133.1.344,2.276-.4.061-.294-1.947-2.134-.1-.318-2.111Z" transform="translate(-3274.689 -641.712)" fill="#fff"/>
              </g>
              <g id="Grupo_87058" data-name="Grupo 87058" transform="translate(42.237)">
                <path id="Trazado_153076" data-name="Trazado 153076" d="M3249.61,644.049l-.344-2.276.4-.061.293,1.947,2.133.1.318,2.111,2.133.1.344,2.276-.4.061-.294-1.947-2.134-.1-.318-2.111Z" transform="translate(-3249.266 -641.712)" fill="#fff"/>
              </g>
              <g id="Grupo_87059" data-name="Grupo 87059" transform="translate(31.678)">
                <path id="Trazado_153077" data-name="Trazado 153077" d="M3224.187,644.049l-.344-2.276.4-.061.294,1.947,2.133.1.319,2.111,2.134.1.344,2.276-.4.061-.294-1.947-2.134-.1-.319-2.111Z" transform="translate(-3223.843 -641.712)" fill="#fff"/>
              </g>
              <g id="Grupo_87060" data-name="Grupo 87060" transform="translate(21.118)">
                <path id="Trazado_153078" data-name="Trazado 153078" d="M3198.764,644.049l-.343-2.276.4-.061.293,1.947,2.133.1.319,2.111,2.133.1.344,2.276-.4.061-.295-1.947-2.133-.1-.319-2.111Z" transform="translate(-3198.421 -641.712)" fill="#fff"/>
              </g>
              <g id="Grupo_87061" data-name="Grupo 87061" transform="translate(10.559)">
                <path id="Trazado_153079" data-name="Trazado 153079" d="M3173.341,644.049l-.343-2.276.4-.061.293,1.947,2.133.1.318,2.111,2.134.1.344,2.276-.4.061-.294-1.947-2.134-.1-.318-2.111Z" transform="translate(-3172.998 -641.712)" fill="#fff"/>
              </g>
              <g id="Grupo_87062" data-name="Grupo 87062">
                <path id="Trazado_153080" data-name="Trazado 153080" d="M3147.919,644.049l-.344-2.276.4-.061.293,1.947,2.133.1.319,2.111,2.133.1.344,2.276-.4.061-.294-1.947-2.134-.1-.318-2.111Z" transform="translate(-3147.575 -641.712)" fill="#fff"/>
              </g>
            </g>
            <g id="Grupo_87074" data-name="Grupo 87074" transform="translate(2.467 51.083)">
              <g id="Grupo_87064" data-name="Grupo 87064" transform="translate(95.033)">
                <path id="Trazado_153081" data-name="Trazado 153081" d="M3376.723,693.285l-.343-2.276.4-.061.294,1.947,2.133.1.318,2.111,2.134.1.344,2.276-.4.061-.295-1.947-2.134-.1-.319-2.111Z" transform="translate(-3376.38 -690.949)" fill="#fff"/>
              </g>
              <g id="Grupo_87065" data-name="Grupo 87065" transform="translate(84.474)">
                <path id="Trazado_153082" data-name="Trazado 153082" d="M3351.3,693.285l-.343-2.276.4-.061.293,1.947,2.133.1.319,2.111,2.133.1.344,2.276-.4.061-.295-1.947-2.133-.1-.319-2.111Z" transform="translate(-3350.957 -690.949)" fill="#fff"/>
              </g>
              <g id="Grupo_87066" data-name="Grupo 87066" transform="translate(73.914)">
                <path id="Trazado_153083" data-name="Trazado 153083" d="M3325.878,693.285l-.344-2.276.4-.061.293,1.947,2.133.1.319,2.111,2.133.1.344,2.276-.4.061-.295-1.947-2.133-.1-.318-2.111Z" transform="translate(-3325.534 -690.949)" fill="#fff"/>
              </g>
              <g id="Grupo_87067" data-name="Grupo 87067" transform="translate(63.355)">
                <path id="Trazado_153084" data-name="Trazado 153084" d="M3300.455,693.285l-.343-2.276.4-.061.294,1.947,2.133.1.319,2.111,2.134.1.344,2.276-.4.061-.294-1.947-2.134-.1-.319-2.111Z" transform="translate(-3300.112 -690.949)" fill="#fff"/>
              </g>
              <g id="Grupo_87068" data-name="Grupo 87068" transform="translate(52.796)">
                <path id="Trazado_153085" data-name="Trazado 153085" d="M3275.032,693.285l-.343-2.276.4-.061.294,1.947,2.133.1.318,2.111,2.133.1.344,2.276-.4.061-.294-1.947-2.134-.1-.318-2.111Z" transform="translate(-3274.689 -690.949)" fill="#fff"/>
              </g>
              <g id="Grupo_87069" data-name="Grupo 87069" transform="translate(42.237)">
                <path id="Trazado_153086" data-name="Trazado 153086" d="M3249.61,693.285l-.344-2.276.4-.061.293,1.947,2.133.1.318,2.111,2.133.1.344,2.276-.4.061-.294-1.947-2.134-.1-.318-2.111Z" transform="translate(-3249.266 -690.949)" fill="#fff"/>
              </g>
              <g id="Grupo_87070" data-name="Grupo 87070" transform="translate(31.678)">
                <path id="Trazado_153087" data-name="Trazado 153087" d="M3224.187,693.285l-.344-2.276.4-.061.294,1.947,2.133.1.319,2.111,2.134.1.344,2.276-.4.061-.294-1.947-2.134-.1-.319-2.111Z" transform="translate(-3223.843 -690.949)" fill="#fff"/>
              </g>
              <g id="Grupo_87071" data-name="Grupo 87071" transform="translate(21.118)">
                <path id="Trazado_153088" data-name="Trazado 153088" d="M3198.764,693.285l-.343-2.276.4-.061.293,1.947,2.133.1.319,2.111,2.133.1.344,2.276-.4.061-.295-1.947-2.133-.1-.319-2.111Z" transform="translate(-3198.421 -690.949)" fill="#fff"/>
              </g>
              <g id="Grupo_87072" data-name="Grupo 87072" transform="translate(10.559)">
                <path id="Trazado_153089" data-name="Trazado 153089" d="M3173.341,693.285,3173,691.01l.4-.061.293,1.947,2.133.1.318,2.111,2.134.1.344,2.276-.4.061-.294-1.947-2.134-.1-.318-2.111Z" transform="translate(-3172.998 -690.949)" fill="#fff"/>
              </g>
              <g id="Grupo_87073" data-name="Grupo 87073">
                <path id="Trazado_153090" data-name="Trazado 153090" d="M3147.919,693.285l-.344-2.276.4-.061.293,1.947,2.133.1.319,2.111,2.133.1.344,2.276-.4.061-.294-1.947-2.134-.1-.318-2.111Z" transform="translate(-3147.575 -690.949)" fill="#fff"/>
              </g>
            </g>
            <g id="Grupo_87085" data-name="Grupo 87085" transform="translate(0 71.739)">
              <g id="Grupo_87075" data-name="Grupo 87075" transform="translate(95.033)">
                <path id="Trazado_153091" data-name="Trazado 153091" d="M3370.783,743.019l-.344-2.276.4-.061.294,1.947,2.133.1.319,2.111,2.134.1.344,2.277-.4.061-.294-1.947-2.134-.1-.318-2.111Z" transform="translate(-3370.439 -740.683)" fill="#fff"/>
              </g>
              <g id="Grupo_87076" data-name="Grupo 87076" transform="translate(84.474)">
                <path id="Trazado_153092" data-name="Trazado 153092" d="M3345.36,743.019l-.344-2.276.4-.061.294,1.947,2.133.1.319,2.111,2.134.1.344,2.277-.4.061-.294-1.947-2.134-.1-.319-2.111Z" transform="translate(-3345.017 -740.683)" fill="#fff"/>
              </g>
              <g id="Grupo_87077" data-name="Grupo 87077" transform="translate(73.914)">
                <path id="Trazado_153093" data-name="Trazado 153093" d="M3319.937,743.019l-.343-2.276.4-.061.294,1.947,2.133.1.318,2.111,2.134.1.344,2.277-.4.061-.294-1.947-2.134-.1-.318-2.111Z" transform="translate(-3319.594 -740.683)" fill="#fff"/>
              </g>
              <g id="Grupo_87078" data-name="Grupo 87078" transform="translate(63.355)">
                <path id="Trazado_153094" data-name="Trazado 153094" d="M3294.514,743.019l-.343-2.276.4-.061.293,1.947,2.133.1.318,2.111,2.134.1.344,2.277-.4.061-.294-1.947-2.133-.1-.319-2.111Z" transform="translate(-3294.171 -740.683)" fill="#fff"/>
              </g>
              <g id="Grupo_87079" data-name="Grupo 87079" transform="translate(52.796)">
                <path id="Trazado_153095" data-name="Trazado 153095" d="M3269.092,743.019l-.343-2.276.4-.061.294,1.947,2.133.1.319,2.111,2.133.1.344,2.277-.4.061-.295-1.947-2.133-.1-.319-2.111Z" transform="translate(-3268.749 -740.683)" fill="#fff"/>
              </g>
              <g id="Grupo_87080" data-name="Grupo 87080" transform="translate(42.237)">
                <path id="Trazado_153096" data-name="Trazado 153096" d="M3243.669,743.019l-.343-2.276.4-.061.294,1.947,2.133.1.319,2.111,2.133.1.344,2.277-.4.061-.294-1.947-2.134-.1-.319-2.111Z" transform="translate(-3243.326 -740.683)" fill="#fff"/>
              </g>
              <g id="Grupo_87081" data-name="Grupo 87081" transform="translate(31.678)">
                <path id="Trazado_153097" data-name="Trazado 153097" d="M3218.246,743.019l-.343-2.276.4-.061.294,1.947,2.133.1.318,2.111,2.134.1.344,2.277-.4.061-.294-1.947-2.134-.1-.318-2.111Z" transform="translate(-3217.903 -740.683)" fill="#fff"/>
              </g>
              <g id="Grupo_87082" data-name="Grupo 87082" transform="translate(21.118)">
                <path id="Trazado_153098" data-name="Trazado 153098" d="M3192.824,743.019l-.344-2.276.4-.061.294,1.947,2.133.1.319,2.111,2.133.1.344,2.277-.4.061-.295-1.947-2.133-.1-.318-2.111Z" transform="translate(-3192.48 -740.683)" fill="#fff"/>
              </g>
              <g id="Grupo_87083" data-name="Grupo 87083" transform="translate(10.559)">
                <path id="Trazado_153099" data-name="Trazado 153099" d="M3167.4,743.019l-.343-2.276.4-.061.293,1.947,2.133.1.319,2.111,2.134.1.344,2.277-.4.061-.295-1.947-2.134-.1-.318-2.111Z" transform="translate(-3167.058 -740.683)" fill="#fff"/>
              </g>
              <g id="Grupo_87084" data-name="Grupo 87084">
                <path id="Trazado_153100" data-name="Trazado 153100" d="M3141.978,743.019l-.343-2.276.4-.061.294,1.947,2.133.1.319,2.111,2.133.1.344,2.277-.4.061-.294-1.947-2.134-.1-.319-2.111Z" transform="translate(-3141.635 -740.683)" fill="#fff"/>
              </g>
            </g>
            <g id="Grupo_87096" data-name="Grupo 87096" transform="translate(2.467 61.362)">
              <g id="Grupo_87086" data-name="Grupo 87086" transform="translate(95.033)">
                <path id="Trazado_153101" data-name="Trazado 153101" d="M3376.723,718.035l-.343-2.276.4-.06.294,1.947,2.133.1.318,2.111,2.134.1.344,2.277-.4.061-.295-1.947-2.134-.1-.319-2.111Z" transform="translate(-3376.38 -715.699)" fill="#fff"/>
              </g>
              <g id="Grupo_87087" data-name="Grupo 87087" transform="translate(84.474)">
                <path id="Trazado_153102" data-name="Trazado 153102" d="M3351.3,718.035l-.343-2.276.4-.06.293,1.947,2.133.1.319,2.111,2.133.1.344,2.277-.4.061-.295-1.947-2.133-.1-.319-2.111Z" transform="translate(-3350.957 -715.699)" fill="#fff"/>
              </g>
              <g id="Grupo_87088" data-name="Grupo 87088" transform="translate(73.914)">
                <path id="Trazado_153103" data-name="Trazado 153103" d="M3325.878,718.035l-.344-2.276.4-.06.293,1.947,2.133.1.319,2.111,2.133.1.344,2.277-.4.061-.295-1.947-2.133-.1-.318-2.111Z" transform="translate(-3325.534 -715.699)" fill="#fff"/>
              </g>
              <g id="Grupo_87089" data-name="Grupo 87089" transform="translate(63.355)">
                <path id="Trazado_153104" data-name="Trazado 153104" d="M3300.455,718.035l-.343-2.276.4-.06.294,1.947,2.133.1.319,2.111,2.134.1.344,2.277-.4.061-.294-1.947-2.134-.1-.319-2.111Z" transform="translate(-3300.112 -715.699)" fill="#fff"/>
              </g>
              <g id="Grupo_87090" data-name="Grupo 87090" transform="translate(52.796)">
                <path id="Trazado_153105" data-name="Trazado 153105" d="M3275.032,718.035l-.343-2.276.4-.06.294,1.947,2.133.1.318,2.111,2.133.1.344,2.277-.4.061-.294-1.947-2.134-.1-.318-2.111Z" transform="translate(-3274.689 -715.699)" fill="#fff"/>
              </g>
              <g id="Grupo_87091" data-name="Grupo 87091" transform="translate(42.237)">
                <path id="Trazado_153106" data-name="Trazado 153106" d="M3249.61,718.035l-.344-2.276.4-.06.293,1.947,2.133.1.318,2.111,2.133.1.344,2.277-.4.061-.294-1.947-2.134-.1-.318-2.111Z" transform="translate(-3249.266 -715.699)" fill="#fff"/>
              </g>
              <g id="Grupo_87092" data-name="Grupo 87092" transform="translate(31.678)">
                <path id="Trazado_153107" data-name="Trazado 153107" d="M3224.187,718.035l-.344-2.276.4-.06.294,1.947,2.133.1.319,2.111,2.134.1.344,2.277-.4.061-.294-1.947-2.134-.1-.319-2.111Z" transform="translate(-3223.843 -715.699)" fill="#fff"/>
              </g>
              <g id="Grupo_87093" data-name="Grupo 87093" transform="translate(21.118)">
                <path id="Trazado_153108" data-name="Trazado 153108" d="M3198.764,718.035l-.343-2.276.4-.06.293,1.947,2.133.1.319,2.111,2.133.1.344,2.277-.4.061-.295-1.947-2.133-.1-.319-2.111Z" transform="translate(-3198.421 -715.699)" fill="#fff"/>
              </g>
              <g id="Grupo_87094" data-name="Grupo 87094" transform="translate(10.559)">
                <path id="Trazado_153109" data-name="Trazado 153109" d="M3173.341,718.035l-.343-2.276.4-.06.293,1.947,2.133.1.318,2.111,2.134.1.344,2.277-.4.061-.294-1.947-2.134-.1-.318-2.111Z" transform="translate(-3172.998 -715.699)" fill="#fff"/>
              </g>
              <g id="Grupo_87095" data-name="Grupo 87095">
                <path id="Trazado_153110" data-name="Trazado 153110" d="M3147.919,718.035l-.344-2.276.4-.06.293,1.947,2.133.1.319,2.111,2.133.1.344,2.277-.4.061-.294-1.947-2.134-.1-.318-2.111Z" transform="translate(-3147.575 -715.699)" fill="#fff"/>
              </g>
            </g>
            <g id="Grupo_87107" data-name="Grupo 87107" transform="translate(2.467 81.813)">
              <g id="Grupo_87097" data-name="Grupo 87097" transform="translate(95.033)">
                <path id="Trazado_153111" data-name="Trazado 153111" d="M3376.723,767.272,3376.38,765l.4-.06.294,1.946,2.133.1.318,2.111,2.134.1.344,2.276-.4.061-.295-1.947-2.134-.1-.319-2.111Z" transform="translate(-3376.38 -764.936)" fill="#fff"/>
              </g>
              <g id="Grupo_87098" data-name="Grupo 87098" transform="translate(84.474)">
                <path id="Trazado_153112" data-name="Trazado 153112" d="M3351.3,767.272l-.343-2.276.4-.06.293,1.946,2.133.1.319,2.111,2.133.1.344,2.276-.4.061-.295-1.947-2.133-.1-.319-2.111Z" transform="translate(-3350.957 -764.936)" fill="#fff"/>
              </g>
              <g id="Grupo_87099" data-name="Grupo 87099" transform="translate(73.914)">
                <path id="Trazado_153113" data-name="Trazado 153113" d="M3325.878,767.272l-.344-2.276.4-.06.293,1.946,2.133.1.319,2.111,2.133.1.344,2.276-.4.061-.295-1.947-2.133-.1-.318-2.111Z" transform="translate(-3325.534 -764.936)" fill="#fff"/>
              </g>
              <g id="Grupo_87100" data-name="Grupo 87100" transform="translate(63.355)">
                <path id="Trazado_153114" data-name="Trazado 153114" d="M3300.455,767.272l-.343-2.276.4-.06.294,1.946,2.133.1.319,2.111,2.134.1.344,2.276-.4.061-.294-1.947-2.134-.1-.319-2.111Z" transform="translate(-3300.112 -764.936)" fill="#fff"/>
              </g>
              <g id="Grupo_87101" data-name="Grupo 87101" transform="translate(52.796)">
                <path id="Trazado_153115" data-name="Trazado 153115" d="M3275.032,767.272l-.343-2.276.4-.06.294,1.946,2.133.1.318,2.111,2.133.1.344,2.276-.4.061-.294-1.947-2.134-.1-.318-2.111Z" transform="translate(-3274.689 -764.936)" fill="#fff"/>
              </g>
              <g id="Grupo_87102" data-name="Grupo 87102" transform="translate(42.237)">
                <path id="Trazado_153116" data-name="Trazado 153116" d="M3249.61,767.272l-.344-2.276.4-.06.293,1.946,2.133.1.318,2.111,2.133.1.344,2.276-.4.061-.294-1.947-2.134-.1-.318-2.111Z" transform="translate(-3249.266 -764.936)" fill="#fff"/>
              </g>
              <g id="Grupo_87103" data-name="Grupo 87103" transform="translate(31.678)">
                <path id="Trazado_153117" data-name="Trazado 153117" d="M3224.187,767.272l-.344-2.276.4-.06.294,1.946,2.133.1.319,2.111,2.134.1.344,2.276-.4.061-.294-1.947-2.134-.1-.319-2.111Z" transform="translate(-3223.843 -764.936)" fill="#fff"/>
              </g>
              <g id="Grupo_87104" data-name="Grupo 87104" transform="translate(21.118)">
                <path id="Trazado_153118" data-name="Trazado 153118" d="M3198.764,767.272l-.343-2.276.4-.06.293,1.946,2.133.1.319,2.111,2.133.1.344,2.276-.4.061-.295-1.947-2.133-.1-.319-2.111Z" transform="translate(-3198.421 -764.936)" fill="#fff"/>
              </g>
              <g id="Grupo_87105" data-name="Grupo 87105" transform="translate(10.559)">
                <path id="Trazado_153119" data-name="Trazado 153119" d="M3173.341,767.272,3173,765l.4-.06.293,1.946,2.133.1.318,2.111,2.134.1.344,2.276-.4.061-.294-1.947-2.134-.1-.318-2.111Z" transform="translate(-3172.998 -764.936)" fill="#fff"/>
              </g>
              <g id="Grupo_87106" data-name="Grupo 87106">
                <path id="Trazado_153120" data-name="Trazado 153120" d="M3147.919,767.272l-.344-2.276.4-.06.293,1.946,2.133.1.319,2.111,2.133.1.344,2.276-.4.061-.294-1.947-2.134-.1-.318-2.111Z" transform="translate(-3147.575 -764.936)" fill="#fff"/>
              </g>
            </g>
          </g>
          <path id="Trazado_153121" data-name="Trazado 153121" d="M3249.606,663.827l-5.45,2.639c-3.8.4-10-16.994-12-25.591s-8.4-18.345-8.4-18.345v24.743c-6.722,0-10.773,3.271-19,2.759a32.676,32.676,0,0,1-4.291-.559c-11.292-2.2-16.9-3.027-16.9-3.027l1.4-6.17s-8.4,10.4-12.4,14.594-11.544,1.808-11.544,1.808c.4-2.6-3.607-4.438-3.607-4.438.6-3.4,10.552-12.763,15.351-19.361s13.351-31.677,16.55-34.264c1.4-1.131,4.642-1.867,7.861-2.343,4.147-.612,8.241-.784,8.241-.784s5.886.256,11.628.844c2.435.248,4.842.56,6.766.936,3.867.752,10.064,11.148,12.664,18.345s10.064,22.264,13.463,30.833S3249.606,663.827,3249.606,663.827Z" transform="translate(-3157.432 -595.488)" fill="#cbc0e0"/>
          <path id="Trazado_153122" data-name="Trazado 153122" d="M3249.606,663.827l-5.45,2.639c-3.8.4-10-16.994-12-25.591s-8.4-18.345-8.4-18.345v24.743c-6.722,0-10.773,3.271-19,2.759a32.676,32.676,0,0,1-4.291-.559c-11.292-2.2-16.9-3.027-16.9-3.027l1.4-6.17s-8.4,10.4-12.4,14.594-11.544,1.808-11.544,1.808c.4-2.6-3.607-4.438-3.607-4.438.6-3.4,10.552-12.763,15.351-19.361s13.351-31.677,16.55-34.264c1.4-1.131,4.642-1.867,7.861-2.343,4.147-.612,8.241-.784,8.241-.784s5.886.256,11.628.844c2.435.248,4.842.56,6.766.936,3.867.752,10.064,11.148,12.664,18.345s10.064,22.264,13.463,30.833S3249.606,663.827,3249.606,663.827Z" transform="translate(-3157.432 -595.488)" fill="#cbc0e0"/>
          <path id="Trazado_153123" data-name="Trazado 153123" d="M3290.394,650.359V675.1c-6.722,0-10.773,3.271-19,2.759,1.263-6.094,5.486-4.494,7.2-10.56,2-7.066,7.6-6.13,6.929-14.043s2.931-12.747,3.2-8.725S3290.394,650.359,3290.394,650.359Z" transform="translate(-3224.062 -623.316)" fill="#c0afe0"/>
          <path id="Trazado_153124" data-name="Trazado 153124" d="M3193.453,663.558c-.536,3.667-3.4,16-3.4,16s-8.4,10.4-12.4,14.595-11.543,1.807-11.543,1.807,10.608.588,12.943-6.59,8.4-14.883,10.728-17.81S3193.985,659.892,3193.453,663.558Z" transform="translate(-3162.509 -634.769)" fill="#c0afe0"/>
          <g id="Grupo_87208" data-name="Grupo 87208" transform="translate(-6.561 -11.433)">
            <g id="Grupo_87119" data-name="Grupo 87119" transform="translate(0 10.377)">
              <g id="Grupo_87109" data-name="Grupo 87109" transform="translate(95.033)">
                <path id="Trazado_153125" data-name="Trazado 153125" d="M3370.783,595.28l-.344-2.276.4-.06.294,1.946,2.133.1.319,2.111,2.134.1.344,2.276-.4.061-.294-1.947-2.134-.1-.318-2.111Z" transform="translate(-3370.439 -592.944)" fill="#fff"/>
              </g>
              <g id="Grupo_87110" data-name="Grupo 87110" transform="translate(84.474)">
                <path id="Trazado_153126" data-name="Trazado 153126" d="M3345.36,595.28l-.344-2.276.4-.06.294,1.946,2.133.1.319,2.111,2.134.1.344,2.276-.4.061-.294-1.947-2.134-.1-.319-2.111Z" transform="translate(-3345.017 -592.944)" fill="#fff"/>
              </g>
              <g id="Grupo_87111" data-name="Grupo 87111" transform="translate(73.914)">
                <path id="Trazado_153127" data-name="Trazado 153127" d="M3319.937,595.28l-.343-2.276.4-.06.294,1.946,2.133.1.318,2.111,2.134.1.344,2.276-.4.061-.294-1.947-2.134-.1-.318-2.111Z" transform="translate(-3319.594 -592.944)" fill="#fff"/>
              </g>
              <g id="Grupo_87112" data-name="Grupo 87112" transform="translate(63.355)">
                <path id="Trazado_153128" data-name="Trazado 153128" d="M3294.514,595.28l-.343-2.276.4-.06.293,1.946,2.133.1.318,2.111,2.134.1.344,2.276-.4.061-.294-1.947-2.133-.1-.319-2.111Z" transform="translate(-3294.171 -592.944)" fill="#fff"/>
              </g>
              <g id="Grupo_87113" data-name="Grupo 87113" transform="translate(52.796)">
                <path id="Trazado_153129" data-name="Trazado 153129" d="M3269.092,595.28l-.343-2.276.4-.06.294,1.946,2.133.1.319,2.111,2.133.1.344,2.276-.4.061-.295-1.947-2.133-.1-.319-2.111Z" transform="translate(-3268.749 -592.944)" fill="#fff"/>
              </g>
              <g id="Grupo_87114" data-name="Grupo 87114" transform="translate(42.237)">
                <path id="Trazado_153130" data-name="Trazado 153130" d="M3243.669,595.28l-.343-2.276.4-.06.294,1.946,2.133.1.319,2.111,2.133.1.344,2.276-.4.061-.294-1.947-2.134-.1-.319-2.111Z" transform="translate(-3243.326 -592.944)" fill="#fff"/>
              </g>
              <g id="Grupo_87115" data-name="Grupo 87115" transform="translate(31.678)">
                <path id="Trazado_153131" data-name="Trazado 153131" d="M3218.246,595.28,3217.9,593l.4-.06.294,1.946,2.133.1.318,2.111,2.134.1.344,2.276-.4.061-.294-1.947-2.134-.1-.318-2.111Z" transform="translate(-3217.903 -592.944)" fill="#fff"/>
              </g>
              <g id="Grupo_87116" data-name="Grupo 87116" transform="translate(21.118)">
                <path id="Trazado_153132" data-name="Trazado 153132" d="M3192.824,595.28,3192.48,593l.4-.06.294,1.946,2.133.1.319,2.111,2.133.1.344,2.276-.4.061-.295-1.947-2.133-.1-.318-2.111Z" transform="translate(-3192.48 -592.944)" fill="#fff"/>
              </g>
              <g id="Grupo_87117" data-name="Grupo 87117" transform="translate(10.559)">
                <path id="Trazado_153133" data-name="Trazado 153133" d="M3167.4,595.28l-.343-2.276.4-.06.293,1.946,2.133.1.319,2.111,2.134.1.344,2.276-.4.061-.295-1.947-2.134-.1-.318-2.111Z" transform="translate(-3167.058 -592.944)" fill="#fff"/>
              </g>
              <g id="Grupo_87118" data-name="Grupo 87118">
                <path id="Trazado_153134" data-name="Trazado 153134" d="M3141.978,595.28l-.343-2.276.4-.06.294,1.946,2.133.1.319,2.111,2.133.1.344,2.276-.4.061-.294-1.947-2.134-.1-.319-2.111Z" transform="translate(-3141.635 -592.944)" fill="#fff"/>
              </g>
            </g>
            <g id="Grupo_87130" data-name="Grupo 87130" transform="translate(2.467)">
              <g id="Grupo_87120" data-name="Grupo 87120" transform="translate(95.033)">
                <path id="Trazado_153135" data-name="Trazado 153135" d="M3376.723,570.3l-.343-2.276.4-.06.294,1.946,2.133.1.318,2.111,2.134.1L3382,574.5l-.4.061-.295-1.947-2.134-.1-.319-2.111Z" transform="translate(-3376.38 -567.96)" fill="#fff"/>
              </g>
              <g id="Grupo_87121" data-name="Grupo 87121" transform="translate(84.474)">
                <path id="Trazado_153136" data-name="Trazado 153136" d="M3351.3,570.3l-.343-2.276.4-.06.293,1.946,2.133.1.319,2.111,2.133.1.344,2.276-.4.061-.295-1.947-2.133-.1-.319-2.111Z" transform="translate(-3350.957 -567.96)" fill="#fff"/>
              </g>
              <g id="Grupo_87122" data-name="Grupo 87122" transform="translate(73.914)">
                <path id="Trazado_153137" data-name="Trazado 153137" d="M3325.878,570.3l-.344-2.276.4-.06.293,1.946,2.133.1.319,2.111,2.133.1.344,2.276-.4.061-.295-1.947-2.133-.1-.318-2.111Z" transform="translate(-3325.534 -567.96)" fill="#fff"/>
              </g>
              <g id="Grupo_87123" data-name="Grupo 87123" transform="translate(63.355)">
                <path id="Trazado_153138" data-name="Trazado 153138" d="M3300.455,570.3l-.343-2.276.4-.06.294,1.946,2.133.1.319,2.111,2.134.1.344,2.276-.4.061-.294-1.947-2.134-.1-.319-2.111Z" transform="translate(-3300.112 -567.96)" fill="#fff"/>
              </g>
              <g id="Grupo_87124" data-name="Grupo 87124" transform="translate(52.796)">
                <path id="Trazado_153139" data-name="Trazado 153139" d="M3275.032,570.3l-.343-2.276.4-.06.294,1.946,2.133.1.318,2.111,2.133.1.344,2.276-.4.061-.294-1.947-2.134-.1-.318-2.111Z" transform="translate(-3274.689 -567.96)" fill="#fff"/>
              </g>
              <g id="Grupo_87125" data-name="Grupo 87125" transform="translate(42.237)">
                <path id="Trazado_153140" data-name="Trazado 153140" d="M3249.61,570.3l-.344-2.276.4-.06.293,1.946,2.133.1.318,2.111,2.133.1.344,2.276-.4.061-.294-1.947-2.134-.1-.318-2.111Z" transform="translate(-3249.266 -567.96)" fill="#fff"/>
              </g>
              <g id="Grupo_87126" data-name="Grupo 87126" transform="translate(31.678)">
                <path id="Trazado_153141" data-name="Trazado 153141" d="M3224.187,570.3l-.344-2.276.4-.06.294,1.946,2.133.1.319,2.111,2.134.1.344,2.276-.4.061-.294-1.947-2.134-.1-.319-2.111Z" transform="translate(-3223.843 -567.96)" fill="#fff"/>
              </g>
              <g id="Grupo_87127" data-name="Grupo 87127" transform="translate(21.118)">
                <path id="Trazado_153142" data-name="Trazado 153142" d="M3198.764,570.3l-.343-2.276.4-.06.293,1.946,2.133.1.319,2.111,2.133.1.344,2.276-.4.061-.295-1.947-2.133-.1-.319-2.111Z" transform="translate(-3198.421 -567.96)" fill="#fff"/>
              </g>
              <g id="Grupo_87128" data-name="Grupo 87128" transform="translate(10.559)">
                <path id="Trazado_153143" data-name="Trazado 153143" d="M3173.341,570.3l-.343-2.276.4-.06.293,1.946,2.133.1.318,2.111,2.134.1.344,2.276-.4.061-.294-1.947-2.134-.1-.318-2.111Z" transform="translate(-3172.998 -567.96)" fill="#fff"/>
              </g>
              <g id="Grupo_87129" data-name="Grupo 87129">
                <path id="Trazado_153144" data-name="Trazado 153144" d="M3147.919,570.3l-.344-2.276.4-.06.293,1.946,2.133.1.319,2.111,2.133.1.344,2.276-.4.061-.294-1.947-2.134-.1-.318-2.111Z" transform="translate(-3147.575 -567.96)" fill="#fff"/>
              </g>
            </g>
            <g id="Grupo_87141" data-name="Grupo 87141" transform="translate(2.467 20.45)">
              <g id="Grupo_87131" data-name="Grupo 87131" transform="translate(95.033)">
                <path id="Trazado_153145" data-name="Trazado 153145" d="M3376.723,619.533l-.343-2.276.4-.06.294,1.946,2.133.1.318,2.111,2.134.1.344,2.277-.4.061-.295-1.947-2.134-.1-.319-2.111Z" transform="translate(-3376.38 -617.197)" fill="#fff"/>
              </g>
              <g id="Grupo_87132" data-name="Grupo 87132" transform="translate(84.474)">
                <path id="Trazado_153146" data-name="Trazado 153146" d="M3351.3,619.533l-.343-2.276.4-.06.293,1.946,2.133.1.319,2.111,2.133.1.344,2.277-.4.061-.295-1.947-2.133-.1-.319-2.111Z" transform="translate(-3350.957 -617.197)" fill="#fff"/>
              </g>
              <g id="Grupo_87133" data-name="Grupo 87133" transform="translate(73.914)">
                <path id="Trazado_153147" data-name="Trazado 153147" d="M3325.878,619.533l-.344-2.276.4-.06.293,1.946,2.133.1.319,2.111,2.133.1.344,2.277-.4.061-.295-1.947-2.133-.1-.318-2.111Z" transform="translate(-3325.534 -617.197)" fill="#fff"/>
              </g>
              <g id="Grupo_87134" data-name="Grupo 87134" transform="translate(63.355)">
                <path id="Trazado_153148" data-name="Trazado 153148" d="M3300.455,619.533l-.343-2.276.4-.06.294,1.946,2.133.1.319,2.111,2.134.1.344,2.277-.4.061-.294-1.947-2.134-.1-.319-2.111Z" transform="translate(-3300.112 -617.197)" fill="#fff"/>
              </g>
              <g id="Grupo_87135" data-name="Grupo 87135" transform="translate(52.796)">
                <path id="Trazado_153149" data-name="Trazado 153149" d="M3275.032,619.533l-.343-2.276.4-.06.294,1.946,2.133.1.318,2.111,2.133.1.344,2.277-.4.061-.294-1.947-2.134-.1-.318-2.111Z" transform="translate(-3274.689 -617.197)" fill="#fff"/>
              </g>
              <g id="Grupo_87136" data-name="Grupo 87136" transform="translate(42.237)">
                <path id="Trazado_153150" data-name="Trazado 153150" d="M3249.61,619.533l-.344-2.276.4-.06.293,1.946,2.133.1.318,2.111,2.133.1.344,2.277-.4.061-.294-1.947-2.134-.1-.318-2.111Z" transform="translate(-3249.266 -617.197)" fill="#fff"/>
              </g>
              <g id="Grupo_87137" data-name="Grupo 87137" transform="translate(31.678)">
                <path id="Trazado_153151" data-name="Trazado 153151" d="M3224.187,619.533l-.344-2.276.4-.06.294,1.946,2.133.1.319,2.111,2.134.1.344,2.277-.4.061-.294-1.947-2.134-.1-.319-2.111Z" transform="translate(-3223.843 -617.197)" fill="#fff"/>
              </g>
              <g id="Grupo_87138" data-name="Grupo 87138" transform="translate(21.118)">
                <path id="Trazado_153152" data-name="Trazado 153152" d="M3198.764,619.533l-.343-2.276.4-.06.293,1.946,2.133.1.319,2.111,2.133.1.344,2.277-.4.061-.295-1.947-2.133-.1-.319-2.111Z" transform="translate(-3198.421 -617.197)" fill="#fff"/>
              </g>
              <g id="Grupo_87139" data-name="Grupo 87139" transform="translate(10.559)">
                <path id="Trazado_153153" data-name="Trazado 153153" d="M3173.341,619.533l-.343-2.276.4-.06.293,1.946,2.133.1.318,2.111,2.134.1.344,2.277-.4.061-.294-1.947-2.134-.1-.318-2.111Z" transform="translate(-3172.998 -617.197)" fill="#fff"/>
              </g>
              <g id="Grupo_87140" data-name="Grupo 87140">
                <path id="Trazado_153154" data-name="Trazado 153154" d="M3147.919,619.533l-.344-2.276.4-.06.293,1.946,2.133.1.319,2.111,2.133.1.344,2.277-.4.061-.294-1.947-2.134-.1-.318-2.111Z" transform="translate(-3147.575 -617.197)" fill="#fff"/>
              </g>
            </g>
            <g id="Grupo_87152" data-name="Grupo 87152" transform="translate(0 41.009)">
              <g id="Grupo_87142" data-name="Grupo 87142" transform="translate(95.033)">
                <path id="Trazado_153155" data-name="Trazado 153155" d="M3370.783,669.032l-.344-2.276.4-.06.294,1.946,2.133.1.319,2.111,2.134.1.344,2.277-.4.061-.294-1.947-2.134-.1-.318-2.111Z" transform="translate(-3370.439 -666.696)" fill="#fff"/>
              </g>
              <g id="Grupo_87143" data-name="Grupo 87143" transform="translate(84.474)">
                <path id="Trazado_153156" data-name="Trazado 153156" d="M3345.36,669.032l-.344-2.276.4-.06.294,1.946,2.133.1.319,2.111,2.134.1.344,2.277-.4.061-.294-1.947-2.134-.1-.319-2.111Z" transform="translate(-3345.017 -666.696)" fill="#fff"/>
              </g>
              <g id="Grupo_87144" data-name="Grupo 87144" transform="translate(73.914)">
                <path id="Trazado_153157" data-name="Trazado 153157" d="M3319.937,669.032l-.343-2.276.4-.06.294,1.946,2.133.1.318,2.111,2.134.1.344,2.277-.4.061-.294-1.947-2.134-.1-.318-2.111Z" transform="translate(-3319.594 -666.696)" fill="#fff"/>
              </g>
              <g id="Grupo_87145" data-name="Grupo 87145" transform="translate(63.355)">
                <path id="Trazado_153158" data-name="Trazado 153158" d="M3294.514,669.032l-.343-2.276.4-.06.293,1.946,2.133.1.318,2.111,2.134.1.344,2.277-.4.061-.294-1.947-2.133-.1-.319-2.111Z" transform="translate(-3294.171 -666.696)" fill="#fff"/>
              </g>
              <g id="Grupo_87146" data-name="Grupo 87146" transform="translate(52.796)">
                <path id="Trazado_153159" data-name="Trazado 153159" d="M3269.092,669.032l-.343-2.276.4-.06.294,1.946,2.133.1.319,2.111,2.133.1.344,2.277-.4.061-.295-1.947-2.133-.1-.319-2.111Z" transform="translate(-3268.749 -666.696)" fill="#fff"/>
              </g>
              <g id="Grupo_87147" data-name="Grupo 87147" transform="translate(42.237)">
                <path id="Trazado_153160" data-name="Trazado 153160" d="M3243.669,669.032l-.343-2.276.4-.06.294,1.946,2.133.1.319,2.111,2.133.1.344,2.277-.4.061-.294-1.947-2.134-.1-.319-2.111Z" transform="translate(-3243.326 -666.696)" fill="#fff"/>
              </g>
              <g id="Grupo_87148" data-name="Grupo 87148" transform="translate(31.678)">
                <path id="Trazado_153161" data-name="Trazado 153161" d="M3218.246,669.032l-.343-2.276.4-.06.294,1.946,2.133.1.318,2.111,2.134.1.344,2.277-.4.061-.294-1.947-2.134-.1-.318-2.111Z" transform="translate(-3217.903 -666.696)" fill="#fff"/>
              </g>
              <g id="Grupo_87149" data-name="Grupo 87149" transform="translate(21.118)">
                <path id="Trazado_153162" data-name="Trazado 153162" d="M3192.824,669.032l-.344-2.276.4-.06.294,1.946,2.133.1.319,2.111,2.133.1.344,2.277-.4.061-.295-1.947-2.133-.1-.318-2.111Z" transform="translate(-3192.48 -666.696)" fill="#fff"/>
              </g>
              <g id="Grupo_87150" data-name="Grupo 87150" transform="translate(10.559)">
                <path id="Trazado_153163" data-name="Trazado 153163" d="M3167.4,669.032l-.343-2.276.4-.06.293,1.946,2.133.1.319,2.111,2.134.1.344,2.277-.4.061-.295-1.947-2.134-.1-.318-2.111Z" transform="translate(-3167.058 -666.696)" fill="#fff"/>
              </g>
              <g id="Grupo_87151" data-name="Grupo 87151">
                <path id="Trazado_153164" data-name="Trazado 153164" d="M3141.978,669.032l-.343-2.276.4-.06.294,1.946,2.133.1.319,2.111,2.133.1.344,2.277-.4.061-.294-1.947-2.134-.1-.319-2.111Z" transform="translate(-3141.635 -666.696)" fill="#fff"/>
              </g>
            </g>
            <g id="Grupo_87163" data-name="Grupo 87163" transform="translate(2.467 30.633)">
              <g id="Grupo_87153" data-name="Grupo 87153" transform="translate(95.033)">
                <path id="Trazado_153165" data-name="Trazado 153165" d="M3376.723,644.049l-.343-2.276.4-.061.294,1.947,2.133.1.318,2.111,2.134.1.344,2.276-.4.061-.295-1.947-2.134-.1-.319-2.111Z" transform="translate(-3376.38 -641.712)" fill="#fff"/>
              </g>
              <g id="Grupo_87154" data-name="Grupo 87154" transform="translate(84.474)">
                <path id="Trazado_153166" data-name="Trazado 153166" d="M3351.3,644.049l-.343-2.276.4-.061.293,1.947,2.133.1.319,2.111,2.133.1.344,2.276-.4.061-.295-1.947-2.133-.1-.319-2.111Z" transform="translate(-3350.957 -641.712)" fill="#fff"/>
              </g>
              <g id="Grupo_87155" data-name="Grupo 87155" transform="translate(73.914)">
                <path id="Trazado_153167" data-name="Trazado 153167" d="M3325.878,644.049l-.344-2.276.4-.061.293,1.947,2.133.1.319,2.111,2.133.1.344,2.276-.4.061-.295-1.947-2.133-.1-.318-2.111Z" transform="translate(-3325.534 -641.712)" fill="#fff"/>
              </g>
              <g id="Grupo_87156" data-name="Grupo 87156" transform="translate(63.355)">
                <path id="Trazado_153168" data-name="Trazado 153168" d="M3300.455,644.049l-.343-2.276.4-.061.294,1.947,2.133.1.319,2.111,2.134.1.344,2.276-.4.061-.294-1.947-2.134-.1-.319-2.111Z" transform="translate(-3300.112 -641.712)" fill="#fff"/>
              </g>
              <g id="Grupo_87157" data-name="Grupo 87157" transform="translate(52.796)">
                <path id="Trazado_153169" data-name="Trazado 153169" d="M3275.032,644.049l-.343-2.276.4-.061.294,1.947,2.133.1.318,2.111,2.133.1.344,2.276-.4.061-.294-1.947-2.134-.1-.318-2.111Z" transform="translate(-3274.689 -641.712)" fill="#fff"/>
              </g>
              <g id="Grupo_87158" data-name="Grupo 87158" transform="translate(42.237)">
                <path id="Trazado_153170" data-name="Trazado 153170" d="M3249.61,644.049l-.344-2.276.4-.061.293,1.947,2.133.1.318,2.111,2.133.1.344,2.276-.4.061-.294-1.947-2.134-.1-.318-2.111Z" transform="translate(-3249.266 -641.712)" fill="#fff"/>
              </g>
              <g id="Grupo_87159" data-name="Grupo 87159" transform="translate(31.678)">
                <path id="Trazado_153171" data-name="Trazado 153171" d="M3224.187,644.049l-.344-2.276.4-.061.294,1.947,2.133.1.319,2.111,2.134.1.344,2.276-.4.061-.294-1.947-2.134-.1-.319-2.111Z" transform="translate(-3223.843 -641.712)" fill="#fff"/>
              </g>
              <g id="Grupo_87160" data-name="Grupo 87160" transform="translate(21.118)">
                <path id="Trazado_153172" data-name="Trazado 153172" d="M3198.764,644.049l-.343-2.276.4-.061.293,1.947,2.133.1.319,2.111,2.133.1.344,2.276-.4.061-.295-1.947-2.133-.1-.319-2.111Z" transform="translate(-3198.421 -641.712)" fill="#fff"/>
              </g>
              <g id="Grupo_87161" data-name="Grupo 87161" transform="translate(10.559)">
                <path id="Trazado_153173" data-name="Trazado 153173" d="M3173.341,644.049l-.343-2.276.4-.061.293,1.947,2.133.1.318,2.111,2.134.1.344,2.276-.4.061-.294-1.947-2.134-.1-.318-2.111Z" transform="translate(-3172.998 -641.712)" fill="#fff"/>
              </g>
              <g id="Grupo_87162" data-name="Grupo 87162">
                <path id="Trazado_153174" data-name="Trazado 153174" d="M3147.919,644.049l-.344-2.276.4-.061.293,1.947,2.133.1.319,2.111,2.133.1.344,2.276-.4.061-.294-1.947-2.134-.1-.318-2.111Z" transform="translate(-3147.575 -641.712)" fill="#fff"/>
              </g>
            </g>
            <g id="Grupo_87174" data-name="Grupo 87174" transform="translate(2.467 51.083)">
              <g id="Grupo_87164" data-name="Grupo 87164" transform="translate(95.033)">
                <path id="Trazado_153175" data-name="Trazado 153175" d="M3376.723,693.285l-.343-2.276.4-.061.294,1.947,2.133.1.318,2.111,2.134.1.344,2.276-.4.061-.295-1.947-2.134-.1-.319-2.111Z" transform="translate(-3376.38 -690.949)" fill="#fff"/>
              </g>
              <g id="Grupo_87165" data-name="Grupo 87165" transform="translate(84.474)">
                <path id="Trazado_153176" data-name="Trazado 153176" d="M3351.3,693.285l-.343-2.276.4-.061.293,1.947,2.133.1.319,2.111,2.133.1.344,2.276-.4.061-.295-1.947-2.133-.1-.319-2.111Z" transform="translate(-3350.957 -690.949)" fill="#fff"/>
              </g>
              <g id="Grupo_87166" data-name="Grupo 87166" transform="translate(73.914)">
                <path id="Trazado_153177" data-name="Trazado 153177" d="M3325.878,693.285l-.344-2.276.4-.061.293,1.947,2.133.1.319,2.111,2.133.1.344,2.276-.4.061-.295-1.947-2.133-.1-.318-2.111Z" transform="translate(-3325.534 -690.949)" fill="#fff"/>
              </g>
              <g id="Grupo_87167" data-name="Grupo 87167" transform="translate(63.355)">
                <path id="Trazado_153178" data-name="Trazado 153178" d="M3300.455,693.285l-.343-2.276.4-.061.294,1.947,2.133.1.319,2.111,2.134.1.344,2.276-.4.061-.294-1.947-2.134-.1-.319-2.111Z" transform="translate(-3300.112 -690.949)" fill="#fff"/>
              </g>
              <g id="Grupo_87168" data-name="Grupo 87168" transform="translate(52.796)">
                <path id="Trazado_153179" data-name="Trazado 153179" d="M3275.032,693.285l-.343-2.276.4-.061.294,1.947,2.133.1.318,2.111,2.133.1.344,2.276-.4.061-.294-1.947-2.134-.1-.318-2.111Z" transform="translate(-3274.689 -690.949)" fill="#fff"/>
              </g>
              <g id="Grupo_87169" data-name="Grupo 87169" transform="translate(42.237)">
                <path id="Trazado_153180" data-name="Trazado 153180" d="M3249.61,693.285l-.344-2.276.4-.061.293,1.947,2.133.1.318,2.111,2.133.1.344,2.276-.4.061-.294-1.947-2.134-.1-.318-2.111Z" transform="translate(-3249.266 -690.949)" fill="#fff"/>
              </g>
              <g id="Grupo_87170" data-name="Grupo 87170" transform="translate(31.678)">
                <path id="Trazado_153181" data-name="Trazado 153181" d="M3224.187,693.285l-.344-2.276.4-.061.294,1.947,2.133.1.319,2.111,2.134.1.344,2.276-.4.061-.294-1.947-2.134-.1-.319-2.111Z" transform="translate(-3223.843 -690.949)" fill="#fff"/>
              </g>
              <g id="Grupo_87171" data-name="Grupo 87171" transform="translate(21.118)">
                <path id="Trazado_153182" data-name="Trazado 153182" d="M3198.764,693.285l-.343-2.276.4-.061.293,1.947,2.133.1.319,2.111,2.133.1.344,2.276-.4.061-.295-1.947-2.133-.1-.319-2.111Z" transform="translate(-3198.421 -690.949)" fill="#fff"/>
              </g>
              <g id="Grupo_87172" data-name="Grupo 87172" transform="translate(10.559)">
                <path id="Trazado_153183" data-name="Trazado 153183" d="M3173.341,693.285,3173,691.01l.4-.061.293,1.947,2.133.1.318,2.111,2.134.1.344,2.276-.4.061-.294-1.947-2.134-.1-.318-2.111Z" transform="translate(-3172.998 -690.949)" fill="#fff"/>
              </g>
              <g id="Grupo_87173" data-name="Grupo 87173">
                <path id="Trazado_153184" data-name="Trazado 153184" d="M3147.919,693.285l-.344-2.276.4-.061.293,1.947,2.133.1.319,2.111,2.133.1.344,2.276-.4.061-.294-1.947-2.134-.1-.318-2.111Z" transform="translate(-3147.575 -690.949)" fill="#fff"/>
              </g>
            </g>
            <g id="Grupo_87185" data-name="Grupo 87185" transform="translate(0 71.739)">
              <g id="Grupo_87175" data-name="Grupo 87175" transform="translate(95.033)">
                <path id="Trazado_153185" data-name="Trazado 153185" d="M3370.783,743.019l-.344-2.276.4-.061.294,1.947,2.133.1.319,2.111,2.134.1.344,2.277-.4.061-.294-1.947-2.134-.1-.318-2.111Z" transform="translate(-3370.439 -740.683)" fill="#fff"/>
              </g>
              <g id="Grupo_87176" data-name="Grupo 87176" transform="translate(84.474)">
                <path id="Trazado_153186" data-name="Trazado 153186" d="M3345.36,743.019l-.344-2.276.4-.061.294,1.947,2.133.1.319,2.111,2.134.1.344,2.277-.4.061-.294-1.947-2.134-.1-.319-2.111Z" transform="translate(-3345.017 -740.683)" fill="#fff"/>
              </g>
              <g id="Grupo_87177" data-name="Grupo 87177" transform="translate(73.914)">
                <path id="Trazado_153187" data-name="Trazado 153187" d="M3319.937,743.019l-.343-2.276.4-.061.294,1.947,2.133.1.318,2.111,2.134.1.344,2.277-.4.061-.294-1.947-2.134-.1-.318-2.111Z" transform="translate(-3319.594 -740.683)" fill="#fff"/>
              </g>
              <g id="Grupo_87178" data-name="Grupo 87178" transform="translate(63.355)">
                <path id="Trazado_153188" data-name="Trazado 153188" d="M3294.514,743.019l-.343-2.276.4-.061.293,1.947,2.133.1.318,2.111,2.134.1.344,2.277-.4.061-.294-1.947-2.133-.1-.319-2.111Z" transform="translate(-3294.171 -740.683)" fill="#fff"/>
              </g>
              <g id="Grupo_87179" data-name="Grupo 87179" transform="translate(52.796)">
                <path id="Trazado_153189" data-name="Trazado 153189" d="M3269.092,743.019l-.343-2.276.4-.061.294,1.947,2.133.1.319,2.111,2.133.1.344,2.277-.4.061-.295-1.947-2.133-.1-.319-2.111Z" transform="translate(-3268.749 -740.683)" fill="#fff"/>
              </g>
              <g id="Grupo_87180" data-name="Grupo 87180" transform="translate(42.237)">
                <path id="Trazado_153190" data-name="Trazado 153190" d="M3243.669,743.019l-.343-2.276.4-.061.294,1.947,2.133.1.319,2.111,2.133.1.344,2.277-.4.061-.294-1.947-2.134-.1-.319-2.111Z" transform="translate(-3243.326 -740.683)" fill="#fff"/>
              </g>
              <g id="Grupo_87181" data-name="Grupo 87181" transform="translate(31.678)">
                <path id="Trazado_153191" data-name="Trazado 153191" d="M3218.246,743.019l-.343-2.276.4-.061.294,1.947,2.133.1.318,2.111,2.134.1.344,2.277-.4.061-.294-1.947-2.134-.1-.318-2.111Z" transform="translate(-3217.903 -740.683)" fill="#fff"/>
              </g>
              <g id="Grupo_87182" data-name="Grupo 87182" transform="translate(21.118)">
                <path id="Trazado_153192" data-name="Trazado 153192" d="M3192.824,743.019l-.344-2.276.4-.061.294,1.947,2.133.1.319,2.111,2.133.1.344,2.277-.4.061-.295-1.947-2.133-.1-.318-2.111Z" transform="translate(-3192.48 -740.683)" fill="#fff"/>
              </g>
              <g id="Grupo_87183" data-name="Grupo 87183" transform="translate(10.559)">
                <path id="Trazado_153193" data-name="Trazado 153193" d="M3167.4,743.019l-.343-2.276.4-.061.293,1.947,2.133.1.319,2.111,2.134.1.344,2.277-.4.061-.295-1.947-2.134-.1-.318-2.111Z" transform="translate(-3167.058 -740.683)" fill="#fff"/>
              </g>
              <g id="Grupo_87184" data-name="Grupo 87184">
                <path id="Trazado_153194" data-name="Trazado 153194" d="M3141.978,743.019l-.343-2.276.4-.061.294,1.947,2.133.1.319,2.111,2.133.1.344,2.277-.4.061-.294-1.947-2.134-.1-.319-2.111Z" transform="translate(-3141.635 -740.683)" fill="#fff"/>
              </g>
            </g>
            <g id="Grupo_87196" data-name="Grupo 87196" transform="translate(2.467 61.362)">
              <g id="Grupo_87186" data-name="Grupo 87186" transform="translate(95.033)">
                <path id="Trazado_153195" data-name="Trazado 153195" d="M3376.723,718.035l-.343-2.276.4-.06.294,1.947,2.133.1.318,2.111,2.134.1.344,2.277-.4.061-.295-1.947-2.134-.1-.319-2.111Z" transform="translate(-3376.38 -715.699)" fill="#fff"/>
              </g>
              <g id="Grupo_87187" data-name="Grupo 87187" transform="translate(84.474)">
                <path id="Trazado_153196" data-name="Trazado 153196" d="M3351.3,718.035l-.343-2.276.4-.06.293,1.947,2.133.1.319,2.111,2.133.1.344,2.277-.4.061-.295-1.947-2.133-.1-.319-2.111Z" transform="translate(-3350.957 -715.699)" fill="#fff"/>
              </g>
              <g id="Grupo_87188" data-name="Grupo 87188" transform="translate(73.914)">
                <path id="Trazado_153197" data-name="Trazado 153197" d="M3325.878,718.035l-.344-2.276.4-.06.293,1.947,2.133.1.319,2.111,2.133.1.344,2.277-.4.061-.295-1.947-2.133-.1-.318-2.111Z" transform="translate(-3325.534 -715.699)" fill="#fff"/>
              </g>
              <g id="Grupo_87189" data-name="Grupo 87189" transform="translate(63.355)">
                <path id="Trazado_153198" data-name="Trazado 153198" d="M3300.455,718.035l-.343-2.276.4-.06.294,1.947,2.133.1.319,2.111,2.134.1.344,2.277-.4.061-.294-1.947-2.134-.1-.319-2.111Z" transform="translate(-3300.112 -715.699)" fill="#fff"/>
              </g>
              <g id="Grupo_87190" data-name="Grupo 87190" transform="translate(52.796)">
                <path id="Trazado_153199" data-name="Trazado 153199" d="M3275.032,718.035l-.343-2.276.4-.06.294,1.947,2.133.1.318,2.111,2.133.1.344,2.277-.4.061-.294-1.947-2.134-.1-.318-2.111Z" transform="translate(-3274.689 -715.699)" fill="#fff"/>
              </g>
              <g id="Grupo_87191" data-name="Grupo 87191" transform="translate(42.237)">
                <path id="Trazado_153200" data-name="Trazado 153200" d="M3249.61,718.035l-.344-2.276.4-.06.293,1.947,2.133.1.318,2.111,2.133.1.344,2.277-.4.061-.294-1.947-2.134-.1-.318-2.111Z" transform="translate(-3249.266 -715.699)" fill="#fff"/>
              </g>
              <g id="Grupo_87192" data-name="Grupo 87192" transform="translate(31.678)">
                <path id="Trazado_153201" data-name="Trazado 153201" d="M3224.187,718.035l-.344-2.276.4-.06.294,1.947,2.133.1.319,2.111,2.134.1.344,2.277-.4.061-.294-1.947-2.134-.1-.319-2.111Z" transform="translate(-3223.843 -715.699)" fill="#fff"/>
              </g>
              <g id="Grupo_87193" data-name="Grupo 87193" transform="translate(21.118)">
                <path id="Trazado_153202" data-name="Trazado 153202" d="M3198.764,718.035l-.343-2.276.4-.06.293,1.947,2.133.1.319,2.111,2.133.1.344,2.277-.4.061-.295-1.947-2.133-.1-.319-2.111Z" transform="translate(-3198.421 -715.699)" fill="#fff"/>
              </g>
              <g id="Grupo_87194" data-name="Grupo 87194" transform="translate(10.559)">
                <path id="Trazado_153203" data-name="Trazado 153203" d="M3173.341,718.035l-.343-2.276.4-.06.293,1.947,2.133.1.318,2.111,2.134.1.344,2.277-.4.061-.294-1.947-2.134-.1-.318-2.111Z" transform="translate(-3172.998 -715.699)" fill="#fff"/>
              </g>
              <g id="Grupo_87195" data-name="Grupo 87195">
                <path id="Trazado_153204" data-name="Trazado 153204" d="M3147.919,718.035l-.344-2.276.4-.06.293,1.947,2.133.1.319,2.111,2.133.1.344,2.277-.4.061-.294-1.947-2.134-.1-.318-2.111Z" transform="translate(-3147.575 -715.699)" fill="#fff"/>
              </g>
            </g>
            <g id="Grupo_87207" data-name="Grupo 87207" transform="translate(2.467 81.813)">
              <g id="Grupo_87197" data-name="Grupo 87197" transform="translate(95.033)">
                <path id="Trazado_153205" data-name="Trazado 153205" d="M3376.723,767.272,3376.38,765l.4-.06.294,1.946,2.133.1.318,2.111,2.134.1.344,2.276-.4.061-.295-1.947-2.134-.1-.319-2.111Z" transform="translate(-3376.38 -764.936)" fill="#fff"/>
              </g>
              <g id="Grupo_87198" data-name="Grupo 87198" transform="translate(84.474)">
                <path id="Trazado_153206" data-name="Trazado 153206" d="M3351.3,767.272l-.343-2.276.4-.06.293,1.946,2.133.1.319,2.111,2.133.1.344,2.276-.4.061-.295-1.947-2.133-.1-.319-2.111Z" transform="translate(-3350.957 -764.936)" fill="#fff"/>
              </g>
              <g id="Grupo_87199" data-name="Grupo 87199" transform="translate(73.914)">
                <path id="Trazado_153207" data-name="Trazado 153207" d="M3325.878,767.272l-.344-2.276.4-.06.293,1.946,2.133.1.319,2.111,2.133.1.344,2.276-.4.061-.295-1.947-2.133-.1-.318-2.111Z" transform="translate(-3325.534 -764.936)" fill="#fff"/>
              </g>
              <g id="Grupo_87200" data-name="Grupo 87200" transform="translate(63.355)">
                <path id="Trazado_153208" data-name="Trazado 153208" d="M3300.455,767.272l-.343-2.276.4-.06.294,1.946,2.133.1.319,2.111,2.134.1.344,2.276-.4.061-.294-1.947-2.134-.1-.319-2.111Z" transform="translate(-3300.112 -764.936)" fill="#fff"/>
              </g>
              <g id="Grupo_87201" data-name="Grupo 87201" transform="translate(52.796)">
                <path id="Trazado_153209" data-name="Trazado 153209" d="M3275.032,767.272l-.343-2.276.4-.06.294,1.946,2.133.1.318,2.111,2.133.1.344,2.276-.4.061-.294-1.947-2.134-.1-.318-2.111Z" transform="translate(-3274.689 -764.936)" fill="#fff"/>
              </g>
              <g id="Grupo_87202" data-name="Grupo 87202" transform="translate(42.237)">
                <path id="Trazado_153210" data-name="Trazado 153210" d="M3249.61,767.272l-.344-2.276.4-.06.293,1.946,2.133.1.318,2.111,2.133.1.344,2.276-.4.061-.294-1.947-2.134-.1-.318-2.111Z" transform="translate(-3249.266 -764.936)" fill="#fff"/>
              </g>
              <g id="Grupo_87203" data-name="Grupo 87203" transform="translate(31.678)">
                <path id="Trazado_153211" data-name="Trazado 153211" d="M3224.187,767.272l-.344-2.276.4-.06.294,1.946,2.133.1.319,2.111,2.134.1.344,2.276-.4.061-.294-1.947-2.134-.1-.319-2.111Z" transform="translate(-3223.843 -764.936)" fill="#fff"/>
              </g>
              <g id="Grupo_87204" data-name="Grupo 87204" transform="translate(21.118)">
                <path id="Trazado_153212" data-name="Trazado 153212" d="M3198.764,767.272l-.343-2.276.4-.06.293,1.946,2.133.1.319,2.111,2.133.1.344,2.276-.4.061-.295-1.947-2.133-.1-.319-2.111Z" transform="translate(-3198.421 -764.936)" fill="#fff"/>
              </g>
              <g id="Grupo_87205" data-name="Grupo 87205" transform="translate(10.559)">
                <path id="Trazado_153213" data-name="Trazado 153213" d="M3173.341,767.272,3173,765l.4-.06.293,1.946,2.133.1.318,2.111,2.134.1.344,2.276-.4.061-.294-1.947-2.134-.1-.318-2.111Z" transform="translate(-3172.998 -764.936)" fill="#fff"/>
              </g>
              <g id="Grupo_87206" data-name="Grupo 87206">
                <path id="Trazado_153214" data-name="Trazado 153214" d="M3147.919,767.272l-.344-2.276.4-.06.293,1.946,2.133.1.319,2.111,2.133.1.344,2.276-.4.061-.294-1.947-2.134-.1-.318-2.111Z" transform="translate(-3147.575 -764.936)" fill="#fff"/>
              </g>
            </g>
          </g>
        </g>
      </g>
      <path id="Trazado_153216" data-name="Trazado 153216" d="M3274.518,524.939c-1.3,4.9-5.1,6.3-5.5,8s-2.8,2.5-2.8,2.5l-1.072-1.74-4.686-7.621-2.24-3.635-2.731-2.635s-3.967-5.762-1.967-8.661a4.456,4.456,0,0,1,.352-.452c1.9-2.12,3.879.452,3.879.452s.364-7.3,4.766-7.6,5.5,7.1,5.5,7.1,1.3-3.6,4.1-1.1-.9,8.6-.9,8.6l.016,0a6.8,6.8,0,0,1,1.531.991,0,0,0,0,1,0,0A5.367,5.367,0,0,1,3274.518,524.939Z" transform="translate(-3201.166 -503.538)" fill="#3a3e49"/>
      <path id="Trazado_153217" data-name="Trazado 153217" d="M3291.673,546.9c-1.3,4.9-5.1,6.3-5.5,8s-2.8,2.5-2.8,2.5l-1.072-1.739c.2-1.288.4-2.531.4-2.531.172.036,5.9-2.483,7.633-7.257.9-2.475.336-3.935-.412-4.766A5.367,5.367,0,0,1,3291.673,546.9Z" transform="translate(-3218.32 -525.502)" fill="#24292f"/>
      <path id="Trazado_153218" data-name="Trazado 153218" d="M3260.464,536.145l-2.24-3.635-2.731-2.635s-3.967-5.762-1.967-8.661a4.468,4.468,0,0,1,.352-.452c.451,10.294,12.276,11.312,12.276,11.312A14.079,14.079,0,0,1,3260.464,536.145Z" transform="translate(-3201.166 -513.609)" fill="#24292f"/>
      <path id="Trazado_153219" data-name="Trazado 153219" d="M3273.032,596.332c-1.068,2.3-5.754,11.352-12.655,9.953-5.526-1.12-6.894-6.738-7.213-10.012,4.146-.612,8.24-.784,8.24-.784S3267.29,595.744,3273.032,596.332Z" transform="translate(-3201.283 -557.297)" fill="#745faa"/>
      <path id="Trazado_153220" data-name="Trazado 153220" d="M3273.965,578.11s-1.891,5.978-5.874,5.738a3.89,3.89,0,0,1-3.551-3.351,4.142,4.142,0,0,1-.037-.832l.208-3.515.056-.964.268-4.538,7.989-5.082.408-.26Z" transform="translate(-3207.91 -539.651)" fill="#f6a49d"/>
      <path id="Trazado_153221" data-name="Trazado 153221" d="M3273.2,567.548c-1.268,7.261-5.594,8.753-8.185,8.969l.323-5.5,7.989-5.082A7.593,7.593,0,0,1,3273.2,567.548Z" transform="translate(-3208.212 -540.017)" fill="#d47c74"/>
      <path id="Trazado_153222" data-name="Trazado 153222" d="M3266.4,586.394l-1.859,5.918a4.141,4.141,0,0,1-.037-.831l.208-3.515.056-.964,1.232-1.488Z" transform="translate(-3207.91 -551.466)" fill="#d47c74"/>
      <path id="Trazado_153223" data-name="Trazado 153223" d="M3257.415,542.707s-3.6,15.128,1.865,17.394,8.8-6.131,8.8-6.131,4.132-.133,4.531-3.465-3.732-.8-3.732-.8a12.44,12.44,0,0,1-.8-4.8S3260.08,544.906,3257.415,542.707Z" transform="translate(-3203.089 -526.438)" fill="#f6a49d"/>
      <g id="Grupo_87211" data-name="Grupo 87211" transform="translate(58.896 20.371)">
        <path id="Trazado_153224" data-name="Trazado 153224" d="M3275.948,555.877a2.6,2.6,0,1,1-.386-1.361A2.571,2.571,0,0,1,3275.948,555.877Z" transform="translate(-3270.461 -552.989)" fill="#fff" opacity="0.3"/>
        <path id="Trazado_153225" data-name="Trazado 153225" d="M3276.38,557.62a2.6,2.6,0,0,1-4.89,1.227c1.411-.79,3.2-1.83,4.5-2.588A2.57,2.57,0,0,1,3276.38,557.62Z" transform="translate(-3270.894 -554.732)" fill="#fff" opacity="0.47"/>
        <path id="Trazado_153226" data-name="Trazado 153226" d="M3272.942,552.583a2.887,2.887,0,1,0,2.888,2.887A2.887,2.887,0,0,0,3272.942,552.583Zm0,5.421a2.534,2.534,0,1,1,2.533-2.534A2.532,2.532,0,0,1,3272.942,558Z" transform="translate(-3270.055 -552.583)" fill="#24292f"/>
      </g>
      <g id="Grupo_87212" data-name="Grupo 87212" transform="translate(52.308 19.513)">
        <path id="Trazado_153227" data-name="Trazado 153227" d="M3260.087,553.813a2.6,2.6,0,1,1-.386-1.361A2.571,2.571,0,0,1,3260.087,553.813Z" transform="translate(-3254.601 -550.925)" fill="#fff" opacity="0.3"/>
        <path id="Trazado_153228" data-name="Trazado 153228" d="M3260.519,555.556a2.6,2.6,0,0,1-4.891,1.227c1.411-.79,3.2-1.83,4.5-2.588A2.567,2.567,0,0,1,3260.519,555.556Z" transform="translate(-3255.032 -552.668)" fill="#fff" opacity="0.47"/>
        <path id="Trazado_153229" data-name="Trazado 153229" d="M3257.082,550.519a2.887,2.887,0,1,0,2.887,2.888A2.887,2.887,0,0,0,3257.082,550.519Zm0,5.421a2.534,2.534,0,1,1,2.534-2.534A2.532,2.532,0,0,1,3257.082,555.94Z" transform="translate(-3254.194 -550.519)" fill="#24292f"/>
      </g>
      <path id="Trazado_153230" data-name="Trazado 153230" d="M3286.766,563.576s1-2.3,1.95-2.049S3289.408,563.946,3286.766,563.576Z" transform="translate(-3220.93 -537.43)" fill="#d47c74"/>
    </g>
    <rect id="Rectngulo_8084" data-name="Rectngulo 8084" width="276.848" height="1.331" transform="translate(-3428.626 -5334.011)" fill="#3a3e49"/>
    <g id="Grupo_87239" data-name="Grupo 87239" transform="translate(-3420.697 -5377.719)">
      <path id="Trazado_153268" data-name="Trazado 153268" d="M3576.824,941.208s-4.173-38.31-35.161-17.9c0,0-.084-21.477-22.887-24.732-25.315-3.614-32.97,19.955-32.97,19.955s-32.385-3.792-32.385,22.678Z" transform="translate(-3453.421 -898.199)" fill="#d6ece0"/>
      <g id="Grupo_87228" data-name="Grupo 87228" transform="translate(14.544 29.276)">
        <path id="Trazado_153269" data-name="Trazado 153269" d="M3517.7,982.381l.149-.494a30.188,30.188,0,0,1-16.939-13.2l-.457.241A30.762,30.762,0,0,0,3517.7,982.381Z" transform="translate(-3495.46 -968.685)" fill="#93deb4"/>
        <path id="Trazado_153270" data-name="Trazado 153270" d="M3503.807,993.966l-.1-.506c-.1.021-10.035,2-15.146.768l-.12.5C3493.659,995.989,3503.395,994.049,3503.807,993.966Z" transform="translate(-3488.438 -983.17)" fill="#93deb4"/>
        <path id="Trazado_153271" data-name="Trazado 153271" d="M3531.926,983.569c1.671-4.318-1.591-10.329-1.73-10.583l-.452.249c.033.06,3.285,6.055,1.7,10.148Z" transform="translate(-3512.587 -971.2)" fill="#93deb4"/>
      </g>
      <g id="Grupo_87229" data-name="Grupo 87229" transform="translate(40.493 15.156)">
        <path id="Trazado_153272" data-name="Trazado 153272" d="M3591.274,962.2l.548-.383a39.093,39.093,0,0,1-6.63-27.01l-.658-.121A39.839,39.839,0,0,0,3591.274,962.2Z" transform="translate(-3570.383 -934.69)" fill="#93deb4"/>
        <path id="Trazado_153273" data-name="Trazado 153273" d="M3567.152,963.731l.3-.6c-.117-.059-11.807-6.015-16.014-11.368l-.525.413C3555.213,957.649,3566.666,963.485,3567.152,963.731Z" transform="translate(-3550.914 -944.674)" fill="#93deb4"/>
        <path id="Trazado_153274" data-name="Trazado 153274" d="M3596.209,974.838c5.163-3.049,6.668-11.777,6.729-12.147l-.659-.11c-.014.087-1.517,8.792-6.41,11.681Z" transform="translate(-3577.198 -950.997)" fill="#93deb4"/>
      </g>
      <g id="Grupo_87230" data-name="Grupo 87230" transform="translate(81.646 24.48)">
        <path id="Trazado_153275" data-name="Trazado 153275" d="M3650,984.415l1.1-.788c.127-.091,12.873-9.125,26.517-9.76l.038.817c-11.01.513-21.449,6.61-24.892,8.817l13.6-.474.028.817Z" transform="translate(-3649.995 -966.919)" fill="#93deb4"/>
        <path id="Trazado_153276" data-name="Trazado 153276" d="M3673.273,969.53l-.773-.265a50.259,50.259,0,0,1,6.7-12.127l.648.5A49.3,49.3,0,0,0,3673.273,969.53Z" transform="translate(-3663.153 -957.138)" fill="#93deb4"/>
      </g>
    </g>
    <path id="Trazado_153268-2" data-name="Trazado 153268" d="M3790.461,880.331l-2.217,25.655a8.819,8.819,0,0,1-5.09-7.744c-.022-.3-.049-.589-.089-.874-.674-5.38-4.153-8.2-11.741-8.485-7.99-.294.656-7.566.656-7.566a35.063,35.063,0,0,0,10,.085,12.188,12.188,0,0,0,1.589-.392C3788.03,879.554,3790.461,880.331,3790.461,880.331Z" transform="translate(-7058 -6265.35)" fill="#24292f"/>
    <path id="Trazado_153269-2" data-name="Trazado 153269" d="M3783.065,899.047a8.384,8.384,0,0,0-3.921-6.585,16.115,16.115,0,0,0-7.82-1.9c-7.99-.294.656-7.566.656-7.566a38.84,38.84,0,0,0,7.878.352,19.263,19.263,0,0,0,2.123-.267C3785.242,893.515,3784.211,897.517,3783.065,899.047Z" transform="translate(-7058 -6267.03)" fill="#f6a49d"/>
    <path id="Trazado_153270-2" data-name="Trazado 153270" d="M3593.731,972.93h-25.75a8.817,8.817,0,0,1,7.276-5.737c.107-.018.214-.036.316-.058,5.675-.995,8.369-4.693,7.985-12.536-.392-7.99,7.6,0,7.6,0s-.527,7.2,1.307,11.519S3593.731,972.93,3593.731,972.93Z" transform="translate(-6941.097 -6306.816)" fill="#24292f"/>
    <path id="Trazado_153271-2" data-name="Trazado 153271" d="M3603.151,966.119c-1.748,3.305-16.578,5.2-16.89,1.017,3.029-.531,5.211-1.834,6.527-4.127,1.146-2,1.637-4.755,1.459-8.409-.393-7.99,7.6,0,7.6,0a38.04,38.04,0,0,0,.423,8.409A14.932,14.932,0,0,0,3603.151,966.119Z" transform="translate(-6951.785 -6306.816)" fill="#f6a49d"/>
    <path id="Trazado_153272-2" data-name="Trazado 153272" d="M3611.456,963.009h-9.48c1.146-2,1.637-4.755,1.459-8.409-.393-7.99,7.6,0,7.6,0A38.056,38.056,0,0,0,3611.456,963.009Z" transform="translate(-6960.971 -6306.816)" fill="#d47c74"/>
    <path id="Trazado_153273-2" data-name="Trazado 153273" d="M3779.858,883.348l-.714,9.114a16.115,16.115,0,0,0-7.82-1.9c-7.99-.294.656-7.566.656-7.566A38.84,38.84,0,0,0,3779.858,883.348Z" transform="translate(-7058 -6267.03)" fill="#d47c74"/>
    <path id="Trazado_153274-2" data-name="Trazado 153274" d="M3630.21,782.041a5.513,5.513,0,0,1-.273.892,13.906,13.906,0,0,1-1.1,2.132c-.223.366-.468.736-.731,1.115a48.375,48.375,0,0,1-4.333,5.193c-1.9,2.03-4.037,4.113-6.169,6.147-5.746,5.479-11.425,10.582-12.232,13.24-.888,2.909-.544,16.31-.08,27.36,0,.062,0,.125.009.183.353,8.351.767,15.31.767,15.31h-25.651s2.454-37.473,5.13-47.064c1.316-4.715,8.293-13.91,15.047-22.029,3.056-3.681,6.067-7.138,8.485-9.863,3.109-3.506,5.242-5.8,5.242-5.8S3631.967,774.042,3630.21,782.041Z" transform="translate(-6948.368 -6200.296)" fill="#7e6ee9"/>
    <path id="Trazado_153275-2" data-name="Trazado 153275" d="M3655.318,801.817s-.067,1.557-.16,3.636c-5.934,8.5-21.36,20.062-22.734,24.581-.888,2.909-.544,16.31-.08,27.36-.518-10.836-2.008-7.731-4.876-18.585s3.168-9.221,1.829-16.658,10.26-9.217,11.193-20.334Z" transform="translate(-6975.417 -6219.568)" fill="#6349cf"/>
    <path id="Trazado_153276-2" data-name="Trazado 153276" d="M3715.154,834.5l-3.417,21.565s-31.767-9.926-37.415-14.686c-3.132-2.637-7.218-12.643-10.234-21.039-1.236-3.426-2.289-6.584-3.029-8.864-.718-2.208-1.138-3.591-1.138-3.591h20.142s.1.3.272.816c.557,1.691,1.9,5.719,3.234,9.426.745,2.07,1.486,4.038,2.083,5.447a10.36,10.36,0,0,0,1,1.976C3687.986,827.189,3715.154,834.5,3715.154,834.5Z" transform="translate(-6994.85 -6223.116)" fill="#7e6ee9"/>
    <path id="Trazado_153277" data-name="Trazado 153277" d="M3696.478,824.724c-3.3-3.109-7.633-1.294-10.01-4.568s-8.03-6.5-8.03-6.5l12.723-3.81c.557,1.691,1.905,5.719,3.235,9.426C3695.14,821.347,3695.881,823.315,3696.478,824.724Z" transform="translate(-7005.675 -6224.264)" fill="#6349cf"/>
    <path id="Trazado_153278" data-name="Trazado 153278" d="M3644.594,657.693l5.241.111s15.524.975,15.524,10.946c0,9.257-29.019,18.163-29.019,18.163l-7.77-12.38s.919-8,5.7-11.865A26.663,26.663,0,0,1,3644.594,657.693Z" transform="translate(-6976.521 -6135.304)" fill="#7ff9ff"/>
    <path id="Trazado_153279" data-name="Trazado 153279" d="M3710.789,614.173c-3.415,9.018-15.3,7.649-21.041.955s-9.552,4.391-18,1.5c-6.743-2.3-6.33-6.793-10.683-9.047-4.509-2.333-5.153-1.054-7.35-6.313-.1-.242-.2-.5-.311-.766-2.46-6.149-3.415-5.874-3.415-5.874l-3.071-1.254a5.5,5.5,0,0,1-1.816-4.1,5.972,5.972,0,0,1,1.533-3.55c3.619-4.374,13.052-4.21,18.791-.656.078.049.156.1.229.147,5.464,3.5,3.964,6.961,12.142,9.732,6.354,2.152,8.535,2.279,17.693,1.459,7.24-.647,14.737,5.2,15.868,12.142A10.853,10.853,0,0,1,3710.789,614.173Z" transform="translate(-6986.181 -6091.296)" fill="#ffc945"/>
    <path id="Trazado_153280" data-name="Trazado 153280" d="M3653.711,607.163c-.1-.242-.2-.5-.311-.766-2.46-6.149-3.415-5.874-3.415-5.874l-3.071-1.254a5.5,5.5,0,0,1-1.816-4.1c1.632-4.23,10.679-4.325,12.22,6.334C3657.814,604.929,3656.183,606.552,3653.711,607.163Z" transform="translate(-6986.181 -6097.186)" fill="#edbf47"/>
    <g id="Grupo_87240" data-name="Grupo 87240" transform="translate(-3383.444 -5469.555)">
      <g id="Grupo_87232" data-name="Grupo 87232" transform="translate(0)">
        <path id="Trazado_153290" data-name="Trazado 153290" d="M3626.564,699.036l-9.8,38.1a4.043,4.043,0,0,1-4.924,2.907l-14.907-3.834-4.856-1.248-7.889-2.029-9.714-2.5-3.842-.99h0l-2.424-.624-14.409-3.705-2.429-.623-5.223-1.343a4.046,4.046,0,0,1-2.906-4.924l9.8-38.1a4.043,4.043,0,0,1,4.919-2.911l16.437,4.229,2.429.624,14.408,3.7,2.429.628,3.842.985,9.709,2.5,7.893,2.029,4.853,1.247,3.7.952A4.038,4.038,0,0,1,3626.564,699.036Z" transform="translate(-3543.114 -677.09)" fill="#3a3e49"/>
        <rect id="Rectngulo_8083" data-name="Rectngulo 8083" width="40.522" height="69.016" rx="5.855" transform="matrix(-0.249, 0.968, -0.968, -0.249, 80.258, 20.515)" fill="#f38ab2"/>
        <path id="Trazado_153291" data-name="Trazado 153291" d="M3622.087,715.107l15.537,18.856-22.906,8.3Z" transform="translate(-3584.977 -699.317)" fill="#fff"/>
      </g>
      <g id="Grupo_87233" data-name="Grupo 87233" transform="translate(8.258 4.356)" opacity="0.11">
        <path id="Trazado_153292-2" data-name="Trazado 153292" d="M3651.367,704.383l-1.676,3.131-9.922,18.546-.145.275-9.605,17.959-1.676,3.135-9.714-2.5,1.676-3.131,5.614-10.491v0l7.156-13.369v0l6.907-12.915,1.676-3.131Z" transform="translate(-3595.522 -695.942)" fill="#fff"/>
        <path id="Trazado_153293" data-name="Trazado 153293" d="M3688.889,714.034l-1.671,3.131-19.677,36.784-1.676,3.131-4.857-1.247,1.676-3.135,19.677-36.779,1.676-3.131Z" transform="translate(-3620.299 -702.316)" fill="#fff"/>
        <path id="Trazado_153294" data-name="Trazado 153294" d="M3628.988,698.628l-1.676,3.131-5.718,10.687L3611.666,731l-4.03,7.535-1.676,3.131h0l-2.425-.624,1.676-3.131,3.031-5.668v0l11.681-21.831,4.965-9.281,1.676-3.131Z" transform="translate(-3586.695 -693.671)" fill="#fff"/>
        <path id="Trazado_153295" data-name="Trazado 153295" d="M3588.452,688.2l-1.676,3.131L3567.1,728.112l-1.676,3.135-2.428-.624,1.676-3.135,19.677-36.779,1.676-3.131Z" transform="translate(-3562.996 -687.578)" fill="#fff"/>
      </g>
    </g>
    <path id="Trazado_153281" data-name="Trazado 153281" d="M3609.908,777.317a9.447,9.447,0,0,1-5.186,1.059c-3.4-.111-6.747,1.729-8.2,2.51s.725,1.115,2.9.836,2.732-.335,2.287.446a14.049,14.049,0,0,1-3.9,3.4c-1.227.613-3.592.64-3.368,1.421s1.472,1.088,3.034,1.144,2.4.614,4.573,0,3.792-2.844,5.744-4.238a26.789,26.789,0,0,1,4.071-2.342Z" transform="translate(-6956.557 -6205.244)" fill="#f6a49d"/>
    <path id="Trazado_153282" data-name="Trazado 153282" d="M3553.263,722.438a4.5,4.5,0,0,0-3.146,4.684c0,1.784,2.878,6.574,3.9,4.907S3553.263,722.438,3553.263,722.438Z" transform="translate(-6930.653 -6173.158)" fill="#f6a49d"/>
    <path id="Trazado_153283" data-name="Trazado 153283" d="M3665.013,639.589c-4.461,5.13-9.145,1.673-9.145,1.673l-.674-4.555-.665-4.479,7.593-5.416.384-.272Z" transform="translate(-6991.697 -6117.091)" fill="#f6a49d"/>
    <path id="Trazado_153284" data-name="Trazado 153284" d="M3662.06,628.792a11.282,11.282,0,0,1-6.866,8.3l-.665-4.479,7.593-5.416A3.762,3.762,0,0,1,3662.06,628.792Z" transform="translate(-6991.697 -6117.474)" fill="#d47c74"/>
    <path id="Trazado_153285" data-name="Trazado 153285" d="M3740.293,612.484c0-.012-.008-.029-.012-.041-1.7-7.342-10.9-11.58-17.151-9.7s-12.81,6.391-19.881,0c-6.059-5.477-4.822-9.514-8.658-13.589,5.464,3.5,3.964,6.961,12.142,9.732,6.354,2.152,8.535,2.279,17.693,1.459C3731.664,599.695,3739.162,605.544,3740.293,612.484Z" transform="translate(-7015.119 -6095.231)" fill="#fff" opacity="0.31"/>
    <path id="Trazado_153286" data-name="Trazado 153286" d="M3647.283,600.07s-5.226,15.27-.513,17.422,9.482-4.714,9.482-4.714,4.323-.353,4.46-3.243c.18-3.8-3.387-1.779-3.387-1.779l-.2-3.074C3656.917,601.608,3652.1,595.664,3647.283,600.07Z" transform="translate(-6986.009 -6100.697)" fill="#f6a49d"/>
    <path id="Trazado_153287" data-name="Trazado 153287" d="M3661.563,698.079c-.219.429-.442.843-.674,1.236-4.929,8.436-19.116,17.933-27.141,18.9a2.791,2.791,0,0,1-2.985-1.566l-.192-.446-1.517-3.538a1.3,1.3,0,0,1,.58-1.659,77.077,77.077,0,0,0,8.462-5.349c3.56-2.588,6.572-4.225,11.751-12.67a28.4,28.4,0,0,0,2.73-6.58c2.561-13.316,1.833-22.529,7.254-21.2C3668.576,667.355,3667.01,687.444,3661.563,698.079Z" transform="translate(-6976.742 -6139.625)" fill="#7ff9ff"/>
    <path id="Trazado_153288" data-name="Trazado 153288" d="M3657.752,659.629l1.305,9.193a61.618,61.618,0,0,1,7.84-10.866Z" transform="translate(-6993.581 -6135.458)" fill="#f6a49d"/>
    <path id="Trazado_153289" data-name="Trazado 153289" d="M3625.093,778.456" transform="translate(-6974.487 -6205.909)" fill="#c2e7f0"/>
    <path id="Trazado_153290-2" data-name="Trazado 153290" d="M3625.849,778.172l1.991,5.046,1.751-.6-2.123-5.3Z" transform="translate(-6974.93 -6205.244)" fill="#c2e7f0"/>
    <path id="Trazado_153291-2" data-name="Trazado 153291" d="M3663.846,744.526c-.219.429-.441.843-.674,1.236-4.93,8.436-19.116,17.933-27.142,18.9a2.792,2.792,0,0,1-2.984-1.566l-.192-.446c1.985,1.673,3.377-3.627,12.831-5.259,9.672-1.673,10.2-7.388,17.964-12.728C3663.717,744.62,3663.78,744.575,3663.846,744.526Z" transform="translate(-6979.025 -6186.072)" fill="#45ced5"/>
  </g>
</svg>
