<svg xmlns="http://www.w3.org/2000/svg" xmlns:xlink="http://www.w3.org/1999/xlink" width="650" height="607" viewBox="0 0 650 607">
  <defs>
    <clipPath id="clip-path">
      <rect id="Rectángulo_8107" data-name="Rectángulo 8107" width="508" height="486" fill="#7ff9ff"/>
    </clipPath>
    <clipPath id="clip-path-2">
      <rect id="Rectángulo_8108" data-name="Rectángulo 8108" width="205.811" height="191.427" fill="#856de9"/>
    </clipPath>
    <clipPath id="clip-path-3">
      <rect id="Rectángulo_8110" data-name="Rectángulo 8110" width="184.34" height="44.28" fill="#12263f"/>
    </clipPath>
  </defs>
  <g id="Grupo_87417" data-name="Grupo 87417" transform="translate(-475 -3249)">
    <rect id="Rectángulo_8100" data-name="Rectángulo 8100" width="650" height="607" transform="translate(475 3249)" fill="#fefefe"/>
    <g id="Grupo_87406" data-name="Grupo 87406">
      <path id="Trazado_153671" data-name="Trazado 153671" d="M2.292,10.382V14H1.073V4.758H4.481a3.425,3.425,0,0,1,2.377.774,2.625,2.625,0,0,1,.86,2.05,2.591,2.591,0,0,1-.841,2.073,3.578,3.578,0,0,1-2.409.727Zm0-1h2.19a2.19,2.19,0,0,0,1.5-.461A1.686,1.686,0,0,0,6.5,7.592a1.742,1.742,0,0,0-.521-1.323,2.051,2.051,0,0,0-1.428-.515H2.292ZM13.26,14a2.467,2.467,0,0,1-.165-.724,2.62,2.62,0,0,1-1.955.851,2.424,2.424,0,0,1-1.666-.574A1.859,1.859,0,0,1,8.823,12.1a1.942,1.942,0,0,1,.816-1.666,3.846,3.846,0,0,1,2.295-.594h1.143V9.3a1.319,1.319,0,0,0-.368-.981,1.48,1.48,0,0,0-1.085-.365,1.712,1.712,0,0,0-1.054.317.935.935,0,0,0-.425.768H8.963a1.621,1.621,0,0,1,.365-.993,2.491,2.491,0,0,1,.99-.759A3.331,3.331,0,0,1,11.692,7a2.715,2.715,0,0,1,1.86.594,2.141,2.141,0,0,1,.7,1.635v3.161a3.865,3.865,0,0,0,.241,1.5V14Zm-1.949-.9a2.064,2.064,0,0,0,1.047-.286,1.728,1.728,0,0,0,.717-.743V10.667h-.92Q10,10.667,10,11.931a1.069,1.069,0,0,0,.368.863A1.415,1.415,0,0,0,11.312,13.1Zm8.779-.927a.864.864,0,0,0-.359-.74,3.452,3.452,0,0,0-1.25-.454,5.912,5.912,0,0,1-1.416-.457,2.014,2.014,0,0,1-.774-.635,1.518,1.518,0,0,1-.251-.876,1.782,1.782,0,0,1,.714-1.428A2.789,2.789,0,0,1,18.58,7a2.87,2.87,0,0,1,1.895.6A1.915,1.915,0,0,1,21.2,9.15H20.021a1.06,1.06,0,0,0-.409-.832A1.534,1.534,0,0,0,18.58,7.97a1.605,1.605,0,0,0-1,.279.879.879,0,0,0-.362.73.712.712,0,0,0,.336.641,4.139,4.139,0,0,0,1.216.413,6.334,6.334,0,0,1,1.425.47,2.079,2.079,0,0,1,.809.657,1.615,1.615,0,0,1,.263.936,1.758,1.758,0,0,1-.736,1.476,3.089,3.089,0,0,1-1.911.555,3.459,3.459,0,0,1-1.46-.292,2.375,2.375,0,0,1-.993-.816,1.966,1.966,0,0,1-.359-1.133H16.98a1.216,1.216,0,0,0,.473.936,1.835,1.835,0,0,0,1.165.346,1.894,1.894,0,0,0,1.07-.27A.829.829,0,0,0,20.09,12.178ZM22.483,10.5a4.057,4.057,0,0,1,.4-1.815,2.96,2.96,0,0,1,1.1-1.244A3.007,3.007,0,0,1,25.6,7a2.9,2.9,0,0,1,2.269.971,3.736,3.736,0,0,1,.866,2.583v.083a4.092,4.092,0,0,1-.384,1.8,2.916,2.916,0,0,1-1.1,1.241,3.041,3.041,0,0,1-1.641.444,2.889,2.889,0,0,1-2.263-.971,3.718,3.718,0,0,1-.866-2.571Zm1.181.14a2.938,2.938,0,0,0,.53,1.834,1.8,1.8,0,0,0,2.841-.01,3.213,3.213,0,0,0,.527-1.965,2.933,2.933,0,0,0-.536-1.831,1.705,1.705,0,0,0-1.425-.7,1.686,1.686,0,0,0-1.4.692A3.189,3.189,0,0,0,23.664,10.642ZM37.166,14H35.985V6.173l-2.368.87V5.977l3.364-1.263h.184ZM2.292,25.382V29H1.073V19.758H4.481a3.425,3.425,0,0,1,2.377.774,2.625,2.625,0,0,1,.86,2.05,2.591,2.591,0,0,1-.841,2.073,3.578,3.578,0,0,1-2.409.727Zm0-1h2.19a2.19,2.19,0,0,0,1.5-.461A1.686,1.686,0,0,0,6.5,22.592a1.742,1.742,0,0,0-.521-1.323,2.051,2.051,0,0,0-1.428-.515H2.292ZM13.26,29a2.467,2.467,0,0,1-.165-.724,2.62,2.62,0,0,1-1.955.851,2.424,2.424,0,0,1-1.666-.574A1.859,1.859,0,0,1,8.823,27.1a1.942,1.942,0,0,1,.816-1.666,3.846,3.846,0,0,1,2.295-.594h1.143V24.3a1.319,1.319,0,0,0-.368-.981,1.48,1.48,0,0,0-1.085-.365,1.712,1.712,0,0,0-1.054.317.935.935,0,0,0-.425.768H8.963a1.621,1.621,0,0,1,.365-.993,2.491,2.491,0,0,1,.99-.759A3.331,3.331,0,0,1,11.692,22a2.715,2.715,0,0,1,1.86.594,2.141,2.141,0,0,1,.7,1.635v3.161a3.865,3.865,0,0,0,.241,1.5V29Zm-1.949-.9a2.064,2.064,0,0,0,1.047-.286,1.728,1.728,0,0,0,.717-.743V25.667h-.92Q10,25.667,10,26.931a1.069,1.069,0,0,0,.368.863A1.415,1.415,0,0,0,11.312,28.1Zm8.779-.927a.864.864,0,0,0-.359-.74,3.452,3.452,0,0,0-1.25-.454,5.912,5.912,0,0,1-1.416-.457,2.014,2.014,0,0,1-.774-.635,1.518,1.518,0,0,1-.251-.876,1.782,1.782,0,0,1,.714-1.428A2.789,2.789,0,0,1,18.58,22a2.87,2.87,0,0,1,1.895.6A1.915,1.915,0,0,1,21.2,24.15H20.021a1.06,1.06,0,0,0-.409-.832,1.534,1.534,0,0,0-1.031-.349,1.606,1.606,0,0,0-1,.279.879.879,0,0,0-.362.73.712.712,0,0,0,.336.641,4.139,4.139,0,0,0,1.216.413,6.334,6.334,0,0,1,1.425.47,2.079,2.079,0,0,1,.809.657,1.615,1.615,0,0,1,.263.936,1.758,1.758,0,0,1-.736,1.476,3.089,3.089,0,0,1-1.911.555,3.459,3.459,0,0,1-1.46-.292,2.375,2.375,0,0,1-.993-.816,1.966,1.966,0,0,1-.359-1.133H16.98a1.216,1.216,0,0,0,.473.936,1.835,1.835,0,0,0,1.165.346,1.894,1.894,0,0,0,1.07-.27A.829.829,0,0,0,20.09,27.178ZM22.483,25.5a4.057,4.057,0,0,1,.4-1.815,2.96,2.96,0,0,1,1.1-1.244A3.007,3.007,0,0,1,25.6,22a2.9,2.9,0,0,1,2.269.971,3.736,3.736,0,0,1,.866,2.583v.083a4.092,4.092,0,0,1-.384,1.8,2.916,2.916,0,0,1-1.1,1.241,3.041,3.041,0,0,1-1.641.444,2.889,2.889,0,0,1-2.263-.971,3.718,3.718,0,0,1-.866-2.571Zm1.181.14a2.938,2.938,0,0,0,.53,1.834,1.8,1.8,0,0,0,2.841-.01,3.213,3.213,0,0,0,.527-1.965,2.933,2.933,0,0,0-.536-1.831,1.705,1.705,0,0,0-1.425-.7,1.686,1.686,0,0,0-1.4.692A3.189,3.189,0,0,0,23.664,25.642ZM39.362,29H33.306v-.844l3.2-3.555a7.6,7.6,0,0,0,.981-1.311,2.188,2.188,0,0,0,.27-1.044,1.658,1.658,0,0,0-.438-1.187A1.531,1.531,0,0,0,36.15,20.6a1.814,1.814,0,0,0-1.362.5,1.9,1.9,0,0,0-.486,1.387H33.128a2.726,2.726,0,0,1,.822-2.063,3.047,3.047,0,0,1,2.2-.787,2.928,2.928,0,0,1,2.038.676,2.306,2.306,0,0,1,.749,1.8,5.287,5.287,0,0,1-1.739,3.25l-2.476,2.685h4.64ZM.939,43.384a.735.735,0,0,1,.181-.508.689.689,0,0,1,.543-.2.71.71,0,0,1,.549.2.721.721,0,0,1,.187.508.681.681,0,0,1-.187.489.723.723,0,0,1-.549.2.7.7,0,0,1-.543-.2A.7.7,0,0,1,.939,43.384Zm2.774,0a.735.735,0,0,1,.181-.508.689.689,0,0,1,.543-.2.71.71,0,0,1,.549.2.721.721,0,0,1,.187.508.681.681,0,0,1-.187.489.723.723,0,0,1-.549.2.653.653,0,0,1-.724-.686Zm2.634,0a.735.735,0,0,1,.181-.508.689.689,0,0,1,.543-.2.71.71,0,0,1,.549.2.721.721,0,0,1,.187.508.681.681,0,0,1-.187.489.723.723,0,0,1-.549.2.653.653,0,0,1-.724-.686Zm-4.056,12V59H1.073V49.758H4.481a3.425,3.425,0,0,1,2.377.774,2.625,2.625,0,0,1,.86,2.05,2.591,2.591,0,0,1-.841,2.073,3.578,3.578,0,0,1-2.409.727Zm0-1h2.19a2.19,2.19,0,0,0,1.5-.461A1.686,1.686,0,0,0,6.5,52.592a1.742,1.742,0,0,0-.521-1.323,2.051,2.051,0,0,0-1.428-.515H2.292ZM13.26,59a2.467,2.467,0,0,1-.165-.724,2.62,2.62,0,0,1-1.955.851,2.424,2.424,0,0,1-1.666-.574A1.859,1.859,0,0,1,8.823,57.1a1.942,1.942,0,0,1,.816-1.666,3.846,3.846,0,0,1,2.295-.594h1.143V54.3a1.319,1.319,0,0,0-.368-.981,1.48,1.48,0,0,0-1.085-.365,1.712,1.712,0,0,0-1.054.317.935.935,0,0,0-.425.768H8.963a1.621,1.621,0,0,1,.365-.993,2.491,2.491,0,0,1,.99-.759A3.331,3.331,0,0,1,11.692,52a2.715,2.715,0,0,1,1.86.594,2.141,2.141,0,0,1,.7,1.635v3.161a3.865,3.865,0,0,0,.241,1.5V59Zm-1.949-.9a2.064,2.064,0,0,0,1.047-.286,1.728,1.728,0,0,0,.717-.743V55.667h-.92Q10,55.667,10,56.931a1.069,1.069,0,0,0,.368.863A1.415,1.415,0,0,0,11.312,58.1Zm8.779-.927a.864.864,0,0,0-.359-.74,3.452,3.452,0,0,0-1.25-.454,5.912,5.912,0,0,1-1.416-.457,2.014,2.014,0,0,1-.774-.635,1.518,1.518,0,0,1-.251-.876,1.782,1.782,0,0,1,.714-1.428A2.789,2.789,0,0,1,18.58,52a2.87,2.87,0,0,1,1.895.6A1.915,1.915,0,0,1,21.2,54.15H20.021a1.06,1.06,0,0,0-.409-.832,1.534,1.534,0,0,0-1.031-.349,1.605,1.605,0,0,0-1,.279.879.879,0,0,0-.362.73.712.712,0,0,0,.336.641,4.139,4.139,0,0,0,1.216.413,6.334,6.334,0,0,1,1.425.47,2.079,2.079,0,0,1,.809.657,1.615,1.615,0,0,1,.263.936,1.758,1.758,0,0,1-.736,1.476,3.089,3.089,0,0,1-1.911.555,3.459,3.459,0,0,1-1.46-.292,2.374,2.374,0,0,1-.993-.816,1.966,1.966,0,0,1-.359-1.133H16.98a1.216,1.216,0,0,0,.473.936,1.835,1.835,0,0,0,1.165.346,1.894,1.894,0,0,0,1.07-.27A.829.829,0,0,0,20.09,57.178ZM22.483,55.5a4.057,4.057,0,0,1,.4-1.815,2.96,2.96,0,0,1,1.1-1.244A3.007,3.007,0,0,1,25.6,52a2.9,2.9,0,0,1,2.269.971,3.736,3.736,0,0,1,.866,2.583v.083a4.092,4.092,0,0,1-.384,1.8,2.916,2.916,0,0,1-1.1,1.241,3.041,3.041,0,0,1-1.641.444,2.889,2.889,0,0,1-2.263-.971,3.718,3.718,0,0,1-.866-2.571Zm1.181.14a2.938,2.938,0,0,0,.53,1.834,1.8,1.8,0,0,0,2.841-.01,3.213,3.213,0,0,0,.527-1.965,2.933,2.933,0,0,0-.536-1.831,1.705,1.705,0,0,0-1.425-.7,1.686,1.686,0,0,0-1.4.692A3.189,3.189,0,0,0,23.664,55.642Zm10.874-3.51.038.863A2.5,2.5,0,0,1,36.632,52q2.177,0,2.2,2.457V59H37.654V54.455a1.581,1.581,0,0,0-.34-1.1A1.361,1.361,0,0,0,36.277,53a1.7,1.7,0,0,0-1,.3,2.069,2.069,0,0,0-.673.8V59H33.427V52.132Z" transform="translate(849 3368)" fill="#12263f"/>
      <g id="Grupo_87389" data-name="Grupo 87389" transform="translate(8 43)">
        <path id="Trazado_153672" data-name="Trazado 153672" d="M7.368,11.642H3.149V16H.952V5.336H7.9v1.78H3.149V9.87H7.368ZM13.374,16a2.351,2.351,0,0,1-.212-.71,2.561,2.561,0,0,1-2,.857,2.814,2.814,0,0,1-1.93-.674,2.167,2.167,0,0,1-.765-1.7A2.24,2.24,0,0,1,9.4,11.84a4.608,4.608,0,0,1,2.7-.681h.974V10.7a1.306,1.306,0,0,0-.282-.879,1.109,1.109,0,0,0-.89-.33,1.261,1.261,0,0,0-.839.256.871.871,0,0,0-.3.7H8.643a2.126,2.126,0,0,1,.425-1.274,2.808,2.808,0,0,1,1.2-.919,4.378,4.378,0,0,1,1.743-.333,3.459,3.459,0,0,1,2.325.736,2.575,2.575,0,0,1,.861,2.069v3.435a3.789,3.789,0,0,0,.315,1.707V16Zm-1.75-1.472a1.823,1.823,0,0,0,.864-.209,1.371,1.371,0,0,0,.586-.56V12.4h-.791q-1.589,0-1.692,1.1l-.007.125a.847.847,0,0,0,.278.652A1.081,1.081,0,0,0,11.624,14.528ZM19.058,16H16.934V4.75h2.124Zm3.977,0H20.911V4.75h2.124Zm6.335,0a2.351,2.351,0,0,1-.212-.71,2.561,2.561,0,0,1-2,.857,2.814,2.814,0,0,1-1.93-.674,2.167,2.167,0,0,1-.765-1.7A2.24,2.24,0,0,1,25.4,11.84a4.608,4.608,0,0,1,2.7-.681h.974V10.7a1.306,1.306,0,0,0-.282-.879,1.109,1.109,0,0,0-.89-.33,1.261,1.261,0,0,0-.839.256.871.871,0,0,0-.3.7H24.639a2.126,2.126,0,0,1,.425-1.274,2.808,2.808,0,0,1,1.2-.919,4.378,4.378,0,0,1,1.743-.333,3.459,3.459,0,0,1,2.325.736,2.575,2.575,0,0,1,.861,2.069v3.435a3.789,3.789,0,0,0,.315,1.707V16Zm-1.75-1.472a1.823,1.823,0,0,0,.864-.209,1.371,1.371,0,0,0,.586-.56V12.4h-.791q-1.589,0-1.692,1.1l-.007.125a.847.847,0,0,0,.278.652A1.081,1.081,0,0,0,27.62,14.528Z" transform="translate(760 3392)" fill="#12263f"/>
        <g id="Rectángulo_8101" data-name="Rectángulo 8101" transform="translate(744 3414)" fill="#ecc8ff" stroke="#d07efc" stroke-width="2">
          <rect width="97" height="61" rx="8" stroke="none"/>
          <rect x="1" y="1" width="95" height="59" rx="7" fill="none"/>
        </g>
        <path id="Trazado_153673" data-name="Trazado 153673" d="M4.945,4.758H6.17V11.3a2.711,2.711,0,0,1-.8,2.076,2.974,2.974,0,0,1-2.123.749,3.056,3.056,0,0,1-2.146-.7,2.544,2.544,0,0,1-.768-1.974H1.555a1.694,1.694,0,0,0,.435,1.238,1.685,1.685,0,0,0,1.26.444,1.634,1.634,0,0,0,1.222-.476,1.844,1.844,0,0,0,.473-1.333ZM12.3,13.321a2.494,2.494,0,0,1-2.012.806,2.135,2.135,0,0,1-1.673-.638A2.761,2.761,0,0,1,8.036,11.6V7.132H9.21v4.437q0,1.562,1.27,1.562a1.758,1.758,0,0,0,1.79-1v-5h1.174V14H12.327Zm4.037-6.189L16.377,8A2.5,2.5,0,0,1,18.434,7q2.177,0,2.2,2.457V14H19.456V9.455a1.581,1.581,0,0,0-.34-1.1A1.361,1.361,0,0,0,18.078,8a1.7,1.7,0,0,0-1,.3,2.069,2.069,0,0,0-.673.8V14H15.228V7.132ZM23.677,14H22.5V7.132h1.174Zm-1.27-8.69a.7.7,0,0,1,.175-.482.655.655,0,0,1,.517-.2.666.666,0,0,1,.521.2.694.694,0,0,1,.178.482.671.671,0,0,1-.178.476.678.678,0,0,1-.521.19.667.667,0,0,1-.517-.19A.678.678,0,0,1,22.407,5.31Zm4.742.159V7.132h1.282V8.04H27.149V12.3a.953.953,0,0,0,.171.62.721.721,0,0,0,.584.207,2.843,2.843,0,0,0,.559-.076V14a3.424,3.424,0,0,1-.9.126,1.462,1.462,0,0,1-1.187-.476,2.045,2.045,0,0,1-.4-1.352V8.04h-1.25V7.132h1.25V5.469ZM2.647,19.758,5.668,27.3,8.69,19.758h1.581V29H9.052V25.4l.114-3.885L6.132,29H5.2L2.171,21.535,2.292,25.4V29H1.073V19.758Zm9.28,5.745a4.057,4.057,0,0,1,.4-1.815,2.96,2.96,0,0,1,1.1-1.244A3.007,3.007,0,0,1,15.044,22a2.9,2.9,0,0,1,2.269.971,3.736,3.736,0,0,1,.866,2.583v.083a4.092,4.092,0,0,1-.384,1.8,2.916,2.916,0,0,1-1.1,1.241,3.041,3.041,0,0,1-1.641.444,2.889,2.889,0,0,1-2.263-.971,3.718,3.718,0,0,1-.866-2.571Zm1.181.14a2.938,2.938,0,0,0,.53,1.834,1.8,1.8,0,0,0,2.841-.01,3.213,3.213,0,0,0,.527-1.965,2.933,2.933,0,0,0-.536-1.831,1.705,1.705,0,0,0-1.425-.7,1.686,1.686,0,0,0-1.4.692A3.189,3.189,0,0,0,13.108,25.642Zm9.3,2.526a1.692,1.692,0,0,0,1.1-.381,1.34,1.34,0,0,0,.521-.952h1.111a2.13,2.13,0,0,1-.406,1.124,2.676,2.676,0,0,1-1,.851,2.885,2.885,0,0,1-1.323.317,2.829,2.829,0,0,1-2.231-.936,3.729,3.729,0,0,1-.828-2.561v-.2a4.135,4.135,0,0,1,.368-1.784,2.8,2.8,0,0,1,1.057-1.212A3,3,0,0,1,22.4,22a2.755,2.755,0,0,1,1.92.692,2.473,2.473,0,0,1,.816,1.8H24.026a1.618,1.618,0,0,0-.5-1.095,1.57,1.57,0,0,0-1.12-.428,1.644,1.644,0,0,0-1.387.644,3.026,3.026,0,0,0-.492,1.863V25.7a2.965,2.965,0,0,0,.489,1.828A1.651,1.651,0,0,0,22.407,28.168Zm5.967-2.349-.736.768V29H26.463V19.25h1.174v5.9l.628-.755,2.139-2.26h1.428L29.161,25l2.983,4H30.767ZM34.322,29H33.147V22.132h1.174Zm-1.27-8.69a.7.7,0,0,1,.175-.482.655.655,0,0,1,.517-.2.666.666,0,0,1,.521.2.694.694,0,0,1,.178.482.671.671,0,0,1-.178.476.678.678,0,0,1-.521.19.667.667,0,0,1-.517-.19A.678.678,0,0,1,33.052,20.31Zm4.742.159v1.663h1.282v.908H37.794V27.3a.953.953,0,0,0,.171.62.721.721,0,0,0,.584.207,2.843,2.843,0,0,0,.559-.076V29a3.424,3.424,0,0,1-.9.126,1.462,1.462,0,0,1-1.187-.476,2.045,2.045,0,0,1-.4-1.352V23.04h-1.25v-.908h1.25V20.469ZM40.009,25.5a4.057,4.057,0,0,1,.4-1.815,2.96,2.96,0,0,1,1.1-1.244A3.007,3.007,0,0,1,43.126,22a2.9,2.9,0,0,1,2.269.971,3.736,3.736,0,0,1,.866,2.583v.083a4.092,4.092,0,0,1-.384,1.8,2.916,2.916,0,0,1-1.1,1.241,3.041,3.041,0,0,1-1.641.444,2.889,2.889,0,0,1-2.263-.971,3.718,3.718,0,0,1-.866-2.571Zm1.181.14a2.938,2.938,0,0,0,.53,1.834,1.8,1.8,0,0,0,2.841-.01,3.213,3.213,0,0,0,.527-1.965,2.933,2.933,0,0,0-.536-1.831,1.705,1.705,0,0,0-1.425-.7,1.686,1.686,0,0,0-1.4.692A3.189,3.189,0,0,0,41.19,25.642ZM7.871,41.067A3.4,3.4,0,0,1,6.789,43.33a3.547,3.547,0,0,1-2.422.8,3.257,3.257,0,0,1-2.625-1.174,4.724,4.724,0,0,1-.987-3.142v-.889a5.266,5.266,0,0,1,.46-2.266,3.438,3.438,0,0,1,1.3-1.5,3.632,3.632,0,0,1,1.955-.524,3.34,3.34,0,0,1,2.361.822,3.441,3.441,0,0,1,1.035,2.276H6.646a2.655,2.655,0,0,0-.689-1.6,2.084,2.084,0,0,0-1.482-.5,2.181,2.181,0,0,0-1.831.864A3.966,3.966,0,0,0,1.98,38.95v.9a4.077,4.077,0,0,0,.628,2.4,2.031,2.031,0,0,0,1.758.889,2.345,2.345,0,0,0,1.558-.46,2.554,2.554,0,0,0,.72-1.6Zm5.719,2.253a2.494,2.494,0,0,1-2.012.806,2.135,2.135,0,0,1-1.673-.638A2.761,2.761,0,0,1,9.325,41.6V37.132H10.5v4.437q0,1.562,1.27,1.562a1.758,1.758,0,0,0,1.79-1v-5h1.174V44H13.616Zm5.681-.152a1.692,1.692,0,0,0,1.1-.381,1.34,1.34,0,0,0,.521-.952H22a2.13,2.13,0,0,1-.406,1.124,2.676,2.676,0,0,1-1,.851,2.885,2.885,0,0,1-1.323.317,2.829,2.829,0,0,1-2.231-.936,3.729,3.729,0,0,1-.828-2.561v-.2a4.135,4.135,0,0,1,.368-1.784,2.8,2.8,0,0,1,1.057-1.212A3,3,0,0,1,19.265,37a2.755,2.755,0,0,1,1.92.692,2.473,2.473,0,0,1,.816,1.8H20.89a1.618,1.618,0,0,0-.5-1.095,1.57,1.57,0,0,0-1.12-.428,1.644,1.644,0,0,0-1.387.644,3.026,3.026,0,0,0-.492,1.863V40.7a2.966,2.966,0,0,0,.489,1.828A1.651,1.651,0,0,0,19.271,43.168Zm8.29.152a2.494,2.494,0,0,1-2.012.806,2.135,2.135,0,0,1-1.673-.638A2.761,2.761,0,0,1,23.3,41.6V37.132H24.47v4.437q0,1.562,1.27,1.562a1.758,1.758,0,0,0,1.79-1v-5H28.7V44H27.587Zm4.031-6.189.032.762A2.536,2.536,0,0,1,33.662,37a1.964,1.964,0,0,1,1.961,1.1,2.6,2.6,0,0,1,.892-.8,2.634,2.634,0,0,1,1.3-.3q2.26,0,2.3,2.393V44H38.937V39.468a1.577,1.577,0,0,0-.336-1.1A1.482,1.482,0,0,0,37.47,38a1.557,1.557,0,0,0-1.085.39,1.584,1.584,0,0,0-.5,1.051V44H34.7V39.5A1.31,1.31,0,0,0,33.236,38a1.571,1.571,0,0,0-1.581.984V44H30.481V37.132Zm16.1,3.51a4.084,4.084,0,0,1-.724,2.53,2.312,2.312,0,0,1-1.942.955,2.394,2.394,0,0,1-2.012-.92L42.961,44H41.882V34.25h1.174v3.637A2.381,2.381,0,0,1,45.018,37a2.326,2.326,0,0,1,1.965.946,4.206,4.206,0,0,1,.714,2.59Zm-1.174-.133a3.173,3.173,0,0,0-.463-1.854A1.534,1.534,0,0,0,44.726,38a1.724,1.724,0,0,0-1.669,1.079v2.971a1.772,1.772,0,0,0,1.682,1.079,1.526,1.526,0,0,0,1.314-.654A3.374,3.374,0,0,0,46.522,40.509Zm5.5,3.618a3,3,0,0,1-2.272-.917,3.4,3.4,0,0,1-.876-2.453v-.216a4.121,4.121,0,0,1,.39-1.825,3.045,3.045,0,0,1,1.092-1.257A2.745,2.745,0,0,1,51.879,37a2.572,2.572,0,0,1,2.082.882,3.82,3.82,0,0,1,.743,2.526V40.9H50.051a2.441,2.441,0,0,0,.594,1.641,1.866,1.866,0,0,0,1.444.625,2.045,2.045,0,0,0,1.054-.254,2.648,2.648,0,0,0,.755-.673l.717.559A2.884,2.884,0,0,1,52.025,44.127Zm-.146-6.157a1.566,1.566,0,0,0-1.193.517,2.515,2.515,0,0,0-.6,1.45h3.44v-.089a2.237,2.237,0,0,0-.482-1.387A1.475,1.475,0,0,0,51.879,37.97Zm7.5.216a3.519,3.519,0,0,0-.578-.044,1.547,1.547,0,0,0-1.568.984V44H56.063V37.132h1.143l.019.793A1.829,1.829,0,0,1,58.862,37a1.2,1.2,0,0,1,.521.089Z" transform="translate(760 3422)" fill="#12263f"/>
      </g>
      <g id="Grupo_87393" data-name="Grupo 87393" transform="translate(3 31)">
        <path id="Trazado_153676" data-name="Trazado 153676" d="M3.149,12.243V16H.952V5.336h4.16a4.813,4.813,0,0,1,2.113.439,3.238,3.238,0,0,1,1.4,1.249,3.482,3.482,0,0,1,.491,1.842,3.062,3.062,0,0,1-1.073,2.472,4.469,4.469,0,0,1-2.97.9Zm0-1.78H5.112a1.93,1.93,0,0,0,1.329-.41A1.492,1.492,0,0,0,6.9,8.881a1.759,1.759,0,0,0-.461-1.267,1.724,1.724,0,0,0-1.274-.5H3.149ZM15,16a2.351,2.351,0,0,1-.212-.71,2.561,2.561,0,0,1-2,.857,2.814,2.814,0,0,1-1.93-.674,2.167,2.167,0,0,1-.765-1.7,2.24,2.24,0,0,1,.934-1.934,4.608,4.608,0,0,1,2.7-.681H14.7V10.7a1.306,1.306,0,0,0-.282-.879,1.109,1.109,0,0,0-.89-.33,1.261,1.261,0,0,0-.839.256.871.871,0,0,0-.3.7H10.269a2.126,2.126,0,0,1,.425-1.274,2.808,2.808,0,0,1,1.2-.919,4.378,4.378,0,0,1,1.743-.333,3.459,3.459,0,0,1,2.325.736,2.575,2.575,0,0,1,.861,2.069v3.435a3.789,3.789,0,0,0,.315,1.707V16Zm-1.75-1.472a1.823,1.823,0,0,0,.864-.209,1.371,1.371,0,0,0,.586-.56V12.4h-.791q-1.589,0-1.692,1.1l-.007.125a.847.847,0,0,0,.278.652A1.081,1.081,0,0,0,13.25,14.528Zm9.492-.718a.682.682,0,0,0-.385-.612,4.368,4.368,0,0,0-1.234-.4Q18.3,12.206,18.3,10.4a2.178,2.178,0,0,1,.875-1.761,3.531,3.531,0,0,1,2.289-.707,3.8,3.8,0,0,1,2.413.71,2.239,2.239,0,0,1,.9,1.846H22.661a1.024,1.024,0,0,0-.293-.751,1.24,1.24,0,0,0-.916-.3,1.267,1.267,0,0,0-.828.242.763.763,0,0,0-.293.615.652.652,0,0,0,.333.568,3.428,3.428,0,0,0,1.124.374,9.183,9.183,0,0,1,1.333.355A2.19,2.19,0,0,1,24.8,13.722a2.067,2.067,0,0,1-.93,1.754,4.013,4.013,0,0,1-2.4.67,4.191,4.191,0,0,1-1.769-.355,2.968,2.968,0,0,1-1.212-.974,2.263,2.263,0,0,1-.439-1.337h2.007a1.105,1.105,0,0,0,.417.864,1.656,1.656,0,0,0,1.04.3,1.533,1.533,0,0,0,.919-.231A.718.718,0,0,0,22.742,13.81ZM30.754,16a2.351,2.351,0,0,1-.212-.71,2.561,2.561,0,0,1-2,.857,2.814,2.814,0,0,1-1.93-.674,2.167,2.167,0,0,1-.765-1.7,2.24,2.24,0,0,1,.934-1.934,4.608,4.608,0,0,1,2.7-.681h.974V10.7a1.306,1.306,0,0,0-.282-.879,1.109,1.109,0,0,0-.89-.33,1.261,1.261,0,0,0-.839.256.871.871,0,0,0-.3.7H26.023a2.126,2.126,0,0,1,.425-1.274,2.808,2.808,0,0,1,1.2-.919,4.378,4.378,0,0,1,1.743-.333,3.459,3.459,0,0,1,2.325.736,2.575,2.575,0,0,1,.861,2.069v3.435a3.789,3.789,0,0,0,.315,1.707V16ZM29,14.528a1.823,1.823,0,0,0,.864-.209,1.371,1.371,0,0,0,.586-.56V12.4h-.791q-1.589,0-1.692,1.1l-.007.125a.847.847,0,0,0,.278.652A1.081,1.081,0,0,0,29,14.528Z" transform="translate(843 3520)" fill="#12263f"/>
        <g id="Grupo_87390" data-name="Grupo 87390">
          <g id="Rectángulo_8102" data-name="Rectángulo 8102" transform="translate(833 3545)" fill="#d1c7fe" stroke="#856de9" stroke-width="2">
            <rect width="118" height="50" rx="8" stroke="none"/>
            <rect x="1" y="1" width="116" height="48" rx="7" fill="none"/>
          </g>
          <path id="Trazado_153677" data-name="Trazado 153677" d="M2.38,14H1.162V4.758H2.38ZM5.529,7.132l.032.762A2.536,2.536,0,0,1,7.6,7a1.964,1.964,0,0,1,1.961,1.1,2.6,2.6,0,0,1,.892-.8,2.634,2.634,0,0,1,1.3-.3q2.26,0,2.3,2.393V14H12.873V9.468a1.577,1.577,0,0,0-.336-1.1A1.482,1.482,0,0,0,11.407,8a1.557,1.557,0,0,0-1.085.39,1.584,1.584,0,0,0-.5,1.051V14H8.639V9.5A1.31,1.31,0,0,0,7.173,8a1.571,1.571,0,0,0-1.581.984V14H4.418V7.132Zm16.091,3.51a4.113,4.113,0,0,1-.717,2.526,2.3,2.3,0,0,1-1.942.958,2.519,2.519,0,0,1-1.968-.793v3.307H15.818V7.132h1.073l.057.762A2.419,2.419,0,0,1,18.941,7a2.342,2.342,0,0,1,1.958.933,4.157,4.157,0,0,1,.72,2.6Zm-1.174-.133a3.035,3.035,0,0,0-.5-1.834A1.6,1.6,0,0,0,18.592,8a1.726,1.726,0,0,0-1.6.946v3.282a1.73,1.73,0,0,0,1.612.939,1.587,1.587,0,0,0,1.343-.67A3.312,3.312,0,0,0,20.446,10.509ZM24.388,14H23.213V4.25h1.174Zm4.729.127a3,3,0,0,1-2.272-.917,3.4,3.4,0,0,1-.876-2.453v-.216a4.121,4.121,0,0,1,.39-1.825A3.045,3.045,0,0,1,27.45,7.459,2.745,2.745,0,0,1,28.971,7a2.572,2.572,0,0,1,2.082.882,3.82,3.82,0,0,1,.743,2.526V10.9H27.143a2.441,2.441,0,0,0,.594,1.641,1.866,1.866,0,0,0,1.444.625,2.045,2.045,0,0,0,1.054-.254,2.648,2.648,0,0,0,.755-.673l.717.559A2.884,2.884,0,0,1,29.117,14.127ZM28.971,7.97a1.566,1.566,0,0,0-1.193.517,2.515,2.515,0,0,0-.6,1.45h3.44V9.849a2.237,2.237,0,0,0-.482-1.387A1.475,1.475,0,0,0,28.971,7.97Zm5.288-.838.032.762A2.536,2.536,0,0,1,36.328,7a1.964,1.964,0,0,1,1.961,1.1,2.6,2.6,0,0,1,.892-.8,2.634,2.634,0,0,1,1.3-.3q2.26,0,2.3,2.393V14H41.6V9.468a1.577,1.577,0,0,0-.336-1.1A1.482,1.482,0,0,0,40.136,8a1.557,1.557,0,0,0-1.085.39,1.584,1.584,0,0,0-.5,1.051V14H37.369V9.5A1.31,1.31,0,0,0,35.9,8a1.571,1.571,0,0,0-1.581.984V14H33.147V7.132Zm13.14,7a3,3,0,0,1-2.272-.917,3.4,3.4,0,0,1-.876-2.453v-.216a4.121,4.121,0,0,1,.39-1.825,3.045,3.045,0,0,1,1.092-1.257A2.745,2.745,0,0,1,47.252,7a2.572,2.572,0,0,1,2.082.882,3.82,3.82,0,0,1,.743,2.526V10.9H45.424a2.441,2.441,0,0,0,.594,1.641,1.866,1.866,0,0,0,1.444.625,2.045,2.045,0,0,0,1.054-.254,2.648,2.648,0,0,0,.755-.673l.717.559A2.884,2.884,0,0,1,47.4,14.127ZM47.252,7.97a1.566,1.566,0,0,0-1.193.517,2.515,2.515,0,0,0-.6,1.45H48.9V9.849a2.237,2.237,0,0,0-.482-1.387A1.475,1.475,0,0,0,47.252,7.97Zm5.294-.838L52.584,8A2.5,2.5,0,0,1,54.641,7q2.177,0,2.2,2.457V14H55.663V9.455a1.581,1.581,0,0,0-.34-1.1A1.361,1.361,0,0,0,54.285,8a1.7,1.7,0,0,0-1,.3,2.069,2.069,0,0,0-.673.8V14H51.435V7.132ZM60.2,5.469V7.132h1.282V8.04H60.2V12.3a.953.953,0,0,0,.171.62.721.721,0,0,0,.584.207,2.843,2.843,0,0,0,.559-.076V14a3.424,3.424,0,0,1-.9.126,1.462,1.462,0,0,1-1.187-.476,2.045,2.045,0,0,1-.4-1.352V8.04h-1.25V7.132h1.25V5.469ZM67.095,14a2.467,2.467,0,0,1-.165-.724,2.62,2.62,0,0,1-1.955.851,2.424,2.424,0,0,1-1.666-.574,1.859,1.859,0,0,1-.651-1.457,1.942,1.942,0,0,1,.816-1.666,3.846,3.846,0,0,1,2.295-.594h1.143V9.3a1.319,1.319,0,0,0-.368-.981,1.48,1.48,0,0,0-1.085-.365,1.712,1.712,0,0,0-1.054.317.935.935,0,0,0-.425.768H62.8a1.621,1.621,0,0,1,.365-.993,2.491,2.491,0,0,1,.99-.759A3.331,3.331,0,0,1,65.527,7a2.715,2.715,0,0,1,1.86.594,2.141,2.141,0,0,1,.7,1.635v3.161a3.865,3.865,0,0,0,.241,1.5V14Zm-1.949-.9a2.064,2.064,0,0,0,1.047-.286,1.728,1.728,0,0,0,.717-.743V10.667h-.92q-2.158,0-2.158,1.263a1.069,1.069,0,0,0,.368.863A1.415,1.415,0,0,0,65.146,13.1Zm7.535.063a1.691,1.691,0,0,0,1.1-.381,1.34,1.34,0,0,0,.521-.952H75.41A2.13,2.13,0,0,1,75,12.959a2.676,2.676,0,0,1-1,.851,2.885,2.885,0,0,1-1.323.317,2.829,2.829,0,0,1-2.231-.936,3.729,3.729,0,0,1-.828-2.561v-.2a4.135,4.135,0,0,1,.368-1.784,2.8,2.8,0,0,1,1.057-1.212A3,3,0,0,1,72.674,7a2.755,2.755,0,0,1,1.92.692,2.473,2.473,0,0,1,.816,1.8H74.3a1.618,1.618,0,0,0-.5-1.095,1.57,1.57,0,0,0-1.12-.428,1.644,1.644,0,0,0-1.387.644,3.026,3.026,0,0,0-.492,1.863V10.7a2.966,2.966,0,0,0,.489,1.828A1.651,1.651,0,0,0,72.681,13.168ZM78.006,14H76.832V7.132h1.174Zm-1.27-8.69a.7.7,0,0,1,.175-.482.655.655,0,0,1,.517-.2.666.666,0,0,1,.521.2.694.694,0,0,1,.178.482.671.671,0,0,1-.178.476.678.678,0,0,1-.521.19.667.667,0,0,1-.517-.19A.678.678,0,0,1,76.737,5.31ZM79.574,10.5a4.057,4.057,0,0,1,.4-1.815,2.96,2.96,0,0,1,1.1-1.244A3.007,3.007,0,0,1,82.691,7a2.9,2.9,0,0,1,2.269.971,3.736,3.736,0,0,1,.866,2.583v.083a4.092,4.092,0,0,1-.384,1.8,2.916,2.916,0,0,1-1.1,1.241,3.041,3.041,0,0,1-1.641.444,2.889,2.889,0,0,1-2.263-.971,3.718,3.718,0,0,1-.866-2.571Zm1.181.14a2.938,2.938,0,0,0,.53,1.834,1.8,1.8,0,0,0,2.841-.01,3.213,3.213,0,0,0,.527-1.965,2.933,2.933,0,0,0-.536-1.831,1.705,1.705,0,0,0-1.425-.7,1.686,1.686,0,0,0-1.4.692A3.189,3.189,0,0,0,80.755,10.642ZM83.224,4.25h1.422l-1.7,1.866-.946,0ZM88.41,7.132,88.448,8A2.5,2.5,0,0,1,90.5,7q2.177,0,2.2,2.457V14H91.527V9.455a1.581,1.581,0,0,0-.34-1.1A1.361,1.361,0,0,0,90.149,8a1.7,1.7,0,0,0-1,.3,2.069,2.069,0,0,0-.673.8V14H87.3V7.132ZM1.073,29V19.758H3.682a4.2,4.2,0,0,1,2.133.533,3.606,3.606,0,0,1,1.431,1.517,4.938,4.938,0,0,1,.511,2.26v.59a4.955,4.955,0,0,1-.5,2.292A3.55,3.55,0,0,1,5.811,28.46a4.467,4.467,0,0,1-2.18.54Zm1.219-8.246V28H3.574a2.79,2.79,0,0,0,2.193-.877,3.622,3.622,0,0,0,.784-2.5v-.54a3.68,3.68,0,0,0-.74-2.449,2.632,2.632,0,0,0-2.1-.886ZM10.689,29H9.515V22.132h1.174ZM9.42,20.31a.7.7,0,0,1,.175-.482.655.655,0,0,1,.517-.2.666.666,0,0,1,.521.2.694.694,0,0,1,.178.482.671.671,0,0,1-.178.476.678.678,0,0,1-.521.19.667.667,0,0,1-.517-.19A.678.678,0,0,1,9.42,20.31Zm7.147,6.868a.864.864,0,0,0-.359-.74,3.452,3.452,0,0,0-1.25-.454,5.912,5.912,0,0,1-1.416-.457,2.014,2.014,0,0,1-.774-.635,1.518,1.518,0,0,1-.251-.876,1.782,1.782,0,0,1,.714-1.428A2.789,2.789,0,0,1,15.057,22a2.87,2.87,0,0,1,1.895.6,1.915,1.915,0,0,1,.727,1.542H16.5a1.06,1.06,0,0,0-.409-.832,1.534,1.534,0,0,0-1.031-.349,1.606,1.606,0,0,0-1,.279.879.879,0,0,0-.362.73.712.712,0,0,0,.336.641,4.139,4.139,0,0,0,1.216.413,6.334,6.334,0,0,1,1.425.47,2.079,2.079,0,0,1,.809.657,1.615,1.615,0,0,1,.263.936,1.758,1.758,0,0,1-.736,1.476,3.089,3.089,0,0,1-1.911.555,3.459,3.459,0,0,1-1.46-.292,2.375,2.375,0,0,1-.993-.816,1.966,1.966,0,0,1-.359-1.133h1.174a1.216,1.216,0,0,0,.473.936,1.835,1.835,0,0,0,1.165.346,1.894,1.894,0,0,0,1.07-.27A.829.829,0,0,0,16.567,27.178Zm5.554,1.949a3,3,0,0,1-2.272-.917,3.4,3.4,0,0,1-.876-2.453v-.216a4.121,4.121,0,0,1,.39-1.825,3.045,3.045,0,0,1,1.092-1.257A2.745,2.745,0,0,1,21.976,22a2.572,2.572,0,0,1,2.082.882,3.82,3.82,0,0,1,.743,2.526V25.9H20.147a2.441,2.441,0,0,0,.594,1.641,1.866,1.866,0,0,0,1.444.625,2.045,2.045,0,0,0,1.054-.254,2.648,2.648,0,0,0,.755-.673l.717.559A2.884,2.884,0,0,1,22.122,29.127Zm-.146-6.157a1.566,1.566,0,0,0-1.193.517,2.515,2.515,0,0,0-.6,1.45h3.44v-.089a2.237,2.237,0,0,0-.482-1.387A1.475,1.475,0,0,0,21.976,22.97Zm5.294-.838.038.863A2.5,2.5,0,0,1,29.364,22q2.177,0,2.2,2.457V29H30.386V24.455a1.581,1.581,0,0,0-.34-1.1A1.361,1.361,0,0,0,29.009,23a1.7,1.7,0,0,0-1,.3,2.069,2.069,0,0,0-.673.8V29H26.159V22.132Zm3.885-2.679a1.578,1.578,0,0,1-.39,1.111,1.268,1.268,0,0,1-.974.425,1.43,1.43,0,0,1-.451-.063,2.432,2.432,0,0,1-.5-.26,2.158,2.158,0,0,0-.444-.238,1.087,1.087,0,0,0-.314-.041.582.582,0,0,0-.444.2.725.725,0,0,0-.184.511l-.787-.044a1.657,1.657,0,0,1,.384-1.124,1.232,1.232,0,0,1,.974-.444,1.183,1.183,0,0,1,.4.063,2.914,2.914,0,0,1,.482.248,2.839,2.839,0,0,0,.467.241,1.072,1.072,0,0,0,.359.057.568.568,0,0,0,.454-.216.757.757,0,0,0,.181-.5ZM33.021,25.5a4.057,4.057,0,0,1,.4-1.815,2.96,2.96,0,0,1,1.1-1.244A3.007,3.007,0,0,1,36.137,22a2.9,2.9,0,0,1,2.269.971,3.736,3.736,0,0,1,.866,2.583v.083a4.092,4.092,0,0,1-.384,1.8,2.916,2.916,0,0,1-1.1,1.241,3.041,3.041,0,0,1-1.641.444,2.889,2.889,0,0,1-2.263-.971,3.718,3.718,0,0,1-.866-2.571Zm1.181.14a2.938,2.938,0,0,0,.53,1.834,1.8,1.8,0,0,0,2.841-.01A3.213,3.213,0,0,0,38.1,25.5a2.933,2.933,0,0,0-.536-1.831,1.705,1.705,0,0,0-1.425-.7,1.686,1.686,0,0,0-1.4.692A3.189,3.189,0,0,0,34.2,25.642Z" transform="translate(845 3555)" fill="#12263f"/>
        </g>
      </g>
      <g id="Grupo_87392" data-name="Grupo 87392" transform="translate(3 31)">
        <path id="Trazado_153674" data-name="Trazado 153674" d="M4.9,12.1H3.149V16H.952V5.336H4.915a4.479,4.479,0,0,1,2.915.842,2.907,2.907,0,0,1,1.025,2.38,3.281,3.281,0,0,1-.472,1.82A3.222,3.222,0,0,1,6.951,11.54L9.258,15.9V16H6.9Zm-1.75-1.78H4.922A1.815,1.815,0,0,0,6.2,9.9a1.505,1.505,0,0,0,.454-1.161,1.611,1.611,0,0,0-.428-1.187,1.781,1.781,0,0,0-1.315-.432H3.149Zm10.884,5.83A3.89,3.89,0,0,1,11.2,15.077,3.8,3.8,0,0,1,10.1,12.228v-.205a4.787,4.787,0,0,1,.461-2.135,3.386,3.386,0,0,1,1.307-1.45,3.669,3.669,0,0,1,1.93-.509,3.289,3.289,0,0,1,2.56,1.025,4.167,4.167,0,0,1,.934,2.908v.864H12.246a1.966,1.966,0,0,0,.619,1.245,1.871,1.871,0,0,0,1.307.469,2.285,2.285,0,0,0,1.912-.886l1.04,1.165a3.178,3.178,0,0,1-1.289,1.051A4.229,4.229,0,0,1,14.033,16.146Zm-.242-6.511a1.323,1.323,0,0,0-1.022.427,2.209,2.209,0,0,0-.5,1.221h2.944v-.169a1.576,1.576,0,0,0-.381-1.092A1.365,1.365,0,0,0,13.792,9.635ZM19.072,16V9.628H17.893V8.075h1.179V7.4a2.736,2.736,0,0,1,.765-2.069A2.964,2.964,0,0,1,21.98,4.6a4.948,4.948,0,0,1,1.077.146l-.022,1.641a2.7,2.7,0,0,0-.645-.066q-1.194,0-1.194,1.121v.637h1.575V9.628H21.2V16Zm9.25-5.94A5.751,5.751,0,0,0,27.561,10a1.55,1.55,0,0,0-1.575.813V16H23.87V8.075h2l.059.945a1.961,1.961,0,0,1,1.765-1.091,2.218,2.218,0,0,1,.659.1ZM33.713,16a2.351,2.351,0,0,1-.212-.71,2.561,2.561,0,0,1-2,.857,2.814,2.814,0,0,1-1.93-.674,2.167,2.167,0,0,1-.765-1.7,2.24,2.24,0,0,1,.934-1.934,4.608,4.608,0,0,1,2.7-.681h.974V10.7a1.306,1.306,0,0,0-.282-.879,1.109,1.109,0,0,0-.89-.33,1.261,1.261,0,0,0-.839.256.871.871,0,0,0-.3.7H28.982a2.126,2.126,0,0,1,.425-1.274,2.808,2.808,0,0,1,1.2-.919,4.378,4.378,0,0,1,1.743-.333,3.459,3.459,0,0,1,2.325.736,2.575,2.575,0,0,1,.861,2.069v3.435a3.789,3.789,0,0,0,.315,1.707V16Zm-1.75-1.472a1.823,1.823,0,0,0,.864-.209,1.371,1.371,0,0,0,.586-.56V12.4h-.791q-1.589,0-1.692,1.1l-.007.125a.847.847,0,0,0,.278.652A1.081,1.081,0,0,0,31.963,14.528Zm8.5-.088a1.388,1.388,0,0,0,.952-.322,1.129,1.129,0,0,0,.381-.857h1.985a2.715,2.715,0,0,1-.439,1.476,2.9,2.9,0,0,1-1.183,1.04,3.7,3.7,0,0,1-1.659.37,3.44,3.44,0,0,1-2.681-1.08,4.275,4.275,0,0,1-.981-2.985v-.139a4.226,4.226,0,0,1,.974-2.922,3.4,3.4,0,0,1,2.673-1.091,3.333,3.333,0,0,1,2.384.846,3,3,0,0,1,.912,2.252H41.792a1.455,1.455,0,0,0-.381-1.005,1.416,1.416,0,0,0-2.084.153,3.125,3.125,0,0,0-.377,1.749v.22a3.164,3.164,0,0,0,.374,1.761A1.291,1.291,0,0,0,40.459,14.44ZM47.52,6.127V8.075h1.355V9.628H47.52v3.955a.944.944,0,0,0,.168.63.846.846,0,0,0,.645.19,3.376,3.376,0,0,0,.623-.051v1.6a4.358,4.358,0,0,1-1.282.19A2.021,2.021,0,0,1,45.4,13.9V9.628H44.246V8.075H45.4V6.127ZM49.5,11.964a4.7,4.7,0,0,1,.454-2.1,3.324,3.324,0,0,1,1.307-1.428,3.814,3.814,0,0,1,1.981-.505,3.609,3.609,0,0,1,2.618.981A3.939,3.939,0,0,1,57,11.576l.015.542a4.142,4.142,0,0,1-1.018,2.926,3.946,3.946,0,0,1-5.468,0A4.215,4.215,0,0,1,49.5,12.06Zm2.117.15a2.962,2.962,0,0,0,.425,1.727,1.526,1.526,0,0,0,2.417.007,3.241,3.241,0,0,0,.432-1.889,2.933,2.933,0,0,0-.432-1.716,1.4,1.4,0,0,0-1.216-.609,1.382,1.382,0,0,0-1.2.605A3.3,3.3,0,0,0,51.621,12.115ZM62.769,10.06A5.751,5.751,0,0,0,62.007,10a1.55,1.55,0,0,0-1.575.813V16H58.315V8.075h2l.059.945a1.961,1.961,0,0,1,1.765-1.091,2.218,2.218,0,0,1,.659.1ZM66.021,16H63.9V8.075h2.124ZM63.772,6.024a1.042,1.042,0,0,1,.319-.784,1.373,1.373,0,0,1,1.732,0,1.036,1.036,0,0,1,.322.784,1.039,1.039,0,0,1-.326.791,1.358,1.358,0,0,1-1.721,0A1.039,1.039,0,0,1,63.772,6.024ZM70.2,14.293H74.07V16H67.493V14.711l3.728-4.929H67.6V8.075h6.35V9.322ZM79.988,16a2.351,2.351,0,0,1-.212-.71,2.561,2.561,0,0,1-2,.857,2.814,2.814,0,0,1-1.93-.674,2.167,2.167,0,0,1-.765-1.7,2.24,2.24,0,0,1,.934-1.934,4.608,4.608,0,0,1,2.7-.681h.974V10.7a1.306,1.306,0,0,0-.282-.879,1.109,1.109,0,0,0-.89-.33,1.261,1.261,0,0,0-.839.256.871.871,0,0,0-.3.7H75.256a2.126,2.126,0,0,1,.425-1.274,2.808,2.808,0,0,1,1.2-.919,4.378,4.378,0,0,1,1.743-.333,3.459,3.459,0,0,1,2.325.736,2.575,2.575,0,0,1,.861,2.069v3.435a3.789,3.789,0,0,0,.315,1.707V16Zm-1.75-1.472a1.823,1.823,0,0,0,.864-.209,1.371,1.371,0,0,0,.586-.56V12.4H78.9q-1.589,0-1.692,1.1l-.007.125a.847.847,0,0,0,.278.652A1.081,1.081,0,0,0,78.237,14.528Z" transform="translate(651 3520)" fill="#12263f"/>
        <g id="Grupo_87391" data-name="Grupo 87391">
          <g id="Rectángulo_8103" data-name="Rectángulo 8103" transform="translate(643 3545)" fill="#b9e9ff" stroke="#18b6fe" stroke-width="2">
            <rect width="118" height="50" rx="8" stroke="none"/>
            <rect x="1" y="1" width="116" height="48" rx="7" fill="none"/>
          </g>
          <path id="Trazado_153675" data-name="Trazado 153675" d="M2.292,10.382V14H1.073V4.758H4.481a3.425,3.425,0,0,1,2.377.774,2.625,2.625,0,0,1,.86,2.05,2.591,2.591,0,0,1-.841,2.073,3.578,3.578,0,0,1-2.409.727Zm0-1h2.19a2.19,2.19,0,0,0,1.5-.461A1.686,1.686,0,0,0,6.5,7.592a1.742,1.742,0,0,0-.521-1.323,2.051,2.051,0,0,0-1.428-.515H2.292ZM13.26,14a2.467,2.467,0,0,1-.165-.724,2.62,2.62,0,0,1-1.955.851,2.424,2.424,0,0,1-1.666-.574A1.859,1.859,0,0,1,8.823,12.1a1.942,1.942,0,0,1,.816-1.666,3.846,3.846,0,0,1,2.295-.594h1.143V9.3a1.319,1.319,0,0,0-.368-.981,1.48,1.48,0,0,0-1.085-.365,1.712,1.712,0,0,0-1.054.317.935.935,0,0,0-.425.768H8.963a1.621,1.621,0,0,1,.365-.993,2.491,2.491,0,0,1,.99-.759A3.331,3.331,0,0,1,11.692,7a2.715,2.715,0,0,1,1.86.594,2.141,2.141,0,0,1,.7,1.635v3.161a3.865,3.865,0,0,0,.241,1.5V14Zm-1.949-.9a2.064,2.064,0,0,0,1.047-.286,1.728,1.728,0,0,0,.717-.743V10.667h-.92Q10,10.667,10,11.931a1.069,1.069,0,0,0,.368.863A1.415,1.415,0,0,0,11.312,13.1Zm6.373-7.636V7.132h1.282V8.04H17.685V12.3a.953.953,0,0,0,.171.62.721.721,0,0,0,.584.207A2.843,2.843,0,0,0,19,13.054V14a3.424,3.424,0,0,1-.9.126,1.462,1.462,0,0,1-1.187-.476,2.045,2.045,0,0,1-.4-1.352V8.04H15.26V7.132h1.25V5.469Zm5.973,2.717a3.519,3.519,0,0,0-.578-.044,1.547,1.547,0,0,0-1.568.984V14H20.338V7.132H21.48l.019.793A1.829,1.829,0,0,1,23.137,7a1.2,1.2,0,0,1,.521.089ZM24.3,10.5a4.057,4.057,0,0,1,.4-1.815,2.96,2.96,0,0,1,1.1-1.244A3.007,3.007,0,0,1,27.416,7a2.9,2.9,0,0,1,2.269.971,3.736,3.736,0,0,1,.866,2.583v.083a4.092,4.092,0,0,1-.384,1.8,2.916,2.916,0,0,1-1.1,1.241,3.041,3.041,0,0,1-1.641.444,2.889,2.889,0,0,1-2.263-.971,3.718,3.718,0,0,1-.866-2.571Zm1.181.14a2.938,2.938,0,0,0,.53,1.834,1.8,1.8,0,0,0,2.841-.01,3.213,3.213,0,0,0,.527-1.965,2.933,2.933,0,0,0-.536-1.831,1.705,1.705,0,0,0-1.425-.7,1.686,1.686,0,0,0-1.4.692A3.189,3.189,0,0,0,25.479,10.642Zm7.655-3.51L33.173,8A2.5,2.5,0,0,1,35.229,7q2.177,0,2.2,2.457V14H36.251V9.455a1.581,1.581,0,0,0-.34-1.1A1.361,1.361,0,0,0,34.874,8a1.7,1.7,0,0,0-1,.3,2.069,2.069,0,0,0-.673.8V14H32.024V7.132Zm8.912,7a3,3,0,0,1-2.272-.917,3.4,3.4,0,0,1-.876-2.453v-.216a4.121,4.121,0,0,1,.39-1.825,3.045,3.045,0,0,1,1.092-1.257A2.745,2.745,0,0,1,41.9,7a2.572,2.572,0,0,1,2.082.882,3.82,3.82,0,0,1,.743,2.526V10.9H40.073a2.441,2.441,0,0,0,.594,1.641,1.866,1.866,0,0,0,1.444.625,2.045,2.045,0,0,0,1.054-.254,2.648,2.648,0,0,0,.755-.673l.717.559A2.884,2.884,0,0,1,42.047,14.127ZM41.9,7.97a1.566,1.566,0,0,0-1.193.517,2.515,2.515,0,0,0-.6,1.45h3.44V9.849a2.237,2.237,0,0,0-.482-1.387A1.475,1.475,0,0,0,41.9,7.97Zm8.182,4.208a.865.865,0,0,0-.359-.74,3.452,3.452,0,0,0-1.25-.454,5.912,5.912,0,0,1-1.416-.457,2.014,2.014,0,0,1-.774-.635,1.518,1.518,0,0,1-.251-.876,1.782,1.782,0,0,1,.714-1.428A2.789,2.789,0,0,1,48.572,7a2.87,2.87,0,0,1,1.895.6,1.915,1.915,0,0,1,.727,1.542H50.013a1.06,1.06,0,0,0-.409-.832,1.534,1.534,0,0,0-1.031-.349,1.605,1.605,0,0,0-1,.279.879.879,0,0,0-.362.73.712.712,0,0,0,.336.641,4.139,4.139,0,0,0,1.216.413,6.334,6.334,0,0,1,1.425.47,2.079,2.079,0,0,1,.809.657,1.615,1.615,0,0,1,.263.936,1.758,1.758,0,0,1-.736,1.476,3.089,3.089,0,0,1-1.911.555,3.459,3.459,0,0,1-1.46-.292,2.375,2.375,0,0,1-.993-.816,1.966,1.966,0,0,1-.359-1.133h1.174a1.216,1.216,0,0,0,.473.936,1.835,1.835,0,0,0,1.165.346,1.894,1.894,0,0,0,1.07-.27A.829.829,0,0,0,50.083,12.178ZM4.462,25.261H2.292V29H1.066V19.758h3.06a3.621,3.621,0,0,1,2.4.711,2.558,2.558,0,0,1,.841,2.069,2.488,2.488,0,0,1-.467,1.5A2.785,2.785,0,0,1,5.6,25l2.171,3.923V29H6.468Zm-2.171-1H4.164a2.112,2.112,0,0,0,1.444-.471,1.591,1.591,0,0,0,.536-1.259,1.676,1.676,0,0,0-.511-1.316,2.164,2.164,0,0,0-1.476-.464H2.292Zm9.452,4.862a3,3,0,0,1-2.272-.917,3.4,3.4,0,0,1-.876-2.453v-.216a4.121,4.121,0,0,1,.39-1.825,3.045,3.045,0,0,1,1.092-1.257A2.745,2.745,0,0,1,11.6,22a2.572,2.572,0,0,1,2.082.882,3.82,3.82,0,0,1,.743,2.526V25.9H9.769a2.441,2.441,0,0,0,.594,1.641,1.866,1.866,0,0,0,1.444.625,2.045,2.045,0,0,0,1.054-.254,2.648,2.648,0,0,0,.755-.673l.717.559A2.884,2.884,0,0,1,11.743,29.127ZM11.6,22.97a1.566,1.566,0,0,0-1.193.517,2.515,2.515,0,0,0-.6,1.45h3.44v-.089a2.237,2.237,0,0,0-.482-1.387A1.475,1.475,0,0,0,11.6,22.97ZM16.358,29V23.04H15.272v-.908h1.085v-.7a2.339,2.339,0,0,1,.59-1.708,2.23,2.23,0,0,1,1.669-.6,3.1,3.1,0,0,1,.806.107l-.063.946a3.373,3.373,0,0,0-.635-.057,1.146,1.146,0,0,0-.882.334,1.356,1.356,0,0,0-.311.958v.726H19v.908H17.532V29Zm8.176,0a2.467,2.467,0,0,1-.165-.724,2.62,2.62,0,0,1-1.955.851,2.424,2.424,0,0,1-1.666-.574A1.859,1.859,0,0,1,20.1,27.1a1.942,1.942,0,0,1,.816-1.666,3.846,3.846,0,0,1,2.295-.594H24.35V24.3a1.319,1.319,0,0,0-.368-.981,1.48,1.48,0,0,0-1.085-.365,1.712,1.712,0,0,0-1.054.317.935.935,0,0,0-.425.768H20.236a1.621,1.621,0,0,1,.365-.993,2.491,2.491,0,0,1,.99-.759A3.331,3.331,0,0,1,22.966,22a2.715,2.715,0,0,1,1.86.594,2.141,2.141,0,0,1,.7,1.635v3.161a3.865,3.865,0,0,0,.241,1.5V29Zm-1.949-.9a2.064,2.064,0,0,0,1.047-.286,1.728,1.728,0,0,0,.717-.743V25.667h-.92q-2.158,0-2.158,1.263a1.069,1.069,0,0,0,.368.863A1.415,1.415,0,0,0,22.585,28.1Zm7.535.063a1.692,1.692,0,0,0,1.1-.381,1.34,1.34,0,0,0,.521-.952h1.111a2.13,2.13,0,0,1-.406,1.124,2.676,2.676,0,0,1-1,.851,2.885,2.885,0,0,1-1.323.317,2.829,2.829,0,0,1-2.231-.936,3.729,3.729,0,0,1-.828-2.561v-.2a4.135,4.135,0,0,1,.368-1.784,2.8,2.8,0,0,1,1.057-1.212A3,3,0,0,1,30.113,22a2.755,2.755,0,0,1,1.92.692,2.473,2.473,0,0,1,.816,1.8H31.738a1.618,1.618,0,0,0-.5-1.095,1.57,1.57,0,0,0-1.12-.428,1.644,1.644,0,0,0-1.387.644,3.026,3.026,0,0,0-.492,1.863V25.7a2.965,2.965,0,0,0,.489,1.828A1.651,1.651,0,0,0,30.12,28.168Zm5.643-7.7v1.663h1.282v.908H35.763V27.3a.953.953,0,0,0,.171.62.721.721,0,0,0,.584.207,2.843,2.843,0,0,0,.559-.076V29a3.424,3.424,0,0,1-.9.126,1.462,1.462,0,0,1-1.187-.476,2.045,2.045,0,0,1-.4-1.352V23.04h-1.25v-.908h1.25V20.469ZM37.978,25.5a4.057,4.057,0,0,1,.4-1.815,2.96,2.96,0,0,1,1.1-1.244A3.007,3.007,0,0,1,41.095,22a2.9,2.9,0,0,1,2.269.971,3.736,3.736,0,0,1,.866,2.583v.083a4.092,4.092,0,0,1-.384,1.8,2.916,2.916,0,0,1-1.1,1.241,3.041,3.041,0,0,1-1.641.444,2.889,2.889,0,0,1-2.263-.971,3.718,3.718,0,0,1-.866-2.571Zm1.181.14a2.938,2.938,0,0,0,.53,1.834,1.8,1.8,0,0,0,2.841-.01,3.213,3.213,0,0,0,.527-1.965,2.933,2.933,0,0,0-.536-1.831,1.705,1.705,0,0,0-1.425-.7,1.686,1.686,0,0,0-1.4.692A3.189,3.189,0,0,0,39.159,25.642Zm9.864-2.457a3.519,3.519,0,0,0-.578-.044,1.547,1.547,0,0,0-1.568.984V29H45.7V22.132h1.143l.019.793A1.829,1.829,0,0,1,48.5,22a1.2,1.2,0,0,1,.521.089ZM51.378,29H50.2V22.132h1.174Zm-1.27-8.69a.7.7,0,0,1,.175-.482.655.655,0,0,1,.517-.2.666.666,0,0,1,.521.2.694.694,0,0,1,.178.482.671.671,0,0,1-.178.476.678.678,0,0,1-.521.19.667.667,0,0,1-.517-.19A.678.678,0,0,1,50.108,20.31Zm4.253,7.731h4.018V29H52.927v-.863l3.79-5.034H52.984v-.971h5.205v.832ZM63.94,29a2.467,2.467,0,0,1-.165-.724,2.62,2.62,0,0,1-1.955.851,2.424,2.424,0,0,1-1.666-.574A1.859,1.859,0,0,1,59.5,27.1a1.942,1.942,0,0,1,.816-1.666,3.846,3.846,0,0,1,2.295-.594h1.143V24.3a1.319,1.319,0,0,0-.368-.981,1.48,1.48,0,0,0-1.085-.365,1.712,1.712,0,0,0-1.054.317.935.935,0,0,0-.425.768H59.643a1.621,1.621,0,0,1,.365-.993,2.491,2.491,0,0,1,.99-.759A3.331,3.331,0,0,1,62.372,22a2.715,2.715,0,0,1,1.86.594,2.141,2.141,0,0,1,.7,1.635v3.161a3.865,3.865,0,0,0,.241,1.5V29Zm-1.949-.9a2.064,2.064,0,0,0,1.047-.286,1.728,1.728,0,0,0,.717-.743V25.667h-.92q-2.158,0-2.158,1.263a1.069,1.069,0,0,0,.368.863A1.415,1.415,0,0,0,61.991,28.1Zm7.535.063a1.691,1.691,0,0,0,1.1-.381,1.34,1.34,0,0,0,.521-.952h1.111a2.13,2.13,0,0,1-.406,1.124,2.676,2.676,0,0,1-1,.851,2.885,2.885,0,0,1-1.323.317,2.829,2.829,0,0,1-2.231-.936,3.729,3.729,0,0,1-.828-2.561v-.2a4.135,4.135,0,0,1,.368-1.784,2.8,2.8,0,0,1,1.057-1.212A3,3,0,0,1,69.52,22a2.755,2.755,0,0,1,1.92.692,2.473,2.473,0,0,1,.816,1.8H71.145a1.618,1.618,0,0,0-.5-1.095,1.57,1.57,0,0,0-1.12-.428,1.644,1.644,0,0,0-1.387.644,3.026,3.026,0,0,0-.492,1.863V25.7a2.966,2.966,0,0,0,.489,1.828A1.651,1.651,0,0,0,69.526,28.168ZM74.852,29H73.677V22.132h1.174Zm-1.27-8.69a.7.7,0,0,1,.175-.482.655.655,0,0,1,.517-.2.666.666,0,0,1,.521.2.694.694,0,0,1,.178.482.671.671,0,0,1-.178.476.678.678,0,0,1-.521.19.667.667,0,0,1-.517-.19A.678.678,0,0,1,73.582,20.31ZM76.419,25.5a4.057,4.057,0,0,1,.4-1.815,2.96,2.96,0,0,1,1.1-1.244A3.007,3.007,0,0,1,79.536,22a2.9,2.9,0,0,1,2.269.971,3.736,3.736,0,0,1,.866,2.583v.083a4.092,4.092,0,0,1-.384,1.8,2.916,2.916,0,0,1-1.1,1.241,3.041,3.041,0,0,1-1.641.444,2.889,2.889,0,0,1-2.263-.971,3.718,3.718,0,0,1-.866-2.571Zm1.181.14a2.938,2.938,0,0,0,.53,1.834,1.8,1.8,0,0,0,2.841-.01A3.213,3.213,0,0,0,81.5,25.5a2.933,2.933,0,0,0-.536-1.831,1.705,1.705,0,0,0-1.425-.7,1.686,1.686,0,0,0-1.4.692A3.189,3.189,0,0,0,77.6,25.642Zm2.469-6.392h1.422l-1.7,1.866-.946,0Zm5.186,2.882.038.863A2.5,2.5,0,0,1,87.35,22q2.177,0,2.2,2.457V29H88.372V24.455a1.581,1.581,0,0,0-.34-1.1A1.361,1.361,0,0,0,86.995,23a1.7,1.7,0,0,0-1,.3,2.069,2.069,0,0,0-.673.8V29H84.145V22.132Z" transform="translate(653 3555)" fill="#12263f"/>
        </g>
      </g>
      <g id="Grupo_87388" data-name="Grupo 87388" transform="translate(3 12)">
        <g id="Rectángulo_8104" data-name="Rectángulo 8104" transform="translate(709 3269)" fill="#ecc8ff" stroke="#d07efc" stroke-width="2">
          <rect width="177" height="78" rx="8" stroke="none"/>
          <rect x="1" y="1" width="175" height="76" rx="7" fill="none"/>
        </g>
        <path id="Trazado_153670" data-name="Trazado 153670" d="M7.368,11.378H3.149v2.856H8.1V16H.952V5.336H8.086v1.78H3.149V9.657H7.368Zm6.174,2.432a.682.682,0,0,0-.385-.612,4.368,4.368,0,0,0-1.234-.4Q9.1,12.206,9.1,10.4a2.178,2.178,0,0,1,.875-1.761,3.531,3.531,0,0,1,2.289-.707,3.8,3.8,0,0,1,2.413.71,2.239,2.239,0,0,1,.9,1.846H13.462a1.024,1.024,0,0,0-.293-.751,1.24,1.24,0,0,0-.916-.3,1.267,1.267,0,0,0-.828.242.763.763,0,0,0-.293.615.652.652,0,0,0,.333.568,3.428,3.428,0,0,0,1.124.374,9.183,9.183,0,0,1,1.333.355A2.19,2.19,0,0,1,15.6,13.722a2.067,2.067,0,0,1-.93,1.754,4.013,4.013,0,0,1-2.4.67,4.191,4.191,0,0,1-1.769-.355,2.968,2.968,0,0,1-1.212-.974,2.263,2.263,0,0,1-.439-1.337h2.007a1.105,1.105,0,0,0,.417.864,1.656,1.656,0,0,0,1.04.3,1.533,1.533,0,0,0,.919-.231A.718.718,0,0,0,13.542,13.81Zm6.716.63a1.388,1.388,0,0,0,.952-.322,1.129,1.129,0,0,0,.381-.857h1.985a2.715,2.715,0,0,1-.439,1.476,2.9,2.9,0,0,1-1.183,1.04,3.7,3.7,0,0,1-1.659.37,3.44,3.44,0,0,1-2.681-1.08,4.275,4.275,0,0,1-.981-2.985v-.139a4.226,4.226,0,0,1,.974-2.922,3.4,3.4,0,0,1,2.673-1.091,3.333,3.333,0,0,1,2.384.846,3,3,0,0,1,.912,2.252H21.592a1.455,1.455,0,0,0-.381-1.005,1.416,1.416,0,0,0-2.084.153,3.125,3.125,0,0,0-.377,1.749v.22a3.164,3.164,0,0,0,.374,1.761A1.291,1.291,0,0,0,20.259,14.44Zm8.174,1.707a3.89,3.89,0,0,1-2.838-1.069A3.8,3.8,0,0,1,24.5,12.228v-.205a4.787,4.787,0,0,1,.461-2.135,3.386,3.386,0,0,1,1.307-1.45,3.669,3.669,0,0,1,1.93-.509,3.289,3.289,0,0,1,2.56,1.025,4.167,4.167,0,0,1,.934,2.908v.864H26.646a1.966,1.966,0,0,0,.619,1.245,1.871,1.871,0,0,0,1.307.469,2.285,2.285,0,0,0,1.912-.886l1.04,1.165a3.178,3.178,0,0,1-1.289,1.051A4.229,4.229,0,0,1,28.433,16.146Zm-.242-6.511a1.323,1.323,0,0,0-1.022.427,2.209,2.209,0,0,0-.5,1.221h2.944v-.169a1.576,1.576,0,0,0-.381-1.092A1.365,1.365,0,0,0,28.191,9.635Zm6.65-1.56.066.916a2.767,2.767,0,0,1,2.278-1.062,2.3,2.3,0,0,1,1.875.74,3.451,3.451,0,0,1,.63,2.212V16H37.573V10.932a1.373,1.373,0,0,0-.293-.978,1.312,1.312,0,0,0-.974-.3,1.456,1.456,0,0,0-1.34.762V16H32.849V8.075ZM45.886,16a2.351,2.351,0,0,1-.212-.71,2.561,2.561,0,0,1-2,.857,2.814,2.814,0,0,1-1.93-.674,2.167,2.167,0,0,1-.765-1.7,2.24,2.24,0,0,1,.934-1.934,4.608,4.608,0,0,1,2.7-.681h.974V10.7a1.306,1.306,0,0,0-.282-.879,1.109,1.109,0,0,0-.89-.33,1.261,1.261,0,0,0-.839.256.871.871,0,0,0-.3.7H41.155a2.126,2.126,0,0,1,.425-1.274,2.808,2.808,0,0,1,1.2-.919,4.378,4.378,0,0,1,1.743-.333,3.459,3.459,0,0,1,2.325.736,2.575,2.575,0,0,1,.861,2.069v3.435a3.789,3.789,0,0,0,.315,1.707V16Zm-1.75-1.472A1.823,1.823,0,0,0,45,14.319a1.371,1.371,0,0,0,.586-.56V12.4h-.791q-1.589,0-1.692,1.1l-.007.125a.847.847,0,0,0,.278.652A1.081,1.081,0,0,0,44.136,14.528Zm9.653-4.468A5.751,5.751,0,0,0,53.027,10a1.55,1.55,0,0,0-1.575.813V16H49.336V8.075h2l.059.945a1.961,1.961,0,0,1,1.765-1.091,2.218,2.218,0,0,1,.659.1ZM57.041,16H54.917V8.075h2.124ZM54.792,6.024a1.042,1.042,0,0,1,.319-.784,1.373,1.373,0,0,1,1.732,0,1.036,1.036,0,0,1,.322.784,1.039,1.039,0,0,1-.326.791,1.358,1.358,0,0,1-1.721,0A1.039,1.039,0,0,1,54.792,6.024Zm3.662,5.94a4.7,4.7,0,0,1,.454-2.1,3.324,3.324,0,0,1,1.307-1.428A3.814,3.814,0,0,1,62.2,7.929a3.609,3.609,0,0,1,2.618.981,3.939,3.939,0,0,1,1.132,2.666l.015.542a4.142,4.142,0,0,1-1.018,2.926,3.946,3.946,0,0,1-5.468,0,4.215,4.215,0,0,1-1.022-2.988Zm2.117.15A2.962,2.962,0,0,0,61,13.842a1.526,1.526,0,0,0,2.417.007,3.241,3.241,0,0,0,.432-1.889,2.933,2.933,0,0,0-.432-1.716A1.4,1.4,0,0,0,62.2,9.635a1.382,1.382,0,0,0-1.2.605A3.3,3.3,0,0,0,60.571,12.115Zm6.8,2.845a1.066,1.066,0,0,1,.341-.82,1.323,1.323,0,0,1,1.714,0,1.066,1.066,0,0,1,.341.82,1.051,1.051,0,0,1-.337.809,1.345,1.345,0,0,1-1.721,0A1.051,1.051,0,0,1,67.368,14.96Zm0-6a1.066,1.066,0,0,1,.341-.82,1.323,1.323,0,0,1,1.714,0,1.066,1.066,0,0,1,.341.82,1.051,1.051,0,0,1-.337.809,1.345,1.345,0,0,1-1.721,0A1.051,1.051,0,0,1,67.368,8.961ZM.825,34V24.758H3.669a4.319,4.319,0,0,1,2.18.549,3.829,3.829,0,0,1,1.5,1.562,4.816,4.816,0,0,1,.54,2.3v.425a4.83,4.83,0,0,1-.53,2.292,3.8,3.8,0,0,1-1.495,1.555A4.351,4.351,0,0,1,3.688,34Zm1.9-7.7v6.17h.92a2.068,2.068,0,0,0,1.708-.73,3.3,3.3,0,0,0,.6-2.088v-.489a3.351,3.351,0,0,0-.584-2.136A2.061,2.061,0,0,0,3.669,26.3Zm9.585,7.827a3.372,3.372,0,0,1-2.46-.927,3.294,3.294,0,0,1-.949-2.469v-.178a4.149,4.149,0,0,1,.4-1.85,2.935,2.935,0,0,1,1.133-1.257A3.18,3.18,0,0,1,12.111,27a2.85,2.85,0,0,1,2.219.889,3.611,3.611,0,0,1,.809,2.52v.749H10.766a1.7,1.7,0,0,0,.536,1.079,1.621,1.621,0,0,0,1.133.406,1.98,1.98,0,0,0,1.657-.768l.9,1.009a2.754,2.754,0,0,1-1.117.911A3.665,3.665,0,0,1,12.314,34.127ZM12.1,28.484a1.146,1.146,0,0,0-.885.37,1.915,1.915,0,0,0-.435,1.058h2.552v-.147a1.366,1.366,0,0,0-.33-.947A1.183,1.183,0,0,0,12.1,28.484ZM16.625,34V28.478H15.6V27.132h1.022v-.317a2.576,2.576,0,0,1,.8-2,3.205,3.205,0,0,1,2.212-.7,7.338,7.338,0,0,1,2.082.375l-.267,1.517a8.123,8.123,0,0,0-.965-.238,4.741,4.741,0,0,0-.736-.054q-1.282,0-1.282,1.136v.279h1.352v1.346H18.465V34Zm5.948,0H20.731V27.132h1.841Zm3.206-6.868.057.793A2.4,2.4,0,0,1,27.809,27a1.993,1.993,0,0,1,1.625.641,2.991,2.991,0,0,1,.546,1.917V34H28.146V29.607a1.19,1.19,0,0,0-.254-.847,1.137,1.137,0,0,0-.844-.263,1.262,1.262,0,0,0-1.162.66V34H24.051V27.132ZM33.306,34H31.465V27.132h1.841Zm-1.949-8.646a.9.9,0,0,1,.276-.679,1.19,1.19,0,0,1,1.5,0,.969.969,0,0,1,0,1.365,1.177,1.177,0,0,1-1.492,0A.9.9,0,0,1,31.357,25.354Zm6.316,7.293a1.2,1.2,0,0,0,.825-.279.979.979,0,0,0,.33-.743h1.72a2.353,2.353,0,0,1-.381,1.279,2.513,2.513,0,0,1-1.025.9,3.208,3.208,0,0,1-1.438.321,2.982,2.982,0,0,1-2.323-.936,3.705,3.705,0,0,1-.851-2.587v-.121a3.663,3.663,0,0,1,.844-2.533A2.947,2.947,0,0,1,37.692,27a2.889,2.889,0,0,1,2.066.733,2.6,2.6,0,0,1,.79,1.952h-1.72a1.261,1.261,0,0,0-.33-.871,1.227,1.227,0,0,0-1.806.132,2.708,2.708,0,0,0-.327,1.516v.191a2.742,2.742,0,0,0,.324,1.526A1.119,1.119,0,0,0,37.673,32.648ZM43.532,34H41.691V27.132h1.841Zm-1.949-8.646a.9.9,0,0,1,.276-.679,1.19,1.19,0,0,1,1.5,0,.969.969,0,0,1,0,1.365,1.177,1.177,0,0,1-1.492,0A.9.9,0,0,1,41.583,25.354ZM44.757,30.5a4.073,4.073,0,0,1,.394-1.822,2.881,2.881,0,0,1,1.133-1.238A3.306,3.306,0,0,1,48,27a3.128,3.128,0,0,1,2.269.851,3.414,3.414,0,0,1,.981,2.311l.013.47a3.59,3.59,0,0,1-.882,2.536,3.42,3.42,0,0,1-4.739,0,3.653,3.653,0,0,1-.885-2.59Zm1.834.13a2.567,2.567,0,0,0,.368,1.5,1.323,1.323,0,0,0,2.095.006,2.809,2.809,0,0,0,.375-1.637,2.542,2.542,0,0,0-.375-1.488A1.217,1.217,0,0,0,48,28.484a1.2,1.2,0,0,0-1.041.524A2.857,2.857,0,0,0,46.592,30.633Zm1.771-6.383h2L48.6,26.218H47.112Zm5.719,2.882.057.793A2.4,2.4,0,0,1,56.113,27a1.993,1.993,0,0,1,1.625.641,2.991,2.991,0,0,1,.546,1.917V34H56.45V29.607a1.19,1.19,0,0,0-.254-.847,1.137,1.137,0,0,0-.844-.263,1.262,1.262,0,0,0-1.162.66V34H52.355V27.132ZM59.763,33.1a.924.924,0,0,1,.3-.711,1.147,1.147,0,0,1,1.485,0,.924.924,0,0,1,.3.711.911.911,0,0,1-.292.7,1.166,1.166,0,0,1-1.492,0A.911.911,0,0,1,59.763,33.1Zm0-5.2a.924.924,0,0,1,.3-.711,1.147,1.147,0,0,1,1.485,0,.924.924,0,0,1,.3.711.911.911,0,0,1-.292.7,1.166,1.166,0,0,1-1.492,0A.911.911,0,0,1,59.763,27.9ZM66.949,34V24.758h2.609a4.2,4.2,0,0,1,2.133.533,3.606,3.606,0,0,1,1.431,1.517,4.938,4.938,0,0,1,.511,2.26v.59a4.955,4.955,0,0,1-.5,2.292,3.55,3.55,0,0,1-1.441,1.511,4.467,4.467,0,0,1-2.18.54Zm1.219-8.246V33H69.45a2.79,2.79,0,0,0,2.193-.877,3.622,3.622,0,0,0,.784-2.5v-.54a3.68,3.68,0,0,0-.74-2.449,2.632,2.632,0,0,0-2.1-.886ZM78.2,29.88a5.731,5.731,0,0,1-2.282-1.108,2.116,2.116,0,0,1-.714-1.622,2.236,2.236,0,0,1,.873-1.806,3.469,3.469,0,0,1,2.269-.714,3.786,3.786,0,0,1,1.7.368A2.792,2.792,0,0,1,81.2,26.015a2.6,2.6,0,0,1,.409,1.416H80.38a1.69,1.69,0,0,0-.533-1.322,2.168,2.168,0,0,0-1.5-.481,2.22,2.22,0,0,0-1.406.4,1.326,1.326,0,0,0-.5,1.1,1.193,1.193,0,0,0,.479.957,4.7,4.7,0,0,0,1.631.715,7.569,7.569,0,0,1,1.8.715,2.736,2.736,0,0,1,.965.911,2.325,2.325,0,0,1,.314,1.225,2.159,2.159,0,0,1-.876,1.8,3.735,3.735,0,0,1-2.342.676,4.344,4.344,0,0,1-1.777-.365,2.991,2.991,0,0,1-1.273-1,2.44,2.44,0,0,1-.448-1.441h1.225a1.592,1.592,0,0,0,.619,1.323,2.606,2.606,0,0,0,1.654.486,2.4,2.4,0,0,0,1.479-.394,1.278,1.278,0,0,0,.514-1.073,1.255,1.255,0,0,0-.476-1.051A5.489,5.489,0,0,0,78.2,29.88ZM84.411,33h4.38v1h-5.6V24.758h1.225Zm15.3-3.136h-6.36v-.958h6.36Zm12.26,2.92a2.815,2.815,0,0,1-1.311,1.006,5.3,5.3,0,0,1-1.958.333,3.8,3.8,0,0,1-2.006-.53,3.531,3.531,0,0,1-1.355-1.508,5.207,5.207,0,0,1-.492-2.266v-.806a4.861,4.861,0,0,1,.974-3.237,3.4,3.4,0,0,1,2.739-1.149,3.507,3.507,0,0,1,2.33.74,3.222,3.222,0,0,1,1.079,2.1h-1.219a2.015,2.015,0,0,0-2.184-1.841,2.157,2.157,0,0,0-1.857.861,4.2,4.2,0,0,0-.638,2.494v.756a3.939,3.939,0,0,0,.711,2.474,2.3,2.3,0,0,0,1.923.918,4.248,4.248,0,0,0,1.2-.152,1.855,1.855,0,0,0,.851-.513V30.395h-2.139v-1h3.352Zm3.021-4.824A2.5,2.5,0,0,1,117.025,27q2.177,0,2.2,2.457V34h-1.174V29.455a1.581,1.581,0,0,0-.34-1.1A1.361,1.361,0,0,0,116.67,28a1.7,1.7,0,0,0-1,.3,2.069,2.069,0,0,0-.673.8V34H113.82V24.25h1.174Zm8.836,6.164a3,3,0,0,1-2.272-.917,3.4,3.4,0,0,1-.876-2.453v-.216a4.121,4.121,0,0,1,.39-1.825,3.045,3.045,0,0,1,1.092-1.257,2.745,2.745,0,0,1,1.52-.454,2.572,2.572,0,0,1,2.082.882,3.82,3.82,0,0,1,.743,2.526V30.9h-4.653a2.441,2.441,0,0,0,.594,1.641,1.866,1.866,0,0,0,1.444.625,2.045,2.045,0,0,0,1.054-.254,2.648,2.648,0,0,0,.755-.673l.717.559A2.884,2.884,0,0,1,123.83,34.127Zm-.146-6.157a1.566,1.566,0,0,0-1.193.517,2.515,2.515,0,0,0-.6,1.45h3.44v-.089a2.237,2.237,0,0,0-.482-1.387A1.475,1.475,0,0,0,123.684,27.97Zm7.5.216a3.519,3.519,0,0,0-.578-.044,1.547,1.547,0,0,0-1.568.984V34h-1.174V27.132h1.143l.019.793a1.829,1.829,0,0,1,1.638-.92,1.2,1.2,0,0,1,.521.089Zm3,2.634-.736.768V34h-1.174V24.25h1.174v5.9l.628-.755,2.139-2.26h1.428L134.97,30l2.983,4h-1.377ZM140.131,34h-1.174V27.132h1.174Zm-1.27-8.69a.7.7,0,0,1,.175-.482.655.655,0,0,1,.517-.2.666.666,0,0,1,.521.2.694.694,0,0,1,.178.482.671.671,0,0,1-.178.476.678.678,0,0,1-.521.19.667.667,0,0,1-.517-.19A.678.678,0,0,1,138.861,25.31Zm4.259,1.822.038.863a2.5,2.5,0,0,1,2.057-.99q2.177,0,2.2,2.457V34h-1.174V29.455a1.581,1.581,0,0,0-.34-1.1A1.361,1.361,0,0,0,144.86,28a1.7,1.7,0,0,0-1,.3,2.069,2.069,0,0,0-.673.8V34H142.01V27.132ZM8.138,50.832a3.305,3.305,0,0,1-1.454.955,6.087,6.087,0,0,1-2.082.34A4.124,4.124,0,0,1,2.5,51.6a3.493,3.493,0,0,1-1.4-1.52,5.351,5.351,0,0,1-.5-2.342v-.628a5.682,5.682,0,0,1,.467-2.4,3.451,3.451,0,0,1,1.346-1.549,3.876,3.876,0,0,1,2.06-.536,3.86,3.86,0,0,1,2.571.784,3.35,3.35,0,0,1,1.1,2.282H6.284a1.843,1.843,0,0,0-.562-1.162,1.794,1.794,0,0,0-1.2-.368,1.689,1.689,0,0,0-1.479.73,3.838,3.838,0,0,0-.514,2.171v.59a3.654,3.654,0,0,0,.552,2.2A1.891,1.891,0,0,0,4.7,50.6a2.112,2.112,0,0,0,1.53-.457V48.547H4.5v-1.4H8.138Zm4.583,1.295a3.372,3.372,0,0,1-2.46-.927,3.294,3.294,0,0,1-.949-2.469v-.178a4.149,4.149,0,0,1,.4-1.85,2.935,2.935,0,0,1,1.133-1.257A3.18,3.18,0,0,1,12.518,45a2.85,2.85,0,0,1,2.219.889,3.611,3.611,0,0,1,.809,2.52v.749H11.172a1.7,1.7,0,0,0,.536,1.079,1.621,1.621,0,0,0,1.133.406A1.98,1.98,0,0,0,14.5,49.88l.9,1.009a2.754,2.754,0,0,1-1.117.911A3.665,3.665,0,0,1,12.721,52.127Zm-.209-5.643a1.146,1.146,0,0,0-.885.37,1.915,1.915,0,0,0-.435,1.058h2.552v-.147a1.366,1.366,0,0,0-.33-.947A1.183,1.183,0,0,0,12.511,46.484ZM20.306,50.1a.591.591,0,0,0-.333-.53,3.785,3.785,0,0,0-1.07-.346q-2.45-.514-2.45-2.082a1.887,1.887,0,0,1,.759-1.527A3.06,3.06,0,0,1,19.2,45a3.293,3.293,0,0,1,2.092.616,1.94,1.94,0,0,1,.784,1.6H20.236a.888.888,0,0,0-.254-.651,1.075,1.075,0,0,0-.793-.257,1.1,1.1,0,0,0-.717.209.661.661,0,0,0-.254.533.565.565,0,0,0,.289.492,2.971,2.971,0,0,0,.974.324,7.959,7.959,0,0,1,1.155.308,1.9,1.9,0,0,1,1.454,1.847,1.792,1.792,0,0,1-.806,1.52,3.478,3.478,0,0,1-2.082.581,3.632,3.632,0,0,1-1.533-.308,2.572,2.572,0,0,1-1.051-.844,1.962,1.962,0,0,1-.381-1.158h1.739a.958.958,0,0,0,.362.749,1.435,1.435,0,0,0,.9.26,1.328,1.328,0,0,0,.8-.2A.622.622,0,0,0,20.306,50.1Zm5.161-6.659v1.688h1.174v1.346H25.467v3.428a.818.818,0,0,0,.146.546.733.733,0,0,0,.559.165,2.926,2.926,0,0,0,.54-.044v1.39a3.776,3.776,0,0,1-1.111.165,1.752,1.752,0,0,1-1.968-1.949v-3.7h-1V45.132h1V43.443ZM29.6,52H27.758V45.132H29.6ZM27.65,43.354a.9.9,0,0,1,.276-.679,1.19,1.19,0,0,1,1.5,0,.969.969,0,0,1,0,1.365,1.177,1.177,0,0,1-1.492,0A.9.9,0,0,1,27.65,43.354ZM30.824,48.5a4.073,4.073,0,0,1,.394-1.822,2.881,2.881,0,0,1,1.133-1.238A3.306,3.306,0,0,1,34.068,45a3.127,3.127,0,0,1,2.269.851,3.414,3.414,0,0,1,.981,2.311l.013.47a3.59,3.59,0,0,1-.882,2.536,3.42,3.42,0,0,1-4.739,0,3.653,3.653,0,0,1-.885-2.59Zm1.834.13a2.567,2.567,0,0,0,.368,1.5,1.323,1.323,0,0,0,2.095.006A2.809,2.809,0,0,0,35.5,48.5a2.542,2.542,0,0,0-.375-1.488,1.217,1.217,0,0,0-1.054-.528,1.2,1.2,0,0,0-1.041.524A2.857,2.857,0,0,0,32.659,48.633ZM34.43,42.25h2l-1.758,1.968H33.179Zm5.719,2.882.057.793A2.4,2.4,0,0,1,42.18,45a1.993,1.993,0,0,1,1.625.641,2.991,2.991,0,0,1,.546,1.917V52H42.517V47.607a1.19,1.19,0,0,0-.254-.847,1.137,1.137,0,0,0-.844-.263,1.262,1.262,0,0,0-1.162.66V52H38.422V45.132Zm8.544,3.383a4.139,4.139,0,0,1,.72-2.558A2.338,2.338,0,0,1,51.384,45a2.1,2.1,0,0,1,1.657.749v-3.5h1.841V52H53.225l-.089-.73a2.159,2.159,0,0,1-1.765.857,2.331,2.331,0,0,1-1.946-.955A4.272,4.272,0,0,1,48.693,48.515Zm1.834.137a2.711,2.711,0,0,0,.336,1.481,1.1,1.1,0,0,0,.978.515,1.227,1.227,0,0,0,1.2-.718V47.215a1.21,1.21,0,0,0-1.187-.718Q50.527,46.5,50.527,48.652Zm8.938,3.475a3.372,3.372,0,0,1-2.46-.927,3.294,3.294,0,0,1-.949-2.469v-.178a4.149,4.149,0,0,1,.4-1.85,2.935,2.935,0,0,1,1.133-1.257A3.18,3.18,0,0,1,59.262,45a2.85,2.85,0,0,1,2.219.889,3.611,3.611,0,0,1,.809,2.52v.749H57.916a1.7,1.7,0,0,0,.536,1.079,1.621,1.621,0,0,0,1.133.406,1.98,1.98,0,0,0,1.657-.768l.9,1.009a2.754,2.754,0,0,1-1.117.911A3.665,3.665,0,0,1,59.465,52.127Zm-.209-5.643a1.146,1.146,0,0,0-.885.37,1.915,1.915,0,0,0-.435,1.058h2.552v-.147a1.366,1.366,0,0,0-.33-.947A1.183,1.183,0,0,0,59.255,46.484ZM73.265,44.3H70.434V52h-1.9V44.3H65.736V42.758h7.528Zm4.126,7.827a3.372,3.372,0,0,1-2.46-.927,3.294,3.294,0,0,1-.949-2.469v-.178a4.149,4.149,0,0,1,.4-1.85,2.935,2.935,0,0,1,1.133-1.257A3.18,3.18,0,0,1,77.188,45a2.85,2.85,0,0,1,2.219.889,3.611,3.611,0,0,1,.809,2.52v.749H75.842a1.7,1.7,0,0,0,.536,1.079,1.621,1.621,0,0,0,1.133.406,1.98,1.98,0,0,0,1.657-.768l.9,1.009a2.754,2.754,0,0,1-1.117.911A3.665,3.665,0,0,1,77.391,52.127Zm-.209-5.643a1.146,1.146,0,0,0-.885.37,1.915,1.915,0,0,0-.435,1.058h2.552v-.147a1.366,1.366,0,0,0-.33-.947A1.183,1.183,0,0,0,77.181,46.484ZM84.976,50.1a.591.591,0,0,0-.333-.53,3.785,3.785,0,0,0-1.07-.346q-2.45-.514-2.45-2.082a1.887,1.887,0,0,1,.759-1.527A3.06,3.06,0,0,1,83.865,45a3.293,3.293,0,0,1,2.092.616,1.94,1.94,0,0,1,.784,1.6H84.906a.888.888,0,0,0-.254-.651,1.075,1.075,0,0,0-.793-.257,1.1,1.1,0,0,0-.717.209.661.661,0,0,0-.254.533.565.565,0,0,0,.289.492,2.971,2.971,0,0,0,.974.324,7.958,7.958,0,0,1,1.155.308,1.9,1.9,0,0,1,1.454,1.847,1.792,1.792,0,0,1-.806,1.52,3.478,3.478,0,0,1-2.082.581,3.632,3.632,0,0,1-1.533-.308,2.572,2.572,0,0,1-1.051-.844,1.962,1.962,0,0,1-.381-1.158h1.739a.958.958,0,0,0,.362.749,1.435,1.435,0,0,0,.9.26,1.328,1.328,0,0,0,.8-.2A.622.622,0,0,0,84.976,50.1Zm5.161-6.659v1.688h1.174v1.346H90.137v3.428a.818.818,0,0,0,.146.546.733.733,0,0,0,.559.165,2.926,2.926,0,0,0,.54-.044v1.39a3.776,3.776,0,0,1-1.111.165A1.752,1.752,0,0,1,88.3,50.178v-3.7h-1V45.132h1V43.443ZM96.053,50.1a.591.591,0,0,0-.333-.53,3.785,3.785,0,0,0-1.07-.346q-2.45-.514-2.45-2.082a1.887,1.887,0,0,1,.759-1.527A3.06,3.06,0,0,1,94.942,45a3.293,3.293,0,0,1,2.092.616,1.94,1.94,0,0,1,.784,1.6H95.983a.888.888,0,0,0-.254-.651,1.075,1.075,0,0,0-.793-.257,1.1,1.1,0,0,0-.717.209.661.661,0,0,0-.254.533.565.565,0,0,0,.289.492,2.971,2.971,0,0,0,.974.324,7.958,7.958,0,0,1,1.155.308,1.9,1.9,0,0,1,1.454,1.847,1.792,1.792,0,0,1-.806,1.52,3.478,3.478,0,0,1-2.082.581,3.632,3.632,0,0,1-1.533-.308,2.572,2.572,0,0,1-1.051-.844,1.962,1.962,0,0,1-.381-1.158h1.739a.958.958,0,0,0,.362.749,1.435,1.435,0,0,0,.9.26,1.328,1.328,0,0,0,.8-.2A.622.622,0,0,0,96.053,50.1Zm3.053,1a.924.924,0,0,1,.3-.711,1.147,1.147,0,0,1,1.485,0,.924.924,0,0,1,.3.711.911.911,0,0,1-.292.7,1.166,1.166,0,0,1-1.492,0A.911.911,0,0,1,99.106,51.1Zm0-5.2a.924.924,0,0,1,.3-.711,1.147,1.147,0,0,1,1.485,0,.924.924,0,0,1,.3.711.911.911,0,0,1-.292.7,1.166,1.166,0,0,1-1.492,0A.911.911,0,0,1,99.106,45.9Zm13.571-2.146h-2.971V52h-1.212V43.754H105.53v-1h7.147Zm4.037,8.373a3,3,0,0,1-2.272-.917,3.4,3.4,0,0,1-.876-2.453v-.216a4.121,4.121,0,0,1,.39-1.825,3.045,3.045,0,0,1,1.092-1.257,2.745,2.745,0,0,1,1.52-.454,2.572,2.572,0,0,1,2.082.882,3.82,3.82,0,0,1,.743,2.526V48.9H114.74a2.441,2.441,0,0,0,.594,1.641,1.866,1.866,0,0,0,1.444.625,2.045,2.045,0,0,0,1.054-.254,2.648,2.648,0,0,0,.755-.673l.717.559A2.884,2.884,0,0,1,116.714,52.127Zm-.146-6.157a1.566,1.566,0,0,0-1.193.517,2.515,2.515,0,0,0-.6,1.45h3.44v-.089a2.237,2.237,0,0,0-.482-1.387A1.475,1.475,0,0,0,116.568,45.97Zm8.182,4.208a.864.864,0,0,0-.359-.74,3.452,3.452,0,0,0-1.25-.454,5.912,5.912,0,0,1-1.416-.457,2.014,2.014,0,0,1-.774-.635,1.518,1.518,0,0,1-.251-.876,1.782,1.782,0,0,1,.714-1.428A2.789,2.789,0,0,1,123.24,45a2.87,2.87,0,0,1,1.895.6,1.915,1.915,0,0,1,.727,1.542h-1.181a1.06,1.06,0,0,0-.409-.832,1.534,1.534,0,0,0-1.031-.349,1.605,1.605,0,0,0-1,.279.879.879,0,0,0-.362.73.712.712,0,0,0,.336.641,4.139,4.139,0,0,0,1.216.413,6.334,6.334,0,0,1,1.425.47,2.079,2.079,0,0,1,.809.657,1.615,1.615,0,0,1,.263.936,1.758,1.758,0,0,1-.736,1.476,3.089,3.089,0,0,1-1.911.555,3.459,3.459,0,0,1-1.46-.292,2.374,2.374,0,0,1-.993-.816,1.966,1.966,0,0,1-.359-1.133h1.174a1.216,1.216,0,0,0,.473.936,1.835,1.835,0,0,0,1.165.346,1.894,1.894,0,0,0,1.07-.27A.829.829,0,0,0,124.75,50.178Zm4.3-6.709v1.663h1.282v.908h-1.282V50.3a.953.953,0,0,0,.171.62.721.721,0,0,0,.584.207,2.843,2.843,0,0,0,.559-.076V52a3.424,3.424,0,0,1-.9.126,1.462,1.462,0,0,1-1.187-.476,2.045,2.045,0,0,1-.4-1.352V46.04h-1.25v-.908h1.25V43.469ZM132.977,52H131.8V42.25h1.174Zm3.155,0h-1.174V45.132h1.174Zm-1.27-8.69a.7.7,0,0,1,.175-.482.655.655,0,0,1,.517-.2.666.666,0,0,1,.521.2.694.694,0,0,1,.178.482.671.671,0,0,1-.178.476.678.678,0,0,1-.521.19.667.667,0,0,1-.517-.19A.678.678,0,0,1,134.862,43.31Zm4.259,1.822.038.863a2.5,2.5,0,0,1,2.057-.99q2.177,0,2.2,2.457V52h-1.174V47.455a1.581,1.581,0,0,0-.34-1.1A1.361,1.361,0,0,0,140.861,46a1.7,1.7,0,0,0-1,.3,2.069,2.069,0,0,0-.673.8V52h-1.174V45.132ZM147.1,48.82l-.736.768V52H145.19V42.25h1.174v5.9l.628-.755,2.139-2.26h1.428L147.888,48l2.983,4h-1.377Z" transform="translate(722 3280)" fill="#12263f"/>
      </g>
      <g id="Grupo_87395" data-name="Grupo 87395" transform="translate(0 23)">
        <g id="Rectángulo_8105" data-name="Rectángulo 8105" transform="translate(898 3634)" fill="#d1c7fe" stroke="#856de9" stroke-width="2">
          <rect width="191" height="81" rx="8" stroke="none"/>
          <rect x="1" y="1" width="189" height="79" rx="7" fill="none"/>
        </g>
        <path id="Trazado_153679" data-name="Trazado 153679" d="M3.823,5.336,6.563,13.07,9.287,5.336h2.886V16h-2.2V13.085l.22-5.032L7.31,16H5.8L2.93,8.061l.22,5.024V16H.952V5.336ZM18.545,16a2.351,2.351,0,0,1-.212-.71,2.561,2.561,0,0,1-2,.857,2.814,2.814,0,0,1-1.93-.674,2.167,2.167,0,0,1-.765-1.7,2.24,2.24,0,0,1,.934-1.934,4.608,4.608,0,0,1,2.7-.681h.974V10.7a1.306,1.306,0,0,0-.282-.879,1.109,1.109,0,0,0-.89-.33,1.261,1.261,0,0,0-.839.256.871.871,0,0,0-.3.7H13.813a2.126,2.126,0,0,1,.425-1.274,2.808,2.808,0,0,1,1.2-.919,4.378,4.378,0,0,1,1.743-.333,3.459,3.459,0,0,1,2.325.736,2.575,2.575,0,0,1,.861,2.069v3.435a3.789,3.789,0,0,0,.315,1.707V16Zm-1.75-1.472a1.823,1.823,0,0,0,.864-.209,1.371,1.371,0,0,0,.586-.56V12.4h-.791q-1.589,0-1.692,1.1l-.007.125a.847.847,0,0,0,.278.652A1.081,1.081,0,0,0,16.794,14.528Zm7.148-6.453.066.916a2.767,2.767,0,0,1,2.278-1.062,2.3,2.3,0,0,1,1.875.74,3.451,3.451,0,0,1,.63,2.212V16H26.675V10.932a1.373,1.373,0,0,0-.293-.978,1.312,1.312,0,0,0-.974-.3,1.456,1.456,0,0,0-1.34.762V16H21.951V8.075Zm11.2,7.119a2.654,2.654,0,0,1-2.168.952,2.5,2.5,0,0,1-1.945-.732,3.127,3.127,0,0,1-.685-2.146V8.075h2.117V13.2q0,1.239,1.128,1.239a1.528,1.528,0,0,0,1.479-.748V8.075h2.124V16H35.2Zm8.24.806a2.351,2.351,0,0,1-.212-.71,2.561,2.561,0,0,1-2,.857,2.814,2.814,0,0,1-1.93-.674,2.167,2.167,0,0,1-.765-1.7,2.24,2.24,0,0,1,.934-1.934,4.608,4.608,0,0,1,2.7-.681h.974V10.7a1.306,1.306,0,0,0-.282-.879,1.109,1.109,0,0,0-.89-.33,1.261,1.261,0,0,0-.839.256.871.871,0,0,0-.3.7H38.65a2.126,2.126,0,0,1,.425-1.274,2.808,2.808,0,0,1,1.2-.919,4.378,4.378,0,0,1,1.743-.333,3.459,3.459,0,0,1,2.325.736,2.575,2.575,0,0,1,.861,2.069v3.435a3.789,3.789,0,0,0,.315,1.707V16Zm-1.75-1.472a1.823,1.823,0,0,0,.864-.209,1.371,1.371,0,0,0,.586-.56V12.4H42.29q-1.589,0-1.692,1.1l-.007.125a.847.847,0,0,0,.278.652A1.081,1.081,0,0,0,41.631,14.528ZM49.065,16H46.941V4.75h2.124Zm5.391.146a3.89,3.89,0,0,1-2.838-1.069,3.8,3.8,0,0,1-1.095-2.849v-.205a4.787,4.787,0,0,1,.461-2.135,3.386,3.386,0,0,1,1.307-1.45,3.669,3.669,0,0,1,1.93-.509,3.289,3.289,0,0,1,2.56,1.025,4.167,4.167,0,0,1,.934,2.908v.864H52.668a1.966,1.966,0,0,0,.619,1.245,1.871,1.871,0,0,0,1.307.469,2.285,2.285,0,0,0,1.912-.886l1.04,1.165a3.178,3.178,0,0,1-1.289,1.051A4.229,4.229,0,0,1,54.456,16.146Zm-.242-6.511a1.323,1.323,0,0,0-1.022.427,2.209,2.209,0,0,0-.5,1.221h2.944v-.169a1.576,1.576,0,0,0-.381-1.092A1.365,1.365,0,0,0,54.214,9.635Zm8.994,4.175a.682.682,0,0,0-.385-.612,4.368,4.368,0,0,0-1.234-.4q-2.827-.593-2.827-2.4a2.178,2.178,0,0,1,.875-1.761,3.531,3.531,0,0,1,2.289-.707,3.8,3.8,0,0,1,2.413.71,2.239,2.239,0,0,1,.9,1.846H63.127a1.024,1.024,0,0,0-.293-.751,1.24,1.24,0,0,0-.916-.3,1.267,1.267,0,0,0-.828.242.763.763,0,0,0-.293.615.652.652,0,0,0,.333.568,3.428,3.428,0,0,0,1.124.374,9.183,9.183,0,0,1,1.333.355,2.19,2.19,0,0,1,1.677,2.131,2.067,2.067,0,0,1-.93,1.754,4.013,4.013,0,0,1-2.4.67,4.191,4.191,0,0,1-1.769-.355,2.968,2.968,0,0,1-1.212-.974,2.263,2.263,0,0,1-.439-1.337H60.52a1.105,1.105,0,0,0,.417.864,1.656,1.656,0,0,0,1.04.3,1.533,1.533,0,0,0,.919-.231A.718.718,0,0,0,63.208,13.81ZM76.523,13.8H72.671L71.938,16H69.6l3.97-10.664h2.036L79.6,16H77.263Zm-3.259-1.78H75.93L74.59,8.031Zm11.858,3.171a2.654,2.654,0,0,1-2.168.952,2.5,2.5,0,0,1-1.945-.732,3.127,3.127,0,0,1-.685-2.146V8.075h2.117V13.2q0,1.239,1.128,1.239a1.528,1.528,0,0,0,1.479-.748V8.075h2.124V16H85.181ZM91.3,6.127V8.075h1.355V9.628H91.3v3.955a.944.944,0,0,0,.168.63.846.846,0,0,0,.645.19,3.376,3.376,0,0,0,.623-.051v1.6a4.358,4.358,0,0,1-1.282.19A2.021,2.021,0,0,1,89.187,13.9V9.628H88.03V8.075h1.157V6.127Zm1.985,5.837a4.7,4.7,0,0,1,.454-2.1A3.324,3.324,0,0,1,95.05,8.434a3.814,3.814,0,0,1,1.981-.505,3.609,3.609,0,0,1,2.618.981,3.939,3.939,0,0,1,1.132,2.666l.015.542a4.142,4.142,0,0,1-1.018,2.926,3.946,3.946,0,0,1-5.468,0,4.215,4.215,0,0,1-1.022-2.988Zm2.117.15a2.962,2.962,0,0,0,.425,1.727,1.526,1.526,0,0,0,2.417.007,3.241,3.241,0,0,0,.432-1.889,2.933,2.933,0,0,0-.432-1.716,1.4,1.4,0,0,0-1.216-.609,1.382,1.382,0,0,0-1.2.605A3.3,3.3,0,0,0,95.405,12.115Zm8.679-4.039.066.886a2.785,2.785,0,0,1,2.278-1.033,2.114,2.114,0,0,1,2.1,1.208,2.721,2.721,0,0,1,2.38-1.208,2.364,2.364,0,0,1,1.919.751,3.451,3.451,0,0,1,.63,2.26V16h-2.124V10.946a1.509,1.509,0,0,0-.264-.985,1.169,1.169,0,0,0-.93-.311,1.321,1.321,0,0,0-1.318.908L108.831,16h-2.117V10.954a1.491,1.491,0,0,0-.271-1,1.18,1.18,0,0,0-.923-.308,1.372,1.372,0,0,0-1.3.747V16H102.1V8.075ZM119.678,16a2.351,2.351,0,0,1-.212-.71,2.561,2.561,0,0,1-2,.857,2.814,2.814,0,0,1-1.93-.674,2.167,2.167,0,0,1-.765-1.7,2.24,2.24,0,0,1,.934-1.934,4.608,4.608,0,0,1,2.7-.681h.974V10.7a1.306,1.306,0,0,0-.282-.879,1.109,1.109,0,0,0-.89-.33,1.261,1.261,0,0,0-.839.256.871.871,0,0,0-.3.7h-2.117a2.126,2.126,0,0,1,.425-1.274,2.808,2.808,0,0,1,1.2-.919,4.378,4.378,0,0,1,1.743-.333,3.459,3.459,0,0,1,2.325.736,2.575,2.575,0,0,1,.861,2.069v3.435a3.789,3.789,0,0,0,.315,1.707V16Zm-1.75-1.472a1.823,1.823,0,0,0,.864-.209,1.371,1.371,0,0,0,.586-.56V12.4h-.791q-1.589,0-1.692,1.1l-.007.125a.847.847,0,0,0,.278.652A1.081,1.081,0,0,0,117.927,14.528Zm.806-9.778h2.307l-2.029,2.271H117.29Zm6.929,1.377V8.075h1.355V9.628h-1.355v3.955a.944.944,0,0,0,.168.63.846.846,0,0,0,.645.19,3.376,3.376,0,0,0,.623-.051v1.6a4.358,4.358,0,0,1-1.282.19,2.021,2.021,0,0,1-2.271-2.249V9.628h-1.157V8.075h1.157V6.127ZM130.43,16h-2.124V8.075h2.124Zm-2.249-9.976a1.042,1.042,0,0,1,.319-.784,1.373,1.373,0,0,1,1.732,0,1.036,1.036,0,0,1,.322.784,1.039,1.039,0,0,1-.326.791,1.358,1.358,0,0,1-1.721,0A1.039,1.039,0,0,1,128.181,6.024Zm7.288,8.416a1.388,1.388,0,0,0,.952-.322,1.129,1.129,0,0,0,.381-.857h1.985a2.715,2.715,0,0,1-.439,1.476,2.9,2.9,0,0,1-1.183,1.04,3.7,3.7,0,0,1-1.659.37,3.44,3.44,0,0,1-2.681-1.08,4.275,4.275,0,0,1-.981-2.985v-.139a4.226,4.226,0,0,1,.974-2.922,3.4,3.4,0,0,1,2.673-1.091,3.333,3.333,0,0,1,2.384.846,3,3,0,0,1,.912,2.252H136.8a1.455,1.455,0,0,0-.381-1.005,1.416,1.416,0,0,0-2.084.153,3.125,3.125,0,0,0-.377,1.749v.22a3.164,3.164,0,0,0,.374,1.761A1.291,1.291,0,0,0,135.469,14.44Zm4.2-2.476a4.7,4.7,0,0,1,.454-2.1,3.324,3.324,0,0,1,1.307-1.428,3.814,3.814,0,0,1,1.981-.505,3.609,3.609,0,0,1,2.618.981,3.939,3.939,0,0,1,1.132,2.666l.015.542a4.142,4.142,0,0,1-1.018,2.926,3.946,3.946,0,0,1-5.468,0,4.215,4.215,0,0,1-1.022-2.988Zm2.117.15a2.962,2.962,0,0,0,.425,1.727,1.526,1.526,0,0,0,2.417.007,3.241,3.241,0,0,0,.432-1.889,2.933,2.933,0,0,0-.432-1.716,1.4,1.4,0,0,0-1.216-.609,1.382,1.382,0,0,0-1.2.605A3.3,3.3,0,0,0,141.782,12.115Zm10.986,1.7a.682.682,0,0,0-.385-.612,4.368,4.368,0,0,0-1.234-.4q-2.827-.593-2.827-2.4a2.178,2.178,0,0,1,.875-1.761,3.531,3.531,0,0,1,2.289-.707,3.8,3.8,0,0,1,2.413.71,2.239,2.239,0,0,1,.9,1.846h-2.117a1.024,1.024,0,0,0-.293-.751,1.24,1.24,0,0,0-.916-.3,1.267,1.267,0,0,0-.828.242.763.763,0,0,0-.293.615.652.652,0,0,0,.333.568,3.428,3.428,0,0,0,1.124.374,9.183,9.183,0,0,1,1.333.355,2.19,2.19,0,0,1,1.677,2.131,2.067,2.067,0,0,1-.93,1.754,4.013,4.013,0,0,1-2.4.67,4.191,4.191,0,0,1-1.769-.355,2.968,2.968,0,0,1-1.212-.974,2.263,2.263,0,0,1-.439-1.337h2.007a1.105,1.105,0,0,0,.417.864,1.656,1.656,0,0,0,1.04.3,1.533,1.533,0,0,0,.919-.231A.718.718,0,0,0,152.769,13.81ZM2.3,33h4.38v1h-5.6V24.758H2.3Zm5.275-2.5a4.057,4.057,0,0,1,.4-1.815,2.96,2.96,0,0,1,1.1-1.244A3.007,3.007,0,0,1,10.689,27a2.9,2.9,0,0,1,2.269.971,3.736,3.736,0,0,1,.866,2.583v.083a4.092,4.092,0,0,1-.384,1.8,2.916,2.916,0,0,1-1.1,1.241,3.041,3.041,0,0,1-1.641.444,2.889,2.889,0,0,1-2.263-.971,3.718,3.718,0,0,1-.866-2.571Zm1.181.14a2.938,2.938,0,0,0,.53,1.834,1.8,1.8,0,0,0,2.841-.01,3.213,3.213,0,0,0,.527-1.965,2.933,2.933,0,0,0-.536-1.831,1.705,1.705,0,0,0-1.425-.7,1.686,1.686,0,0,0-1.4.692A3.189,3.189,0,0,0,8.753,30.642ZM19.538,34a2.467,2.467,0,0,1-.165-.724,2.62,2.62,0,0,1-1.955.851,2.424,2.424,0,0,1-1.666-.574A1.859,1.859,0,0,1,15.1,32.1a1.942,1.942,0,0,1,.816-1.666,3.846,3.846,0,0,1,2.295-.594h1.143V29.3a1.319,1.319,0,0,0-.368-.981,1.48,1.48,0,0,0-1.085-.365,1.712,1.712,0,0,0-1.054.317.935.935,0,0,0-.425.768H15.241a1.621,1.621,0,0,1,.365-.993,2.491,2.491,0,0,1,.99-.759A3.331,3.331,0,0,1,17.97,27a2.715,2.715,0,0,1,1.86.594,2.141,2.141,0,0,1,.7,1.635v3.161a3.865,3.865,0,0,0,.241,1.5V34Zm-1.949-.9a2.064,2.064,0,0,0,1.047-.286,1.728,1.728,0,0,0,.717-.743V30.667h-.92q-2.158,0-2.158,1.263a1.069,1.069,0,0,0,.368.863A1.415,1.415,0,0,0,17.589,33.1Zm4.494-2.6a4.023,4.023,0,0,1,.749-2.542A2.548,2.548,0,0,1,26.7,27.83V24.25h1.174V34H26.8l-.057-.736a2.391,2.391,0,0,1-1.961.863,2.346,2.346,0,0,1-1.946-.978,4.069,4.069,0,0,1-.752-2.552Zm1.174.133a3.046,3.046,0,0,0,.482,1.828,1.56,1.56,0,0,0,1.333.66,1.713,1.713,0,0,0,1.631-1V28.973A1.726,1.726,0,0,0,25.086,28a1.567,1.567,0,0,0-1.346.667A3.354,3.354,0,0,0,23.258,30.642Zm10.017-.381H31.1V34H29.878V24.758h3.06a3.621,3.621,0,0,1,2.4.711,2.558,2.558,0,0,1,.841,2.069,2.488,2.488,0,0,1-.467,1.5,2.785,2.785,0,0,1-1.3.958l2.171,3.923V34H35.28Zm-2.171-1h1.873a2.112,2.112,0,0,0,1.444-.471,1.591,1.591,0,0,0,.536-1.259,1.676,1.676,0,0,0-.511-1.316,2.164,2.164,0,0,0-1.476-.464H31.1Zm10.842,4.056a2.494,2.494,0,0,1-2.012.806,2.135,2.135,0,0,1-1.673-.638A2.761,2.761,0,0,1,37.68,31.6V27.132h1.174v4.437q0,1.562,1.27,1.562a1.758,1.758,0,0,0,1.79-1v-5h1.174V34H41.971Zm4.037-6.189.038.863A2.5,2.5,0,0,1,48.077,27q2.177,0,2.2,2.457V34H49.1V29.455a1.581,1.581,0,0,0-.34-1.1A1.361,1.361,0,0,0,47.722,28a1.7,1.7,0,0,0-1,.3,2.069,2.069,0,0,0-.673.8V34H44.872V27.132Zm7.173,0,.038.863A2.5,2.5,0,0,1,55.25,27q2.177,0,2.2,2.457V34H56.272V29.455a1.581,1.581,0,0,0-.34-1.1A1.361,1.361,0,0,0,54.895,28a1.7,1.7,0,0,0-1,.3,2.069,2.069,0,0,0-.673.8V34H52.044V27.132ZM60.493,34H59.319V27.132h1.174Zm-1.27-8.69a.7.7,0,0,1,.175-.482.655.655,0,0,1,.517-.2.666.666,0,0,1,.521.2.694.694,0,0,1,.178.482.671.671,0,0,1-.178.476.678.678,0,0,1-.521.19.667.667,0,0,1-.517-.19A.678.678,0,0,1,59.224,25.31Zm4.259,1.822.038.863A2.5,2.5,0,0,1,65.578,27q2.177,0,2.2,2.457V34H66.6V29.455a1.581,1.581,0,0,0-.34-1.1A1.361,1.361,0,0,0,65.222,28a1.7,1.7,0,0,0-1,.3,2.069,2.069,0,0,0-.673.8V34H62.372V27.132Zm5.783,3.377a4.037,4.037,0,0,1,.743-2.555,2.56,2.56,0,0,1,3.929-.06l.057-.762h1.073v6.7a2.794,2.794,0,0,1-.79,2.1,2.916,2.916,0,0,1-2.123.768,3.532,3.532,0,0,1-1.454-.317,2.5,2.5,0,0,1-1.085-.87l.609-.7a2.3,2.3,0,0,0,1.847.933,1.8,1.8,0,0,0,1.336-.482,1.844,1.844,0,0,0,.479-1.358v-.59a2.414,2.414,0,0,1-1.923.813,2.346,2.346,0,0,1-1.952-.971A4.244,4.244,0,0,1,69.266,30.509Zm1.181.133a3.08,3.08,0,0,0,.476,1.825,1.547,1.547,0,0,0,1.333.663,1.72,1.72,0,0,0,1.631-1.009V28.985A1.74,1.74,0,0,0,72.268,28a1.561,1.561,0,0,0-1.339.667A3.354,3.354,0,0,0,70.446,30.642ZM3.8,47.88a5.731,5.731,0,0,1-2.282-1.108A2.116,2.116,0,0,1,.8,45.151a2.236,2.236,0,0,1,.873-1.806,3.469,3.469,0,0,1,2.269-.714A3.786,3.786,0,0,1,5.64,43,2.792,2.792,0,0,1,6.8,44.015,2.6,2.6,0,0,1,7.2,45.43H5.979a1.69,1.69,0,0,0-.533-1.322,2.168,2.168,0,0,0-1.5-.481,2.22,2.22,0,0,0-1.406.4,1.326,1.326,0,0,0-.5,1.1,1.193,1.193,0,0,0,.479.957,4.7,4.7,0,0,0,1.631.715,7.569,7.569,0,0,1,1.8.715,2.736,2.736,0,0,1,.965.911,2.325,2.325,0,0,1,.314,1.225,2.159,2.159,0,0,1-.876,1.8,3.735,3.735,0,0,1-2.342.676,4.344,4.344,0,0,1-1.777-.365,2.991,2.991,0,0,1-1.273-1,2.44,2.44,0,0,1-.448-1.441H1.733a1.592,1.592,0,0,0,.619,1.323,2.606,2.606,0,0,0,1.654.486,2.4,2.4,0,0,0,1.479-.394A1.278,1.278,0,0,0,6,49.664a1.255,1.255,0,0,0-.476-1.051A5.489,5.489,0,0,0,3.8,47.88Zm7.655,4.247a3,3,0,0,1-2.272-.917A3.4,3.4,0,0,1,8.3,48.756v-.216a4.121,4.121,0,0,1,.39-1.825,3.045,3.045,0,0,1,1.092-1.257A2.745,2.745,0,0,1,11.305,45a2.572,2.572,0,0,1,2.082.882,3.82,3.82,0,0,1,.743,2.526V48.9H9.477a2.441,2.441,0,0,0,.594,1.641,1.866,1.866,0,0,0,1.444.625,2.045,2.045,0,0,0,1.054-.254,2.648,2.648,0,0,0,.755-.673l.717.559A2.884,2.884,0,0,1,11.451,52.127Zm-.146-6.157a1.566,1.566,0,0,0-1.193.517,2.515,2.515,0,0,0-.6,1.45h3.44v-.089a2.237,2.237,0,0,0-.482-1.387A1.475,1.475,0,0,0,11.305,45.97ZM16.764,52H15.59V42.25h1.174Zm4.729.127a3,3,0,0,1-2.272-.917,3.4,3.4,0,0,1-.876-2.453v-.216a4.121,4.121,0,0,1,.39-1.825,3.045,3.045,0,0,1,1.092-1.257A2.745,2.745,0,0,1,21.347,45a2.572,2.572,0,0,1,2.082.882,3.82,3.82,0,0,1,.743,2.526V48.9H19.519a2.441,2.441,0,0,0,.594,1.641,1.866,1.866,0,0,0,1.444.625,2.045,2.045,0,0,0,1.054-.254,2.648,2.648,0,0,0,.755-.673l.717.559A2.884,2.884,0,0,1,21.493,52.127Zm-.146-6.157a1.566,1.566,0,0,0-1.193.517,2.515,2.515,0,0,0-.6,1.45H23v-.089a2.237,2.237,0,0,0-.482-1.387A1.475,1.475,0,0,0,21.347,45.97Zm5.294-.838.038.863A2.5,2.5,0,0,1,28.736,45q2.177,0,2.2,2.457V52H29.758V47.455a1.581,1.581,0,0,0-.34-1.1A1.361,1.361,0,0,0,28.38,46a1.7,1.7,0,0,0-1,.3,2.069,2.069,0,0,0-.673.8V52H25.53V45.132ZM33.979,52H32.8V45.132h1.174Zm-1.27-8.69a.7.7,0,0,1,.175-.482.655.655,0,0,1,.517-.2.666.666,0,0,1,.521.2.694.694,0,0,1,.178.482.671.671,0,0,1-.178.476.678.678,0,0,1-.521.19.667.667,0,0,1-.517-.19A.678.678,0,0,1,32.709,43.31ZM40.1,51.321a2.494,2.494,0,0,1-2.012.806,2.135,2.135,0,0,1-1.673-.638,2.761,2.761,0,0,1-.581-1.888V45.132h1.174v4.437q0,1.562,1.27,1.562a1.758,1.758,0,0,0,1.79-1v-5h1.174V52H40.124Zm4.031-6.189.032.762A2.536,2.536,0,0,1,46.2,45a1.964,1.964,0,0,1,1.961,1.1,2.6,2.6,0,0,1,.892-.8,2.634,2.634,0,0,1,1.3-.3q2.26,0,2.3,2.393V52H51.473V47.468a1.577,1.577,0,0,0-.336-1.1A1.482,1.482,0,0,0,50.007,46a1.557,1.557,0,0,0-1.085.39,1.584,1.584,0,0,0-.5,1.051V52H47.239V47.5A1.31,1.31,0,0,0,45.773,46a1.571,1.571,0,0,0-1.581.984V52H43.018V45.132Z" transform="translate(921 3648)" fill="#12263f"/>
      </g>
      <g id="Grupo_87394" data-name="Grupo 87394" transform="translate(0 23)">
        <g id="Rectángulo_8106" data-name="Rectángulo 8106" transform="translate(512 3642)" fill="#b9e9ff" stroke="#18b6fe" stroke-width="2">
          <rect width="154" height="60" rx="8" stroke="none"/>
          <rect x="1" y="1" width="152" height="58" rx="7" fill="none"/>
        </g>
        <path id="Trazado_153678" data-name="Trazado 153678" d="M4.9,12.1H3.149V16H.952V5.336H4.915a4.479,4.479,0,0,1,2.915.842,2.907,2.907,0,0,1,1.025,2.38,3.281,3.281,0,0,1-.472,1.82A3.222,3.222,0,0,1,6.951,11.54L9.258,15.9V16H6.9Zm-1.75-1.78H4.922A1.815,1.815,0,0,0,6.2,9.9a1.505,1.505,0,0,0,.454-1.161,1.611,1.611,0,0,0-.428-1.187,1.781,1.781,0,0,0-1.315-.432H3.149Zm10.884,5.83A3.89,3.89,0,0,1,11.2,15.077,3.8,3.8,0,0,1,10.1,12.228v-.205a4.787,4.787,0,0,1,.461-2.135,3.386,3.386,0,0,1,1.307-1.45,3.669,3.669,0,0,1,1.93-.509,3.289,3.289,0,0,1,2.56,1.025,4.167,4.167,0,0,1,.934,2.908v.864H12.246a1.966,1.966,0,0,0,.619,1.245,1.871,1.871,0,0,0,1.307.469,2.285,2.285,0,0,0,1.912-.886l1.04,1.165a3.178,3.178,0,0,1-1.289,1.051A4.229,4.229,0,0,1,14.033,16.146Zm-.242-6.511a1.323,1.323,0,0,0-1.022.427,2.209,2.209,0,0,0-.5,1.221h2.944v-.169a1.576,1.576,0,0,0-.381-1.092A1.365,1.365,0,0,0,13.792,9.635Zm8.35,6.511A3.89,3.89,0,0,1,19.3,15.077a3.8,3.8,0,0,1-1.095-2.849v-.205a4.787,4.787,0,0,1,.461-2.135,3.386,3.386,0,0,1,1.307-1.45,3.669,3.669,0,0,1,1.93-.509,3.289,3.289,0,0,1,2.56,1.025,4.167,4.167,0,0,1,.934,2.908v.864H20.354a1.966,1.966,0,0,0,.619,1.245,1.871,1.871,0,0,0,1.307.469,2.285,2.285,0,0,0,1.912-.886l1.04,1.165a3.178,3.178,0,0,1-1.289,1.051A4.229,4.229,0,0,1,22.141,16.146ZM21.9,9.635a1.323,1.323,0,0,0-1.022.427,2.209,2.209,0,0,0-.5,1.221H23.32v-.169a1.576,1.576,0,0,0-.381-1.092A1.365,1.365,0,0,0,21.9,9.635Zm8.994,4.175a.682.682,0,0,0-.385-.612,4.368,4.368,0,0,0-1.234-.4q-2.827-.593-2.827-2.4a2.178,2.178,0,0,1,.875-1.761,3.531,3.531,0,0,1,2.289-.707,3.8,3.8,0,0,1,2.413.71,2.239,2.239,0,0,1,.9,1.846H30.813a1.024,1.024,0,0,0-.293-.751,1.24,1.24,0,0,0-.916-.3,1.267,1.267,0,0,0-.828.242.763.763,0,0,0-.293.615.652.652,0,0,0,.333.568,3.428,3.428,0,0,0,1.124.374,9.183,9.183,0,0,1,1.333.355,2.19,2.19,0,0,1,1.677,2.131,2.067,2.067,0,0,1-.93,1.754,4.013,4.013,0,0,1-2.4.67,4.191,4.191,0,0,1-1.769-.355,2.968,2.968,0,0,1-1.212-.974A2.263,2.263,0,0,1,26.2,13.48h2.007a1.105,1.105,0,0,0,.417.864,1.656,1.656,0,0,0,1.04.3,1.533,1.533,0,0,0,.919-.231A.718.718,0,0,0,30.894,13.81Zm5.955-7.683V8.075H38.2V9.628H36.848v3.955a.944.944,0,0,0,.168.63.846.846,0,0,0,.645.19,3.376,3.376,0,0,0,.623-.051v1.6a4.358,4.358,0,0,1-1.282.19A2.021,2.021,0,0,1,34.731,13.9V9.628H33.574V8.075h1.157V6.127Zm6.987,3.933A5.751,5.751,0,0,0,43.074,10a1.55,1.55,0,0,0-1.575.813V16H39.382V8.075h2l.059.945a1.961,1.961,0,0,1,1.765-1.091,2.218,2.218,0,0,1,.659.1ZM49.6,15.194a2.654,2.654,0,0,1-2.168.952,2.5,2.5,0,0,1-1.945-.732,3.127,3.127,0,0,1-.685-2.146V8.075h2.117V13.2q0,1.239,1.128,1.239a1.528,1.528,0,0,0,1.479-.748V8.075H51.65V16H49.658Zm6.943-.754a1.388,1.388,0,0,0,.952-.322,1.129,1.129,0,0,0,.381-.857h1.985a2.715,2.715,0,0,1-.439,1.476,2.9,2.9,0,0,1-1.183,1.04,3.7,3.7,0,0,1-1.659.37,3.44,3.44,0,0,1-2.681-1.08,4.275,4.275,0,0,1-.981-2.985v-.139a4.226,4.226,0,0,1,.974-2.922,3.4,3.4,0,0,1,2.673-1.091,3.333,3.333,0,0,1,2.384.846,3,3,0,0,1,.912,2.252H57.876a1.455,1.455,0,0,0-.381-1.005,1.416,1.416,0,0,0-2.084.153,3.125,3.125,0,0,0-.377,1.749v.22a3.164,3.164,0,0,0,.374,1.761A1.291,1.291,0,0,0,56.543,14.44ZM63.6,6.127V8.075h1.355V9.628H63.6v3.955a.944.944,0,0,0,.168.63.846.846,0,0,0,.645.19,3.376,3.376,0,0,0,.623-.051v1.6a4.358,4.358,0,0,1-1.282.19A2.021,2.021,0,0,1,61.487,13.9V9.628H60.33V8.075h1.157V6.127Zm7.28,9.067a2.654,2.654,0,0,1-2.168.952,2.5,2.5,0,0,1-1.945-.732,3.127,3.127,0,0,1-.685-2.146V8.075H68.2V13.2q0,1.239,1.128,1.239a1.528,1.528,0,0,0,1.479-.748V8.075h2.124V16H70.942Zm8.1-5.134A5.751,5.751,0,0,0,78.223,10a1.55,1.55,0,0,0-1.575.813V16H74.531V8.075h2l.059.945a1.961,1.961,0,0,1,1.765-1.091,2.218,2.218,0,0,1,.659.1ZM84.375,16a2.351,2.351,0,0,1-.212-.71,2.561,2.561,0,0,1-2,.857,2.814,2.814,0,0,1-1.93-.674,2.167,2.167,0,0,1-.765-1.7A2.24,2.24,0,0,1,80.4,11.84a4.608,4.608,0,0,1,2.7-.681h.974V10.7a1.306,1.306,0,0,0-.282-.879,1.109,1.109,0,0,0-.89-.33,1.261,1.261,0,0,0-.839.256.871.871,0,0,0-.3.7H79.644a2.126,2.126,0,0,1,.425-1.274,2.808,2.808,0,0,1,1.2-.919,4.378,4.378,0,0,1,1.743-.333,3.459,3.459,0,0,1,2.325.736,2.575,2.575,0,0,1,.861,2.069v3.435a3.789,3.789,0,0,0,.315,1.707V16Zm-1.75-1.472a1.823,1.823,0,0,0,.864-.209,1.371,1.371,0,0,0,.586-.56V12.4h-.791q-1.589,0-1.692,1.1l-.007.125a.847.847,0,0,0,.278.652A1.081,1.081,0,0,0,82.625,14.528Zm8.5-.088a1.388,1.388,0,0,0,.952-.322,1.129,1.129,0,0,0,.381-.857h1.985A2.715,2.715,0,0,1,94,14.737a2.9,2.9,0,0,1-1.183,1.04,3.7,3.7,0,0,1-1.659.37,3.44,3.44,0,0,1-2.681-1.08,4.275,4.275,0,0,1-.981-2.985v-.139a4.226,4.226,0,0,1,.974-2.922,3.4,3.4,0,0,1,2.673-1.091,3.333,3.333,0,0,1,2.384.846,3,3,0,0,1,.912,2.252H92.454a1.455,1.455,0,0,0-.381-1.005,1.416,1.416,0,0,0-2.084.153,3.125,3.125,0,0,0-.377,1.749v.22a3.164,3.164,0,0,0,.374,1.761A1.291,1.291,0,0,0,91.121,14.44ZM97.881,16H95.757V8.075h2.124ZM95.632,6.024a1.042,1.042,0,0,1,.319-.784,1.373,1.373,0,0,1,1.732,0,1.036,1.036,0,0,1,.322.784,1.039,1.039,0,0,1-.326.791,1.358,1.358,0,0,1-1.721,0A1.039,1.039,0,0,1,95.632,6.024Zm3.662,5.94a4.7,4.7,0,0,1,.454-2.1,3.324,3.324,0,0,1,1.307-1.428,3.814,3.814,0,0,1,1.981-.505,3.609,3.609,0,0,1,2.618.981,3.939,3.939,0,0,1,1.132,2.666l.015.542a4.142,4.142,0,0,1-1.018,2.926,3.946,3.946,0,0,1-5.468,0,4.215,4.215,0,0,1-1.022-2.988Zm2.117.15a2.962,2.962,0,0,0,.425,1.727,1.526,1.526,0,0,0,2.417.007,3.241,3.241,0,0,0,.432-1.889,2.933,2.933,0,0,0-.432-1.716,1.4,1.4,0,0,0-1.216-.609,1.382,1.382,0,0,0-1.2.605A3.3,3.3,0,0,0,101.411,12.115Zm2.043-7.365h2.307l-2.029,2.271h-1.721Zm6.6,3.325.066.916A2.767,2.767,0,0,1,112.4,7.929a2.3,2.3,0,0,1,1.875.74,3.451,3.451,0,0,1,.63,2.212V16h-2.117V10.932a1.373,1.373,0,0,0-.293-.978,1.312,1.312,0,0,0-.974-.3,1.456,1.456,0,0,0-1.34.762V16h-2.117V8.075ZM7.368,29.378H3.149v2.856H8.1V34H.952V23.336H8.086v1.78H3.149v2.542H7.368Zm6.174,2.432a.682.682,0,0,0-.385-.612,4.368,4.368,0,0,0-1.234-.4Q9.1,30.206,9.1,28.4a2.178,2.178,0,0,1,.875-1.761,3.531,3.531,0,0,1,2.289-.707,3.8,3.8,0,0,1,2.413.71,2.239,2.239,0,0,1,.9,1.846H13.462a1.024,1.024,0,0,0-.293-.751,1.24,1.24,0,0,0-.916-.3,1.267,1.267,0,0,0-.828.242.763.763,0,0,0-.293.615.652.652,0,0,0,.333.568,3.428,3.428,0,0,0,1.124.374,9.183,9.183,0,0,1,1.333.355A2.19,2.19,0,0,1,15.6,31.722a2.067,2.067,0,0,1-.93,1.754,4.013,4.013,0,0,1-2.4.67,4.191,4.191,0,0,1-1.769-.355,2.968,2.968,0,0,1-1.212-.974,2.263,2.263,0,0,1-.439-1.337h2.007a1.105,1.105,0,0,0,.417.864,1.656,1.656,0,0,0,1.04.3,1.533,1.533,0,0,0,.919-.231A.718.718,0,0,0,13.542,31.81Zm6.716.63a1.388,1.388,0,0,0,.952-.322,1.129,1.129,0,0,0,.381-.857h1.985a2.715,2.715,0,0,1-.439,1.476,2.9,2.9,0,0,1-1.183,1.04,3.7,3.7,0,0,1-1.659.37,3.44,3.44,0,0,1-2.681-1.08,4.275,4.275,0,0,1-.981-2.985v-.139a4.226,4.226,0,0,1,.974-2.922,3.4,3.4,0,0,1,2.673-1.091,3.333,3.333,0,0,1,2.384.846,3,3,0,0,1,.912,2.252H21.592a1.455,1.455,0,0,0-.381-1.005,1.416,1.416,0,0,0-2.084.153,3.125,3.125,0,0,0-.377,1.749v.22a3.164,3.164,0,0,0,.374,1.761A1.291,1.291,0,0,0,20.259,32.44Zm8.174,1.707a3.89,3.89,0,0,1-2.838-1.069A3.8,3.8,0,0,1,24.5,30.228v-.205a4.787,4.787,0,0,1,.461-2.135,3.386,3.386,0,0,1,1.307-1.45,3.669,3.669,0,0,1,1.93-.509,3.289,3.289,0,0,1,2.56,1.025,4.167,4.167,0,0,1,.934,2.908v.864H26.646a1.966,1.966,0,0,0,.619,1.245,1.871,1.871,0,0,0,1.307.469,2.285,2.285,0,0,0,1.912-.886l1.04,1.165a3.178,3.178,0,0,1-1.289,1.051A4.229,4.229,0,0,1,28.433,34.146Zm-.242-6.511a1.323,1.323,0,0,0-1.022.427,2.209,2.209,0,0,0-.5,1.221h2.944v-.169a1.576,1.576,0,0,0-.381-1.092A1.365,1.365,0,0,0,28.191,27.635Zm6.65-1.56.066.916a2.767,2.767,0,0,1,2.278-1.062,2.3,2.3,0,0,1,1.875.74,3.451,3.451,0,0,1,.63,2.212V34H37.573V28.932a1.373,1.373,0,0,0-.293-.978,1.312,1.312,0,0,0-.974-.3,1.456,1.456,0,0,0-1.34.762V34H32.849V26.075ZM45.886,34a2.351,2.351,0,0,1-.212-.71,2.561,2.561,0,0,1-2,.857,2.814,2.814,0,0,1-1.93-.674,2.167,2.167,0,0,1-.765-1.7,2.24,2.24,0,0,1,.934-1.934,4.608,4.608,0,0,1,2.7-.681h.974V28.7a1.306,1.306,0,0,0-.282-.879,1.109,1.109,0,0,0-.89-.33,1.261,1.261,0,0,0-.839.256.871.871,0,0,0-.3.7H41.155a2.126,2.126,0,0,1,.425-1.274,2.808,2.808,0,0,1,1.2-.919,4.378,4.378,0,0,1,1.743-.333,3.459,3.459,0,0,1,2.325.736,2.575,2.575,0,0,1,.861,2.069v3.435a3.789,3.789,0,0,0,.315,1.707V34Zm-1.75-1.472A1.823,1.823,0,0,0,45,32.319a1.371,1.371,0,0,0,.586-.56V30.4h-.791q-1.589,0-1.692,1.1l-.007.125a.847.847,0,0,0,.278.652A1.081,1.081,0,0,0,44.136,32.528Zm9.653-4.468A5.75,5.75,0,0,0,53.027,28a1.55,1.55,0,0,0-1.575.813V34H49.336V26.075h2l.059.945a1.961,1.961,0,0,1,1.765-1.091,2.218,2.218,0,0,1,.659.1ZM57.041,34H54.917V26.075h2.124Zm-2.249-9.976a1.042,1.042,0,0,1,.319-.784,1.373,1.373,0,0,1,1.732,0,1.118,1.118,0,0,1,0,1.575,1.358,1.358,0,0,1-1.721,0A1.039,1.039,0,0,1,54.792,24.024Zm3.662,5.94a4.7,4.7,0,0,1,.454-2.1,3.324,3.324,0,0,1,1.307-1.428,3.814,3.814,0,0,1,1.981-.505,3.609,3.609,0,0,1,2.618.981,3.939,3.939,0,0,1,1.132,2.666l.015.542a4.142,4.142,0,0,1-1.018,2.926,3.946,3.946,0,0,1-5.468,0,4.215,4.215,0,0,1-1.022-2.988Zm2.117.15A2.962,2.962,0,0,0,61,31.842a1.526,1.526,0,0,0,2.417.007,3.241,3.241,0,0,0,.432-1.889,2.933,2.933,0,0,0-.432-1.716,1.4,1.4,0,0,0-1.216-.609,1.382,1.382,0,0,0-1.2.605A3.3,3.3,0,0,0,60.571,30.115Zm10.986,1.7a.682.682,0,0,0-.385-.612,4.368,4.368,0,0,0-1.234-.4q-2.827-.593-2.827-2.4a2.178,2.178,0,0,1,.875-1.761,3.531,3.531,0,0,1,2.289-.707,3.8,3.8,0,0,1,2.413.71,2.239,2.239,0,0,1,.9,1.846H71.477a1.024,1.024,0,0,0-.293-.751,1.24,1.24,0,0,0-.916-.3,1.267,1.267,0,0,0-.828.242.763.763,0,0,0-.293.615.652.652,0,0,0,.333.568,3.428,3.428,0,0,0,1.124.374,9.183,9.183,0,0,1,1.333.355,2.19,2.19,0,0,1,1.677,2.131,2.067,2.067,0,0,1-.93,1.754,4.013,4.013,0,0,1-2.4.67,4.191,4.191,0,0,1-1.769-.355,2.968,2.968,0,0,1-1.212-.974,2.263,2.263,0,0,1-.439-1.337H68.87a1.105,1.105,0,0,0,.417.864,1.656,1.656,0,0,0,1.04.3,1.533,1.533,0,0,0,.919-.231A.718.718,0,0,0,71.558,31.81Z" transform="translate(527 3656)" fill="#12263f"/>
      </g>
      <g id="Grupo_87397" data-name="Grupo 87397" transform="translate(529 3320)">
        <g id="Grupo_87396" data-name="Grupo 87396" clip-path="url(#clip-path)">
          <path id="Trazado_153659" data-name="Trazado 153659" d="M157.565,0H130.371l7.345,5.386A254.363,254.363,0,0,0,19.97,330.22q1.36,3.215,2.811,6.381l4.671-2.126A247.575,247.575,0,0,1,5.063,231.313c0-96.167,54.8-179.769,134.8-221.245v8.284Z" fill="#7ff9ff"/>
          <path id="Trazado_153660" data-name="Trazado 153660" d="M727.288,237.507A254.5,254.5,0,0,0,599.34,16.869l-2.566,4.488c74.895,42.988,125.451,123.776,125.451,216.15a248.113,248.113,0,0,1-11.64,75.275l-6.446-6.1,1.171,25.471L724,312.4l-8.408,1.535a253.127,253.127,0,0,0,11.7-76.428" transform="translate(-219.094 -6.193)" fill="#7ff9ff"/>
          <path id="Trazado_153661" data-name="Trazado 153661" d="M456.129,672.859a248.524,248.524,0,0,1-299.547,1.424l7.6-3.93-24.431-7.3,12.485,24.158,1.363-8.681a253.8,253.8,0,0,0,305.661-1.552Z" transform="translate(-51.308 -243.428)" fill="#7ff9ff"/>
        </g>
      </g>
      <g id="Grupo_87398" data-name="Grupo 87398" transform="translate(-0.5 -11.667)">
        <path id="Trazado_153662" data-name="Trazado 153662" d="M-5148-8347v47.333" transform="translate(5949 11726.667)" fill="none" stroke="#12263f" stroke-width="3"/>
        <path id="Polígono_5" data-name="Polígono 5" d="M6,0l6,10H0Z" transform="translate(807 3433) rotate(180)" fill="#12263f"/>
      </g>
      <g id="Grupo_87400" data-name="Grupo 87400" transform="translate(697.095 3476.5)">
        <g id="Grupo_87399" data-name="Grupo 87399" clip-path="url(#clip-path-2)">
          <path id="Trazado_153663" data-name="Trazado 153663" d="M52.165,0,37.076,4.06,41.3,5.7A103.693,103.693,0,0,0,28.859,16.314,101.813,101.813,0,0,0,0,73.185H4.382a98.39,98.39,0,0,1,39.694-64.1l1.008,3.745Z" fill="#856de9"/>
          <path id="Trazado_153664" data-name="Trazado 153664" d="M372.107,74.267a101.835,101.835,0,0,0-28.3-53.615,103.677,103.677,0,0,0-14.857-12.32L326.269,11.8a98.475,98.475,0,0,1,41.564,63.172l-3.656-.853,7.958,12.3L375.686,71.2Z" transform="translate(-169.875 -4.338)" fill="#856de9"/>
          <path id="Trazado_153665" data-name="Trazado 153665" d="M218.517,323.93A98.086,98.086,0,0,1,96.509,342.264l3.817-2.373L86,336.82l8.248,13.27.3-3.9A102.689,102.689,0,0,0,218.7,330.041c.949-.949,1.87-1.917,2.776-2.9Z" transform="matrix(0.996, 0.087, -0.087, 0.996, -26.384, -186.756)" fill="#856de9"/>
        </g>
      </g>
      <g id="Grupo_87405" data-name="Grupo 87405" transform="matrix(0.891, 0.454, -0.454, 0.891, 717.752, 3626)">
        <g id="Grupo_87404" data-name="Grupo 87404" clip-path="url(#clip-path-3)">
          <g id="Grupo_87403" data-name="Grupo 87403" style="isolation: isolate">
            <g id="Grupo_87402" data-name="Grupo 87402">
              <g id="Grupo_87401" data-name="Grupo 87401" clip-path="url(#clip-path-3)">
                <path id="Trazado_153666" data-name="Trazado 153666" d="M184.34,0l-5.51,12.128-1.259-4.45A157.047,157.047,0,0,1,131.953,34.2,157.029,157.029,0,0,1,72.394,44.225,156.567,156.567,0,0,1,11.44,30.13Q5.577,27.466,0,24.371l1.088-1.956Q6.564,25.456,12.364,28.1A155.5,155.5,0,0,0,175.945,6.065l-3.558-2.119Z" fill="#12263f"/>
              </g>
            </g>
          </g>
        </g>
      </g>
    </g>
    <path id="Trazado_153669" data-name="Trazado 153669" d="M11.188,14.737a4.528,4.528,0,0,1-1.525,3.252,5.355,5.355,0,0,1-3.625,1.187,4.816,4.816,0,0,1-3.872-1.657A6.793,6.793,0,0,1,.756,12.971v-.782a7.671,7.671,0,0,1,.65-3.252A4.874,4.874,0,0,1,3.265,6.779a5.207,5.207,0,0,1,2.808-.751A5.217,5.217,0,0,1,9.642,7.214a4.866,4.866,0,0,1,1.564,3.331H8.569a2.673,2.673,0,0,0-.69-1.8,2.555,2.555,0,0,0-1.806-.558A2.24,2.24,0,0,0,4.1,9.134a5.3,5.3,0,0,0-.672,2.931v.967a5.667,5.667,0,0,0,.628,3.032,2.2,2.2,0,0,0,1.982.958,2.6,2.6,0,0,0,1.824-.558,2.521,2.521,0,0,0,.69-1.727Zm1.169-.58a5.64,5.64,0,0,1,.545-2.522,3.989,3.989,0,0,1,1.569-1.714,4.577,4.577,0,0,1,2.377-.606,4.33,4.33,0,0,1,3.142,1.178,4.727,4.727,0,0,1,1.358,3.2l.018.65a4.97,4.97,0,0,1-1.222,3.511,4.247,4.247,0,0,1-3.278,1.323,4.268,4.268,0,0,1-3.283-1.318,5.058,5.058,0,0,1-1.226-3.586Zm2.54.18a3.555,3.555,0,0,0,.51,2.073,1.831,1.831,0,0,0,2.9.009,3.89,3.89,0,0,0,.519-2.267,3.519,3.519,0,0,0-.519-2.06,1.686,1.686,0,0,0-1.459-.731,1.658,1.658,0,0,0-1.441.726A3.955,3.955,0,0,0,14.9,14.338ZM25.313,9.49l.079,1.063a3.342,3.342,0,0,1,2.733-1.239,2.536,2.536,0,0,1,2.522,1.45A3.265,3.265,0,0,1,33.5,9.314a2.836,2.836,0,0,1,2.3.9,4.141,4.141,0,0,1,.756,2.711V19H34.014V12.936a1.811,1.811,0,0,0-.316-1.182,1.4,1.4,0,0,0-1.116-.374A1.585,1.585,0,0,0,31,12.47L31.008,19h-2.54V12.944a1.789,1.789,0,0,0-.325-1.2,1.416,1.416,0,0,0-1.107-.369,1.646,1.646,0,0,0-1.564.9V19h-2.54V9.49Zm21.762,4.843a5.7,5.7,0,0,1-1,3.52,3.2,3.2,0,0,1-2.694,1.323,2.963,2.963,0,0,1-2.329-1v4.482h-2.54V9.49h2.355l.088.932a2.985,2.985,0,0,1,2.408-1.107,3.22,3.22,0,0,1,2.733,1.3,5.858,5.858,0,0,1,.976,3.586Zm-2.54-.185a3.743,3.743,0,0,0-.47-2.048A1.532,1.532,0,0,0,42.7,11.38a1.663,1.663,0,0,0-1.644.914v3.894a1.692,1.692,0,0,0,1.661.94Q44.534,17.128,44.534,14.148Zm3.718.009a5.64,5.64,0,0,1,.545-2.522,3.989,3.989,0,0,1,1.569-1.714,4.577,4.577,0,0,1,2.377-.606,4.33,4.33,0,0,1,3.142,1.178,4.727,4.727,0,0,1,1.358,3.2l.018.65a4.97,4.97,0,0,1-1.222,3.511,4.735,4.735,0,0,1-6.561,0,5.058,5.058,0,0,1-1.226-3.586Zm2.54.18a3.555,3.555,0,0,0,.51,2.073,1.831,1.831,0,0,0,2.9.009,3.89,3.89,0,0,0,.519-2.267,3.519,3.519,0,0,0-.519-2.06,1.686,1.686,0,0,0-1.459-.731,1.658,1.658,0,0,0-1.441.726A3.955,3.955,0,0,0,50.792,14.338Zm13.377-2.465a6.9,6.9,0,0,0-.914-.07,1.86,1.86,0,0,0-1.89.976V19h-2.54V9.49h2.4l.07,1.134a2.354,2.354,0,0,1,2.118-1.31,2.662,2.662,0,0,1,.791.114Zm4.7-4.72V9.49H70.5v1.863H68.871V16.1a1.133,1.133,0,0,0,.2.756,1.015,1.015,0,0,0,.773.229,4.051,4.051,0,0,0,.747-.062v1.925a5.229,5.229,0,0,1-1.538.229,2.425,2.425,0,0,1-2.725-2.7V11.354H64.942V9.49h1.389V7.152ZM77.423,19a2.821,2.821,0,0,1-.255-.853,3.073,3.073,0,0,1-2.4,1.028,3.376,3.376,0,0,1-2.316-.809,2.6,2.6,0,0,1-.918-2.039,2.687,2.687,0,0,1,1.121-2.32,5.529,5.529,0,0,1,3.239-.817h1.169v-.545a1.567,1.567,0,0,0-.338-1.055,1.331,1.331,0,0,0-1.068-.4,1.513,1.513,0,0,0-1.006.308,1.045,1.045,0,0,0-.365.844h-2.54a2.551,2.551,0,0,1,.51-1.529,3.37,3.37,0,0,1,1.441-1.1,5.253,5.253,0,0,1,2.092-.4,4.15,4.15,0,0,1,2.791.883,3.09,3.09,0,0,1,1.033,2.483V16.8a4.546,4.546,0,0,0,.378,2.048V19Zm-2.1-1.767a2.188,2.188,0,0,0,1.037-.25,1.645,1.645,0,0,0,.7-.672V14.676h-.949q-1.907,0-2.03,1.318l-.009.149a1.017,1.017,0,0,0,.334.782A1.3,1.3,0,0,0,75.322,17.233ZM83.944,9.49l.079,1.063a3.342,3.342,0,0,1,2.733-1.239,2.536,2.536,0,0,1,2.522,1.45,3.265,3.265,0,0,1,2.856-1.45,2.836,2.836,0,0,1,2.3.9,4.141,4.141,0,0,1,.756,2.711V19H92.646V12.936a1.811,1.811,0,0,0-.316-1.182,1.4,1.4,0,0,0-1.116-.374,1.585,1.585,0,0,0-1.582,1.09L89.64,19H87.1V12.944a1.789,1.789,0,0,0-.325-1.2,1.416,1.416,0,0,0-1.107-.369,1.646,1.646,0,0,0-1.564.9V19h-2.54V9.49ZM99.826,19H97.277V9.49h2.549Zm-2.7-11.971a1.251,1.251,0,0,1,.382-.94,1.648,1.648,0,0,1,2.079,0,1.244,1.244,0,0,1,.387.94,1.247,1.247,0,0,1-.391.949,1.629,1.629,0,0,1-2.065,0A1.247,1.247,0,0,1,97.128,7.029Zm9.167,12.146a4.668,4.668,0,0,1-3.406-1.283,4.561,4.561,0,0,1-1.314-3.419v-.246a5.745,5.745,0,0,1,.554-2.562,4.064,4.064,0,0,1,1.569-1.74,4.4,4.4,0,0,1,2.316-.611,3.947,3.947,0,0,1,3.072,1.23,5,5,0,0,1,1.121,3.489v1.037H104.15a2.36,2.36,0,0,0,.743,1.494,2.245,2.245,0,0,0,1.569.563,2.742,2.742,0,0,0,2.294-1.063l1.248,1.4a3.813,3.813,0,0,1-1.547,1.261A5.075,5.075,0,0,1,106.295,19.176ZM106,11.362a1.587,1.587,0,0,0-1.226.512,2.651,2.651,0,0,0-.6,1.466h3.533v-.2a1.891,1.891,0,0,0-.457-1.311A1.638,1.638,0,0,0,106,11.362Zm7.98-1.872.079,1.1A3.32,3.32,0,0,1,116.8,9.314a2.759,2.759,0,0,1,2.25.888,4.142,4.142,0,0,1,.756,2.654V19h-2.54V12.918a1.648,1.648,0,0,0-.352-1.173,1.574,1.574,0,0,0-1.169-.365,1.747,1.747,0,0,0-1.608.914V19h-2.54V9.49ZM124.77,7.152V9.49H126.4v1.863H124.77V16.1a1.133,1.133,0,0,0,.2.756,1.015,1.015,0,0,0,.773.229,4.051,4.051,0,0,0,.747-.062v1.925a5.229,5.229,0,0,1-1.538.229,2.425,2.425,0,0,1-2.725-2.7V11.354h-1.389V9.49h1.389V7.152Zm2.382,7a5.64,5.64,0,0,1,.545-2.522,3.989,3.989,0,0,1,1.569-1.714,4.577,4.577,0,0,1,2.377-.606,4.33,4.33,0,0,1,3.142,1.178,4.727,4.727,0,0,1,1.358,3.2l.018.65a4.97,4.97,0,0,1-1.222,3.511,4.735,4.735,0,0,1-6.561,0,5.058,5.058,0,0,1-1.226-3.586Zm2.54.18a3.555,3.555,0,0,0,.51,2.073,1.831,1.831,0,0,0,2.9.009,3.89,3.89,0,0,0,.519-2.267,3.519,3.519,0,0,0-.519-2.06,1.686,1.686,0,0,0-1.459-.731,1.658,1.658,0,0,0-1.441.726A3.955,3.955,0,0,0,129.691,14.338ZM1.143,43V30.2H5.625a5.886,5.886,0,0,1,3.533.892,3.05,3.05,0,0,1,1.2,2.615,2.891,2.891,0,0,1-.483,1.657,2.792,2.792,0,0,1-1.345,1.05,2.7,2.7,0,0,1,1.551.993,2.936,2.936,0,0,1,.567,1.828,3.377,3.377,0,0,1-1.178,2.795A5.3,5.3,0,0,1,6.117,43Zm2.637-5.572v3.454H6.038a2.18,2.18,0,0,0,1.455-.444,1.522,1.522,0,0,0,.523-1.226A1.607,1.607,0,0,0,6.2,37.428Zm0-1.863H5.73q2-.035,2-1.591a1.47,1.47,0,0,0-.505-1.252,2.658,2.658,0,0,0-1.6-.382H3.779ZM12.63,43V30.2h3.938a5.98,5.98,0,0,1,3.019.76,5.3,5.3,0,0,1,2.079,2.162,6.669,6.669,0,0,1,.747,3.186V36.9a6.688,6.688,0,0,1-.734,3.173,5.256,5.256,0,0,1-2.07,2.153A6.025,6.025,0,0,1,16.594,43Zm2.637-10.661v8.543h1.274a2.863,2.863,0,0,0,2.364-1.011,4.567,4.567,0,0,0,.835-2.892V36.3a4.64,4.64,0,0,0-.809-2.958,2.854,2.854,0,0,0-2.364-1.006ZM24.328,43V30.2h3.938a5.98,5.98,0,0,1,3.019.76,5.3,5.3,0,0,1,2.079,2.162,6.669,6.669,0,0,1,.747,3.186V36.9a6.688,6.688,0,0,1-.734,3.173,5.256,5.256,0,0,1-2.07,2.153A6.025,6.025,0,0,1,28.292,43Zm2.637-10.661v8.543h1.274A2.863,2.863,0,0,0,30.6,39.871a4.567,4.567,0,0,0,.835-2.892V36.3a4.64,4.64,0,0,0-.809-2.958,2.854,2.854,0,0,0-2.364-1.006Zm14.019,3.5h3.173v2.294H40.983v3.586H38.566V38.131H35.385V35.837h3.182V32.4h2.417Zm14.5-3.5h-3.92V43H48.929V32.339H45.062V30.2H55.485ZM56.988,43V30.2h3.938a5.98,5.98,0,0,1,3.019.76,5.3,5.3,0,0,1,2.079,2.162,6.669,6.669,0,0,1,.747,3.186V36.9a6.688,6.688,0,0,1-.734,3.173,5.256,5.256,0,0,1-2.07,2.153A6.025,6.025,0,0,1,60.952,43Zm2.637-10.661v8.543H60.9a2.863,2.863,0,0,0,2.364-1.011,4.567,4.567,0,0,0,.835-2.892V36.3a4.64,4.64,0,0,0-.809-2.958,2.854,2.854,0,0,0-2.364-1.006ZM68.687,43V30.2h3.938a5.98,5.98,0,0,1,3.019.76,5.3,5.3,0,0,1,2.079,2.162,6.669,6.669,0,0,1,.747,3.186V36.9a6.688,6.688,0,0,1-.734,3.173,5.256,5.256,0,0,1-2.07,2.153A6.025,6.025,0,0,1,72.65,43Zm2.637-10.661v8.543H72.6a2.863,2.863,0,0,0,2.364-1.011,4.567,4.567,0,0,0,.835-2.892V36.3a4.64,4.64,0,0,0-.809-2.958,2.854,2.854,0,0,0-2.364-1.006Z" transform="translate(512 3265)" fill="#12263f"/>
  </g>
</svg>
