<svg xmlns="http://www.w3.org/2000/svg" width="246.736" height="264.34" viewBox="0 0 246.736 264.34">
  <g id="Grupo_86524" data-name="Grupo 86524" transform="translate(-666.335 -1329.556)">
    <path id="Trazado_151706" data-name="Trazado 151706" d="M825.1,1866.121v-16.614a9.376,9.376,0,0,0-9.376-9.376H803.866v79.014h39.983v-34.271a9.376,9.376,0,0,0-9.376-9.376h0A9.376,9.376,0,0,1,825.1,1866.121Z" transform="translate(-88.845 -329.832)" fill="#b6d5d0"/>
    <path id="Trazado_151707" data-name="Trazado 151707" d="M1125.823,1994.815l-7.566,7.388-2.545-3.783-4.061-6.039,9.728-4.52,2.654,4.158Z" transform="translate(-287.675 -425.265)" fill="#e9928b"/>
    <path id="Trazado_151708" data-name="Trazado 151708" d="M1124.035,1992.019a31.469,31.469,0,0,0-8.322,6.4l-4.061-6.039,9.729-4.52Z" transform="translate(-287.675 -425.265)" fill="#de6667"/>
    <rect id="Rectángulo_7777" data-name="Rectángulo 7777" width="160.595" height="83.738" transform="translate(699.873 1347.904)" fill="#856de9" opacity="0.15"/>
    <rect id="Rectángulo_7778" data-name="Rectángulo 7778" width="25.865" height="23.856" transform="translate(708.684 1355.429)" fill="#7ff9ff"/>
    <g id="Grupo_86485" data-name="Grupo 86485" transform="translate(764.294 1374.601)">
      <path id="Trazado_151709" data-name="Trazado 151709" d="M1165.268,1459.227h-.97v-1.455h-1.455v-.97h2.425Z" transform="translate(-1085.038 -1456.802)" fill="#b6d5d0"/>
      <path id="Trazado_151710" data-name="Trazado 151710" d="M1028.557,1457.772h-3.967v-.97h3.967Zm-7.935,0h-3.968v-.97h3.968Zm-7.935,0h-3.967v-.97h3.967Zm-7.935,0h-3.968v-.97h3.968Zm-7.935,0h-3.967v-.97h3.967Zm-7.935,0h-3.968v-.97h3.968Zm-7.935,0h-3.968v-.97h3.968Zm-7.935,0h-3.967v-.97h3.967Zm-7.935,0h-3.967v-.97h3.967Z" transform="translate(-954.72 -1456.802)" fill="#b6d5d0"/>
      <path id="Trazado_151711" data-name="Trazado 151711" d="M944.025,1459.227h-.97V1456.8h2.425v.97h-1.455Z" transform="translate(-943.055 -1456.802)" fill="#b6d5d0"/>
      <path id="Trazado_151712" data-name="Trazado 151712" d="M944.025,1510.506h-.97v-3.962h.97Zm0-7.925h-.97v-3.962h.97Zm0-7.925h-.97v-3.962h.97Zm0-7.925h-.97v-3.962h.97Zm0-7.925h-.97v-3.962h.97Z" transform="translate(-943.055 -1468.458)" fill="#b6d5d0"/>
      <path id="Trazado_151713" data-name="Trazado 151713" d="M945.48,1589.2h-2.425v-2.425h.97v1.455h1.455Z" transform="translate(-943.055 -1540.764)" fill="#b6d5d0"/>
      <path id="Trazado_151714" data-name="Trazado 151714" d="M1028.557,1591.855h-3.967v-.97h3.967Zm-7.935,0h-3.967v-.97h3.967Zm-7.935,0h-3.967v-.97h3.967Zm-7.935,0h-3.968v-.97h3.968Zm-7.935,0h-3.967v-.97h3.967Zm-7.935,0h-3.968v-.97h3.968Zm-7.935,0h-3.968v-.97h3.968Zm-7.935,0h-3.968v-.97h3.968Zm-7.935,0h-3.968v-.97h3.968Z" transform="translate(-954.72 -1543.42)" fill="#b6d5d0"/>
      <path id="Trazado_151715" data-name="Trazado 151715" d="M1165.268,1589.2h-2.425v-.97h1.455v-1.455h.97Z" transform="translate(-1085.038 -1540.764)" fill="#b6d5d0"/>
      <path id="Trazado_151716" data-name="Trazado 151716" d="M1167.923,1510.506h-.97v-3.962h.97Zm0-7.925h-.97v-3.962h.97Zm0-7.925h-.97v-3.962h.97Zm0-7.925h-.97v-3.962h.97Zm0-7.925h-.97v-3.962h.97Z" transform="translate(-1087.693 -1468.458)" fill="#b6d5d0"/>
    </g>
    <rect id="Rectángulo_7779" data-name="Rectángulo 7779" width="89.385" height="46.342" rx="6.785" transform="translate(682.663 1389.827)" fill="#b2e5e0"/>
    <rect id="Rectángulo_7780" data-name="Rectángulo 7780" width="89.385" height="46.342" rx="6.785" transform="translate(685.572 1392.737)" fill="#18b6fe"/>
    <path id="Trazado_151717" data-name="Trazado 151717" d="M738.7,1580.873h75.978s-2.532-17.728-6.52-23.117-7.328,2.047-11.747,10.885-13.579,12.825-20.261,3.987-9.7-11.639-17.136-6.9-13.256.754-15.734-5.389-4.58-6.035-4.58-6.035Z" transform="translate(-46.749 -145.19)" fill="#fff" opacity="0.67"/>
    <path id="Trazado_151718" data-name="Trazado 151718" d="M738.7,1587.321s3.5.161,6.3-3.718,3.557-9.807,6.574-11.64,5.82,0,10.023,7.679,10.777,4.068,13.579-3.584,4.1-11.316,8.729-11.747,7.544,5.281,9.161,10.777,5.819,7.329,10.022,5.066,11.585,7.167,11.585,7.167Z" transform="translate(-46.749 -151.638)" fill="#fff" opacity="0.28"/>
    <path id="Trazado_151719" data-name="Trazado 151719" d="M740.156,1521.6h0a1.455,1.455,0,0,1-1.455-1.455h0a1.455,1.455,0,0,1,1.455-1.455h0a1.455,1.455,0,0,1,1.455,1.455h0A1.455,1.455,0,0,1,740.156,1521.6Z" transform="translate(-46.749 -122.179)" fill="#fff"/>
    <rect id="Rectángulo_7781" data-name="Rectángulo 7781" width="30.499" height="1.724" transform="translate(698.472 1397.102)" fill="#fff"/>
    <path id="Trazado_151720" data-name="Trazado 151720" d="M740.156,1536.44h0a1.455,1.455,0,0,1-1.455-1.455h0a1.455,1.455,0,0,1,1.455-1.455h0a1.455,1.455,0,0,1,1.455,1.455h0A1.455,1.455,0,0,1,740.156,1536.44Z" transform="translate(-46.749 -131.767)" fill="#fff"/>
    <rect id="Rectángulo_7782" data-name="Rectángulo 7782" width="23.494" height="1.724" transform="translate(698.472 1402.356)" fill="#fff"/>
    <rect id="Rectángulo_7783" data-name="Rectángulo 7783" width="25.865" height="23.856" transform="translate(711.715 1357.875)" fill="#fff"/>
    <g id="Grupo_86486" data-name="Grupo 86486" transform="translate(715.743 1365.56)">
      <path id="Trazado_151721" data-name="Trazado 151721" d="M824.711,1439.367l-9.4,4.257-9.4-4.257v6.359h18.806Z" transform="translate(-805.905 -1436.497)" fill="#ffc945"/>
      <path id="Trazado_151722" data-name="Trazado 151722" d="M824.711,1431.261H805.905v1.7l9.4,4.163,9.4-4.163Z" transform="translate(-805.905 -1431.261)" fill="#ffc945"/>
    </g>
    <g id="Grupo_86490" data-name="Grupo 86490" transform="translate(763.597 1350.702)">
      <g id="Grupo_86487" data-name="Grupo 86487" transform="translate(0 20.045)">
        <path id="Trazado_151723" data-name="Trazado 151723" d="M993.112,1448.344H941.086v-2.429h52.026Zm-51.7-.323h51.38v-1.782h-51.38Z" transform="translate(-941.086 -1445.915)" fill="#fff"/>
      </g>
      <g id="Grupo_86488" data-name="Grupo 86488" transform="translate(0 10.023)">
        <path id="Trazado_151724" data-name="Trazado 151724" d="M993.112,1420.032H941.086V1417.6h52.026Zm-51.7-.324h51.38v-1.782h-51.38Z" transform="translate(-941.086 -1417.603)" fill="#fff"/>
      </g>
      <g id="Grupo_86489" data-name="Grupo 86489" transform="translate(0)">
        <path id="Trazado_151725" data-name="Trazado 151725" d="M993.112,1391.719H941.086v-2.429h52.026Zm-51.7-.323h51.38v-1.783h-51.38Z" transform="translate(-941.086 -1389.29)" fill="#fff"/>
      </g>
    </g>
    <g id="Grupo_86491" data-name="Grupo 86491" transform="translate(876.429 1390.629)">
      <rect id="Rectángulo_7784" data-name="Rectángulo 7784" width="19.741" height="14.54" fill="#dceceb"/>
      <path id="Trazado_151726" data-name="Trazado 151726" d="M1269.694,1519.658l-4.293-3.237a.425.425,0,0,1,0-.676l4.267-3.264.516.674-3.823,2.924,3.847,2.9Z" transform="translate(-1263.317 -1508.799)" fill="#fff"/>
      <path id="Trazado_151727" data-name="Trazado 151727" d="M1296.637,1519.658l-.511-.678,3.847-2.9-3.823-2.924.516-.674,4.267,3.264a.425.425,0,0,1,0,.676Z" transform="translate(-1283.274 -1508.799)" fill="#fff"/>
      <rect id="Rectángulo_7785" data-name="Rectángulo 7785" width="7.864" height="0.849" transform="translate(8.509 10.983) rotate(-76.026)" fill="#fff"/>
    </g>
    <path id="Trazado_151728" data-name="Trazado 151728" d="M1202.988,1991.75l-8.316,7.754-2.075-9.293-.8-3.6,9.938-2.513.574,3.5Z" transform="translate(-339.446 -422.834)" fill="#e9928b"/>
    <path id="Trazado_151729" data-name="Trazado 151729" d="M1202.305,1987.6a13.875,13.875,0,0,0-4.11.259,50.863,50.863,0,0,0-5.6,2.352l-.8-3.6,9.938-2.513Z" transform="translate(-339.446 -422.834)" fill="#de6667"/>
    <path id="Trazado_151730" data-name="Trazado 151730" d="M1187.234,2003.309c-4.209-.065-5.718,3.386-7.133,6.593s-3.131,10.689-5.583,11.444-3.773,2.075-3.773,3.584h8.851s5.554-6.106,8.411-8.49,3.55-3.929,3.55-3.929a56.183,56.183,0,0,0-2.166-8.352A3.1,3.1,0,0,0,1187.234,2003.309Z" transform="translate(-325.849 -435.244)" fill="#0c1b3c"/>
    <path id="Trazado_151731" data-name="Trazado 151731" d="M1197.915,2020.646c-3.07.636-4.2,3.93-6.086,9.4s-5.629,6.067-5.629,6.067h10.454a31.65,31.65,0,0,1,1.826-4.558c.92-1.885,2.5-4.041,2.906-6.007C1202.33,2020.927,1198.663,2020.491,1197.915,2020.646Z" transform="translate(-335.833 -446.428)" fill="#408c91"/>
    <path id="Trazado_151732" data-name="Trazado 151732" d="M1164.411,1929.354a38.522,38.522,0,0,0-11.167,2.91s-2.234.727-5.467-6.075-14.6-28.115-14.6-28.115l13.068.414,9.88.314s5.335,13.5,7.921,19.237A15.749,15.749,0,0,1,1164.411,1929.354Z" transform="translate(-301.581 -367.262)" fill="#856de9"/>
    <path id="Trazado_151733" data-name="Trazado 151733" d="M1153.244,1920.165c-3.96,4.743-2.635,10.262,0,12.1,0,0-2.234.727-5.467-6.075s-14.6-28.115-14.6-28.115l13.068.414,8.532,3.789s-8.4,1.077-10.291,5.5S1157.2,1915.425,1153.244,1920.165Z" transform="translate(-301.581 -367.262)" fill="#6349cf"/>
    <g id="Grupo_86492" data-name="Grupo 86492" transform="translate(765.247 1508.491)" opacity="0.4">
      <path id="Trazado_151734" data-name="Trazado 151734" d="M996.661,1864.933l-1.458-.81a2.866,2.866,0,0,1-1.478-2.547c0-.119.006-.238.006-.357s0-.238-.006-.356a2.865,2.865,0,0,1,1.478-2.547l1.458-.81a2.88,2.88,0,0,0,1.383-3.257c-.006-.013-.008-.03-.014-.043a2.875,2.875,0,0,0-2.822-2.128l-1.672.027a2.892,2.892,0,0,1-2.568-1.5c-.106-.184-.211-.368-.316-.548a2.9,2.9,0,0,1-.019-2.982l.856-1.423a2.876,2.876,0,0,0-.432-3.511l-.036-.035a2.875,2.875,0,0,0-3.511-.432l-1.423.856a2.9,2.9,0,0,1-2.982-.019c-.181-.106-.365-.211-.548-.316a2.891,2.891,0,0,1-1.5-2.568l.027-1.672a2.875,2.875,0,0,0-2.128-2.823c-.014-.005-.03-.008-.043-.013a2.88,2.88,0,0,0-3.257,1.383l-.81,1.458a2.866,2.866,0,0,1-2.547,1.478c-.119,0-.238-.006-.356-.006s-.238,0-.356.006a2.867,2.867,0,0,1-2.547-1.478l-.81-1.458a2.88,2.88,0,0,0-3.257-1.383c-.013.005-.029.008-.043.013a2.875,2.875,0,0,0-2.128,2.823l.027,1.672a2.892,2.892,0,0,1-1.5,2.568c-.184.105-.367.21-.548.316a2.9,2.9,0,0,1-2.982.019l-1.423-.856a2.876,2.876,0,0,0-3.511.432l-.035.035a2.876,2.876,0,0,0-.432,3.511l.856,1.423a2.9,2.9,0,0,1-.019,2.982c-.105.181-.211.365-.316.548a2.893,2.893,0,0,1-2.569,1.5l-1.672-.027a2.875,2.875,0,0,0-2.823,2.128c-.005.013-.008.03-.013.043a2.879,2.879,0,0,0,1.383,3.257l1.458.81a2.865,2.865,0,0,1,1.477,2.547c0,.119-.005.238-.005.356s0,.238.005.357a2.866,2.866,0,0,1-1.477,2.547l-1.458.81a2.879,2.879,0,0,0-1.383,3.257c.005.014.008.03.013.043a2.875,2.875,0,0,0,2.823,2.128l1.672-.027a2.892,2.892,0,0,1,2.569,1.5c.105.184.211.367.316.548a2.9,2.9,0,0,1,.019,2.982l-.856,1.423a2.876,2.876,0,0,0,.432,3.511l.035.035a2.876,2.876,0,0,0,3.511.432l1.423-.856a2.9,2.9,0,0,1,2.982.019c.181.105.365.211.548.316a2.892,2.892,0,0,1,1.5,2.569l-.027,1.672a2.875,2.875,0,0,0,2.128,2.823c.014.005.03.008.043.013a2.879,2.879,0,0,0,3.257-1.383l.81-1.458a2.866,2.866,0,0,1,2.547-1.477c.119,0,.237.005.356.005s.238,0,.356-.005a2.865,2.865,0,0,1,2.547,1.477l.81,1.458a2.88,2.88,0,0,0,3.257,1.383c.013-.005.03-.008.043-.013a2.875,2.875,0,0,0,2.128-2.823l-.027-1.672a2.891,2.891,0,0,1,1.5-2.569c.184-.105.367-.211.548-.316a2.9,2.9,0,0,1,2.982-.019l1.423.856a2.875,2.875,0,0,0,3.511-.432l.036-.035a2.876,2.876,0,0,0,.432-3.511l-.856-1.423a2.9,2.9,0,0,1,.019-2.982c.105-.181.211-.365.316-.548a2.892,2.892,0,0,1,2.568-1.5l1.672.027a2.875,2.875,0,0,0,2.822-2.128c.005-.013.008-.03.014-.043A2.88,2.88,0,0,0,996.661,1864.933Zm-24.717,12.491a16.2,16.2,0,1,1,16.2-16.2A16.2,16.2,0,0,1,971.944,1877.424Z" transform="translate(-945.747 -1835.022)" fill="#d07efc"/>
      <circle id="Elipse_8311" data-name="Elipse 8311" cx="7.315" cy="7.315" r="7.315" transform="translate(17.21 31.454) rotate(-74.68)" fill="#d07efc"/>
    </g>
    <g id="Grupo_86493" data-name="Grupo 86493" transform="translate(882.487 1553.493)" opacity="0.4">
      <path id="Trazado_151735" data-name="Trazado 151735" d="M1306.655,1979.606l-.851-.473a1.674,1.674,0,0,1-.862-1.487c0-.069,0-.139,0-.208s0-.139,0-.208a1.674,1.674,0,0,1,.862-1.487l.851-.473a1.68,1.68,0,0,0,.807-1.9c0-.008,0-.017-.008-.026a1.678,1.678,0,0,0-1.647-1.242l-.976.016a1.689,1.689,0,0,1-1.5-.875c-.061-.107-.123-.215-.184-.32a1.692,1.692,0,0,1-.011-1.741l.5-.83a1.678,1.678,0,0,0-.252-2.05l-.021-.021a1.678,1.678,0,0,0-2.049-.252l-.831.5a1.689,1.689,0,0,1-1.74-.011l-.32-.184a1.688,1.688,0,0,1-.875-1.5l.016-.976a1.677,1.677,0,0,0-1.242-1.647l-.025-.008a1.682,1.682,0,0,0-1.9.807l-.473.851a1.672,1.672,0,0,1-1.486.862c-.069,0-.139,0-.208,0s-.139,0-.208,0a1.673,1.673,0,0,1-1.487-.862l-.473-.851a1.681,1.681,0,0,0-1.9-.807l-.025.008a1.678,1.678,0,0,0-1.242,1.647l.016.976a1.688,1.688,0,0,1-.875,1.5l-.32.184a1.689,1.689,0,0,1-1.74.011l-.831-.5a1.678,1.678,0,0,0-2.049.252l-.021.021a1.679,1.679,0,0,0-.252,2.05l.5.83a1.69,1.69,0,0,1-.011,1.741l-.184.32a1.688,1.688,0,0,1-1.5.875l-.976-.016a1.678,1.678,0,0,0-1.647,1.242c0,.008-.005.017-.008.026a1.681,1.681,0,0,0,.807,1.9l.851.473a1.673,1.673,0,0,1,.862,1.487c0,.07,0,.139,0,.208s0,.139,0,.208a1.673,1.673,0,0,1-.862,1.487l-.851.473a1.682,1.682,0,0,0-.807,1.9c0,.008.005.017.008.025a1.678,1.678,0,0,0,1.647,1.242l.976-.016a1.688,1.688,0,0,1,1.5.875l.184.32a1.689,1.689,0,0,1,.011,1.74l-.5.831a1.679,1.679,0,0,0,.252,2.049l.021.021a1.678,1.678,0,0,0,2.049.252l.831-.5a1.691,1.691,0,0,1,1.74.011l.32.184a1.689,1.689,0,0,1,.875,1.5l-.016.976a1.678,1.678,0,0,0,1.242,1.648l.025.008a1.68,1.68,0,0,0,1.9-.807l.473-.851a1.674,1.674,0,0,1,1.487-.862c.069,0,.139,0,.208,0s.139,0,.208,0a1.673,1.673,0,0,1,1.486.862l.473.851a1.681,1.681,0,0,0,1.9.807l.025-.008a1.677,1.677,0,0,0,1.242-1.648l-.016-.976a1.689,1.689,0,0,1,.875-1.5l.32-.184a1.691,1.691,0,0,1,1.74-.011l.831.5a1.678,1.678,0,0,0,2.049-.252l.021-.021a1.678,1.678,0,0,0,.252-2.049l-.5-.831a1.691,1.691,0,0,1,.011-1.74c.062-.106.123-.213.184-.32a1.689,1.689,0,0,1,1.5-.875l.976.016a1.678,1.678,0,0,0,1.647-1.242c0-.008,0-.017.008-.025A1.68,1.68,0,0,0,1306.655,1979.606Zm-14.428,7.291a9.459,9.459,0,1,1,9.459-9.459A9.458,9.458,0,0,1,1292.227,1986.9Z" transform="translate(-1276.935 -1962.147)" fill="#d07efc"/>
    </g>
    <rect id="Rectángulo_7786" data-name="Rectángulo 7786" width="246.693" height="4.681" transform="translate(666.378 1589.215)" fill="#aecbc7"/>
    <g id="Grupo_86502" data-name="Grupo 86502" transform="translate(714.549 1444.178)">
      <path id="Trazado_151736" data-name="Trazado 151736" d="M956.3,1706.763v-5.079l-4.574-1.181-3.5-4.176.914-2.5-27.915-31.9H804.6a2.072,2.072,0,0,0-2.071,2.07v3.608l.027.022a3.191,3.191,0,0,0,.74,1.679l30.938,36.872a11.833,11.833,0,0,0,9.063,4.225H953.068a3.242,3.242,0,0,0,3.235-2.895A3.414,3.414,0,0,0,956.3,1706.763Z" transform="translate(-802.534 -1658.891)" fill="#b6d5d0"/>
      <g id="Grupo_86501" data-name="Grupo 86501" transform="translate(0)">
        <path id="Trazado_151737" data-name="Trazado 151737" d="M953.068,1699.782H843.3a11.831,11.831,0,0,1-9.062-4.226L803.3,1658.686a3.249,3.249,0,0,1,2.489-5.338H915.557a11.83,11.83,0,0,1,9.062,4.226l30.938,36.87A3.25,3.25,0,0,1,953.068,1699.782Z" transform="translate(-802.534 -1653.348)" fill="#fff"/>
        <path id="Trazado_151738" data-name="Trazado 151738" d="M1148.887,1712.7h0a.728.728,0,0,1-.558-.26L1127,1687.1a.728.728,0,0,1,.557-1.2h0a.73.73,0,0,1,.558.259l21.331,25.343A.728.728,0,0,1,1148.887,1712.7Z" transform="translate(-1012.027 -1674.379)" fill="#b2e5e0"/>
        <g id="Grupo_86495" data-name="Grupo 86495" transform="translate(14.967 11.299)">
          <path id="Trazado_151739" data-name="Trazado 151739" d="M883.277,1701.726H858.6a1.957,1.957,0,0,1-1.5-.7l-12.1-14.521a.753.753,0,0,1,.579-1.236h24.682a1.957,1.957,0,0,1,1.5.7l12.1,14.521A.753.753,0,0,1,883.277,1701.726Z" transform="translate(-844.813 -1685.265)" fill="#dceceb"/>
          <path id="Trazado_151740" data-name="Trazado 151740" d="M901.759,1749.033h-3.64a1.956,1.956,0,0,1-1.5-.7l-4.474-5.341a.753.753,0,0,1,.577-1.237h3.64a1.956,1.956,0,0,1,1.5.7l4.474,5.34A.753.753,0,0,1,901.759,1749.033Z" transform="translate(-875.275 -1721.758)" fill="#b2e5e0"/>
          <path id="Trazado_151741" data-name="Trazado 151741" d="M931.477,1749.033h-3.64a1.956,1.956,0,0,1-1.5-.7l-4.475-5.341a.753.753,0,0,1,.577-1.237h3.64a1.955,1.955,0,0,1,1.5.7l4.475,5.34A.753.753,0,0,1,931.477,1749.033Z" transform="translate(-894.473 -1721.758)" fill="#b2e5e0"/>
          <path id="Trazado_151742" data-name="Trazado 151742" d="M961.2,1749.033h-3.64a1.956,1.956,0,0,1-1.5-.7l-4.475-5.341a.753.753,0,0,1,.577-1.237h3.64a1.955,1.955,0,0,1,1.5.7l4.475,5.34A.753.753,0,0,1,961.2,1749.033Z" transform="translate(-913.671 -1721.758)" fill="#b2e5e0"/>
          <g id="Grupo_86494" data-name="Grupo 86494" transform="translate(33.347)">
            <path id="Trazado_151743" data-name="Trazado 151743" d="M972.746,1692.177H944.864a1.958,1.958,0,0,1-1.5-.7l-4.174-4.975a.753.753,0,0,1,.577-1.238H967.65a1.957,1.957,0,0,1,1.5.7l4.174,4.975A.753.753,0,0,1,972.746,1692.177Z" transform="translate(-939.013 -1685.265)" fill="#dceceb"/>
            <path id="Trazado_151744" data-name="Trazado 151744" d="M996.852,1720.9H968.97a1.956,1.956,0,0,1-1.5-.7l-4.174-4.975a.753.753,0,0,1,.577-1.238h27.882a1.958,1.958,0,0,1,1.5.7l4.174,4.975A.754.754,0,0,1,996.852,1720.9Z" transform="translate(-954.586 -1703.823)" fill="#dceceb"/>
            <path id="Trazado_151745" data-name="Trazado 151745" d="M1021.016,1749.7H993.134a1.955,1.955,0,0,1-1.5-.7l-4.174-4.975a.753.753,0,0,1,.577-1.238h27.882a1.956,1.956,0,0,1,1.5.7l4.174,4.975A.753.753,0,0,1,1021.016,1749.7Z" transform="translate(-970.195 -1722.426)" fill="#dceceb"/>
          </g>
        </g>
        <g id="Grupo_86497" data-name="Grupo 86497" transform="translate(89.36 11.524)">
          <path id="Trazado_151746" data-name="Trazado 151746" d="M1077.025,1712.7h0a.729.729,0,0,1-.558-.26l-21.331-25.342a.728.728,0,0,1,.557-1.2h0a.729.729,0,0,1,.557.259l21.331,25.343A.729.729,0,0,1,1077.025,1712.7Z" transform="translate(-1054.964 -1685.903)" fill="#b2e5e0"/>
          <g id="Grupo_86496" data-name="Grupo 86496" transform="translate(0.453 1.859)">
            <path id="Trazado_151747" data-name="Trazado 151747" d="M1062.088,1696.043h-3.038a2.268,2.268,0,0,1-1.46-.794l-1.1-1.315c-.368-.438-.31-.793.128-.793h3.038a2.266,2.266,0,0,1,1.459.793l1.1,1.315C1062.583,1695.688,1062.526,1696.043,1062.088,1696.043Z" transform="translate(-1056.244 -1692.438)" fill="#b2e5e0"/>
            <path id="Trazado_151748" data-name="Trazado 151748" d="M1062.677,1694.057h-3.038a2.265,2.265,0,0,1-1.459-.794l-1.1-1.315c-.367-.438-.31-.793.128-.793h3.039a2.266,2.266,0,0,1,1.459.793l1.1,1.315C1063.173,1693.7,1063.115,1694.057,1062.677,1694.057Z" transform="translate(-1056.625 -1691.155)" fill="#dceceb"/>
          </g>
        </g>
        <g id="Grupo_86498" data-name="Grupo 86498" transform="translate(120.696 19.966)">
          <path id="Trazado_151749" data-name="Trazado 151749" d="M1149.326,1714.637h-3.038a2.267,2.267,0,0,1-1.459-.794l-1.1-1.315c-.368-.438-.31-.794.128-.794h3.038a2.266,2.266,0,0,1,1.459.794l1.1,1.315C1149.821,1714.282,1149.764,1714.637,1149.326,1714.637Z" transform="translate(-1143.482 -1711.032)" fill="#b2e5e0"/>
          <path id="Trazado_151750" data-name="Trazado 151750" d="M1149.915,1712.651h-3.038a2.267,2.267,0,0,1-1.459-.794l-1.1-1.315c-.368-.438-.311-.793.128-.793h3.038a2.266,2.266,0,0,1,1.459.793l1.1,1.315C1150.411,1712.3,1150.354,1712.651,1149.915,1712.651Z" transform="translate(-1143.863 -1709.749)" fill="#dceceb"/>
        </g>
        <g id="Grupo_86500" data-name="Grupo 86500" transform="translate(102.193 11.524)">
          <path id="Trazado_151751" data-name="Trazado 151751" d="M1113.276,1712.7h0a.728.728,0,0,1-.558-.26l-21.331-25.342a.728.728,0,0,1,.557-1.2h0a.729.729,0,0,1,.557.259l21.331,25.343A.729.729,0,0,1,1113.276,1712.7Z" transform="translate(-1091.215 -1685.903)" fill="#b2e5e0"/>
          <g id="Grupo_86499" data-name="Grupo 86499" transform="translate(13.18 17.027)">
            <path id="Trazado_151752" data-name="Trazado 151752" d="M1134.292,1738.89h-3.038a2.267,2.267,0,0,1-1.46-.794l-1.1-1.315c-.368-.438-.31-.794.128-.794h3.038a2.267,2.267,0,0,1,1.459.794l1.1,1.315C1134.787,1738.535,1134.73,1738.89,1134.292,1738.89Z" transform="translate(-1128.448 -1735.285)" fill="#b2e5e0"/>
            <path id="Trazado_151753" data-name="Trazado 151753" d="M1134.882,1736.9h-3.039a2.265,2.265,0,0,1-1.459-.794l-1.1-1.315c-.368-.438-.311-.793.127-.793h3.038a2.266,2.266,0,0,1,1.459.793l1.1,1.315C1135.377,1736.549,1135.32,1736.9,1134.882,1736.9Z" transform="translate(-1128.829 -1734.002)" fill="#dceceb"/>
          </g>
        </g>
      </g>
    </g>
    <path id="Trazado_151754" data-name="Trazado 151754" d="M1110.068,1836.581s-1.759,5.451-8.031,10.239a33.326,33.326,0,0,1-12.58,5.8,112.151,112.151,0,0,1-31.109,2.745c-.863.142,7.485,13.337,12.182,21.254.585.983,1.112,1.885,1.558,2.671.055.1.107.191.159.285,3.828,6.877,1.781,8.606,1.781,8.606-3.88.485-9.214,4.85-9.214,4.85-8.083,2.1-12.933-10.508-17.459-15.842s-16.166-21.177-10.993-29.745,51.167-19.561,51.167-19.561l4.585,1.769,8.649,3.337Z" transform="translate(-238.198 -321.92)" fill="#7e6ee9"/>
    <path id="Trazado_151755" data-name="Trazado 151755" d="M1139.654,1973.1c.055.1.107.191.159.285A1.04,1.04,0,0,1,1139.654,1973.1Z" transform="translate(-305.764 -415.73)" fill="#1b5175"/>
    <path id="Trazado_151756" data-name="Trazado 151756" d="M1122.132,1844.066c-.026.062-1.235,1.775-3.181,4.436a33.327,33.327,0,0,1-12.58,5.8,112.162,112.162,0,0,1-31.109,2.745c-.863.142,7.485,13.337,12.182,21.255-2.819-3.391-7.271-3.838-10.6-10.621-4.042-8.231-13.579.31-15.322-6.479s4.976-6.3,14.837-10.669,11.477-2.587,20.42-4.368,7.542-12.751,7.542-12.751l4.708-2.08,6.554-.847s.931,1.849,2.095,4.184C1119.623,1838.586,1122.216,1843.863,1122.132,1844.066Z" transform="translate(-255.112 -323.602)" fill="#6349cf"/>
    <path id="Trazado_151757" data-name="Trazado 151757" d="M1119.086,2007.5s4.654,3.886,4.761,6.838-9.8,12.957-9.8,12.957h-12.565s-1.347-2.062,2.131-3.54,3.825-1.565,5.129-2.955,2.434-5.129,4.52-9.041A7.961,7.961,0,0,1,1119.086,2007.5Z" transform="translate(-280.939 -437.953)" fill="#0c1b3c"/>
    <path id="Trazado_151758" data-name="Trazado 151758" d="M1146.219,1539.214s-2.941-1.81-3.921-3.846-3.469-6.485-3.62-7.541,1.961.075,3.167,2.187a51.742,51.742,0,0,0-2.338-5.2c-1.508-2.941-3.921-4.751-3.318-6.183s4.977,4,5.5,4.9,1.584-.076,2.941.6,1.357-.075,2.714.754,2.525,2.515,3.94,9.929Z" transform="translate(-303.465 -121.986)" fill="#e9928b"/>
    <path id="Trazado_151759" data-name="Trazado 151759" d="M1038.2,1712.837a13.834,13.834,0,0,1-4.286-3.14,19.365,19.365,0,0,0-5.183-3.937,8.472,8.472,0,0,0-3.837-.748c-1.495.1-2.293-.6-1.943-1.1s1.744-.847,1.744-.847-2.741.249-2.043-1,4.635-.747,4.635-.747a2.6,2.6,0,0,1,1.794-.947c1.046,0,.947-.847,3.04-.6s3.19,1.495,5.382,1.993,4,5.058,4,5.058Z" transform="translate(-230.106 -239.135)" fill="#e9928b"/>
    <path id="Trazado_151760" data-name="Trazado 151760" d="M1067,1718.361s-3.52,3.112-4.6,6.4l-.377.97,2.048,2.856,4.742-9.053Z" transform="translate(-255.615 -251.168)" fill="#e18b1f"/>
    <path id="Trazado_151761" data-name="Trazado 151761" d="M1160.532,1571.158l-1.7-2.667s3.314-3.88,7.6-5.012l1.054,1.859Z" transform="translate(-318.155 -151.114)" fill="#e18b1f"/>
    <path id="Trazado_151762" data-name="Trazado 151762" d="M1208.659,1607.643l-12.891,6.838-1.914,1.015s-.682-.343-1.8-.928c-3.653-1.917-11.95-6.434-16.153-10.065-1.953-1.684-5.192-5.729-8.561-10.243-6.1-8.173-12.616-17.885-12.616-17.885,4.688-7.275,10.107-9.7,10.107-9.7s14.6,20.531,16.861,22.471c1.322,1.134,10.317,7.265,17.559,12.16C1204.4,1604.789,1208.659,1607.643,1208.659,1607.643Z" transform="translate(-315.5 -153.179)" fill="#ffc945"/>
    <path id="Trazado_151763" data-name="Trazado 151763" d="M1231.681,1657.982l-12.891,6.838c-1.145.026-2.406.055-3.715.087-3.653-1.917-11.95-6.434-16.153-10.065-1.953-1.684-5.193-5.729-8.561-10.243,2.677,1.394,5.319,2.619,6.854,3.945,3.343,2.894,2.373-.647,17.245,1.4a49.653,49.653,0,0,1,7.812,1.7C1227.42,1655.127,1231.681,1657.982,1231.681,1657.982Z" transform="translate(-338.522 -203.518)" fill="#ffab40"/>
    <path id="Trazado_151764" data-name="Trazado 151764" d="M1235,1633.016s-11.155,6.844-11.18,2.535a11.733,11.733,0,0,0-.611-3.708,9.668,9.668,0,0,0-1.681-3.136.04.04,0,0,0-.006.01c-3.984,4.245-5.759,2.9-6.244,2.092s-3.773-7.6-3.288-9.861.378-3.611-.323-5.011.323-4.795.323-4.795l9.486-1.995s8.781,8.946,9.537,11.962S1235,1633.016,1235,1633.016Z" transform="translate(-352.124 -180.615)" fill="#e9928b"/>
    <path id="Trazado_151765" data-name="Trazado 151765" d="M1149.916,1703.926c-2.91,8.729-18.736,37.883-27.023,38.713-3.379.339-7.733-1.865-11.707-4.6a82.968,82.968,0,0,1-10.737-9.043c7.274-5.157,6.3-21.419,6.3-21.419a.009.009,0,0,1,0,.006c-.158.13-10.4,8.633-17.262,9.435-6.922.808-29.292-14.711-29.292-14.711s5.011-12.609,7.436-12.124,18.429,10.831,21.171,10.992,18.274-13.74,22.141-17.62,19.088-9.861,29.757-10.023c0,0,6.952,1.132,9.377,6.3S1152.825,1695.2,1149.916,1703.926Z" transform="translate(-254.434 -222.21)" fill="#ffc945"/>
    <path id="Trazado_151766" data-name="Trazado 151766" d="M1210.358,1584.892c-5.067.608-9.878,4.362-8.323,8.123a6.535,6.535,0,0,0,6.531,4.237c1.943.025,2.589,1.178,3.269,2.231s.981.4,1.833-1.3,2.808-.486,2.858,1.813-.351,7.865,3.761,7.965,4.914-1.6,5.064-1.6,3.51-6.869,3.259-12.886c0,0,4.262-2.206,3.46-5.716s-5.415-4.212-8.173-1.379a8,8,0,0,1-4.463-1.329c-2.156-1.454-5.064-2.156-6.418-1.3S1211.612,1584.741,1210.358,1584.892Z" transform="translate(-345.871 -163.963)" fill="#0c1b3c"/>
    <g id="Grupo_86504" data-name="Grupo 86504" transform="translate(835.052 1484.205)">
      <rect id="Rectángulo_7787" data-name="Rectángulo 7787" width="4.329" height="49.193" transform="translate(28.721 52.321)" fill="#f0d1aa"/>
      <path id="Trazado_151767" data-name="Trazado 151767" d="M1232.352,1963.165h-2.165v-49.193l2.165-.134Z" transform="translate(-1199.301 -1861.652)" fill="#edbf84"/>
      <path id="Trazado_151768" data-name="Trazado 151768" d="M1216.05,2056.819h-34.275a3.641,3.641,0,0,1,3.639-3.637h27A3.638,3.638,0,0,1,1216.05,2056.819Z" transform="translate(-1168.027 -1951.667)" fill="#edbf84"/>
      <path id="Trazado_151769" data-name="Trazado 151769" d="M1205.112,2056.819h-23.337a3.641,3.641,0,0,1,3.639-3.637h13.5Z" transform="translate(-1168.027 -1951.667)" fill="#f0d1aa"/>
      <g id="Grupo_86503" data-name="Grupo 86503" transform="translate(0 0)">
        <path id="Trazado_151770" data-name="Trazado 151770" d="M1216.356,1767.127c-.307.143-.608.3-.9.455-.1.052-.191.1-.284.16s-.188.107-.281.165-.184.11-.276.169-.169.1-.25.16c-.1.062-.193.126-.289.193s-.176.121-.265.183-.177.126-.262.191c-.291.214-.577.441-.856.677-.1.086-.2.172-.3.26q-.529.465-1.027.977l-.01.01c-.135.138-.269.281-.4.424l-.059.067q-.2.215-.386.437c-.141.162-.277.324-.412.491a.181.181,0,0,1-.026.031c-.126.155-.25.315-.372.474s-.257.336-.381.51l-.021.029c-.124.169-.243.341-.362.515s-.248.363-.367.546c0,0,0,0-.005.005-.1.162-.21.326-.312.494-.029.045-.057.09-.086.138s-.052.081-.076.124c-.19.31-.374.627-.555.949-.219.391-.434.789-.639,1.192-.1.2-.208.408-.307.612s-.2.412-.3.62q-.294.625-.57,1.266-.139.318-.271.643t-.265.651c-.076.188-.15.377-.224.565q-.143.376-.286.758c-.083.222-.164.443-.243.668l-.029.079c-.072.2-.143.4-.21.6q-.24.69-.469,1.392c-.069.217-.141.434-.208.653l-.214.686c-.136.434-.265.868-.393,1.3-.007.026-.014.052-.022.076q-.1.347-.2.693s0,.008,0,.012c-.064.227-.131.455-.193.682-.083.293-.164.589-.246.882l-.135.5c-.026.093-.05.186-.077.279-.162.6-.319,1.2-.474,1.79s-.3,1.156-.448,1.728c-.062.243-.126.486-.188.73q-.293,1.144-.579,2.255c-.06.217-.114.434-.172.651-.1.393-.207.782-.31,1.166-.064.238-.129.477-.193.713-.234.846-.467,1.668-.71,2.462l-.164.539-.122.379c-.033.107-.067.214-.1.319-.112.348-.227.689-.346,1.023-.124.36-.252.713-.384,1.054-.007.019-.014.036-.019.052-.06.155-.119.305-.181.455-.052.131-.1.262-.16.391l-.043.1c-.062.148-.126.3-.191.441a.3.3,0,0,1-.016.036c-.069.157-.141.312-.213.462s-.143.3-.217.446q-.078.164-.165.322c-.024.05-.05.1-.076.145-.069.129-.138.253-.21.377-.033.059-.067.117-.1.174-.043.074-.088.148-.133.222-6.078,9.892-23.359,9.534-23.359,9.534h-25.385c-5.959,0-6.078-6.078.715-6.555s20.022-8.343,25.981-25.624c2.889-8.376,6.252-13.363,8.953-16.28a12.141,12.141,0,0,1,8.922-3.861H1216.2A.372.372,0,0,1,1216.356,1767.127Z" transform="translate(-1142.938 -1766.417)" fill="#f4c8af"/>
        <path id="Trazado_151771" data-name="Trazado 151771" d="M1224.976,1769.709c-.1.052-.191.1-.284.16s-.188.107-.281.165-.184.11-.276.169-.167.1-.25.16-.193.126-.288.193-.179.121-.264.183-.177.126-.262.191c-.291.215-.577.441-.855.677-.1.086-.2.172-.3.26-.353.31-.7.637-1.027.977l-.01.01c-.136.138-.27.281-.4.425l-.059.066q-.2.215-.386.437c-.141.162-.276.326-.412.491a.171.171,0,0,1-.026.031c-.124.157-.25.315-.372.474s-.257.338-.381.51l-.022.029c-.122.169-.243.341-.362.515s-.246.363-.367.546c0,0,0,0-.005.005-.1.162-.207.326-.312.494-.029.045-.057.09-.086.138s-.05.081-.074.124h0c-.191.31-.374.627-.555.949-.219.391-.434.789-.639,1.192-.1.2-.207.4-.308.612s-.2.41-.3.62q-.294.626-.57,1.266c-.09.212-.183.427-.271.644s-.179.434-.265.651c-.076.188-.15.377-.224.565q-.143.375-.286.758c-.081.222-.164.443-.243.668l-.029.079c-.071.2-.141.4-.21.6q-.239.69-.469,1.392c-.069.217-.138.434-.208.653l-.214.686c-.133.434-.264.87-.393,1.3-.007.026-.014.052-.021.076l-.2.693c0,.005,0,.007-.005.012-.064.226-.128.453-.193.682-.084.293-.165.589-.246.882-.045.169-.09.336-.136.5-.026.093-.05.186-.077.279-.16.6-.319,1.2-.474,1.79s-.3,1.156-.448,1.728c-.062.243-.124.489-.188.73q-.293,1.144-.579,2.255-.086.329-.171.651c-.1.393-.207.782-.31,1.166-.064.238-.129.477-.193.713-.234.846-.467,1.668-.71,2.462-.055.181-.109.36-.164.538l-.122.379c-.033.107-.066.215-.1.319-.112.348-.227.689-.346,1.023-.124.36-.253.713-.384,1.053-.007.019-.014.036-.019.052-.06.155-.119.305-.181.455-.052.131-.1.262-.16.391-.015.034-.029.069-.043.1-.062.148-.126.3-.19.441a.319.319,0,0,1-.017.036c-.069.157-.141.312-.212.462s-.143.3-.217.446q-.079.165-.165.322c-.024.05-.05.1-.076.145-.069.129-.138.252-.21.377s-.155.267-.234.4c-6.078,9.892-23.359,9.534-23.359,9.534h-23.779c-1.7-1.325-.87-3.346,3.637-3.664,6.793-.476,21.471-10.068,27.43-27.349,2.889-8.376,6.252-13.362,8.953-16.28a12.141,12.141,0,0,1,8.922-3.861Z" transform="translate(-1152.459 -1768.544)" fill="#f7dfd3"/>
        <path id="Trazado_151772" data-name="Trazado 151772" d="M1247.243,1790.69c-.19.31-.374.627-.556.949-.219.391-.434.789-.638,1.192-.1.2-.208.4-.308.612s-.2.41-.3.62q-.294.625-.57,1.266c-.09.212-.184.427-.271.644s-.179.434-.265.651c-.076.188-.15.377-.224.565q-.143.375-.286.758c-.081.222-.165.444-.243.668l-.029.079c-.072.2-.14.4-.21.6q-.24.69-.469,1.392c-.069.217-.138.434-.208.653l-.214.686c-.134.434-.265.87-.393,1.3-.007.026-.014.052-.022.076l-.2.693c0,.005,0,.008,0,.012-.064.226-.129.453-.193.682-.083.293-.165.589-.246.882-.045.169-.09.336-.135.5-.026.093-.05.186-.076.279-.16.6-.319,1.2-.474,1.79s-.3,1.156-.448,1.728c-.062.243-.124.489-.188.729q-.293,1.144-.579,2.255-.086.329-.172.651c-.1.393-.207.782-.31,1.166-.064.238-.129.477-.193.713-.234.846-.467,1.668-.71,2.463l-.164.538c-.041.126-.081.253-.122.379-.033.107-.067.215-.1.319q-.168.522-.346,1.023c-.124.36-.252.713-.384,1.053-.007.019-.014.036-.019.052-.06.155-.119.305-.181.455-.052.131-.1.262-.16.391-.014.034-.029.069-.043.1-.062.148-.126.3-.19.441a.331.331,0,0,1-.017.036c-.069.157-.141.312-.212.462s-.143.3-.217.446q-.078.165-.165.322c-.024.05-.05.1-.076.145-.069.129-.138.252-.21.377-.033.06-.067.117-.1.174-.043.074-.088.148-.134.222-6.078,9.892-23.359,9.534-23.359,9.534h-8.354c.877-.052,17.11-.832,22.9-25.094C1230.36,1792.942,1240.979,1791.968,1247.243,1790.69Z" transform="translate(-1182.096 -1782.098)" fill="#f4c8af"/>
      </g>
    </g>
    <path id="Trazado_151773" data-name="Trazado 151773" d="M794.045,1866.121v-16.614a9.376,9.376,0,0,0-9.376-9.376H772.814v79.014H812.8v-34.271a9.376,9.376,0,0,0-9.376-9.376h0A9.376,9.376,0,0,1,794.045,1866.121Z" transform="translate(-68.786 -329.832)" fill="#dceceb"/>
    <g id="Grupo_86505" data-name="Grupo 86505" transform="translate(684.105 1544.08)">
      <path id="Trazado_151774" data-name="Trazado 151774" d="M755.158,1960.723c-3.617-6.9-7.981-11.826-15.073-17.4s-16.383-5.6-20.176-7.393-3.891,3.178-2.713,7.851-2.4,26.189,19.151,33.03S757.829,1965.819,755.158,1960.723Z" transform="translate(-716.532 -1935.555)" fill="#e2b0fe"/>
      <path id="Trazado_151775" data-name="Trazado 151775" d="M786.28,1991.156a.323.323,0,0,1-.32-.28c-1.032-7.617,2.744-15.143,2.782-15.218a.323.323,0,0,1,.576.293c-.037.073-3.722,7.426-2.718,14.837a.323.323,0,0,1-.277.364A.338.338,0,0,1,786.28,1991.156Z" transform="translate(-761.267 -1961.348)" fill="#d07efc"/>
      <path id="Trazado_151776" data-name="Trazado 151776" d="M754.129,2016.562a.322.322,0,0,1-.15-.037c-6.422-3.374-17.584-2.165-17.7-2.152a.324.324,0,1,1-.073-.643c.466-.052,11.472-1.242,18.068,2.223a.323.323,0,0,1-.151.609Z" transform="translate(-729.059 -1985.902)" fill="#d07efc"/>
      <path id="Trazado_151777" data-name="Trazado 151777" d="M749.98,1978.38a.323.323,0,0,1-.314-.247c-4.629-19.114-22.968-32.619-23.153-32.753a.323.323,0,0,1,.38-.523c.187.136,18.717,13.783,23.4,33.124a.323.323,0,0,1-.238.39A.315.315,0,0,1,749.98,1978.38Z" transform="translate(-722.894 -1941.524)" fill="#d07efc"/>
      <path id="Trazado_151778" data-name="Trazado 151778" d="M741.272,1983a.321.321,0,0,1-.2-.071c-4.189-3.351-14.308-2.477-14.409-2.468a.319.319,0,0,1-.351-.292.323.323,0,0,1,.293-.352c.426-.038,10.479-.906,14.872,2.607a.323.323,0,0,1-.2.576Z" transform="translate(-722.847 -1964.07)" fill="#d07efc"/>
      <path id="Trazado_151779" data-name="Trazado 151779" d="M757.082,1960.39a.324.324,0,0,1-.3-.2c-1.313-3.121-.621-8.4-.591-8.622a.323.323,0,0,1,.641.087c-.007.053-.7,5.327.546,8.285a.323.323,0,0,1-.173.423A.32.32,0,0,1,757.082,1960.39Z" transform="translate(-742.018 -1945.72)" fill="#d07efc"/>
    </g>
    <g id="Grupo_86507" data-name="Grupo 86507" transform="translate(666.335 1565.024)">
      <path id="Trazado_151780" data-name="Trazado 151780" d="M666.378,2018.911c-.615-6.458,5.232-16.177,24-9.854,0,0,4.742-14.819,17.784-14.325s17.191,12.689,17.191,12.689,17.52-2.118,20.023,12.7C745.379,2020.122,667.267,2028.241,666.378,2018.911Z" transform="translate(-666.335 -1994.72)" fill="#adccc7"/>
      <g id="Grupo_86506" data-name="Grupo 86506" transform="translate(29.987 6.672)">
        <path id="Trazado_151781" data-name="Trazado 151781" d="M766.373,2032.2l-.639-.1a23.756,23.756,0,0,0-4.88-18.1l.486-.427A24.464,24.464,0,0,1,766.373,2032.2Z" transform="translate(-757.381 -2013.568)" fill="#6eab9c"/>
        <path id="Trazado_151782" data-name="Trazado 151782" d="M776.148,2026.031l-.5-.416c.06-.071,6.007-7.184,7.022-11.646l.631.143C782.256,2018.726,776.4,2025.735,776.148,2026.031Z" transform="translate(-766.941 -2013.827)" fill="#6eab9c"/>
        <path id="Trazado_151783" data-name="Trazado 151783" d="M759.976,2048.254c-4.644-.252-8.76-5.043-8.933-5.246l.493-.419c.04.048,4.111,4.782,8.475,5.02Z" transform="translate(-751.043 -2032.316)" fill="#6eab9c"/>
      </g>
      <path id="Trazado_151784" data-name="Trazado 151784" d="M816.9,2053.1l-.422-.489c.336-.291,8.274-7.109,12.4-7.224l.018.647C825,2046.138,816.979,2053.026,816.9,2053.1Z" transform="translate(-763.326 -2027.448)" fill="#6eab9c"/>
      <path id="Trazado_151785" data-name="Trazado 151785" d="M840.524,2059.133a71.57,71.57,0,0,1-11.51-1.71l.162-.625a70.922,70.922,0,0,0,11.386,1.69Z" transform="translate(-771.426 -2034.822)" fill="#6eab9c"/>
      <path id="Trazado_151786" data-name="Trazado 151786" d="M704.468,2053.479c-4.18-3.476-13-6.252-13.085-6.28l.193-.617c.367.114,9.029,2.843,13.307,6.4Z" transform="translate(-682.516 -2028.223)" fill="#6eab9c"/>
      <path id="Trazado_151787" data-name="Trazado 151787" d="M717.2,2042.07" transform="translate(-699.193 -2025.308)" fill="none" stroke="#6eab9c" stroke-miterlimit="10" stroke-width="2"/>
      <path id="Trazado_151788" data-name="Trazado 151788" d="M715.335,2046.327l-.647-.019a13.478,13.478,0,0,0-1.448-6.324l.563-.318A13.891,13.891,0,0,1,715.335,2046.327Z" transform="translate(-696.636 -2023.755)" fill="#6eab9c"/>
    </g>
    <g id="Grupo_86515" data-name="Grupo 86515" transform="translate(757.9 1329.556)">
      <path id="Trazado_151789" data-name="Trazado 151789" d="M1041.062,1400.517l-113.806,1.94-2.263-1.94v-37.4h116.07l2.263,1.94Z" transform="translate(-924.992 -1351.239)" fill="#7ff9ff"/>
      <path id="Trazado_151790" data-name="Trazado 151790" d="M1041.062,1337.962l-113.806,1.94-2.263-1.94v-8.406h116.07l2.263,1.94Z" transform="translate(-924.992 -1329.556)" fill="#7ff9ff"/>
      <rect id="Rectángulo_7788" data-name="Rectángulo 7788" width="116.069" height="37.397" transform="translate(2.263 13.822)" fill="#dbfdff"/>
      <rect id="Rectángulo_7789" data-name="Rectángulo 7789" width="116.069" height="8.406" transform="translate(2.263 1.94)" fill="#dbfdff"/>
      <g id="Grupo_86511" data-name="Grupo 86511" transform="translate(8.11 4.57)">
        <g id="Grupo_86508" data-name="Grupo 86508" transform="translate(14.799 0)">
          <circle id="Elipse_8312" data-name="Elipse 8312" cx="1.572" cy="1.572" r="1.572" fill="#18b6fe"/>
        </g>
        <g id="Grupo_86509" data-name="Grupo 86509" transform="translate(7.4)">
          <path id="Trazado_151791" data-name="Trazado 151791" d="M971.949,1344.039a1.572,1.572,0,1,1-1.572-1.572A1.573,1.573,0,0,1,971.949,1344.039Z" transform="translate(-968.804 -1342.467)" fill="#d07efc"/>
        </g>
        <g id="Grupo_86510" data-name="Grupo 86510" transform="translate(0 0)">
          <circle id="Elipse_8313" data-name="Elipse 8313" cx="1.572" cy="1.572" r="1.572" fill="#ffc945"/>
        </g>
      </g>
      <g id="Grupo_86514" data-name="Grupo 86514" transform="translate(80.057 15.643)">
        <g id="Grupo_86512" data-name="Grupo 86512">
          <path id="Trazado_151792" data-name="Trazado 151792" d="M1166.085,1373.745a14.944,14.944,0,1,0,14.943,14.944A14.942,14.942,0,0,0,1166.085,1373.745Zm0,24.562a9.619,9.619,0,1,1,9.619-9.619A9.619,9.619,0,0,1,1166.085,1398.307Z" transform="translate(-1151.141 -1373.745)" fill="#b2e5e0"/>
        </g>
        <g id="Grupo_86513" data-name="Grupo 86513" transform="translate(3.556 1.294)">
          <path id="Trazado_151793" data-name="Trazado 151793" d="M1186.688,1381.77a14.948,14.948,0,1,0,4.384,10.572A14.879,14.879,0,0,0,1186.688,1381.77Zm-5.739,18.894a9.62,9.62,0,1,1,4.8-8.322A9.561,9.561,0,0,1,1180.949,1400.665Z" transform="translate(-1161.185 -1377.399)" fill="#18b6fe"/>
        </g>
        <path id="Trazado_151794" data-name="Trazado 151794" d="M1227.139,1400.319a14.941,14.941,0,0,1-7.452,12.936l-2.671-4.614a9.62,9.62,0,0,0,1.976-15.131l3.763-3.763A14.883,14.883,0,0,1,1227.139,1400.319Z" transform="translate(-1193.696 -1384.082)" fill="#fff"/>
        <path id="Trazado_151795" data-name="Trazado 151795" d="M1184.1,1435.817a14.954,14.954,0,0,1-22.173-10.142l5.231-1a9.617,9.617,0,0,0,14.271,6.531Z" transform="translate(-1158.108 -1406.644)" fill="#ffc945"/>
      </g>
      <rect id="Rectángulo_7790" data-name="Rectángulo 7790" width="52.027" height="2.429" transform="translate(8.433 21.146)" fill="#fff"/>
      <rect id="Rectángulo_7791" data-name="Rectángulo 7791" width="52.027" height="2.429" transform="translate(8.433 31.168)" fill="#fff"/>
      <rect id="Rectángulo_7792" data-name="Rectángulo 7792" width="52.027" height="2.429" transform="translate(8.433 41.191)" fill="#fff"/>
    </g>
    <path id="Trazado_151796" data-name="Trazado 151796" d="M1134.329,2037.84h-6.143s4.951-2.482,6.573-7.567c1.169-3.666,3.079-7.186,5.455-6.317s.417,4.909-.843,7.186A40.6,40.6,0,0,1,1134.329,2037.84Z" transform="translate(-298.356 -448.496)" fill="#408c91"/>
    <path id="Trazado_151797" data-name="Trazado 151797" d="M806.86,1757.424h-.97v-39.267a6.062,6.062,0,0,1,6.055-6.055h4v.97h-4a5.091,5.091,0,0,0-5.085,5.085Z" transform="translate(-90.153 -247.125)" fill="#3fb8a9"/>
    <path id="Trazado_151798" data-name="Trazado 151798" d="M817.927,1764.474h-.97v-39.268a2.825,2.825,0,0,1,2.822-2.822h7.04v.97h-7.04a1.854,1.854,0,0,0-1.852,1.852Z" transform="translate(-97.302 -253.767)" fill="#3fb8a9"/>
    <path id="Trazado_151799" data-name="Trazado 151799" d="M1184.4,1788.587a3.947,3.947,0,0,1,.243,1.171,82.955,82.955,0,0,1-10.737-9.043c7.274-5.157,6.3-21.419,6.3-21.419s8.209-7.168,9.341-5.435-2.91,11.675,0,15.758S1182,1781.975,1184.4,1788.587Z" transform="translate(-327.89 -273.926)" fill="#ffab40"/>
    <path id="Trazado_151800" data-name="Trazado 151800" d="M1241.645,1660.068a9.667,9.667,0,0,0-1.681-3.136,8.628,8.628,0,0,0,1.684-4.093S1243.611,1657.368,1241.645,1660.068Z" transform="translate(-370.565 -208.84)" fill="#de6667"/>
    <g id="Grupo_86517" data-name="Grupo 86517" transform="translate(772.635 1382.397)">
      <circle id="Elipse_8314" data-name="Elipse 8314" cx="8.192" cy="8.192" r="8.192" transform="translate(0 10.73) rotate(-40.913)" fill="#fff"/>
      <g id="Grupo_86516" data-name="Grupo 86516" transform="translate(27.803 3.568)">
        <rect id="Rectángulo_7793" data-name="Rectángulo 7793" width="36.379" height="2.35" fill="#fff"/>
        <rect id="Rectángulo_7794" data-name="Rectángulo 7794" width="36.379" height="2.35" transform="translate(0 6.949)" fill="#fff"/>
        <rect id="Rectángulo_7795" data-name="Rectángulo 7795" width="20.131" height="2.35" transform="translate(0 13.83)" fill="#fff"/>
      </g>
    </g>
    <g id="Grupo_86519" data-name="Grupo 86519" transform="translate(680.969 1487.192)">
      <rect id="Rectángulo_7796" data-name="Rectángulo 7796" width="20.002" height="13.592" transform="translate(0 0)" fill="#d07efc"/>
      <g id="Grupo_86518" data-name="Grupo 86518" transform="translate(2.447 3.828)">
        <path id="Trazado_151801" data-name="Trazado 151801" d="M719.258,1791.546a3.952,3.952,0,0,1-1.713.317,2.887,2.887,0,0,1-2.168-.811,2.964,2.964,0,0,1-.789-2.16,3.165,3.165,0,0,1,.888-2.331,3.1,3.1,0,0,1,2.3-.894,4.31,4.31,0,0,1,1.479.222v1.3a2.624,2.624,0,0,0-1.37-.359,1.818,1.818,0,0,0-1.362.531,1.968,1.968,0,0,0-.518,1.437,1.933,1.933,0,0,0,.489,1.385,1.728,1.728,0,0,0,1.316.516,2.807,2.807,0,0,0,1.446-.385Z" transform="translate(-714.587 -1785.668)" fill="#fff"/>
        <path id="Trazado_151802" data-name="Trazado 151802" d="M730.511,1791.53v-1.337a2.569,2.569,0,0,0,.789.458,2.541,2.541,0,0,0,.861.152,1.9,1.9,0,0,0,.445-.046,1.033,1.033,0,0,0,.317-.128.553.553,0,0,0,.19-.192.478.478,0,0,0,.063-.24.521.521,0,0,0-.1-.313,1.077,1.077,0,0,0-.274-.255,2.907,2.907,0,0,0-.412-.226q-.238-.109-.514-.222a2.621,2.621,0,0,1-1.047-.714,1.559,1.559,0,0,1-.344-1.019,1.624,1.624,0,0,1,.188-.8,1.6,1.6,0,0,1,.512-.554,2.3,2.3,0,0,1,.75-.32,3.87,3.87,0,0,1,.9-.1,5.433,5.433,0,0,1,.829.056,3.267,3.267,0,0,1,.666.174v1.249a2.021,2.021,0,0,0-.328-.184,2.591,2.591,0,0,0-.365-.131,2.8,2.8,0,0,0-.374-.077,2.611,2.611,0,0,0-.353-.025,1.833,1.833,0,0,0-.418.044,1.061,1.061,0,0,0-.317.123.614.614,0,0,0-.2.19.449.449,0,0,0-.071.248.474.474,0,0,0,.079.269.914.914,0,0,0,.226.226,2.407,2.407,0,0,0,.355.209q.209.1.472.211a5.318,5.318,0,0,1,.646.32,2.312,2.312,0,0,1,.491.382,1.49,1.49,0,0,1,.313.487,1.943,1.943,0,0,1-.081,1.479,1.538,1.538,0,0,1-.516.552,2.235,2.235,0,0,1-.758.3,4.383,4.383,0,0,1-.913.092,5.058,5.058,0,0,1-.938-.084A2.825,2.825,0,0,1,730.511,1791.53Z" transform="translate(-724.858 -1785.668)" fill="#fff"/>
        <path id="Trazado_151803" data-name="Trazado 151803" d="M744.663,1791.53v-1.337a2.57,2.57,0,0,0,.789.458,2.542,2.542,0,0,0,.861.152,1.9,1.9,0,0,0,.445-.046,1.031,1.031,0,0,0,.318-.128.552.552,0,0,0,.19-.192.478.478,0,0,0,.063-.24.521.521,0,0,0-.1-.313,1.078,1.078,0,0,0-.274-.255,2.911,2.911,0,0,0-.412-.226q-.238-.109-.514-.222a2.622,2.622,0,0,1-1.046-.714,1.559,1.559,0,0,1-.344-1.019,1.625,1.625,0,0,1,.188-.8,1.6,1.6,0,0,1,.512-.554,2.3,2.3,0,0,1,.75-.32,3.871,3.871,0,0,1,.9-.1,5.425,5.425,0,0,1,.829.056,3.262,3.262,0,0,1,.667.174v1.249a2.018,2.018,0,0,0-.328-.184,2.6,2.6,0,0,0-.365-.131,2.8,2.8,0,0,0-.374-.077,2.611,2.611,0,0,0-.353-.025,1.83,1.83,0,0,0-.418.044,1.063,1.063,0,0,0-.318.123.613.613,0,0,0-.2.19.449.449,0,0,0-.071.248.475.475,0,0,0,.079.269.916.916,0,0,0,.226.226,2.407,2.407,0,0,0,.355.209q.209.1.472.211a5.324,5.324,0,0,1,.646.32,2.31,2.31,0,0,1,.491.382,1.491,1.491,0,0,1,.313.487,1.945,1.945,0,0,1-.081,1.479,1.54,1.54,0,0,1-.516.552,2.234,2.234,0,0,1-.758.3,4.383,4.383,0,0,1-.913.092,5.056,5.056,0,0,1-.938-.084A2.824,2.824,0,0,1,744.663,1791.53Z" transform="translate(-734 -1785.668)" fill="#fff"/>
      </g>
    </g>
    <g id="Grupo_86523" data-name="Grupo 86523" transform="translate(717.416 1516.77)">
      <g id="Grupo_86520" data-name="Grupo 86520" transform="translate(0 14.485)">
        <path id="Trazado_151804" data-name="Trazado 151804" d="M813.71,1900.868a1.539,1.539,0,1,1-1.539-1.539A1.539,1.539,0,0,1,813.71,1900.868Z" transform="translate(-810.632 -1899.329)" fill="#b6d5d0"/>
      </g>
      <g id="Grupo_86521" data-name="Grupo 86521" transform="translate(0 7.243)">
        <circle id="Elipse_8315" data-name="Elipse 8315" cx="1.539" cy="1.539" r="1.539" fill="#b6d5d0"/>
      </g>
      <g id="Grupo_86522" data-name="Grupo 86522" transform="translate(0)">
        <circle id="Elipse_8316" data-name="Elipse 8316" cx="1.539" cy="1.539" r="1.539" fill="#b6d5d0"/>
      </g>
    </g>
    <path id="Trazado_151805" data-name="Trazado 151805" d="M1244.721,1673.647a3.592,3.592,0,0,1,1.416-2.163c1.195-.826,8.842-4.185,10.918-.529Z" transform="translate(-373.638 -219.464)" fill="#e18b1f"/>
  </g>
</svg>
