<svg xmlns="http://www.w3.org/2000/svg" width="38.14" height="38.14" viewBox="0 0 38.14 38.14">
  <path id="headset-light" d="M14.3,16.686A2.384,2.384,0,0,0,11.919,14.3H9.535A4.767,4.767,0,0,0,4.767,19.07V23.81a4.767,4.767,0,0,0,4.767,4.767h2.384A2.384,2.384,0,0,0,14.3,26.194Zm-2.384,9.508H9.535A2.387,2.387,0,0,1,7.151,23.81V19.07a2.387,2.387,0,0,1,2.384-2.384h2.384ZM28.6,28.578a4.767,4.767,0,0,0,4.767-4.767V19.07A4.767,4.767,0,0,0,28.6,14.3H26.221a2.384,2.384,0,0,0-2.384,2.384v9.508a2.384,2.384,0,0,0,2.384,2.384ZM26.221,16.686H28.6a2.387,2.387,0,0,1,2.384,2.384V23.81A2.387,2.387,0,0,1,28.6,26.194H26.221ZM19.07,0C8.49,0,.292,8.777.007,19.07L0,20.858a.6.6,0,0,0,.6.6H1.788a.6.6,0,0,0,.6-.6L2.39,19.07c.249-9,7.415-16.686,16.679-16.686A16.7,16.7,0,0,1,35.756,19.07V32.18a3.579,3.579,0,0,1-3.576,3.576H26a3.538,3.538,0,0,0,.219-1.192,3.576,3.576,0,0,0-3.576-3.576H17.878a3.576,3.576,0,0,0,0,7.151h14.3A5.966,5.966,0,0,0,38.14,32.18V19.07A19.092,19.092,0,0,0,19.07,0Zm3.576,35.756H17.878a1.192,1.192,0,0,1,0-2.384h4.767a1.192,1.192,0,0,1,0,2.384Z" fill="#d07efc"/>
</svg>
