<svg xmlns="http://www.w3.org/2000/svg" width="54.946" height="38.462" viewBox="0 0 54.946 38.462">
  <path id="users-light" d="M46.7,48.484a6.868,6.868,0,1,0-6.868-6.868A6.866,6.866,0,0,0,46.7,48.484Zm0-10.989a4.121,4.121,0,1,1-4.121,4.121A4.122,4.122,0,0,1,46.7,37.495ZM27.473,51.231a9.615,9.615,0,1,0-9.615-9.615A9.611,9.611,0,0,0,27.473,51.231Zm0-16.484A6.868,6.868,0,1,1,20.6,41.615,6.877,6.877,0,0,1,27.473,34.747ZM48.421,51.231H44.987a6.211,6.211,0,0,0-3.529,1.107,11.636,11.636,0,0,1,2.181,1.923,3.416,3.416,0,0,1,1.348-.283h3.434A3.967,3.967,0,0,1,52.2,58.1a1.374,1.374,0,1,0,2.747,0A6.712,6.712,0,0,0,48.421,51.231ZM8.242,48.484a6.868,6.868,0,1,0-6.868-6.868A6.866,6.866,0,0,0,8.242,48.484Zm0-10.989a4.121,4.121,0,1,1-4.121,4.121A4.122,4.122,0,0,1,8.242,37.495ZM34.35,52.948c-2.867,0-3.58,1.03-6.877,1.03s-4.009-1.03-6.877-1.03a9.462,9.462,0,0,0-7.924,4.026,9.838,9.838,0,0,0-1.683,5.52v3.846a4.122,4.122,0,0,0,4.121,4.121H39.836a4.122,4.122,0,0,0,4.121-4.121V62.495a9.838,9.838,0,0,0-1.683-5.52,9.462,9.462,0,0,0-7.924-4.026Zm6.86,13.393a1.378,1.378,0,0,1-1.374,1.374H15.11a1.378,1.378,0,0,1-1.374-1.374V62.495a7.133,7.133,0,0,1,1.211-3.984A6.719,6.719,0,0,1,20.587,55.7c2.352,0,3.194,1.03,6.885,1.03s4.533-1.03,6.877-1.03a6.719,6.719,0,0,1,5.641,2.816A7.133,7.133,0,0,1,41.2,62.495v3.846Zm-27.722-14a6.252,6.252,0,0,0-3.529-1.107H6.525A6.712,6.712,0,0,0,0,58.1a1.374,1.374,0,1,0,2.747,0,3.967,3.967,0,0,1,3.778-4.121H9.959a3.416,3.416,0,0,1,1.348.283,11.912,11.912,0,0,1,2.181-1.923Z" transform="translate(0 -32)" fill="#d07efc"/>
</svg>
