<svg xmlns="http://www.w3.org/2000/svg" width="286.367" height="138.667" viewBox="0 0 286.367 138.667">
  <g id="Grupo_86926" data-name="Grupo 86926" transform="translate(-2577.076 -1306.111)">
    <g id="Grupo_86917" data-name="Grupo 86917" transform="translate(2757.021 1331.576)">
      <rect id="Rectángulo_7983" data-name="Rectángulo 7983" width="98.839" height="50.845" transform="translate(0 11.742)" fill="#edf6f5"/>
      <rect id="Rectángulo_7984" data-name="Rectángulo 7984" width="98.839" height="8.436" transform="translate(0)" fill="#edf6f5"/>
      <g id="Grupo_86916" data-name="Grupo 86916" transform="translate(5.792 2.54)">
        <g id="Grupo_86913" data-name="Grupo 86913" transform="translate(13.781)">
          <circle id="Elipse_8373" data-name="Elipse 8373" cx="1.679" cy="1.679" r="1.679" fill="#c6e0dd"/>
        </g>
        <g id="Grupo_86914" data-name="Grupo 86914" transform="translate(6.891)">
          <circle id="Elipse_8374" data-name="Elipse 8374" cx="1.679" cy="1.679" r="1.679" fill="#c6e0dd"/>
        </g>
        <g id="Grupo_86915" data-name="Grupo 86915">
          <circle id="Elipse_8375" data-name="Elipse 8375" cx="1.679" cy="1.679" r="1.679" fill="#c6e0dd"/>
        </g>
      </g>
    </g>
    <rect id="Rectángulo_7985" data-name="Rectángulo 7985" width="142.03" height="73.063" transform="translate(2577.076 1338.663)" fill="#edf6f5"/>
    <rect id="Rectángulo_7986" data-name="Rectángulo 7986" width="142.03" height="12.122" transform="translate(2577.076 1321.79)" fill="#edf6f5"/>
    <rect id="Rectángulo_7987" data-name="Rectángulo 7987" width="168.568" height="89.936" rx="2" transform="translate(2620.518 1349.622)" fill="#b6d5d0"/>
    <circle id="Elipse_8376" data-name="Elipse 8376" cx="6.553" cy="6.553" r="6.553" transform="translate(2779.332 1349.764)" fill="#b6d5d0"/>
    <rect id="Rectángulo_7988" data-name="Rectángulo 7988" width="168.568" height="89.936" rx="4" transform="translate(2623.927 1353.079)" fill="#dceceb"/>
    <rect id="Rectángulo_7989" data-name="Rectángulo 7989" width="118.263" height="17.537" rx="1" transform="translate(2627.44 1399.758)" fill="#b2e5e0"/>
    <rect id="Rectángulo_7990" data-name="Rectángulo 7990" width="118.263" height="17.537" rx="3" transform="translate(2631.863 1403.69)" fill="#7ff9ff"/>
    <g id="Grupo_86921" data-name="Grupo 86921" transform="translate(2581.976 1325.528)">
      <g id="Grupo_86918" data-name="Grupo 86918" transform="translate(19.069 0)">
        <path id="Trazado_152692" data-name="Trazado 152692" d="M2642.22,1357.444a2.323,2.323,0,1,1-2.323-2.322A2.323,2.323,0,0,1,2642.22,1357.444Z" transform="translate(-2637.575 -1355.122)" fill="#67b4d2"/>
      </g>
      <g id="Grupo_86919" data-name="Grupo 86919" transform="translate(9.534 0)">
        <path id="Trazado_152693" data-name="Trazado 152693" d="M2618.154,1357.444a2.322,2.322,0,1,1-2.322-2.322A2.322,2.322,0,0,1,2618.154,1357.444Z" transform="translate(-2613.509 -1355.122)" fill="#eb908b"/>
      </g>
      <g id="Grupo_86920" data-name="Grupo 86920" transform="translate(0 0)">
        <path id="Trazado_152694" data-name="Trazado 152694" d="M2594.088,1357.444a2.322,2.322,0,1,1-2.322-2.322A2.322,2.322,0,0,1,2594.088,1357.444Z" transform="translate(-2589.443 -1355.122)" fill="#ffaa3f"/>
      </g>
    </g>
    <rect id="Rectángulo_7991" data-name="Rectángulo 7991" width="118.263" height="17.537" rx="1" transform="translate(2606.845 1366.882)" fill="#b2e5e0"/>
    <rect id="Rectángulo_7992" data-name="Rectángulo 7992" width="118.263" height="17.537" rx="1" transform="translate(2611.268 1370.814)" fill="#7ff9ff"/>
    <rect id="Rectángulo_7993" data-name="Rectángulo 7993" width="22.934" height="3.104" transform="translate(2619.692 1378.03)" fill="#fff"/>
    <rect id="Rectángulo_7994" data-name="Rectángulo 7994" width="9.297" height="3.104" transform="translate(2648.09 1378.03)" fill="#fff"/>
    <rect id="Rectángulo_7995" data-name="Rectángulo 7995" width="22.934" height="3.104" transform="translate(2662.939 1378.03)" fill="#fff"/>
    <rect id="Rectángulo_7996" data-name="Rectángulo 7996" width="9.297" height="3.104" transform="translate(2691.338 1378.03)" fill="#fff"/>
    <rect id="Rectángulo_7997" data-name="Rectángulo 7997" width="12.965" height="3.104" transform="translate(2705.59 1378.03)" fill="#fff"/>
    <rect id="Rectángulo_7998" data-name="Rectángulo 7998" width="18.658" height="3.104" transform="translate(2641.906 1410.906)" fill="#fff"/>
    <rect id="Rectángulo_7999" data-name="Rectángulo 7999" width="12.894" height="3.104" transform="translate(2666.707 1410.906)" fill="#fff"/>
    <rect id="Rectángulo_8000" data-name="Rectángulo 8000" width="18.043" height="3.104" transform="translate(2685.154 1410.906)" fill="#fff"/>
    <rect id="Rectángulo_8001" data-name="Rectángulo 8001" width="13.386" height="3.104" transform="translate(2709.464 1410.906)" fill="#fff"/>
    <rect id="Rectángulo_8002" data-name="Rectángulo 8002" width="12.965" height="3.104" transform="translate(2727.805 1410.906)" fill="#fff"/>
    <g id="Grupo_86923" data-name="Grupo 86923" transform="translate(2700.278 1306.111)">
      <path id="Trazado_152706" data-name="Trazado 152706" d="M0,0H23.59V22.685H0Z" fill="#d07efc"/>
      <g id="Grupo_86922" data-name="Grupo 86922" transform="translate(4.972 4.336)">
        <path id="Trazado_152700" data-name="Trazado 152700" d="M2914.6,1325.536h-5.533v5.533h-2.9v-5.533H2900.6v-2.918h5.562v-5.562h2.9v5.562h5.533Z" transform="translate(-2900.599 -1317.056)" fill="#fff"/>
      </g>
    </g>
    <path id="Trazado_152701" data-name="Trazado 152701" d="M2745.822,1615.35s-.667-7.454,8.267-9.911,10.244-4.091,13.438-11.342,18.184-7.251,16.382-.453-10.648,3.354-10.975,10.36-3.195,7.169-12.041,7.824S2746.313,1612.892,2745.822,1615.35Z" transform="translate(-101.885 -170.572)" fill="#fff" opacity="0.39"/>
    <circle id="Elipse_8377" data-name="Elipse 8377" cx="10.548" cy="10.548" r="10.548" transform="translate(2586.388 1346.974)" fill="#fff"/>
    <g id="Grupo_86925" data-name="Grupo 86925" transform="translate(2808.732 1354.48)">
      <path id="Trazado_152705" data-name="Trazado 152705" d="M3216.509,1428.2H3161.8v18.842h9.75l-5.086,11.981,18.182-11.981h31.865Z" transform="translate(-3161.798 -1428.199)" fill="#856de9"/>
      <rect id="Rectángulo_8004" data-name="Rectángulo 8004" width="42.536" height="2.081" transform="translate(5.683 5.504)" fill="#fff"/>
      <rect id="Rectángulo_8005" data-name="Rectángulo 8005" width="42.536" height="2.081" transform="translate(5.683 11.283)" fill="#fff"/>
    </g>
  </g>
</svg>
