<svg xmlns="http://www.w3.org/2000/svg" width="261.972" height="173.616" viewBox="0 0 261.972 173.616">
  <g id="Grupo_86295" data-name="Grupo 86295" transform="translate(-2244.11 -1306.111)">
    <path id="Trazado_151282" data-name="Trazado 151282" d="M2495.16,1961.832s-3.909-9.955-14.652-11.971c-9.994-1.875-14.783-.251-24.929,3.409-6.312,2.277,3.928-.761,9.189,6.639,4.654,6.547,11.127,16.006,23.772,12.816S2495.16,1961.832,2495.16,1961.832Z" transform="translate(-180.714 -497.251)" fill="#d07efc" opacity="0.41"/>
    <g id="Grupo_86268" data-name="Grupo 86268" transform="translate(2449.023 1407.659)" opacity="0.16">
      <g id="Grupo_86267" data-name="Grupo 86267" transform="translate(0 0)">
        <path id="Trazado_151283" data-name="Trazado 151283" d="M3268.9,1776.545l-1.09-.606a2.141,2.141,0,0,1-1.1-1.9c0-.089,0-.178,0-.266s0-.178,0-.267a2.142,2.142,0,0,1,1.1-1.9l1.09-.606a2.152,2.152,0,0,0,1.033-2.434c0-.01-.006-.022-.01-.032a2.149,2.149,0,0,0-2.11-1.591l-1.249.02a2.16,2.16,0,0,1-1.919-1.12c-.079-.137-.158-.275-.237-.41a2.164,2.164,0,0,1-.014-2.229l.64-1.064a2.15,2.15,0,0,0-.323-2.624l-.026-.026a2.15,2.15,0,0,0-2.625-.323l-1.063.64a2.165,2.165,0,0,1-2.229-.014l-.41-.236a2.161,2.161,0,0,1-1.12-1.92l.02-1.249a2.149,2.149,0,0,0-1.591-2.11l-.032-.01a2.153,2.153,0,0,0-2.435,1.034l-.605,1.09a2.142,2.142,0,0,1-1.9,1.1c-.089,0-.178,0-.266,0s-.178,0-.267,0a2.143,2.143,0,0,1-1.9-1.1l-.605-1.09a2.153,2.153,0,0,0-2.434-1.034l-.032.01a2.149,2.149,0,0,0-1.591,2.11l.021,1.249a2.163,2.163,0,0,1-1.12,1.92l-.41.236a2.165,2.165,0,0,1-2.229.014l-1.064-.64a2.149,2.149,0,0,0-2.624.323l-.027.026a2.149,2.149,0,0,0-.323,2.624l.64,1.064a2.165,2.165,0,0,1-.014,2.229c-.079.135-.158.272-.237.41a2.16,2.16,0,0,1-1.92,1.12l-1.249-.02a2.149,2.149,0,0,0-2.109,1.591c0,.01-.006.022-.01.032a2.152,2.152,0,0,0,1.033,2.434l1.09.606a2.142,2.142,0,0,1,1.1,1.9c0,.089,0,.178,0,.267s0,.178,0,.266a2.142,2.142,0,0,1-1.1,1.9l-1.09.606a2.153,2.153,0,0,0-1.033,2.434c0,.01.006.022.01.033a2.148,2.148,0,0,0,2.109,1.591l1.249-.02a2.161,2.161,0,0,1,1.92,1.121c.079.137.158.274.237.41a2.165,2.165,0,0,1,.014,2.229l-.64,1.064a2.149,2.149,0,0,0,.323,2.624l.027.026a2.149,2.149,0,0,0,2.624.323l1.064-.64a2.165,2.165,0,0,1,2.229.014l.41.236a2.163,2.163,0,0,1,1.12,1.92l-.021,1.249a2.149,2.149,0,0,0,1.591,2.109l.032.01a2.152,2.152,0,0,0,2.434-1.033l.605-1.09a2.143,2.143,0,0,1,1.9-1.1c.089,0,.178,0,.267,0s.177,0,.266,0a2.142,2.142,0,0,1,1.9,1.1l.605,1.09a2.153,2.153,0,0,0,2.435,1.033l.032-.01a2.149,2.149,0,0,0,1.591-2.109l-.02-1.249a2.161,2.161,0,0,1,1.12-1.92l.41-.236a2.165,2.165,0,0,1,2.229-.014l1.063.64a2.15,2.15,0,0,0,2.625-.323l.026-.026a2.15,2.15,0,0,0,.323-2.624l-.64-1.064a2.164,2.164,0,0,1,.014-2.229c.079-.135.157-.272.237-.41a2.161,2.161,0,0,1,1.919-1.121l1.249.02a2.148,2.148,0,0,0,2.11-1.591c0-.01.006-.022.01-.033A2.152,2.152,0,0,0,3268.9,1776.545Zm-18.474,9.336a12.112,12.112,0,1,1,12.111-12.112A12.111,12.111,0,0,1,3250.427,1785.881Z" transform="translate(-3230.846 -1754.189)" fill="#18b6fe"/>
      </g>
      <circle id="Elipse_8272" data-name="Elipse 8272" cx="5.456" cy="5.456" r="5.456" transform="translate(11.865 19.58) rotate(-45)" fill="#18b6fe"/>
    </g>
    <g id="Grupo_86273" data-name="Grupo 86273" transform="translate(2403.794 1320.678)">
      <rect id="Rectángulo_7326" data-name="Rectángulo 7326" width="56.539" height="29.085" transform="translate(0 6.717)" fill="#edf6f5"/>
      <rect id="Rectángulo_7327" data-name="Rectángulo 7327" width="56.539" height="4.826" transform="translate(0 0)" fill="#edf6f5"/>
      <g id="Grupo_86272" data-name="Grupo 86272" transform="translate(3.313 1.453)">
        <g id="Grupo_86269" data-name="Grupo 86269" transform="translate(7.883)">
          <circle id="Elipse_8273" data-name="Elipse 8273" cx="0.96" cy="0.96" r="0.96" fill="#c6e0dd"/>
        </g>
        <g id="Grupo_86270" data-name="Grupo 86270" transform="translate(3.942)">
          <circle id="Elipse_8274" data-name="Elipse 8274" cx="0.96" cy="0.96" r="0.96" fill="#c6e0dd"/>
        </g>
        <g id="Grupo_86271" data-name="Grupo 86271">
          <circle id="Elipse_8275" data-name="Elipse 8275" cx="0.96" cy="0.96" r="0.96" fill="#c6e0dd"/>
        </g>
      </g>
    </g>
    <g id="Grupo_86274" data-name="Grupo 86274" transform="translate(2351.54 1466.8)">
      <path id="Trazado_151284" data-name="Trazado 151284" d="M2822.318,2034.256l.014-1.083a11.558,11.558,0,0,1,4.369-9.01l.335.473a11.178,11.178,0,0,0-4.08,7.659c1.185-1.27,4.26-3.617,10.011-2.261l-.133.564c-7.24-1.707-9.937,2.682-9.964,2.726Z" transform="translate(-2817.42 -2022.12)" fill="#d07efc"/>
      <path id="Trazado_151285" data-name="Trazado 151285" d="M2872.074,2049.306a1.374,1.374,0,1,1-.939-1.7A1.375,1.375,0,0,1,2872.074,2049.306Z" transform="translate(-2853.816 -2040.207)" fill="#d07efc"/>
      <circle id="Elipse_8276" data-name="Elipse 8276" cx="1.374" cy="1.374" r="1.374" transform="translate(0 4.246) rotate(-41.005)" fill="#d07efc"/>
      <path id="Trazado_151286" data-name="Trazado 151286" d="M2842.429,2016.9a1.374,1.374,0,1,1-.939-1.7A1.374,1.374,0,0,1,2842.429,2016.9Z" transform="translate(-2830.889 -2015.147)" fill="#d07efc"/>
      <path id="Trazado_151287" data-name="Trazado 151287" d="M2814.394,2043.413c.067-2.653-2.316-5.607-2.339-5.637l.449-.366c.1.127,2.542,3.149,2.469,6.019Z" transform="translate(-2809.483 -2032.364)" fill="#d07efc"/>
    </g>
    <rect id="Rectángulo_7328" data-name="Rectángulo 7328" width="35.67" height="1.592" transform="translate(2349.869 1395.858)" fill="#c6e0dd"/>
    <rect id="Rectángulo_7329" data-name="Rectángulo 7329" width="81.246" height="41.794" transform="translate(2300.859 1324.732)" fill="#d1fdff"/>
    <rect id="Rectángulo_7330" data-name="Rectángulo 7330" width="81.246" height="6.934" transform="translate(2300.859 1315.08)" fill="#d1fdff"/>
    <rect id="Rectángulo_7331" data-name="Rectángulo 7331" width="96.427" height="51.446" transform="translate(2325.71 1331.001)" fill="#7ff9ff"/>
    <circle id="Elipse_8277" data-name="Elipse 8277" cx="3.748" cy="3.748" r="3.748" transform="translate(2416.556 1331.082)" fill="#b6d5d0"/>
    <path id="Trazado_151288" data-name="Trazado 151288" d="M2696.446,1627.724c-.094,1.371-4.668,1.317-6.442,1.317a3.4,3.4,0,0,1-3.276-3.364c0-1.778-.057-3.259,1.718-3.259S2696.568,1625.951,2696.446,1627.724Z" transform="translate(-361.019 -244.622)" fill="#b6d5d0"/>
    <rect id="Rectángulo_7332" data-name="Rectángulo 7332" width="96.427" height="51.446" rx="2" transform="translate(2327.66 1332.979)" fill="#d1fdff"/>
    <rect id="Rectángulo_7333" data-name="Rectángulo 7333" width="67.651" height="10.032" rx="1" transform="translate(2329.669 1359.68)" fill="#b2e5e0"/>
    <rect id="Rectángulo_7334" data-name="Rectángulo 7334" width="67.651" height="10.032" rx="1" transform="translate(2332.199 1361.93)" fill="#30bec5"/>
    <path id="Trazado_151289" data-name="Trazado 151289" d="M2791.76,1627.479v3.373a2.109,2.109,0,0,1-2.108,2.109h-92.21a2.109,2.109,0,0,1-2.108-2.109v-3.373Z" transform="translate(-367.674 -248.536)" fill="#c6e0dd"/>
    <rect id="Rectángulo_7335" data-name="Rectángulo 7335" width="13.494" height="12.977" transform="translate(2304.232 1379.764)" fill="#d07efc"/>
    <path id="Trazado_151290" data-name="Trazado 151290" d="M2828.994,1687.641s-4.451.469-6.232.843-4.311,3.749-4.217,4.123,2.249,1.031,3.842,1.031,8.715-1.219,8.715-1.219Z" transform="translate(-462.96 -295.064)" fill="#e9928b"/>
    <g id="Grupo_86275" data-name="Grupo 86275" transform="translate(2329.746 1430.005)" opacity="0.16">
      <path id="Trazado_151291" data-name="Trazado 151291" d="M2732.517,1869.228l-.8-.445a1.574,1.574,0,0,1-.812-1.4c0-.065,0-.13,0-.2s0-.131,0-.2a1.574,1.574,0,0,1,.812-1.4l.8-.445a1.583,1.583,0,0,0,.76-1.79c0-.007,0-.016-.008-.024a1.579,1.579,0,0,0-1.551-1.169l-.918.015a1.589,1.589,0,0,1-1.411-.823c-.058-.1-.116-.2-.174-.3a1.591,1.591,0,0,1-.011-1.638l.471-.782a1.581,1.581,0,0,0-.238-1.929l-.019-.019a1.58,1.58,0,0,0-1.929-.237l-.782.47a1.59,1.59,0,0,1-1.638-.01l-.3-.173a1.589,1.589,0,0,1-.823-1.411l.015-.919a1.58,1.58,0,0,0-1.17-1.551l-.024-.007a1.582,1.582,0,0,0-1.789.76l-.445.8a1.575,1.575,0,0,1-1.4.812c-.066,0-.131,0-.2,0s-.13,0-.2,0a1.575,1.575,0,0,1-1.4-.812l-.445-.8a1.582,1.582,0,0,0-1.79-.76l-.024.007a1.579,1.579,0,0,0-1.169,1.551l.015.919a1.589,1.589,0,0,1-.823,1.411l-.3.173a1.59,1.59,0,0,1-1.638.01l-.782-.47a1.58,1.58,0,0,0-1.929.237l-.019.019a1.58,1.58,0,0,0-.237,1.929l.47.782a1.591,1.591,0,0,1-.01,1.638l-.173.3a1.589,1.589,0,0,1-1.412.823l-.918-.015a1.579,1.579,0,0,0-1.551,1.169c0,.007,0,.016-.008.024a1.583,1.583,0,0,0,.76,1.79l.8.445a1.573,1.573,0,0,1,.811,1.4c0,.065,0,.131,0,.2s0,.131,0,.2a1.574,1.574,0,0,1-.811,1.4l-.8.445a1.584,1.584,0,0,0-.76,1.79c0,.007,0,.016.008.024a1.58,1.58,0,0,0,1.551,1.169l.918-.015a1.588,1.588,0,0,1,1.412.823l.173.3a1.591,1.591,0,0,1,.01,1.638l-.47.782a1.58,1.58,0,0,0,.237,1.929l.019.019a1.58,1.58,0,0,0,1.929.237l.782-.47a1.59,1.59,0,0,1,1.638.01l.3.174a1.589,1.589,0,0,1,.823,1.411l-.015.919a1.579,1.579,0,0,0,1.169,1.551l.024.008a1.582,1.582,0,0,0,1.79-.76l.445-.8a1.574,1.574,0,0,1,1.4-.812l.2,0,.2,0a1.574,1.574,0,0,1,1.4.812l.445.8a1.582,1.582,0,0,0,1.789.76l.024-.008a1.58,1.58,0,0,0,1.17-1.551l-.015-.919a1.589,1.589,0,0,1,.823-1.411l.3-.174a1.59,1.59,0,0,1,1.638-.01l.782.47a1.579,1.579,0,0,0,1.929-.237l.019-.019a1.581,1.581,0,0,0,.238-1.929l-.471-.782a1.591,1.591,0,0,1,.011-1.638l.174-.3a1.588,1.588,0,0,1,1.411-.823l.918.015a1.58,1.58,0,0,0,1.551-1.169c0-.007,0-.016.008-.024A1.584,1.584,0,0,0,2732.517,1869.228Zm-13.582,6.864a8.9,8.9,0,1,1,8.9-8.9A8.9,8.9,0,0,1,2718.936,1876.091Z" transform="translate(-2704.542 -1852.793)" fill="#18b6fe"/>
    </g>
    <rect id="Rectángulo_7336" data-name="Rectángulo 7336" width="138.502" height="3.748" transform="translate(2317.727 1397.45)" fill="#dceceb"/>
    <rect id="Rectángulo_7337" data-name="Rectángulo 7337" width="32.142" height="3.748" transform="translate(2317.727 1397.45)" fill="#b6d5d0"/>
    <rect id="Rectángulo_7338" data-name="Rectángulo 7338" width="2.343" height="75.998" transform="translate(2317.727 1401.199)" fill="#adccc7"/>
    <rect id="Rectángulo_7339" data-name="Rectángulo 7339" width="2.343" height="75.998" transform="translate(2347.526 1401.199)" fill="#adccc7"/>
    <path id="Trazado_151292" data-name="Trazado 151292" d="M3232.457,2000.6s4.217-12.369,17.571-7.872c0,0,3.374-10.542,12.651-10.191s12.229,9.027,12.229,9.027,12.463-1.507,14.244,9.036Z" transform="translate(-783.069 -523.118)" fill="#adccc7"/>
    <path id="Trazado_151293" data-name="Trazado 151293" d="M2553.92,1992.521s1.125-10.261,12.792-9.7c0,0,1.125-8.152,7.731-10.191s14.337,1.687,16.165,9.945a13.439,13.439,0,0,1,13.213-1.786c7.59,3.016,6.185,11.731,6.185,11.731Z" transform="translate(-258.309 -515.043)" fill="#adccc7"/>
    <g id="Grupo_86279" data-name="Grupo 86279" transform="translate(2303.662 1317.219)">
      <g id="Grupo_86276" data-name="Grupo 86276" transform="translate(10.908)">
        <path id="Trazado_151294" data-name="Trazado 151294" d="M2640.232,1356.45a1.329,1.329,0,1,1-1.329-1.328A1.329,1.329,0,0,1,2640.232,1356.45Z" transform="translate(-2637.575 -1355.122)" fill="#67b4d2"/>
      </g>
      <g id="Grupo_86277" data-name="Grupo 86277" transform="translate(5.454)">
        <path id="Trazado_151295" data-name="Trazado 151295" d="M2616.166,1356.45a1.328,1.328,0,1,1-1.328-1.328A1.329,1.329,0,0,1,2616.166,1356.45Z" transform="translate(-2613.509 -1355.122)" fill="#eb908b"/>
      </g>
      <g id="Grupo_86278" data-name="Grupo 86278" transform="translate(0)">
        <path id="Trazado_151296" data-name="Trazado 151296" d="M2592.1,1356.45a1.328,1.328,0,1,1-1.328-1.328A1.329,1.329,0,0,1,2592.1,1356.45Z" transform="translate(-2589.443 -1355.122)" fill="#ffaa3f"/>
      </g>
    </g>
    <rect id="Rectángulo_7340" data-name="Rectángulo 7340" width="210.471" height="2.53" transform="translate(2295.612 1477.197)" fill="#adccc7"/>
    <path id="Trazado_151297" data-name="Trazado 151297" d="M2965.314,1987.812l-7.169,4.405-2.137-3.846-1.729-3.112,7.183-3.936,2.086,3.511Z" transform="translate(-567.935 -522.189)" fill="#e9928b"/>
    <path id="Trazado_151298" data-name="Trazado 151298" d="M2961.462,1981.323l2.086,3.511-7.54,3.537-1.729-3.112Z" transform="translate(-567.935 -522.189)" fill="#de6667"/>
    <path id="Trazado_151299" data-name="Trazado 151299" d="M2906.191,1799c-2.257,3.289-7.051,6.7-7.051,6.7l-7.169.75-21.366-.281,9.682,17.565,3.112,5.648a1.526,1.526,0,0,1-.779,2.156c-3.626,1.437-7.146,2.994-8.766,3.725a1.518,1.518,0,0,1-1.678-.287c-3.832-3.677-17.894-20.466-21.576-29-3.722-8.616,6.151-12.246,20.77-15.993s19.21-5.066,19.21-5.066,15.957,6.972,16.713,10.705A4.724,4.724,0,0,1,2906.191,1799Z" transform="translate(-487.144 -370.296)" fill="#856de9"/>
    <path id="Trazado_151300" data-name="Trazado 151300" d="M2929.666,1806.191c-2.257,3.289-7.05,6.7-7.05,6.7l-7.169.75-21.365-.281,9.682,17.565c-9.449-2.513-5.588-10.14-13.2-11.461s-9.966-2.612-10.387-5.844,9.7-1.687,16.783-5.623,18.349.728,16.867-3.753a76.278,76.278,0,0,1-2.364-10.022l13.795,4.639S2927.8,1803.005,2929.666,1806.191Z" transform="translate(-510.619 -377.491)" fill="#6349cf"/>
    <path id="Trazado_151301" data-name="Trazado 151301" d="M3043.561,1973.28l-6.2,5.777-1.546-6.924-.6-2.682,7.405-1.873.427,2.609Z" transform="translate(-630.532 -511.559)" fill="#e9928b"/>
    <path id="Trazado_151302" data-name="Trazado 151302" d="M3043.052,1970.188l-7.233,1.946-.6-2.682,7.405-1.873Z" transform="translate(-630.532 -511.559)" fill="#de6667"/>
    <path id="Trazado_151303" data-name="Trazado 151303" d="M2998.1,1899.2c-3.621.776-6.714,1.605-8.549,2.125a2.112,2.112,0,0,1-1.948-.424c-.037-.034-.076-.067-.11-.1v0a2.058,2.058,0,0,1-.464-.678l-.672-1.586-8.819-20.758,13.635.186,2.156.031.312.911.149.436,5.943,17.368A2.117,2.117,0,0,1,2998.1,1899.2Z" transform="translate(-585.922 -442.103)" fill="#856de9"/>
    <path id="Trazado_151304" data-name="Trazado 151304" d="M3021.261,1978.615v0c-.022-.073-.042-.144-.059-.217l.169.323C3021.335,1978.686,3021.3,1978.652,3021.261,1978.615Z" transform="translate(-619.691 -519.925)" fill="#1b5175"/>
    <path id="Trazado_151305" data-name="Trazado 151305" d="M2987.552,1894.772a10.789,10.789,0,0,0-.118,5.8l-1.077-2.047-8.819-20.758,13.635.186c.987.377,1.861.708,2.468.942.551.211.886.337.886.337s-.273.031-.737.1c-1.94.276-7.236,1.169-9.96,3.019C2980.456,1884.64,2989.306,1888.682,2987.552,1894.772Z" transform="translate(-585.922 -442.103)" fill="#6349cf"/>
    <path id="Trazado_151306" data-name="Trazado 151306" d="M2964.541,2026.29a3.56,3.56,0,0,1,1.828,1.874c.468,1.312-1.182,2.626-3.384,3.585-1.563.681-4.441,2.412-4.441,2.412h-8.293l4.779-4.311Z" transform="translate(-564.819 -556.965)" fill="#8dbcd6"/>
    <path id="Trazado_151307" data-name="Trazado 151307" d="M2941.132,2009.417s-2.062-1.171-6.653,2.858c-1.276,1.12-2.873,4.821-6.687,5.553-5.856,1.125-4.686,3.161-4.686,3.161h7.577s2.677-.986,4.685-1.85c3.106-1.335,6.841-6.959,9.933-4.148C2945.3,2014.992,2943.944,2010.447,2941.132,2009.417Z" transform="translate(-543.753 -543.793)" fill="#0c1b3c"/>
    <path id="Trazado_151308" data-name="Trazado 151308" d="M3052.605,1528.425c.711-1.17.267-6.556.267-6.556s-5.457-1.237-6.4-4.31a10.747,10.747,0,0,1-.318-1.518v0a62.517,62.517,0,0,1-.4-8.018c0-.577.006-1.082.011-1.484.009-.627.02-1,.02-1l4.093-1.107,5.438,3.044,3.776,2.114,2.943,8.273s.1,6.635,2.435,10.287C3066.1,1530.677,3051.31,1530.564,3052.605,1528.425Z" transform="translate(-638.685 -153.37)" fill="#e9928b"/>
    <path id="Trazado_151309" data-name="Trazado 151309" d="M3041.76,1516.733s-2.015,7.981-2.336,6.474v0c-.315-1.524-3.522-.52-1.929-2.207,1.068-1.13,1.392-4.031,1.49-5.816.048-.88.042-1.49.042-1.49l.011.011,1.462,1.628Z" transform="translate(-631.95 -160.536)" fill="#e9928b"/>
    <path id="Trazado_151310" data-name="Trazado 151310" d="M3055.333,1507.27s-.056.076-.152.2c-.613.807-2.89,3.722-2.719,2.322.2-1.616-.987-2.28-3.666-1.748a7.454,7.454,0,0,1-1.7.121,11.339,11.339,0,0,1-1.473-.143.233.233,0,0,1-.042-.005c.048-.88.042-1.49.042-1.49l.011.011c.009-.627.02-1,.02-1l4.094-1.107Z" transform="translate(-638.542 -153.37)" fill="#de6667"/>
    <path id="Trazado_151311" data-name="Trazado 151311" d="M3072.5,1594.9s.211-2.46,4.638-3.725,7.178-.614,8.017,2.329S3072.5,1594.9,3072.5,1594.9Z" transform="translate(-659.36 -219.984)" fill="#f5911f"/>
    <path id="Trazado_151312" data-name="Trazado 151312" d="M3037.194,1493.46c.415-.24,3.444.128,4.979-1.194s2.132-5.843,1.791-7.123-3.54-.64-6.568-1.62-3.434-5.246-1.653-7.08,6.941-3.412,9.287.938c0,0,1.578-2.516,4.948-.81s2.857,5.885,2.857,5.885,2.986-.213,3.071,3.711c.078,3.612-2.606,7.615-2.277,10.078a.438.438,0,0,1-.525.5,5.265,5.265,0,0,1-1.5-.584,3.247,3.247,0,0,1-1.207-4.248,4.276,4.276,0,0,0,.2-3.958c-1.536-2.516-3.441-.27-3.057,1.863s.647,5.563-.8,7.994-6.654,4.393-8.274,2.26S3036.759,1493.713,3037.194,1493.46Z" transform="translate(-630.117 -130.294)" fill="#0c1b3c"/>
    <path id="Trazado_151313" data-name="Trazado 151313" d="M2913.643,1655.932a22.845,22.845,0,0,1-10.554-2.066c-7.053-3.239-10.593-9.134-9.806-9.443,1.116-.433,2.991-2.15,4.911-6.505,1-2.271,1.631-12.533.141-12.51-.545.008-4.591,2.407-8.642,4.3a25.359,25.359,0,0,1-6.132,2.193c-4.639.7-21.084-3.8-23.052-4.92-1.687-.964-1.386-3.59-.489-4.754v0a1.665,1.665,0,0,1,.489-.444c1.67-.936,16.587,0,18.7,0s3.655-.843,10.542-7.59,14.9-11.178,24.925-11.667c14.385-.7,17.666,7.028,19.353,13.213S2927.559,1655.37,2913.643,1655.932Z" transform="translate(-494.477 -229.197)" fill="#ffc945"/>
    <path id="Trazado_151314" data-name="Trazado 151314" d="M3023.009,1989.937c-3.136-.048-4.26,2.523-5.315,4.913s-2.332,7.964-4.16,8.526-2.811,1.546-2.811,2.671h6.595s4.138-4.549,6.267-6.325a9.843,9.843,0,0,0,2.645-2.927,41.879,41.879,0,0,0-1.614-6.223A2.31,2.31,0,0,0,3023.009,1989.937Z" transform="translate(-611.587 -528.85)" fill="#0c1b3c"/>
    <rect id="Rectángulo_7341" data-name="Rectángulo 7341" width="2.343" height="75.998" transform="translate(2424.087 1401.199)" fill="#adccc7"/>
    <rect id="Rectángulo_7342" data-name="Rectángulo 7342" width="2.343" height="75.998" transform="translate(2453.886 1401.199)" fill="#adccc7"/>
    <rect id="Rectángulo_7343" data-name="Rectángulo 7343" width="22.049" height="12.977" transform="translate(2456.637 1373.276)" fill="#18b6fe"/>
    <path id="Trazado_151315" data-name="Trazado 151315" d="M3037.438,2010.1c-2.287.474-3.129,2.929-4.534,7s-4.194,4.52-4.194,4.52h7.789a23.551,23.551,0,0,1,1.361-3.4c.686-1.4,1.866-3.01,2.165-4.476C3040.728,2010.314,3038,2009.989,3037.438,2010.1Z" transform="translate(-625.497 -544.433)" fill="#8dbcd6"/>
    <g id="Grupo_86282" data-name="Grupo 86282" transform="translate(2379.95 1436.855)">
      <g id="Grupo_86280" data-name="Grupo 86280" transform="translate(0 0)">
        <path id="Trazado_151316" data-name="Trazado 151316" d="M2926.623,1923.919a.563.563,0,0,1-.544-.707l10.543-39.779a.562.562,0,0,1,1.087.288l-10.542,39.78A.563.563,0,0,1,2926.623,1923.919Z" transform="translate(-2926.06 -1883.015)" fill="#954cbc"/>
      </g>
      <g id="Grupo_86281" data-name="Grupo 86281" transform="translate(26.895 0)">
        <path id="Trazado_151317" data-name="Trazado 151317" d="M3045.3,1923.919a.553.553,0,0,1-.144-.019.562.562,0,0,1-.4-.687l10.542-39.779a.562.562,0,0,1,1.087.288l-10.543,39.78A.562.562,0,0,1,3045.3,1923.919Z" transform="translate(-3044.734 -1883.015)" fill="#954cbc"/>
      </g>
    </g>
    <g id="Grupo_86285" data-name="Grupo 86285" transform="translate(2405.169 1436.855)">
      <g id="Grupo_86283" data-name="Grupo 86283" transform="translate(26.895 0)">
        <path id="Trazado_151318" data-name="Trazado 151318" d="M3167.119,1923.92a.562.562,0,0,1-.543-.419l-10.542-39.779a.562.562,0,0,1,1.087-.288l10.542,39.78a.562.562,0,0,1-.4.687A.568.568,0,0,1,3167.119,1923.92Z" transform="translate(-3156.014 -1883.016)" fill="#aa5bd5"/>
      </g>
      <g id="Grupo_86284" data-name="Grupo 86284" transform="translate(0 0)">
        <path id="Trazado_151319" data-name="Trazado 151319" d="M3048.445,1923.92a.563.563,0,0,1-.543-.419l-10.542-39.779a.562.562,0,0,1,1.087-.288l10.542,39.78a.564.564,0,0,1-.544.706Z" transform="translate(-3037.341 -1883.016)" fill="#aa5bd5"/>
      </g>
    </g>
    <path id="Trazado_151320" data-name="Trazado 151320" d="M2966.1,2034.257a3.813,3.813,0,0,0-1.371-1.409l.137-.245a4.03,4.03,0,0,1,1.486,1.531Z" transform="translate(-576.017 -561.847)" fill="#fff"/>
    <path id="Trazado_151321" data-name="Trazado 151321" d="M2959.567,2040.719h-.281c0-.631-.815-1.339-.823-1.346l.183-.213A2.635,2.635,0,0,1,2959.567,2040.719Z" transform="translate(-571.171 -566.918)" fill="#fff"/>
    <path id="Trazado_151322" data-name="Trazado 151322" d="M3092.148,1663.368c-.782,5.687-2.4,11.658-3.267,15.681-1.026,4.773-2.187,9.685-3.559,14.391-1.791,6.151-6.615,7.709-9.713,7.709-.053,0-.582,0-1.445-.006l-17.643-.045c-2.516,0-4.245-.009-4.245-.009l-5.06.059,4.591-2.685,2.625-4.121,4.684-16.12,5.53-19.021,6.466-9.935s7.5-3.185,12.743-3a8.638,8.638,0,0,1,7.31,4.24,13.56,13.56,0,0,1,1.411,6.095A39.588,39.588,0,0,1,3092.148,1663.368Z" transform="translate(-639.809 -263.062)" fill="#e6c0fb"/>
    <path id="Trazado_151323" data-name="Trazado 151323" d="M3004.822,1642.7s-1.968-6.536-11.386-6.536c-7.036,0-12.3,3.611-16.107,11.04-3.208,6.267-5.061,14.478-7.024,23.171-1.062,4.7-2.16,9.565-3.5,14.155-1.553,5.33-6.045,4.9-6.537,4.836l-22.732-.021a1.968,1.968,0,1,0,0,3.936l23.334.061c3.1,0,7.92-1.557,9.714-7.71,1.371-4.706,2.482-9.628,3.558-14.389,3.544-15.694,6.664-29.746,17.183-31.353C2991.89,1639.395,2998.989,1638.13,3004.822,1642.7Z" transform="translate(-553.466 -255.251)" fill="#d07efc"/>
    <path id="Trazado_151324" data-name="Trazado 151324" d="M3018.7,1723.526s.006,0,.009.006c-7.053-3.238-10.593-9.134-9.806-9.443,1.116-.433,2.992-2.15,4.912-6.505,1-2.271,1.63-12.533.141-12.51,0,0,7.872-3.936,8.012-1.968s-3.8,11.245,0,14.337S3010.183,1717.814,3018.7,1723.526Z" transform="translate(-610.094 -298.864)" fill="#ffab40"/>
    <path id="Trazado_151325" data-name="Trazado 151325" d="M3123.773,1725.683c-.782,5.687-2.271,10.765-3.137,14.788-1.026,4.773-2.187,9.685-3.559,14.391-1.791,6.151-6.615,7.708-9.713,7.708-.053,0-.582,0-1.445-.006l-17.644-.045c3.07-1.243,10.479-4.717,9.079-6.966-6.194-9.95,9.127-9.5,16.4-13.165C3120.74,1738.866,3112.024,1733.617,3123.773,1725.683Z" transform="translate(-671.563 -324.484)" fill="#d07efc" opacity="0.22"/>
    <g id="Grupo_86286" data-name="Grupo 86286" transform="translate(2471.145 1464.12)">
      <path id="Trazado_151326" data-name="Trazado 151326" d="M3343.378,2016.618l-.555-.089a16.869,16.869,0,0,0-3.46-12.836l.422-.372A17.455,17.455,0,0,1,3343.378,2016.618Z" transform="translate(-3336.892 -2003.32)" fill="#6eab9c"/>
      <path id="Trazado_151327" data-name="Trazado 151327" d="M3356.235,2012.491l-.43-.362c.042-.051,4.266-5.1,4.984-8.263l.548.125C3360.589,2007.285,3356.413,2012.279,3356.235,2012.491Z" transform="translate(-3349.608 -2003.742)" fill="#6eab9c"/>
      <path id="Trazado_151328" data-name="Trazado 151328" d="M3334.85,2039.686c-3.325-.181-6.268-3.6-6.392-3.75l.428-.364c.029.033,2.912,3.385,5.994,3.553Z" transform="translate(-3328.459 -2028.263)" fill="#6eab9c"/>
    </g>
    <path id="Trazado_151329" data-name="Trazado 151329" d="M3401.561,2044.173l-.368-.426c.239-.207,5.9-5.069,8.854-5.151l.015.562C3407.308,2039.234,3401.618,2044.123,3401.561,2044.173Z" transform="translate(-913.565 -566.482)" fill="#6eab9c"/>
    <path id="Trazado_151330" data-name="Trazado 151330" d="M3423.414,2053.048a50.882,50.882,0,0,1-8.2-1.218l.14-.544a50.375,50.375,0,0,0,8.09,1.2Z" transform="translate(-924.41 -576.296)" fill="#6eab9c"/>
    <path id="Trazado_151331" data-name="Trazado 151331" d="M3271.563,2044.933c-2.965-2.466-9.228-4.438-9.291-4.457l.167-.537c.261.081,6.433,2.025,9.483,4.562Z" transform="translate(-806.127 -567.521)" fill="#6eab9c"/>
    <path id="Trazado_151332" data-name="Trazado 151332" d="M3291.025,2035.141" transform="translate(-828.364 -563.81)" fill="none" stroke="#6eab9c" stroke-miterlimit="10" stroke-width="2"/>
    <path id="Trazado_151333" data-name="Trazado 151333" d="M3288.016,2037.123l-.562-.016a9.508,9.508,0,0,0-1.024-4.472l.49-.277A9.946,9.946,0,0,1,3288.016,2037.123Z" transform="translate(-824.81 -561.658)" fill="#6eab9c"/>
    <path id="Trazado_151334" data-name="Trazado 151334" d="M2654.531,2007.647c-.809-10.088-6.424-15.2-6.481-15.25l.374-.42c.058.052,5.839,5.3,6.667,15.626Z" transform="translate(-331.107 -530.428)" fill="#6eab9c"/>
    <path id="Trazado_151335" data-name="Trazado 151335" d="M2674.551,2012.443c-.084-4.3,3.173-9.627,3.312-9.852l.479.3c-.033.054-3.31,5.415-3.228,9.546Z" transform="translate(-351.599 -538.637)" fill="#6eab9c"/>
    <path id="Trazado_151336" data-name="Trazado 151336" d="M2636.233,2010.412a22.553,22.553,0,0,1-10.164-5.526l.4-.391a21.954,21.954,0,0,0,9.884,5.368Z" transform="translate(-314.106 -540.11)" fill="#6eab9c"/>
    <path id="Trazado_151337" data-name="Trazado 151337" d="M2721.906,2035.791l-.424-.369c.237-.272,5.87-6.675,11.723-7.264l.056.56C2727.632,2029.284,2721.963,2035.726,2721.906,2035.791Z" transform="translate(-387.896 -558.41)" fill="#6eab9c"/>
    <path id="Trazado_151338" data-name="Trazado 151338" d="M2744.129,2047.334a31.038,31.038,0,0,1-7.359-.855l.14-.544a30.931,30.931,0,0,0,8.133.821l.029.562C2745.059,2047.317,2744.712,2047.334,2744.129,2047.334Z" transform="translate(-399.72 -572.157)" fill="#6eab9c"/>
    <path id="Trazado_151339" data-name="Trazado 151339" d="M2589.6,2048.726c-2.562-1.934-8.348-3.333-8.406-3.346l.13-.547c.242.058,5.958,1.44,8.615,3.445Z" transform="translate(-279.398 -571.305)" fill="#6eab9c"/>
    <path id="Trazado_151340" data-name="Trazado 151340" d="M2608.585,2038.438c-1.566-3.423-.848-5.605-.817-5.7l.532.181c-.007.021-.668,2.079.8,5.281Z" transform="translate(-299.806 -561.955)" fill="#6eab9c"/>
    <path id="Trazado_151341" data-name="Trazado 151341" d="M2663.38,1946.711" transform="translate(-342.962 -495.421)" fill="none" stroke="#f5b89b" stroke-linecap="round" stroke-miterlimit="10" stroke-width="2"/>
    <rect id="Rectángulo_7344" data-name="Rectángulo 7344" width="67.651" height="10.032" rx="1" transform="translate(2317.888 1340.874)" fill="#b2e5e0"/>
    <rect id="Rectángulo_7345" data-name="Rectángulo 7345" width="67.651" height="10.032" rx="1" transform="translate(2320.418 1343.124)" fill="#30bec5"/>
    <rect id="Rectángulo_7346" data-name="Rectángulo 7346" width="13.119" height="1.776" transform="translate(2325.237 1347.251)" fill="#fff"/>
    <rect id="Rectángulo_7347" data-name="Rectángulo 7347" width="5.318" height="1.776" transform="translate(2341.482 1347.251)" fill="#fff"/>
    <rect id="Rectángulo_7348" data-name="Rectángulo 7348" width="13.119" height="1.776" transform="translate(2349.976 1347.251)" fill="#fff"/>
    <rect id="Rectángulo_7349" data-name="Rectángulo 7349" width="5.318" height="1.776" transform="translate(2366.221 1347.251)" fill="#fff"/>
    <rect id="Rectángulo_7350" data-name="Rectángulo 7350" width="7.416" height="1.776" transform="translate(2374.374 1347.251)" fill="#fff"/>
    <rect id="Rectángulo_7351" data-name="Rectángulo 7351" width="10.673" height="1.776" transform="translate(2337.945 1366.057)" fill="#fff"/>
    <rect id="Rectángulo_7352" data-name="Rectángulo 7352" width="7.376" height="1.776" transform="translate(2352.131 1366.057)" fill="#fff"/>
    <rect id="Rectángulo_7353" data-name="Rectángulo 7353" width="10.321" height="1.776" transform="translate(2362.683 1366.057)" fill="#fff"/>
    <rect id="Rectángulo_7354" data-name="Rectángulo 7354" width="7.657" height="1.776" transform="translate(2376.59 1366.057)" fill="#fff"/>
    <rect id="Rectángulo_7355" data-name="Rectángulo 7355" width="7.416" height="1.776" transform="translate(2387.081 1366.057)" fill="#fff"/>
    <g id="Grupo_86287" data-name="Grupo 86287" transform="translate(2306.627 1382.358)">
      <path id="Trazado_151342" data-name="Trazado 151342" d="M2606.067,1646.748a3.161,3.161,0,0,1-.648,2.141,2.357,2.357,0,0,1-1.876.743,2.674,2.674,0,0,1-1.014-.189v-1.471a1.456,1.456,0,0,0,.9.306q1.073,0,1.073-1.593v-4.136h1.563Z" transform="translate(-2602.528 -1642.549)" fill="#fff"/>
      <path id="Trazado_151343" data-name="Trazado 151343" d="M2623.868,1655.758v-1.243a3.282,3.282,0,0,0,.755.34,2.5,2.5,0,0,0,.711.112,1.521,1.521,0,0,0,.643-.112.361.361,0,0,0,.236-.34.314.314,0,0,0-.107-.243.983.983,0,0,0-.274-.17,3.061,3.061,0,0,0-.366-.131c-.133-.039-.261-.083-.384-.131a3.65,3.65,0,0,1-.521-.24,1.492,1.492,0,0,1-.379-.3,1.176,1.176,0,0,1-.233-.394,1.578,1.578,0,0,1-.08-.529,1.364,1.364,0,0,1,.182-.719,1.493,1.493,0,0,1,.486-.493,2.22,2.22,0,0,1,.694-.281,3.619,3.619,0,0,1,.813-.09,4.519,4.519,0,0,1,.67.051,5.078,5.078,0,0,1,.67.148v1.185a2.424,2.424,0,0,0-.624-.255,2.632,2.632,0,0,0-.653-.085,1.481,1.481,0,0,0-.284.026.926.926,0,0,0-.236.078.429.429,0,0,0-.16.131.3.3,0,0,0-.058.182.336.336,0,0,0,.087.233.748.748,0,0,0,.228.168,2.258,2.258,0,0,0,.313.126l.343.114a4.5,4.5,0,0,1,.553.233,1.777,1.777,0,0,1,.425.3,1.159,1.159,0,0,1,.271.4,1.592,1.592,0,0,1-.1,1.3,1.537,1.537,0,0,1-.51.51,2.32,2.32,0,0,1-.733.286,4.085,4.085,0,0,1-.862.09A4.446,4.446,0,0,1,2623.868,1655.758Z" transform="translate(-2619.031 -1648.927)" fill="#fff"/>
    </g>
    <g id="Grupo_86289" data-name="Grupo 86289" transform="translate(2371.335 1306.111)">
      <rect id="Rectángulo_7356" data-name="Rectángulo 7356" width="13.494" height="12.977" transform="translate(0)" fill="#ffc945"/>
      <g id="Grupo_86288" data-name="Grupo 86288" transform="translate(2.844 2.48)">
        <path id="Trazado_151344" data-name="Trazado 151344" d="M2908.606,1321.907h-3.165v3.165h-1.66v-3.165H2900.6v-1.669h3.182v-3.181h1.66v3.181h3.165Z" transform="translate(-2900.599 -1317.056)" fill="#fff"/>
      </g>
    </g>
    <g id="Grupo_86290" data-name="Grupo 86290" transform="translate(2336.115 1386.539)">
      <path id="Trazado_151345" data-name="Trazado 151345" d="M2739.019,1671.91h-4.995L2732.641,1661h7.76Z" transform="translate(-2732.641 -1660.999)" fill="#f2d6c8"/>
      <path id="Trazado_151346" data-name="Trazado 151346" d="M2758.051,1671.8l-.155-.595,1.7-.445a1.805,1.805,0,0,0,1.281-1.265l.328-1.192a1.8,1.8,0,0,0-1.737-2.278v-.615a2.416,2.416,0,0,1,2.33,3.056l-.327,1.192a2.423,2.423,0,0,1-1.719,1.7Z" transform="translate(-2752.172 -1664.408)" fill="#f2d6c8"/>
    </g>
    <path id="Trazado_151347" data-name="Trazado 151347" d="M2745.817,1603.9s-.381-4.264,4.729-5.669,5.86-2.34,7.687-6.488,10.4-4.148,9.371-.259-6.091,1.919-6.278,5.926-1.827,4.1-6.888,4.476S2746.1,1602.5,2745.817,1603.9Z" transform="translate(-406.711 -218.469)" fill="#fff" opacity="0.39"/>
    <g id="Grupo_86291" data-name="Grupo 86291" transform="translate(2458.702 1376.464)">
      <path id="Trazado_151348" data-name="Trazado 151348" d="M3278.858,1622.259h-1.528l-.985-1.863a1.645,1.645,0,0,1-.116-.383h-.015a2.933,2.933,0,0,1-.132.4l-.989,1.847h-1.536l1.823-2.86-1.667-2.86h1.567l.818,1.715a2.929,2.929,0,0,1,.171.483h.017q.048-.167.179-.5l.909-1.7h1.436l-1.715,2.836Z" transform="translate(-3273.557 -1616.539)" fill="#fff"/>
      <path id="Trazado_151349" data-name="Trazado 151349" d="M3307.375,1622.259H3306.1v-3.422q0-.554.048-1.225h-.032a6.017,6.017,0,0,1-.179.758l-1.341,3.889h-1.052l-1.365-3.849a7.645,7.645,0,0,1-.179-.8h-.036q.052.846.052,1.484v3.163h-1.161v-5.72h1.887l1.168,3.39a4.777,4.777,0,0,1,.2.818h.024a8.282,8.282,0,0,1,.228-.826l1.168-3.382h1.839Z" transform="translate(-3294.671 -1616.539)" fill="#fff"/>
      <path id="Trazado_151350" data-name="Trazado 151350" d="M3339.66,1622.259h-3.407v-5.72h1.289v4.675h2.118Z" transform="translate(-3322.045 -1616.539)" fill="#fff"/>
    </g>
    <circle id="Elipse_8278" data-name="Elipse 8278" cx="6.034" cy="6.034" r="6.034" transform="translate(2306.186 1329.486)" fill="#fff"/>
    <path id="Trazado_151351" data-name="Trazado 151351" d="M2889.694,1697.095a25.358,25.358,0,0,1-6.132,2.193c-4.639.7-21.084-3.8-23.052-4.92-1.687-.964-1.386-3.59-.489-4.754-.405,2.834,7.813,1.1,11.045,5.549s9.564-.1,14.2,1.442A10.783,10.783,0,0,0,2889.694,1697.095Z" transform="translate(-494.477 -296.59)" fill="#ffab40"/>
    <path id="Trazado_151352" data-name="Trazado 151352" d="M2891.387,2017.174" transform="translate(-519.296 -549.915)" fill="none" stroke="#f2baab" stroke-miterlimit="10" stroke-width="3"/>
    <path id="Trazado_151353" data-name="Trazado 151353" d="M2835.861,2061.023" transform="translate(-476.354 -583.826)" fill="none" stroke="#f2baab" stroke-miterlimit="10" stroke-width="3"/>
    <g id="Grupo_86293" data-name="Grupo 86293" transform="translate(2282.812 1402.551)" opacity="0.32">
      <g id="Grupo_86292" data-name="Grupo 86292" transform="translate(0 0)">
        <path id="Trazado_151354" data-name="Trazado 151354" d="M2408.41,1756.149l-.616-.342a1.211,1.211,0,0,1-.624-1.075c0-.05,0-.1,0-.15s0-.1,0-.151a1.209,1.209,0,0,1,.624-1.075l.616-.342a1.216,1.216,0,0,0,.584-1.375c0-.006,0-.012-.006-.018a1.213,1.213,0,0,0-1.191-.9l-.706.012a1.221,1.221,0,0,1-1.084-.633c-.044-.077-.089-.155-.134-.231a1.224,1.224,0,0,1-.008-1.259l.362-.6a1.215,1.215,0,0,0-.182-1.482l-.015-.015a1.214,1.214,0,0,0-1.482-.182l-.6.361a1.224,1.224,0,0,1-1.259-.008l-.231-.134a1.223,1.223,0,0,1-.633-1.084l.012-.706a1.214,1.214,0,0,0-.9-1.191l-.018-.006a1.215,1.215,0,0,0-1.375.584l-.343.616a1.209,1.209,0,0,1-1.075.623l-.15,0-.151,0a1.21,1.21,0,0,1-1.075-.623l-.342-.616a1.216,1.216,0,0,0-1.375-.584l-.018.006a1.214,1.214,0,0,0-.9,1.191l.011.706a1.219,1.219,0,0,1-.633,1.084l-.231.134a1.223,1.223,0,0,1-1.259.008l-.6-.361a1.214,1.214,0,0,0-1.482.182l-.015.015a1.213,1.213,0,0,0-.182,1.482l.361.6a1.222,1.222,0,0,1-.008,1.259c-.045.077-.089.154-.133.231a1.221,1.221,0,0,1-1.084.633l-.706-.012a1.214,1.214,0,0,0-1.191.9c0,.006,0,.013-.006.018a1.215,1.215,0,0,0,.583,1.375l.615.342a1.208,1.208,0,0,1,.624,1.075c0,.05,0,.1,0,.151s0,.1,0,.15a1.209,1.209,0,0,1-.624,1.075l-.615.342a1.215,1.215,0,0,0-.583,1.375.173.173,0,0,0,.006.018,1.214,1.214,0,0,0,1.191.9l.706-.011a1.221,1.221,0,0,1,1.084.633c.044.078.088.155.133.231a1.223,1.223,0,0,1,.008,1.259l-.361.6a1.214,1.214,0,0,0,.182,1.482l.015.015a1.214,1.214,0,0,0,1.482.182l.6-.361a1.223,1.223,0,0,1,1.259.008l.231.133a1.22,1.22,0,0,1,.633,1.084l-.011.706a1.213,1.213,0,0,0,.9,1.191l.018.006a1.215,1.215,0,0,0,1.375-.584l.342-.615a1.211,1.211,0,0,1,1.075-.624l.151,0,.15,0a1.209,1.209,0,0,1,1.075.624l.343.615a1.215,1.215,0,0,0,1.375.584l.018-.006a1.213,1.213,0,0,0,.9-1.191l-.012-.706a1.223,1.223,0,0,1,.633-1.084l.231-.133a1.224,1.224,0,0,1,1.259-.008l.6.361a1.214,1.214,0,0,0,1.482-.182l.015-.015a1.215,1.215,0,0,0,.182-1.482l-.362-.6a1.224,1.224,0,0,1,.008-1.259c.045-.076.089-.154.134-.231a1.22,1.22,0,0,1,1.084-.633l.706.011a1.214,1.214,0,0,0,1.191-.9c0-.006,0-.012.006-.018A1.216,1.216,0,0,0,2408.41,1756.149Zm-10.433,5.273a6.84,6.84,0,1,1,6.84-6.84A6.84,6.84,0,0,1,2397.977,1761.422Z" transform="translate(-2386.918 -1743.524)" fill="#d07efc"/>
      </g>
      <circle id="Elipse_8279" data-name="Elipse 8279" cx="3.126" cy="3.126" r="3.126" transform="translate(7.297 13.382) rotate(-76.718)" fill="#d07efc"/>
    </g>
    <g id="Grupo_86294" data-name="Grupo 86294" transform="translate(2433.375 1333.78)">
      <path id="Trazado_151355" data-name="Trazado 151355" d="M3193.1,1428.2h-31.3v10.778h5.577l-2.91,6.854,10.4-6.854H3193.1Z" transform="translate(-3161.799 -1428.199)" fill="#b2e5e0"/>
      <rect id="Rectángulo_7357" data-name="Rectángulo 7357" width="24.332" height="1.19" transform="translate(3.251 3.148)" fill="#fff"/>
      <rect id="Rectángulo_7358" data-name="Rectángulo 7358" width="24.332" height="1.19" transform="translate(3.251 6.454)" fill="#fff"/>
    </g>
    <path id="Trazado_151356" data-name="Trazado 151356" d="M2503.042,1976.753c-3.134-7.017-11.429-9.64-17.836-10.605a60.053,60.053,0,0,0-13.377-.409l-.06-.576a60.629,60.629,0,0,1,13.512.411,33.875,33.875,0,0,1,10.632,3.227,16.263,16.263,0,0,1,7.658,7.717Z" transform="translate(-194.776 -509.536)" fill="#d07efc"/>
    <path id="Trazado_151357" data-name="Trazado 151357" d="M2527.472,2000.475l-.332-.475c.08-.057,8.158-5.641,15.9-4.736l-.067.576C2535.447,1994.961,2527.551,2000.419,2527.472,2000.475Z" transform="translate(-237.598 -532.893)" fill="#d07efc"/>
    <path id="Trazado_151358" data-name="Trazado 151358" d="M2544.344,1956.788c-2.747-1.03-4.1-5.416-4.154-5.6l.555-.168c.013.043,1.324,4.3,3.8,5.227Z" transform="translate(-247.691 -498.752)" fill="#d07efc"/>
    <path id="Trazado_151359" data-name="Trazado 151359" d="M2588.253,1969.1a25.7,25.7,0,0,1-3.27-9.369l.571.1v0a26.039,26.039,0,0,0,3.174,8.947Z" transform="translate(-282.327 -505.491)" fill="#d07efc"/>
    <path id="Trazado_151360" data-name="Trazado 151360" d="M2221.154,1386.348h46.68s-2.762-5.425-9.135-2.713c0,0-3.47-6.232-10.552-2.549,0,0-2.727-6.94-10.375-5.986a9.973,9.973,0,0,0-8.71,7.331S2221.923,1382.119,2221.154,1386.348Z" transform="translate(22.956 -10.955)" fill="#d5f2ff"/>
  </g>
</svg>
