<svg xmlns="http://www.w3.org/2000/svg" xmlns:xlink="http://www.w3.org/1999/xlink" width="812.219" height="546" viewBox="0 0 812.219 546">
  <defs>
    <filter id="Elipse_8268" x="353.873" y="22" width="98" height="98" filterUnits="userSpaceOnUse">
      <feOffset dy="3" input="SourceAlpha"/>
      <feGaussianBlur stdDeviation="2" result="blur"/>
      <feFlood flood-color="#c7c7c7" flood-opacity="0.412"/>
      <feComposite operator="in" in2="blur"/>
      <feComposite in="SourceGraphic"/>
    </filter>
    <filter id="Elipse_8268-2" x="129.873" y="109" width="100" height="100" filterUnits="userSpaceOnUse">
      <feOffset dy="3" input="SourceAlpha"/>
      <feGaussianBlur stdDeviation="2" result="blur-2"/>
      <feFlood flood-color="#c7c7c7" flood-opacity="0.412"/>
      <feComposite operator="in" in2="blur-2"/>
      <feComposite in="SourceGraphic"/>
    </filter>
    <filter id="Elipse_8268-3" x="558.873" y="109" width="101" height="100" filterUnits="userSpaceOnUse">
      <feOffset dy="3" input="SourceAlpha"/>
      <feGaussianBlur stdDeviation="2" result="blur-3"/>
      <feFlood flood-color="#c7c7c7" flood-opacity="0.412"/>
      <feComposite operator="in" in2="blur-3"/>
      <feComposite in="SourceGraphic"/>
    </filter>
    <filter id="Elipse_8268-4" x="633.873" y="308.974" width="98" height="98" filterUnits="userSpaceOnUse">
      <feOffset dy="3" input="SourceAlpha"/>
      <feGaussianBlur stdDeviation="2" result="blur-4"/>
      <feFlood flood-color="#c7c7c7" flood-opacity="0.412"/>
      <feComposite operator="in" in2="blur-4"/>
      <feComposite in="SourceGraphic"/>
    </filter>
    <filter id="Trazado_151361" x="78.863" y="309.469" width="99.01" height="99.01" filterUnits="userSpaceOnUse">
      <feOffset dy="3" input="SourceAlpha"/>
      <feGaussianBlur stdDeviation="2" result="blur-5"/>
      <feFlood flood-color="#c7c7c7" flood-opacity="0.412"/>
      <feComposite operator="in" in2="blur-5"/>
      <feComposite in="SourceGraphic"/>
    </filter>
  </defs>
  <g id="Grupo_87384" data-name="Grupo 87384" transform="translate(-399.127 -2185)">
    <circle id="Elipse_8301" data-name="Elipse 8301" cx="200" cy="200" r="200" transform="translate(601 2331)" fill="#f5ffff"/>
    <g id="Grupo_86399" data-name="Grupo 86399" transform="translate(-94.796 1015.714)">
      <g id="Grupo_86371" data-name="Grupo 86371" transform="translate(701.342 1599.677)">
        <path id="Trazado_151533" data-name="Trazado 151533" d="M819.947,1975.456s-6.154-25.168-29.73-35.417-40.058-7.265-43.271-9.379-.344,9.664.868,14.249,3.942,20.4,16.971,33.4,43.382,6.784,43.382,6.784Z" transform="translate(-745.473 -1930.408)" fill="#f0ebf7"/>
        <path id="Trazado_151534" data-name="Trazado 151534" d="M810.463,1969.686a.342.342,0,0,0,.157-.582,131.535,131.535,0,0,0-25.384-17.988,157.546,157.546,0,0,0-19.154-8.224c-5.288-1.968-9.108-3.39-10.541-4.965a.342.342,0,0,0-.506.461c1.544,1.7,5.431,3.144,10.809,5.146a157.049,157.049,0,0,1,19.075,8.188,130.853,130.853,0,0,1,25.233,17.881A.343.343,0,0,0,810.463,1969.686Z" transform="translate(-750.72 -1934.51)" fill="#cbc0e0"/>
        <path id="Trazado_151535" data-name="Trazado 151535" d="M792.932,1986.67a90.13,90.13,0,0,0,15.5-5.183.342.342,0,0,0-.289-.621c-.152.071-15.4,7.072-28.83,6.726a.342.342,0,1,0-.017.684A55.1,55.1,0,0,0,792.932,1986.67Z" transform="translate(-764.022 -1958.337)" fill="#cbc0e0"/>
        <path id="Trazado_151536" data-name="Trazado 151536" d="M774.056,1961.524a76.633,76.633,0,0,0,8.953-2.751.342.342,0,0,0-.245-.639c-.1.037-9.784,3.729-15.346,3.586a.342.342,0,1,0-.018.684A28.018,28.018,0,0,0,774.056,1961.524Z" transform="translate(-757.433 -1945.753)" fill="#cbc0e0"/>
        <path id="Trazado_151537" data-name="Trazado 151537" d="M823.4,2011.448c7.537-1.757,19.686-7.55,20.3-7.844a.342.342,0,1,0-.3-.617c-.18.086-18.051,8.609-23.871,8.269a.342.342,0,0,0-.04.683A14.635,14.635,0,0,0,823.4,2011.448Z" transform="translate(-786.295 -1970.589)" fill="#cbc0e0"/>
        <path id="Trazado_151538" data-name="Trazado 151538" d="M858.56,1975.947a.342.342,0,0,0,.264-.328c0-.086.087-8.671-3.629-15.556a.342.342,0,0,0-.6.325c3.629,6.725,3.548,15.136,3.547,15.221a.342.342,0,0,0,.42.338Z" transform="translate(-805.889 -1946.734)" fill="#cbc0e0"/>
        <path id="Trazado_151539" data-name="Trazado 151539" d="M821.459,1956.563h.006a.343.343,0,0,0,.249-.415c-.076-.305-1.9-7.525-4.81-11.788a.342.342,0,1,0-.566.385c2.838,4.162,4.693,11.495,4.711,11.568A.343.343,0,0,0,821.459,1956.563Z" transform="translate(-784.691 -1938.053)" fill="#cbc0e0"/>
      </g>
      <path id="Trazado_151540" data-name="Trazado 151540" d="M1445.4,2012.451s-8.934-25.85-35.161-17.9c0,0-.084-21.477-22.888-24.733-25.316-3.614-32.971,19.956-32.971,19.956s-32.386-3.792-32.386,22.678Z" transform="translate(-363.449 -352.35)" fill="#d6ece0"/>
      <path id="Trazado_151541" data-name="Trazado 151541" d="M991.725,1590.918l-9.74-1.636s-5.651-6.394-21.265,15.689S938.414,1648.84,946.667,1653s31.675,1.264,31.675,1.264Z" transform="translate(-153.597 -141.314)" fill="#ffc945"/>
      <path id="Trazado_151542" data-name="Trazado 151542" d="M987.925,1634.6c-5.354,5.986-10.707,6.895-18.737,19.824s11.605,8.022,11.605,8.022,12.039-9.217,12.039-11.077S987.925,1634.6,987.925,1634.6Z" transform="translate(-166.973 -166.89)" fill="#ffab40"/>
      <path id="Trazado_151543" data-name="Trazado 151543" d="M783.686,2007.245s-.061-36.834,40.272-18.917c0,0,8.864-31.709,32.091-30.21s25.475,31.5,25.475,31.5,31.811-16.17,48.874,16.625Z" transform="translate(-65.296 -346.05)" fill="#d6ece0"/>
      <g id="Grupo_86372" data-name="Grupo 86372" transform="translate(739.882 1626.614)">
        <path id="Trazado_151544" data-name="Trazado 151544" d="M946.925,2024.542l.81-.113a47.854,47.854,0,0,1,7.768-33.145l-.65-.5A48.757,48.757,0,0,0,946.925,2024.542Z" transform="translate(-895.341 -1990.787)" fill="#93deb4"/>
        <path id="Trazado_151545" data-name="Trazado 151545" d="M932.611,2012.943l.66-.482c-.1-.131-9.539-13.119-11.154-21.294l-.8.159C922.967,1999.678,932.218,2012.405,932.611,2012.943Z" transform="translate(-881.408 -1990.997)" fill="#93deb4"/>
        <path id="Trazado_151546" data-name="Trazado 151546" d="M947.4,2042.718c7.324-.459,13.814-9.143,14.086-9.513l-.658-.485c-.064.087-6.537,8.747-13.48,9.182Z" transform="translate(-895.827 -2014.012)" fill="#93deb4"/>
        <path id="Trazado_151547" data-name="Trazado 151547" d="M859.516,2052.859l-1.1-.788c-.127-.091-12.872-9.125-26.518-9.761l-.038.817c11.01.513,21.45,6.61,24.892,8.817l-13.6-.474-.028.817Z" transform="translate(-831.862 -2019.324)" fill="#93deb4"/>
        <path id="Trazado_151548" data-name="Trazado 151548" d="M863,2039.127l.774-.265a50.264,50.264,0,0,0-6.7-12.128l-.648.5A49.313,49.313,0,0,1,863,2039.127Z" transform="translate(-845.463 -2010.698)" fill="#93deb4"/>
        <path id="Trazado_151549" data-name="Trazado 151549" d="M1014.024,2049.413c.1-.083,10.016-8.411,21.081-12.293l-.27-.771c-11.211,3.932-21.239,12.356-21.339,12.441Z" transform="translate(-932.465 -2016.023)" fill="#93deb4"/>
        <path id="Trazado_151550" data-name="Trazado 151550" d="M1048.21,2055.255l.373-.727c-.29-.149-7.239-3.631-20.05-1.848l.113.809C1041.175,2051.747,1048.141,2055.219,1048.21,2055.255Z" transform="translate(-940.793 -2024.787)" fill="#93deb4"/>
      </g>
      <g id="Grupo_86373" data-name="Grupo 86373" transform="translate(984.741 1638.968)">
        <path id="Trazado_151551" data-name="Trazado 151551" d="M1420.256,2041.183l.35-.569a39.1,39.1,0,0,1-16.84-22.135l-.651.15A39.833,39.833,0,0,0,1420.256,2041.183Z" transform="translate(-1393.124 -2018.479)" fill="#93deb4"/>
        <path id="Trazado_151552" data-name="Trazado 151552" d="M1400.214,2050.282l.04-.667c-.132-.008-13.227-.816-19.218-4.05l-.317.588C1386.84,2049.458,1399.671,2050.25,1400.214,2050.282Z" transform="translate(-1380.719 -2033.481)" fill="#93deb4"/>
        <path id="Trazado_151553" data-name="Trazado 151553" d="M1433.723,2046.337c3.521-4.853,1.425-13.459,1.334-13.823l-.648.162c.021.086,2.11,8.669-1.227,13.269Z" transform="translate(-1409.777 -2026.253)" fill="#93deb4"/>
      </g>
      <rect id="Rectángulo_7427" data-name="Rectángulo 7427" width="87.589" height="56.148" rx="4.596" transform="translate(907.65 1446.173)" fill="#24292f"/>
      <rect id="Rectángulo_7428" data-name="Rectángulo 7428" width="19.629" height="17.362" transform="translate(941.629 1494.329)" fill="#24292f"/>
      <rect id="Rectángulo_7429" data-name="Rectángulo 7429" width="51.687" height="83.128" transform="translate(993.008 1448.404) rotate(90)" fill="#fff"/>
      <path id="Trazado_151554" data-name="Trazado 151554" d="M1105.827,1503.959s-.161.861-.468,2.25c-1.016,4.612-3.628,15.05-7.228,19.164a10.751,10.751,0,0,1-8.626,3.643,3.856,3.856,0,0,0-3.793,2.789l-3.2,10.966-18.176-5.515,5.867-13.006,2.16-4.789,8.253-22.195h20.3Z" transform="translate(-220.744 -90.825)" fill="#f6a49d"/>
      <path id="Trazado_151555" data-name="Trazado 151555" d="M1293.583,1715.767s10.261.669,15.057,2.565,9.369,5.2,7.807,5.2H1295.59Z" transform="translate(-347.716 -211.847)" fill="#f6a49d"/>
      <g id="Grupo_86374" data-name="Grupo 86374" transform="translate(1020.408 1644.325)">
        <path id="Trazado_151556" data-name="Trazado 151556" d="M1460.669,2056.612l1.1-.788c.128-.091,12.873-9.125,26.518-9.761l.038.817c-11.01.513-21.45,6.61-24.892,8.817l13.6-.474.028.817Z" transform="translate(-1460.669 -2039.115)" fill="#93deb4"/>
        <path id="Trazado_151557" data-name="Trazado 151557" d="M1482.393,2042.881l-.773-.265a50.266,50.266,0,0,1,6.7-12.128l.648.5A49.324,49.324,0,0,0,1482.393,2042.881Z" transform="translate(-1472.273 -2030.488)" fill="#93deb4"/>
      </g>
      <path id="Trazado_151558" data-name="Trazado 151558" d="M1252.583,1983.943s5.651,8.755,5.354,14.218-2.35,9.278-1.324,14.781H1302.4s-4.348-6.887-12.23-8.969-14.24.939-24.055-25.68C1258.454,1957.513,1252.583,1983.943,1252.583,1983.943Z" transform="translate(-325.007 -352.84)" fill="#24292f"/>
      <path id="Trazado_151559" data-name="Trazado 151559" d="M1211.873,1899.115l-19.63,8.325s-.923-1.793-2.512-4.644c-4.127-7.419-12.75-22.007-21.28-30.774-11.809-12.135-23.2-43.72-23.2-43.72l22.65-1.445,5.3-.339,1.767,3.315,12.5,23.471Z" transform="translate(-265.559 -273.188)" fill="#856de9"/>
      <path id="Trazado_151560" data-name="Trazado 151560" d="M1174.974,1830.253l-7.071-2.976-22.65,1.445s11.389,31.586,23.2,43.72c8.53,8.766,17.153,23.354,21.28,30.774a34.072,34.072,0,0,1,1.026-4.305c3.569-11.6-8.628-15.168-4.76-31.51a49.946,49.946,0,0,0,1.477-13.678Z" transform="translate(-265.559 -273.609)" fill="#6349cf"/>
      <path id="Trazado_151561" data-name="Trazado 151561" d="M665.8,1589.144s6.771-11.565,21.651-8.035c9.406,2.231,13.272-11.543,21.062-14.572,14.282-5.554,22.57,22.085,38.336,14.361,10.425-5.107,22.992,8.246,22.992,8.246Z" transform="translate(0 -128.78)" fill="#b8e9ff" opacity="0.52"/>
      <path id="Trazado_151562" data-name="Trazado 151562" d="M1002.03,1362.68s3.607-1.079,8.535-8.471,13.072,2.663,19.373-9.422,10.491-15.828,21.408-5.481,17.852,14.2,26.367,7.889,13.406,3.091,20.988,9.287,14.866,2.537,17.668,6.2Z" transform="translate(-186.232)" fill="#b8e9ff" opacity="0.52"/>
      <rect id="Rectángulo_7430" data-name="Rectángulo 7430" width="245.369" height="8.922" transform="translate(767.864 1511.69)" fill="#7dd0e2"/>
      <rect id="Rectángulo_7431" data-name="Rectángulo 7431" width="245.369" height="2.277" transform="translate(767.864 1520.664)" fill="#a7adbf"/>
      <rect id="Rectángulo_7432" data-name="Rectángulo 7432" width="77.626" height="8.922" transform="translate(935.607 1511.69)" fill="#c2e7f0"/>
      <rect id="Rectángulo_7433" data-name="Rectángulo 7433" width="364.06" height="1.784" transform="translate(717.887 1660.101)" fill="#3a3e49"/>
      <path id="Trazado_151563" data-name="Trazado 151563" d="M1131.055,1996.257s-.163,10.2-3.606,17.7a52.1,52.1,0,0,0-3.532,11.748h45.8a16.071,16.071,0,0,0-10.732-7.613c-10.669-2.29-16.63-9.934-14.1-19.749S1131.055,1996.257,1131.055,1996.257Z" transform="translate(-253.742 -365.6)" fill="#24292f"/>
      <path id="Trazado_151564" data-name="Trazado 151564" d="M1098.632,1808.726l-28.851,70.787h-19.331s6.54-17.845,8.03-33.013,11.3-42.681,11.3-42.681-6.924-.344-16.591-.79c-18.032-.838-45.612-2.034-55.681-2.034-4.921,0-7.825-2.949-9.5-6.972-3.582-8.624-1.508-22.177-1.508-22.177h54.588s34.936,9.52,49.511,15.766S1098.632,1808.726,1098.632,1808.726Z" transform="translate(-177.301 -242.907)" fill="#856de9"/>
      <path id="Trazado_151565" data-name="Trazado 151565" d="M1055.8,1829.671c-18.032-.838-45.612-2.034-55.681-2.034-4.921,0-7.825-2.949-9.5-6.973,6.442,4.385,10.9,6.334,15.15,1.674,4.9-5.371,5.066-.462,15.667,2.7,5.242,1.561,14.585,1.866,25.262,1.916C1052.842,1826.981,1055.509,1828.012,1055.8,1829.671Z" transform="translate(-179.915 -269.549)" fill="#6349cf"/>
      <path id="Trazado_151566" data-name="Trazado 151566" d="M1118.922,1883.983l-.407-.183c.316-.7,31.547-70.446,29.073-78.359-1.61-5.147-21.43-10.527-40.177-13.18-13.6-1.926-15.856-12.316-15.878-12.421l.438-.088c.021.1,2.223,10.187,15.5,12.067,18.886,2.673,38.876,8.164,40.54,13.488C1150.538,1813.38,1120.214,1881.1,1118.922,1883.983Z" transform="translate(-235.805 -247.286)" fill="#fff"/>
      <path id="Trazado_151567" data-name="Trazado 151567" d="M1041.918,1775.419H986.406l.376-3.569h55.135Z" transform="translate(-177.578 -242.91)" fill="#24292f"/>
      <path id="Trazado_151568" data-name="Trazado 151568" d="M1056.583,1579.867s1.338-7.733,6.692-8.03,16.656,5.8,17.994,11.153S1056.583,1579.867,1056.583,1579.867Z" transform="translate(-216.447 -132.122)" fill="#ffab40"/>
      <path id="Trazado_151569" data-name="Trazado 151569" d="M1121.909,1642.788v9H1079.75s-5.483,1.142-16.167-11.6a.014.014,0,0,0,0-.009,114.972,114.972,0,0,1-7.624-10.31,1.645,1.645,0,0,0-2.985.593c-1.186,6.014-3.64,17.292-6.455,23.569a82.563,82.563,0,0,1-8.69,15H983.24s-2.819-4.033-3.194-13.95a67.364,67.364,0,0,1,.218-8.057c1.338-15.838,7.361-36.805,8.476-43.274.451-2.623,1.236-5.755,2-8.557a11.8,11.8,0,0,1,10.381-8.651c10.368-.852,29.926-.62,54.49,8.343a15.766,15.766,0,0,1,6.1,4.01,76.31,76.31,0,0,1,11.121,15.115c5.577,10.261,12.715,22.529,16.061,23.868S1121.909,1642.788,1121.909,1642.788Z" transform="translate(-174.034 -140.095)" fill="#ffc945"/>
      <path id="Trazado_151570" data-name="Trazado 151570" d="M1063.626,1669.121a114.99,114.99,0,0,1-7.624-10.31,1.645,1.645,0,0,0-2.985.593c-1.186,6.014-3.64,17.292-6.455,23.569a82.563,82.563,0,0,1-8.69,15H983.288s-2.819-4.033-3.194-13.95c5.215-5.916,18.644.629,28.623-5.974,10.556-6.991,21.263-4.314,23.94-19.482s7.735-24.836,12.866-17.7,11.822,3.274,12.715,10.256C1059.116,1658,1063.492,1668.787,1063.626,1669.121Z" transform="translate(-174.082 -169.038)" fill="#ffab40"/>
      <path id="Trazado_151571" data-name="Trazado 151571" d="M1116.234,1484.475a39.75,39.75,0,0,1-4.55,4.261s-6.094-1.825-9.328-.486a5.1,5.1,0,0,0-2.378,3.083v0c-1.191,3.163-1.223,7.633.147,8.624,2.008,1.45,7.584,2.677,8.03,4.573s-4.417,10.439-9.257,10.261c-9.109-.334-4.238-9.146-3.458-12.826s1.9-7.361.558-10.261-6.915-2.119-7.026,3.123,2.788,3.792,1.227,7.361c0,0-4.987,7.013-13.758,5.01a33.213,33.213,0,0,0,.709-7.91c-.522-4.726-3.271-8.482.075-15.62s10.521-8.025,13.532-6.575c0,0,4.573-11.042,12.045-10.6s4.8,6.134,4.8,6.134,8.142-4.238,12.045,1.338C1121.824,1477.092,1119.08,1481.339,1116.234,1484.475Z" transform="translate(-226.975 -73.777)" fill="#3a3e49"/>
      <rect id="Rectángulo_7434" data-name="Rectángulo 7434" width="54.614" height="35.01" transform="translate(957.894 1385.034)" fill="#f0ebf7"/>
      <rect id="Rectángulo_7435" data-name="Rectángulo 7435" width="41.739" height="19.964" transform="translate(964.331 1395.953)" fill="#cbc0e0"/>
      <rect id="Rectángulo_7436" data-name="Rectángulo 7436" width="20.87" height="3.234" transform="translate(964.331 1388.815)" fill="#cbc0e0"/>
      <rect id="Rectángulo_7437" data-name="Rectángulo 7437" width="21.042" height="2.119" transform="translate(966.668 1399.856)" fill="#fff"/>
      <rect id="Rectángulo_7438" data-name="Rectángulo 7438" width="21.042" height="2.119" transform="translate(966.668 1404.875)" fill="#fff"/>
      <rect id="Rectángulo_7439" data-name="Rectángulo 7439" width="12.12" height="2.119" transform="translate(966.668 1409.894)" fill="#fff"/>
      <rect id="Rectángulo_7440" data-name="Rectángulo 7440" width="12.12" height="2.119" transform="translate(990.159 1409.894)" fill="#fff"/>
      <circle id="Elipse_8291" data-name="Elipse 8291" cx="3.569" cy="3.569" r="3.569" transform="translate(992.65 1399.856)" fill="#fff"/>
      <g id="Grupo_86375" data-name="Grupo 86375" transform="translate(951.722 1361.644)">
        <rect id="Rectángulo_7441" data-name="Rectángulo 7441" width="0.446" height="2.677" transform="translate(0 0)"/>
        <path id="Trazado_151572" data-name="Trazado 151572" d="M1307.153,1463.792h-.446v-5.421h.446Zm0-10.842h-.446v-5.421h.446Zm0-10.842h-.446v-5.421h.446Zm0-10.843h-.446v-5.421h.446Zm0-10.842h-.446V1415h.446Z" transform="translate(-1306.707 -1406.904)"/>
        <rect id="Rectángulo_7442" data-name="Rectángulo 7442" width="0.446" height="2.677" transform="translate(0 62.308)"/>
      </g>
      <g id="Grupo_86376" data-name="Grupo 86376" transform="translate(935.736 1377.778)">
        <rect id="Rectángulo_7443" data-name="Rectángulo 7443" width="2.677" height="0.446" transform="translate(0 0)"/>
        <path id="Trazado_151573" data-name="Trazado 151573" d="M1337.816,1433.463h-5.421v-.446h5.421Zm-10.843,0h-5.421v-.446h5.421Zm-10.842,0h-5.421v-.446h5.421Zm-10.843,0h-5.421v-.446h5.421Zm-10.842,0h-5.421v-.446h5.421Z" transform="translate(-1280.928 -1433.017)"/>
        <rect id="Rectángulo_7444" data-name="Rectángulo 7444" width="2.677" height="0.446" transform="translate(62.309 0)"/>
      </g>
      <rect id="Rectángulo_7445" data-name="Rectángulo 7445" width="61.096" height="39.165" transform="translate(1009.846 1432.733)" fill="#f0ebf7"/>
      <rect id="Rectángulo_7446" data-name="Rectángulo 7446" width="46.693" height="22.334" transform="translate(1017.047 1444.948)" fill="#cbc0e0"/>
      <rect id="Rectángulo_7447" data-name="Rectángulo 7447" width="23.347" height="3.618" transform="translate(1017.047 1436.963)" fill="#cbc0e0"/>
      <rect id="Rectángulo_7448" data-name="Rectángulo 7448" width="23.54" height="2.371" transform="translate(1019.661 1449.315)" fill="#fff"/>
      <rect id="Rectángulo_7449" data-name="Rectángulo 7449" width="23.54" height="2.371" transform="translate(1019.661 1454.929)" fill="#fff"/>
      <rect id="Rectángulo_7450" data-name="Rectángulo 7450" width="13.558" height="2.371" transform="translate(1019.661 1460.544)" fill="#fff"/>
      <rect id="Rectángulo_7451" data-name="Rectángulo 7451" width="13.558" height="2.371" transform="translate(1045.941 1460.544)" fill="#fff"/>
      <circle id="Elipse_8292" data-name="Elipse 8292" cx="3.993" cy="3.993" r="3.993" transform="translate(1047.074 1453.307) rotate(-45)" fill="#fff"/>
      <g id="Grupo_86379" data-name="Grupo 86379" transform="translate(1023.15 1424.195)">
        <g id="Grupo_86377" data-name="Grupo 86377" transform="translate(54.343)">
          <rect id="Rectángulo_7452" data-name="Rectángulo 7452" width="0.446" height="2.677" transform="translate(0 70.022)"/>
          <path id="Trazado_151574" data-name="Trazado 151574" d="M1589.07,1611.657h-.446v-5.181h.446Zm0-10.36h-.446v-5.181h.446Zm0-10.361h-.446v-5.18h.446Zm0-10.361h-.446v-5.18h.446Zm0-10.361h-.446v-5.18h.446Zm0-10.361h-.446v-5.18h.446Z" transform="translate(-1588.624 -1546.815)"/>
          <rect id="Rectángulo_7453" data-name="Rectángulo 7453" width="0.446" height="2.677" transform="translate(0)"/>
        </g>
        <g id="Grupo_86378" data-name="Grupo 86378" transform="translate(0 54.177)">
          <rect id="Rectángulo_7454" data-name="Rectángulo 7454" width="2.677" height="0.446" transform="translate(70.022)"/>
          <path id="Trazado_151575" data-name="Trazado 151575" d="M1541.411,1658.944h-5.18v-.446h5.18Zm-10.361,0h-5.18v-.446h5.18Zm-10.361,0h-5.18v-.446h5.18Zm-10.361,0h-5.18v-.446h5.18Zm-10.361,0h-5.18v-.446h5.18Zm-10.361,0h-5.18v-.446h5.18Z" transform="translate(-1476.569 -1658.498)"/>
          <rect id="Rectángulo_7455" data-name="Rectángulo 7455" width="2.677" height="0.446"/>
        </g>
      </g>
      <g id="Grupo_86382" data-name="Grupo 86382" transform="translate(744.239 1526.888)">
        <path id="Trazado_151599" data-name="Trazado 151599" d="M13.75,0A13.75,13.75,0,1,1,0,13.75,13.75,13.75,0,0,1,13.75,0Z" transform="translate(0 0)" fill="#d07efc"/>
        <g id="Grupo_86381" data-name="Grupo 86381" transform="translate(4.562 9.626)">
          <g id="Grupo_86380" data-name="Grupo 86380">
            <path id="Trazado_151576" data-name="Trazado 151576" d="M857.661,1797.074a.549.549,0,0,1-.33-.11l-5.477-4.087,5.623-3.936a.552.552,0,1,1,.633.9l-4.371,3.06,4.252,3.173a.553.553,0,0,1-.331,1Z" transform="translate(-851.854 -1788.834)" fill="#3a3e49"/>
            <path id="Trazado_151577" data-name="Trazado 151577" d="M879.177,1797.074a.553.553,0,0,1-.331-1l4.252-3.173-4.371-3.06a.552.552,0,1,1,.634-.9l5.623,3.936-5.477,4.087A.55.55,0,0,1,879.177,1797.074Z" transform="translate(-866.608 -1788.834)" fill="#3a3e49"/>
            <path id="Trazado_151578" data-name="Trazado 151578" d="M868.83,1797.075a.553.553,0,0,1-.527-.717l2.234-7.143a.552.552,0,0,1,1.055.33l-2.234,7.143A.554.554,0,0,1,868.83,1797.075Z" transform="translate(-860.951 -1788.826)" fill="#3a3e49"/>
          </g>
        </g>
      </g>
      <g id="Grupo_86385" data-name="Grupo 86385" transform="translate(952.407 1531.953)">
        <circle id="Elipse_8294" data-name="Elipse 8294" cx="12.215" cy="12.215" r="12.215" transform="translate(0 17.275) rotate(-45)" fill="#cbc0e0"/>
        <g id="Grupo_86384" data-name="Grupo 86384" transform="translate(12.23 11.237)">
          <g id="Grupo_86383" data-name="Grupo 86383">
            <path id="Trazado_151579" data-name="Trazado 151579" d="M1335.655,1803.791h10.09v3.246h-.914a8.927,8.927,0,0,0-.406-1.268,2.511,2.511,0,0,0-.424-.709,1.332,1.332,0,0,0-.48-.345,2.191,2.191,0,0,0-.77-.1h-1.185v9.55a5,5,0,0,0,.061.877,1.417,1.417,0,0,0,.187.517.858.858,0,0,0,.34.3,3.159,3.159,0,0,0,.671.21v.457h-4.262v-.457a4.97,4.97,0,0,0,.494-.14,1.2,1.2,0,0,0,.35-.182.855.855,0,0,0,.224-.275,1.594,1.594,0,0,0,.14-.457,5.232,5.232,0,0,0,.051-.849v-9.55h-1.175a2.618,2.618,0,0,0-.723.084,1.163,1.163,0,0,0-.527.35,2.573,2.573,0,0,0-.443.755,8.488,8.488,0,0,0-.377,1.236h-.923Z" transform="translate(-1335.655 -1803.791)" fill="#3a3e49"/>
          </g>
        </g>
      </g>
      <circle id="Elipse_8295" data-name="Elipse 8295" cx="14.524" cy="14.524" r="14.524" transform="translate(782.83 1424.584) rotate(-76.717)" fill="#e5e7e6"/>
      <g id="Grupo_86387" data-name="Grupo 86387" transform="translate(792.922 1407.315)">
        <g id="Grupo_86386" data-name="Grupo 86386" transform="translate(0)">
          <path id="Trazado_151580" data-name="Trazado 151580" d="M964.209,1508.079l-5.341,2.254-2.4-2.43,2.318-5.313,7.1-3.367.6.608-3.861,3.815a1.043,1.043,0,0,0-1.147.22,1.058,1.058,0,1,0,1.487,1.5,1.043,1.043,0,0,0,.233-1.145l3.862-3.815.6.608Z" transform="translate(-953.917 -1499.223)" fill="#3a3e49"/>
          <rect id="Rectángulo_7456" data-name="Rectángulo 7456" width="5.416" height="1.855" transform="matrix(0.703, 0.711, -0.711, 0.703, 1.32, 8.49)" fill="#3a3e49"/>
        </g>
      </g>
      <path id="Trazado_151581" data-name="Trazado 151581" d="M952.651,1849.847l-1.053,5.875L935.4,1946.21h-1.49l10.89-90.488.709-5.875Z" transform="translate(-148.504 -286.11)" fill="#a7adbf"/>
      <path id="Trazado_151582" data-name="Trazado 151582" d="M1103.931,1849.847l-1.053,5.875-16.2,90.488h-1.486l10.89-90.488.709-5.875Z" transform="translate(-232.294 -286.11)" fill="#a7adbf"/>
      <path id="Trazado_151583" data-name="Trazado 151583" d="M1167.321,1946.21h-1.486l-16.2-90.488-1.053-5.875h7.138l.709,5.875Z" transform="translate(-267.404 -286.11)" fill="#a7adbf"/>
      <path id="Trazado_151584" data-name="Trazado 151584" d="M959.033,1849.847h7.138l-1.053,5.875h-6.795Z" transform="translate(-162.024 -286.11)" fill="#959bab"/>
      <path id="Trazado_151585" data-name="Trazado 151585" d="M1110.313,1849.847h7.138l-1.053,5.875H1109.6Z" transform="translate(-245.814 -286.11)" fill="#959bab"/>
      <path id="Trazado_151586" data-name="Trazado 151586" d="M1156.431,1855.723h-6.795l-1.053-5.875h7.138Z" transform="translate(-267.404 -286.11)" fill="#959bab"/>
      <path id="Trazado_151587" data-name="Trazado 151587" d="M1048.5,1837.184H955.409a2.826,2.826,0,0,0-2.826,2.825h0a2.826,2.826,0,0,0,2.826,2.825H1048.5a2.825,2.825,0,0,0,2.826-2.825h0A2.826,2.826,0,0,0,1048.5,1837.184Z" transform="translate(-158.844 -279.096)" fill="#a7adbf"/>
      <path id="Trazado_151588" data-name="Trazado 151588" d="M956.439,1747.582H949.3L944.7,1707l-3.685-32.5-.263-2.311h1.486l.424,2.248L948.8,1707Z" transform="translate(-152.292 -187.709)" fill="#a7adbf"/>
      <path id="Trazado_151589" data-name="Trazado 151589" d="M1107.714,1747.582h-7.138l-4.6-40.579-3.694-32.567-.254-2.248h1.486l.424,2.248,6.134,32.567Z" transform="translate(-236.077 -187.709)" fill="#a7adbf"/>
      <path id="Trazado_151590" data-name="Trazado 151590" d="M1021.655,1703.251h-75.3a2.606,2.606,0,0,1-2.591-2.323l-3-27.354a2.606,2.606,0,0,1,2.591-2.891h73.427a2.607,2.607,0,0,1,2.566,2.149l4.871,27.354A2.607,2.607,0,0,1,1021.655,1703.251Z" transform="translate(-152.291 -186.876)" fill="#e5e7e6"/>
      <path id="Trazado_151591" data-name="Trazado 151591" d="M949.124,1709.794h-4.1l-3.685-32.5a2.616,2.616,0,0,1,.562-.062h1.084Z" transform="translate(-152.619 -190.5)" fill="#959bab"/>
      <path id="Trazado_151592" data-name="Trazado 151592" d="M1100.383,1709.794h-4.1l-3.694-32.567h1.655Z" transform="translate(-236.393 -190.5)" fill="#959bab"/>
      <rect id="Rectángulo_7457" data-name="Rectángulo 7457" width="5.99" height="139.488" transform="translate(1007.243 1520.613)" fill="#a7adbf"/>
      <rect id="Rectángulo_7458" data-name="Rectángulo 7458" width="5.99" height="139.488" transform="translate(767.864 1520.613)" fill="#a7adbf"/>
      <path id="Trazado_151593" data-name="Trazado 151593" d="M1017.663,1704.751h-75.3a2.607,2.607,0,0,1-2.591-2.322l-3-27.355a2.607,2.607,0,0,1,2.591-2.89h73.427a2.606,2.606,0,0,1,2.566,2.149l4.872,27.354A2.607,2.607,0,0,1,1017.663,1704.751Z" transform="translate(-150.079 -187.707)" fill="#a7adbf"/>
      <path id="Trazado_151594" data-name="Trazado 151594" d="M1146.468,1506.807a39.753,39.753,0,0,1-4.55,4.26s-6.094-1.825-9.329-.486a5.1,5.1,0,0,0-2.378,3.083c-.04-.2-.982-5.639,10.484-6.6C1142.564,1506.905,1144.514,1506.829,1146.468,1506.807Z" transform="translate(-257.209 -96.109)" fill="#24292f"/>
      <rect id="Rectángulo_7459" data-name="Rectángulo 7459" width="49.745" height="30.634" transform="translate(938.95 1465.145)" fill="#e5e7e6"/>
      <rect id="Rectángulo_7460" data-name="Rectángulo 7460" width="49.745" height="3.272" transform="translate(938.95 1465.145)" fill="#a7adbf"/>
      <circle id="Elipse_8296" data-name="Elipse 8296" cx="0.502" cy="0.502" r="0.502" transform="translate(941.016 1466.279)" fill="#fff"/>
      <circle id="Elipse_8297" data-name="Elipse 8297" cx="0.502" cy="0.502" r="0.502" transform="translate(943.414 1466.279)" fill="#fff"/>
      <circle id="Elipse_8298" data-name="Elipse 8298" cx="0.502" cy="0.502" r="0.502" transform="translate(945.959 1466.279)" fill="#fff"/>
      <g id="Grupo_86393" data-name="Grupo 86393" transform="translate(943.008 1472.719)">
        <g id="Grupo_86388" data-name="Grupo 86388" transform="translate(0 17.845)">
          <rect id="Rectángulo_7461" data-name="Rectángulo 7461" width="23.309" height="0.751" fill="#fff"/>
        </g>
        <g id="Grupo_86389" data-name="Grupo 86389" transform="translate(0 13.384)">
          <rect id="Rectángulo_7462" data-name="Rectángulo 7462" width="23.309" height="0.751" fill="#fff"/>
        </g>
        <g id="Grupo_86390" data-name="Grupo 86390" transform="translate(0 8.922)">
          <rect id="Rectángulo_7463" data-name="Rectángulo 7463" width="23.309" height="0.751" fill="#fff"/>
        </g>
        <g id="Grupo_86391" data-name="Grupo 86391" transform="translate(0 4.461)">
          <rect id="Rectángulo_7464" data-name="Rectángulo 7464" width="23.309" height="0.751" fill="#fff"/>
        </g>
        <g id="Grupo_86392" data-name="Grupo 86392" transform="translate(0 0)">
          <rect id="Rectángulo_7465" data-name="Rectángulo 7465" width="23.309" height="0.751" fill="#fff"/>
        </g>
      </g>
      <rect id="Rectángulo_7466" data-name="Rectángulo 7466" width="13.941" height="18.596" transform="translate(970.627 1472.719)" fill="#fff"/>
      <g id="Grupo_86397" data-name="Grupo 86397" transform="translate(913.304 1439.555)">
        <g id="Grupo_86394" data-name="Grupo 86394">
          <rect id="Rectángulo_7467" data-name="Rectángulo 7467" width="39" height="12.139" rx="2.706" fill="#cbc0e0"/>
          <path id="Trazado_151595" data-name="Trazado 151595" d="M1233.936,1581.292a3.064,3.064,0,1,1-3.064-3.064A3.064,3.064,0,0,1,1233.936,1581.292Z" transform="translate(-1224.589 -1575.223)" fill="#fff"/>
          <rect id="Rectángulo_7468" data-name="Rectángulo 7468" width="23.308" height="0.751" transform="translate(12.272 5.694)" fill="#fff"/>
          <rect id="Rectángulo_7469" data-name="Rectángulo 7469" width="12.302" height="0.751" transform="translate(12.272 8.081)" fill="#fff"/>
          <rect id="Rectángulo_7470" data-name="Rectángulo 7470" width="23.308" height="0.751" transform="translate(12.272 3.388)" fill="#fff"/>
        </g>
        <g id="Grupo_86395" data-name="Grupo 86395" transform="translate(8.142 7.09)">
          <path id="Trazado_151601" data-name="Trazado 151601" d="M2.6,0H36.4A2.6,2.6,0,0,1,39,2.6V9.541a2.6,2.6,0,0,1-2.6,2.6H2.6A2.6,2.6,0,0,1,0,9.541V2.6A2.6,2.6,0,0,1,2.6,0Z" fill="#18b6fe"/>
          <circle id="Elipse_8299" data-name="Elipse 8299" cx="3.064" cy="3.064" r="3.064" transform="translate(3.219 3.005)" fill="#fff"/>
          <rect id="Rectángulo_7472" data-name="Rectángulo 7472" width="23.308" height="0.751" transform="translate(12.272 5.694)" fill="#fff"/>
          <rect id="Rectángulo_7473" data-name="Rectángulo 7473" width="12.302" height="0.751" transform="translate(12.272 8.081)" fill="#fff"/>
          <rect id="Rectángulo_7474" data-name="Rectángulo 7474" width="23.308" height="0.751" transform="translate(12.272 3.387)" fill="#fff"/>
        </g>
        <g id="Grupo_86396" data-name="Grupo 86396" transform="translate(16.424 14.034)">
          <path id="Trazado_151600" data-name="Trazado 151600" d="M2.6,0H36.4A2.6,2.6,0,0,1,39,2.6V9.541a2.6,2.6,0,0,1-2.6,2.6H2.6A2.6,2.6,0,0,1,0,9.541V2.6A2.6,2.6,0,0,1,2.6,0Z" fill="#d07efc"/>
          <circle id="Elipse_8300" data-name="Elipse 8300" cx="3.064" cy="3.064" r="3.064" transform="translate(3.219 3.005)" fill="#fff"/>
          <rect id="Rectángulo_7476" data-name="Rectángulo 7476" width="23.308" height="0.751" transform="translate(12.272 5.694)" fill="#fff"/>
          <rect id="Rectángulo_7477" data-name="Rectángulo 7477" width="12.302" height="0.751" transform="translate(12.272 8.081)" fill="#fff"/>
          <rect id="Rectángulo_7478" data-name="Rectángulo 7478" width="23.308" height="0.751" transform="translate(12.272 3.387)" fill="#fff"/>
        </g>
      </g>
      <g id="Grupo_86398" data-name="Grupo 86398" transform="translate(1003.084 1581.207)">
        <path id="Trazado_151596" data-name="Trazado 151596" d="M1438.714,1922.764a16.878,16.878,0,1,1,16.878-16.878A16.9,16.9,0,0,1,1438.714,1922.764Z" transform="translate(-1421.836 -1889.007)" fill="#c2e7f0"/>
        <path id="Trazado_151597" data-name="Trazado 151597" d="M1457.981,1925.153h-13.976v-13.976h13.976Zm-13.53-.446h13.083v-13.083h-13.083Z" transform="translate(-1434.115 -1901.286)" fill="#3a3e49"/>
        <rect id="Rectángulo_7479" data-name="Rectángulo 7479" width="0.892" height="18.681" transform="translate(16.432 7.49)" fill="#3a3e49"/>
        <rect id="Rectángulo_7480" data-name="Rectángulo 7480" width="0.892" height="18.681" transform="matrix(0.005, -1, 1, 0.005, 7.535, 17.231)" fill="#3a3e49"/>
      </g>
      <rect id="Rectángulo_7481" data-name="Rectángulo 7481" width="0.446" height="47.976" transform="translate(911.813 1588.807) rotate(-29.466)" fill="#fff"/>
      <path id="Trazado_151598" data-name="Trazado 151598" d="M1482.593,1786.261s6.157-10.516,19.688-7.307c8.553,2.029,12.068-10.5,19.152-13.251,12.987-5.05,20.524,20.082,34.86,13.06,9.479-4.644,20.907,7.5,20.907,7.5Z" transform="translate(-452.404 -239.131)" fill="#b8e9ff" opacity="0.52"/>
    </g>
    <g id="Grupo_86405" data-name="Grupo 86405" transform="translate(-262.315 -2503.746)">
      <path id="Trazado_151602" data-name="Trazado 151602" d="M775.734,5060.242l3.1-.171C778.893,5061.1,775.79,5061.279,775.734,5060.242ZM1350,5058l-3.1-.145q.072-1.54.126-3.087l3.1.111Q1350.075,5056.437,1350,5058Zm-574.571-5.033q-.045-1.556-.074-3.113l3.106-.058q.029,1.542.073,3.082ZM1350.3,5047.6l-3.107-.035q.017-1.541.017-3.088h3.107Q1350.315,5046.038,1350.3,5047.6Zm-571.877-5.011-3.107-.021q.011-1.565.037-3.122l3.107.054Q778.431,5041.038,778.422,5042.585Zm568.766-1.531q-.019-1.542-.053-3.083l3.106-.072q.036,1.559.054,3.119ZM778.672,5032.3l-3.1-.13q.065-1.563.148-3.121l3.1.167Q778.737,5030.751,778.672,5032.3Zm568.212-1.527q-.073-1.545-.164-3.083l3.1-.18q.092,1.555.166,3.116Zm-567.594-8.747-3.1-.242q.121-1.559.26-3.111l3.094.278Q779.41,5020.48,779.29,5022.021Zm566.922-1.523q-.129-1.541-.273-3.077l3.092-.291q.147,1.551.276,3.109Zm-565.937-8.72-3.086-.354q.177-1.552.372-3.1l3.082.386Q780.451,5010.241,780.275,5011.779Zm564.9-1.52q-.184-1.534-.384-3.064l3.081-.4q.2,1.545.388,3.1Zm-563.54-8.684-3.073-.463q.233-1.545.484-3.085l3.066.5Q781.862,5000.048,781.631,5001.575Zm562.13-1.51q-.239-1.526-.5-3.047l3.063-.515q.259,1.537.5,3.08Zm-560.407-8.636-3.053-.576q.289-1.535.6-3.063l3.046.607Q783.641,4989.911,783.354,4991.429Zm558.628-1.5q-.294-1.518-.6-3.027l3.044-.625q.314,1.526.611,3.063Zm-556.537-8.573-3.03-.688q.346-1.525.707-3.041l3.022.72Q785.787,4979.845,785.445,4981.354Zm554.392-1.492q-.349-1.5-.715-3l3.018-.736q.37,1.515.724,3.037Zm-551.935-8.5-3-.8q.4-1.51.816-3.011l3,.828Q788.3,4969.864,787.9,4971.358Zm549.423-1.474q-.4-1.493-.824-2.977l2.99-.846q.424,1.5.834,3.009Zm-546.6-8.425-2.971-.905q.458-1.5.93-3l2.963.938Q791.175,4959.974,790.722,4961.459ZM1334.453,4960q-.458-1.476-.932-2.943l2.957-.955q.48,1.485.943,2.977Zm-540.538-8.366-2.937-1.013q.513-1.485,1.04-2.958l2.925,1.046Q794.42,4950.17,793.915,4951.635Zm537.307-1.406q-.511-1.457-1.039-2.908l2.919-1.061q.534,1.466,1.051,2.94Zm-533.76-8.292-2.9-1.121q.565-1.46,1.145-2.915l2.885,1.152Q798.02,4940.49,797.462,4941.937Zm530.174-1.354q-.566-1.438-1.144-2.869l2.879-1.167q.585,1.447,1.157,2.9Zm-526.276-8.2-2.854-1.227q.617-1.44,1.251-2.871l2.841,1.257Q801.971,4930.956,801.36,4932.379Zm522.35-1.284q-.613-1.41-1.243-2.813l2.835-1.271q.636,1.419,1.256,2.844ZM805.6,4922.972l-2.809-1.329q.67-1.417,1.354-2.822l2.793,1.359Q806.266,4921.572,805.6,4922.972Zm513.844-1.207q-.665-1.387-1.343-2.767l2.786-1.373q.688,1.394,1.36,2.8Zm-509.263-8.036-2.758-1.43q.721-1.389,1.456-2.77l2.741,1.461Q810.9,4912.355,810.184,4913.729Zm504.663-1.136q-.714-1.365-1.445-2.719l2.736-1.472q.736,1.37,1.46,2.75Zm-499.75-7.931-2.7-1.529q.771-1.362,1.555-2.714l2.686,1.56Q815.858,4903.316,815.1,4904.663Zm494.819-1.074q-.764-1.337-1.542-2.665l2.68-1.572q.788,1.341,1.56,2.7Zm-489.581-7.8-2.647-1.628q.818-1.332,1.652-2.654l2.629,1.655Q821.145,4894.465,820.335,4895.784Zm484.326-1.018q-.813-1.307-1.638-2.61l2.622-1.666q.834,1.315,1.656,2.638ZM825.889,4887.1l-2.586-1.721q.865-1.3,1.745-2.592l2.568,1.75Q826.747,4885.814,825.889,4887.1Zm473.2-.966q-.859-1.28-1.732-2.549l2.56-1.759q.882,1.283,1.751,2.577Zm-467.335-7.507-2.524-1.812q.912-1.27,1.838-2.527l2.5,1.84Q832.654,4877.375,831.753,4878.628Zm461.454-.919q-.906-1.249-1.824-2.488l2.5-1.85q.929,1.253,1.842,2.513Zm-455.292-7.333-2.454-1.9q.957-1.236,1.926-2.458l2.436,1.929Q838.862,4869.155,837.915,4870.375Zm449.11-.879q-.951-1.216-1.912-2.42l2.426-1.939q.974,1.216,1.935,2.446Zm-442.654-7.144-2.385-1.991q1-1.2,2.014-2.387l2.363,2.017Q845.36,4861.167,844.371,4862.353Zm436.176-.844q-.991-1.181-2-2.348l2.356-2.027q1.016,1.183,2.021,2.377Zm-429.437-6.94-2.313-2.075q1.042-1.162,2.1-2.312l2.29,2.1Q852.141,4853.417,851.11,4854.568Zm422.677-.808q-1.036-1.146-2.084-2.279l2.281-2.108q1.058,1.146,2.1,2.3Zm-415.665-6.726-2.235-2.159q1.083-1.124,2.179-2.234l2.212,2.181Q859.194,4845.922,858.122,4847.034Zm408.628-.78q-1.078-1.107-2.165-2.2l2.2-2.189q1.1,1.106,2.186,2.225Zm-401.351-6.5-2.157-2.235q1.123-1.083,2.258-2.154l2.132,2.26Q866.509,4838.684,865.4,4839.756Zm394.045-.751q-1.114-1.066-2.242-2.124l2.125-2.268q1.139,1.069,2.266,2.148Zm-386.513-6.257-2.075-2.312q1.16-1.043,2.333-2.071l2.049,2.334Q874.08,4831.716,872.931,4832.749Zm378.951-.727q-1.154-1.027-2.319-2.04l2.041-2.343q1.176,1.023,2.342,2.062Zm-371.174-6-1.989-2.386q1.2-1,2.4-1.985l1.965,2.407Q881.893,4825.03,880.708,4826.019Zm363.363-.7q-1.19-.984-2.39-1.957l1.954-2.416q1.215.984,2.417,1.979Zm-355.351-5.742-1.9-2.456q1.232-.954,2.474-1.9l1.877,2.475Q889.939,4818.627,888.72,4819.573Zm347.3-.681q-1.226-.943-2.461-1.872l1.867-2.482q1.249.939,2.487,1.89Zm-339.066-5.471-1.812-2.521q1.265-.908,2.539-1.8l1.786,2.54Q898.207,4812.523,896.955,4813.421Zm330.789-.663q-1.26-.9-2.528-1.781l1.776-2.549q1.282.893,2.554,1.8Zm-322.338-5.185-1.722-2.586q1.3-.864,2.6-1.711l1.694,2.6Q906.689,4806.719,905.407,4807.574Zm313.84-.643q-1.291-.853-2.59-1.69l1.683-2.611q1.314.847,2.619,1.708Zm-305.188-4.9-1.629-2.645q1.327-.818,2.663-1.618l1.6,2.664Q915.371,4801.229,914.06,4802.035Zm296.482-.625q-1.319-.806-2.649-1.595l1.588-2.67q1.345.8,2.68,1.612Zm-287.638-4.6-1.533-2.7q1.354-.768,2.718-1.521l1.5,2.721Q924.242,4796.058,922.9,4796.814Zm278.739-.607q-1.348-.755-2.707-1.5l1.49-2.727q1.373.753,2.737,1.514Zm-269.718-4.287-1.432-2.757q1.38-.715,2.768-1.418l1.4,2.77Q933.291,4791.213,931.925,4791.92Zm260.632-.59q-1.376-.708-2.762-1.4l1.39-2.78q1.4.7,2.791,1.415Zm-251.44-3.973-1.333-2.808q1.406-.667,2.818-1.318l1.3,2.823Q942.506,4786.7,941.117,4787.357Zm242.179-.571q-1.4-.66-2.811-1.3l1.286-2.828q1.426.647,2.844,1.313Zm-232.833-3.656-1.229-2.853q1.427-.615,2.865-1.214l1.194,2.867Q951.874,4782.523,950.463,4783.13Zm223.41-.551q-1.425-.6-2.857-1.2l1.182-2.872q1.449.595,2.89,1.208Zm-213.922-3.331-1.124-2.9q1.454-.565,2.916-1.115l1.093,2.909Q961.39,4778.692,959.951,4779.249Zm204.347-.53q-1.445-.553-2.9-1.089l1.076-2.915q1.471.543,2.934,1.1ZM969.612,4775.7l-1.017-2.935q1.473-.512,2.955-1.008l.986,2.947Q971.071,4775.2,969.612,4775.7Zm184.974-.49q-1.466-.5-2.939-.986l.969-2.95q1.491.491,2.974.995Zm-175.189-2.7-.911-2.97q1.491-.456,2.99-.9l.879,2.979Q980.872,4772.057,979.4,4772.507Zm165.353-.448q-1.479-.444-2.963-.873l.862-2.985q1.5.435,2.994.882Zm-155.459-2.387-.8-3q1.507-.4,3.022-.788l.767,3.009Q990.779,4769.276,989.29,4769.672Zm145.55-.395q-1.495-.388-2.994-.764l.753-3.014q1.515.379,3.024.771ZM999.278,4767.2l-.69-3.03q1.521-.346,3.047-.676l.659,3.036Q1000.783,4766.858,999.278,4767.2Zm125.556-.34q-1.505-.334-3.017-.653l.64-3.041q1.529.321,3.052.661Zm-115.482-1.766-.58-3.052q1.532-.29,3.07-.566l.547,3.058Q1010.869,4764.807,1009.353,4765.095Zm105.4-.286q-1.516-.281-3.04-.543l.531-3.06q1.54.265,3.074.55Zm-95.253-1.454-.469-3.071q1.543-.234,3.088-.456l.437,3.077Q1021.021,4763.123,1019.5,4763.355Zm85.1-.229q-1.527-.226-3.058-.434l.42-3.08q1.547.212,3.091.438Zm-74.9-1.141-.359-3.087q1.551-.178,3.1-.343l.324,3.091Q1031.228,4761.808,1029.7,4761.986Zm64.692-.174q-1.533-.171-3.071-.322l.306-3.092c1.037.1,2.071.213,3.1.325Zm-54.451-.827-.245-3.1q1.555-.125,3.113-.23l.212,3.1Q1041.476,4760.861,1039.939,4760.985Zm44.2-.121q-1.538-.112-3.082-.211l.2-3.1q1.558.1,3.112.212Zm-33.928-.511-.135-3.1q1.55-.067,3.107-.118l.1,3.1Q1051.748,4760.285,1050.213,4760.353Zm23.653-.064q-1.542-.059-3.088-.1l.085-3.1c1.041.027,2.081.063,3.118.1Zm-13.381-.2-.024-3.106q1.173-.008,2.349-.009h.775l-.013,3.107h-.76Q1061.651,4760.08,1060.485,4760.087Z" transform="translate(0 -0.001)" fill="#18b6fe"/>
    </g>
    <path id="Trazado_153647" data-name="Trazado 153647" d="M18.355,17.279H12.4L11.061,21H9.127l5.43-14.219H16.2L21.637,21H19.713Zm-5.391-1.533H17.8L15.377,9.1Zm12.012-5.312.059,1.328A3.85,3.85,0,0,1,28.2,10.238q3.35,0,3.379,3.779V21H29.771V14.008a2.432,2.432,0,0,0-.522-1.689,2.094,2.094,0,0,0-1.6-.547,2.607,2.607,0,0,0-1.543.469,3.183,3.183,0,0,0-1.035,1.23V21H23.268V10.434ZM40.826,21a3.8,3.8,0,0,1-.254-1.113A4.031,4.031,0,0,1,37.564,21.2,3.73,3.73,0,0,1,35,20.312a2.859,2.859,0,0,1-1-2.241,2.987,2.987,0,0,1,1.255-2.563,5.916,5.916,0,0,1,3.53-.913h1.758v-.83a2.029,2.029,0,0,0-.566-1.509,2.276,2.276,0,0,0-1.67-.562,2.634,2.634,0,0,0-1.621.488,1.439,1.439,0,0,0-.654,1.182H34.215a2.493,2.493,0,0,1,.562-1.528A3.832,3.832,0,0,1,36.3,10.668a5.125,5.125,0,0,1,2.114-.43,4.177,4.177,0,0,1,2.861.913,3.294,3.294,0,0,1,1.074,2.515v4.863a5.946,5.946,0,0,0,.371,2.314V21Zm-3-1.377a3.175,3.175,0,0,0,1.611-.439,2.658,2.658,0,0,0,1.1-1.143V15.873H39.127q-3.32,0-3.32,1.943a1.645,1.645,0,0,0,.566,1.328A2.177,2.177,0,0,0,37.828,19.623ZM39.5,6h2.188L39.068,8.871l-1.455,0Zm7.646,15H45.338V6h1.807ZM52,21H50.191V10.434H52ZM50.045,7.631a1.078,1.078,0,0,1,.269-.742,1.008,1.008,0,0,1,.8-.3,1.024,1.024,0,0,1,.8.3,1.067,1.067,0,0,1,.273.742,1.032,1.032,0,0,1-.273.732,1.043,1.043,0,0,1-.8.293,1.026,1.026,0,0,1-.8-.293A1.043,1.043,0,0,1,50.045,7.631Zm11,10.566a1.33,1.33,0,0,0-.552-1.138,5.311,5.311,0,0,0-1.924-.7,9.1,9.1,0,0,1-2.178-.7,3.1,3.1,0,0,1-1.191-.977,2.336,2.336,0,0,1-.386-1.348,2.741,2.741,0,0,1,1.1-2.2,4.291,4.291,0,0,1,2.808-.9,4.415,4.415,0,0,1,2.915.928,2.947,2.947,0,0,1,1.118,2.373H60.934a1.631,1.631,0,0,0-.63-1.279,2.36,2.36,0,0,0-1.587-.537,2.47,2.47,0,0,0-1.543.43,1.353,1.353,0,0,0-.557,1.123,1.1,1.1,0,0,0,.518.986A6.368,6.368,0,0,0,59,14.9a9.744,9.744,0,0,1,2.192.723,3.2,3.2,0,0,1,1.245,1.011,2.485,2.485,0,0,1,.405,1.44,2.7,2.7,0,0,1-1.133,2.271,4.752,4.752,0,0,1-2.939.854,5.321,5.321,0,0,1-2.246-.449A3.653,3.653,0,0,1,55,19.491a3.025,3.025,0,0,1-.552-1.743h1.807a1.87,1.87,0,0,0,.728,1.44,2.822,2.822,0,0,0,1.792.532,2.913,2.913,0,0,0,1.646-.415A1.275,1.275,0,0,0,61.041,18.2ZM67.164,21H65.357V10.434h1.807ZM65.211,7.631a1.078,1.078,0,0,1,.269-.742,1.008,1.008,0,0,1,.8-.3,1.024,1.024,0,0,1,.8.3,1.067,1.067,0,0,1,.273.742,1.032,1.032,0,0,1-.273.732,1.043,1.043,0,0,1-.8.293,1.026,1.026,0,0,1-.8-.293A1.043,1.043,0,0,1,65.211,7.631Zm11,10.566a1.33,1.33,0,0,0-.552-1.138,5.311,5.311,0,0,0-1.924-.7,9.1,9.1,0,0,1-2.178-.7,3.1,3.1,0,0,1-1.191-.977,2.336,2.336,0,0,1-.386-1.348,2.741,2.741,0,0,1,1.1-2.2,4.291,4.291,0,0,1,2.808-.9,4.415,4.415,0,0,1,2.915.928,2.947,2.947,0,0,1,1.118,2.373H76.1a1.631,1.631,0,0,0-.63-1.279,2.36,2.36,0,0,0-1.587-.537,2.47,2.47,0,0,0-1.543.43,1.353,1.353,0,0,0-.557,1.123,1.1,1.1,0,0,0,.518.986,6.368,6.368,0,0,0,1.87.635,9.744,9.744,0,0,1,2.192.723,3.2,3.2,0,0,1,1.245,1.011,2.485,2.485,0,0,1,.405,1.44,2.7,2.7,0,0,1-1.133,2.271,4.752,4.752,0,0,1-2.939.854,5.321,5.321,0,0,1-2.246-.449,3.653,3.653,0,0,1-1.528-1.255,3.025,3.025,0,0,1-.552-1.743h1.807a1.87,1.87,0,0,0,.728,1.44,2.822,2.822,0,0,0,1.792.532,2.913,2.913,0,0,0,1.646-.415A1.275,1.275,0,0,0,76.207,18.2Z" transform="translate(390 2528.974)" fill="#12263f"/>
    <path id="Trazado_153648" data-name="Trazado 153648" d="M2.332,21V6.781H6.346a6.461,6.461,0,0,1,3.281.82,5.548,5.548,0,0,1,2.2,2.334,7.6,7.6,0,0,1,.786,3.477v.908a7.624,7.624,0,0,1-.776,3.525A5.461,5.461,0,0,1,9.622,20.17,6.873,6.873,0,0,1,6.268,21ZM4.207,8.314V19.467H6.18a4.292,4.292,0,0,0,3.374-1.349,5.573,5.573,0,0,0,1.206-3.841v-.831A5.661,5.661,0,0,0,9.622,9.678,4.049,4.049,0,0,0,6.395,8.314ZM17.127,21H15.32V10.434h1.807ZM15.174,7.631a1.078,1.078,0,0,1,.269-.742,1.008,1.008,0,0,1,.8-.3,1.024,1.024,0,0,1,.8.3,1.067,1.067,0,0,1,.273.742,1.032,1.032,0,0,1-.273.732,1.043,1.043,0,0,1-.8.293,1.026,1.026,0,0,1-.8-.293A1.043,1.043,0,0,1,15.174,7.631Zm11,10.566a1.33,1.33,0,0,0-.552-1.138,5.311,5.311,0,0,0-1.924-.7,9.1,9.1,0,0,1-2.178-.7,3.1,3.1,0,0,1-1.191-.977,2.336,2.336,0,0,1-.386-1.348,2.741,2.741,0,0,1,1.1-2.2,4.291,4.291,0,0,1,2.808-.9,4.415,4.415,0,0,1,2.915.928,2.947,2.947,0,0,1,1.118,2.373H26.063a1.631,1.631,0,0,0-.63-1.279,2.36,2.36,0,0,0-1.587-.537,2.47,2.47,0,0,0-1.543.43,1.353,1.353,0,0,0-.557,1.123,1.1,1.1,0,0,0,.518.986,6.368,6.368,0,0,0,1.87.635,9.744,9.744,0,0,1,2.192.723,3.2,3.2,0,0,1,1.245,1.011,2.485,2.485,0,0,1,.405,1.44,2.7,2.7,0,0,1-1.133,2.271A4.752,4.752,0,0,1,23.9,21.2a5.321,5.321,0,0,1-2.246-.449,3.653,3.653,0,0,1-1.528-1.255,3.025,3.025,0,0,1-.552-1.743h1.807a1.87,1.87,0,0,0,.728,1.44,2.822,2.822,0,0,0,1.792.532,2.913,2.913,0,0,0,1.646-.415A1.275,1.275,0,0,0,26.17,18.2Zm8.545,3a4.617,4.617,0,0,1-3.5-1.411,5.237,5.237,0,0,1-1.348-3.774v-.332a6.341,6.341,0,0,1,.6-2.808,4.685,4.685,0,0,1,1.68-1.934,4.223,4.223,0,0,1,2.339-.7,3.957,3.957,0,0,1,3.2,1.357,5.877,5.877,0,0,1,1.143,3.887v.752H31.678a3.756,3.756,0,0,0,.913,2.524,2.87,2.87,0,0,0,2.222.962,3.147,3.147,0,0,0,1.621-.391A4.073,4.073,0,0,0,37.6,18.295l1.1.859A4.437,4.437,0,0,1,34.715,21.2Zm-.225-9.473a2.41,2.41,0,0,0-1.836.8,3.868,3.868,0,0,0-.918,2.231h5.293v-.137a3.441,3.441,0,0,0-.742-2.134A2.269,2.269,0,0,0,34.49,11.723Zm8.145-1.289.059,1.328a3.851,3.851,0,0,1,3.164-1.523q3.35,0,3.379,3.779V21H47.43V14.008a2.432,2.432,0,0,0-.522-1.689,2.094,2.094,0,0,0-1.6-.547,2.607,2.607,0,0,0-1.543.469,3.183,3.183,0,0,0-1.035,1.23V21H40.926V10.434Zm5.977-4.121a2.428,2.428,0,0,1-.6,1.709,1.951,1.951,0,0,1-1.5.654,2.2,2.2,0,0,1-.693-.1,3.741,3.741,0,0,1-.767-.4,3.32,3.32,0,0,0-.684-.366,1.673,1.673,0,0,0-.483-.063.9.9,0,0,0-.684.308,1.115,1.115,0,0,0-.283.786l-1.211-.068A2.549,2.549,0,0,1,42.3,7.045a1.9,1.9,0,0,1,1.5-.684,1.821,1.821,0,0,1,.615.1,4.484,4.484,0,0,1,.742.381,4.367,4.367,0,0,0,.718.371,1.649,1.649,0,0,0,.552.088.874.874,0,0,0,.7-.332A1.165,1.165,0,0,0,47.4,6.2Zm2.871,9.307a6.241,6.241,0,0,1,.61-2.793,4.553,4.553,0,0,1,1.7-1.914,4.626,4.626,0,0,1,2.485-.674,4.456,4.456,0,0,1,3.491,1.494A5.748,5.748,0,0,1,61.1,15.707v.127a6.3,6.3,0,0,1-.591,2.769,4.486,4.486,0,0,1-1.689,1.909A4.679,4.679,0,0,1,56.3,21.2,4.445,4.445,0,0,1,52.815,19.7a5.719,5.719,0,0,1-1.333-3.955Zm1.816.215a4.52,4.52,0,0,0,.815,2.822,2.763,2.763,0,0,0,4.37-.015,4.943,4.943,0,0,0,.811-3.022A4.513,4.513,0,0,0,58.47,12.8a2.623,2.623,0,0,0-2.192-1.079,2.594,2.594,0,0,0-2.158,1.064A4.906,4.906,0,0,0,53.3,15.834Z" transform="translate(459 2324)" fill="#12263f"/>
    <path id="Trazado_153649" data-name="Trazado 153649" d="M6.675,21H4.8V6.781H6.675Zm4.844-10.566.049,1.172A3.9,3.9,0,0,1,14.7,10.238a3.021,3.021,0,0,1,3.018,1.7,4,4,0,0,1,1.372-1.23,4.052,4.052,0,0,1,2-.469q3.477,0,3.535,3.682V21H22.817V14.027a2.426,2.426,0,0,0-.518-1.694,2.279,2.279,0,0,0-1.738-.562,2.4,2.4,0,0,0-1.67.6,2.436,2.436,0,0,0-.771,1.616V21H16.3V14.076a2.016,2.016,0,0,0-2.256-2.3,2.417,2.417,0,0,0-2.432,1.514V21H9.81V10.434Zm24.756,5.4a6.327,6.327,0,0,1-1.1,3.887A3.537,3.537,0,0,1,32.183,21.2a3.875,3.875,0,0,1-3.027-1.221v5.088H27.349V10.434H29l.088,1.172a3.722,3.722,0,0,1,3.066-1.367,3.6,3.6,0,0,1,3.013,1.436,6.4,6.4,0,0,1,1.108,3.994Zm-1.807-.205a4.669,4.669,0,0,0-.762-2.822,2.454,2.454,0,0,0-2.09-1.035,2.656,2.656,0,0,0-2.461,1.455v5.049a2.661,2.661,0,0,0,2.48,1.445A2.442,2.442,0,0,0,33.7,18.69,5.1,5.1,0,0,0,34.468,15.629ZM40.532,21H38.726V6h1.807Zm7.275.2a4.617,4.617,0,0,1-3.5-1.411,5.237,5.237,0,0,1-1.348-3.774v-.332a6.341,6.341,0,0,1,.6-2.808,4.685,4.685,0,0,1,1.68-1.934,4.223,4.223,0,0,1,2.339-.7,3.957,3.957,0,0,1,3.2,1.357,5.877,5.877,0,0,1,1.143,3.887v.752H44.771a3.756,3.756,0,0,0,.913,2.524,2.87,2.87,0,0,0,2.222.962,3.147,3.147,0,0,0,1.621-.391,4.073,4.073,0,0,0,1.162-1.035l1.1.859A4.437,4.437,0,0,1,47.808,21.2Zm-.225-9.473a2.41,2.41,0,0,0-1.836.8,3.868,3.868,0,0,0-.918,2.231h5.293v-.137a3.441,3.441,0,0,0-.742-2.134A2.269,2.269,0,0,0,47.583,11.723Zm8.135-1.289.049,1.172A3.9,3.9,0,0,1,58.9,10.238a3.021,3.021,0,0,1,3.018,1.7,4,4,0,0,1,1.372-1.23,4.052,4.052,0,0,1,2-.469q3.477,0,3.535,3.682V21H67.017V14.027a2.426,2.426,0,0,0-.518-1.694,2.279,2.279,0,0,0-1.738-.562,2.4,2.4,0,0,0-1.67.6,2.436,2.436,0,0,0-.771,1.616V21H60.5V14.076a2.016,2.016,0,0,0-2.256-2.3,2.417,2.417,0,0,0-2.432,1.514V21H54.009V10.434ZM75.933,21.2a4.617,4.617,0,0,1-3.5-1.411,5.237,5.237,0,0,1-1.348-3.774v-.332a6.341,6.341,0,0,1,.6-2.808,4.685,4.685,0,0,1,1.68-1.934,4.223,4.223,0,0,1,2.339-.7,3.957,3.957,0,0,1,3.2,1.357,5.877,5.877,0,0,1,1.143,3.887v.752H72.9a3.756,3.756,0,0,0,.913,2.524,2.87,2.87,0,0,0,2.222.962,3.147,3.147,0,0,0,1.621-.391,4.073,4.073,0,0,0,1.162-1.035l1.1.859A4.437,4.437,0,0,1,75.933,21.2Zm-.225-9.473a2.41,2.41,0,0,0-1.836.8,3.869,3.869,0,0,0-.918,2.231h5.293v-.137a3.441,3.441,0,0,0-.742-2.134A2.269,2.269,0,0,0,75.708,11.723Zm8.145-1.289.059,1.328a3.85,3.85,0,0,1,3.164-1.523q3.35,0,3.379,3.779V21H88.647V14.008a2.432,2.432,0,0,0-.522-1.689,2.094,2.094,0,0,0-1.6-.547,2.607,2.607,0,0,0-1.543.469,3.183,3.183,0,0,0-1.035,1.23V21H82.144V10.434ZM95.63,7.875v2.559H97.6v1.4H95.63v6.561a1.467,1.467,0,0,0,.264.953,1.11,1.11,0,0,0,.9.318,4.374,4.374,0,0,0,.859-.117V21a5.268,5.268,0,0,1-1.387.194,2.25,2.25,0,0,1-1.826-.732,3.147,3.147,0,0,1-.615-2.08V11.83H91.9v-1.4h1.924V7.875ZM106.235,21a3.8,3.8,0,0,1-.254-1.113,4.031,4.031,0,0,1-3.008,1.309,3.73,3.73,0,0,1-2.563-.884,2.859,2.859,0,0,1-1-2.241,2.987,2.987,0,0,1,1.255-2.563,5.916,5.916,0,0,1,3.53-.913h1.758v-.83a2.029,2.029,0,0,0-.566-1.509,2.276,2.276,0,0,0-1.67-.562,2.634,2.634,0,0,0-1.621.488,1.439,1.439,0,0,0-.654,1.182H99.624a2.493,2.493,0,0,1,.562-1.528,3.832,3.832,0,0,1,1.523-1.167,5.125,5.125,0,0,1,2.114-.43,4.177,4.177,0,0,1,2.861.913,3.294,3.294,0,0,1,1.074,2.515v4.863a5.946,5.946,0,0,0,.371,2.314V21Zm-3-1.377a3.175,3.175,0,0,0,1.611-.439,2.658,2.658,0,0,0,1.1-1.143V15.873h-1.416q-3.32,0-3.32,1.943a1.645,1.645,0,0,0,.566,1.328A2.177,2.177,0,0,0,103.237,19.623Zm11.592.1a2.6,2.6,0,0,0,1.689-.586,2.061,2.061,0,0,0,.8-1.465h1.709A3.276,3.276,0,0,1,118.4,19.4a4.116,4.116,0,0,1-1.538,1.309,4.438,4.438,0,0,1-2.036.488,4.353,4.353,0,0,1-3.433-1.44,5.737,5.737,0,0,1-1.274-3.94v-.3a6.361,6.361,0,0,1,.566-2.744,4.314,4.314,0,0,1,1.626-1.865,4.619,4.619,0,0,1,2.5-.664,4.238,4.238,0,0,1,2.954,1.064,3.8,3.8,0,0,1,1.255,2.764h-1.709a2.49,2.49,0,0,0-.776-1.685,2.415,2.415,0,0,0-1.724-.659,2.529,2.529,0,0,0-2.134.991,4.655,4.655,0,0,0-.757,2.866v.342a4.562,4.562,0,0,0,.752,2.813A2.541,2.541,0,0,0,114.829,19.721ZM123.022,21h-1.807V10.434h1.807ZM121.069,7.631a1.078,1.078,0,0,1,.269-.742,1.008,1.008,0,0,1,.8-.3,1.024,1.024,0,0,1,.8.3,1.067,1.067,0,0,1,.273.742,1.032,1.032,0,0,1-.273.732,1.043,1.043,0,0,1-.8.293,1.026,1.026,0,0,1-.8-.293A1.043,1.043,0,0,1,121.069,7.631Zm4.365,7.988a6.241,6.241,0,0,1,.61-2.793,4.553,4.553,0,0,1,1.7-1.914,4.626,4.626,0,0,1,2.485-.674,4.456,4.456,0,0,1,3.491,1.494,5.748,5.748,0,0,1,1.333,3.975v.127a6.3,6.3,0,0,1-.591,2.769,4.486,4.486,0,0,1-1.689,1.909,4.679,4.679,0,0,1-2.524.684,4.445,4.445,0,0,1-3.481-1.494,5.719,5.719,0,0,1-1.333-3.955Zm1.816.215a4.52,4.52,0,0,0,.815,2.822,2.763,2.763,0,0,0,4.37-.015,4.943,4.943,0,0,0,.811-3.022,4.513,4.513,0,0,0-.825-2.817,2.623,2.623,0,0,0-2.192-1.079,2.594,2.594,0,0,0-2.158,1.064A4.906,4.906,0,0,0,127.251,15.834ZM131.05,6h2.188L130.62,8.871l-1.455,0Zm7.979,4.434.059,1.328a3.851,3.851,0,0,1,3.164-1.523q3.35,0,3.379,3.779V21h-1.807V14.008a2.433,2.433,0,0,0-.522-1.689,2.094,2.094,0,0,0-1.6-.547,2.607,2.607,0,0,0-1.543.469,3.183,3.183,0,0,0-1.035,1.23V21h-1.807V10.434Z" transform="translate(727 2179)" fill="#12263f"/>
    <path id="Trazado_153650" data-name="Trazado 153650" d="M3.525,15.434V21H1.65V6.781H6.895a5.269,5.269,0,0,1,3.657,1.191,4.039,4.039,0,0,1,1.323,3.154,3.986,3.986,0,0,1-1.294,3.188,5.5,5.5,0,0,1-3.706,1.118Zm0-1.533H6.895a3.369,3.369,0,0,0,2.3-.709,2.593,2.593,0,0,0,.8-2.05,2.679,2.679,0,0,0-.8-2.035A3.156,3.156,0,0,0,7,8.314H3.525Zm15.566-1.846a5.414,5.414,0,0,0-.889-.068A2.381,2.381,0,0,0,15.791,13.5V21H13.984V10.434h1.758l.029,1.221a2.813,2.813,0,0,1,2.52-1.416,1.846,1.846,0,0,1,.8.137Zm8.184,7.9a3.837,3.837,0,0,1-3.1,1.24,3.285,3.285,0,0,1-2.573-.981,4.248,4.248,0,0,1-.894-2.905V10.434H22.52V17.26q0,2.4,1.953,2.4a2.7,2.7,0,0,0,2.754-1.543V10.434h1.807V21H27.314Zm8.887,1.24a4.617,4.617,0,0,1-3.5-1.411,5.237,5.237,0,0,1-1.348-3.774v-.332a6.341,6.341,0,0,1,.6-2.808,4.685,4.685,0,0,1,1.68-1.934,4.223,4.223,0,0,1,2.339-.7,3.957,3.957,0,0,1,3.2,1.357,5.877,5.877,0,0,1,1.143,3.887v.752H33.125a3.756,3.756,0,0,0,.913,2.524,2.87,2.87,0,0,0,2.222.962,3.147,3.147,0,0,0,1.621-.391,4.073,4.073,0,0,0,1.162-1.035l1.1.859A4.437,4.437,0,0,1,36.162,21.2Zm-.225-9.473a2.41,2.41,0,0,0-1.836.8,3.868,3.868,0,0,0-.918,2.231h5.293v-.137a3.441,3.441,0,0,0-.742-2.134A2.269,2.269,0,0,0,35.938,11.723Zm15.381,4.111a6.283,6.283,0,0,1-1.113,3.892,3.557,3.557,0,0,1-2.988,1.47,3.683,3.683,0,0,1-3.1-1.416L44.033,21h-1.66V6H44.18v5.6A3.663,3.663,0,0,1,47.2,10.238a3.579,3.579,0,0,1,3.022,1.455,6.471,6.471,0,0,1,1.1,3.984Zm-1.807-.205a4.882,4.882,0,0,0-.713-2.852,2.36,2.36,0,0,0-2.051-1.006,2.652,2.652,0,0,0-2.568,1.66V18a2.727,2.727,0,0,0,2.588,1.66,2.347,2.347,0,0,0,2.021-1.006A5.192,5.192,0,0,0,49.512,15.629ZM60.117,21a3.8,3.8,0,0,1-.254-1.113A4.031,4.031,0,0,1,56.855,21.2a3.73,3.73,0,0,1-2.563-.884,2.859,2.859,0,0,1-1-2.241,2.987,2.987,0,0,1,1.255-2.563,5.916,5.916,0,0,1,3.53-.913h1.758v-.83a2.029,2.029,0,0,0-.566-1.509,2.276,2.276,0,0,0-1.67-.562,2.634,2.634,0,0,0-1.621.488,1.439,1.439,0,0,0-.654,1.182H53.506a2.493,2.493,0,0,1,.562-1.528,3.832,3.832,0,0,1,1.523-1.167,5.125,5.125,0,0,1,2.114-.43,4.177,4.177,0,0,1,2.861.913,3.294,3.294,0,0,1,1.074,2.515v4.863a5.946,5.946,0,0,0,.371,2.314V21Zm-3-1.377a3.175,3.175,0,0,0,1.611-.439,2.658,2.658,0,0,0,1.1-1.143V15.873H58.418q-3.32,0-3.32,1.943a1.645,1.645,0,0,0,.566,1.328A2.177,2.177,0,0,0,57.119,19.623Z" transform="translate(1068 2325)" fill="#12263f"/>
    <path id="Trazado_153651" data-name="Trazado 153651" d="M5.84,14.662a8.817,8.817,0,0,1-3.511-1.7,3.256,3.256,0,0,1-1.1-2.5A3.439,3.439,0,0,1,2.573,7.685a5.337,5.337,0,0,1,3.491-1.1,5.825,5.825,0,0,1,2.612.566,4.3,4.3,0,0,1,1.777,1.563,4,4,0,0,1,.63,2.178H9.2a2.6,2.6,0,0,0-.82-2.034,3.336,3.336,0,0,0-2.314-.74A3.415,3.415,0,0,0,3.9,8.731a2.04,2.04,0,0,0-.776,1.7A1.835,1.835,0,0,0,3.862,11.9,7.232,7.232,0,0,0,6.372,13a11.645,11.645,0,0,1,2.773,1.1,4.209,4.209,0,0,1,1.484,1.4,3.577,3.577,0,0,1,.483,1.885,3.322,3.322,0,0,1-1.348,2.769,5.746,5.746,0,0,1-3.6,1.04,6.683,6.683,0,0,1-2.734-.562A4.6,4.6,0,0,1,1.47,19.1a3.754,3.754,0,0,1-.688-2.217H2.666a2.449,2.449,0,0,0,.952,2.036,4.009,4.009,0,0,0,2.544.747,3.685,3.685,0,0,0,2.275-.605,1.967,1.967,0,0,0,.791-1.65A1.931,1.931,0,0,0,8.5,15.79,8.444,8.444,0,0,0,5.84,14.662ZM17.617,21.2a4.617,4.617,0,0,1-3.5-1.411,5.237,5.237,0,0,1-1.348-3.774v-.332a6.341,6.341,0,0,1,.6-2.808,4.685,4.685,0,0,1,1.68-1.934,4.223,4.223,0,0,1,2.339-.7A3.957,3.957,0,0,1,20.6,11.6a5.877,5.877,0,0,1,1.143,3.887v.752H14.58a3.756,3.756,0,0,0,.913,2.524,2.87,2.87,0,0,0,2.222.962,3.147,3.147,0,0,0,1.621-.391A4.073,4.073,0,0,0,20.5,18.295l1.1.859A4.437,4.437,0,0,1,17.617,21.2Zm-.225-9.473a2.41,2.41,0,0,0-1.836.8,3.868,3.868,0,0,0-.918,2.231h5.293v-.137a3.441,3.441,0,0,0-.742-2.134A2.269,2.269,0,0,0,17.393,11.723Zm11.543.332a5.414,5.414,0,0,0-.889-.068A2.381,2.381,0,0,0,25.635,13.5V21H23.828V10.434h1.758l.029,1.221a2.813,2.813,0,0,1,2.52-1.416,1.846,1.846,0,0,1,.8.137Zm5.322,6.494,2.617-8.115h1.846L34.932,21H33.555L29.727,10.434h1.846ZM42.422,21H40.615V10.434h1.807ZM40.469,7.631a1.078,1.078,0,0,1,.269-.742,1.008,1.008,0,0,1,.8-.3,1.024,1.024,0,0,1,.8.3,1.067,1.067,0,0,1,.273.742,1.032,1.032,0,0,1-.273.732,1.043,1.043,0,0,1-.8.293,1.026,1.026,0,0,1-.8-.293A1.043,1.043,0,0,1,40.469,7.631Zm9.082,12.09a2.6,2.6,0,0,0,1.689-.586,2.061,2.061,0,0,0,.8-1.465H53.75a3.276,3.276,0,0,1-.625,1.729,4.116,4.116,0,0,1-1.538,1.309,4.438,4.438,0,0,1-2.036.488,4.353,4.353,0,0,1-3.433-1.44,5.737,5.737,0,0,1-1.274-3.94v-.3a6.361,6.361,0,0,1,.566-2.744A4.314,4.314,0,0,1,47.036,10.9a4.619,4.619,0,0,1,2.5-.664A4.238,4.238,0,0,1,52.5,11.3a3.8,3.8,0,0,1,1.255,2.764H52.041a2.49,2.49,0,0,0-.776-1.685,2.415,2.415,0,0,0-1.724-.659,2.529,2.529,0,0,0-2.134.991,4.655,4.655,0,0,0-.757,2.866v.342a4.562,4.562,0,0,0,.752,2.813A2.541,2.541,0,0,0,49.551,19.721ZM57.744,21H55.938V10.434h1.807ZM55.791,7.631a1.078,1.078,0,0,1,.269-.742,1.008,1.008,0,0,1,.8-.3,1.024,1.024,0,0,1,.8.3,1.067,1.067,0,0,1,.273.742,1.032,1.032,0,0,1-.273.732,1.043,1.043,0,0,1-.8.293,1.026,1.026,0,0,1-.8-.293A1.043,1.043,0,0,1,55.791,7.631Zm4.365,7.988a6.241,6.241,0,0,1,.61-2.793,4.553,4.553,0,0,1,1.7-1.914,4.626,4.626,0,0,1,2.485-.674,4.456,4.456,0,0,1,3.491,1.494,5.748,5.748,0,0,1,1.333,3.975v.127a6.3,6.3,0,0,1-.591,2.769A4.486,4.486,0,0,1,67.5,20.512a4.679,4.679,0,0,1-2.524.684A4.445,4.445,0,0,1,61.489,19.7a5.719,5.719,0,0,1-1.333-3.955Zm1.816.215a4.52,4.52,0,0,0,.815,2.822,2.763,2.763,0,0,0,4.37-.015,4.943,4.943,0,0,0,.811-3.022,4.513,4.513,0,0,0-.825-2.817,2.623,2.623,0,0,0-2.192-1.079,2.594,2.594,0,0,0-2.158,1.064A4.906,4.906,0,0,0,61.973,15.834Z" transform="translate(1141.57 2527.821)" fill="#12263f"/>
    <g id="Grupo_86402" data-name="Grupo 86402" transform="translate(0 42)">
      <g transform="matrix(1, 0, 0, 1, 399.13, 2143)" filter="url(#Elipse_8268)">
        <circle id="Elipse_8268-5" data-name="Elipse 8268" cx="43" cy="43" r="43" transform="translate(359.87 25)" fill="#856de9"/>
      </g>
      <ellipse id="Elipse_8271" data-name="Elipse 8271" cx="33.5" cy="34" rx="33.5" ry="34" transform="translate(769 2177)" fill="#f6f6f6"/>
    </g>
    <g id="Grupo_86403" data-name="Grupo 86403" transform="translate(37 30)">
      <g id="Grupo_86296" data-name="Grupo 86296" transform="translate(497.804 2266.629)">
        <g transform="matrix(1, 0, 0, 1, -135.68, -111.63)" filter="url(#Elipse_8268-2)">
          <circle id="Elipse_8268-6" data-name="Elipse 8268" cx="44" cy="44" r="44" transform="translate(135.87 112)" fill="#d07efc"/>
        </g>
        <ellipse id="Elipse_8271-2" data-name="Elipse 8271" cx="34.5" cy="35" rx="34.5" ry="35" transform="translate(10.196 9.371)" fill="#f6f6f6"/>
      </g>
    </g>
    <g id="Grupo_86401" data-name="Grupo 86401" transform="translate(-45 30)">
      <g transform="matrix(1, 0, 0, 1, 444.13, 2155)" filter="url(#Elipse_8268-3)">
        <ellipse id="Elipse_8268-7" data-name="Elipse 8268" cx="44.5" cy="44" rx="44.5" ry="44" transform="translate(564.87 112)" fill="#18b6fe"/>
      </g>
      <ellipse id="Elipse_8271-3" data-name="Elipse 8271" cx="34.5" cy="35" rx="34.5" ry="35" transform="translate(1019 2276)" fill="#f6f6f6"/>
    </g>
    <g id="Grupo_86400" data-name="Grupo 86400" transform="translate(-85 -37.026)">
      <g transform="matrix(1, 0, 0, 1, 484.13, 2222.03)" filter="url(#Elipse_8268-4)">
        <circle id="Elipse_8268-8" data-name="Elipse 8268" cx="43" cy="43" r="43" transform="translate(639.87 311.97)" fill="#bcfcff"/>
      </g>
      <ellipse id="Elipse_8271-4" data-name="Elipse 8271" cx="33.5" cy="35" rx="33.5" ry="35" transform="translate(1134 2542)" fill="#f6f6f6"/>
    </g>
    <g id="Grupo_86404" data-name="Grupo 86404" transform="translate(93.99 -37.026)">
      <g id="Grupo_86299" data-name="Grupo 86299" transform="translate(390 2534.496)">
        <g transform="matrix(1, 0, 0, 1, -84.86, -312.47)" filter="url(#Trazado_151361)">
          <path id="Trazado_151361-2" data-name="Trazado 151361" d="M43.5,0A43.5,43.5,0,1,1,0,43.5,43.5,43.5,0,0,1,43.5,0Z" transform="translate(84.86 312.47)" fill="#7ff9ff"/>
        </g>
        <ellipse id="Elipse_8271-5" data-name="Elipse 8271" cx="33.5" cy="35" rx="33.5" ry="35" transform="translate(10 8.504)" fill="#f6f6f6"/>
      </g>
    </g>
    <path id="users-regular" d="M36.675,44.944a5.393,5.393,0,1,0-5.393-5.393A5.392,5.392,0,0,0,36.675,44.944Zm0-7.551a2.157,2.157,0,1,1-2.157,2.157A2.164,2.164,0,0,1,36.675,37.393Zm-30.2,7.551a5.393,5.393,0,1,0-5.393-5.393A5.392,5.392,0,0,0,6.472,44.944Zm0-7.551a2.157,2.157,0,1,1-2.157,2.157A2.164,2.164,0,0,1,6.472,37.393ZM33.2,51.612A7.685,7.685,0,0,0,24.58,48.8a10.279,10.279,0,0,1-6.027,0,7.675,7.675,0,0,0-8.616,2.811,7.726,7.726,0,0,0-1.321,4.335v3.02A3.237,3.237,0,0,0,11.852,62.2H31.268A3.237,3.237,0,0,0,34.5,58.967v-3.02A7.611,7.611,0,0,0,33.2,51.612Zm-1.915,7.355H11.866v-3.02a4.543,4.543,0,0,1,4.409-4.53,13.555,13.555,0,0,0,10.6,0,4.538,4.538,0,0,1,4.409,4.53Zm6.2-11.866H35.866a5.643,5.643,0,0,0-3.155.964,9.851,9.851,0,0,1,2.319,2.441,2.457,2.457,0,0,1,.829-.169h1.618A2.434,2.434,0,0,1,39.9,52.765a1.618,1.618,0,1,0,3.236,0A5.661,5.661,0,0,0,37.484,47.1Zm-15.911,0a7.551,7.551,0,1,0-7.551-7.551A7.547,7.547,0,0,0,21.574,47.1Zm0-11.866a4.315,4.315,0,1,1-4.315,4.315A4.319,4.319,0,0,1,21.574,35.236ZM10.436,48.066A5.643,5.643,0,0,0,7.281,47.1H5.663A5.671,5.671,0,0,0,0,52.765a1.618,1.618,0,1,0,3.236,0,2.434,2.434,0,0,1,2.427-2.427H7.281a2.392,2.392,0,0,1,.829.169A10,10,0,0,1,10.436,48.066Z" transform="translate(1060.43 2492.72)" fill="#38cbd2"/>
    <path id="pen-nib-regular" d="M33.761,6.535l-5.3-5.3a4.23,4.23,0,0,0-5.983,0l-6.32,6.32L9.338,9.488a4.375,4.375,0,0,0-2.961,2.827L0,31.445,3.555,35l19.131-6.377a4.375,4.375,0,0,0,2.827-2.961l1.928-6.824,6.32-6.32a4.23,4.23,0,0,0,0-5.983ZM22.355,24.77a1.094,1.094,0,0,1-.707.74L5.731,30.816l7.081-7.081a3.312,3.312,0,1,0-1.546-1.546L4.184,29.27,9.49,13.352a1.094,1.094,0,0,1,.74-.707l6.824-1.928.072-.021L24.3,17.874l-.02.071-1.93,6.825ZM31.441,10.2l-5.087,5.087L19.716,8.646,24.8,3.559a.959.959,0,0,1,1.343,0l5.3,5.3a.95.95,0,0,1,0,1.343Z" transform="translate(562 2324)" fill="#b154e3"/>
    <path id="chart-network-regular" d="M39.831,25.9a5.026,5.026,0,0,0-3.45,1.381L30.9,24.146a7.792,7.792,0,0,0-7.335-10.589,7.618,7.618,0,0,0-1.711.2L19.593,8.922A5.026,5.026,0,1,0,16.269,10.2a1.737,1.737,0,0,0,.189-.021L18.808,15.2a7.834,7.834,0,1,0,10.28,11.781l5.764,3.3a5.229,5.229,0,0,0-.07.666A5.049,5.049,0,1,0,39.831,25.9ZM16.269,6.825a1.683,1.683,0,1,1,1.683-1.683A1.688,1.688,0,0,1,16.269,6.825ZM23.562,25.9a4.488,4.488,0,1,1,4.488-4.488A4.492,4.492,0,0,1,23.562,25.9Zm16.269,6.732a1.683,1.683,0,1,1,1.683-1.683A1.688,1.688,0,0,1,39.831,32.631ZM36.016,14.314l-1.346-1.8L31.3,15.044l1.346,1.8Zm4.376-.757A4.488,4.488,0,1,0,35.9,9.069,4.492,4.492,0,0,0,40.392,13.557ZM10.659,22.533h3.366V20.289H10.659Zm-6.171-5.61a4.488,4.488,0,1,0,4.488,4.488A4.492,4.492,0,0,0,4.488,16.923Z" transform="translate(504 2522.926)" fill="#38cbd2"/>
    <path id="tachometer-alt-fastest-regular" d="M30.357,47.786a2.429,2.429,0,1,0-2.429-2.429A2.429,2.429,0,0,0,30.357,47.786ZM9.714,51.429a2.429,2.429,0,1,0,2.429,2.429A2.429,2.429,0,0,0,9.714,51.429Zm12.143-7.286a2.429,2.429,0,1,0-2.429-2.429A2.429,2.429,0,0,0,21.857,44.143Zm11.785,7.929-7.731,1.547a4.844,4.844,0,0,0-8.237,5.1h8.367a4.969,4.969,0,0,0,.545-1.517l7.772-1.554a1.821,1.821,0,0,0-.716-3.572ZM13.357,42.929a2.429,2.429,0,1,0,2.429,2.429A2.429,2.429,0,0,0,13.357,42.929ZM21.857,32A21.856,21.856,0,0,0,2.964,64.846,2.4,2.4,0,0,0,5.047,66H38.667a2.4,2.4,0,0,0,2.083-1.154A21.856,21.856,0,0,0,21.857,32Zm16.11,30.357H5.747a18.214,18.214,0,1,1,32.22,0Z" transform="translate(988.643 2292)" fill="#16aff5"/>
    <path id="tools-light" d="M35.666,27.64l-8.828-8.835a5.676,5.676,0,0,0-7.146-.717l-6.067-6.067V6.812L4.542,0,0,4.542l6.812,9.083h5.209l6.067,6.067a5.675,5.675,0,0,0,.724,7.146l8.835,8.835a2.269,2.269,0,0,0,1.6.667,2.239,2.239,0,0,0,1.6-.667l4.818-4.818a2.281,2.281,0,0,0-.007-3.215ZM11.354,11.219v.135H7.948L3,4.755,4.755,3l6.6,4.946Zm17.89,22.843-8.828-8.835a3.4,3.4,0,1,1,4.811-4.811l8.835,8.828Zm-24.7-3.406A1.135,1.135,0,1,0,5.677,29.52,1.139,1.139,0,0,0,4.542,30.656Zm15.1-25.908a8.369,8.369,0,0,1,5.947-2.477,8.558,8.558,0,0,1,1.469.128L22.14,7.323l.979,5.89,5.9.979,4.918-4.918a8.362,8.362,0,0,1-2.349,7.416,8.254,8.254,0,0,1-2.129,1.526l1.675,1.675a10.275,10.275,0,0,0,2.058-1.6A10.622,10.622,0,0,0,36.006,8.125a1.921,1.921,0,0,0-1.355-1.391,1.949,1.949,0,0,0-1.895.5l-4.535,4.535-3.137-.525L24.56,8.1l4.535-4.535a1.933,1.933,0,0,0-.9-3.243A10.64,10.64,0,0,0,18.032,3.144,10.41,10.41,0,0,0,15.9,6.266v4.811l1.568,1.568a8.358,8.358,0,0,1,2.179-7.9ZM7.593,33.147a3.2,3.2,0,0,1-4.414,0,3.131,3.131,0,0,1,0-4.414L13.547,18.365l-1.6-1.6L1.575,27.129a5.39,5.39,0,0,0,3.811,9.2A5.334,5.334,0,0,0,9.2,34.75l7.224-7.217a8.226,8.226,0,0,1-1.1-2.115Z" transform="translate(783.833 2234.83)" fill="#634acc"/>
  </g>
</svg>
