<svg xmlns="http://www.w3.org/2000/svg" width="400" height="278.199" viewBox="0 0 400 278.199">
  <g id="Grupo_86355" data-name="Grupo 86355" transform="translate(-2288.656 -253.247)">
    <rect id="Rectángulo_7377" data-name="Rectángulo 7377" width="10.852" height="6.383" transform="translate(2360.924 338.992)" fill="#8fb9cf"/>
    <rect id="Rectángulo_7378" data-name="Rectángulo 7378" width="6.383" height="5.426" transform="matrix(0.668, -0.745, 0.745, 0.668, 2383.55, 350.216)" fill="#8fb9cf"/>
    <rect id="Rectángulo_7379" data-name="Rectángulo 7379" width="5.426" height="6.383" transform="matrix(0.745, -0.668, 0.668, 0.745, 2340.788, 349.085)" fill="#8fb9cf"/>
    <path id="Trazado_151388" data-name="Trazado 151388" d="M3167.288,917.146s.226-21.018,16.964-33.458,30.31-13.119,32.459-15.381,2.052,7.572,1.939,11.417.644,16.844-7.255,29.516-33.024,13.351-33.024,13.351Z" transform="translate(-604.427 -392.245)" fill="#efd3fe"/>
    <path id="Trazado_151389" data-name="Trazado 151389" d="M3197.262,912.467a.278.278,0,0,1-.231-.431,106.775,106.775,0,0,1,16.741-18.888,127.741,127.741,0,0,1,13.618-10.026c3.815-2.529,6.572-4.356,7.413-5.864a.278.278,0,1,1,.485.271c-.908,1.626-3.711,3.484-7.592,6.056a127.36,127.36,0,0,0-13.561,9.983,106.2,106.2,0,0,0-16.642,18.775A.277.277,0,0,1,3197.262,912.467Z" transform="translate(-623.376 -398.079)" fill="#d07efc"/>
    <path id="Trazado_151390" data-name="Trazado 151390" d="M3237.914,941.005a73.1,73.1,0,0,1-13.2-1.24.278.278,0,1,1,.114-.544c.133.028,13.468,2.751,24.016,0a.278.278,0,0,1,.14.537A44.715,44.715,0,0,1,3237.914,941.005Z" transform="translate(-640.929 -437.704)" fill="#d07efc"/>
    <path id="Trazado_151391" data-name="Trazado 151391" d="M3268.221,908.589a62.335,62.335,0,0,1-7.58-.524.278.278,0,0,1,.076-.55c.084.012,8.417,1.144,12.786.007a.278.278,0,0,1,.14.537A22.751,22.751,0,0,1,3268.221,908.589Z" transform="translate(-663.841 -417.474)" fill="#d07efc"/>
    <path id="Trazado_151392" data-name="Trazado 151392" d="M3218.848,970.378c-6.279,0-16.944-2.338-17.484-2.458a.278.278,0,1,1,.12-.542c.158.035,15.847,3.476,20.383,2.135a.278.278,0,0,1,.157.532A11.887,11.887,0,0,1,3218.848,970.378Z" transform="translate(-626.031 -455.67)" fill="#d07efc"/>
    <path id="Trazado_151393" data-name="Trazado 151393" d="M3208.37,934.6a.278.278,0,0,1-.269-.211c-.017-.068-1.666-6.834,0-12.958a.277.277,0,0,1,.535.145c-1.628,5.982-.015,12.613,0,12.679a.278.278,0,0,1-.2.336A.272.272,0,0,1,3208.37,934.6Z" transform="translate(-629.995 -426.225)" fill="#d07efc"/>
    <path id="Trazado_151394" data-name="Trazado 151394" d="M3238.933,907.929h0a.279.279,0,0,1-.273-.282c0-.255.119-6.3,1.629-10.2a.277.277,0,1,1,.517.2c-1.475,3.812-1.59,9.946-1.591,10.008A.278.278,0,0,1,3238.933,907.929Z" transform="translate(-649.965 -410.94)" fill="#d07efc"/>
    <path id="Trazado_151395" data-name="Trazado 151395" d="M2452.911,903.6c-5.089-6.4-4.82-12.507-11.854-18.841s-16.76-7.012-20.6-9.16-4.3,3.053-3.393,8.029-4.355,27.252,17.728,35.932S2452.911,903.6,2452.911,903.6Z" transform="translate(-125.467 -396.793)" fill="#efd3fe"/>
    <path id="Trazado_151396" data-name="Trazado 151396" d="M2483.5,937.286a.278.278,0,0,1-.277-.259c-.543-8.029,3.931-15.626,3.975-15.7a.278.278,0,0,1,.478.284c-.045.074-4.43,7.528-3.9,15.38a.277.277,0,0,1-.258.3Z" transform="translate(-167.906 -426.202)" fill="#d07efc"/>
    <path id="Trazado_151397" data-name="Trazado 151397" d="M2450.837,960.856a.277.277,0,0,1-.145-.041c-6.5-3.993-18.293-3.513-18.412-3.509a.273.273,0,0,1-.29-.265.278.278,0,0,1,.265-.29c.49-.023,12.08-.493,18.727,3.59a.278.278,0,0,1-.146.514Z" transform="translate(-135.247 -448.877)" fill="#d07efc"/>
    <path id="Trazado_151398" data-name="Trazado 151398" d="M2449.321,921.785a.278.278,0,0,1-.273-.23c-1.83-10.634-7.7-19.845-12.307-25.7a75.453,75.453,0,0,0-9.65-10.26.278.278,0,0,1,.355-.426,76,76,0,0,1,9.731,10.344c4.644,5.905,10.568,15.2,12.418,25.949a.278.278,0,0,1-.226.321A.306.306,0,0,1,2449.321,921.785Z" transform="translate(-132.057 -403.176)" fill="#d07efc"/>
    <path id="Trazado_151399" data-name="Trazado 151399" d="M2469.165,659.173c-9.724,5.247-17.414,33.068-16.058,35.1s12.179,9.918,18.078,12.876,4-6.995,4-6.995-11.659-9.274-11.212-10.631,4.632-14.25,4.632-14.25Z" transform="translate(-148.622 -259.014)" fill="#ffab40"/>
    <rect id="Rectángulo_7380" data-name="Rectángulo 7380" width="400" height="3.444" transform="translate(2288.656 528.001)" fill="#aecbc7"/>
    <path id="Trazado_151400" data-name="Trazado 151400" d="M2900.785,264.729s3.012-2.106,3.012-4.623-3.817-7.1-9.076-6.419-6.786,1.527-6.786,1.527-5.576-5.089-12.289,1.1,3.043,12.553,8.811,6.107c0,0-2.94,6.842,2.261,7.493S2900.785,264.729,2900.785,264.729Z" transform="translate(-416.887 0)" fill="#60100f"/>
    <path id="Trazado_151401" data-name="Trazado 151401" d="M2940.264,387.009s-13.911-4.672-14.589-5.642c-.34-.485-.72-3.206-1.018-5.812s-.509-5.1-.509-5.1l6.728-.522s-.115,3-.024,5.381a7.242,7.242,0,0,0,.42,2.816c.679.794,11.057,5.825,11.553,7.294S2940.264,387.009,2940.264,387.009Z" transform="translate(-449.284 -74.455)" fill="#ffac95"/>
    <path id="Trazado_151402" data-name="Trazado 151402" d="M2930.852,375.314a33.9,33.9,0,0,0-6.2.241c-.3-2.609-.509-5.1-.509-5.1l6.728-.522S2930.761,372.929,2930.852,375.314Z" transform="translate(-449.284 -74.455)" fill="#e9928b"/>
    <g id="Grupo_86325" data-name="Grupo 86325" transform="translate(2475.146 276.304)">
      <path id="Trazado_151403" data-name="Trazado 151403" d="M2934.2,338.9a4.42,4.42,0,0,1-3.01,1.289,8.117,8.117,0,0,1-1.357.013,6.443,6.443,0,0,0-4.909,1.581l.305-12.184.319-12.642a8.553,8.553,0,0,1,5.938,8.031C2931.657,329.852,2932.5,337.656,2934.2,338.9Z" transform="translate(-2924.926 -316.956)" fill="#c92041"/>
    </g>
    <g id="Grupo_86326" data-name="Grupo 86326" transform="translate(2474.864 283.375)" opacity="0.65">
      <path id="Trazado_151404" data-name="Trazado 151404" d="M2930.7,352.653a8.13,8.13,0,0,1-1.356.013,6.445,6.445,0,0,0-4.91,1.581l-.282-10.623.587-1.561,2.1-5.571s4.472,5.622,3.362,8.934A10.349,10.349,0,0,0,2930.7,352.653Z" transform="translate(-2924.148 -336.493)" fill="#a91b33"/>
    </g>
    <path id="Trazado_151405" data-name="Trazado 151405" d="M3330.254,629.935a49.606,49.606,0,0,0-9.946-4.23c-5.548-1.64-13.749-5.87-13.749-5.87l-.518,11.308s11.912,7.165,16.4,7.51S3330.254,629.935,3330.254,629.935Z" transform="translate(-692.963 -233.914)" fill="#60dfe5"/>
    <path id="Trazado_151406" data-name="Trazado 151406" d="M3352.841,579.357s-2.7-1.467-3.452-3.424,1.093-4.373,3.223-4.719a3.722,3.722,0,0,1,3.395,1.323,3.645,3.645,0,0,1,4.374-1.957c3.338.691,2.935,4.546,2.762,6.157s.863-.4,5.007,2.244-1.842,10.646-4.892,12.488-.252,4.945-4.77,4.891S3352.841,579.357,3352.841,579.357Z" transform="translate(-720.514 -202.412)" fill="#0c1b3c"/>
    <path id="Trazado_151407" data-name="Trazado 151407" d="M3444.276,954.962c-1.292,1.2-5.157,2.284-5.157,2.284a7.026,7.026,0,0,0-.943-2.178,27.422,27.422,0,0,0-1.55-2.321l5.231-3.824,1.4,3.491Z" transform="translate(-776.286 -443.898)" fill="#e9928b"/>
    <path id="Trazado_151408" data-name="Trazado 151408" d="M3436.538,965.609a17.751,17.751,0,0,1,4.3,5.587l-16.339,7.231s-.058-1.873,3.631-5.2c2.234-2.017,3.3-2.521,3.254-5.332Z" transform="translate(-768.547 -454.545)" fill="#0c1b3c"/>
    <rect id="Rectángulo_7381" data-name="Rectángulo 7381" width="17.873" height="1.554" transform="translate(2655.949 523.881) rotate(-23.872)" fill="#8dbcd6"/>
    <path id="Trazado_151409" data-name="Trazado 151409" d="M3446.628,975.816a4.511,4.511,0,0,0-3.524-.115l-.083-.165a4.608,4.608,0,0,1,3.678.109Z" transform="translate(-780.367 -460.676)" fill="#fff"/>
    <path id="Trazado_151410" data-name="Trazado 151410" d="M3443.63,980.956a4.853,4.853,0,0,0-2.791-.368l-.033-.182a4.947,4.947,0,0,1,2.912.388Z" transform="translate(-778.953 -463.943)" fill="#fff"/>
    <path id="Trazado_151411" data-name="Trazado 151411" d="M3439.7,984.663a3.065,3.065,0,0,0-2.221-.709l-.016-.184a3.186,3.186,0,0,1,2.373.767Z" transform="translate(-776.822 -466.128)" fill="#fff"/>
    <path id="Trazado_151412" data-name="Trazado 151412" d="M3339.8,970.513l-.162,4.635-.068,1.87c-1.669.573-5.639,0-5.639,0a5.813,5.813,0,0,0,.068-1.87,25.589,25.589,0,0,0-.529-3.254Z" transform="translate(-710.462 -457.674)" fill="#e9928b"/>
    <path id="Trazado_151413" data-name="Trazado 151413" d="M3333.466,971.894l6.331-1.381-.162,4.635h-5.64A25.589,25.589,0,0,0,3333.466,971.894Z" transform="translate(-710.462 -457.674)" fill="#de6667"/>
    <path id="Trazado_151414" data-name="Trazado 151414" d="M3443.255,952.414l-5.079,2.653a27.422,27.422,0,0,0-1.55-2.321l5.231-3.824Z" transform="translate(-776.286 -443.898)" fill="#de6667"/>
    <path id="Trazado_151415" data-name="Trazado 151415" d="M3321.764,988.483a17.759,17.759,0,0,1,1.669,6.848h-17.868s.7-1.737,5.426-3.289c2.86-.941,4.041-.969,5.134-3.559Z" transform="translate(-692.659 -469.141)" fill="#0c1b3c"/>
    <path id="Trazado_151416" data-name="Trazado 151416" d="M3335.778,993.82a4.493,4.493,0,0,0-3.177-1.531l-.009-.185a4.6,4.6,0,0,1,3.32,1.588Z" transform="translate(-709.905 -471.451)" fill="#fff"/>
    <path id="Trazado_151417" data-name="Trazado 151417" d="M3331.057,996.906a4.851,4.851,0,0,0-2.4-1.467l.043-.18a4.951,4.951,0,0,1,2.507,1.534Z" transform="translate(-707.392 -473.465)" fill="#fff"/>
    <path id="Trazado_151418" data-name="Trazado 151418" d="M3325.98,998.607a3.052,3.052,0,0,0-1.744-1.547l.059-.175a3.185,3.185,0,0,1,1.859,1.662Z" transform="translate(-704.573 -474.502)" fill="#fff"/>
    <path id="Trazado_151419" data-name="Trazado 151419" d="M3394.05,836.008l-9.721,4.957s-8.19-10.7-14.318-19.462L3370,821.5a.639.639,0,0,0-.044-.065c-.01-.017-.023-.034-.037-.058a92.561,92.561,0,0,1-5.964-9.307c-2.355-4.716-4.51-22.759-5.534-32.527-.4-3.817-.631-6.372-.631-6.372l13.387-2.208,1.283-.214,3.457-.57s2.016,33.606,2.7,35.792S3394.05,836.008,3394.05,836.008Z" transform="translate(-725.985 -329.843)" fill="#376f92"/>
    <path id="Trazado_151420" data-name="Trazado 151420" d="M3372.624,782.183c-2.206,6.786.678,12.723-2.375,23.387-2.778,9.7.225,14.942.788,15.8a92.5,92.5,0,0,1-5.964-9.307c-2.355-4.716-4.51-22.759-5.534-32.527l12.757-8.58,1.164-.784s.051.2.119.57A24.036,24.036,0,0,1,3372.624,782.183Z" transform="translate(-727.098 -329.843)" fill="#1b5175"/>
    <path id="Trazado_151421" data-name="Trazado 151421" d="M3326.209,756.448s-5.41,34.988-5.64,38.671,2.993,34.643,2.993,34.643h11.049s-.115-29.924.691-34.758c.554-3.327,9.479-21.262,12.706-35.03,1.463-6.237,1.756-11.619-.427-14.4-1.821-2.321-8.827,8.113-8.827,8.113Z" transform="translate(-702.226 -313.93)" fill="#376f92"/>
    <rect id="Rectángulo_7382" data-name="Rectángulo 7382" width="17.873" height="1.554" transform="translate(2612.906 526.19)" fill="#8dbcd6"/>
    <path id="Trazado_151422" data-name="Trazado 151422" d="M2409.645,954.693s.509-13.087,11.2-18.817a15.547,15.547,0,0,1,18.292,1.879s5.679-16.329,21.684-15.785,17.134,13.907,17.134,13.907,15.082-3.216,26.314,5.451,10.353,14.044,10.353,14.044Z" transform="translate(-120.989 -426.691)" fill="#adccc7"/>
    <path id="Trazado_151423" data-name="Trazado 151423" d="M2619.913,995.388l-.487-.268c3.467-6.305,10.979-8.511,11.054-8.533l.153.534C2630.56,987.143,2623.266,989.289,2619.913,995.388Z" transform="translate(-254.846 -467.932)" fill="#6eab9c"/>
    <path id="Trazado_151424" data-name="Trazado 151424" d="M2607.537,979.375h-6.674l-.149-2.46-.3-4.977h6.389l.492,4.977Z" transform="translate(-242.713 -458.584)" fill="#e9928b"/>
    <g id="Grupo_86327" data-name="Grupo 86327" transform="translate(2503.535 443.431)" opacity="0.4">
      <path id="Trazado_151425" data-name="Trazado 151425" d="M3047.1,804.428l-1.252-.7a2.46,2.46,0,0,1-1.269-2.187c0-.1,0-.2,0-.306s0-.2,0-.306a2.46,2.46,0,0,1,1.269-2.187l1.252-.7a2.47,2.47,0,0,0,1.187-2.8c0-.012-.007-.025-.011-.037a2.468,2.468,0,0,0-2.423-1.828l-1.437.023a2.484,2.484,0,0,1-2.206-1.287l-.271-.471a2.486,2.486,0,0,1-.017-2.561l.735-1.223a2.47,2.47,0,0,0-.371-3.015l-.03-.031a2.47,2.47,0,0,0-3.016-.371l-1.222.735a2.488,2.488,0,0,1-2.562-.016l-.471-.271a2.486,2.486,0,0,1-1.288-2.206l.024-1.436a2.469,2.469,0,0,0-1.828-2.424c-.012,0-.026-.007-.037-.012a2.474,2.474,0,0,0-2.8,1.187l-.7,1.253a2.463,2.463,0,0,1-2.187,1.269c-.1,0-.2,0-.306,0s-.2,0-.306,0a2.462,2.462,0,0,1-2.187-1.269l-.7-1.253a2.474,2.474,0,0,0-2.8-1.187c-.012,0-.026.007-.037.012a2.469,2.469,0,0,0-1.828,2.424l.023,1.436a2.485,2.485,0,0,1-1.287,2.206l-.471.271a2.486,2.486,0,0,1-2.56.016l-1.223-.735a2.47,2.47,0,0,0-3.016.371l-.03.031a2.47,2.47,0,0,0-.371,3.015l.735,1.223a2.489,2.489,0,0,1-.016,2.561c-.091.155-.181.313-.272.471a2.485,2.485,0,0,1-2.206,1.287l-1.436-.023a2.47,2.47,0,0,0-2.424,1.828c-.005.011-.007.025-.012.037a2.475,2.475,0,0,0,1.188,2.8l1.253.7a2.463,2.463,0,0,1,1.269,2.187c0,.1,0,.2,0,.306s0,.2,0,.306a2.463,2.463,0,0,1-1.269,2.187l-1.253.7a2.475,2.475,0,0,0-1.188,2.8c.005.012.007.025.012.037a2.47,2.47,0,0,0,2.424,1.828l1.436-.023a2.484,2.484,0,0,1,2.206,1.287c.091.158.18.316.272.471a2.489,2.489,0,0,1,.016,2.561l-.735,1.223a2.47,2.47,0,0,0,.371,3.016l.03.03a2.47,2.47,0,0,0,3.016.371l1.223-.735a2.486,2.486,0,0,1,2.56.016l.471.271a2.485,2.485,0,0,1,1.287,2.206l-.023,1.436a2.469,2.469,0,0,0,1.828,2.424c.012,0,.025.007.037.012a2.474,2.474,0,0,0,2.8-1.187l.7-1.253a2.461,2.461,0,0,1,2.188-1.269c.1,0,.2,0,.306,0s.2,0,.306,0a2.462,2.462,0,0,1,2.188,1.269l.7,1.253a2.474,2.474,0,0,0,2.8,1.187c.011,0,.025-.007.037-.012a2.469,2.469,0,0,0,1.828-2.424l-.024-1.436a2.486,2.486,0,0,1,1.288-2.206l.471-.271a2.488,2.488,0,0,1,2.562-.016l1.222.735a2.47,2.47,0,0,0,3.016-.371l.03-.03a2.471,2.471,0,0,0,.371-3.016l-.735-1.223a2.486,2.486,0,0,1,.017-2.561l.271-.471a2.483,2.483,0,0,1,2.206-1.287l1.437.023a2.468,2.468,0,0,0,2.423-1.828c0-.011.007-.025.011-.037A2.47,2.47,0,0,0,3047.1,804.428Zm-21.229,10.729a13.918,13.918,0,1,1,13.918-13.918A13.918,13.918,0,0,1,3025.867,815.156Z" transform="translate(-3003.366 -778.738)" fill="#d07efc"/>
    </g>
    <g id="Grupo_86328" data-name="Grupo 86328" transform="translate(2434.6 453.698)" opacity="0.4">
      <path id="Trazado_151426" data-name="Trazado 151426" d="M2876.857,844.68l-1.833-1.018a3.6,3.6,0,0,1-1.856-3.2c0-.149.007-.3.007-.448s0-.3-.007-.448a3.6,3.6,0,0,1,1.856-3.2l1.833-1.018a3.617,3.617,0,0,0,1.737-4.092c-.006-.017-.01-.037-.017-.054a3.612,3.612,0,0,0-3.545-2.674l-2.1.034a3.634,3.634,0,0,1-3.226-1.883c-.133-.231-.265-.461-.4-.689a3.638,3.638,0,0,1-.024-3.746l1.076-1.788a3.613,3.613,0,0,0-.543-4.411l-.044-.044a3.613,3.613,0,0,0-4.411-.543l-1.788,1.076a3.639,3.639,0,0,1-3.746-.024c-.227-.133-.458-.265-.689-.4a3.633,3.633,0,0,1-1.883-3.226l.034-2.1a3.612,3.612,0,0,0-2.674-3.546c-.017-.006-.038-.01-.055-.017a3.617,3.617,0,0,0-4.091,1.737l-1.018,1.832a3.6,3.6,0,0,1-3.2,1.855c-.149,0-.3-.006-.448-.006s-.3,0-.447.006a3.6,3.6,0,0,1-3.2-1.855l-1.017-1.832a3.618,3.618,0,0,0-4.092-1.737c-.018.007-.038.011-.055.017a3.612,3.612,0,0,0-2.673,3.546l.034,2.1a3.632,3.632,0,0,1-1.883,3.226c-.231.133-.462.265-.689.4a3.64,3.64,0,0,1-3.746.024l-1.788-1.076a3.613,3.613,0,0,0-4.411.543l-.043.044a3.612,3.612,0,0,0-.543,4.411l1.075,1.788a3.64,3.64,0,0,1-.024,3.746c-.132.227-.265.458-.4.689a3.633,3.633,0,0,1-3.226,1.883l-2.1-.034a3.612,3.612,0,0,0-3.545,2.674c-.007.017-.01.038-.017.054a3.618,3.618,0,0,0,1.737,4.092l1.833,1.018a3.6,3.6,0,0,1,1.855,3.2c0,.149-.007.3-.007.448s0,.3.007.448a3.6,3.6,0,0,1-1.855,3.2l-1.833,1.018a3.618,3.618,0,0,0-1.737,4.092c.007.017.01.037.017.054a3.611,3.611,0,0,0,3.545,2.674l2.1-.034a3.632,3.632,0,0,1,3.226,1.883c.133.231.265.461.4.689a3.64,3.64,0,0,1,.024,3.746l-1.075,1.788a3.612,3.612,0,0,0,.543,4.411l.043.044a3.613,3.613,0,0,0,4.411.543l1.788-1.076a3.64,3.64,0,0,1,3.746.024c.227.133.458.265.689.4a3.632,3.632,0,0,1,1.883,3.227l-.034,2.1a3.611,3.611,0,0,0,2.673,3.546c.017.007.037.01.055.017a3.618,3.618,0,0,0,4.092-1.737l1.017-1.832a3.6,3.6,0,0,1,3.2-1.856c.149,0,.3.007.447.007s.3,0,.448-.007a3.6,3.6,0,0,1,3.2,1.856l1.018,1.832a3.617,3.617,0,0,0,4.091,1.737c.017-.007.038-.011.055-.017a3.612,3.612,0,0,0,2.674-3.546l-.034-2.1a3.633,3.633,0,0,1,1.883-3.227c.231-.133.462-.265.689-.4a3.639,3.639,0,0,1,3.746-.024l1.788,1.076a3.612,3.612,0,0,0,4.411-.543l.044-.044a3.613,3.613,0,0,0,.543-4.411l-1.076-1.788a3.638,3.638,0,0,1,.024-3.746c.132-.227.264-.458.4-.689a3.633,3.633,0,0,1,3.226-1.883l2.1.034a3.612,3.612,0,0,0,3.545-2.674c.007-.017.01-.037.017-.054A3.616,3.616,0,0,0,2876.857,844.68Zm-31.052,15.692a20.357,20.357,0,1,1,20.358-20.358A20.356,20.356,0,0,1,2845.805,860.372Z" transform="translate(-2812.895 -807.105)" fill="#d07efc"/>
      <circle id="Elipse_8283" data-name="Elipse 8283" cx="9.189" cy="9.189" r="9.189" transform="translate(23.721 23.891)" fill="#d07efc"/>
    </g>
    <path id="Trazado_151427" data-name="Trazado 151427" d="M2918.777,630.809l-202.215,3.732-4.75-3.732V512.737h206.965l4.75,3.732Z" transform="translate(-313.796 -165.576)" fill="#7ff9ff"/>
    <path id="Trazado_151428" data-name="Trazado 151428" d="M2918.777,462.981l-202.215,3.732-4.75-3.732V448.052h206.965l4.75,3.732Z" transform="translate(-313.796 -124.302)" fill="#7ff9ff"/>
    <rect id="Rectángulo_7383" data-name="Rectángulo 7383" width="206.965" height="118.072" transform="translate(2402.766 350.893)" fill="#d1fdff"/>
    <circle id="Elipse_8284" data-name="Elipse 8284" cx="29.693" cy="29.693" r="29.693" transform="translate(2324.358 373.626) rotate(-45)" fill="#b2d3e4"/>
    <path id="Trazado_151429" data-name="Trazado 151429" d="M2604.81,540.729v.058a25.536,25.536,0,1,1,0-.058Z" transform="translate(-212.894 -167.162)" fill="#fff"/>
    <path id="Trazado_151430" data-name="Trazado 151430" d="M2649.882,540.729h-25.565V515.222A25.563,25.563,0,0,1,2649.882,540.729Z" transform="translate(-257.967 -167.162)" fill="#dceceb"/>
    <g id="Grupo_86329" data-name="Grupo 86329" transform="translate(2365.818 350.163)">
      <rect id="Rectángulo_7384" data-name="Rectángulo 7384" width="1.064" height="3.418" transform="translate(0 0)" fill="#8fb9cf"/>
      <rect id="Rectángulo_7385" data-name="Rectángulo 7385" width="1.064" height="3.418" transform="translate(0 43.394)" fill="#8fb9cf"/>
    </g>
    <g id="Grupo_86330" data-name="Grupo 86330" transform="translate(2342.944 373.012)">
      <rect id="Rectángulo_7386" data-name="Rectángulo 7386" width="1.064" height="3.418" transform="translate(43.394 1.11) rotate(-89.94)" fill="#8fb9cf"/>
      <rect id="Rectángulo_7387" data-name="Rectángulo 7387" width="1.064" height="3.418" transform="translate(0 1.064) rotate(-89.938)" fill="#8fb9cf"/>
    </g>
    <g id="Grupo_86331" data-name="Grupo 86331" transform="translate(2353.985 353.148)">
      <rect id="Rectángulo_7388" data-name="Rectángulo 7388" width="3.418" height="1.064" transform="matrix(0.509, -0.861, 0.861, 0.509, 22.076, 2.942)" fill="#8fb9cf"/>
      <rect id="Rectángulo_7389" data-name="Rectángulo 7389" width="3.418" height="1.064" transform="translate(0 40.302) rotate(-59.42)" fill="#8fb9cf"/>
    </g>
    <g id="Grupo_86332" data-name="Grupo 86332" transform="translate(2345.941 361.183)">
      <rect id="Rectángulo_7390" data-name="Rectángulo 7390" width="1.064" height="3.418" transform="matrix(0.51, -0.86, 0.86, 0.51, 37.336, 23.031)" fill="#8fb9cf"/>
      <rect id="Rectángulo_7391" data-name="Rectángulo 7391" width="1.064" height="3.418" transform="matrix(0.51, -0.86, 0.86, 0.51, 0, 0.915)" fill="#8fb9cf"/>
    </g>
    <g id="Grupo_86333" data-name="Grupo 86333" transform="translate(2345.716 361.581)">
      <rect id="Rectángulo_7392" data-name="Rectángulo 7392" width="3.418" height="1.064" transform="translate(37.768 1.683) rotate(-29.499)" fill="#8fb9cf"/>
      <rect id="Rectángulo_7393" data-name="Rectángulo 7393" width="3.418" height="1.064" transform="translate(0 23.051) rotate(-29.499)" fill="#8fb9cf"/>
    </g>
    <g id="Grupo_86334" data-name="Grupo 86334" transform="translate(2354.383 352.924)">
      <rect id="Rectángulo_7394" data-name="Rectángulo 7394" width="1.064" height="3.418" transform="translate(21.328 38.314) rotate(-29.439)" fill="#8fb9cf"/>
      <rect id="Rectángulo_7395" data-name="Rectángulo 7395" width="1.064" height="3.418" transform="matrix(0.871, -0.491, 0.491, 0.871, 0, 0.523)" fill="#8fb9cf"/>
    </g>
    <path id="Trazado_151431" data-name="Trazado 151431" d="M2635.556,563.272a.639.639,0,0,1-.319-.085l-12.684-7.312v-16.86a.638.638,0,1,1,1.276,0v16.122l12.046,6.944a.638.638,0,0,1-.319,1.191Z" transform="translate(-256.841 -181.936)" fill="#3fb8a9"/>
    <rect id="Rectángulo_7396" data-name="Rectángulo 7396" width="206.965" height="14.929" transform="translate(2402.766 327.482)" fill="#d1fdff"/>
    <g id="Grupo_86338" data-name="Grupo 86338" transform="translate(2411.022 332.798)">
      <g id="Grupo_86335" data-name="Grupo 86335" transform="translate(17.643 0)">
        <path id="Trazado_151432" data-name="Trazado 151432" d="M2800.794,475.2a2.149,2.149,0,1,1-2.149-2.149A2.149,2.149,0,0,1,2800.794,475.2Z" transform="translate(-2796.496 -473.051)" fill="#67b4d2"/>
      </g>
      <g id="Grupo_86336" data-name="Grupo 86336" transform="translate(8.821 0)">
        <circle id="Elipse_8285" data-name="Elipse 8285" cx="2.149" cy="2.149" r="2.149" fill="#eb908b"/>
      </g>
      <g id="Grupo_86337" data-name="Grupo 86337" transform="translate(0 0)">
        <circle id="Elipse_8286" data-name="Elipse 8286" cx="2.149" cy="2.149" r="2.149" fill="#ffaa3f"/>
      </g>
    </g>
    <path id="Trazado_151433" data-name="Trazado 151433" d="M3369.552,630.123l-7.854,2.246-.526-3.386-.509-3.26,6.731-3.02.027.1Z" transform="translate(-727.815 -235.743)" fill="#e9928b"/>
    <path id="Trazado_151434" data-name="Trazado 151434" d="M3367.42,622.8a4.011,4.011,0,0,1-.244.651,11.094,11.094,0,0,1-6.005,5.534l-.509-3.26,6.731-3.019Z" transform="translate(-727.816 -235.743)" fill="#de6667"/>
    <path id="Trazado_151435" data-name="Trazado 151435" d="M3363.634,691s-1.727.346-10.243,2.877-18.99-.573-18.99-.573-.062-1.938-.088-4.988c-.034-3.549-.02-8.608.187-13.884.1-2.65.258-5.35.479-7.946,1.034-12.2,9.9-21.033,9.9-21.033l7.855-2.246s4.23,1.3,5.727,8.085.919,16.228,1.266,19.336S3363.634,691,3363.634,691Z" transform="translate(-710.993 -248.825)" fill="#7ff9ff"/>
    <path id="Trazado_151436" data-name="Trazado 151436" d="M3357.313,668.657a75.8,75.8,0,0,1-2.419,16.306c-2.25,8.16-6.349,7.787-9.969,14.121-2.744,4.808-8.16,5.442-10.613,5.469-.034-3.549-.02-8.608.187-13.884l1.679-.142,9.541-9.446Z" transform="translate(-710.993 -265.066)" fill="#60dfe5"/>
    <path id="Trazado_151437" data-name="Trazado 151437" d="M3357.226,637.492c-1.123.462,1.036,3.125,1.036,3.125a30.942,30.942,0,0,0,8.891-3.384l-.986-3.389S3360.161,636.284,3357.226,637.492Z" transform="translate(-725.417 -242.852)" fill="#93405e"/>
    <path id="Trazado_151438" data-name="Trazado 151438" d="M2503.657,975.848l-.6,3.563-.417,2.46h-6.446l.38-2.46.553-3.562Z" transform="translate(-176.214 -461.078)" fill="#e9928b"/>
    <path id="Trazado_151439" data-name="Trazado 151439" d="M2497.8,975.848h6.531l-.6,3.563h-6.484Z" transform="translate(-176.883 -461.078)" fill="#de6667"/>
    <path id="Trazado_151440" data-name="Trazado 151440" d="M2607.292,976.916h-6.578l-.3-4.977h6.389Z" transform="translate(-242.713 -458.584)" fill="#de6667"/>
    <path id="Trazado_151441" data-name="Trazado 151441" d="M2516.041,790.908s-.207,3.657-.529,8.16c-.39,5.473-.947,12.194-1.507,15.081-.268,1.388-1.018,4.377-1.978,8.028-2.691,10.2-7.013,25.562-7.013,25.562h-8.822s1.866-25.277,2.633-28.67.251-14.759-.427-23.071,1.017-23.581,1.017-23.581l12.666,1.49,1.754.207.122.926.893,6.806.787,5.988Z" transform="translate(-176.214 -331.272)" fill="#856de9"/>
    <path id="Trazado_151442" data-name="Trazado 151442" d="M2533.793,807.25s-1.017,17.982-2.036,23.241c-.268,1.388-1.017,4.377-1.977,8.028a34.931,34.931,0,0,0-2.094-3.617c-5.262-7.98,2.375-13.232-1.811-20.527s0-16.347,0-16.347l7.515,6.148Z" transform="translate(-193.965 -347.615)" fill="#6349cf"/>
    <path id="Trazado_151443" data-name="Trazado 151443" d="M2493.95,992.488h6.446s1.018,2.375,2.46,2.884,5,.763,5,3.647h-15.183a26.026,26.026,0,0,1,.678-4.326A14.408,14.408,0,0,0,2493.95,992.488Z" transform="translate(-173.971 -471.697)" fill="#ffc945"/>
    <rect id="Rectángulo_7397" data-name="Rectángulo 7397" width="15.183" height="1.357" transform="translate(2318.707 527.323)" fill="#fff"/>
    <path id="Trazado_151444" data-name="Trazado 151444" d="M2562.625,847.738h-10.178s-7.465-28.839-7.634-30.875c-.136-1.622-5.646-11.091-9.86-17.8-1.076-1.717-2.07-3.254-2.864-4.428-2.491-3.681-4.014-10.131-4.791-14.311-.437-2.368-.638-4.01-.638-4.01l6.739-1.279,13.789-2.623s1.191,3.549,2.772,8.523c2.965,9.327,7.3,23.658,7.745,28.968C2558.384,818.05,2562.625,847.738,2562.625,847.738Z" transform="translate(-195.654 -331.272)" fill="#856de9"/>
    <path id="Trazado_151445" data-name="Trazado 151445" d="M2537.1,780.939a26.29,26.29,0,0,1-15.668.906c-.193-.051-.38-.105-.563-.16a51.712,51.712,0,0,0-6.43-1.357c-4.064-.648-7.932-1.015-7.932-1.015l12.156-5.408,1.754.207.122.926,13.789-2.623S2535.518,775.965,2537.1,780.939Z" transform="translate(-182.794 -331.272)" fill="#6349cf"/>
    <path id="Trazado_151446" data-name="Trazado 151446" d="M2599.565,992.488h6.672s3,3.054,6.22,3.393,4.92,1.187,5.768,3.138h-19.848Z" transform="translate(-241.415 -471.697)" fill="#ffc945"/>
    <rect id="Rectángulo_7398" data-name="Rectángulo 7398" width="19.848" height="1.357" transform="translate(2356.962 527.323)" fill="#fff"/>
    <path id="Trazado_151447" data-name="Trazado 151447" d="M2505.426,581.088l1.329-2.8a9.552,9.552,0,0,0,3.082-5.853c.34-3.563-4.75-6.362-8.143-3.138s-3.9,9.754-6.531,10.178-6.362,3.987-2.121,6.786a3.461,3.461,0,0,0,1.188,4.75c2.883,2.121,4.156,2.206,4.156,2.206s1.19,1.357,1.443.085a15.785,15.785,0,0,1,1.78-3.647Z" transform="translate(-172.977 -200.762)" fill="#0c1b3c"/>
    <path id="Trazado_151448" data-name="Trazado 151448" d="M2517.922,627.988l1.583,7.012-8.312,1.131v-6.616l1.443-3.826,4.79-.924Z" transform="translate(-185.785 -237.059)" fill="#e9928b"/>
    <path id="Trazado_151449" data-name="Trazado 151449" d="M2507.912,649.14l.6-3.11a24.258,24.258,0,0,1,8.709-.728l1.485,2.841Z" transform="translate(-183.691 -250.068)" fill="#ffab40"/>
    <path id="Trazado_151450" data-name="Trazado 151450" d="M2518.526,596.641s3.9,5.372,4.524,6.107-.736,1.3-1.188,2.658.84,4.637-.994,5.6-5.847-.735-7.488-3a3.121,3.121,0,0,1-3.393-1.979c-1.244-2.488.509-3.563,2.375-2.771s2.375-.509,2.036-2.206S2518.526,596.641,2518.526,596.641Z" transform="translate(-184.749 -219.114)" fill="#e9928b"/>
    <path id="Trazado_151451" data-name="Trazado 151451" d="M2625.786,559.856s.711-3.271,1.051-4.741,1.414-5.655,2.432-5.825-.339,4.58,0,5.033,3.11,1.075,3.167,2.375-1.843,5.053-1.843,5.053Z" transform="translate(-258.904 -188.898)" fill="#e9928b"/>
    <path id="Trazado_151452" data-name="Trazado 151452" d="M2957.119,521.545l-2,.472s-2.677,1.765-3.449,3.472-2.491,6.274-2.491,6.274l2.564.89s.78-3.411,1.969-3.088.962,3.566,3,4.812a50.648,50.648,0,0,0,6.711,2.912s-3.471-4.616-3.757-6.51a37.959,37.959,0,0,1,.392-6.822Z" transform="translate(-465.253 -171.196)" fill="#1c5276"/>
    <path id="Trazado_151453" data-name="Trazado 151453" d="M2972.916,501.574l-1.829,6.945-.563,2.148-4.94-1.937.187-1.768.662-6.243Z" transform="translate(-475.723 -157.907)" fill="#ffac95"/>
    <path id="Trazado_151454" data-name="Trazado 151454" d="M2966.761,500.719l6.484.855-1.828,6.945-5.317-1.557Z" transform="translate(-476.052 -157.907)" fill="#e9928b"/>
    <path id="Trazado_151455" data-name="Trazado 151455" d="M2951.888,429.277c-.5,2.2-1.194,4.753-2.08,7.732-.753,2.545-1.648,5.4-2.674,8.608l-2.165,5.6-3.369-.923-5.662-1.554-5.657-2.1s2.691-6.619,4.872-12.4v0c.611-1.629,1.184-3.186,1.646-4.516a27.363,27.363,0,0,0,1.062-3.546c.075-.489-.5-1.143-1.517-1.89-4.129-3.047-15.492-7.665-19.6-9.286-.947-.373-1.507-.587-1.507-.587l1.083-.672,3.1-1.93s1.778.153,4.482.424c6.314.634,17.683,1.917,23.227,3.423C2952.615,417.134,2953.978,420.089,2951.888,429.277Z" transform="translate(-443.601 -101.17)" fill="#18b6fe"/>
    <path id="Trazado_151456" data-name="Trazado 151456" d="M2948.563,418.867c1.1,1.063,7.492,1.088,11.14,4.311s2.488,11.284,2.488,11.284l-30.621-13.372Z" transform="translate(-454.02 -105.679)" fill="#0c8cc7"/>
    <path id="Trazado_151457" data-name="Trazado 151457" d="M2984.375,459c-.753,2.545-1.648,5.4-2.674,8.608l-2.756,5.6-8.44-2.477c.089-2.728,2.162-5.306.228-7.081-1.724-1.578-1.395-4.872-1.012-7.427v0a67.982,67.982,0,0,0,2.708-8.062c.075-.489-.5-1.143-1.516-1.89l8.034.532Z" transform="translate(-478.168 -123.165)" fill="#0c8cc7"/>
    <path id="Trazado_151458" data-name="Trazado 151458" d="M2999.9,534.3l-1.739,1.1s-1.95,2.545-2.12,4.411-.3,6.743-.3,6.743h2.713s-.381-3.478.849-3.562,2.078,3.054,4.411,3.562a50.652,50.652,0,0,0,7.295.552s-4.792-3.223-5.683-4.92a37.961,37.961,0,0,1-1.865-6.574Z" transform="translate(-494.971 -179.334)" fill="#1c5276"/>
    <path id="Trazado_151459" data-name="Trazado 151459" d="M3004.508,521.409l-5.3-.214-.75-3.227-1.076-4.621,6.406-1.313.38,4.94Z" transform="translate(-496.014 -165.128)" fill="#ffac95"/>
    <path id="Trazado_151460" data-name="Trazado 151460" d="M3004.169,516.974l-5.71.994-1.076-4.621,6.406-1.313Z" transform="translate(-496.014 -165.128)" fill="#e9928b"/>
    <path id="Trazado_151461" data-name="Trazado 151461" d="M2926.341,453.307l-14.365,2.148s-.078-.668-.217-1.771c-.655-5.178-2.637-19.964-3.967-20.452a3.731,3.731,0,0,0-.834-.129c-4.18-.346-21.3.18-30.8-1.059-5.395-.7-7.138-4.509-7.566-8.024a19.639,19.639,0,0,1,.356-6.311l17.538-.587.163-.007s1.018.1,2.7.278c7.448.8,27.9,3.281,30.21,6.4.5.679,1.456,4.346,2.491,8.879C2924.04,441.388,2926.341,453.307,2926.341,453.307Z" transform="translate(-413.757 -104.561)" fill="#18b6fe"/>
    <path id="Trazado_151462" data-name="Trazado 151462" d="M2894.064,412.224a18.488,18.488,0,0,1-3.824,1.5c-.309.088-.607.18-.9.278a19.927,19.927,0,0,0-2.439.987c-4.109,1.981-6.3,4.743-10.753,6.453a8.3,8.3,0,0,1-7.566-.814,19.64,19.64,0,0,1,.356-6.311l17.538-.587,3.1-1.93S2891.36,411.953,2894.064,412.224Z" transform="translate(-413.757 -101.17)" fill="#0c8cc7"/>
    <path id="Trazado_151463" data-name="Trazado 151463" d="M2889.034,332.3c-1.727,3.7-3.138,8.285-2.677,12.5.013.132.031.261.048.39.594,4.326-.136,5.419-1.877,5.154s-7.708,3.158-12.034,4.346-10.688-1.781-10.688-1.781,3.563-11.027,3.563-15.353c0-1.537-.115-4.309-.139-7.4-.041-5.592-2.2-11.561-.343-13.746,1.713-2.015,7.623-3.608,10.168-4.039a26.832,26.832,0,0,1,3.036-.349,13.107,13.107,0,0,1,7.974,2.249l.169.126c1.442,1.1.933,3.308,1.1,4.92S2890.815,328.485,2889.034,332.3Z" transform="translate(-409.504 -37.476)" fill="#c92041"/>
    <path id="Trazado_151464" data-name="Trazado 151464" d="M2909.381,314.066c-.013,2.731-1.1,5.345-4.618,5.078-7.82-.594-6.5-6.776-6.5-6.776a26.821,26.821,0,0,1,3.037-.349A13.446,13.446,0,0,1,2909.381,314.066Z" transform="translate(-432.715 -37.465)" fill="#f25876"/>
    <g id="Grupo_86339" data-name="Grupo 86339" transform="translate(2452.302 285.564)" opacity="0.65">
      <path id="Trazado_151465" data-name="Trazado 151465" d="M2884.528,369.849c-1.74-.265-7.708,3.158-12.034,4.346s-10.688-1.781-10.688-1.781,3.563-11.027,3.563-15.353c0-1.537-.115-4.309-.139-7.4,4.03-3.729,7.715-7.125,7.715-7.125s.991,10.535,3.281,13.5.289,3.942,4.6,5.069a14.489,14.489,0,0,1,5.534,3.193c.013.132.031.261.048.39C2887,369.021,2886.268,370.114,2884.528,369.849Z" transform="translate(-2861.806 -342.54)" fill="#98192c"/>
    </g>
    <path id="Trazado_151466" data-name="Trazado 151466" d="M2944.3,419.356v-.848l-12.927-.293-15.008,1.319v.848l12.927,1.141Z" transform="translate(-444.318 -105.263)" fill="#88afc4"/>
    <path id="Trazado_151467" data-name="Trazado 151467" d="M2944.3,417.012l-12.927-1.141-15.008,2.167,12.927,1.141Z" transform="translate(-444.318 -103.768)" fill="#8fb9cf"/>
    <path id="Trazado_151468" data-name="Trazado 151468" d="M2901.8,395.878c-.957.214-3.844-1.086-6.389-1.076s-18.674-3.844-20.428-6.389c-.153-.22-.3-.458-.451-.706a41.4,41.4,0,0,1-2.887-6.534l7.41.261s.566,1.32,1.082,2.266a6.885,6.885,0,0,0,.39.641c.563.79,14.023,6.674,16.286,7.237s3.552.156,4.832,1.476S2902.753,395.664,2901.8,395.878Z" transform="translate(-415.78 -81.627)" fill="#ffac95"/>
    <path id="Trazado_151469" data-name="Trazado 151469" d="M2879.051,381.434s.566,1.32,1.082,2.266a16.837,16.837,0,0,0-5.605,4.007,41.4,41.4,0,0,1-2.887-6.534Z" transform="translate(-415.78 -81.627)" fill="#e9928b"/>
    <path id="Trazado_151470" data-name="Trazado 151470" d="M2911.722,295.546a37.35,37.35,0,0,0-1.544,4.621,5.363,5.363,0,0,0-.153.977c-.054,1.584-.733,3.169-2.769,3.281-1.317.075-3.328-.963-4.713-2.392a3.452,3.452,0,0,1-.434-4.248l2.6-4.105a4.293,4.293,0,0,0,3.25-2.657c.716-1.53,1.975.54,2.837,2.355C2911.338,294.511,2911.722,295.546,2911.722,295.546Z" transform="translate(-434.879 -23.764)" fill="#ffac95"/>
    <path id="Trazado_151471" data-name="Trazado 151471" d="M2921.636,299.375a37.351,37.351,0,0,0-1.544,4.621c-4.153-2.09-2.755-7.505-2.755-7.505s1.561.326,3.376.716C2921.252,298.34,2921.636,299.375,2921.636,299.375Z" transform="translate(-444.793 -27.593)" fill="#e9928b"/>
    <path id="Trazado_151472" data-name="Trazado 151472" d="M3022.616,262.053h-40.15V275.88h7.155l-3.731,8.793,13.342-8.793h23.384Z" transform="translate(-486.496 -5.619)" fill="#b2e5e0"/>
    <g id="Grupo_86340" data-name="Grupo 86340" transform="translate(2414.736 365.493)">
      <path id="Trazado_151473" data-name="Trazado 151473" d="M2773.692,563.389a15.682,15.682,0,1,0,15.682,15.682A15.68,15.68,0,0,0,2773.692,563.389Zm0,25.775a10.094,10.094,0,1,1,10.094-10.094A10.094,10.094,0,0,1,2773.692,589.164Z" transform="translate(-2758.01 -563.389)" fill="#b2e5e0"/>
    </g>
    <rect id="Rectángulo_7399" data-name="Rectángulo 7399" width="20.018" height="2.488" transform="translate(2420.409 401.786)" fill="#fff"/>
    <g id="Grupo_86341" data-name="Grupo 86341" transform="translate(2462.163 365.493)">
      <path id="Trazado_151474" data-name="Trazado 151474" d="M2904.736,563.389a15.682,15.682,0,1,0,15.682,15.682A15.681,15.681,0,0,0,2904.736,563.389Zm0,25.775a10.094,10.094,0,1,1,10.094-10.094A10.094,10.094,0,0,1,2904.736,589.164Z" transform="translate(-2889.053 -563.389)" fill="#b2e5e0"/>
    </g>
    <rect id="Rectángulo_7400" data-name="Rectángulo 7400" width="20.018" height="2.488" transform="translate(2467.836 401.786)" fill="#fff"/>
    <g id="Grupo_86342" data-name="Grupo 86342" transform="translate(2509.931 365.493)">
      <path id="Trazado_151475" data-name="Trazado 151475" d="M3036.72,563.389a15.682,15.682,0,1,0,15.682,15.682A15.68,15.68,0,0,0,3036.72,563.389Zm0,25.775a10.094,10.094,0,1,1,10.094-10.094A10.094,10.094,0,0,1,3036.72,589.164Z" transform="translate(-3021.038 -563.389)" fill="#b2e5e0"/>
    </g>
    <g id="Grupo_86343" data-name="Grupo 86343" transform="translate(2418.468 366.85)">
      <path id="Trazado_151476" data-name="Trazado 151476" d="M2784,567.139c-.116,0-.227,0-.34.007a15.553,15.553,0,1,0,.34-.007Zm5.371,24.228a10.092,10.092,0,1,1-5.71-18.63c.113-.007.224-.01.34-.01a10.094,10.094,0,0,1,5.371,18.64Z" transform="translate(-2768.322 -567.139)" fill="#30bec5"/>
    </g>
    <g id="Grupo_86344" data-name="Grupo 86344" transform="translate(2465.894 366.85)">
      <path id="Trazado_151477" data-name="Trazado 151477" d="M2929.382,576.462c-.074-.173-.156-.343-.238-.512a15.719,15.719,0,1,0,.238.512Zm-9.734,15.339a10.092,10.092,0,1,1,4.027-14.219,9.888,9.888,0,0,1,.594,1.143,10.091,10.091,0,0,1-4.621,13.076Z" transform="translate(-2899.362 -567.139)" fill="#18b6fe"/>
    </g>
    <path id="Trazado_151478" data-name="Trazado 151478" d="M2966.491,598.356a15.676,15.676,0,0,1-8.53,13.958l-2.548-4.977a10.1,10.1,0,0,0,4.027-14.219l5.469-1.632A15.58,15.58,0,0,1,2966.491,598.356Z" transform="translate(-469.233 -215.824)" fill="#d07efc"/>
    <g id="Grupo_86345" data-name="Grupo 86345" transform="translate(2513.662 366.85)">
      <path id="Trazado_151479" data-name="Trazado 151479" d="M3058.111,571.726a15.686,15.686,0,1,0,4.6,11.095A15.617,15.617,0,0,0,3058.111,571.726Zm-6.023,19.828a10.094,10.094,0,1,1,5.036-8.733A10.035,10.035,0,0,1,3052.088,591.554Z" transform="translate(-3031.348 -567.139)" fill="#18b6fe"/>
    </g>
    <rect id="Rectángulo_7401" data-name="Rectángulo 7401" width="20.018" height="2.488" transform="translate(2515.604 401.786)" fill="#fff"/>
    <rect id="Rectángulo_7402" data-name="Rectángulo 7402" width="33.056" height="2.488" transform="translate(2563.782 445.752)" fill="#fff"/>
    <path id="Trazado_151480" data-name="Trazado 151480" d="M2762.435,748.3V721.324s9.5,2.375,12.044,10.857,11.366,12.045,15.947,9.331,4.318-10.009,10.387-12.554,9.8,3.732,16.926,10.688,16.625,8.312,24.09,2.036,14.674-7.974,20.315-2.206,8.185,6.277,14.631,5.089,10.617,3.732,10.617,3.732Z" transform="translate(-346.098 -298.671)" fill="#b2e5e0"/>
    <path id="Trazado_151481" data-name="Trazado 151481" d="M3142.4,781.322h0a2.629,2.629,0,0,0-2.629,2.63h0a2.629,2.629,0,0,0,2.629,2.629h0a2.63,2.63,0,0,0,2.63-2.629h0A2.63,2.63,0,0,0,3142.4,781.322Z" transform="translate(-586.866 -336.955)" fill="#fff"/>
    <rect id="Rectángulo_7403" data-name="Rectángulo 7403" width="114.075" height="2.488" transform="translate(2427.219 456.949)" fill="#fff"/>
    <path id="Trazado_151482" data-name="Trazado 151482" d="M2765.064,812.259h0a2.629,2.629,0,0,0-2.629,2.63h0a2.629,2.629,0,0,0,2.629,2.63h0a2.63,2.63,0,0,0,2.629-2.63h0A2.63,2.63,0,0,0,2765.064,812.259Z" transform="translate(-346.098 -356.695)" fill="#fff"/>
    <line id="Línea_215" data-name="Línea 215" x2="50.74" transform="translate(2564.303 361.92)" fill="#3fb8a9"/>
    <rect id="Rectángulo_7404" data-name="Rectángulo 7404" width="55.982" height="76.17" rx="7.243" transform="translate(2557.811 358.772)" fill="#b2e5e0"/>
    <rect id="Rectángulo_7405" data-name="Rectángulo 7405" width="55.982" height="76.17" rx="7.243" transform="translate(2561.682 361.92)" fill="#30bec5"/>
    <circle id="Elipse_8287" data-name="Elipse 8287" cx="8.217" cy="8.217" r="8.217" transform="matrix(0.23, -0.973, 0.973, 0.23, 2567.701, 383.283)" fill="#fff"/>
    <g id="Grupo_86353" data-name="Grupo 86353" transform="translate(2569.485 372.367)">
      <g id="Grupo_86346" data-name="Grupo 86346" transform="translate(0 48.857)">
        <rect id="Rectángulo_7406" data-name="Rectángulo 7406" width="42.185" height="2.007" fill="#fff"/>
      </g>
      <g id="Grupo_86347" data-name="Grupo 86347" transform="translate(0 40.714)">
        <rect id="Rectángulo_7407" data-name="Rectángulo 7407" width="42.185" height="2.007" fill="#fff"/>
      </g>
      <g id="Grupo_86348" data-name="Grupo 86348" transform="translate(0 32.572)">
        <rect id="Rectángulo_7408" data-name="Rectángulo 7408" width="42.185" height="2.007" fill="#fff"/>
      </g>
      <g id="Grupo_86349" data-name="Grupo 86349" transform="translate(0 24.429)">
        <rect id="Rectángulo_7409" data-name="Rectángulo 7409" width="42.185" height="2.007" fill="#fff"/>
      </g>
      <g id="Grupo_86350" data-name="Grupo 86350" transform="translate(0 16.286)">
        <rect id="Rectángulo_7410" data-name="Rectángulo 7410" width="42.185" height="2.007" fill="#fff"/>
      </g>
      <g id="Grupo_86351" data-name="Grupo 86351" transform="translate(23.75 8.143)">
        <rect id="Rectángulo_7411" data-name="Rectángulo 7411" width="18.435" height="2.007" fill="#fff"/>
      </g>
      <g id="Grupo_86352" data-name="Grupo 86352" transform="translate(23.75)">
        <rect id="Rectángulo_7412" data-name="Rectángulo 7412" width="18.435" height="2.007" fill="#fff"/>
      </g>
    </g>
    <path id="Trazado_151483" data-name="Trazado 151483" d="M3082.283,374.265h74.546s-4.41-8.663-14.589-4.331c0,0-5.542-9.953-16.852-4.072,0,0-4.354-11.083-16.568-9.559a15.928,15.928,0,0,0-13.911,11.708S3083.511,367.513,3082.283,374.265Z" transform="translate(-550.187 -65.667)" fill="#d5f2ff"/>
    <path id="Trazado_151484" data-name="Trazado 151484" d="M3346.368,496.94h42.75s-2.94-6.559-9.726-3.845c0,0-2.489-6.786-8.369-5.994s-7.012,4.888-7.012,4.888a12.878,12.878,0,0,0-12.44,2.577S3346.594,494,3346.368,496.94Z" transform="translate(-718.695 -149.177)" fill="#d5f2ff"/>
    <path id="Trazado_151485" data-name="Trazado 151485" d="M2590.64,736.659h39.7s-3.28-6.231-11.761-3.933a10.2,10.2,0,0,0-9.84-6.523,11.388,11.388,0,0,0-10.4,6.523S2591.319,732.413,2590.64,736.659Z" transform="translate(-236.479 -301.785)" fill="#d5f2ff"/>
    <path id="Trazado_151486" data-name="Trazado 151486" d="M2212.972,898.042H2263.1s-4.142-7.868-14.853-4.966a12.883,12.883,0,0,0-12.425-8.237,14.381,14.381,0,0,0-13.138,8.237S2213.828,892.679,2212.972,898.042Z" transform="translate(105.736 -593.906)" fill="#d5f2ff"/>
    <path id="Trazado_151487" data-name="Trazado 151487" d="M3085.486,955.395s.041-25.018-27.353-12.848c0,0-6.02-21.536-21.8-20.518s-17.3,21.4-17.3,21.4-21.606-10.983-33.2,11.291Z" transform="translate(-488.648 -426.715)" fill="#adccc7"/>
    <path id="Trazado_151488" data-name="Trazado 151488" d="M2728.354,984.062l-.506-1.834a20.3,20.3,0,0,1,2.976-17.331l.8.633a19.628,19.628,0,0,0-3.149,14.912c1.38-2.72,5.424-8.18,15.787-8.7l.051,1.017c-13.047.652-15.456,9.371-15.479,9.459Z" transform="translate(-323.537 -454.091)" fill="#d07efc"/>
    <circle id="Elipse_8288" data-name="Elipse 8288" cx="2.414" cy="2.414" r="2.414" transform="translate(2421.049 515.918)" fill="#d07efc"/>
    <circle id="Elipse_8289" data-name="Elipse 8289" cx="2.414" cy="2.414" r="2.414" transform="translate(2393.629 515.918)" fill="#d07efc"/>
    <circle id="Elipse_8290" data-name="Elipse 8290" cx="2.414" cy="2.414" r="2.414" transform="translate(2406.132 506.806)" fill="#d07efc"/>
    <path id="Trazado_151489" data-name="Trazado 151489" d="M2717.394,996.533c-1.181-4.509-6.641-8.332-6.7-8.37l.579-.837c.238.164,5.826,4.073,7.1,8.949Z" transform="translate(-313.085 -468.403)" fill="#d07efc"/>
    <path id="Trazado_151490" data-name="Trazado 151490" d="M3265.965,706.3a30.184,30.184,0,0,1-3.323-1.468c-1.855-.949-3.97-.906-5.308-1.683s-1.123,1.468.82,2.072,1.208,1.726.3,1.769a33.5,33.5,0,0,1-5.913,0c-1.683-.3-1.338.734-1.208.949a5.44,5.44,0,0,0,1.683,2.115c1.08.734,4.445.863,4.445.863s-3.064.388-3.28.388-.6,1.036.82,1.122a38.915,38.915,0,0,0,7.122-1.122,13.326,13.326,0,0,1,2.633-.388Z" transform="translate(-657.979 -286.97)" fill="#e9928b"/>
    <path id="Trazado_151491" data-name="Trazado 151491" d="M3291.049,708.773c-.173,0-2.849-.691-2.849-.691l-1.6,6.3,3.582,1.079Z" transform="translate(-680.56 -290.222)" fill="#93405e"/>
    <path id="Trazado_151492" data-name="Trazado 151492" d="M3325.725,654.265c-5.646,2.189-13.35,20.141-14.962,20.716s-16.573-1.381-16.573-1.381l-1.267,7.366s15.077,5.755,21.983,4.258,14.271-16.113,15.767-22.673S3327.235,653.68,3325.725,654.265Z" transform="translate(-684.593 -255.827)" fill="#7ff9ff"/>
    <path id="Trazado_151493" data-name="Trazado 151493" d="M3353.579,595.032s-5.007,11.135-2.5,14.156,9.927-3.539,9.927-3.539,3.1.793,4.057-1.9c.431-1.208-.69-2.744-2.676-1.242s-3.021-1.261-2.244-3.592-.345-3.193-2.848-3.28A11.315,11.315,0,0,1,3353.579,595.032Z" transform="translate(-721.251 -218.087)" fill="#e9928b"/>
    <path id="Trazado_151494" data-name="Trazado 151494" d="M3341.428,855.649c-.015-.287-1.464-28.749-.867-34.807s7.142-34.768,7.208-35.057l.541.124c-.065.289-6.6,28.968-7.2,34.988s.855,34.437.869,34.724Z" transform="translate(-714.897 -339.803)" fill="#1b5175"/>
    <path id="Trazado_151495" data-name="Trazado 151495" d="M2969.576,385.8l-13.8,2.044a.9.9,0,0,0-.74.666l-2.952,11.478,15.007-2.224,2.945-11.451A.415.415,0,0,0,2969.576,385.8Z" transform="translate(-467.111 -84.576)" fill="#b2d3e4"/>
    <path id="Trazado_151496" data-name="Trazado 151496" d="M2977.978,402.617a2.878,2.878,0,0,1-2.282,1.512c-.835,0-1.167-.677-.742-1.512a2.879,2.879,0,0,1,2.282-1.512C2978.072,401.105,2978.4,401.782,2977.978,402.617Z" transform="translate(-481.584 -94.346)" fill="#fff"/>
    <path id="Trazado_151497" data-name="Trazado 151497" d="M2867.293,318.575c-5.448.667-7.069,6.636-6.956,11.386s0,11.14-1.187,14.024c0,0,3.789,3.393,7.691.9a11.488,11.488,0,0,1,7.147-2.036s-2.227-3.336-2.567-11.988S2870.688,318.159,2867.293,318.575Z" transform="translate(-407.81 -41.666)" fill="#c92041"/>
    <path id="Trazado_151498" data-name="Trazado 151498" d="M2914.116,280.385s2.2,6.616,5.089,6.192,6.489-9.754,6.489-9.754a2.941,2.941,0,0,0-.594-2.036,4.59,4.59,0,0,1-.678-2.587,4.312,4.312,0,0,1-3.335,1.569c-2.306.085-3.692,2.714-4.907,2.078a1.545,1.545,0,0,0-1.64-1.187c-1.4.042-2.206,2.035-2.12,3.774A2.011,2.011,0,0,0,2914.116,280.385Z" transform="translate(-441.796 -12.094)" fill="#ffac95"/>
    <path id="Trazado_151499" data-name="Trazado 151499" d="M2826.736,582.821h-5.589a10.094,10.094,0,0,0-10.094-10.094c-.116,0-.227,0-.339.01v-5.592c.112-.007.223-.007.339-.007A15.681,15.681,0,0,1,2826.736,582.821Z" transform="translate(-376.904 -200.289)" fill="#fff"/>
    <path id="Trazado_151500" data-name="Trazado 151500" d="M2836.8,610.469a15.66,15.66,0,0,1-7.206,13.195l-3.1-4.649a10.09,10.09,0,0,0,4.723-8.546Z" transform="translate(-386.971 -227.937)" fill="#ffc945"/>
    <path id="Trazado_151501" data-name="Trazado 151501" d="M2957.029,576.462l-5.114,2.263a9.811,9.811,0,0,0-.593-1.143,10.09,10.09,0,0,0-8.632-4.855v-5.588a15.68,15.68,0,0,1,14.1,8.811C2956.874,576.12,2956.955,576.289,2957.029,576.462Z" transform="translate(-461.116 -200.289)" fill="#ffc945"/>
    <path id="Trazado_151502" data-name="Trazado 151502" d="M3099.279,590.908a15.679,15.679,0,0,1-7.821,13.575l-2.8-4.842a10.095,10.095,0,0,0,2.073-15.879l3.95-3.949A15.622,15.622,0,0,1,3099.279,590.908Z" transform="translate(-554.253 -208.376)" fill="#fff"/>
    <path id="Trazado_151503" data-name="Trazado 151503" d="M3055.375,627.357a15.693,15.693,0,0,1-23.268-10.644l5.49-1.052a10.092,10.092,0,0,0,14.976,6.854Z" transform="translate(-518.17 -231.251)" fill="#ffc945"/>
    <g id="Grupo_86354" data-name="Grupo 86354" transform="translate(2416.332 419.899)" opacity="0.38">
      <path id="Trazado_151504" data-name="Trazado 151504" d="M2762.426,743.442h124.957s-2.644-14.928-12.313-14.928-7.289,13.16-19.761,9.8-13.828-23.545-27.231-24.562-16.625,17.813-23.58,17.813-8.312-7.832-17.134-8.327-8.313,12.4-14.759,13.076S2762.256,741.067,2762.426,743.442Z" transform="translate(-2762.42 -713.715)" fill="#3fb8a9"/>
    </g>
    <path id="Trazado_151505" data-name="Trazado 151505" d="M2589.568,859.623c-.031-.274-3.17-27.408-3.506-30.652-.333-3.218-10.351-37.477-10.452-37.823l.533-.156c.414,1.413,10.134,34.654,10.471,37.921.335,3.241,3.474,30.372,3.505,30.646Z" transform="translate(-226.888 -343.125)" fill="#6349cf"/>
    <path id="Trazado_151506" data-name="Trazado 151506" d="M2613.964,997.064l-.1-.156a14.658,14.658,0,0,1,3.49-1.658l.038.181A14.836,14.836,0,0,0,2613.964,997.064Z" transform="translate(-251.298 -473.459)" fill="#fff"/>
    <path id="Trazado_151507" data-name="Trazado 151507" d="M2620.041,999.866l-.15-.109a7.869,7.869,0,0,1,2.452-2.216l.078.168A7.83,7.83,0,0,0,2620.041,999.866Z" transform="translate(-255.143 -474.921)" fill="#fff"/>
    <path id="Trazado_151508" data-name="Trazado 151508" d="M2626.707,1001.852l-.173-.066a9.845,9.845,0,0,1,1.256-2.252l.145.116A9.566,9.566,0,0,0,2626.707,1001.852Z" transform="translate(-259.381 -476.193)" fill="#fff"/>
    <path id="Trazado_151509" data-name="Trazado 151509" d="M2510.7,996.662l-.073-.171a11.717,11.717,0,0,1,1.945-.593l.038.181A11.468,11.468,0,0,0,2510.7,996.662Z" transform="translate(-185.421 -473.873)" fill="#fff"/>
    <path id="Trazado_151510" data-name="Trazado 151510" d="M2513.628,999.467l-.065-.173a17.7,17.7,0,0,0,1.654-.715l.091.162A17.486,17.486,0,0,1,2513.628,999.467Z" transform="translate(-187.297 -475.583)" fill="#fff"/>
    <rect id="Rectángulo_7413" data-name="Rectángulo 7413" width="1.177" height="0.185" transform="translate(2328.292 524.439) rotate(-37.385)" fill="#fff"/>
    <path id="Trazado_151511" data-name="Trazado 151511" d="M2520.1,628.046s.14,3.3,4.248,5.321l-.537-2.6Z" transform="translate(-191.467 -239.153)" fill="#de6667"/>
    <path id="Trazado_151512" data-name="Trazado 151512" d="M2539.414,579.544s-4.187,16.849-7.464,23.635c-2.457,5.079-10.674,9.9-14.891,13.48-1.418,1.2-2.386,2.263-2.528,3.145s3.62,20.134,4.411,23.3,2.151,7.916,4.977,9.728a60.544,60.544,0,0,1-5.948,1.839,29.106,29.106,0,0,1-9.548,1.1,123.648,123.648,0,0,0-17.076-.679l-2.714.227s.112-13.571-1.924-22.053-4.97-17.416-3.613-20.924,7.166-6.728,9.948-7.125c5.72-.811,11.536-1.469,17.415-1.808s14.817-8.031,16.174-9.951,7.013-15.722,7.013-15.722Z" transform="translate(-167.635 -207.048)" fill="#ffc945"/>
    <path id="Trazado_151513" data-name="Trazado 151513" d="M2573.281,721.46a60.571,60.571,0,0,1-5.948,1.839c-.591-2.331-1.87-5.31-4.618-6.477-4.8-2.035-1.989-5.768.645-10.518s-3.534-10.849-2.917-12.978c1.207-4.156,5.977-8.038,5.977-8.038-1.418,1.2-2.385,2.263-2.527,3.145s3.62,20.133,4.411,23.3S2570.455,719.648,2573.281,721.46Z" transform="translate(-216.998 -275.678)" fill="#ffab40"/>
    <path id="Trazado_151514" data-name="Trazado 151514" d="M3123.224,971.383l-.55-.077a32.5,32.5,0,0,0-5.276-22.512l.441-.338A33.113,33.113,0,0,1,3123.224,971.383Z" transform="translate(-572.593 -443.601)" fill="#6eab9c"/>
    <path id="Trazado_151515" data-name="Trazado 151515" d="M3133.417,963.565l-.448-.328c.064-.088,6.478-8.91,7.576-14.463l.545.108C3139.969,954.555,3133.685,963.2,3133.417,963.565Z" transform="translate(-582.529 -443.803)" fill="#6eab9c"/>
    <path id="Trazado_151516" data-name="Trazado 151516" d="M3116.648,990.354c-4.975-.312-9.383-6.21-9.568-6.461l.447-.33c.044.059,4.44,5.941,9.155,6.237Z" transform="translate(-566.009 -466.002)" fill="#6eab9c"/>
    <path id="Trazado_151517" data-name="Trazado 151517" d="M3178.4,998.757l.746-.535c.087-.062,8.743-6.2,18.01-6.629l.026.555c-7.478.349-14.569,4.489-16.907,5.989l9.236-.322.019.555Z" transform="translate(-611.519 -471.126)" fill="#6eab9c"/>
    <path id="Trazado_151518" data-name="Trazado 151518" d="M3196.468,986.97l-.525-.18a34.12,34.12,0,0,1,4.554-8.237l.44.339A33.513,33.513,0,0,0,3196.468,986.97Z" transform="translate(-622.711 -462.805)" fill="#6eab9c"/>
    <path id="Trazado_151519" data-name="Trazado 151519" d="M3052,995.475c-.067-.057-6.8-5.713-14.318-8.349l.184-.524c7.615,2.671,14.425,8.392,14.494,8.45Z" transform="translate(-521.726 -467.941)" fill="#6eab9c"/>
    <path id="Trazado_151520" data-name="Trazado 151520" d="M3028.27,1001.943l-.254-.494c.2-.1,4.917-2.466,13.617-1.255l-.077.55C3033.048,999.561,3028.316,1001.919,3028.27,1001.943Z" transform="translate(-515.56 -476.394)" fill="#6eab9c"/>
    <path id="Trazado_151521" data-name="Trazado 151521" d="M2450.895,991.427a19.485,19.485,0,0,0-9.855-11.728l.226-.507a20.1,20.1,0,0,1,10.165,12.086Z" transform="translate(-141.021 -463.212)" fill="#6eab9c"/>
    <path id="Trazado_151522" data-name="Trazado 151522" d="M2462.535,978.719l-.483-.273c2.728-4.835,1.573-11.238,1.562-11.3l.546-.1C2464.21,967.311,2465.365,973.7,2462.535,978.719Z" transform="translate(-154.429 -455.459)" fill="#6eab9c"/>
    <path id="Trazado_151523" data-name="Trazado 151523" d="M2446.83,1004.016c-5.106-2.785-11.1-1.249-11.158-1.233l-.142-.537c.253-.067,6.267-1.608,11.566,1.282Z" transform="translate(-137.506 -477.623)" fill="#6eab9c"/>
    <path id="Trazado_151524" data-name="Trazado 151524" d="M2542.094,962.308l-.471-.3a28,28,0,0,0,1.854-3.829c1.8-4.385,4.144-11.746,3.819-25l.555-.013c.328,13.354-2.046,20.79-3.86,25.221A27.97,27.97,0,0,1,2542.094,962.308Z" transform="translate(-205.202 -433.849)" fill="#6eab9c"/>
    <path id="Trazado_151525" data-name="Trazado 151525" d="M2545.264,996.866l-.337-.442c6.937-5.287,16.578-5.812,16.674-5.817l.027.555C2561.533,991.167,2552.061,991.685,2545.264,996.866Z" transform="translate(-207.31 -470.496)" fill="#6eab9c"/>
    <path id="Trazado_151526" data-name="Trazado 151526" d="M2554.486,959.9l-.534-.151c.648-2.3,7.593-10.94,7.888-11.307l.433.348C2562.2,948.879,2555.1,957.711,2554.486,959.9Z" transform="translate(-213.069 -443.591)" fill="#6eab9c"/>
    <path id="Trazado_151527" data-name="Trazado 151527" d="M2539.564,969.776c-2.167-3.348-5.509-11.922-5.65-12.286l.518-.2c.034.088,3.463,8.884,5.6,12.185Z" transform="translate(-200.283 -449.237)" fill="#6eab9c"/>
    <path id="Trazado_151528" data-name="Trazado 151528" d="M2439.919,925.424a.274.274,0,0,1-.187-.073c-4.169-3.82-14.85-3.618-14.957-3.614a.274.274,0,0,1-.284-.271.277.277,0,0,1,.271-.284c.448-.01,11.011-.211,15.345,3.76a.277.277,0,0,1-.187.482Z" transform="translate(-130.461 -426.194)" fill="#d07efc"/>
    <path id="Trazado_151529" data-name="Trazado 151529" d="M2456.839,903.279a.278.278,0,0,1-.263-.187c-1.149-3.344-.057-8.806-.009-9.037a.277.277,0,1,1,.543.111c-.011.055-1.109,5.545-.009,8.745a.278.278,0,0,1-.262.368Z" transform="translate(-150.6 -408.746)" fill="#d07efc"/>
    <path id="Trazado_151530" data-name="Trazado 151530" d="M2432.758,957.567" transform="translate(-135.737 -449.414)" fill="none" stroke="#f5b89b" stroke-linecap="round" stroke-miterlimit="10" stroke-width="3"/>
    <rect id="Rectángulo_7414" data-name="Rectángulo 7414" width="31.214" height="1.527" transform="translate(2500.141 260.473)" fill="#fff"/>
    <rect id="Rectángulo_7415" data-name="Rectángulo 7415" width="31.214" height="1.527" transform="translate(2500.141 264.714)" fill="#fff"/>
    <rect id="Rectángulo_7416" data-name="Rectángulo 7416" width="15.32" height="6.383" transform="translate(2358.69 334.63)" fill="#8fb9cf"/>
    <rect id="Rectángulo_7417" data-name="Rectángulo 7417" width="4.256" height="10.214" transform="translate(2384.609 345.45) rotate(-48.123)" fill="#8fb9cf"/>
    <rect id="Rectángulo_7418" data-name="Rectángulo 7418" width="10.214" height="4.256" transform="translate(2337.585 349.099) rotate(-41.877)" fill="#8fb9cf"/>
  </g>
</svg>
