<svg xmlns="http://www.w3.org/2000/svg" xmlns:xlink="http://www.w3.org/1999/xlink" width="545" height="509" viewBox="0 0 545 509">
  <defs>
    <clipPath id="clip-path">
      <rect id="Rectángulo_8098" data-name="Rectángulo 8098" width="426.666" height="427.88" fill="none"/>
    </clipPath>
    <clipPath id="clip-path-2">
      <rect id="Rectángulo_8095" data-name="Rectángulo 8095" width="134.098" height="156.879" fill="#ff0032"/>
    </clipPath>
    <clipPath id="clip-path-3">
      <rect id="Rectángulo_8096" data-name="Rectángulo 8096" width="87.038" height="163.967" fill="#18b6fe"/>
    </clipPath>
  </defs>
  <g id="Grupo_87418" data-name="Grupo 87418" transform="translate(-528 -3686)">
    <g id="Grupo_87417" data-name="Grupo 87417">
      <path id="Trazado_153668" data-name="Trazado 153668" d="M0,0H545V509H0Z" transform="translate(528 3686)" fill="#fefefe"/>
      <g id="Grupo_87386" data-name="Grupo 87386" transform="translate(5 17.275)">
        <g id="Grupo_87382" data-name="Grupo 87382" transform="translate(592 3709.285)" clip-path="url(#clip-path)">
          <g id="Grupo_87381" data-name="Grupo 87381">
            <path id="Trazado_153611" data-name="Trazado 153611" d="M452.151,502.331l.962-.575-64.436-36.739.234,18.1H367.5v-.138H259.6a16.815,16.815,0,0,1-3.067-3.664,157.625,157.625,0,0,1-127.706-27.638L116.906,467.62l-11,14.7c.7.526,1.417,1.034,2.126,1.549h34.581a177.172,177.172,0,0,0,81.722,19.842,173.59,173.59,0,0,0,22.364-1.455v20.49H367.5v-.23l21.908.033.235,18.122,63.47-37.887-.792-.452Z" transform="translate(-26.447 -112.79)" fill="#13e3ee"/>
            <g id="Grupo_87376" data-name="Grupo 87376" transform="translate(0.36 33.36)" opacity="0.4">
              <g id="Grupo_87375" data-name="Grupo 87375">
                <g id="Grupo_87374" data-name="Grupo 87374" clip-path="url(#clip-path-2)" style="isolation: isolate">
                  <path id="Trazado_153612" data-name="Trazado 153612" d="M134.578,79.61l-7.991-18.562-7.14-16.584A197.218,197.218,0,0,0,48.7,96.24a192.957,192.957,0,0,0-30.82,48.651l-17.4-4.73,21.1,60.64.188.542,50.731-41.6-17.17-4.669A156.059,156.059,0,0,1,134.578,79.61" transform="translate(-0.481 -44.464)" fill="#ff0032"/>
                </g>
              </g>
            </g>
            <g id="Grupo_87379" data-name="Grupo 87379" transform="translate(1.012 189.899)" opacity="0.4">
              <g id="Grupo_87378" data-name="Grupo 87378">
                <g id="Grupo_87377" data-name="Grupo 87377" clip-path="url(#clip-path-3)">
                  <path id="Trazado_153613" data-name="Trazado 153613" d="M88.387,417.071l-.091-.957-6.068-63.779L67.282,365.078A156.339,156.339,0,0,1,40.726,257.657l-19.229-2.3L2.734,253.1a194.627,194.627,0,0,0,35.3,136.91l-12.6,10.742Z" transform="translate(-1.349 -253.103)" fill="#18b6fe"/>
                </g>
              </g>
            </g>
            <path id="Trazado_153614" data-name="Trazado 153614" d="M286.97,23.3a196.189,196.189,0,0,0-47.424-5.849q-9.292,0-18.531.9L217.541,0,173.3,48.388l-.4.434,58.519,24.506-3.248-17.156A157.537,157.537,0,0,1,333.709,86.923l12.882-17.248,10.016-13.41A194.3,194.3,0,0,0,286.97,23.3" transform="translate(-43.177)" fill="#ffc945"/>
            <path id="Trazado_153615" data-name="Trazado 153615" d="M456.181,121.874l13.774-12.435L407.174,95.052l-.6-.138,7.991,64.535,13.024-11.758a156.361,156.361,0,0,1,26.57,107.325l21.953,2.615,16.043,1.911a194.639,194.639,0,0,0-35.97-137.667" transform="translate(-101.525 -23.701)" fill="#d07efc"/>
            <path id="Trazado_153616" data-name="Trazado 153616" d="M301.125,487.931h13.553L271.6,470.95l3.938,16.4a156.209,156.209,0,0,0,22.377-3.22,16.749,16.749,0,0,0,3.214,3.8" transform="translate(-67.821 -117.603)" fill="#195299"/>
            <path id="Trazado_153617" data-name="Trazado 153617" d="M246.857,487.931,203.775,470.95l3.938,16.4.32,1.333H0v38.107l217.261.307,3.944,16.422L236.6,526.1l26.863-30.389.808-.914Z" transform="translate(0 -117.603)" fill="#856de9"/>
            <path id="Trazado_153618" data-name="Trazado 153618" d="M272.434,40.709l.228-3.358,10.911.741-.227,3.358-3.589-.244-.769,11.331-3.714-.252.769-11.331Z" transform="translate(-68.03 -9.327)" fill="#fff"/>
            <path id="Trazado_153619" data-name="Trazado 153619" d="M298.834,43.157l-5.3-.685-.269,2.086,4.88.631-.431,3.337-4.881-.631-.308,2.377,5.485.71-.45,3.483-9.3-1.2,1.888-14.6,9.115,1.179Z" transform="translate(-71.982 -9.655)" fill="#fff"/>
            <path id="Trazado_153620" data-name="Trazado 153620" d="M307.61,51.782c-.2.988.827,1.717,1.981,1.954,1.071.221,2.306-.04,2.484-.9.284-1.38-1.309-1.773-2.347-2.051-2.6-.709-5.022-2.3-4.4-5.311.645-3.131,3.63-4.169,6.575-3.561,2.781.574,5.275,2.742,4.568,5.86l-3.522-.726c.183-.993-.659-1.6-1.668-1.8-.845-.175-2-.177-2.229.915-.2.968.578,1.364,1.928,1.793,3.013.9,5.542,2.174,4.82,5.676-.624,3.027-3.9,4.007-6.843,3.4-3.048-.629-5.659-2.757-4.929-5.978Z" transform="translate(-75.889 -10.424)" fill="#fff"/>
            <path id="Trazado_153621" data-name="Trazado 153621" d="M323.678,47.913l.919-3.237,10.521,2.988L334.2,50.9l-3.46-.982-3.1,10.924-3.581-1.017,3.1-10.925Z" transform="translate(-80.827 -11.156)" fill="#fff"/>
            <path id="Trazado_153622" data-name="Trazado 153622" d="M50.739,158.9a7.017,7.017,0,0,1,9.932-2.636,7,7,0,0,1,2.792,10l-2.812,4.86-12.724-7.363Zm9.7,5.661c1.168-2.021.034-3.965-1.659-4.944-1.675-.969-3.939-.919-5.077,1.047l-.864,1.492,6.735,3.9Z" transform="translate(-11.968 -38.757)" fill="#fff"/>
            <path id="Trazado_153623" data-name="Trazado 153623" d="M66.918,139.918l-3.033,4.4,1.731,1.194,2.795-4.051,2.77,1.911-2.795,4.051,1.973,1.361,3.141-4.552,2.892,1.994-5.327,7.72-12.117-8.36,5.219-7.565Z" transform="translate(-14.72 -34.465)" fill="#fff"/>
            <path id="Trazado_153624" data-name="Trazado 153624" d="M80.274,140.91l-11.453-9.25c1.375-1.7,2.692-3.367,4.083-5.055a5.46,5.46,0,0,1,8.491,6.858l-1.664,2.062,2.961,2.391Zm-1.48-9.548c.635-.786.17-1.918-.665-2.592a1.83,1.83,0,0,0-2.624-.065l-1.7,2.111,3.289,2.656Z" transform="translate(-17.186 -31.11)" fill="#fff"/>
            <path id="Trazado_153625" data-name="Trazado 153625" d="M92.149,122.993l3.636-3.885,2.518,2.357-6.265,6.695L81.288,118.1l2.63-2.81Z" transform="translate(-20.299 -28.79)" fill="#fff"/>
            <path id="Trazado_153626" data-name="Trazado 153626" d="M107.846,111.906a7.2,7.2,0,0,1-10.707-.576,7.55,7.55,0,1,1,10.707.576m-2.434-2.7a4.009,4.009,0,0,0-5.349-5.938,4.006,4.006,0,0,0,5.349,5.938" transform="translate(-23.72 -24.597)" fill="#fff"/>
            <path id="Trazado_153627" data-name="Trazado 153627" d="M115.755,90.775l-.844-5.5,3.24-2.479.345.451,1.152,9.6,3.54,4.626-3.057,2.339-3.54-4.626-8.985-3.61-.345-.451,3.273-2.505,5.086,2.252Z" transform="translate(-26.785 -20.676)" fill="#fff"/>
            <path id="Trazado_153628" data-name="Trazado 153628" d="M489.69,273.883a7.763,7.763,0,0,1,7.714-8.348c4.088-.236,8.312,2.291,8.533,7.684l.254,6.206-16.248.665Zm12.414-.461c-.106-2.58-2.318-3.723-4.479-3.635-2.138.088-4.224,1.477-4.121,3.988l.078,1.906,8.6-.352Z" transform="translate(-122.28 -66.304)" fill="#fff"/>
            <path id="Trazado_153629" data-name="Trazado 153629" d="M490.8,248.538l.76,5.861,2.307-.3-.7-5.4,3.691-.479.7,5.4,2.63-.341-.787-6.067,3.853-.5L504.592,257l-16.149,2.095-1.308-10.081Z" transform="translate(-121.644 -61.607)" fill="#fff"/>
            <path id="Trazado_153630" data-name="Trazado 153630" d="M493.234,233.716l-4.44-.412-5.148-.95-.944-4.437.615-.131,16.935,3.581.368,1.729-14,10.231-.614.13-.944-4.436,4.307-3.009,3.878-2.228Z" transform="translate(-120.537 -56.882)" fill="#fff"/>
            <path id="Trazado_153631" data-name="Trazado 153631" d="M481.76,210.832l1.714,5.655,2.227-.675-1.58-5.209,3.562-1.08,1.579,5.21,2.537-.77-1.774-5.855,3.718-1.127,3.01,9.929-15.584,4.725-2.949-9.729Z" transform="translate(-119.418 -51.686)" fill="#fff"/>
            <path id="Trazado_153632" data-name="Trazado 153632" d="M486.62,196.635l-2.109-5.494,3.562-1.368,3.634,9.469-15.2,5.836-1.526-3.974Z" transform="translate(-118.608 -47.389)" fill="#fff"/>
            <path id="Trazado_153633" data-name="Trazado 153633" d="M481.845,175.755c1.84,3.89,1.038,8.722-4.072,11.14a8.352,8.352,0,1,1,4.072-11.14m-3.648,1.7a4.435,4.435,0,0,0-8.011,3.739,4.431,4.431,0,0,0,8.011-3.739" transform="translate(-116.282 -42.669)" fill="#fff"/>
            <path id="Trazado_153634" data-name="Trazado 153634" d="M473.331,160.972l-13.9,8.489c-1.261-2.065-2.506-4.058-3.747-6.134a6.04,6.04,0,0,1,10.3-6.294l1.528,2.5,3.593-2.2Zm-10.5-2.012c-.582-.953-1.934-.89-2.946-.272-.993.606-1.65,1.717-1.044,2.709l1.564,2.561,3.99-2.437Z" transform="translate(-113.558 -38.505)" fill="#fff"/>
            <path id="Trazado_153635" data-name="Trazado 153635" d="M19.682,299.556l-.594.026-.2-4.433,4.879-2.97-.1-2.193-5,.227-.19-4.181,16-.727c.108,2.376.236,4.684.32,7.038a5.491,5.491,0,0,1-5.405,6.017,5.614,5.614,0,0,1-4.77-2.165Zm7.518-6.891a1.819,1.819,0,0,0,2.09,1.645,1.747,1.747,0,0,0,1.864-1.825l-.132-2.9-3.953.179Z" transform="translate(-4.613 -71.245)" fill="#fff"/>
            <path id="Trazado_153636" data-name="Trazado 153636" d="M33.317,316.152l-.765-5.759-2.267.3.7,5.306-3.628.482-.7-5.307-2.585.343.791,5.963-3.787.5-1.342-10.113,15.872-2.105,1.314,9.909Z" transform="translate(-4.928 -76.354)" fill="#fff"/>
            <path id="Trazado_153637" data-name="Trazado 153637" d="M30.826,329.69l4.367.393,5.065.921.939,4.361-.6.129-16.661-3.477-.366-1.7,13.737-10.1.6-.13.939,4.361-4.227,2.97-3.808,2.2Z" transform="translate(-5.885 -79.932)" fill="#fff"/>
            <path id="Trazado_153638" data-name="Trazado 153638" d="M32.577,352.7l-3.245.966-2.354-7.916,3.245-.965.581,1.951,8.857-2.635-.528-1.775,3.245-.966,2.25,7.564-3.245.965-.528-1.776L32,350.753Z" transform="translate(-6.737 -85.243)" fill="#fff"/>
            <path id="Trazado_153639" data-name="Trazado 153639" d="M46.664,365.366l-2.033-5.443-2.143.8,1.873,5.014-3.428,1.281L39.059,362l-2.443.913,2.105,5.635-3.578,1.337-3.571-9.556,15-5.6,3.5,9.364Z" transform="translate(-7.884 -88.581)" fill="#fff"/>
            <path id="Trazado_153640" data-name="Trazado 153640" d="M57.191,379.072,50.511,385.4l.029.062,4.692-1.008,4.582-.55,1.9,3.959-.557.266-16.5,1.576-.96-2,5.4-5.662-.029-.062-7.747.775-1.01-2.1,11.548-11.885.557-.268,1.9,3.96-3.286,3.251-3.682,3.112.029.062,9.066-1.357Z" transform="translate(-10.067 -92.019)" fill="#fff"/>
            <path id="Trazado_153641" data-name="Trazado 153641" d="M459.689,316.542l-.245.173-52.782,37.2,16.621,5.956a156.945,156.945,0,0,1-80.717,76.591l5.608,12.915,2.787,6.416,6.873,15.825a199.4,199.4,0,0,0,39.2-22.242,197.221,197.221,0,0,0,32.386-29.536,192.681,192.681,0,0,0,30.366-46.891l17.795,6.376Z" transform="translate(-85.543 -79.045)" fill="#18b6fe"/>
            <path id="Trazado_153642" data-name="Trazado 153642" d="M387.161,468.438a7.632,7.632,0,0,1,10.97,2.14c2.311,3.3,2.378,8.138-2.018,11.109l-5.061,3.419L382.1,471.857Zm6.8,10.147c2.1-1.422,1.918-3.862.726-5.626-1.178-1.744-3.418-2.77-5.464-1.387l-1.555,1.05,4.738,7.013Z" transform="translate(-95.416 -116.608)" fill="#fff"/>
            <path id="Trazado_153643" data-name="Trazado 153643" d="M409.758,455.692l-4.508,3.664,1.442,1.775,4.154-3.376,2.308,2.84L409,463.971l1.645,2.023,4.668-3.793,2.409,2.964-7.917,6.434-10.1-12.425,7.757-6.305Z" transform="translate(-99.812 -113.087)" fill="#fff"/>
            <path id="Trazado_153644" data-name="Trazado 153644" d="M423.122,454.41c.757.8,2.047.325,2.974-.558.861-.821,1.394-2.086.731-2.781-1.056-1.11-2.4.071-3.288.825-2.246,1.887-5.171,3.062-7.474.644-2.4-2.518-1.477-5.828.892-8.084,2.237-2.129,5.72-3.015,8.069-.45l-2.832,2.7c-.774-.78-1.835-.4-2.646.373-.679.647-1.4,1.681-.564,2.558.742.779,1.578.329,2.8-.612,2.673-2.135,5.379-3.607,8.06-.791,2.319,2.435,1.166,5.966-1.2,8.222-2.451,2.334-5.971,3.349-8.4.7Z" transform="translate(-103.546 -110.482)" fill="#fff"/>
            <path id="Trazado_153645" data-name="Trazado 153645" d="M440.778,438.146l2.513,2.269-5.534,6.128-2.513-2.269,1.364-1.511-6.858-6.194-1.242,1.375-2.513-2.269,5.289-5.857,2.512,2.269-1.242,1.375,6.859,6.194Z" transform="translate(-106.376 -107.332)" fill="#fff"/>
            <path id="Trazado_153646" data-name="Trazado 153646" d="M440.266,418.579c1.937-2.521,5.246-4.162,8.845-2.463l-2.481,3.228a3.293,3.293,0,0,0-3.389,1.521c-1.575,2.049-.825,4.415,1.1,5.891,2.122,1.631,4.43,1.443,5.921-.5a3.284,3.284,0,0,0,.563-3.923l-2.076,2.7-2.793-2.146,4.6-5.986a11.486,11.486,0,0,1,3.417,3.174c1.956,2.974,1.131,6.149-.68,8.507-2.48,3.228-7.176,4.871-11.51,1.54a7.936,7.936,0,0,1-1.513-11.548" transform="translate(-109.484 -103.736)" fill="#fff"/>
            <path id="Trazado_153647" data-name="Trazado 153647" d="M457.479,406.29l6.963,4.438-2.249,3.529-13.561-8.642.7-1.1,11.142-2.8-6.6-4.2,2.249-3.53,13.541,8.63-.664,1.041Z" transform="translate(-112.029 -98.383)" fill="#fff"/>
            <rect id="Rectángulo_8097" data-name="Rectángulo 8097" width="426.666" height="427.88" fill="none"/>
          </g>
        </g>
        <g id="Grupo_87385" data-name="Grupo 87385" transform="translate(641.276 4091.143)">
          <path id="Trazado_153648" data-name="Trazado 153648" d="M0,16.617V.18c2.442,0,4.814-.024,7.256,0a5.754,5.754,0,0,1,5.894,6.176,5.741,5.741,0,0,1-5.894,6.012H4.3v4.25ZM7.256,8.633c1.127,0,1.785-1.2,1.785-2.395,0-1.175-.611-2.325-1.785-2.325H4.226v4.72Z" transform="translate(0 -0.039)" fill="#fff"/>
          <path id="Trazado_153649" data-name="Trazado 153649" d="M24.326,12.8h5.941v3.851H20.029V.214h4.3Z" transform="translate(-3.673 -0.049)" fill="#fff"/>
          <path id="Trazado_153650" data-name="Trazado 153650" d="M39.051,14.559,38.112,16.6H33.627v-.586L41.164,0h1.973L50.6,16.015V16.6H46.166L45.2,14.559Zm1.386-3.592h3.405L42.127,7Z" transform="translate(-4.008)" fill="#fff"/>
          <path id="Trazado_153651" data-name="Trazado 153651" d="M61.917,8.153V16.63h-4.3V.122h1.339l8.571,8.1V.193h4.3V16.676H70.558Z" transform="translate(-7.661 -0.028)" fill="#fff"/>
        </g>
        <g id="Grupo_87384" data-name="Grupo 87384" transform="translate(892.579 4091.143)">
          <path id="Trazado_153652" data-name="Trazado 153652" d="M452.486,12.8h5.941v3.851H448.189V.214h4.3Z" transform="translate(-448.189 -0.049)" fill="#fff"/>
          <path id="Trazado_153653" data-name="Trazado 153653" d="M467.21,14.559l-.939,2.043h-4.485v-.586L469.323,0H471.3l7.467,16.015V16.6h-4.438l-.963-2.043Zm1.386-3.592H472L470.286,7Z" transform="translate(-451.314)" fill="#fff"/>
          <path id="Trazado_153654" data-name="Trazado 153654" d="M485.292,11.227V.214h4.3V11.133c0,1.361,1.2,1.949,2.418,1.949,1.151,0,2.372-.588,2.372-1.949V.214h4.25V11.227c0,3.687-3.194,5.636-6.645,5.636-3.475,0-6.692-1.949-6.692-5.636" transform="translate(-456.715 -0.049)" fill="#fff"/>
          <path id="Trazado_153655" data-name="Trazado 153655" d="M511.3,8.153V16.63H507V.122h1.339l8.571,8.1V.193h4.3V16.676h-1.268Z" transform="translate(-461.702 -0.028)" fill="#fff"/>
          <path id="Trazado_153656" data-name="Trazado 153656" d="M537.324,0c3.381,0,7.092,1.832,7.725,6.223h-4.132a3.372,3.372,0,0,0-3.593-2.348c-2.489,0-4.109,1.785-4.109,4.509a4.2,4.2,0,0,0,4.109,4.462,3.414,3.414,0,0,0,3.64-2.606H545.1c-.634,4.672-4.273,6.528-7.772,6.528-4.2,0-8.406-2.819-8.406-8.36,0-5.66,4.2-8.407,8.406-8.407" transform="translate(-466.739 0)" fill="#fff"/>
          <path id="Trazado_153657" data-name="Trazado 153657" d="M562.578,16.651V10.076h-5.1v6.575h-4.3V.214h4.3V6.154h5.1V.214h4.3V16.651Z" transform="translate(-472.314 -0.049)" fill="#fff"/>
        </g>
      </g>
    </g>
    <path id="Trazado_153672" data-name="Trazado 153672" d="M35.8,36.141H25.531L23.578,42h-6.23L27.934,13.563h5.43L44.008,42h-6.23Zm-8.691-4.746h7.109L30.648,20.75Zm18.359-.117a12.385,12.385,0,0,1,2.314-7.832,7.5,7.5,0,0,1,6.24-2.969,6.577,6.577,0,0,1,5.41,2.383l.234-1.992h5.117V41.3a9.032,9.032,0,0,1-1.26,4.824,8.091,8.091,0,0,1-3.545,3.125,12.462,12.462,0,0,1-5.352,1.074,11.588,11.588,0,0,1-4.531-.928A8.042,8.042,0,0,1,46.762,47l2.5-3.437a6.612,6.612,0,0,0,5.117,2.363,4.839,4.839,0,0,0,3.5-1.2,4.505,4.505,0,0,0,1.25-3.408V40.184a6.529,6.529,0,0,1-5.137,2.207,7.48,7.48,0,0,1-6.162-2.979,12.382,12.382,0,0,1-2.354-7.9Zm5.645.42a7.712,7.712,0,0,0,1.152,4.509,3.666,3.666,0,0,0,3.164,1.633A3.919,3.919,0,0,0,59.125,35.9V27a3.91,3.91,0,0,0-3.652-1.937,3.689,3.689,0,0,0-3.193,1.663A8.692,8.692,0,0,0,51.117,31.7ZM75.082,42H69.418V20.867h5.664Zm-6-26.6a2.78,2.78,0,0,1,.85-2.09,3.661,3.661,0,0,1,4.619,0,2.764,2.764,0,0,1,.859,2.09,2.771,2.771,0,0,1-.869,2.109,3.62,3.62,0,0,1-4.59,0A2.771,2.771,0,0,1,69.086,15.4ZM85.688,42H80.023V12h5.664Zm14.375.391a10.374,10.374,0,0,1-7.568-2.852,10.136,10.136,0,0,1-2.92-7.6v-.547A12.766,12.766,0,0,1,90.8,25.7a9.03,9.03,0,0,1,3.486-3.867,9.785,9.785,0,0,1,5.146-1.357,8.77,8.77,0,0,1,6.826,2.734q2.49,2.734,2.49,7.754v2.3H95.3a5.244,5.244,0,0,0,1.65,3.32,4.989,4.989,0,0,0,3.486,1.25,6.093,6.093,0,0,0,5.1-2.363l2.773,3.105a8.473,8.473,0,0,1-3.437,2.8A11.278,11.278,0,0,1,100.063,42.391Zm-.645-17.363a3.527,3.527,0,0,0-2.725,1.138,5.892,5.892,0,0,0-1.338,3.257h7.852v-.451a4.2,4.2,0,0,0-1.016-2.913A3.639,3.639,0,0,0,99.418,25.027Z" transform="translate(728 3917)" fill="#12263f"/>
  </g>
</svg>
