<svg xmlns="http://www.w3.org/2000/svg" xmlns:xlink="http://www.w3.org/1999/xlink" width="548" height="382.575" viewBox="0 0 548 382.575">
  <defs>
    <linearGradient id="linear-gradient" x1="0.456" y1="0.432" x2="0.655" y2="0.802" gradientUnits="objectBoundingBox">
      <stop offset="0" stop-color="#5a2d68"/>
      <stop offset="1" stop-color="#22043d"/>
    </linearGradient>
    <linearGradient id="linear-gradient-2" x1="0.534" y1="0.886" x2="0.488" y2="0.32" gradientUnits="objectBoundingBox">
      <stop offset="0" stop-color="#ff8a78"/>
      <stop offset="1" stop-color="#ffa799"/>
    </linearGradient>
    <linearGradient id="linear-gradient-3" x1="0.787" y1="0.187" x2="-0.068" y2="0.765" gradientUnits="objectBoundingBox">
      <stop offset="0" stop-color="#3e4795"/>
      <stop offset="1" stop-color="#273088"/>
    </linearGradient>
    <linearGradient id="linear-gradient-4" x1="1.078" y1="0.231" x2="-0.225" y2="0.707" xlink:href="#linear-gradient-3"/>
    <linearGradient id="linear-gradient-5" x1="0.497" y1="0.535" x2="0.528" y2="0.471" xlink:href="#linear-gradient-2"/>
    <linearGradient id="linear-gradient-6" x1="0.478" y1="0.533" x2="0.406" y2="0.852" xlink:href="#linear-gradient-2"/>
    <linearGradient id="linear-gradient-7" x1="0.912" y1="0.373" x2="0.409" y2="0.782" gradientUnits="objectBoundingBox">
      <stop offset="0" stop-color="#ffb89e"/>
      <stop offset="1" stop-color="#ffa799"/>
    </linearGradient>
    <linearGradient id="linear-gradient-8" x1="0.394" y1="0.069" x2="0.563" y2="0.755" gradientUnits="objectBoundingBox">
      <stop offset="0" stop-color="#fd70cb"/>
      <stop offset="1" stop-color="#6e4dfd"/>
    </linearGradient>
    <linearGradient id="linear-gradient-9" x1="0.401" y1="0.086" x2="0.569" y2="0.763" xlink:href="#linear-gradient-8"/>
    <linearGradient id="linear-gradient-10" x1="0.232" y1="-0.119" x2="0.537" y2="0.687" xlink:href="#linear-gradient-8"/>
    <linearGradient id="linear-gradient-11" x1="0.351" y1="0.655" x2="0.813" y2="0.174" gradientUnits="objectBoundingBox">
      <stop offset="0" stop-color="#965cf2"/>
      <stop offset="1" stop-color="#ff8adc"/>
    </linearGradient>
    <linearGradient id="linear-gradient-12" x1="0.404" y1="0.686" x2="0.697" y2="0.121" xlink:href="#linear-gradient-11"/>
    <linearGradient id="linear-gradient-13" x1="0.247" y1="-0.198" x2="0.549" y2="0.6" xlink:href="#linear-gradient-8"/>
    <linearGradient id="linear-gradient-14" x1="0.222" y1="-0.186" x2="0.526" y2="0.619" xlink:href="#linear-gradient-8"/>
    <linearGradient id="linear-gradient-15" x1="0.43" y1="0.634" x2="0.582" y2="0.397" gradientUnits="objectBoundingBox">
      <stop offset="0" stop-color="#1c8ef4"/>
      <stop offset="1" stop-color="#00cfdd"/>
    </linearGradient>
    <linearGradient id="linear-gradient-16" x1="0.296" y1="0.221" x2="0.747" y2="0.779" xlink:href="#linear-gradient-3"/>
    <linearGradient id="linear-gradient-17" x1="0.149" y1="0.22" x2="1.056" y2="0.742" xlink:href="#linear-gradient-3"/>
    <linearGradient id="linear-gradient-18" x1="0.32" y1="0.284" x2="0.633" y2="0.643" xlink:href="#linear-gradient-2"/>
    <linearGradient id="linear-gradient-19" x1="0.389" y1="0.316" x2="0.563" y2="0.791" xlink:href="#linear-gradient-7"/>
    <linearGradient id="linear-gradient-20" x1="0.012" y1="0.187" x2="0.669" y2="0.82" gradientUnits="objectBoundingBox">
      <stop offset="0" stop-color="#8a4791"/>
      <stop offset="1" stop-color="#562e65"/>
    </linearGradient>
  </defs>
  <g id="Grupo_87375" data-name="Grupo 87375" transform="translate(-872.333 -112.596)">
    <g id="Grupo_68314" data-name="Grupo 68314" transform="translate(895 112.597)">
      <g id="Grupo_68271" data-name="Grupo 68271" transform="translate(0 147.118)">
        <g id="Grupo_68260" data-name="Grupo 68260" transform="translate(3.181)">
          <path id="Trazado_150915" data-name="Trazado 150915" d="M-2124.437,3786.622c2.7-.417,4.83,1.438,5.911,3.917a14.628,14.628,0,0,1,.661,8.62c-1.759,6.4,1.339,9.189,2.479,12.172a13.014,13.014,0,0,1,.658,4.932c-.076,2.293-1.4,3.473-2.5,5.525a18.1,18.1,0,0,1-1.614,5.674c-3.036,6.072-13.247,9-23.049,8.555-7.844-.359-15.427-3.135-18.859-6.326-3.768-3.5-4.255-12.391,2.073-13.3a6.466,6.466,0,0,0,4.449-2.056c.865-1.05.029-3.813-.179-7.494-.2-3.564.612-7.314,5.793-8.564,1.984-.479,3.918-.676,5.574-1.764,3.618-2.375,2.294-6.786,6.219-9.383,2.369-1.568,6.182-1.909,10.347-.752C-2125.807,3786.461-2125.126,3786.546-2124.437,3786.622Z" transform="translate(2163.528 -3785.698)" fill-rule="evenodd" fill="url(#linear-gradient)"/>
          <path id="Trazado_150916" data-name="Trazado 150916" d="M-2112.608,3793.117a6.543,6.543,0,0,1-1.446,4.713c-2.412,3.4-3.679,3.138-5,7.473-2.17-1.448-3.659-1.669-4.285-.247-1.005,2.287-.372,3.639-.606,6-.381,3.845-4.977-1.425-8.581,1.522-3.543,2.9-1.112,4.93-2.48,9.032-.512,1.534-.91,3.553-2.343,4.231-4.456,2.11-6.163,7.422,1.771,10.059,4.915,1.634,12.052,1.225,18.016-.808,7.874-2.684,12.73-14.3,10.72-19.817-.832-2.283-3.078-3.989-3.088-5.773C-2109.968,3803.377-2108.785,3799.445-2112.608,3793.117Z" transform="translate(2154.041 -3788.837)" fill="#22043d" fill-rule="evenodd"/>
        </g>
        <g id="Grupo_68262" data-name="Grupo 68262" transform="translate(42.567 22.697)">
          <g id="Grupo_68261" data-name="Grupo 68261" transform="translate(11.717 11.291)">
            <path id="Trazado_150917" data-name="Trazado 150917" d="M-2032.917,3845.01c.718,1.038-.633,1.759-1.239,1.792-.968.126-2.348-.368-2.691.279-.385.726-4.916-.771-4.868-.816a8.241,8.241,0,0,1,3.871-1.644C-2034.943,3844.813-2035.789,3845.465-2032.917,3845.01Z" transform="translate(2060.876 -3844.621)" fill-rule="evenodd" fill="url(#linear-gradient-2)"/>
            <path id="Trazado_150918" data-name="Trazado 150918" d="M-2055.126,3851.189c-4.158,1.175-9.838,5.236-13.794,6.13-1.249.282-3.2.83-4.183-.233-5.087-5.5,1.985-3.689,2.581-5.766,3.619-2.692,9.283-1.421,13.918-3.917a8.808,8.808,0,0,1,.9-.531c1.817-.906,2.833-.831,5.989.754a3.673,3.673,0,0,0,2.195.379l3.174-.408c.973-.036,1.593.2,1.744.516a5.68,5.68,0,0,1-.748,3.149l0,0c-.121.37-.841.651-1.972.666l-4.639,1.421-.217-.123C-2052.941,3851.66-2054.12,3851.141-2055.126,3851.189Z" transform="translate(2074.933 -3845.326)" fill="#ffa698" fill-rule="evenodd"/>
          </g>
          <path id="Trazado_150919" data-name="Trazado 150919" d="M-2083.482,3848.584c-3.748-3.5-9.065-8.576-10.967-12.591-1.236-2.609-1.466-9.935,2.521-10.861,1.334-.841,3.363,4.615,4.729,6.818a96.829,96.829,0,0,0,7.2,10.033c3.08-2,7.328-2.2,11.328-3.187a3.942,3.942,0,0,1,1.84-.052,6.173,6.173,0,0,0,1.392-.486c.453.124,1.954,2.718,1.7,4.246-.319.09-1.024.307-1.357.425-.474.167-.74.619-1.207.871-1.592.858-8.742,4.413-12.3,5.218-1.355.306-3.537,1.012-4.6-.141C-2083.309,3848.777-2083.4,3848.68-2083.482,3848.584Z" transform="translate(2095.246 -3825.046)" fill="#d07efc" fill-rule="evenodd"/>
          <path id="Trazado_150920" data-name="Trazado 150920" d="M-2083.481,3849.1c-3.748-3.5-9.065-8.576-10.967-12.591-1.068-2.254-1.384-8.027,1.12-10.155,1.3-.135,2.055-.169,2.679.353.779.651,1.093,2.267,2.222,4.657,1.71,3.615,4.307,5.723,4.515,9.977.154,3.139,1.586,6.841,3.923,8.514-1.177.241-2.476.348-3.225-.461C-2083.308,3849.3-2083.4,3849.2-2083.481,3849.1Z" transform="translate(2095.246 -3825.565)" fill="#7e41df" fill-rule="evenodd" opacity="0.5"/>
        </g>
        <path id="Trazado_150921" data-name="Trazado 150921" d="M-2108.421,4042.695l-32.142-18.306c-3.5-1.6-8.519-2.875-12.09-1.017-3.252,1.692-8.611,5.157-10.98,6.508-1.8,1.027-8.047,4.77-4.156,6.886,11.446,6.223,22.773,13.224,34.4,19.546a16.3,16.3,0,0,0,8.79,1.347,23.269,23.269,0,0,0,9.52-2.835q2.9-1.684,5.7-3.317c2.521-1.468,3.858-3.2,3.99-4.809C-2105.263,4045.13-2106.27,4043.677-2108.421,4042.695Z" transform="translate(2169.042 -3885.886)" fill="#bceaff" fill-rule="evenodd" opacity="0.5"/>
        <g id="Grupo_68267" data-name="Grupo 68267" transform="translate(23.105 59.431)">
          <g id="Grupo_68264" data-name="Grupo 68264" transform="translate(0.88)">
            <g id="Grupo_68263" data-name="Grupo 68263" transform="translate(0 71.201)">
              <path id="Trazado_150922" data-name="Trazado 150922" d="M-2124.445,4012.166a3.544,3.544,0,0,1-.4,1.987c-1.863,2.707.356,2.479.258,6.34-.008.355,1.569,6.456,1.569,6.456s3.717.9,3.994.852,2.535-.921,2.535-.921c-.191-.33-.444-1.136-.6-1.439a24.5,24.5,0,0,1-2.049-7.154c-.273-1.678-.785-4.287-.44-6.049Z" transform="translate(2126.669 -4012.166)" fill="#ffa698" fill-rule="evenodd"/>
              <path id="Trazado_150923" data-name="Trazado 150923" d="M-2117.159,4028.122a16.513,16.513,0,0,1,1.045,2.46,1.163,1.163,0,0,1-.05,1c-.85,1.224-5.379-.8-6.917-2.071-.994-.819-1.046-1.827-1.314-3.05-.4-1.835-.468-2.041-.974-3.925l-.328,5.17-.416.271a57.4,57.4,0,0,0-.862-6.647c-.153-.711-.4-1.518-.446-1.913a4.088,4.088,0,0,1,1.892-4.206c-.342,1.432.926,3.705,1.492,6.594C-2123.352,4025.3-2120.262,4028.143-2117.159,4028.122Z" transform="translate(2127.46 -4013.453)" fill="#161f69" fill-rule="evenodd"/>
            </g>
            <path id="Trazado_150924" data-name="Trazado 150924" d="M-2099.249,3888.729c-.353,1.587,1.27,7.068.855,9.176-.4,6.939-1.613,12.811-6.289,26.688,0,.158-4.272,8.644-4.558,9.532-2.911,9.053-6.54,18.882-9.625,28.029-1.143.884-4.6.609-5.045-1.542.953-9.136-.086-18.145,1.481-24.4,1.194-4.764,2.759-6.936,5.318-10.466.787-8.98,1.354-26.992,3.4-33.9Z" transform="translate(2125.958 -3888.729)" fill-rule="evenodd" fill="url(#linear-gradient-3)"/>
            <path id="Trazado_150925" data-name="Trazado 150925" d="M-2099.249,3888.729c-.353,1.587-1.4,4.527-1.813,6.635-1.3,3.194-4.05,7.567-5.905,11.24-.555,4.454-.4,10.373-3.18,18.626l-2.518,19.08c-2.071,5.975-4.245,12.047-6.2,17.845-1.143.884-4.6.609-5.045-1.542.953-9.136-.086-18.145,1.481-24.4,1.194-4.764,2.759-6.936,5.318-10.466.787-8.98,1.354-26.992,3.4-33.9Z" transform="translate(2125.958 -3888.729)" fill="#1e2353" fill-rule="evenodd" opacity="0.3" style="mix-blend-mode: multiply;isolation: isolate"/>
          </g>
          <g id="Grupo_68266" data-name="Grupo 68266" transform="translate(0 4.06)">
            <g id="Grupo_68265" data-name="Grupo 68265" transform="translate(5.546 75.96)">
              <path id="Trazado_150926" data-name="Trazado 150926" d="M-2117.759,4027.894a11.918,11.918,0,0,1-.4,2.538,29.508,29.508,0,0,0-.276,4.492,39.974,39.974,0,0,0,1,8.074c.257,1.124.759,1.605,1.1,3.144l6.623,1.082c-.651-2.506-1.549-7.582-2.226-11.829l-1.265-7.94Z" transform="translate(2118.979 -4027.454)" fill="#ffa698" fill-rule="evenodd"/>
              <path id="Trazado_150927" data-name="Trazado 150927" d="M-2118.49,4031.848a12.237,12.237,0,0,0-.878,3.853c-.057,1.813.78,4.648.71,6.893l-.111,3.564c-.065,2.076.462,3.516,2.821,5.232,2.137,1.556,4.219,2.192,5.352,1.64.834-.407,1.5-1.877.221-5.753-1.065-3.229-1.339-6.385-1.965-9.887a35.233,35.233,0,0,0,1.133,7.966c.233.942.37,2.52-.749,2.679-4.627.661-4.86-.583-5.242-2.011C-2118.218,4042.211-2118.964,4035.425-2118.49,4031.848Z" transform="translate(2119.372 -4029.314)" fill="#161f69" fill-rule="evenodd"/>
            </g>
            <path id="Trazado_150928" data-name="Trazado 150928" d="M-2124.265,3897.189c-5.141,6.438-5.271,10.006-4.156,17.741.746,5.172,2.263,11.447,2.642,20.536-.445,4.689-1.284,9.939-.646,17.222.471,5.359,1.977,14.553,3.113,21.051,1.069,2.008,6.12,1.134,6.946.1-.238-9.313-.092-15.7.353-23.222.434-7.317,1.305-14.1,1.854-21.32.453-5.972,2.266-14.093,2.506-20.544.963-3.041,10.069-13.112,8.171-12.982Z" transform="translate(2128.987 -3895.768)" fill-rule="evenodd" fill="url(#linear-gradient-4)"/>
          </g>
        </g>
        <g id="Grupo_68268" data-name="Grupo 68268" transform="translate(24.329 22.461)">
          <path id="Trazado_150929" data-name="Trazado 150929" d="M-2122.741,3852.6c2.309,5.343-1.617,8.3-.2,11.98l-.437,2.492c4.214,3.026,19.286,3.252,23.063-2.747l.079-2.992c.65-1.432.222-5.052.031-6.007-.606-3.037-.323-4.648-.655-8.161-.084-.888-.25-1.447-.333-2.347,3.356-2.508,3.145-7.36,1.156-10.266a25.528,25.528,0,0,1-2.61-4.609,20.927,20.927,0,0,0-.581-2.64,4.39,4.39,0,0,0-.7-1.442c-.958-1.368-2.507-1.531-5.671-.806-6.268,1.439-12.724,4.694-15.605,7.762-2.1,2.232-2.012,4.708-.81,10.062A57.363,57.363,0,0,0-2122.741,3852.6Z" transform="translate(2126.865 -3824.637)" fill="#d07efc" fill-rule="evenodd"/>
          <path id="Trazado_150930" data-name="Trazado 150930" d="M-2122.122,3861.041c2.309,5.343-1.521,8.4-.108,12.075l-.437,2.461c4.214,3.279,19.285,3.124,23.064-2.875l-.081-2.61c0-.1-7.4,6.563-15.823,2.855-1.829-.805-3.486-4.809-1.118-12.455.226-.727,2.91-.778,6.712-3.578-2.806,1.19-8.1,2.82-8.36-4.321-.117-3.193-.586-5.593-2.221-7.813-.792-1.076-5.438,4.57-4.731,7.276A67.665,67.665,0,0,0-2122.122,3861.041Z" transform="translate(2126.201 -3833.104)" fill="#7e41df" fill-rule="evenodd" opacity="0.5"/>
        </g>
        <g id="Grupo_68269" data-name="Grupo 68269" transform="translate(11.033 29.882)">
          <path id="Trazado_150931" data-name="Trazado 150931" d="M-2125.628,3893.593c.767.464,2.163.916,2.725,1.251.29.174,2.375,1.47,3.546,2.259,1.254.842,1.607,2.057,2.356,3.407a8.485,8.485,0,0,1,.843,2.448c.08.57-1.366,1.665-1.981,1.528-1.4-.309-2.821-2.023-3.189-2.214-3.127-1.621-4.624-1.782-5.755-3.072-.482-.551-.778-2.162-1.773-3.61l1.917-1.735Z" transform="translate(2141.004 -3861.238)" fill-rule="evenodd" fill="url(#linear-gradient-5)"/>
          <path id="Trazado_150932" data-name="Trazado 150932" d="M-2134.92,3837.872c-4.645,2.927-9.777,11-14.376,18.179a3.341,3.341,0,0,0-.194,3.567,8.8,8.8,0,0,0,.9,1.626,44.635,44.635,0,0,0,8.992,10.05,3.508,3.508,0,0,0,1.361.564c.293.243.7.68,1.017.934-.388-.5,1.936-3,2.99-2.837-.271-.335-.547-.7-.828-1.084a3.184,3.184,0,0,0-.187-1.187,35.7,35.7,0,0,0-5.871-9.583c4.19-4.531,6.589-5.629,10.492-10.384C-2125.879,3841.942-2131.84,3835.933-2134.92,3837.872Z" transform="translate(2149.915 -3837.501)" fill="#d07efc" fill-rule="evenodd"/>
        </g>
        <g id="Grupo_68270" data-name="Grupo 68270" transform="translate(34.678 6.754)">
          <path id="Trazado_150933" data-name="Trazado 150933" d="M-2107.593,3817.656a16.439,16.439,0,0,1-.626,8.053c2.26,2.093,6.279,1.2,7.213-.693-.2-1.227-.427-2.353-.56-3.612Z" transform="translate(2108.625 -3805.976)" fill="#ffa698" fill-rule="evenodd"/>
          <path id="Trazado_150934" data-name="Trazado 150934" d="M-2107.133,3817.656a15.763,15.763,0,0,1,.2,3.9c.664,2.679,5.676,4.488,6.2,2.357-.142-.823-.281-1.633-.373-2.506Z" transform="translate(2108.166 -3805.976)" fill-rule="evenodd" fill="url(#linear-gradient-6)"/>
          <path id="Trazado_150935" data-name="Trazado 150935" d="M-2098.556,3797.407a8.957,8.957,0,0,1,1.467,6.132,2.634,2.634,0,0,0,.21,1.465c1.053,2.379.959,3.116.437,5.022-.508,1.854-.474,2.822-1.105,3.458a3.693,3.693,0,0,1-2.443.856c-1.687.107-4.582-1.007-6.266-1.928-1.248-.681-1.2-1.148-1.726-2.331-1.761-1.532-.621-2.65-.031-2.765,1.693-.329,1.966,1.621,2.969,2.052C-2105.209,3805.942-2098.68,3800.158-2098.556,3797.407Z" transform="translate(2108.924 -3797.407)" fill="#ffa698" fill-rule="evenodd"/>
          <path id="Trazado_150936" data-name="Trazado 150936" d="M-2093.521,3799.786a8.8,8.8,0,0,1,.718,4.76,2.632,2.632,0,0,0,.21,1.465c1.053,2.378.959,3.116.437,5.022-.228.831-.347,1.484-.466,2.01a1.581,1.581,0,0,1-1.969.569,3.04,3.04,0,0,1-1.571-2.534c-.124-.986-2.144-1.636-2.561-2.638-.345-.831.587-1.759,1.153-2.237A14.076,14.076,0,0,0-2093.521,3799.786Z" transform="translate(2104.638 -3798.414)" fill-rule="evenodd" fill="url(#linear-gradient-7)"/>
          <path id="Trazado_150937" data-name="Trazado 150937" d="M-2095.708,3797.407c-.947,4.207-6.442,7.391-6.488,11.961C-2100.693,3804.62-2095.364,3801.369-2095.708,3797.407Z" transform="translate(2106.077 -3797.407)" fill="#ff8f7f" fill-rule="evenodd"/>
        </g>
      </g>
      <g id="Grupo_68291" data-name="Grupo 68291" transform="translate(62.255 23.103)">
        <path id="Trazado_150938" data-name="Trazado 150938" d="M-1913.626,4064.671l-99.535-55.448c-3.125-1.428-7.716-2.774-10.78-.907l-7.841,4.777c-1.577.96-6.764,4.15-3.3,6.036,10.207,5.55,90.771,51.02,101.135,56.658a14.547,14.547,0,0,0,7.838,1.2,19.7,19.7,0,0,0,8.489-2.528l3.132-1.932c2.214-1.366,3.44-2.857,3.558-4.288C-1910.81,4066.843-1911.708,4065.546-1913.626,4064.671Z" transform="translate(2050.592 -3755.502)" fill="#4ed7de" fill-rule="evenodd" opacity="0.5"/>
        <g id="Grupo_68290" data-name="Grupo 68290">
          <g id="Grupo_68272" data-name="Grupo 68272" transform="translate(16.664 4.957)">
            <path id="Trazado_150939" data-name="Trazado 150939" d="M-1953.247,3580.363a7.055,7.055,0,0,0-6-.671l-6.231,2.435c1.042-.406,110.608,64.135,109.783,69.761l-38.361,238.2,6.231-2.432c2.64-1.04,4.025-3.787,4.412-6.459l33.95-231.738a.191.191,0,0,0,0-.026,16.551,16.551,0,0,0-2.762-11.209,13.049,13.049,0,0,0-4.535-4.374Z" transform="translate(2003.981 -3579.295)" fill="#273087" fill-rule="evenodd"/>
            <path id="Trazado_150940" data-name="Trazado 150940" d="M-1891.235,3638.063l-96.486-53.484c-4.893-2.712-9.551-.109-10.415,5.793l-33.95,231.738c-.864,5.9,2.389,12.891,7.281,15.6l96.488,53.484c4.892,2.711,9.562.114,10.426-5.786l33.95-231.741C-1883.077,3647.77-1886.343,3640.775-1891.235,3638.063Z" transform="translate(2032.226 -3581.077)" fill="#d07efc" fill-rule="evenodd"/>
          </g>
          <g id="Grupo_68274" data-name="Grupo 68274" transform="translate(11.34 188.612)">
            <path id="Trazado_150941" data-name="Trazado 150941" d="M-1928.358,3960.891l-89.814-49.785a6.508,6.508,0,0,0-5.583-.626c-2.093.815-3.659,2.933-4.112,6.019l-5.96,41.99c-.8,5.494,2.223,12,6.776,14.522l89.815,49.785c4.555,2.524,8.9.107,9.706-5.386l5.959-41.992C-1920.765,3969.927-1923.8,3963.415-1928.358,3960.891Z" transform="translate(2038.282 -3902.941)" fill-rule="evenodd" opacity="0.5" fill="url(#linear-gradient-8)" style="mix-blend-mode: multiply;isolation: isolate"/>
            <g id="Grupo_68273" data-name="Grupo 68273">
              <path id="Trazado_150942" data-name="Trazado 150942" d="M-1925.869,3965.259l-7.329,46.508.821.1,2.241-.87c2.457-.968,3.746-3.526,4.106-6.013l5.96-41.989a.151.151,0,0,0,0-.025,15.4,15.4,0,0,0-2.571-10.435,12.151,12.151,0,0,0-4.221-4.071l-89.816-49.785a6.567,6.567,0,0,0-5.586-.624l-1.976.772c-.994.374-1.3.672-1.3.734C-2024.6,3908.253-1924.561,3956.343-1925.869,3965.259Z" transform="translate(2034.716 -3897.685)" fill="#273087" fill-rule="evenodd"/>
              <path id="Trazado_150943" data-name="Trazado 150943" d="M-1935.856,3950l-89.814-49.785a6.51,6.51,0,0,0-5.584-.626c-2.093.815-3.659,2.933-4.111,6.018l-5.96,41.991c-.8,5.494,2.223,12,6.777,14.522l89.815,49.786c4.554,2.523,8.9.106,9.706-5.387l5.96-41.991C-1928.263,3959.036-1931.3,3952.525-1935.856,3950Z" transform="translate(2041.455 -3898.333)" fill="#b2fbff" fill-rule="evenodd"/>
              <path id="Trazado_150944" data-name="Trazado 150944" d="M-2029.866,3941.052a3.623,3.623,0,0,0,1.62,3.471l92.189,51.14a1.507,1.507,0,0,0,2.32-1.287c1.5-9.071,2.6-18.336,3.895-27.455a3.622,3.622,0,0,0-1.623-3.472l-92.188-51.141a1.556,1.556,0,0,0-1.335-.149,1.71,1.71,0,0,0-.982,1.439Z" transform="translate(2036.563 -3903.772)" fill="#18b6fe" fill-rule="evenodd"/>
              <path id="Trazado_150945" data-name="Trazado 150945" d="M-1936.446,4032.716l-92.187-51.141a1.559,1.559,0,0,0-1.335-.149,1.711,1.711,0,0,0-.983,1.438l-.342,2.07a3.624,3.624,0,0,0,1.62,3.472l92.188,51.139a1.507,1.507,0,0,0,2.32-1.288l.342-2.07A3.623,3.623,0,0,0-1936.446,4032.716Z" transform="translate(2037.168 -3933.085)" fill="#18b6fe" fill-rule="evenodd"/>
            </g>
          </g>
          <g id="Grupo_68276" data-name="Grupo 68276" transform="translate(114.216 55.601)">
            <path id="Trazado_150946" data-name="Trazado 150946" d="M-1814.692,3686.665l-33.429-18.471a7.18,7.18,0,0,0-6.158-.691c-2.31.9-4.037,3.235-4.535,6.639l-4.149,29.635c-.888,6.06,2.452,13.235,7.474,16.02l33.431,18.471a9.026,9.026,0,0,0,2.323.913l6.13-1.783,6-40.8C-1808.682,3692.414-1811.307,3688.541-1814.692,3686.665Z" transform="translate(1863.106 -3667.092)" fill-rule="evenodd" opacity="0.5" fill="url(#linear-gradient-9)" style="mix-blend-mode: multiply;isolation: isolate"/>
            <g id="Grupo_68275" data-name="Grupo 68275" transform="translate(2.45 0.217)">
              <path id="Trazado_150947" data-name="Trazado 150947" d="M-1802.245,3704.148l-5.269,32.5.821.1,2.241-.87c2.457-.968,3.746-3.526,4.107-6.013l3.9-27.984a.14.14,0,0,0,0-.024,15.4,15.4,0,0,0-2.57-10.435,12.144,12.144,0,0,0-4.221-4.071l-34.414-18.892a6.564,6.564,0,0,0-5.586-.624l-1.976.772c-.994.374-1.3.673-1.3.734C-1845.572,3678.035-1800.937,3695.233-1802.245,3704.148Z" transform="translate(1853.631 -3667.468)" fill="#273087" fill-rule="evenodd"/>
              <path id="Trazado_150948" data-name="Trazado 150948" d="M-1810.721,3688.891-1845.133,3670a6.51,6.51,0,0,0-5.584-.626c-2.093.816-3.659,2.933-4.111,6.019l-3.9,27.986c-.8,5.493,2.223,12,6.776,14.522l34.414,18.892c4.555,2.524,8.9.107,9.705-5.385l3.9-27.988C-1803.128,3697.927-1806.168,3691.414-1810.721,3688.891Z" transform="translate(1858.859 -3668.116)" fill="#fff" fill-rule="evenodd"/>
              <path id="Trazado_150949" data-name="Trazado 150949" d="M-1822.367,3703.98a2.749,2.749,0,0,1,.284,1.6,10.515,10.515,0,0,1-.625,2.049l-7.333,20.366c-.237.68-.454,1.2-.61,1.571a1.249,1.249,0,0,1-.663.711,1.186,1.186,0,0,1-1.058-.245,2.759,2.759,0,0,1-1.447-2.809,14.348,14.348,0,0,1,.606-2.123l7.313-20.377a7.377,7.377,0,0,1,.984-2.105c.267-.331.727-.289,1.346.093a3.076,3.076,0,0,1,1.205,1.268Zm1.957,5.29-.672,5.664,10.835,12.567-12.144-1.538-.674,5.688,17.475,1.367.572-4.822-15.392-18.926Zm-30.544-4.321,15.4,18.946.675-5.689-10.783-12.646,12.089,1.643.681-5.737-17.479-1.4Z" transform="translate(1855.513 -3681.265)" fill="#856de9" fill-rule="evenodd"/>
            </g>
          </g>
          <g id="Grupo_68278" data-name="Grupo 68278" transform="translate(4.088 82.681)">
            <path id="Trazado_150950" data-name="Trazado 150950" d="M-1981.478,3746.108l-17.656-9.693-7.645,52.186,17.857,9.8c4.974,2.754,9.718.116,10.6-5.88l4.258-30.556C-1973.188,3755.973-1976.507,3748.864-1981.478,3746.108Z" transform="translate(2034.033 -3723.508)" fill-rule="evenodd" opacity="0.5" fill="url(#linear-gradient-10)" style="mix-blend-mode: multiply;isolation: isolate"/>
            <g id="Grupo_68277" data-name="Grupo 68277">
              <path id="Trazado_150951" data-name="Trazado 150951" d="M-1997.414,3750.718l-5.269,32.5.821.1,2.241-.87c2.457-.968,3.746-3.526,4.106-6.013l3.9-27.985a.135.135,0,0,0,0-.024,15.4,15.4,0,0,0-2.571-10.434,12.14,12.14,0,0,0-4.221-4.071l-34.414-18.892a6.567,6.567,0,0,0-5.586-.624l-1.976.773c-.994.373-1.3.672-1.3.734C-2040.741,3724.605-1996.105,3741.8-1997.414,3750.718Z" transform="translate(2048.8 -3714.038)" fill="#273087" fill-rule="evenodd"/>
              <path id="Trazado_150952" data-name="Trazado 150952" d="M-2005.89,3735.461l-34.412-18.892a6.509,6.509,0,0,0-5.584-.626c-2.093.815-3.659,2.932-4.111,6.019l-3.9,27.986c-.8,5.493,2.223,12,6.776,14.522l34.414,18.893c4.555,2.523,8.9.106,9.706-5.385l3.9-27.988C-1998.3,3744.5-2001.337,3737.985-2005.89,3735.461Z" transform="translate(2054.028 -3714.687)" fill="#18b6fe" fill-rule="evenodd"/>
              <path id="Trazado_150953" data-name="Trazado 150953" d="M-2015.722,3760.185l-.806,5.409,2.437,1.354a24.859,24.859,0,0,0,2.736,1.4,1.683,1.683,0,0,0,1.61.018,2,2,0,0,0,.823-1.513,3.977,3.977,0,0,0-.2-2.041,3.322,3.322,0,0,0-1.272-1.585c-.363-.241-1.421-.869-3.191-1.853l-2.138-1.187Zm-19.137.466,5.06,2.812-1.3-10.107-3.758,7.295Zm2.624-13.888,3.966,2.2,3.907,27.58-4.016-2.23-.819-6.245-7.411-4.12-2.315,4.5-3.968-2.206,10.656-19.487Zm21.733,32.041a2.607,2.607,0,0,0,.811-1.729,4.345,4.345,0,0,0-.13-2,4.5,4.5,0,0,0-.99-1.721,14.934,14.934,0,0,0-3.276-2.207l-3.018-1.677-.941,6.319,3.473,1.928a14.094,14.094,0,0,0,2.59,1.264,1.507,1.507,0,0,0,1.482-.174Zm4.263-3.38a8.7,8.7,0,0,1,.355,4.019,6.539,6.539,0,0,1-1.048,2.812,3.5,3.5,0,0,1-1.944,1.515,3.854,3.854,0,0,1-2.693-.272c-.622-.265-2.122-1.019-4.5-2.342l-6.309-3.505,3.494-23.467,7.4,4.114a25.424,25.424,0,0,1,3.226,2.045,7.742,7.742,0,0,1,1.81,2.056,10.229,10.229,0,0,1,1.107,2.759,7.287,7.287,0,0,1,.179,3.027,4.839,4.839,0,0,1-1.157,2.632,2.8,2.8,0,0,1-2.193,1A9.151,9.151,0,0,1-2006.239,3775.424Z" transform="translate(2049.315 -3727.887)" fill="#fff" fill-rule="evenodd"/>
            </g>
          </g>
          <g id="Grupo_68281" data-name="Grupo 68281" transform="translate(112.352 113.968)">
            <path id="Trazado_150954" data-name="Trazado 150954" d="M-1855.278,3798.407c-6.1-4.866-9.752-14.973-8.152-22.583s7.841-9.832,13.944-4.966,9.751,14.978,8.152,22.583S-1849.178,3803.27-1855.278,3798.407Z" transform="translate(1865.267 -3768.28)" fill-rule="evenodd" opacity="0.5" fill="url(#linear-gradient-11)" style="mix-blend-mode: multiply;isolation: isolate"/>
            <g id="Grupo_68280" data-name="Grupo 68280" transform="translate(0 0.184)">
              <path id="Trazado_150955" data-name="Trazado 150955" d="M-1861.518,3770.51c1.109-1.156,3.895-1.819,5.455-1.9a8.677,8.677,0,0,1,5.867,2.3c5.288,4.359,8.453,13.421,7.067,20.235a9.747,9.747,0,0,1-2.19,4.756,11.968,11.968,0,0,1-5.52,2.464C-1859.459,3799.563-1864.781,3773.911-1861.518,3770.51Z" transform="translate(1864.709 -3768.598)" fill="#273087" fill-rule="evenodd"/>
              <g id="Grupo_68279" data-name="Grupo 68279" transform="translate(0 0.531)">
                <path id="Trazado_150956" data-name="Trazado 150956" d="M-1858.946,3796.514c-5.291-4.361-8.454-13.417-7.067-20.234s6.8-8.81,12.087-4.45,8.453,13.42,7.067,20.234S-1853.658,3800.871-1858.946,3796.514Z" transform="translate(1866.339 -3769.52)" fill="#b2fbff" fill-rule="evenodd"/>
                <path id="Trazado_150957" data-name="Trazado 150957" d="M-1849.487,3787.473l1.438,1.03-10.407,9.986-3.91-10.281,1.919,1.1,2.56,3.64Z" transform="translate(1864.657 -3777.117)" fill="#fff" fill-rule="evenodd"/>
              </g>
            </g>
          </g>
          <g id="Grupo_68282" data-name="Grupo 68282" transform="translate(28.955 157.48)">
            <path id="Trazado_150958" data-name="Trazado 150958" d="M-1984.2,3852.275l-11.753-6.617a7.342,7.342,0,0,0-6.3-.706c-2.362.92-4.128,3.309-4.638,6.789l-1.555,10.951c-.908,6.2,2.508,13.535,7.645,16.383l11.755,6.617c5.138,2.846,10.041.12,10.949-6.075l1.553-10.952C-1975.639,3862.468-1979.068,3855.122-1984.2,3852.275Z" transform="translate(2009.935 -3844.059)" fill-rule="evenodd" opacity="0.5" fill="url(#linear-gradient-12)" style="mix-blend-mode: multiply;isolation: isolate"/>
            <path id="Trazado_150959" data-name="Trazado 150959" d="M-1982.668,3867.366l-2.747,14.225.821.1,2.241-.87c2.457-.968,3.746-3.526,4.107-6.013l1.378-9.706c0-.009,0-.018,0-.024a15.408,15.408,0,0,0-2.571-10.436,12.137,12.137,0,0,0-4.221-4.069l-10.421-5.865a6.562,6.562,0,0,0-5.586-.624l-1.976.771c-.994.374-1.3.674-1.295.734C-2002,3854.281-1981.36,3858.451-1982.668,3867.366Z" transform="translate(2007.538 -3843.713)" fill="#273087" fill-rule="evenodd"/>
            <path id="Trazado_150960" data-name="Trazado 150960" d="M-1989.295,3852.11l-10.419-5.865a6.507,6.507,0,0,0-5.583-.626c-2.093.815-3.659,2.933-4.111,6.018l-1.379,9.708c-.8,5.492,2.223,12,6.777,14.522l10.42,5.865c4.554,2.523,8.9.107,9.705-5.385l1.377-9.709C-1981.7,3861.146-1984.742,3854.634-1989.295,3852.11Z" transform="translate(2010.917 -3844.361)" fill="#7ff9ff" fill-rule="evenodd"/>
            <path id="Trazado_150961" data-name="Trazado 150961" d="M-1986.494,3868.3c-.2,1.376-1.278,2-2.416,1.368a3.8,3.8,0,0,1-1.7-3.651,1.564,1.564,0,0,1,2.431-1.321,3.75,3.75,0,0,1,1.687,3.6Zm-6.244,12.222a1.567,1.567,0,0,1,2.433-1.329,3.751,3.751,0,0,1,1.687,3.613c-.2,1.374-1.279,2-2.417,1.367a3.8,3.8,0,0,1-1.7-3.651Zm-7.107-11.763a1.572,1.572,0,0,1-2.432,1.322,3.761,3.761,0,0,1-1.687-3.6c.2-1.376,1.285-1.994,2.416-1.367a3.823,3.823,0,0,1,1.7,3.649Zm11.92-5.814c-1.936-1.074-3.794-.072-4.137,2.269l0,.174-6.748,1.063a5.72,5.72,0,0,0-2.485-3.067c-1.935-1.073-3.767-.047-4.109,2.292a6.425,6.425,0,0,0,2.872,6.155,2.524,2.524,0,0,0,2.945-.085l5.443,7.847-.042.126a6.444,6.444,0,0,0,2.9,6.17c1.914,1.061,3.765.055,4.109-2.285a6.472,6.472,0,0,0-2.871-6.164,2.545,2.545,0,0,0-3.476.577l-5.156-7.514a3.071,3.071,0,0,0,.262-.954,4.191,4.191,0,0,0,.04-1.113l6.417-1.1a6.227,6.227,0,0,0,2.8,4.053c1.915,1.061,3.767.046,4.11-2.294A6.427,6.427,0,0,0-1987.925,3862.948Z" transform="translate(2008.607 -3851.67)" fill="#fff" fill-rule="evenodd"/>
          </g>
          <g id="Grupo_68285" data-name="Grupo 68285" transform="translate(62.942 126.288)">
            <path id="Trazado_150962" data-name="Trazado 150962" d="M-1858.127,3834.251l-75.856-42.048a6.728,6.728,0,0,0-5.77-.646c-2.163.842-3.781,3.03-4.248,6.219l-7.862,55.734c-.831,5.677,2.3,12.4,7,15.007l70.723,39.2,6.2-1.9Z" transform="translate(1951.997 -3790.286)" fill-rule="evenodd" opacity="0.5" fill="url(#linear-gradient-13)" style="mix-blend-mode: multiply;isolation: isolate"/>
            <g id="Grupo_68284" data-name="Grupo 68284" transform="translate(3.807)">
              <path id="Trazado_150963" data-name="Trazado 150963" d="M-1826.955,3857.211l-8.977,58.453.821.1,2.241-.871c2.457-.968,3.747-3.526,4.107-6.012l7.608-53.935a.192.192,0,0,0,0-.024,15.406,15.406,0,0,0-2.57-10.435,12.138,12.138,0,0,0-4.221-4.07l-89.816-49.785a6.566,6.566,0,0,0-5.587-.624l-1.975.772c-.994.374-1.3.673-1.3.734C-1925.683,3800.206-1825.646,3848.3-1826.955,3857.211Z" transform="translate(1937.449 -3789.638)" fill="#273087" fill-rule="evenodd"/>
              <path id="Trazado_150964" data-name="Trazado 150964" d="M-1838.151,3841.954l-89.814-49.785a6.511,6.511,0,0,0-5.583-.626c-2.094.815-3.659,2.933-4.112,6.019l-7.608,53.935c-.805,5.494,2.223,12,6.776,14.522l89.816,49.785c4.554,2.523,8.9.107,9.706-5.386l7.607-53.937C-1830.557,3850.99-1833.6,3844.478-1838.151,3841.954Z" transform="translate(1945.397 -3790.286)" fill="#856de9" fill-rule="evenodd"/>
              <g id="Grupo_68283" data-name="Grupo 68283" transform="translate(4.196 33.321)">
                <path id="Trazado_150965" data-name="Trazado 150965" d="M-1836.818,3898.783l-92.187-51.14a1.556,1.556,0,0,0-1.335-.149,1.711,1.711,0,0,0-.983,1.439l-.342,2.07a3.623,3.623,0,0,0,1.62,3.471l92.188,51.14a1.507,1.507,0,0,0,2.321-1.288l.341-2.07A3.623,3.623,0,0,0-1836.818,3898.783Z" transform="translate(1935.403 -3847.404)" fill="#f2f4ff" fill-rule="evenodd" opacity="0.5"/>
                <path id="Trazado_150966" data-name="Trazado 150966" d="M-1840.031,3920.742l-92.188-51.141a1.558,1.558,0,0,0-1.335-.149,1.709,1.709,0,0,0-.983,1.438l-.342,2.071a3.622,3.622,0,0,0,1.62,3.471l92.188,51.14a1.507,1.507,0,0,0,2.32-1.288l.342-2.07A3.624,3.624,0,0,0-1840.031,3920.742Z" transform="translate(1936.763 -3856.697)" fill="#f2f4ff" fill-rule="evenodd" opacity="0.5"/>
                <path id="Trazado_150967" data-name="Trazado 150967" d="M-1886.7,3918.4l-48.732-26.838a1.559,1.559,0,0,0-1.335-.15,1.712,1.712,0,0,0-.982,1.439l-.342,2.07a3.621,3.621,0,0,0,1.62,3.471l48.732,26.837a1.507,1.507,0,0,0,2.321-1.288l.342-2.07A3.623,3.623,0,0,0-1886.7,3918.4Z" transform="translate(1938.123 -3865.989)" fill="#f2f4ff" fill-rule="evenodd" opacity="0.5"/>
              </g>
              <path id="Trazado_150968" data-name="Trazado 150968" d="M-1851.075,3850.8c-1.656-.917-3.234-.039-3.527,1.962a5.508,5.508,0,0,0,2.467,5.276c1.656.917,3.234.04,3.526-1.953a5.512,5.512,0,0,0-2.466-5.284Zm4.049,6.162c-.448,3.059-2.862,4.4-5.392,3a8.422,8.422,0,0,1-3.769-8.076c.448-3.059,2.861-4.4,5.392-3a8.423,8.423,0,0,1,3.769,8.077Zm3.877.359,1.649.914a16.094,16.094,0,0,1-.15,1.707,13.973,13.973,0,0,1-.334,1.595l-1.649-.914a7.455,7.455,0,0,1-2.057,3.405l.962,2.059a6.814,6.814,0,0,1-2.277,1.259l-.955-2.048a6.349,6.349,0,0,1-3.732-.184l-.291,1.983a10.218,10.218,0,0,1-1.387-.637,12.157,12.157,0,0,1-1.351-.879l.291-1.985a13.969,13.969,0,0,1-3.221-3.67l-1.367.761a19.975,19.975,0,0,1-1.593-3.4l1.375-.764a15.289,15.289,0,0,1-.825-5l-1.648-.915a16.045,16.045,0,0,1,.147-1.7,13.958,13.958,0,0,1,.336-1.6l1.649.914a7.444,7.444,0,0,1,2.057-3.4l-.963-2.052a6.57,6.57,0,0,1,2.278-1.266l.955,2.047a6.28,6.28,0,0,1,3.731.193l.292-1.992a10.1,10.1,0,0,1,1.385.646,11.919,11.919,0,0,1,1.353.871l-.292,1.994a13.794,13.794,0,0,1,3.222,3.661l1.367-.76a20.07,20.07,0,0,1,1.592,3.413l-1.375.757A15.266,15.266,0,0,1-1843.148,3857.32Z" transform="translate(1909.983 -3811.581)" fill="#f2f4ff" fill-rule="evenodd" opacity="0.5"/>
            </g>
          </g>
          <g id="Grupo_68289" data-name="Grupo 68289">
            <path id="Trazado_150969" data-name="Trazado 150969" d="M-1922.226,3637.293l-58.923-32.661-9.848,64.9,59.11,32.764c4.7,2.6,9.18.11,10.011-5.554l6.651-44.464C-1914.393,3646.613-1917.529,3639.9-1922.226,3637.293Z" transform="translate(2031.443 -3585.06)" fill-rule="evenodd" opacity="0.5" fill="url(#linear-gradient-14)" style="mix-blend-mode: multiply;isolation: isolate"/>
            <g id="Grupo_68288" data-name="Grupo 68288">
              <path id="Trazado_150970" data-name="Trazado 150970" d="M-1946.065,3638.274l-7.019,43.831.821.1,2.241-.87c2.457-.968,3.746-3.526,4.106-6.013l5.652-39.312a.116.116,0,0,0,0-.024,15.408,15.408,0,0,0-2.571-10.435,12.138,12.138,0,0,0-4.221-4.071l-89.816-49.785a6.566,6.566,0,0,0-5.586-.624l-1.976.771c-.994.373-1.3.673-1.3.734C-2044.793,3581.269-1944.756,3629.359-1946.065,3638.274Z" transform="translate(2054.602 -3570.701)" fill="#273087" fill-rule="evenodd"/>
              <path id="Trazado_150971" data-name="Trazado 150971" d="M-1955.825,3623.017l-89.815-49.785a6.508,6.508,0,0,0-5.583-.626c-2.094.815-3.659,2.933-4.112,6.019l-5.651,39.313c-.8,5.493,2.224,12,6.777,14.523l89.815,49.785c4.555,2.523,8.9.107,9.706-5.385l5.651-39.316C-1948.231,3632.052-1951.271,3625.54-1955.825,3623.017Z" transform="translate(2061.115 -3571.349)" fill="#fff" fill-rule="evenodd"/>
              <g id="Grupo_68286" data-name="Grupo 68286" transform="translate(7.119 20.085)">
                <path id="Trazado_150972" data-name="Trazado 150972" d="M-2034.394,3607.32c-6.675-4.186-13.025-.823-14.192,7.5s3.29,18.471,9.966,22.657,13.025.822,14.192-7.509S-2027.725,3611.5-2034.394,3607.32Z" transform="translate(2048.772 -3605.52)" fill="#18b6fe" fill-rule="evenodd"/>
                <path id="Trazado_150973" data-name="Trazado 150973" d="M-2036.019,3615.111l-2.054,15.068,12.854,1.064Z" transform="translate(2044.245 -3609.579)" fill="#fff" fill-rule="evenodd"/>
              </g>
              <g id="Grupo_68287" data-name="Grupo 68287" transform="translate(33.224 26.319)">
                <path id="Trazado_150974" data-name="Trazado 150974" d="M-1931.818,3673.5l-63.45-35.455a1.439,1.439,0,0,0-1.232-.138,1.58,1.58,0,0,0-.907,1.328l-.315,1.91a3.344,3.344,0,0,0,1.495,3.2l63.45,35.455a1.391,1.391,0,0,0,2.141-1.188l.315-1.91A3.345,3.345,0,0,0-1931.818,3673.5Z" transform="translate(2001.076 -3625.426)" fill="#6d6afd" fill-rule="evenodd" opacity="0.5"/>
                <path id="Trazado_150975" data-name="Trazado 150975" d="M-1934.453,3693.849l-63.45-35.456a1.44,1.44,0,0,0-1.232-.137,1.578,1.578,0,0,0-.907,1.328l-.316,1.91a3.341,3.341,0,0,0,1.5,3.2l63.45,35.455a1.391,1.391,0,0,0,2.141-1.188l.315-1.91A3.344,3.344,0,0,0-1934.453,3693.849Z" transform="translate(2002.192 -3634.036)" fill="#6d6afd" fill-rule="evenodd" opacity="0.5"/>
                <path id="Trazado_150976" data-name="Trazado 150976" d="M-1937.583,3714.113l-63.45-35.456a1.439,1.439,0,0,0-1.232-.137,1.58,1.58,0,0,0-.907,1.328l-.316,1.91a3.344,3.344,0,0,0,1.495,3.2l63.45,35.454a1.391,1.391,0,0,0,2.141-1.188l.315-1.91A3.343,3.343,0,0,0-1937.583,3714.113Z" transform="translate(2003.516 -3642.611)" fill="#6d6afd" fill-rule="evenodd" opacity="0.5"/>
                <path id="Trazado_150977" data-name="Trazado 150977" d="M-1928.851,3652l-63.45-35.455a1.435,1.435,0,0,0-1.232-.137,1.579,1.579,0,0,0-.907,1.328l-.315,1.91a3.342,3.342,0,0,0,1.494,3.2l63.45,35.454a1.39,1.39,0,0,0,2.141-1.188l.316-1.911A3.345,3.345,0,0,0-1928.851,3652Z" transform="translate(1999.821 -3616.328)" fill="#44a7f7" fill-rule="evenodd" opacity="0.5"/>
              </g>
            </g>
          </g>
        </g>
      </g>
      <g id="Grupo_68303" data-name="Grupo 68303" transform="translate(204.779 181.414)">
        <path id="Trazado_150978" data-name="Trazado 150978" d="M-1690.963,4140.07-1733.222,4116c-4.607-2.1-11.2-3.781-15.894-1.337-4.276,2.226-11.321,6.781-14.436,8.558-2.366,1.349-10.58,6.27-5.464,9.052,15.049,8.183,29.942,17.385,45.223,25.7,2.89,1.572,7.118,2.141,11.556,1.772a30.61,30.61,0,0,0,12.516-3.728q3.81-2.216,7.494-4.362c3.315-1.93,5.072-4.212,5.246-6.323C-1686.811,4143.271-1688.135,4141.361-1690.963,4140.07Z" transform="translate(1795.679 -3958.692)" fill="#53c9ff" fill-rule="evenodd" opacity="0.5"/>
        <g id="Grupo_68302" data-name="Grupo 68302">
          <path id="Trazado_150979" data-name="Trazado 150979" d="M-1688.082,3920.359c.565-2.456,1.358-5.282,2.083-8.165,1.453-5.775,2.639-11.781,1.189-15.5a7.85,7.85,0,0,0-2.924-3.338c-3.176-2.551-2.7,4.3-7.678,3.707-.792,1.06-.547,3.447-.287,5.73C-1694.757,3911.038-1690.806,3922.905-1688.082,3920.359Z" transform="translate(1764.062 -3865.309)" fill="#0960ac" fill-rule="evenodd" opacity="0.35" style="mix-blend-mode: multiply;isolation: isolate"/>
          <g id="Grupo_68293" data-name="Grupo 68293" transform="translate(38.023 25.975)">
            <g id="Grupo_68292" data-name="Grupo 68292">
              <path id="Trazado_150980" data-name="Trazado 150980" d="M-1737.228,3893.638c.565-1.742,2.586-.821,3.158-.151a9.7,9.7,0,0,0,3.522,2.7,5.322,5.322,0,0,1,4.213,4c.245.828-.417.774-1.233,1.957-2.6-2.026-5.526-2.122-5.764-2.479C-1735.668,3896.149-1734.171,3896.548-1737.228,3893.638Z" transform="translate(1743.507 -3891.223)" fill="#ffa698" fill-rule="evenodd"/>
              <path id="Trazado_150981" data-name="Trazado 150981" d="M-1733.939,3904.25l2.718,3.153,3.161-5.547c-.453-.643-1.292-.742-1.661-1.457a12.6,12.6,0,0,0-.644-1.378c-1.43-2.576-2.413-2.992-7.489-3.685a4.1,4.1,0,0,1-2.573-1.142l-3.463-3.094c-1.135-.842-2.067-1.073-2.51-.816a8.242,8.242,0,0,0-1.69,4.382v.006c-.1.342.114.836.621,1.393,1.508,1.653,2.787,3.117,4.124,4.739,2.3,2.785,1.65,1.732,5.542,2.255C-1735.643,3903.351-1734.747,3903.635-1733.939,3904.25Z" transform="translate(1748.113 -3890.185)" fill="#ffa698" fill-rule="evenodd"/>
              <path id="Trazado_150982" data-name="Trazado 150982" d="M-1743.958,3895.449c.132-.625,1.025-3.635,1.339-3.723.619-.174,1.453.854,2.243,1.633,1.181,1.165,3.189,3.663,4.8,4.016,3.835.84,5.58,2.108,7.373,7.45l-.985-.627c-2.078-6.357-5.727-1.531-9.5-3.9C-1740.983,3898.858-1744.062,3895.943-1743.958,3895.449Z" transform="translate(1746.356 -3890.829)" fill="#ff9483" fill-rule="evenodd"/>
            </g>
            <path id="Trazado_150983" data-name="Trazado 150983" d="M-1714.254,3910.081a13.938,13.938,0,0,1-2.753-1.036c-.621-.493-1.516-1.22-1.86-1.465-1.419.553-3.068,2.725-4.072,4.756.622.7,1.241,1.438,1.855,2.214.457.576.69,2.144,1.143,2.75,2.812,3.766,9.1,8.4,12.581,11.718,4.159,3.958,9.022,4.308,11.125,1.847,1.129-1.321,1.817-3.337.384-6.293-.9-1.861-3.376-3.754-5.528-5.552C-1705.475,3915.6-1711.893,3911.02-1714.254,3910.081Z" transform="translate(1737.46 -3897.546)" fill-rule="evenodd" fill="url(#linear-gradient-15)"/>
          </g>
          <path id="Trazado_150984" data-name="Trazado 150984" d="M-1683.036,3926.389c-1.52,1.705-4.334,1.921-7.2-.676-.186-.124-.371-.254-.557-.4l-.219-.551a4.216,4.216,0,0,1-.631-1.621c-.361-.941-.729-1.931-1.064-2.877-1.264-3.572-3.9-11.952-4.633-18.208-1.024-8.728,5.618-12.262,10.2-9.9,3.934,2.028,4.136,8.87,4.677,12.594C-1681.689,3910.081-1679.355,3922.258-1683.036,3926.389Z" transform="translate(1764.694 -3864.742)" fill="#0794d4" fill-rule="evenodd"/>
          <g id="Grupo_68294" data-name="Grupo 68294" transform="translate(62.953 172.605)">
            <path id="Trazado_150985" data-name="Trazado 150985" d="M-1682.08,4155.4c-.9-.02-3.93-2.869-6.8-1.43-3.448,1.727-9.993.2-13.3.991-.589.141-1.739-.292-1.966.112-.712,1.266-1.4,3.158.35,4.4a29.978,29.978,0,0,0,5.854,2.759,49.487,49.487,0,0,0,7.406,2.1c2.439.381,3.551.538,4.464,1.243a6.5,6.5,0,0,0,3.4.819,5.738,5.738,0,0,0,4.342-3.03,12.966,12.966,0,0,0-.034-4.807,24.284,24.284,0,0,0-1.536-4.2Z" transform="translate(1704.895 -4148.27)" fill="#fff" fill-rule="evenodd"/>
            <path id="Trazado_150986" data-name="Trazado 150986" d="M-1677.565,4145.389c1.091,2.618.755,6.669,3.34,8.075,1.728.94,4.433.949,5.613-1.736.657-1.5-.216-4.056-.022-7.343Z" transform="translate(1693.329 -4144.386)" fill="#ffa495" fill-rule="evenodd"/>
            <path id="Trazado_150987" data-name="Trazado 150987" d="M-1689.616,4151.516c-1.981.575-7.448.19-10.9.471-1.486.12-2.818.108-3.513,1.458-.639,1.241-.3,2.3,1.143,3.328a24.492,24.492,0,0,0,5.281,2.591,49.514,49.514,0,0,0,7.406,2.1c2.439.382,3.552.539,4.464,1.243a6.5,6.5,0,0,0,3.405.82,6,6,0,0,0,4.342-3.222,11.942,11.942,0,0,0-.034-4.616,8.484,8.484,0,0,0-.254-.978c-.272-2.6-1.131-3.653-1.941-3.208a5,5,0,0,0-1.949,2.608,2.55,2.55,0,0,1-1.506,1.437,2.978,2.978,0,0,1-3.32-1.46,9.373,9.373,0,0,1-.909-2.635q-.007-.133,0-.265c-.26-2.273-1.367-2.076-1.2-1.6A1.955,1.955,0,0,1-1689.616,4151.516Z" transform="translate(1704.661 -4146.458)" fill="#273087" fill-rule="evenodd"/>
            <path id="Trazado_150988" data-name="Trazado 150988" d="M-1703.458,4155.608c.027.879-1.32.962-.931,2.507-.648-.635.256-2.457.656-2.734C-1703.569,4155.269-1703.43,4155.221-1703.458,4155.608Z" transform="translate(1704.777 -4149.005)" fill="#fff" fill-rule="evenodd"/>
          </g>
          <g id="Grupo_68295" data-name="Grupo 68295" transform="translate(41.624 161.947)">
            <path id="Trazado_150989" data-name="Trazado 150989" d="M-1720.256,4135.265c-.837-.329-2.7-4.045-5.892-3.683a16.23,16.23,0,0,1-5.456-.786c-3.348-.952-8.014-3.945-8.81-3.456-1.735,1.067-1.873,3.014-.656,4.779a24.533,24.533,0,0,0,4.068,4.25,42.944,42.944,0,0,0,5.741,4.366c1.842,1.021,2.453.931,3.764,2.7a6.157,6.157,0,0,0,2.915,1.844,6.928,6.928,0,0,0,5.7-2.138c.637-2.059,1.741-4.01,1.033-7.1Z" transform="translate(1741.87 -4126.493)" fill="#fff" fill-rule="evenodd"/>
            <path id="Trazado_150990" data-name="Trazado 150990" d="M-1712.6,4125.91c.051,2.836-1.75,6.48.136,8.739,1.261,1.509,3.774,2.512,5.858.449,1.162-1.152,1.291-3.851,2.679-6.837Z" transform="translate(1729.791 -4125.91)" fill="#ffa495" fill-rule="evenodd"/>
            <path id="Trazado_150991" data-name="Trazado 150991" d="M-1730.482,4129.708q-.286-.075-.573-.157c-3.349-.952-7.823-3.259-8.619-2.77-1.735,1.068-2.064,2.328-.847,4.093a24.442,24.442,0,0,0,4.068,4.25,42.911,42.911,0,0,0,5.741,4.368c1.841,1.021,2.453.93,3.764,2.7a6.152,6.152,0,0,0,2.915,1.846,7.118,7.118,0,0,0,5.779-2.15,17.083,17.083,0,0,0,1.175-4.919c.279-2.523.106-3.806-.992-3.774-2.041.06-2.883,1.135-3.726,1.662-1.816,1.131-3.031-.332-3.328-2.142a10.571,10.571,0,0,1,.166-2.391c.028-.084.06-.167.094-.248.595-2.211-.507-2.432-.527-1.925a1.9,1.9,0,0,1-1.684,1.931A14.907,14.907,0,0,1-1730.482,4129.708Z" transform="translate(1741.607 -4126.25)" fill="#273087" fill-rule="evenodd"/>
            <path id="Trazado_150992" data-name="Trazado 150992" d="M-1739.6,4127.075c-.355.8-1.606.3-1.921,1.86-.311-.852,1.29-2.106,1.77-2.185C-1739.554,4126.719-1739.408,4126.737-1739.6,4127.075Z" transform="translate(1741.739 -4126.262)" fill="#fff" fill-rule="evenodd"/>
          </g>
          <g id="Grupo_68296" data-name="Grupo 68296" transform="translate(56.838 76.697)">
            <path id="Trazado_150993" data-name="Trazado 150993" d="M-1711.589,3986.775c-.733,8.217-4.852,34.461-3.706,41.667,1.723,10.834,1.231,23.923,1.212,35.422.291,4.832,6.934,7.357,8.868,4.287,1.552-10.275,3.762-19.278,4.659-24.988,1.006-6.394.674-14.163-.949-18.364.666-4.591,3.8-16.433,6.411-24.64.943-2.96,6.289-12.529.756-22.041Z" transform="translate(1715.495 -3978.118)" fill-rule="evenodd" fill="url(#linear-gradient-16)"/>
            <path id="Trazado_150994" data-name="Trazado 150994" d="M-1713.236,4121.423c-.006.853.027,2.151.025,2.988.291,4.833,7.018,7.453,8.951,4.382.114-.756.28-1.508.4-2.25C-1706.459,4129.346-1711.555,4125.705-1713.236,4121.423Z" transform="translate(1714.539 -4038.761)" fill="#4c57b7" fill-rule="evenodd"/>
            <path id="Trazado_150995" data-name="Trazado 150995" d="M-1715.455,4031.522c2.166,10.865,8.293,25.379,11.637,36.3,1.741-9.36,6.1-25.3,2.329-35.057.379-2.615,1.558-7.581,2.986-12.889-2.9-5.5-.129-9.883-1.5-17.624-7.675-1.337,3.909-10.706-12.333-.838C-1713.787,4013.076-1715.151,4020.408-1715.455,4031.522Z" transform="translate(1715.478 -3986.088)" fill="#060921" fill-rule="evenodd" opacity="0.3" style="mix-blend-mode: multiply;isolation: isolate"/>
          </g>
          <g id="Grupo_68297" data-name="Grupo 68297" transform="translate(48.359 81.678)">
            <path id="Trazado_150996" data-name="Trazado 150996" d="M-1717.279,4037.512c4.428,10.023,12.6,29.688,16.942,41.99,2.248,3.267,10.263,2.927,10.248-.12-1.77-10.285-3.849-26.149-7.542-35.17a80.912,80.912,0,0,0-6.8-11.376c-1.169-4.54-2.633-16.8-3.763-23.435,1.014-5.49,5.441-14.668-3.066-22.647-3.433,2.442-14.046,3.969-18.859,1.25C-1730.9,4009.689-1725.574,4018.732-1717.279,4037.512Z" transform="translate(1730.195 -3986.753)" fill-rule="evenodd" fill="url(#linear-gradient-17)"/>
            <path id="Trazado_150997" data-name="Trazado 150997" d="M-1679.992,4143.827c.194.538.578,1.624.76,2.138,2.314,3.363,10.566,3.013,10.549-.125q-.131-.762-.264-1.562C-1670.914,4146.283-1676.863,4146.31-1679.992,4143.827Z" transform="translate(1708.95 -4053.223)" fill="#4c57b7" fill-rule="evenodd"/>
          </g>
          <path id="Trazado_150998" data-name="Trazado 150998" d="M-1701.762,3920.482c-.714,6.442,1.223,12.777-.749,18.658-.088.608-.144,2.992-.248,3.64-1.3,7.619-17.414,15.328-30.854,8.018-.074-.944.012-1.932-.061-3.681.248-1.634-.457-3.386-.453-4.382.019-4.146,1.309-6.266.69-10.88-1.259-9.385-6.459-18.406-3.582-25.791a7.858,7.858,0,0,1,2.924-3.337c3.177-2.552,19.6-10.917,24.583-11.507C-1695.053,3889.347-1700.986,3913.494-1701.762,3920.482Z" transform="translate(1781.803 -3864.604)" fill="#18b6fe" fill-rule="evenodd"/>
          <g id="Grupo_68298" data-name="Grupo 68298" transform="translate(50.931)">
            <path id="Trazado_150999" data-name="Trazado 150999" d="M-1724.629,3873.248c.914.453,5.554-.2,5.418.21-.067,2.076-.685,3.337-.885,6.18,5.1-.712,11.8-1.45,12.062-5.363-.021-.313-.039-.626-.052-.934-.006-.036-.011-.072-.018-.108h.014a6.939,6.939,0,0,1,.411-3.352c1.08-1.747,3.3-3.693,4.087-6.341,1.257-4.233.8-8.936-3.147-12.07-7.207-5.723-16.423-1.651-18.758,6.72-.456,1.634.833,2.52.787,3.918-.009.273-.371.559-.665,1.165C-1725.781,3864.111-1725.75,3872.694-1724.629,3873.248Z" transform="translate(1725.683 -3846.698)" fill="#e7a376" fill-rule="evenodd"/>
            <path id="Trazado_151000" data-name="Trazado 151000" d="M-1724.571,3873.2c.914.453,5.507-.157,5.371.257-.067,2.076-.685,3.337-.885,6.18,2.964.728,10.955-.337,12.15-4.834.021-.947-.02-4.461.267-4.924,1.08-1.747,3.3-3.693,4.087-6.341,1.257-4.233.8-8.936-3.147-12.07-7.208-5.723-16.423-1.651-18.759,6.72-.456,1.634.833,2.52.788,3.918-.009.273-.371.559-.665,1.165C-1725.771,3864.111-1725.692,3872.646-1724.571,3873.2Z" transform="translate(1725.673 -3846.698)" fill-rule="evenodd" fill="url(#linear-gradient-18)"/>
            <path id="Trazado_151001" data-name="Trazado 151001" d="M-1724.427,3873.248a7.407,7.407,0,0,0,3.981-.484,6.957,6.957,0,0,0,1.767-1.227c.618-.25,1.991-2.2-.136-5.3-2.074-3.025,10.483,4.718,11.148,3.643,1.08-1.747,3.3-3.693,4.087-6.341,1.257-4.233.8-8.936-3.147-12.07-7.207-5.723-16.423-1.651-18.758,6.72-.456,1.634.833,2.52.787,3.918-.009.273-.371.559-.664,1.165C-1725.768,3864.111-1725.528,3872.657-1724.427,3873.248Z" transform="translate(1725.671 -3846.698)" fill-rule="evenodd" fill="url(#linear-gradient-19)"/>
            <path id="Trazado_151002" data-name="Trazado 151002" d="M-1714.626,3878.84c2.582-2.407,5.075,5.25.919,5.169C-1712.085,3882.293-1713.317,3879.575-1714.626,3878.84Z" transform="translate(1721.034 -3859.211)" fill="#ffa698" fill-rule="evenodd"/>
            <path id="Trazado_151003" data-name="Trazado 151003" d="M-1714.73,3880.122c-.388-1.07-.061-1.46.411-1.344a3.042,3.042,0,0,1,1.635,1.979c.617,1.79-.267,4.051-2,3.167,1.486.086,1.348-1.705.9-2.811C-1714.08,3880.363-1714.549,3879.831-1714.73,3880.122Z" transform="translate(1721.15 -3859.374)" fill="#ffb49c" fill-rule="evenodd"/>
            <path id="Trazado_151004" data-name="Trazado 151004" d="M-1713.767,3881.963c-.416.774-.56,1.234-.426,1.5.093.185.38.4.849-.058A2.675,2.675,0,0,0-1713.767,3881.963Z" transform="translate(1720.871 -3860.73)" fill="#ffa698" fill-rule="evenodd"/>
            <path id="Trazado_151005" data-name="Trazado 151005" d="M-1721.883,3855.235l-.1-.052a4.417,4.417,0,0,1-1.458-6.977c2.83-2.511,10.51-2.25,15.379.258,4.957,2.552,6.172,8.9,4.69,13.9-.986,3.322-3.386,5.056-4.584,7.572a3.013,3.013,0,0,1-3.053,1.114c-3.437-.711-4.231-4.336-6.3-5.932-1.133-.875-2.3-1.109-2.723,1.28-.082,1.051-.1,2.116-.174,3.082-.12,1.52.259,1.8-1.029,2.323a11.547,11.547,0,0,1-4.049.829c-.321-.126-.3-2.022-.241-3.439.129-.01.135.487.2.477.127-.018.28-.05.462-.068a5.581,5.581,0,0,0-.205-1.72,2.728,2.728,0,0,0-.566-1.291,2.178,2.178,0,0,1-.068-1.112,3.5,3.5,0,0,1,1.468,2.073,10.4,10.4,0,0,1,.383,1.884,3.564,3.564,0,0,0,1.76-.577c.724-.837.853-1.887,1.114-3.525.061-2.881-.065-3.308-1.563-5.446-.415-.591-.436-1.8.591-4.494C-1721.921,3855.337-1721.9,3855.286-1721.883,3855.235Z" transform="translate(1725.735 -3845.701)" fill="#562e65" fill-rule="evenodd"/>
            <path id="Trazado_151006" data-name="Trazado 151006" d="M-1723.024,3853.017c1.069,1.34,5.662-1.758,12.092-.575-1.377-4.247-2.172-5.148-4.1-6.391-2.517-1.62-6.755-.958-8.085,1.273A5.346,5.346,0,0,0-1723.024,3853.017Z" transform="translate(1724.954 -3845.154)" fill-rule="evenodd" fill="url(#linear-gradient-20)"/>
          </g>
          <path id="Trazado_151007" data-name="Trazado 151007" d="M-1706.467,3891.742c1.393.429,2.8,1.808,2.541,2.727-1.387,5.668-11.919,6.742-18.379,5.377-.077-.016,2.513-3.413,3.75-3.814C-1714.489,3896.431-1707.721,3895.088-1706.467,3891.742Z" transform="translate(1775.216 -3864.869)" fill="#0794d4" fill-rule="evenodd"/>
          <g id="Grupo_68301" data-name="Grupo 68301" transform="translate(0 37.684)">
            <path id="Trazado_151008" data-name="Trazado 151008" d="M-1732.9,3946.509c-.478-11.391-2.556-23.88-2.828-27.864a7.852,7.852,0,0,1,1.226-4.264c.672-1.377,9.023-1.358,11.223,5.15C-1722.378,3936.67-1728.566,3947.792-1732.9,3946.509Z" transform="translate(1780.899 -3911.825)" fill="#0794d4" fill-rule="evenodd" opacity="0.35" style="mix-blend-mode: multiply;isolation: isolate"/>
            <g id="Grupo_68300" data-name="Grupo 68300">
              <g id="Grupo_68299" data-name="Grupo 68299" transform="translate(0 14.998)">
                <path id="Trazado_151009" data-name="Trazado 151009" d="M-1797.042,3945.408l3.669,1.965.955-6.313c-.654-.437-1.473-.227-2.074-.763a12.689,12.689,0,0,0-1.1-1.054c-2.26-1.889-3.327-1.925-8.312-.746a4.1,4.1,0,0,1-2.811-.141l-4.344-1.642c-1.362-.378-2.314-.258-2.635.141a8.236,8.236,0,0,0,0,4.7l0,.006c.03.355.407.74,1.08,1.077,2,1,3.721,1.906,5.552,2.94,3.144,1.773,2.163,1.023,5.981.112C-1798.956,3945.181-1798.019,3945.124-1797.042,3945.408Z" transform="translate(1814.031 -3936.485)" fill="#ffa698" fill-rule="evenodd"/>
                <path id="Trazado_151010" data-name="Trazado 151010" d="M-1809.587,3941.562c-.1-.631-.179-3.046.082-3.242.515-.385,1.732.456,2.749.9a4.288,4.288,0,0,0,3.352.269c1.879,1.358,7.2-.514,11.893,5.16l-1.434.5c-1.612-.428-5.713.56-10.088-.293C-1805.693,3944.338-1809.507,3942.062-1809.587,3941.562Z" transform="translate(1812.19 -3937.219)" fill="#ff9483" fill-rule="evenodd"/>
                <path id="Trazado_151011" data-name="Trazado 151011" d="M-1805.386,3945.257c-.306-1.806,1.913-1.924,2.729-1.594a9.7,9.7,0,0,0,4.369.761,5.323,5.323,0,0,1,5.584,1.6c.6.62-.011.879-.188,2.305-3.239-.6-5.881.675-6.256.469C-1802.843,3946.76-1801.33,3946.423-1805.386,3945.257Z" transform="translate(1810.385 -3939.461)" fill="#ffa698" fill-rule="evenodd"/>
              </g>
              <path id="Trazado_151012" data-name="Trazado 151012" d="M-1761.656,3933.342c-4.631-1.613-11.031-3.573-14.618-3.612a13.96,13.96,0,0,1-2.941.022c-.756-.237-1.853-.594-2.262-.7-1.125,1.027-1.883,3.645-2.09,5.9.831.425,1.675.9,2.527,1.4.634.374,1.414,1.752,2.055,2.156,3.978,2.5,11.513,4.572,15.952,6.413,2.012.833,3.634,1.607,5.975,1.567a9.9,9.9,0,0,0,3.7-1.812c.2-.109.391-.225.586-.351l.261-.532a4.2,4.2,0,0,0,.756-1.566c.434-.91.88-1.867,1.288-2.785,1.541-3.462,4.828-11.608,6.053-17.786,1.708-8.62-4.636-12.666-9.387-10.675-4.081,1.711-4.822,8.517-5.655,12.187C-1760.213,3926.5-1761.037,3930.278-1761.656,3933.342Z" transform="translate(1801.139 -3910.483)" fill="#18b6fe" fill-rule="evenodd"/>
            </g>
          </g>
        </g>
      </g>
      <g id="Grupo_68313" data-name="Grupo 68313" transform="translate(157.922 -0.001)">
        <g id="Grupo_68311" data-name="Grupo 68311" transform="translate(0)">
          <g id="Grupo_68306" data-name="Grupo 68306" transform="translate(94.488 111.093)">
            <g id="Grupo_68304" data-name="Grupo 68304" transform="translate(11.764 4.751)">
              <path id="Trazado_151013" data-name="Trazado 151013" d="M-1673.755,3795.294l-37.306-21.679,8.661-41.107,0-.011v-.012l0-.01v0l0-.012v0l0-.01,0-.009v0l0-.013h0l0-.013,0-.008,0-.007,0-.013h0l0-.015v0l0-.01,0-.012,0,0,0-.015v0l0-.013,0-.01,0-.007.005-.016h0l.005-.017,0-.006,0-.01,0-.014v0l.006-.017v0l.005-.013,0-.011,0-.006.007-.017v0l.006-.016,0-.008,0-.009.007-.015v0l.008-.017,0-.006.006-.011.006-.013,0,0,.009-.017v0l.007-.015.005-.01,0-.008.009-.017h0l.009-.018,0-.007.006-.01.008-.014,0,0,.01-.017,0,0,.008-.013.007-.011,0-.005.011-.017v0l.01-.015.006-.008.006-.008.01-.015h0l.011-.016,0-.005.008-.01.013-.016.012-.014,0,0,.01-.013.008-.009.005-.006.014-.014.013-.015.006-.006.008-.008.012-.011,0,0,.015-.013,0,0,.011-.009.01-.009.005,0,.015-.012h0l.014-.01.008-.006.008-.006.014-.01h0l.016-.01.006,0,.011-.006a.614.614,0,0,1,.556-.026l37.3,21.679C-1665.206,3752.54-1670.168,3783.172-1673.755,3795.294Z" transform="translate(1711.061 -3731.478)" fill="#7ff9ff" fill-rule="evenodd"/>
              <path id="Trazado_151014" data-name="Trazado 151014" d="M-1702.4,3733.263c15.668,17.956,34.357,29.044,32.53,44.626l-3.885,18.16-37.306-21.68Z" transform="translate(1711.061 -3732.234)" fill="#7ff9ff" fill-rule="evenodd"/>
            </g>
            <g id="Grupo_68305" data-name="Grupo 68305" transform="translate(8.583)">
              <path id="Trazado_151015" data-name="Trazado 151015" d="M-1676.607,3746.292l-.843,41.69-39.126-22.586.117-41.329Z" transform="translate(1716.576 -3723.591)" fill="#fff" fill-rule="evenodd"/>
              <path id="Trazado_151016" data-name="Trazado 151016" d="M-1648.629,3762.877l.817-.476-.116,41.331-.818.472Z" transform="translate(1687.872 -3739.813)" fill="#c5dbf1" fill-rule="evenodd"/>
              <path id="Trazado_151017" data-name="Trazado 151017" d="M-1716.374,3723.718l.821-.476,39.123,22.589-.817.476Z" transform="translate(1716.49 -3723.241)" fill="#dce8f8" fill-rule="evenodd"/>
              <path id="Trazado_151018" data-name="Trazado 151018" d="M-1677.7,3782.047l-.007,2.607-36.214-20.909.008-2.605,36.214,20.907Zm.081-29.966,0,2.606-36.214-20.908.008-2.605,36.209,20.907Zm-.011,4.279-36.21-20.906-.008,2.6,36.21,20.907.008-2.605Zm-.011,4.282-36.214-20.907,0,2.606,36.21,20.906.008-2.605Zm-.012,4.282-36.214-20.907-.008,2.606,36.214,20.907.008-2.606Zm-.012,4.28-36.213-20.908-.008,2.606,36.213,20.907.008-2.605Zm-.011,4.282-36.213-20.908-.008,2.606,36.213,20.907.008-2.6Zm-.012,4.282-36.214-20.907-.008,2.6,36.214,20.907Z" transform="translate(1715.453 -3726.598)" fill="#e7b9ff" fill-rule="evenodd"/>
            </g>
            <path id="Trazado_151019" data-name="Trazado 151019" d="M-1692.479,3769.339l8.893,31.273h0a3.762,3.762,0,0,0,.547,1l-37.3-21.677a1.482,1.482,0,0,1-.549-.994l-8.893-31.276.008,0-1.668-5.863a1.521,1.521,0,0,1,.321-1.061c1.549,1.411,9.821,6.473,11.346,7.371,2.555,2,2.642,4.473,6.511,8.577a6.686,6.686,0,0,0,1.914,1.532Z" transform="translate(1731.456 -3730.648)" fill="#b2fbff" fill-rule="evenodd"/>
            <path id="Trazado_151020" data-name="Trazado 151020" d="M-1663.442,3780.126a1.088,1.088,0,0,1,.183-.135c.291-.167.553-.1.64.193l8.81,31.022,8.659-41.107a1.466,1.466,0,0,1,.632-.927.791.791,0,0,1,.18-.077c.357-.095.567.209.466.67l-8.71,41.382a6.208,6.208,0,0,1-.528,1.619,1.865,1.865,0,0,1-.7.791.607.607,0,0,1-.691.017,1.858,1.858,0,0,1-.505-.966l-8.895-31.278A1.368,1.368,0,0,1-1663.442,3780.126Z" transform="translate(1702.879 -3742.638)" fill="#54dbe2" fill-rule="evenodd"/>
            <path id="Trazado_151021" data-name="Trazado 151021" d="M-1710.184,3756.751l18.816,10.934c-.489-.24-1.24.861-1.112,1.384l-19-11.043a11.71,11.71,0,0,1-1.584-1.025c-2.7-2.134-3.976-5.056-5.741-7.421a7.568,7.568,0,0,0-1.513-1.532c-.469-.256-.717-.391-.635-.351l-10.487-6.173a1.527,1.527,0,0,1,.323-1.052c.2-.211.509-.471.792-.323l10.505,6.184c-.083-.04.166.1.635.351a7.59,7.59,0,0,1,1.513,1.532c1.867,2.5,3.2,5.315,6.233,7.7A9.815,9.815,0,0,0-1710.184,3756.751Z" transform="translate(1731.456 -3730.378)" fill="#7ff9ff" fill-rule="evenodd"/>
          </g>
          <g id="Grupo_68309" data-name="Grupo 68309">
            <g id="Grupo_68307" data-name="Grupo 68307">
              <path id="Trazado_151022" data-name="Trazado 151022" d="M-1880.2,3536.728a15.49,15.49,0,0,1,5.483,5.211c-.019-.4-.039,1.055-.025-1.187s-1.274-5.863.481-7.677c.694-.72,4.08-2.041,4.894-2.249a7.245,7.245,0,0,1,5.3.925c2.938,1.606,5.6,4.734,7.528,8.493a35.516,35.516,0,0,1,3.134,12.313c0,2.269-.011.784-.034,1.165,1.635-.491,3.1-.484,5.628.912s5.706,4.843,7.679,8.671a28.328,28.328,0,0,1,3.229,12.521,13.186,13.186,0,0,1-2.007,7.664c-1.279,1.812-3.75,2.882-5.5,3.463-5.022,1.744-14.705-8.438-19.815-11.331q-8.132-4.6-16.182-9.155c-2.924-1.654-5.546-4.809-7.423-8.573a27.588,27.588,0,0,1-2.965-12.215c.022-2.385-1.721-5.963.535-7.676C-1886.752,3535.34-1883.007,3535.174-1880.2,3536.728Z" transform="translate(1893.635 -3530.648)" fill="#856de9" fill-rule="evenodd"/>
              <path id="Trazado_151023" data-name="Trazado 151023" d="M-1884.666,3538.867a15.482,15.482,0,0,1,5.483,5.21c-.019-.4-.039,1.055-.026-1.187s1.227-7.139,3.154-8.768,4.583-1.84,7.521-.233,5.6,4.734,7.528,8.493a35.519,35.519,0,0,1,3.135,12.313c0,2.269-.012.784-.034,1.165,1.635-.491,3.1-.484,5.627.912s5.706,4.844,7.679,8.671a28.267,28.267,0,0,1,3.229,12.521c.009,4.207-1.216,7.338-3.195,8.988s-4.707,1.8-7.713.1l-16.414-9.288q-8.133-4.6-16.182-9.155c-2.924-1.655-5.546-4.808-7.423-8.573a27.586,27.586,0,0,1-2.966-12.215c.037-4.082,1.234-7.116,3.145-8.732S-1887.121,3537.508-1884.666,3538.867Z" transform="translate(1895.264 -3531.553)" fill="#ae9bff" fill-rule="evenodd"/>
            </g>
            <g id="Grupo_68308" data-name="Grupo 68308" transform="translate(11.234 14.631)">
              <path id="Trazado_151024" data-name="Trazado 151024" d="M-1870.756,3568.918l-5.033-2.9,7.915,13.708,7.965-4.54-5.03-2.906.014-12.906-5.817-3.358Z" transform="translate(1875.789 -3556.012)" fill="#fff" fill-rule="evenodd"/>
              <path id="Trazado_151025" data-name="Trazado 151025" d="M-1844.791,3580.155l5.032,2.9-7.914-13.707-7.965,4.539,5.03,2.906-.014,12.906,5.817,3.358Z" transform="translate(1867.261 -3561.657)" fill="#fff" fill-rule="evenodd"/>
            </g>
          </g>
          <g id="Grupo_68310" data-name="Grupo 68310" transform="translate(92.251 51.652)">
            <path id="Trazado_151026" data-name="Trazado 151026" d="M-1730.233,3646.715c-4.347-5.378-6.292-14.871-4.347-21.209s7.042-7.117,11.39-1.739,6.291,14.874,4.346,21.209S-1725.889,3652.09-1730.233,3646.715Z" transform="translate(1735.335 -3620.193)" fill="#7ff9ff" fill-rule="evenodd"/>
            <path id="Trazado_151027" data-name="Trazado 151027" d="M-1719.973,3639.488l1.2,1.311-10.428,7.487-2.5-10.845,1.625,1.483,1.948,4.091Z" transform="translate(1733.798 -3627.492)" fill="#fff" fill-rule="evenodd"/>
          </g>
        </g>
      </g>
    </g>
    <rect id="Rectngulo_8090" data-name="Rectngulo 8090" width="548" height="382" transform="translate(872.333 113)" fill="none"/>
  </g>
</svg>
