<svg xmlns="http://www.w3.org/2000/svg" xmlns:xlink="http://www.w3.org/1999/xlink" width="195.487" height="239.141" viewBox="0 0 195.487 239.141">
  <defs>
    <linearGradient id="linear-gradient" x1="0.399" y1="0.741" x2="0.782" y2="0.003" gradientUnits="objectBoundingBox">
      <stop offset="0" stop-color="#965cf2"/>
      <stop offset="1" stop-color="#ff8adc"/>
    </linearGradient>
    <linearGradient id="linear-gradient-2" x1="0.39" y1="0.766" x2="0.778" y2="0.019" xlink:href="#linear-gradient"/>
    <linearGradient id="linear-gradient-3" x1="0.385" y1="0.705" x2="0.69" y2="0.116" xlink:href="#linear-gradient"/>
    <linearGradient id="linear-gradient-4" x1="0.421" y1="0.69" x2="0.658" y2="0.121" xlink:href="#linear-gradient"/>
    <linearGradient id="linear-gradient-5" x1="0.432" y1="0.696" x2="0.597" y2="0.22" gradientUnits="objectBoundingBox">
      <stop offset="0" stop-color="#a77ef7"/>
      <stop offset="1" stop-color="#5e65d6"/>
    </linearGradient>
    <linearGradient id="linear-gradient-6" x1="0.605" y1="0.534" x2="0.297" y2="-0.059" gradientUnits="objectBoundingBox">
      <stop offset="0" stop-color="#ff8a78"/>
      <stop offset="1" stop-color="#ffa799"/>
    </linearGradient>
    <linearGradient id="linear-gradient-7" x1="0.485" y1="0.44" x2="0.44" y2="0.659" gradientUnits="objectBoundingBox">
      <stop offset="0" stop-color="#ffb89e"/>
      <stop offset="1" stop-color="#ffa799"/>
    </linearGradient>
    <linearGradient id="linear-gradient-8" x1="0.558" y1="0.429" x2="0.305" y2="0.659" xlink:href="#linear-gradient-6"/>
    <linearGradient id="linear-gradient-9" x1="0.597" y1="0.241" x2="0.312" y2="0.78" xlink:href="#linear-gradient-7"/>
  </defs>
  <g id="Grupo_87360" data-name="Grupo 87360" transform="translate(-592.837 -3601.284)">
    <g id="Grupo_86650" data-name="Grupo 86650" transform="translate(643.118 3601.283)">
      <g id="Grupo_86628" data-name="Grupo 86628" transform="translate(29.684 15.433)">
        <g id="Grupo_86625" data-name="Grupo 86625">
          <path id="Trazado_152033" data-name="Trazado 152033" d="M875.268,4091.905l-70.859-40.471c-2.63-1.2-6.494-2.336-9.073-.764l-6.6,4.021c-1.328.809-5.694,3.493-2.773,5.081,8.591,4.672,63.482,36.743,72.205,41.489a12.245,12.245,0,0,0,6.6,1.011,16.58,16.58,0,0,0,7.145-2.128l2.636-1.625c1.864-1.149,2.9-2.405,3-3.61C877.639,4093.733,876.882,4092.642,875.268,4091.905Z" transform="translate(-784.976 -3878.627)" fill="#45be9b" fill-rule="evenodd" opacity="0.5"/>
          <g id="Grupo_86624" data-name="Grupo 86624" transform="translate(0.827)">
            <path id="Trazado_152034" data-name="Trazado 152034" d="M878.285,3847.037c-.01,3.449-1.24,5.877-3.206,7.02l-3.12,1.876c-10.7-4.567-6.731-58.809-7.383-74.228l3.287-80.926c-2.763-4.828-13.394-9.042-10.913-18.9l-31.37-14.684c-1.393-.948-38-22.148-31.43-26.123,1.1-.665,2.187-1.335,3.272-1.966,2.426-1.434,5.518-.547,7.789.763h0l62.421,35.8c6.127,3.531,10.933,12.073,10.914,18.9Z" transform="translate(-790.698 -3638.367)" fill="#303a7d" fill-rule="evenodd"/>
            <path id="Trazado_152035" data-name="Trazado 152035" d="M787.224,3650.825c.009-3.382,1.181-5.782,3.078-6.952,2-1.233,4.8-1.1,7.906.692l62.421,35.8c6.041,3.488,10.932,11.96,10.913,18.9l-.26,152.466c-.02,6.943-4.943,9.749-10.986,6.26l-62.42-35.8c-6.049-3.492-10.933-11.961-10.914-18.9Z" transform="translate(-786.963 -3641.109)" fill="#3e4992" fill-rule="evenodd"/>
            <path id="Trazado_152036" data-name="Trazado 152036" d="M795.292,3667.443c.018-6.389,4.543-8.976,10.11-5.761l57.453,32.953c5.56,3.211,10.062,11.009,10.044,17.4l-.239,143.212c-.018,6.389-4.55,8.972-10.111,5.761L805.1,3828.053c-5.567-3.214-10.062-11.009-10.044-17.4Z" transform="translate(-791.686 -3651.172)" fill="#7ff9ff" fill-rule="evenodd"/>
          </g>
        </g>
        <g id="Grupo_86627" data-name="Grupo 86627" transform="translate(28.97 59.517)">
          <path id="Trazado_152037" data-name="Trazado 152037" d="M871.117,3803.094c-4.384-2.532-7.926-8.667-7.912-13.7s3.58-7.068,7.963-4.538,7.926,8.665,7.911,13.7-3.579,7.07-7.962,4.539Zm-.006,2.135c5.41,3.123,9.809.614,9.826-5.6s-4.353-13.786-9.763-16.91-9.809-.617-9.826,5.6S865.7,3802.1,871.111,3805.228Z" transform="translate(-858.533 -3781.374)" fill="#fff" fill-rule="evenodd"/>
          <g id="Grupo_86626" data-name="Grupo 86626" transform="translate(0 26.355)">
            <path id="Trazado_152038" data-name="Trazado 152038" d="M868.936,3845.341c0-.581.413-.81.919-.508L881.3,3851.3a2.056,2.056,0,0,1,.914,1.6v1.151c0,.581-.414.808-.92.508l-11.441-6.465a2.057,2.057,0,0,1-.914-1.6Z" transform="translate(-862.963 -3844.699)" fill="#fff" fill-rule="evenodd"/>
            <path id="Trazado_152039" data-name="Trazado 152039" d="M854.586,3849.946c0-.512.364-.712.81-.448,6.486,3.666,17.117,9.648,23.6,13.313a1.812,1.812,0,0,1,.8,1.407v1.014c0,.512-.364.713-.81.448-6.486-3.665-17.117-9.648-23.6-13.313a1.811,1.811,0,0,1-.805-1.407Z" transform="translate(-854.585 -3847.432)" fill="#fff" fill-rule="evenodd" opacity="0.5"/>
          </g>
        </g>
      </g>
      <g id="Grupo_86633" data-name="Grupo 86633" transform="translate(98.59 71.634)">
        <path id="Trazado_152040" data-name="Trazado 152040" d="M970.284,3819.872l-3.313,1.231-13.25-7.52c-.254-.151-.32-.592-.308-.856h0l-2.869-31.765c.008-1,2.408-2.971,3.24-3.613l4.332.934c.125-.064,3.91-2.91,4.09-2.839l7.468,5.288Z" transform="translate(-950.543 -3774.595)" fill-rule="evenodd" opacity="0.5" fill="url(#linear-gradient)" style="mix-blend-mode: multiply;isolation: isolate"/>
        <g id="Grupo_86632" data-name="Grupo 86632" transform="translate(2.772)">
          <g id="Grupo_86629" data-name="Grupo 86629">
            <path id="Trazado_152041" data-name="Trazado 152041" d="M1001.131,3829.522,967.018,3809.7l4.4-35.394c.04-.451.331-1.073.9-.847l34.259,19.272Z" transform="translate(-962.933 -3773.406)" fill="#bc5fee" fill-rule="evenodd"/>
            <path id="Trazado_152042" data-name="Trazado 152042" d="M971.4,3775.556c15.044,15.847,32.225,25.7,31.776,39.34l-2.059,15.881-34.124-19.72Z" transform="translate(-962.919 -3774.661)" fill="#783fd3" fill-rule="evenodd"/>
            <path id="Trazado_152043" data-name="Trazado 152043" d="M992.9,3803.465c.192,2.39,2.022,28.591,2.126,28.728l-34.707-20.464c-.254-.151-.32-.592-.308-.856h0l-2.369-27.272.006,0-.444-5.113a1.732,1.732,0,0,1,.465-.951c1.112,1.185,10.506,6.723,11.687,7.456,1.889,1.666,1.538,3.847,4.215,7.317a4.105,4.105,0,0,0,1.411,1.277Z" transform="translate(-957.203 -3775.819)" fill="#d07efc" fill-rule="evenodd"/>
            <path id="Trazado_152044" data-name="Trazado 152044" d="M1042.554,3827.727l2.353,26.4,4.506-33.556c.13-1.124,1.028-1.031.922-.236l-4.641,34.388a5.1,5.1,0,0,1-.343,1.415,1.522,1.522,0,0,1-.451.616v.006l-.026.014c-.026.018-.051.035-.078.051v-.012a.475.475,0,0,1-.5-.011,1.266,1.266,0,0,1-.275-.833l-2.37-27.275C1041.59,3827.961,1042.109,3827.319,1042.554,3827.727Z" transform="translate(-1006.5 -3800.455)" fill="#864de2" fill-rule="evenodd"/>
            <path id="Trazado_152045" data-name="Trazado 152045" d="M976.026,3792.476l17.261,10.4c-.387-.192-.959.545-.937,1l-17.5-10.4a7.251,7.251,0,0,1-1.21-.841c-2-1.777-2.6-4.309-3.741-6.327a4.638,4.638,0,0,0-1.059-1.292c-.366-.207-.56-.317-.494-.284l-11.142-6.431a1.083,1.083,0,0,1,1.029-1.076l11.157,6.44c-.066-.032.128.077.494.284a4.636,4.636,0,0,1,1.059,1.293c1.2,2.135,1.723,4.521,3.962,6.508A7.9,7.9,0,0,0,976.026,3792.476Z" transform="translate(-957.204 -3775.631)" fill="#d477e4" fill-rule="evenodd"/>
          </g>
          <g id="Grupo_86631" data-name="Grupo 86631" transform="translate(11.584 24.298)">
            <path id="Trazado_152046" data-name="Trazado 152046" d="M989.4,3831.942c2.987.769,5.932,4.214,6.579,7.693s-1.251,5.676-4.237,4.906-5.932-4.215-6.579-7.694S986.415,3831.172,989.4,3831.942Z" transform="translate(-985.038 -3831.789)" fill="#d0e7ff" fill-rule="evenodd" opacity="0.5"/>
            <g id="Grupo_86630" data-name="Grupo 86630" transform="translate(3.167 2.49)">
              <path id="Trazado_152047" data-name="Trazado 152047" d="M993.015,3840.414l-.1-1.118a1.641,1.641,0,0,1,.245-1.335c.276-.271.675-.243,1.2.046l1.139.606a2.188,2.188,0,0,1,1.107,1.057,4.878,4.878,0,0,1,.357,1.62l.079.809a4.438,4.438,0,0,1,.5,1.338c.289,1.556-.559,2.538-1.895,2.194a4.605,4.605,0,0,1-2.942-3.439,2.164,2.164,0,0,1,.311-1.776Zm3.251.633a3.72,3.72,0,0,0-.264-1.142,1.476,1.476,0,0,0-.758-.7c-.388-.185-.776-.429-1.164-.619-.232-.128-.375-.174-.422-.127-.092.091-.116.364-.069.837l.06.694a1.767,1.767,0,0,1,.949.008A3.683,3.683,0,0,1,996.266,3841.048Z" transform="translate(-992.648 -3837.772)" fill="#7ff9ff" fill-rule="evenodd"/>
              <path id="Trazado_152048" data-name="Trazado 152048" d="M998.077,3848.466l.078.79a.3.3,0,0,1-.3.336.38.38,0,0,1-.37-.336l-.1-1.05a1.112,1.112,0,0,1-.261-.517c-.067-.36.129-.588.44-.509a1.067,1.067,0,0,1,.683.8A.431.431,0,0,1,998.077,3848.466Z" transform="translate(-995.249 -3843.256)" fill="#21389b" fill-rule="evenodd"/>
            </g>
          </g>
        </g>
      </g>
      <g id="Grupo_86636" data-name="Grupo 86636" transform="translate(62.84 143.715)">
        <path id="Trazado_152049" data-name="Trazado 152049" d="M864.859,3954.591c.008-2.79.976-4.774,2.54-5.738,1.648-1.015,3.964-.906,6.524.573l23.934,13.806c4.985,2.878,9.021,9.869,9.005,15.6l-.215,24.365c-.016,5.729-4.079,8.044-9.065,5.165l-23.933-13.806c-4.991-2.882-9.022-9.87-9.006-15.6Z" transform="translate(-864.644 -3947.527)" fill="#18b6fe" fill-rule="evenodd" opacity="0.5" style="mix-blend-mode: multiply;isolation: isolate"/>
        <g id="Grupo_86635" data-name="Grupo 86635">
          <path id="Trazado_152050" data-name="Trazado 152050" d="M868.214,3952.5c.006-2.569-.55-3.138.6-4.374a10.732,10.732,0,0,1,3.068-1.43,6.785,6.785,0,0,1,4.671,1.049l22.032,12.708c4.588,2.65,8.3,9.085,8.29,14.359l-.2,22.429a6.354,6.354,0,0,1-1.755,4.84,6.947,6.947,0,0,1-3.985,1.685c-1.045-.061-1.387-1.067-2.6-1.77l-22.031-12.709c-4.595-2.652-8.3-9.085-8.29-14.358Z" transform="translate(-866.612 -3946.601)" fill="#f2f4ff" fill-rule="evenodd"/>
          <path id="Trazado_152051" data-name="Trazado 152051" d="M864.842,3954.083c.007-2.569.9-4.395,2.338-5.282,1.517-.934,3.649-.835,6.005.527l22.032,12.708c4.589,2.65,8.3,9.085,8.29,14.359l-.2,22.428c-.015,5.274-3.755,7.4-8.345,4.755l-22.031-12.709c-4.595-2.653-8.3-9.085-8.29-14.359Z" transform="translate(-864.644 -3947.527)" fill="#18b6fe" fill-rule="evenodd"/>
          <g id="Grupo_86634" data-name="Grupo 86634" transform="translate(3.234 8.054)">
            <path id="Trazado_152052" data-name="Trazado 152052" d="M889,3968.221l-.022,7.443c-5.549-3.2-10.071-.633-10.089,5.76s4.474,14.157,10.024,17.363c5.568,3.214,10.084.64,10.1-5.742,0-.286-.011-.584-.028-.885l6.467,3.171c.025.479.037.972.036,1.451-.029,10.494-7.464,14.717-16.6,9.443s-16.506-18.043-16.476-28.538S879.866,3962.947,889,3968.221Z" transform="translate(-872.415 -3965.953)" fill="#fff" fill-rule="evenodd" opacity="0.5"/>
            <path id="Trazado_152053" data-name="Trazado 152053" d="M909.419,4010.2a4.81,4.81,0,0,1,.651,2.369,1.787,1.787,0,0,1-.729,1.657,1.74,1.74,0,0,1-1.778-.172,4.877,4.877,0,0,1-1.624-1.566,5.537,5.537,0,0,1-.874-2.181l1.469.849a3.212,3.212,0,0,0,.442.852,2.154,2.154,0,0,0,.617.545.744.744,0,0,0,.782.069.831.831,0,0,0,.327-.777,2.268,2.268,0,0,0-.308-1.143,1.97,1.97,0,0,0-.722-.791.934.934,0,0,0-.449-.126.982.982,0,0,0-.436.147l-1.132-.94.9-4.167,3.423,1.975,0,1.48-2.376-1.372-.315,1.361a1.642,1.642,0,0,1,.254.085,1.557,1.557,0,0,1,.226.115,4.522,4.522,0,0,1,1.658,1.729Zm-6.707-4.343a.72.72,0,0,0,.264-.649,1.847,1.847,0,0,0-.277-.983,1.747,1.747,0,0,0-.638-.705.648.648,0,0,0-.663-.061.7.7,0,0,0-.282.66,1.928,1.928,0,0,0,.265.97,1.906,1.906,0,0,0,.687.719.6.6,0,0,0,.645.05Zm-.665-3.844a4.489,4.489,0,0,1,1.649,1.744,4.547,4.547,0,0,1,.652,2.19,3.044,3.044,0,0,1-.1.735,6.1,6.1,0,0,1-.479.93l-1.9,3.156-1.188-1.381,1.3-2.12a4.4,4.4,0,0,1-1.592-1.675,4.548,4.548,0,0,1-.638-2.279,1.551,1.551,0,0,1,.676-1.481A1.568,1.568,0,0,1,902.047,4002.012Z" transform="translate(-888.372 -3986.809)" fill="#fff" fill-rule="evenodd"/>
            <path id="Trazado_152054" data-name="Trazado 152054" d="M912.233,3971.4c8.724,5.036,15.851,16.908,16.453,27.108l-6.467-3.171c-.373-6.221-4.693-13.426-10.008-16.494Z" transform="translate(-895.649 -3969.135)" fill="#fff" fill-rule="evenodd" opacity="0.3"/>
          </g>
        </g>
      </g>
      <g id="Grupo_86639" data-name="Grupo 86639" transform="translate(65.565)">
        <g id="Grupo_86637" data-name="Grupo 86637">
          <path id="Trazado_152055" data-name="Trazado 152055" d="M883.883,3605.947a11.873,11.873,0,0,1,4.205,4c-.015-.3-.03.809-.02-.91s-.977-4.5.368-5.888a14.548,14.548,0,0,1,3.753-1.725,5.563,5.563,0,0,1,4.065.71,15.355,15.355,0,0,1,5.773,6.513,27.232,27.232,0,0,1,2.4,9.443c0,1.74-.009.6-.026.893,1.254-.377,2.379-.372,4.315.7a17.076,17.076,0,0,1,5.889,6.649,21.722,21.722,0,0,1,2.476,9.6,10.108,10.108,0,0,1-1.539,5.878,8.53,8.53,0,0,1-4.219,2.656c-3.851,1.338-11.277-6.471-15.2-8.688q-6.236-3.53-12.409-7.021a15.392,15.392,0,0,1-5.693-6.575,21.165,21.165,0,0,1-2.274-9.367c.017-1.829-1.32-4.573.41-5.887C878.857,3604.882,881.729,3604.755,883.883,3605.947Z" transform="translate(-873.578 -3601.284)" fill="#6448d9" fill-rule="evenodd"/>
          <path id="Trazado_152056" data-name="Trazado 152056" d="M879.317,3608.219a11.884,11.884,0,0,1,4.2,4c-.014-.3-.03.81-.02-.909s.941-5.476,2.419-6.725,3.515-1.41,5.767-.178a15.347,15.347,0,0,1,5.773,6.513,27.222,27.222,0,0,1,2.4,9.443c0,1.74-.009.6-.026.893,1.253-.377,2.379-.372,4.315.7a17.085,17.085,0,0,1,5.889,6.649,21.681,21.681,0,0,1,2.476,9.6c.007,3.225-.933,5.627-2.45,6.892s-3.61,1.38-5.915.075l-12.587-7.123q-6.236-3.531-12.409-7.021a15.392,15.392,0,0,1-5.693-6.575,21.156,21.156,0,0,1-2.274-9.367c.029-3.13.947-5.457,2.412-6.7A5.168,5.168,0,0,1,879.317,3608.219Z" transform="translate(-871.19 -3602.61)" fill="#856de9" fill-rule="evenodd"/>
        </g>
        <g id="Grupo_86638" data-name="Grupo 86638" transform="translate(8.615 11.22)">
          <path id="Trazado_152057" data-name="Trazado 152057" d="M895.749,3638.139l-3.859-2.227,6.069,10.512,6.108-3.482-3.857-2.228.011-9.9-4.461-2.575Z" transform="translate(-891.89 -3628.242)" fill="#fff" fill-rule="evenodd"/>
          <path id="Trazado_152058" data-name="Trazado 152058" d="M921.626,3650.706l3.859,2.227-6.069-10.512-6.108,3.481,3.857,2.228-.011,9.9,4.461,2.575Z" transform="translate(-904.394 -3636.52)" fill="#fff" fill-rule="evenodd"/>
        </g>
      </g>
      <g id="Grupo_86649" data-name="Grupo 86649" transform="translate(0 7.702)">
        <g id="Grupo_86647" data-name="Grupo 86647">
          <g id="Grupo_86643" data-name="Grupo 86643" transform="translate(0 51.485)">
            <path id="Trazado_152059" data-name="Trazado 152059" d="M789.594,3785.517c8.682,5.073,17.367,10.14,26.059,15.126a6.925,6.925,0,0,1,3.138,5.437l.09,72.964c-.005,2-1.422,2.8-3.16,1.8-9.424-5.406-18.839-10.909-28.254-16.409l.043-7.519Z" transform="translate(-756.747 -3768.029)" fill-rule="evenodd" opacity="0.5" fill="url(#linear-gradient-2)" style="mix-blend-mode: multiply;isolation: isolate"/>
            <g id="Grupo_86642" data-name="Grupo 86642">
              <path id="Trazado_152060" data-name="Trazado 152060" d="M715.771,3744.342l1.45-.767a2.306,2.306,0,0,1,1.848.327c17.349,9.951,34.663,20.251,52.013,30.2a6.518,6.518,0,0,1,2.954,5.117l.085,68.68a2.168,2.168,0,0,1-.734,1.813c-.546.4-1.672,1.28-2.564.764-17.35-9.951-34.342-21.136-51.689-31.086a6.514,6.514,0,0,1-2.954-5.118Z" transform="translate(-714.889 -3743.497)" fill="#f2f4ff" fill-rule="evenodd"/>
              <path id="Trazado_152061" data-name="Trazado 152061" d="M713.652,3747.171c.005-1.88,1.337-2.64,2.974-1.695,17.349,9.951,34.663,20.251,52.013,30.2a6.516,6.516,0,0,1,2.954,5.118l.085,68.679c-.005,1.879-1.339,2.638-2.974,1.694-17.35-9.951-34.666-20.253-52.013-30.2a6.515,6.515,0,0,1-2.954-5.118Z" transform="translate(-713.652 -3744.415)" fill="#fff" fill-rule="evenodd"/>
              <path id="Trazado_152062" data-name="Trazado 152062" d="M713.653,3747.172c.005-1.88,1.336-2.64,2.974-1.694,17.349,9.95,34.662,20.251,52.013,30.2a6.517,6.517,0,0,1,2.954,5.118l.061,53.968-57.941-33.234Z" transform="translate(-713.653 -3744.415)" fill="#856de9" fill-rule="evenodd"/>
              <g id="Grupo_86640" data-name="Grupo 86640" transform="translate(4.303 63.478)">
                <path id="Trazado_152063" data-name="Trazado 152063" d="M723.993,3896.917c0-.812.577-1.131,1.284-.71l15.979,9.029a2.874,2.874,0,0,1,1.276,2.232v1.605c0,.812-.578,1.131-1.284.711l-15.979-9.029a2.87,2.87,0,0,1-1.277-2.231Z" transform="translate(-723.992 -3896.021)" fill="#03c8de" fill-rule="evenodd" opacity="0.25"/>
                <path id="Trazado_152064" data-name="Trazado 152064" d="M723.993,3913.992c0-.715.508-1,1.131-.626,9.059,5.12,23.906,13.476,32.966,18.595a2.53,2.53,0,0,1,1.125,1.966v1.416c0,.716-.509,1-1.131.625-9.06-5.118-23.906-13.475-32.966-18.594a2.529,2.529,0,0,1-1.125-1.966Z" transform="translate(-723.992 -3906.052)" fill="#03c8de" fill-rule="evenodd" opacity="0.25"/>
              </g>
              <path id="Trazado_152065" data-name="Trazado 152065" d="M762.271,3818.251l-.062,34.129,9.578,5.582.062-34.128-9.579-5.583ZM733.509,3791.1l-.1,45.681,9.578,5.583.1-45.681-9.579-5.583Zm14.347,16.192-.073,37.864,9.578,5.583.073-37.864-9.579-5.583Zm-28.747-13.011-.061,34.128,9.578,5.583.062-34.128Z" transform="translate(-716.802 -3771.291)" fill="#cabeff" fill-rule="evenodd"/>
              <g id="Grupo_86641" data-name="Grupo 86641" transform="translate(2.005 35.329)">
                <path id="Trazado_152066" data-name="Trazado 152066" d="M718.659,3829.419a.556.556,0,0,1,.048-.873.817.817,0,0,1,1.025.041l9.075,8.5,4.395,1.872,9.424-1.923,5.721-6.267a.814.814,0,0,1,1.02-.108.663.663,0,0,1,.159.145l13.448,14.435,8.2,2.021a.688.688,0,0,1,.75.6.669.669,0,0,1-.7.639l-8.548-2.011a.784.784,0,0,1-.62-.239l-13.135-14.089-5.3,5.806h0a.749.749,0,0,1-.4.222l-9.932,2.025a.833.833,0,0,1-.491-.048l-4.708-2.006a.725.725,0,0,1-.261-.155Z" transform="translate(-718.47 -3828.385)" fill="#1895f0" fill-rule="evenodd" opacity="0.5" style="mix-blend-mode: multiply;isolation: isolate"/>
                <path id="Trazado_152067" data-name="Trazado 152067" d="M718.659,3829.6a.726.726,0,0,1,1.073-.977l9.075,9.975,4.395,2.2,9.424-2.256,5.721-7.356a.727.727,0,0,1,1.02-.127.718.718,0,0,1,.159.171l12.749,16.45,9-.335a.724.724,0,0,1,.051,1.448l-9.351.348a.726.726,0,0,1-.62-.28l-12.435-16.046-5.3,6.816,0,0a.722.722,0,0,1-.4.261l-9.932,2.377a.717.717,0,0,1-.491-.057l-4.708-2.354a.729.729,0,0,1-.261-.182Z" transform="translate(-718.47 -3828.385)" fill="#fff" fill-rule="evenodd"/>
              </g>
            </g>
          </g>
          <g id="Grupo_86646" data-name="Grupo 86646">
            <path id="Trazado_152068" data-name="Trazado 152068" d="M787.035,3661.135c10.1,5.9,20.207,11.813,30.323,17.614a7.145,7.145,0,0,1,3.238,5.609l-.058,32.048c-.006,2.059-1.467,2.891-3.26,1.856l-30.135-17.505Z" transform="translate(-756.494 -3643.927)" fill-rule="evenodd" opacity="0.5" fill="url(#linear-gradient-3)" style="mix-blend-mode: multiply;isolation: isolate"/>
            <g id="Grupo_86645" data-name="Grupo 86645">
              <path id="Trazado_152069" data-name="Trazado 152069" d="M715.57,3621l2.114-1.129a2.393,2.393,0,0,1,1.917.339c17.993,10.321,35.949,21,53.944,31.325a6.76,6.76,0,0,1,3.064,5.308l.088,29.042a2.25,2.25,0,0,1-.761,1.881c-.566.419-2.337,1.668-3.263,1.134-17.994-10.321-35.014-22.262-53-32.582a6.756,6.756,0,0,1-3.064-5.308Z" transform="translate(-714.772 -3619.789)" fill="#f2f4ff" fill-rule="evenodd"/>
              <path id="Trazado_152070" data-name="Trazado 152070" d="M713.652,3624.265c.005-1.95,1.386-2.739,3.084-1.758,17.993,10.321,35.95,21,53.944,31.325a6.758,6.758,0,0,1,3.064,5.308l.089,29.042c-.006,1.949-1.389,2.737-3.085,1.757-17.994-10.322-35.953-21.006-53.943-31.324a6.756,6.756,0,0,1-3.065-5.308Z" transform="translate(-713.652 -3621.13)" fill="#d07efc" fill-rule="evenodd"/>
              <g id="Grupo_86644" data-name="Grupo 86644" transform="translate(1.409 5.459)">
                <path id="Trazado_152071" data-name="Trazado 152071" d="M717.038,3634.252c0-1.22.867-1.7,1.929-1.067l24,13.563a4.313,4.313,0,0,1,1.917,3.352v2.412c0,1.22-.869,1.7-1.93,1.068l-24-13.563a4.312,4.312,0,0,1-1.917-3.353Z" transform="translate(-717.037 -3632.906)" fill="#fff" fill-rule="evenodd" opacity="0.5"/>
                <path id="Trazado_152072" data-name="Trazado 152072" d="M717.037,3659.667c0-.863.614-1.2,1.366-.756,10.942,6.182,3.629,2.041,14.571,8.223a3.057,3.057,0,0,1,1.357,2.375v1.709c0,.864-.615,1.2-1.366.756-10.942-6.182-3.63-2.041-14.571-8.224a3.052,3.052,0,0,1-1.358-2.374Z" transform="translate(-717.037 -3647.973)" fill="#fff" fill-rule="evenodd" opacity="0.5"/>
              </g>
              <path id="Trazado_152073" data-name="Trazado 152073" d="M821.257,3697.071c0-.36.256-.506.569-.324,3.32,1.9,6.633,3.875,9.953,5.779a1.246,1.246,0,0,1,.565.979l.017,28.574c0,.359-.256.505-.569.324-3.32-1.9-6.634-3.876-9.953-5.78a1.248,1.248,0,0,1-.566-.979Z" transform="translate(-776.474 -3664.673)" fill="#fff" fill-rule="evenodd" opacity="0.25"/>
              <path id="Trazado_152074" data-name="Trazado 152074" d="M799.7,3704.5c-2.386-1.668-5.209-3.056-8.2-2.761a14.644,14.644,0,0,0-5.819,2.292c-5.727,3.279-9.122,2.518-13.368-2.579a44.947,44.947,0,0,1-4.474-7,19.426,19.426,0,0,0-3.683-5.007c-.979-.846-1.035-2.78.259-3.348a1.574,1.574,0,0,1,1.618.244c1.973,1.558,3.312,3.967,4.514,6.135a33.247,33.247,0,0,0,4.405,6.685c3.417,3.693,5.261,3.724,9.53,1.279a16.673,16.673,0,0,1,6.779-2.6c3.44-.339,6.631,1.036,9.437,2.929a2.5,2.5,0,0,1,1.134,2.671C801.742,3704.564,801.146,3705.447,799.7,3704.5Z" transform="translate(-742.712 -3658.433)" fill="#fff" fill-rule="evenodd"/>
            </g>
          </g>
        </g>
        <g id="Grupo_86648" data-name="Grupo 86648" transform="translate(44.424 75.899)">
          <path id="Trazado_152075" data-name="Trazado 152075" d="M831.149,3825.6c-5.5-3.182-10.305-10.687-10.726-16.77s3.7-8.43,9.2-5.248,10.306,10.691,10.726,16.769S836.65,3828.778,831.149,3825.6Z" transform="translate(-820.393 -3802.16)" fill-rule="evenodd" opacity="0.5" fill="url(#linear-gradient-4)" style="mix-blend-mode: multiply;isolation: isolate"/>
          <path id="Trazado_152076" data-name="Trazado 152076" d="M834.527,3823.473c-5.006-2.894-9.371-9.719-9.754-15.25s3.362-7.667,8.368-4.773,9.371,9.722,9.754,15.25S839.529,3826.365,834.527,3823.473Z" transform="translate(-822.934 -3802.16)" fill-rule="evenodd" fill="url(#linear-gradient-5)"/>
          <path id="Trazado_152077" data-name="Trazado 152077" d="M840.434,3819.842l1.327.664-5.893,8.971-5.2-7.716,1.713.67,2.748,2.609Z" transform="translate(-826.39 -3812.483)" fill="#fff" fill-rule="evenodd"/>
        </g>
      </g>
    </g>
    <g id="Grupo_86661" data-name="Grupo 86661" transform="translate(592.837 3681.287)">
      <path id="Trazado_152078" data-name="Trazado 152078" d="M595.5,4055.675l28.129-16.02c3.067-1.4,7.455-2.516,10.58-.89,2.847,1.481,7.536,4.513,9.61,5.7,1.575.9,7.042,4.174,3.637,6.026-10.017,5.447-19.93,11.572-30.1,17.106a14.275,14.275,0,0,1-7.692,1.178,20.354,20.354,0,0,1-8.331-2.481q-2.536-1.474-4.988-2.9c-2.207-1.285-3.377-2.8-3.493-4.208C592.734,4057.807,593.615,4056.535,595.5,4055.675Z" transform="translate(-592.837 -3936.228)" fill="#45be9b" fill-rule="evenodd" opacity="0.5" style="mix-blend-mode: multiply;isolation: isolate"/>
      <g id="Grupo_86660" data-name="Grupo 86660" transform="translate(10.043)">
        <g id="Grupo_86652" data-name="Grupo 86652" transform="translate(16.236 16.635)">
          <path id="Trazado_152079" data-name="Trazado 152079" d="M671.959,3848.278a51.769,51.769,0,0,1,10.49-3.925c.323-.087,2.641-.673,2.954-.781.172-.086.949-.407,1.086-.48a5.669,5.669,0,0,0,1.524,3.835c-.16.065-1.007.51-1.181.584-.258.142-.621.871-.814,1.092-1.915,2.2-8.054,5.564-12.891,7.41l-.018.006a3.3,3.3,0,0,1-3.814-.785c-.549-.378-1.081-.79-1.436-1.022-2.743-1.791-7.862-8.254-11.876-18.5a12.3,12.3,0,0,1,3.333-1.949,4.443,4.443,0,0,1,4.156.568c1.18.991,2.545,2.935,3.739,6.209.8,2.208,3.026,4.962,4.656,7.582Z" transform="translate(-655.981 -3833.487)" fill="#f6f6f6" fill-rule="evenodd"/>
          <path id="Trazado_152080" data-name="Trazado 152080" d="M669.294,3855.89c-.549-.378-1.081-.791-1.436-1.022-2.743-1.792-7.862-8.253-11.876-18.5,4.059-4.647,9.662.918,11.164,5.037C668.775,3845.88,667.772,3849.4,669.294,3855.89Z" transform="translate(-655.981 -3834.143)" fill="#f6f6f6" fill-rule="evenodd" opacity="0.3" style="mix-blend-mode: multiply;isolation: isolate"/>
          <g id="Grupo_86651" data-name="Grupo 86651" transform="translate(29.238 6.042)">
            <path id="Trazado_152081" data-name="Trazado 152081" d="M730.544,3849.459l.716-1.188a.594.594,0,0,1,.705-.214c.974.514.734,2.353-.542,3.319,1.528.053,2.05.417,2.123,1.1.114,1.076-.092,5.091-.784,5.38-.57.238-3.369.5-3.9.052-.388-.329.028-.6-.493-1.15-.173-.182-.911-.185-1.467-.627-.72-.573-.879-2.551-.386-3.687a2.79,2.79,0,0,1,.325-1.493C727.744,3849.577,729.648,3850.946,730.544,3849.459Z" transform="translate(-726.233 -3848.004)" fill="#ffa698" fill-rule="evenodd"/>
            <path id="Trazado_152082" data-name="Trazado 152082" d="M730.244,3858.462c.371.086.271.219.778.262a2.766,2.766,0,0,1-1.071.5c-.574-.186-.792-.215-1.009.133-.631,1.012-.407,3.144-.357,3.746-.233-.544-1.654-.433-1.994-1.308-.244-.748-.456-2.59-.045-2.961a1.43,1.43,0,0,0,1.415.562C728.834,3859.215,730,3858.407,730.244,3858.462Z" transform="translate(-726.281 -3854.109)" fill-rule="evenodd" fill="url(#linear-gradient-6)"/>
          </g>
        </g>
        <g id="Grupo_86653" data-name="Grupo 86653" transform="translate(2.457 47.118)">
          <path id="Trazado_152083" data-name="Trazado 152083" d="M624.5,4055.454a10.671,10.671,0,0,1-.294,1.51,17.522,17.522,0,0,0-.776,2.426c-.4,1.69.149,3.953-.387,6.344a2.613,2.613,0,0,0,.379,2.565c.622.828,1.794,2.154,3.321,2.1a2.29,2.29,0,0,0,1.612-.781,3.851,3.851,0,0,0,.963-2.834,23.527,23.527,0,0,1-.253-3.261c.04-1.17.254-1.815.227-3.1-.029-1.357-.133-3.225-.154-4.1Z" transform="translate(-622.872 -3993.558)" fill="#12263f" fill-rule="evenodd"/>
          <path id="Trazado_152084" data-name="Trazado 152084" d="M658.142,4036.9a7.869,7.869,0,0,0-.755,3.395c.272.886.9,1.246,1.591,1.858l.49.107c1.215.658,1.66,2.964,2.788,4.014a8.739,8.739,0,0,0,3.951,1.448c1.68.325,3.276-.156,2.839-1.477-1.087-3.282-5.783-6.99-5.891-10.658Z" transform="translate(-643.023 -3981.962)" fill="#12263f" fill-rule="evenodd"/>
          <path id="Trazado_152085" data-name="Trazado 152085" d="M659.432,3938.276c-.121,6.289-1.491,18.058-1.281,24.256a4.128,4.128,0,0,1-5.869-.536c-.653-5.7-1.413-13.8-1.488-16.932a24.269,24.269,0,0,1,.836-7.337c-.934-6.882-4.908-16.271-3.962-22.744.415-2.844,2.279-5.905,2.821-8.25,4.687,5.774,8.259,3.007,10.2,2.505-.011,2,.14,1.728.075,3.826-.218,7.091-.548,14.663-.938,22.02A10.057,10.057,0,0,1,659.432,3938.276Z" transform="translate(-637.264 -3906.731)" fill="#170078" fill-rule="evenodd"/>
          <path id="Trazado_152086" data-name="Trazado 152086" d="M651.2,3951.029c-.219-2.476-.376-4.633-.408-5.965a24.269,24.269,0,0,1,.836-7.337c-.934-6.882-4.908-16.271-3.962-22.745.415-2.843,2.279-5.9,2.821-8.25,4.687,5.774,8.259,3.007,10.2,2.505,0,.222,0,.417,0,.589l-6.143,4.539,1.513-.342c-.058,8.171-1.069,15.621-1.221,23.679a122.38,122.38,0,0,0-3.613,13.183Z" transform="translate(-637.264 -3906.731)" fill="#1e2353" fill-rule="evenodd" opacity="0.3" style="mix-blend-mode: multiply;isolation: isolate"/>
          <path id="Trazado_152087" data-name="Trazado 152087" d="M635.7,3945.226c-1.129,6.289-4.425,21.55-5.21,27.747-2.029,1.127-5.011.734-5.728-.915-.023-5.7,0-15.958.426-19.087a39.292,39.292,0,0,1,2.317-8.96c-.415-14.694-1.666-18.8.318-25.278.872-2.844,3.153-5.587,4.072-7.934,1.258,1.932,3.2,4.675,7.357,4.335.407-.033,3.874-2.51,5.018-2.795-1.451,8.742-5.631,20.159-7.666,29.693A11.036,11.036,0,0,1,635.7,3945.226Z" transform="translate(-623.972 -3909.105)" fill="#170078" fill-rule="evenodd"/>
        </g>
        <g id="Grupo_86654" data-name="Grupo 86654" transform="translate(1.174 16.063)">
          <path id="Trazado_152088" data-name="Trazado 152088" d="M639.284,3832.277a3.469,3.469,0,0,1,1.3.437c3.093,1.717,4.172,6.772,4.668,11.2a66.979,66.979,0,0,1-.018,10.544c-.1,2.8.265,5.4.139,8.051-.037.787-.336,1.64-.417,2.477a4.045,4.045,0,0,0-.2,1.655c-1.549,5.906-16.187,6.394-18.317,2.4a11.832,11.832,0,0,0,.375-1.788c-1.378-1.255-.582-4.314-.8-6.451a17.279,17.279,0,0,0-.868-4.41c-1.991-4.9-4.77-8.679-5.322-12.444-.38-2.592,2.933-5.821,7.3-8.435C631.326,3832.993,637.032,3831.62,639.284,3832.277Z" transform="translate(-619.791 -3832.114)" fill="#f6f6f6" fill-rule="evenodd"/>
          <path id="Trazado_152089" data-name="Trazado 152089" d="M645.766,3879.152a2.911,2.911,0,0,0-.2,1.515c-1.549,5.905-16.187,6.394-18.317,2.4a11.788,11.788,0,0,0,.375-1.788c-1.378-1.254-.582-4.314-.8-6.451a17.3,17.3,0,0,0-.868-4.411c-1.6-3.952-3.72-7.17-4.771-10.241l2.087-1.92,4.237-2.116c1.807,1.636,1.793,4.728,2.355,6.88.755,2.892,1.058,5.113,1.552,7.884C632.009,3878.315,636.455,3882.777,645.766,3879.152Z" transform="translate(-620.606 -3846.138)" fill="#c2c2c2" fill-rule="evenodd" opacity="0.3" style="mix-blend-mode: multiply;isolation: isolate"/>
        </g>
        <g id="Grupo_86655" data-name="Grupo 86655" transform="translate(17.209 37.696)">
          <path id="Trazado_152090" data-name="Trazado 152090" d="M658.417,3904.387a2.545,2.545,0,0,0,.79.474.669.669,0,0,0,.373-.038l10.841-7.262,1.784-1.594,12.682-10.463c.339-.3,1.056-.737,1.109-.919a5.27,5.27,0,0,0-.757-.458c-.09-.095-.443,0-1.186.446l-10.966,6.405a4.606,4.606,0,0,0-1.154.788L658.5,3903.857C658.316,3904.012,658.246,3904.26,658.417,3904.387Z" transform="translate(-658.319 -3884.094)" fill="#d8fff7" fill-rule="evenodd"/>
          <path id="Trazado_152091" data-name="Trazado 152091" d="M660.2,3904.993c-.043.134-.3.731.643.394l11.369-6.771,1.784-1.594,12.407-10.921c.815-.717,1.1-1.47-.559-.474l-10.966,6.4a4.6,4.6,0,0,0-1.155.789Z" transform="translate(-659.382 -3884.709)" fill="#9fd2fb" fill-rule="evenodd"/>
        </g>
        <path id="Trazado_152092" data-name="Trazado 152092" d="M651.243,3912.4a6.53,6.53,0,0,0,.972.472c0-.029.008-.058.013-.087a1.6,1.6,0,0,0,.308.213c.2.075.389.148.576.221a11.629,11.629,0,0,0,1.435.228c.569.089,1.915.285,2.489.427a13.289,13.289,0,0,1,2.383,1.45l-1.137,1.024a1.387,1.387,0,0,0,.736.153c1.036-.1,3.69-1.428,3.583-.9a9.532,9.532,0,0,1-1.111,2.122,8.352,8.352,0,0,1-2.34,1.992,14.584,14.584,0,0,1-2.783,1.5c-.75.229-3.244-1.545-3.71-2.1-1.488-1.778-.893-2.687-2.385-3.4Z" transform="translate(-636.411 -3862.922)" fill-rule="evenodd" fill="url(#linear-gradient-7)"/>
        <path id="Trazado_152093" data-name="Trazado 152093" d="M617.813,3854.053c-1.028,4.5-.358,11.817-.828,17.091a3.158,3.158,0,0,0,.06,1.021c0,.073.009.145.018.215.091,1.16.98,1.866,2.062,2.567,2.776,1.8,5.071,4.09,10.05,5.666a4.913,4.913,0,0,0,1.593-.078c.31.093.716.326,1.045.422a4.865,4.865,0,0,1,2.091-3.5c-.324-.174-.709-.466-1.057-.675a3.164,3.164,0,0,0-.648-.917,51.644,51.644,0,0,0-8.378-6.018c.377-1.31.628-2.659.884-3.68a62.729,62.729,0,0,0,1.223-6.346c.117-.822.2-1.238.3-2.075C626.942,3851.524,619.06,3848.59,617.813,3854.053Z" transform="translate(-616.969 -3827.181)" fill="#f6f6f6" fill-rule="evenodd"/>
        <g id="Grupo_86658" data-name="Grupo 86658" transform="translate(10.616 11.937)">
          <g id="Grupo_86656" data-name="Grupo 86656" transform="translate(0.639)">
            <path id="Trazado_152094" data-name="Trazado 152094" d="M651.31,3829.354c.045-.236.1-.473.152-.727.144-.723-.044-2.125.15-3.781l-6.269-2.649c-.1,3.52-.68,4.246-1.328,7.114.069,2.819,7.074,4.082,7.221.769A5.248,5.248,0,0,1,651.31,3829.354Z" transform="translate(-644.014 -3822.198)" fill="#ffa698" fill-rule="evenodd"/>
            <path id="Trazado_152095" data-name="Trazado 152095" d="M652.956,3829.354c.045-.236.1-.473.152-.727.144-.723-.044-2.125.149-3.781l-6.269-2.649c-.024.8-.072,1.457-.139,2.03-.223,2.331,2.011,6.392,6.032,5.853A5.267,5.267,0,0,1,652.956,3829.354Z" transform="translate(-645.661 -3822.198)" fill-rule="evenodd" fill="url(#linear-gradient-8)"/>
          </g>
          <g id="Grupo_86657" data-name="Grupo 86657" transform="translate(0 5.026)">
            <path id="Trazado_152096" data-name="Trazado 152096" d="M658.415,3845.984c1.927,4.793.619,6.706-1.163,9.926-1.94,3.506-1.184,7.781-.8,12.337a14.184,14.184,0,0,0,4.028,3.792,21.551,21.551,0,0,1,1.492-5.563,12.454,12.454,0,0,1-1.207-7.2c.758-4.033,2.941-7.478-1.292-13.723.3-1.686.07-2.033-.279-2.231-.409-.233-.053-.262-1.252.041-.79.2-1.605.339-1.357,1.192C656.778,3845.2,657.121,3845.447,658.415,3845.984Z" transform="translate(-650.361 -3839.448)" fill="#856de9" fill-rule="evenodd"/>
            <path id="Trazado_152097" data-name="Trazado 152097" d="M660.471,3838.688a12.51,12.51,0,0,0,.4-1.51,14.989,14.989,0,0,0,.275-2.081c.76.274,1.823,2.713,1.671,4.176A3.159,3.159,0,0,0,660.471,3838.688Z" transform="translate(-652.982 -3834.754)" fill="#e4e4e4" fill-rule="evenodd"/>
            <path id="Trazado_152098" data-name="Trazado 152098" d="M643.636,3834.274c.17,2.167,3.891,3.5,6.352,3.933-.561.74-1.287,1.669-1.226,2.381-1.72-.392-4.636-1.068-5.9-3.192A2.128,2.128,0,0,1,643.636,3834.274Z" transform="translate(-642.478 -3834.274)" fill="#e4e4e4" fill-rule="evenodd"/>
          </g>
        </g>
        <g id="Grupo_86659" data-name="Grupo 86659" transform="translate(10.525)">
          <path id="Trazado_152099" data-name="Trazado 152099" d="M652.064,3815.7c-.768-.508-2.871-1.785-3.56-2.29-1.507-1.105-1.324-2.516-1.76-4.726-1.409-1.007-1.883-1.806-2.009-2.71a6.545,6.545,0,0,1,2.561-5.718,5.689,5.689,0,0,1,4.929-1.008c3.6.788,5.078,3.509,5.269,6.62a2.084,2.084,0,0,1-.1.772,9.731,9.731,0,0,0-.332,1.156c-.19.924.434,1.258.185,2.4a17.386,17.386,0,0,1-2.162,5.111A5.531,5.531,0,0,1,652.064,3815.7Z" transform="translate(-643.678 -3796.762)" fill="#ffa698" fill-rule="evenodd"/>
          <path id="Trazado_152100" data-name="Trazado 152100" d="M665.359,3812.135a10.05,10.05,0,0,1,.173,1.355,2.1,2.1,0,0,1-.1.773,9.693,9.693,0,0,0-.333,1.155c-.19.923.434,1.258.185,2.4a18.567,18.567,0,0,1-.974,2.866c-2.316,1.761-4.34-.389-4.65-.789-1.451-1.872-1.563-4.67-.465-7.285A8.89,8.89,0,0,0,665.359,3812.135Z" transform="translate(-651.717 -3804.387)" fill-rule="evenodd" fill="url(#linear-gradient-9)"/>
          <path id="Trazado_152101" data-name="Trazado 152101" d="M642.309,3801.712a17.94,17.94,0,0,0,1.732,5.377c.73,1.174.412-.264.8-1.068.3-.618,1.253-.69,1.543-1.327a1.994,1.994,0,0,0,.68,1.259c.222.121.671.287.689-.351.061-2.207,1.105-2.36.776-3.683-.247-.991-.187-1.417.055-1.775.72.1,1.184.839,2.028,1.2a7.377,7.377,0,0,0,5.015-.476,2.712,2.712,0,0,0,.451-4.53c-.831-.775-1.764-.971-3.069-1.844a5.658,5.658,0,0,0-7.28.771C642.452,3795.929,642.1,3799.053,642.309,3801.712Z" transform="translate(-642.259 -3793.517)" fill="#12263f" fill-rule="evenodd"/>
          <path id="Trazado_152102" data-name="Trazado 152102" d="M648.726,3817.488c-1.357-.616-1.524,1-1.4,2.009.084.69.646.694.8,1.247a1.28,1.28,0,0,0,1.065,1.032c.857.061.452-1.26.4-1.774C649.764,3819.185,649.588,3817.878,648.726,3817.488Z" transform="translate(-645.197 -3807.432)" fill="#ffa698" fill-rule="evenodd"/>
        </g>
      </g>
    </g>
  </g>
</svg>
