<svg xmlns="http://www.w3.org/2000/svg" xmlns:xlink="http://www.w3.org/1999/xlink" width="190.987" height="218.999" viewBox="0 0 190.987 218.999">
  <defs>
    <linearGradient id="linear-gradient" x1="0.456" y1="0.432" x2="0.655" y2="0.802" gradientUnits="objectBoundingBox">
      <stop offset="0" stop-color="#5a2d68"/>
      <stop offset="1" stop-color="#22043d"/>
    </linearGradient>
    <linearGradient id="linear-gradient-2" x1="0.534" y1="0.886" x2="0.488" y2="0.32" gradientUnits="objectBoundingBox">
      <stop offset="0" stop-color="#ff8a78"/>
      <stop offset="1" stop-color="#ffa799"/>
    </linearGradient>
    <linearGradient id="linear-gradient-3" x1="0.787" y1="0.187" x2="-0.068" y2="0.765" gradientUnits="objectBoundingBox">
      <stop offset="0" stop-color="#3e4795"/>
      <stop offset="1" stop-color="#273088"/>
    </linearGradient>
    <linearGradient id="linear-gradient-4" x1="1.078" y1="0.231" x2="-0.225" y2="0.707" xlink:href="#linear-gradient-3"/>
    <linearGradient id="linear-gradient-5" x1="0.497" y1="0.535" x2="0.528" y2="0.471" xlink:href="#linear-gradient-2"/>
    <linearGradient id="linear-gradient-6" x1="0.478" y1="0.533" x2="0.406" y2="0.852" xlink:href="#linear-gradient-2"/>
    <linearGradient id="linear-gradient-7" x1="0.912" y1="0.373" x2="0.409" y2="0.782" gradientUnits="objectBoundingBox">
      <stop offset="0" stop-color="#ffb89e"/>
      <stop offset="1" stop-color="#ffa799"/>
    </linearGradient>
    <linearGradient id="linear-gradient-8" x1="0.394" y1="0.069" x2="0.563" y2="0.755" gradientUnits="objectBoundingBox">
      <stop offset="0" stop-color="#fd70cb"/>
      <stop offset="1" stop-color="#6e4dfd"/>
    </linearGradient>
    <linearGradient id="linear-gradient-9" x1="0.401" y1="0.086" x2="0.569" y2="0.763" xlink:href="#linear-gradient-8"/>
    <linearGradient id="linear-gradient-10" x1="0.232" y1="-0.119" x2="0.537" y2="0.687" xlink:href="#linear-gradient-8"/>
    <linearGradient id="linear-gradient-11" x1="0.351" y1="0.655" x2="0.813" y2="0.174" gradientUnits="objectBoundingBox">
      <stop offset="0" stop-color="#965cf2"/>
      <stop offset="1" stop-color="#ff8adc"/>
    </linearGradient>
    <linearGradient id="linear-gradient-12" x1="0.404" y1="0.686" x2="0.697" y2="0.121" xlink:href="#linear-gradient-11"/>
    <linearGradient id="linear-gradient-13" x1="0.247" y1="-0.198" x2="0.549" y2="0.6" xlink:href="#linear-gradient-8"/>
    <linearGradient id="linear-gradient-14" x1="0.222" y1="-0.186" x2="0.526" y2="0.619" xlink:href="#linear-gradient-8"/>
    <linearGradient id="linear-gradient-15" x1="0.43" y1="0.634" x2="0.582" y2="0.397" gradientUnits="objectBoundingBox">
      <stop offset="0" stop-color="#1c8ef4"/>
      <stop offset="1" stop-color="#00cfdd"/>
    </linearGradient>
    <linearGradient id="linear-gradient-16" x1="0.296" y1="0.221" x2="0.747" y2="0.779" xlink:href="#linear-gradient-3"/>
    <linearGradient id="linear-gradient-17" x1="0.149" y1="0.22" x2="1.056" y2="0.742" xlink:href="#linear-gradient-3"/>
    <linearGradient id="linear-gradient-18" x1="0.32" y1="0.284" x2="0.633" y2="0.643" xlink:href="#linear-gradient-2"/>
    <linearGradient id="linear-gradient-19" x1="0.389" y1="0.316" x2="0.563" y2="0.791" xlink:href="#linear-gradient-7"/>
    <linearGradient id="linear-gradient-20" x1="0.012" y1="0.187" x2="0.669" y2="0.82" gradientUnits="objectBoundingBox">
      <stop offset="0" stop-color="#8a4791"/>
      <stop offset="1" stop-color="#562e65"/>
    </linearGradient>
  </defs>
  <g id="Grupo_86483" data-name="Grupo 86483" transform="translate(0 -13.264)">
    <g id="Grupo_68271" data-name="Grupo 68271" transform="translate(0 88.817)">
      <g id="Grupo_68260" data-name="Grupo 68260" transform="translate(1.938)">
        <path id="Trazado_150915" data-name="Trazado 150915" d="M-2139.713,3786.261a3.462,3.462,0,0,1,3.6,2.386,8.915,8.915,0,0,1,.4,5.252c-1.072,3.9.815,5.6,1.51,7.414a7.937,7.937,0,0,1,.4,3.006c-.047,1.4-.852,2.115-1.527,3.366a11.018,11.018,0,0,1-.983,3.457c-1.849,3.7-8.07,5.484-14.042,5.212-4.778-.219-9.4-1.91-11.49-3.854-2.3-2.133-2.592-7.549,1.264-8.1a3.941,3.941,0,0,0,2.71-1.252c.527-.64.017-2.323-.109-4.566-.123-2.171.373-4.456,3.529-5.218a10.269,10.269,0,0,0,3.4-1.074c2.2-1.447,1.4-4.134,3.788-5.716,1.444-.957,3.767-1.164,6.3-.459C-2140.548,3786.163-2140.133,3786.214-2139.713,3786.261Z" transform="translate(2163.528 -3785.697)" fill-rule="evenodd" fill="url(#linear-gradient)"/>
        <path id="Trazado_150916" data-name="Trazado 150916" d="M-2123.745,3793.117a3.99,3.99,0,0,1-.881,2.872c-1.47,2.074-2.241,1.912-3.045,4.553-1.322-.883-2.229-1.018-2.611-.151-.612,1.393-.227,2.217-.369,3.658-.231,2.342-3.032-.868-5.228.927-2.159,1.765-.678,3-1.511,5.5-.312.936-.555,2.166-1.428,2.578-2.715,1.287-3.755,4.523,1.078,6.129,2.995,1,7.342.746,10.976-.493,4.8-1.635,7.755-8.711,6.531-12.073-.506-1.391-1.875-2.429-1.881-3.517C-2122.137,3799.368-2121.417,3796.972-2123.745,3793.117Z" transform="translate(2148.987 -3790.509)" fill="#22043d" fill-rule="evenodd"/>
      </g>
      <g id="Grupo_68262" data-name="Grupo 68262" transform="translate(25.933 13.828)">
        <g id="Grupo_68261" data-name="Grupo 68261" transform="translate(7.138 6.879)">
          <path id="Trazado_150917" data-name="Trazado 150917" d="M-2036.355,3844.858c.438.633-.385,1.073-.755,1.092-.589.077-1.431-.224-1.639.17-.234.442-2.995-.47-2.966-.5a5,5,0,0,1,2.359-1C-2037.589,3844.738-2038.1,3845.135-2036.355,3844.858Z" transform="translate(2053.388 -3844.621)" fill-rule="evenodd" fill="url(#linear-gradient-2)"/>
          <path id="Trazado_150918" data-name="Trazado 150918" d="M-2062.866,3849.274c-2.534.716-5.994,3.19-8.4,3.735-.761.171-1.95.5-2.548-.142-3.1-3.349,1.21-2.248,1.573-3.513,2.2-1.639,5.655-.866,8.479-2.386a5.331,5.331,0,0,1,.55-.324c1.107-.552,1.726-.506,3.649.459a2.235,2.235,0,0,0,1.337.23l1.934-.248c.593-.022.971.12,1.063.314a3.462,3.462,0,0,1-.455,1.918l0,0c-.073.225-.512.4-1.2.406l-2.826.866-.133-.075C-2061.535,3849.562-2062.254,3849.244-2062.866,3849.274Z" transform="translate(2074.933 -3845.702)" fill="#ffa698" fill-rule="evenodd"/>
        </g>
        <path id="Trazado_150919" data-name="Trazado 150919" d="M-2088.079,3839.386c-2.283-2.13-5.522-5.225-6.682-7.671-.753-1.59-.893-6.053,1.536-6.616.813-.513,2.049,2.811,2.881,4.153a59.074,59.074,0,0,0,4.385,6.114c1.876-1.218,4.464-1.338,6.9-1.943a2.4,2.4,0,0,1,1.122-.031,3.791,3.791,0,0,0,.848-.3,3.629,3.629,0,0,1,1.033,2.587c-.194.054-.624.187-.827.259-.288.1-.45.377-.735.531a44.03,44.03,0,0,1-7.5,3.178c-.826.188-2.155.616-2.805-.086C-2087.973,3839.5-2088.027,3839.444-2088.079,3839.386Z" transform="translate(2095.246 -3825.046)" fill="#d07efc" fill-rule="evenodd"/>
        <path id="Trazado_150920" data-name="Trazado 150920" d="M-2088.079,3840.182c-2.283-2.13-5.523-5.225-6.681-7.671-.651-1.374-.843-4.891.682-6.186.8-.083,1.252-.1,1.632.215.475.4.665,1.381,1.354,2.837,1.041,2.2,2.623,3.487,2.75,6.079a7.163,7.163,0,0,0,2.39,5.186,2.076,2.076,0,0,1-1.965-.281C-2087.973,3840.3-2088.027,3840.24-2088.079,3840.182Z" transform="translate(2095.245 -3825.842)" fill="#7e41df" fill-rule="evenodd" opacity="0.5"/>
      </g>
      <path id="Trazado_150921" data-name="Trazado 150921" d="M-2132.11,4034.784l-19.581-11.153c-2.135-.975-5.191-1.751-7.366-.619-1.981,1.031-5.247,3.142-6.689,3.965-1.1.626-4.9,2.906-2.532,4.195,6.973,3.792,13.874,8.057,20.955,11.908a9.933,9.933,0,0,0,5.355.821,14.184,14.184,0,0,0,5.8-1.728q1.767-1.026,3.473-2.021c1.535-.895,2.35-1.952,2.431-2.93C-2130.186,4036.267-2130.8,4035.383-2132.11,4034.784Z" transform="translate(2169.042 -3939.252)" fill="#bceaff" fill-rule="evenodd" opacity="0.5"/>
      <g id="Grupo_68267" data-name="Grupo 68267" transform="translate(14.076 36.207)">
        <g id="Grupo_68264" data-name="Grupo 68264" transform="translate(0.536)">
          <g id="Grupo_68263" data-name="Grupo 68263" transform="translate(0 43.377)">
            <path id="Trazado_150922" data-name="Trazado 150922" d="M-2124.892,4012.166a2.173,2.173,0,0,1-.242,1.21c-1.136,1.649.217,1.51.157,3.862-.005.217.956,3.933.956,3.933s2.264.549,2.433.519,1.544-.561,1.544-.561c-.116-.2-.27-.691-.365-.876a14.934,14.934,0,0,1-1.248-4.358,12.022,12.022,0,0,1-.268-3.686Z" transform="translate(2126.247 -4012.166)" fill="#ffa698" fill-rule="evenodd"/>
            <path id="Trazado_150923" data-name="Trazado 150923" d="M-2121.185,4023.075a10.091,10.091,0,0,1,.636,1.5.71.71,0,0,1-.03.607c-.519.746-3.277-.489-4.214-1.262-.605-.5-.637-1.112-.8-1.858-.246-1.117-.286-1.244-.594-2.391l-.2,3.149-.253.166a35.219,35.219,0,0,0-.525-4.049c-.094-.434-.245-.925-.272-1.166a2.491,2.491,0,0,1,1.153-2.562c-.208.873.565,2.258.909,4.018A4.665,4.665,0,0,0-2121.185,4023.075Z" transform="translate(2127.46 -4014.138)" fill="#161f69" fill-rule="evenodd"/>
          </g>
          <path id="Trazado_150924" data-name="Trazado 150924" d="M-2108.887,3888.729c-.215.967.773,4.307.52,5.59-.24,4.228-.982,7.8-3.831,16.259,0,.1-2.6,5.266-2.777,5.808-1.773,5.516-3.984,11.5-5.864,17.076-.7.539-2.8.37-3.074-.939.581-5.566-.052-11.055.9-14.863a15.95,15.95,0,0,1,3.24-6.377c.479-5.47.825-16.443,2.07-20.649Z" transform="translate(2125.159 -3888.729)" fill-rule="evenodd" fill="url(#linear-gradient-3)"/>
          <path id="Trazado_150925" data-name="Trazado 150925" d="M-2108.887,3888.729c-.215.967-.853,2.758-1.1,4.042-.794,1.946-2.468,4.61-3.6,6.848-.338,2.714-.243,6.319-1.937,11.348l-1.534,11.624c-1.261,3.64-2.587,7.339-3.778,10.873-.7.539-2.8.37-3.074-.939.581-5.566-.052-11.055.9-14.863a15.95,15.95,0,0,1,3.24-6.377c.479-5.47.825-16.443,2.07-20.649Z" transform="translate(2125.159 -3888.729)" fill="#1e2353" fill-rule="evenodd" opacity="0.3" style="mix-blend-mode: multiply;isolation: isolate"/>
        </g>
        <g id="Grupo_68266" data-name="Grupo 68266" transform="translate(0 2.474)">
          <g id="Grupo_68265" data-name="Grupo 68265" transform="translate(3.379 46.277)">
            <path id="Trazado_150926" data-name="Trazado 150926" d="M-2118.027,4027.722a7.2,7.2,0,0,1-.244,1.546,18.069,18.069,0,0,0-.168,2.737,24.374,24.374,0,0,0,.609,4.919c.157.685.462.979.668,1.915l4.035.659c-.4-1.527-.945-4.619-1.357-7.206l-.771-4.837Z" transform="translate(2118.77 -4027.455)" fill="#ffa698" fill-rule="evenodd"/>
            <path id="Trazado_150927" data-name="Trazado 150927" d="M-2118.835,4031.848a7.45,7.45,0,0,0-.535,2.348c-.035,1.1.475,2.831.432,4.2l-.068,2.171a3.348,3.348,0,0,0,1.718,3.188c1.3.947,2.571,1.335,3.261,1,.508-.249.914-1.144.135-3.505a42.636,42.636,0,0,1-1.2-6.023,21.479,21.479,0,0,0,.69,4.853c.142.574.226,1.534-.456,1.632-2.819.4-2.961-.355-3.193-1.226A28.237,28.237,0,0,1-2118.835,4031.848Z" transform="translate(2119.372 -4030.304)" fill="#161f69" fill-rule="evenodd"/>
          </g>
          <path id="Trazado_150928" data-name="Trazado 150928" d="M-2126.11,3896.634c-3.132,3.922-3.211,6.1-2.533,10.808a98.958,98.958,0,0,1,1.61,12.511,50.548,50.548,0,0,0-.394,10.491c.287,3.265,1.2,8.866,1.9,12.826.651,1.224,3.729.691,4.231.06-.145-5.673-.055-9.564.216-14.147.264-4.457.794-8.592,1.129-12.989.276-3.638,1.38-8.586,1.526-12.516.587-1.852,6.135-7.989,4.978-7.909Z" transform="translate(2128.987 -3895.769)" fill-rule="evenodd" fill="url(#linear-gradient-4)"/>
        </g>
      </g>
      <g id="Grupo_68268" data-name="Grupo 68268" transform="translate(14.822 13.684)">
        <path id="Trazado_150929" data-name="Trazado 150929" d="M-2124.353,3841.676c1.407,3.255-.985,5.058-.123,7.3l-.266,1.518c2.567,1.844,11.749,1.981,14.051-1.673l.049-1.823a8.815,8.815,0,0,0,.019-3.66,43.755,43.755,0,0,1-.4-4.972c-.051-.541-.152-.881-.2-1.429,2.044-1.529,1.916-4.485.7-6.255a15.573,15.573,0,0,1-1.59-2.808,12.734,12.734,0,0,0-.354-1.608,2.672,2.672,0,0,0-.428-.878c-.583-.834-1.528-.933-3.455-.491-3.819.877-7.752,2.86-9.507,4.729-1.277,1.36-1.227,2.869-.494,6.13A34.975,34.975,0,0,0-2124.353,3841.676Z" transform="translate(2126.865 -3824.637)" fill="#d07efc" fill-rule="evenodd"/>
        <path id="Trazado_150930" data-name="Trazado 150930" d="M-2123.362,3854.635c1.407,3.255-.927,5.115-.066,7.357l-.266,1.5c2.567,2,11.749,1.9,14.051-1.75l-.049-1.591c0-.063-4.508,4-9.639,1.74-1.115-.49-2.124-2.929-.681-7.588.138-.443,1.773-.473,4.089-2.179-1.71.725-4.934,1.717-5.094-2.633a7.942,7.942,0,0,0-1.353-4.761c-.483-.655-3.313,2.785-2.882,4.434A41.238,41.238,0,0,0-2123.362,3854.635Z" transform="translate(2125.848 -3837.615)" fill="#7e41df" fill-rule="evenodd" opacity="0.5"/>
      </g>
      <g id="Grupo_68269" data-name="Grupo 68269" transform="translate(6.722 18.205)">
        <path id="Trazado_150931" data-name="Trazado 150931" d="M-2126.89,3893.594c.467.283,1.318.557,1.661.762.177.107,1.447.9,2.16,1.376a5.027,5.027,0,0,1,1.436,2.076,5.175,5.175,0,0,1,.513,1.491c.049.347-.832,1.014-1.207.931-.85-.188-1.718-1.232-1.943-1.348-1.9-.988-2.817-1.086-3.506-1.872-.294-.336-.474-1.317-1.08-2.2l1.168-1.057Z" transform="translate(2136.257 -3873.882)" fill-rule="evenodd" fill="url(#linear-gradient-5)"/>
        <path id="Trazado_150932" data-name="Trazado 150932" d="M-2140.78,3837.728c-2.83,1.783-5.956,6.7-8.758,11.075a2.032,2.032,0,0,0-.118,2.173,5.343,5.343,0,0,0,.55.991,27.194,27.194,0,0,0,5.478,6.124,2.147,2.147,0,0,0,.829.343c.179.149.429.414.619.57-.236-.305,1.18-1.831,1.822-1.729-.165-.2-.333-.426-.5-.661a1.925,1.925,0,0,0-.114-.723,21.763,21.763,0,0,0-3.576-5.839c2.552-2.76,4.014-3.429,6.392-6.326C-2135.272,3840.206-2138.9,3836.546-2140.78,3837.728Z" transform="translate(2149.915 -3837.501)" fill="#d07efc" fill-rule="evenodd"/>
      </g>
      <g id="Grupo_68270" data-name="Grupo 68270" transform="translate(21.127 4.115)">
        <path id="Trazado_150933" data-name="Trazado 150933" d="M-2107.838,3817.656a10.016,10.016,0,0,1-.382,4.907c1.376,1.274,3.825.733,4.394-.422-.12-.747-.26-1.433-.341-2.2Z" transform="translate(2108.467 -3810.54)" fill="#ffa698" fill-rule="evenodd"/>
        <path id="Trazado_150934" data-name="Trazado 150934" d="M-2107.133,3817.656a9.557,9.557,0,0,1,.123,2.375c.4,1.632,3.458,2.733,3.776,1.436-.086-.5-.171-.995-.228-1.527Z" transform="translate(2107.762 -3810.54)" fill-rule="evenodd" fill="url(#linear-gradient-6)"/>
        <path id="Trazado_150935" data-name="Trazado 150935" d="M-2102.607,3797.407a5.452,5.452,0,0,1,.894,3.735,1.606,1.606,0,0,0,.129.892,3.526,3.526,0,0,1,.266,3.06c-.309,1.129-.288,1.72-.673,2.107a2.253,2.253,0,0,1-1.489.521,8.985,8.985,0,0,1-3.818-1.175c-.76-.415-.73-.7-1.052-1.42-1.073-.934-.378-1.615-.019-1.685,1.031-.2,1.2.987,1.809,1.251C-2106.661,3802.607-2102.683,3799.084-2102.607,3797.407Z" transform="translate(2108.924 -3797.407)" fill="#ffa698" fill-rule="evenodd"/>
        <path id="Trazado_150936" data-name="Trazado 150936" d="M-2095.582,3799.786a5.361,5.361,0,0,1,.437,2.9,1.607,1.607,0,0,0,.128.891,3.529,3.529,0,0,1,.267,3.06c-.14.506-.212.9-.284,1.224a.964.964,0,0,1-1.2.347,1.853,1.853,0,0,1-.957-1.544c-.075-.6-1.306-1-1.56-1.607-.21-.506.357-1.071.7-1.363A8.578,8.578,0,0,0-2095.582,3799.786Z" transform="translate(2102.355 -3798.95)" fill-rule="evenodd" fill="url(#linear-gradient-7)"/>
        <path id="Trazado_150937" data-name="Trazado 150937" d="M-2098.243,3797.407c-.578,2.563-3.925,4.5-3.953,7.287C-2101.281,3801.8-2098.034,3799.821-2098.243,3797.407Z" transform="translate(2104.56 -3797.407)" fill="#ff8f7f" fill-rule="evenodd"/>
      </g>
    </g>
    <g id="Grupo_68291" data-name="Grupo 68291" transform="translate(37.927 13.264)">
      <path id="Trazado_150938" data-name="Trazado 150938" d="M-1961.545,4042.292l-60.639-33.78c-1.9-.87-4.7-1.69-6.567-.553l-4.778,2.911c-.96.585-4.121,2.528-2.007,3.677,6.219,3.382,55.3,31.083,61.615,34.518a8.866,8.866,0,0,0,4.775.732,12.011,12.011,0,0,0,5.172-1.541l1.908-1.177c1.349-.832,2.1-1.741,2.168-2.612C-1959.828,4043.615-1960.375,4042.825-1961.545,4042.292Z" transform="translate(2044.987 -3853.939)" fill="#4ed7de" fill-rule="evenodd" opacity="0.5"/>
      <g id="Grupo_68290" data-name="Grupo 68290">
        <g id="Grupo_68272" data-name="Grupo 68272" transform="translate(10.152 3.02)">
          <path id="Trazado_150939" data-name="Trazado 150939" d="M-1958.028,3579.945a4.3,4.3,0,0,0-3.656-.409l-3.8,1.484c.635-.247,67.385,39.073,66.882,42.5l-23.37,145.115,3.8-1.481a4.788,4.788,0,0,0,2.688-3.936l20.683-141.18a.113.113,0,0,0,0-.016,10.084,10.084,0,0,0-1.682-6.829,7.956,7.956,0,0,0-2.762-2.664Z" transform="translate(1988.936 -3579.295)" fill="#273087" fill-rule="evenodd"/>
          <path id="Trazado_150940" data-name="Trazado 150940" d="M-1946.331,3616.744l-58.782-32.584c-2.981-1.652-5.819-.066-6.345,3.529l-20.683,141.181c-.526,3.6,1.455,7.854,4.435,9.505l58.783,32.584c2.981,1.652,5.826.069,6.352-3.525l20.683-141.182C-1941.361,3622.657-1943.351,3618.4-1946.331,3616.744Z" transform="translate(2032.226 -3582.026)" fill="#d07efc" fill-rule="evenodd"/>
        </g>
        <g id="Grupo_68274" data-name="Grupo 68274" transform="translate(6.909 114.907)">
          <path id="Trazado_150941" data-name="Trazado 150941" d="M-1969.623,3941.046l-54.717-30.33a3.963,3.963,0,0,0-3.4-.382,4.36,4.36,0,0,0-2.5,3.667l-3.631,25.582a9.231,9.231,0,0,0,4.128,8.848l54.717,30.33c2.775,1.538,5.423.065,5.914-3.281l3.63-25.583A9.239,9.239,0,0,0-1969.623,3941.046Z" transform="translate(2036.592 -3905.741)" fill-rule="evenodd" opacity="0.5" fill="url(#linear-gradient-8)" style="mix-blend-mode: multiply;isolation: isolate"/>
          <g id="Grupo_68273" data-name="Grupo 68273">
            <path id="Trazado_150942" data-name="Trazado 150942" d="M-1964.814,3938.853l-4.464,28.333.5.061,1.365-.529a4.457,4.457,0,0,0,2.5-3.664l3.631-25.581a.075.075,0,0,0,0-.015,9.386,9.386,0,0,0-1.566-6.356,7.4,7.4,0,0,0-2.572-2.48l-54.718-30.331a4,4,0,0,0-3.4-.38l-1.2.47c-.605.228-.793.41-.79.448C-2024.962,3904.123-1964.018,3933.421-1964.814,3938.853Z" transform="translate(2031.126 -3897.686)" fill="#273087" fill-rule="evenodd"/>
            <path id="Trazado_150943" data-name="Trazado 150943" d="M-1977.121,3930.156l-54.717-30.33a3.964,3.964,0,0,0-3.4-.382,4.362,4.362,0,0,0-2.5,3.667l-3.631,25.583a9.229,9.229,0,0,0,4.128,8.847l54.718,30.33c2.774,1.537,5.422.065,5.912-3.282l3.631-25.582A9.24,9.24,0,0,0-1977.121,3930.156Z" transform="translate(2041.455 -3898.678)" fill="#b2fbff" fill-rule="evenodd"/>
            <path id="Trazado_150944" data-name="Trazado 150944" d="M-2029.878,3929.727a2.209,2.209,0,0,0,.987,2.115l56.164,31.156a.919.919,0,0,0,1.414-.785c.912-5.526,1.587-11.17,2.373-16.726a2.205,2.205,0,0,0-.988-2.115l-56.163-31.156a.952.952,0,0,0-.814-.091,1.043,1.043,0,0,0-.6.877Z" transform="translate(2033.958 -3907.015)" fill="#18b6fe" fill-rule="evenodd"/>
            <path id="Trazado_150945" data-name="Trazado 150945" d="M-1973.522,4012.64l-56.163-31.157a.953.953,0,0,0-.813-.09,1.042,1.042,0,0,0-.6.877l-.209,1.261a2.205,2.205,0,0,0,.987,2.114l56.163,31.156a.918.918,0,0,0,1.413-.785l.208-1.261A2.207,2.207,0,0,0-1973.522,4012.64Z" transform="translate(2034.885 -3951.941)" fill="#18b6fe" fill-rule="evenodd"/>
          </g>
        </g>
        <g id="Grupo_68276" data-name="Grupo 68276" transform="translate(69.583 33.873)">
          <path id="Trazado_150946" data-name="Trazado 150946" d="M-1833.611,3679.017l-20.366-11.252a4.368,4.368,0,0,0-3.751-.421,4.808,4.808,0,0,0-2.763,4.044l-2.528,18.054c-.541,3.692,1.494,8.064,4.553,9.76l20.367,11.253a5.519,5.519,0,0,0,1.415.556l3.735-1.086,3.658-24.859A9.769,9.769,0,0,0-1833.611,3679.017Z" transform="translate(1863.106 -3667.092)" fill-rule="evenodd" opacity="0.5" fill="url(#linear-gradient-9)" style="mix-blend-mode: multiply;isolation: isolate"/>
          <g id="Grupo_68275" data-name="Grupo 68275" transform="translate(1.493 0.132)">
            <path id="Trazado_150947" data-name="Trazado 150947" d="M-1819.54,3689.815l-3.21,19.8.5.061,1.366-.531a4.456,4.456,0,0,0,2.5-3.663l2.376-17.048a.069.069,0,0,0,0-.016,9.38,9.38,0,0,0-1.566-6.356,7.391,7.391,0,0,0-2.571-2.481l-20.966-11.51a4,4,0,0,0-3.4-.38l-1.2.471c-.606.228-.793.409-.789.447C-1845.936,3673.906-1818.743,3684.383-1819.54,3689.815Z" transform="translate(1850.846 -3667.468)" fill="#273087" fill-rule="evenodd"/>
            <path id="Trazado_150948" data-name="Trazado 150948" d="M-1829.532,3681.118l-20.965-11.51a3.962,3.962,0,0,0-3.4-.381,4.36,4.36,0,0,0-2.505,3.667l-2.376,17.049a9.231,9.231,0,0,0,4.128,8.848l20.966,11.51c2.775,1.537,5.423.065,5.912-3.281l2.376-17.05A9.24,9.24,0,0,0-1829.532,3681.118Z" transform="translate(1858.859 -3668.461)" fill="#fff" fill-rule="evenodd"/>
            <path id="Trazado_150949" data-name="Trazado 150949" d="M-1833.538,3702.453a1.673,1.673,0,0,1,.173.976,6.405,6.405,0,0,1-.38,1.248l-4.468,12.407c-.144.415-.276.73-.372.958a.761.761,0,0,1-.4.433.721.721,0,0,1-.645-.15,1.681,1.681,0,0,1-.882-1.71,8.708,8.708,0,0,1,.369-1.294l4.455-12.414a4.507,4.507,0,0,1,.6-1.282c.163-.2.443-.177.82.056a1.875,1.875,0,0,1,.734.772Zm1.193,3.223-.41,3.45,6.6,7.656-7.4-.937-.411,3.465,10.646.833.348-2.938-9.376-11.53Zm-18.608-2.632,9.379,11.542.411-3.466-6.569-7.7,7.365,1,.415-3.495-10.649-.85Z" transform="translate(1853.732 -3688.614)" fill="#856de9" fill-rule="evenodd"/>
          </g>
        </g>
        <g id="Grupo_68278" data-name="Grupo 68278" transform="translate(2.49 50.371)">
          <path id="Trazado_150950" data-name="Trazado 150950" d="M-1991.366,3742.32l-10.756-5.905-4.658,31.794,10.879,5.972c3.03,1.677,5.92.07,6.455-3.583l2.595-18.615C-1986.315,3748.33-1988.337,3744-1991.366,3742.32Z" transform="translate(2023.383 -3728.552)" fill-rule="evenodd" opacity="0.5" fill="url(#linear-gradient-10)" style="mix-blend-mode: multiply;isolation: isolate"/>
          <g id="Grupo_68277" data-name="Grupo 68277">
            <path id="Trazado_150951" data-name="Trazado 150951" d="M-2014.709,3736.384l-3.21,19.8.5.061,1.365-.53a4.454,4.454,0,0,0,2.5-3.663l2.377-17.049a.087.087,0,0,0,0-.015,9.385,9.385,0,0,0-1.566-6.357,7.4,7.4,0,0,0-2.571-2.48l-20.966-11.51a4,4,0,0,0-3.4-.38l-1.2.471c-.606.227-.793.409-.79.447C-2041.105,3720.476-2013.912,3730.953-2014.709,3736.384Z" transform="translate(2046.015 -3714.038)" fill="#273087" fill-rule="evenodd"/>
            <path id="Trazado_150952" data-name="Trazado 150952" d="M-2024.7,3727.689l-20.965-11.51a3.962,3.962,0,0,0-3.4-.381,4.357,4.357,0,0,0-2.5,3.666l-2.377,17.05a9.23,9.23,0,0,0,4.128,8.847l20.965,11.51c2.775,1.537,5.423.064,5.913-3.281l2.375-17.052A9.236,9.236,0,0,0-2024.7,3727.689Z" transform="translate(2054.027 -3715.032)" fill="#18b6fe" fill-rule="evenodd"/>
            <path id="Trazado_150953" data-name="Trazado 150953" d="M-2026.339,3754.94l-.491,3.295,1.485.825a15.146,15.146,0,0,0,1.667.853,1.03,1.03,0,0,0,.981.011,1.22,1.22,0,0,0,.5-.923,2.42,2.42,0,0,0-.121-1.243,2.028,2.028,0,0,0-.775-.967c-.222-.146-.866-.528-1.944-1.127l-1.3-.724Zm-11.659.284,3.083,1.713-.793-6.158-2.29,4.445Zm1.6-8.461,2.416,1.343,2.381,16.8-2.447-1.358-.5-3.8-4.515-2.51-1.41,2.744-2.417-1.344,6.491-11.872Zm13.24,19.52a1.591,1.591,0,0,0,.494-1.054,2.648,2.648,0,0,0-.079-1.22,2.76,2.76,0,0,0-.6-1.05,9.143,9.143,0,0,0-2-1.344l-1.839-1.022-.573,3.85,2.116,1.176a8.587,8.587,0,0,0,1.578.77.917.917,0,0,0,.9-.106Zm2.6-2.059a5.3,5.3,0,0,1,.216,2.448,3.971,3.971,0,0,1-.638,1.712,2.13,2.13,0,0,1-1.184.923,2.341,2.341,0,0,1-1.641-.166c-.379-.161-1.293-.621-2.742-1.427l-3.844-2.135,2.128-14.3,4.51,2.506a15.609,15.609,0,0,1,1.965,1.246,4.732,4.732,0,0,1,1.1,1.252,6.246,6.246,0,0,1,.675,1.681,4.446,4.446,0,0,1,.109,1.845,2.943,2.943,0,0,1-.705,1.6,1.7,1.7,0,0,1-1.336.612A5.56,5.56,0,0,1-2020.562,3764.225Z" transform="translate(2046.805 -3735.264)" fill="#fff" fill-rule="evenodd"/>
          </g>
        </g>
        <g id="Grupo_68281" data-name="Grupo 68281" transform="translate(68.447 69.432)">
          <path id="Trazado_150954" data-name="Trazado 150954" d="M-1858.611,3786.634a15.251,15.251,0,0,1-4.967-13.758c.974-4.634,4.777-5.99,8.495-3.025a15.256,15.256,0,0,1,4.966,13.758C-1851.091,3788.245-1854.9,3789.6-1858.611,3786.634Z" transform="translate(1864.697 -3768.28)" fill-rule="evenodd" opacity="0.5" fill="url(#linear-gradient-11)" style="mix-blend-mode: multiply;isolation: isolate"/>
          <g id="Grupo_68280" data-name="Grupo 68280" transform="translate(0 0.112)">
            <path id="Trazado_150955" data-name="Trazado 150955" d="M-1861.9,3769.763a5.968,5.968,0,0,1,3.323-1.159,5.284,5.284,0,0,1,3.574,1.4,13.932,13.932,0,0,1,4.305,12.327,5.942,5.942,0,0,1-1.334,2.9,7.3,7.3,0,0,1-3.363,1.5C-1860.643,3787.463-1863.885,3771.835-1861.9,3769.763Z" transform="translate(1863.841 -3768.599)" fill="#273087" fill-rule="evenodd"/>
            <g id="Grupo_68279" data-name="Grupo 68279" transform="translate(0 0.324)">
              <path id="Trazado_150956" data-name="Trazado 150956" d="M-1861.835,3785.966a13.924,13.924,0,0,1-4.305-12.327c.844-4.152,4.14-5.368,7.363-2.711a13.931,13.931,0,0,1,4.306,12.327C-1855.316,3787.409-1858.614,3788.62-1861.835,3785.966Z" transform="translate(1866.339 -3769.52)" fill="#b2fbff" fill-rule="evenodd"/>
              <path id="Trazado_150957" data-name="Trazado 150957" d="M-1854.52,3787.473l.876.628-6.34,6.082-2.382-6.263,1.169.67,1.559,2.218Z" transform="translate(1863.762 -3781.164)" fill="#fff" fill-rule="evenodd"/>
            </g>
          </g>
        </g>
        <g id="Grupo_68282" data-name="Grupo 68282" transform="translate(17.64 95.941)">
          <path id="Trazado_150958" data-name="Trazado 150958" d="M-1993.736,3849.249l-7.161-4.031a4.471,4.471,0,0,0-3.837-.431,4.92,4.92,0,0,0-2.826,4.136l-.947,6.673c-.553,3.774,1.528,8.246,4.657,9.98l7.161,4.032c3.131,1.734,6.117.073,6.671-3.7l.946-6.673C-1988.518,3855.459-1990.607,3850.983-1993.736,3849.249Z" transform="translate(2009.412 -3844.243)" fill-rule="evenodd" opacity="0.5" fill="url(#linear-gradient-12)" style="mix-blend-mode: multiply;isolation: isolate"/>
          <path id="Trazado_150959" data-name="Trazado 150959" d="M-1990.588,3858.124l-1.673,8.666.5.061,1.366-.53a4.455,4.455,0,0,0,2.5-3.663l.839-5.913a.106.106,0,0,0,0-.013,9.387,9.387,0,0,0-1.566-6.358,7.393,7.393,0,0,0-2.572-2.48l-6.349-3.573a4,4,0,0,0-3.4-.381l-1.2.471c-.605.228-.793.41-.789.447C-2002.367,3850.152-1989.791,3852.692-1990.588,3858.124Z" transform="translate(2005.74 -3843.713)" fill="#273087" fill-rule="evenodd"/>
          <path id="Trazado_150960" data-name="Trazado 150960" d="M-1997.744,3849.427l-6.348-3.573a3.963,3.963,0,0,0-3.4-.381,4.361,4.361,0,0,0-2.5,3.667l-.84,5.914a9.228,9.228,0,0,0,4.129,8.847l6.348,3.573c2.774,1.538,5.423.065,5.913-3.28l.839-5.915A9.24,9.24,0,0,0-1997.744,3849.427Z" transform="translate(2010.917 -3844.706)" fill="#7ff9ff" fill-rule="evenodd"/>
          <path id="Trazado_150961" data-name="Trazado 150961" d="M-1993.906,3866.043c-.123.837-.779,1.217-1.471.833a2.312,2.312,0,0,1-1.038-2.225.953.953,0,0,1,1.481-.8,2.285,2.285,0,0,1,1.028,2.2Zm-3.8,7.445a.955.955,0,0,1,1.483-.81,2.286,2.286,0,0,1,1.027,2.2c-.122.837-.779,1.217-1.472.833a2.313,2.313,0,0,1-1.037-2.224Zm-4.33-7.167a.958.958,0,0,1-1.482.807,2.3,2.3,0,0,1-1.028-2.2c.123-.838.783-1.215,1.472-.833a2.33,2.33,0,0,1,1.038,2.223Zm7.262-3.542a1.632,1.632,0,0,0-2.521,1.383v.105l-4.111.648a3.479,3.479,0,0,0-1.513-1.868c-1.18-.654-2.295-.029-2.5,1.4a3.914,3.914,0,0,0,1.75,3.749,1.538,1.538,0,0,0,1.794-.051l3.316,4.781-.025.076a3.927,3.927,0,0,0,1.767,3.759,1.627,1.627,0,0,0,2.5-1.393,3.943,3.943,0,0,0-1.749-3.755,1.551,1.551,0,0,0-2.118.352l-3.141-4.577a1.869,1.869,0,0,0,.16-.582,2.535,2.535,0,0,0,.024-.678l3.909-.668a3.793,3.793,0,0,0,1.7,2.469,1.63,1.63,0,0,0,2.5-1.4A3.916,3.916,0,0,0-1994.777,3862.78Z" transform="translate(2007.378 -3855.91)" fill="#fff" fill-rule="evenodd"/>
        </g>
        <g id="Grupo_68285" data-name="Grupo 68285" transform="translate(38.346 76.938)">
          <path id="Trazado_150962" data-name="Trazado 150962" d="M-1894.809,3817.416l-46.213-25.617a4.1,4.1,0,0,0-3.515-.394,4.508,4.508,0,0,0-2.588,3.79l-4.789,33.955c-.506,3.459,1.4,7.554,4.266,9.142l43.086,23.883,3.779-1.156Z" transform="translate(1951.997 -3790.632)" fill-rule="evenodd" opacity="0.5" fill="url(#linear-gradient-13)" style="mix-blend-mode: multiply;isolation: isolate"/>
          <g id="Grupo_68284" data-name="Grupo 68284" transform="translate(2.319)">
            <path id="Trazado_150963" data-name="Trazado 150963" d="M-1865.9,3830.806l-5.469,35.611.5.061,1.365-.531a4.454,4.454,0,0,0,2.5-3.662l4.635-32.859a.116.116,0,0,0,0-.015,9.385,9.385,0,0,0-1.566-6.357,7.393,7.393,0,0,0-2.572-2.48l-54.718-30.331a4,4,0,0,0-3.4-.38l-1.2.469c-.606.227-.793.41-.789.448C-1926.047,3796.076-1865.1,3825.374-1865.9,3830.806Z" transform="translate(1933.215 -3789.639)" fill="#273087" fill-rule="evenodd"/>
            <path id="Trazado_150964" data-name="Trazado 150964" d="M-1880.06,3822.109l-54.717-30.33a3.972,3.972,0,0,0-3.4-.381,4.362,4.362,0,0,0-2.5,3.668l-4.635,32.858a9.229,9.229,0,0,0,4.128,8.847l54.718,30.331c2.774,1.537,5.422.065,5.913-3.281l4.635-32.86A9.242,9.242,0,0,0-1880.06,3822.109Z" transform="translate(1945.397 -3790.632)" fill="#856de9" fill-rule="evenodd"/>
            <g id="Grupo_68283" data-name="Grupo 68283" transform="translate(2.556 20.3)">
              <path id="Trazado_150965" data-name="Trazado 150965" d="M-1873.894,3878.706l-56.163-31.156a.946.946,0,0,0-.813-.09,1.041,1.041,0,0,0-.6.876l-.208,1.261a2.207,2.207,0,0,0,.987,2.115l56.163,31.156a.918.918,0,0,0,1.414-.785l.208-1.261A2.208,2.208,0,0,0-1873.894,3878.706Z" transform="translate(1933.955 -3847.405)" fill="#f2f4ff" fill-rule="evenodd" opacity="0.5"/>
              <path id="Trazado_150966" data-name="Trazado 150966" d="M-1877.108,3900.665l-56.163-31.156a.946.946,0,0,0-.813-.09,1.039,1.039,0,0,0-.6.875l-.208,1.262a2.208,2.208,0,0,0,.987,2.115l56.163,31.155a.918.918,0,0,0,1.413-.785l.208-1.26A2.207,2.207,0,0,0-1877.108,3900.665Z" transform="translate(1936.039 -3861.647)" fill="#f2f4ff" fill-rule="evenodd" opacity="0.5"/>
              <path id="Trazado_150967" data-name="Trazado 150967" d="M-1906.8,3907.818l-29.689-16.351a.946.946,0,0,0-.813-.091,1.042,1.042,0,0,0-.6.876l-.208,1.261a2.206,2.206,0,0,0,.987,2.115l29.689,16.35a.918.918,0,0,0,1.413-.785l.209-1.261A2.206,2.206,0,0,0-1906.8,3907.818Z" transform="translate(1938.123 -3875.888)" fill="#f2f4ff" fill-rule="evenodd" opacity="0.5"/>
            </g>
            <path id="Trazado_150968" data-name="Trazado 150968" d="M-1855.231,3847.162a1.4,1.4,0,0,0-2.149,1.2,3.356,3.356,0,0,0,1.5,3.214,1.394,1.394,0,0,0,2.148-1.19,3.357,3.357,0,0,0-1.5-3.219Zm2.467,3.754c-.273,1.864-1.744,2.681-3.284,1.826a5.13,5.13,0,0,1-2.3-4.921c.273-1.863,1.743-2.681,3.285-1.827a5.133,5.133,0,0,1,2.3,4.921Zm2.362.218,1,.557a9.876,9.876,0,0,1-.092,1.041,8.623,8.623,0,0,1-.2.971l-1-.558a4.547,4.547,0,0,1-1.254,2.075l.586,1.254a4.151,4.151,0,0,1-1.387.768l-.582-1.248a3.867,3.867,0,0,1-2.274-.112l-.177,1.209a6.26,6.26,0,0,1-.845-.389,7.311,7.311,0,0,1-.823-.536l.177-1.209a8.5,8.5,0,0,1-1.962-2.236l-.833.465a12.178,12.178,0,0,1-.97-2.075l.838-.466a9.325,9.325,0,0,1-.5-3.048l-1-.557a9.811,9.811,0,0,1,.09-1.034,8.517,8.517,0,0,1,.2-.978l1,.558a4.529,4.529,0,0,1,1.253-2.075l-.587-1.25a4,4,0,0,1,1.388-.771l.582,1.247a3.824,3.824,0,0,1,2.273.118l.178-1.214a6.2,6.2,0,0,1,.844.393,7.37,7.37,0,0,1,.825.531l-.178,1.215a8.4,8.4,0,0,1,1.963,2.23l.833-.464a12.239,12.239,0,0,1,.97,2.079l-.837.461A9.306,9.306,0,0,1-1850.4,3851.134Z" transform="translate(1891.12 -3823.269)" fill="#f2f4ff" fill-rule="evenodd" opacity="0.5"/>
          </g>
        </g>
        <g id="Grupo_68289" data-name="Grupo 68289">
          <path id="Trazado_150969" data-name="Trazado 150969" d="M-1949.1,3624.531l-35.9-19.9-6,39.538,36.011,19.961c2.862,1.586,5.593.068,6.1-3.384l4.052-27.088C-1944.328,3630.209-1946.238,3626.117-1949.1,3624.531Z" transform="translate(2015.638 -3592.709)" fill-rule="evenodd" opacity="0.5" fill="url(#linear-gradient-14)" style="mix-blend-mode: multiply;isolation: isolate"/>
          <g id="Grupo_68288" data-name="Grupo 68288">
            <path id="Trazado_150970" data-name="Trazado 150970" d="M-1985.01,3611.868l-4.276,26.7.5.06,1.365-.531a4.452,4.452,0,0,0,2.5-3.662l3.443-23.95a.069.069,0,0,0,0-.015,9.389,9.389,0,0,0-1.566-6.357,7.4,7.4,0,0,0-2.572-2.48l-54.718-30.33a4,4,0,0,0-3.4-.379l-1.2.47c-.605.228-.793.41-.789.447C-2045.157,3577.138-1984.213,3606.437-1985.01,3611.868Z" transform="translate(2051.134 -3570.701)" fill="#273087" fill-rule="evenodd"/>
            <path id="Trazado_150971" data-name="Trazado 150971" d="M-1996.969,3603.171l-54.718-30.33a3.962,3.962,0,0,0-3.4-.381,4.361,4.361,0,0,0-2.505,3.667l-3.443,23.95a9.233,9.233,0,0,0,4.128,8.848l54.718,30.33c2.774,1.537,5.423.065,5.913-3.281l3.443-23.952A9.237,9.237,0,0,0-1996.969,3603.171Z" transform="translate(2061.115 -3571.694)" fill="#fff" fill-rule="evenodd"/>
            <g id="Grupo_68286" data-name="Grupo 68286" transform="translate(4.337 12.236)">
              <path id="Trazado_150972" data-name="Trazado 150972" d="M-2040.013,3606.617c-4.066-2.55-7.935-.5-8.646,4.57s2,11.253,6.072,13.8,7.935.5,8.646-4.575S-2035.95,3609.165-2040.013,3606.617Z" transform="translate(2048.772 -3605.52)" fill="#18b6fe" fill-rule="evenodd"/>
              <path id="Trazado_150973" data-name="Trazado 150973" d="M-2036.821,3615.111l-1.252,9.18,7.831.648Z" transform="translate(2041.833 -3611.74)" fill="#fff" fill-rule="evenodd"/>
            </g>
            <g id="Grupo_68287" data-name="Grupo 68287" transform="translate(20.241 16.034)">
              <path id="Trazado_150974" data-name="Trazado 150974" d="M-1957.583,3659.563l-38.655-21.6a.874.874,0,0,0-.75-.084.963.963,0,0,0-.552.809l-.192,1.164a2.037,2.037,0,0,0,.911,1.951l38.655,21.6a.848.848,0,0,0,1.3-.725l.192-1.164A2.036,2.036,0,0,0-1957.583,3659.563Z" transform="translate(1999.777 -3630.273)" fill="#6d6afd" fill-rule="evenodd" opacity="0.5"/>
              <path id="Trazado_150975" data-name="Trazado 150975" d="M-1960.219,3679.909l-38.655-21.6a.876.876,0,0,0-.75-.083.962.962,0,0,0-.552.809l-.193,1.164a2.036,2.036,0,0,0,.911,1.951l38.655,21.6a.848.848,0,0,0,1.3-.724l.192-1.164A2.036,2.036,0,0,0-1960.219,3679.909Z" transform="translate(2001.487 -3643.469)" fill="#6d6afd" fill-rule="evenodd" opacity="0.5"/>
              <path id="Trazado_150976" data-name="Trazado 150976" d="M-1963.348,3700.172l-38.656-21.6a.874.874,0,0,0-.751-.083.962.962,0,0,0-.552.809l-.192,1.164a2.037,2.037,0,0,0,.91,1.952l38.656,21.6a.847.847,0,0,0,1.3-.725l.192-1.163A2.038,2.038,0,0,0-1963.348,3700.172Z" transform="translate(2003.516 -3656.611)" fill="#6d6afd" fill-rule="evenodd" opacity="0.5"/>
              <path id="Trazado_150977" data-name="Trazado 150977" d="M-1954.617,3638.062l-38.655-21.6a.877.877,0,0,0-.751-.084.962.962,0,0,0-.553.809l-.192,1.164a2.034,2.034,0,0,0,.91,1.952l38.656,21.6a.847.847,0,0,0,1.3-.724l.192-1.164A2.037,2.037,0,0,0-1954.617,3638.062Z" transform="translate(1997.853 -3616.328)" fill="#44a7f7" fill-rule="evenodd" opacity="0.5"/>
            </g>
          </g>
        </g>
      </g>
    </g>
    <g id="Grupo_68303" data-name="Grupo 68303" transform="translate(124.757 109.711)">
      <path id="Trazado_150978" data-name="Trazado 150978" d="M-1722.109,4129.669l-25.745-14.663c-2.807-1.283-6.824-2.3-9.683-.813-2.606,1.356-6.9,4.129-8.8,5.213-1.442.821-6.445,3.819-3.329,5.514,9.168,4.985,18.241,10.592,27.551,15.655a13.054,13.054,0,0,0,7.041,1.08,18.659,18.659,0,0,0,7.625-2.271q2.321-1.35,4.566-2.658c2.019-1.175,3.09-2.566,3.2-3.852C-1719.579,4131.62-1720.386,4130.456-1722.109,4129.669Z" transform="translate(1785.904 -4019.17)" fill="#53c9ff" fill-rule="evenodd" opacity="0.5"/>
      <g id="Grupo_68302" data-name="Grupo 68302">
        <path id="Trazado_150979" data-name="Trazado 150979" d="M-1691.157,3909.583c.345-1.5.827-3.218,1.269-4.974.885-3.519,1.608-7.178.725-9.444a4.784,4.784,0,0,0-1.782-2.034c-1.935-1.554-1.644,2.618-4.678,2.259-.483.646-.333,2.1-.174,3.491C-1695.224,3903.9-1692.816,3911.134-1691.157,3909.583Z" transform="translate(1737.446 -3876.045)" fill="#0960ac" fill-rule="evenodd" opacity="0.35" style="mix-blend-mode: multiply;isolation: isolate"/>
        <g id="Grupo_68293" data-name="Grupo 68293" transform="translate(23.165 15.825)">
          <g id="Grupo_68292" data-name="Grupo 68292">
            <path id="Trazado_150980" data-name="Trazado 150980" d="M-1737.228,3893.247c.344-1.061,1.575-.5,1.924-.092a5.9,5.9,0,0,0,2.146,1.643,3.244,3.244,0,0,1,2.567,2.436c.149.5-.254.472-.752,1.192-1.582-1.235-3.367-1.293-3.511-1.51C-1736.278,3894.776-1735.366,3895.02-1737.228,3893.247Z" transform="translate(1741.053 -3891.775)" fill="#ffa698" fill-rule="evenodd"/>
            <path id="Trazado_150981" data-name="Trazado 150981" d="M-1739.478,3898.754l1.656,1.921,1.925-3.38c-.276-.392-.787-.452-1.012-.887a7.635,7.635,0,0,0-.392-.84c-.871-1.569-1.47-1.823-4.563-2.246a2.494,2.494,0,0,1-1.567-.695l-2.11-1.885c-.691-.513-1.26-.653-1.529-.5a5.021,5.021,0,0,0-1.03,2.671v0c-.06.208.069.509.378.849.919,1.006,1.7,1.9,2.512,2.887,1.4,1.7,1.006,1.055,3.376,1.374A4.551,4.551,0,0,1-1739.478,3898.754Z" transform="translate(1748.113 -3890.185)" fill="#ffa698" fill-rule="evenodd"/>
            <path id="Trazado_150982" data-name="Trazado 150982" d="M-1743.959,3893.987a9,9,0,0,1,.815-2.269c.377-.105.885.521,1.366,1,.72.709,1.943,2.232,2.927,2.447,2.336.512,3.4,1.285,4.491,4.539l-.6-.382c-1.266-3.873-3.49-.933-5.79-2.376C-1742.146,3896.063-1744.023,3894.288-1743.959,3893.987Z" transform="translate(1745.42 -3891.172)" fill="#ff9483" fill-rule="evenodd"/>
          </g>
          <path id="Trazado_150983" data-name="Trazado 150983" d="M-1717.648,3909.1a8.551,8.551,0,0,1-1.677-.63c-.378-.3-.924-.744-1.133-.893a6.312,6.312,0,0,0-2.481,2.9c.379.423.756.876,1.13,1.348.278.352.42,1.306.7,1.676,1.713,2.294,5.544,5.12,7.664,7.139,2.534,2.411,5.5,2.625,6.778,1.125a3.265,3.265,0,0,0,.233-3.834c-.55-1.134-2.057-2.287-3.367-3.383A46.7,46.7,0,0,0-1717.648,3909.1Z" transform="translate(1731.785 -3901.468)" fill-rule="evenodd" fill="url(#linear-gradient-15)"/>
        </g>
        <path id="Trazado_150984" data-name="Trazado 150984" d="M-1688.666,3912.733c-.926,1.039-2.64,1.17-4.386-.412-.113-.076-.226-.155-.339-.241l-.134-.335a2.578,2.578,0,0,1-.384-.988c-.22-.573-.445-1.177-.649-1.753a60.52,60.52,0,0,1-2.822-11.093c-.624-5.318,3.423-7.471,6.213-6.033,2.4,1.235,2.52,5.4,2.849,7.673C-1687.845,3902.8-1686.423,3910.216-1688.666,3912.733Z" transform="translate(1738.414 -3875.176)" fill="#0794d4" fill-rule="evenodd"/>
        <g id="Grupo_68294" data-name="Grupo 68294" transform="translate(38.352 105.155)">
          <path id="Trazado_150985" data-name="Trazado 150985" d="M-1691,4154.682c-.547-.013-2.394-1.748-4.142-.872-2.1,1.053-6.088.119-8.1.6-.359.085-1.059-.179-1.2.068-.434.771-.854,1.923.213,2.678a18.243,18.243,0,0,0,3.567,1.681,30.014,30.014,0,0,0,4.512,1.276,5.856,5.856,0,0,1,2.72.758,3.948,3.948,0,0,0,2.074.5,3.493,3.493,0,0,0,2.646-1.846,7.9,7.9,0,0,0-.021-2.928,14.847,14.847,0,0,0-.936-2.556Z" transform="translate(1704.895 -4150.338)" fill="#fff" fill-rule="evenodd"/>
          <path id="Trazado_150986" data-name="Trazado 150986" d="M-1677.565,4145c.665,1.6.461,4.064,2.035,4.921a2.342,2.342,0,0,0,3.419-1.058c.4-.912-.131-2.472-.014-4.473Z" transform="translate(1687.169 -4144.386)" fill="#ffa495" fill-rule="evenodd"/>
          <path id="Trazado_150987" data-name="Trazado 150987" d="M-1695.371,4150.643c-1.206.35-4.537.117-6.643.288-.905.072-1.717.065-2.14.887-.389.756-.185,1.4.7,2.027a14.918,14.918,0,0,0,3.218,1.579,30.382,30.382,0,0,0,4.512,1.277,5.848,5.848,0,0,1,2.719.756,3.954,3.954,0,0,0,2.074.5,3.653,3.653,0,0,0,2.645-1.963,7.273,7.273,0,0,0-.021-2.812,5.161,5.161,0,0,0-.154-.6c-.166-1.584-.689-2.227-1.183-1.954a3.043,3.043,0,0,0-1.187,1.589,1.555,1.555,0,0,1-.917.875,1.813,1.813,0,0,1-2.022-.89,5.711,5.711,0,0,1-.554-1.6c0-.055,0-.108,0-.162-.158-1.385-.833-1.265-.73-.972A1.191,1.191,0,0,1-1695.371,4150.643Z" transform="translate(1704.537 -4147.562)" fill="#273087" fill-rule="evenodd"/>
          <path id="Trazado_150988" data-name="Trazado 150988" d="M-1703.911,4155.488c.016.537-.8.588-.567,1.528-.395-.387.156-1.5.4-1.666C-1703.978,4155.282-1703.893,4155.253-1703.911,4155.488Z" transform="translate(1704.714 -4151.466)" fill="#fff" fill-rule="evenodd"/>
        </g>
        <g id="Grupo_68295" data-name="Grupo 68295" transform="translate(25.359 98.662)">
          <path id="Trazado_150989" data-name="Trazado 150989" d="M-1728.7,4132.147c-.51-.2-1.647-2.464-3.59-2.244a9.867,9.867,0,0,1-3.324-.479c-2.04-.58-4.882-2.4-5.368-2.105a1.908,1.908,0,0,0-.4,2.912,14.945,14.945,0,0,0,2.478,2.589,26.23,26.23,0,0,0,3.5,2.661c1.122.622,1.494.565,2.293,1.646a3.739,3.739,0,0,0,1.776,1.123,4.221,4.221,0,0,0,3.47-1.3c.388-1.254,1.06-2.443.629-4.326Z" transform="translate(1741.87 -4126.803)" fill="#fff" fill-rule="evenodd"/>
          <path id="Trazado_150990" data-name="Trazado 150990" d="M-1712.885,4125.91c.031,1.728-1.066,3.947.083,5.324a2.343,2.343,0,0,0,3.569.274c.708-.7.786-2.348,1.633-4.166Z" transform="translate(1723.357 -4125.91)" fill="#ffa495" fill-rule="evenodd"/>
          <path id="Trazado_150991" data-name="Trazado 150991" d="M-1734.689,4128.538c-.116-.029-.233-.062-.349-.095-2.04-.58-4.766-1.986-5.251-1.688a1.517,1.517,0,0,0-.515,2.495,14.89,14.89,0,0,0,2.478,2.588,26.17,26.17,0,0,0,3.5,2.662c1.121.621,1.494.565,2.293,1.644a3.744,3.744,0,0,0,1.776,1.125,4.333,4.333,0,0,0,3.52-1.309,10.419,10.419,0,0,0,.716-3c.169-1.537.064-2.319-.6-2.3a3.712,3.712,0,0,0-2.27,1.013c-1.106.688-1.846-.2-2.027-1.306a6.442,6.442,0,0,1,.1-1.457c.017-.051.036-.1.057-.151.362-1.346-.309-1.482-.321-1.171a1.157,1.157,0,0,1-1.026,1.176A9.1,9.1,0,0,1-1734.689,4128.538Z" transform="translate(1741.467 -4126.433)" fill="#273087" fill-rule="evenodd"/>
          <path id="Trazado_150992" data-name="Trazado 150992" d="M-1740.367,4126.945c-.216.491-.979.182-1.17,1.133-.189-.519.786-1.283,1.079-1.332C-1740.339,4126.729-1740.25,4126.739-1740.367,4126.945Z" transform="translate(1741.67 -4126.449)" fill="#fff" fill-rule="evenodd"/>
        </g>
        <g id="Grupo_68296" data-name="Grupo 68296" transform="translate(34.627 46.726)">
          <path id="Trazado_150993" data-name="Trazado 150993" d="M-1713.115,3983.392c-.447,5.006-2.956,20.995-2.258,25.384,1.05,6.6.75,14.575.738,21.58.177,2.944,4.224,4.483,5.4,2.611.946-6.259,2.292-11.744,2.839-15.223.613-3.9.411-8.627-.578-11.188a133.163,133.163,0,0,1,3.905-15.011c.575-1.8,3.832-7.633.46-13.428Z" transform="translate(1715.494 -3978.118)" fill-rule="evenodd" fill="url(#linear-gradient-16)"/>
          <path id="Trazado_150994" data-name="Trazado 150994" d="M-1713.236,4121.423c0,.518.016,1.31.016,1.821.177,2.943,4.275,4.54,5.453,2.669.07-.461.171-.919.244-1.371C-1709.107,4126.25-1712.212,4124.032-1713.236,4121.423Z" transform="translate(1714.03 -4071.064)" fill="#4c57b7" fill-rule="evenodd"/>
          <path id="Trazado_150995" data-name="Trazado 150995" d="M-1715.455,4018.013c1.319,6.619,5.052,15.462,7.09,22.116,1.06-5.7,3.714-15.413,1.419-21.356.231-1.593.949-4.62,1.819-7.853-1.766-3.349-.078-6.021-.912-10.737-4.676-.814,2.381-6.523-7.514-.51C-1714.439,4006.775-1715.27,4011.241-1715.455,4018.013Z" transform="translate(1715.469 -3990.333)" fill="#060921" fill-rule="evenodd" opacity="0.3" style="mix-blend-mode: multiply;isolation: isolate"/>
        </g>
        <g id="Grupo_68297" data-name="Grupo 68297" transform="translate(29.461 49.76)">
          <path id="Trazado_150996" data-name="Trazado 150996" d="M-1722.326,4017.677c2.7,6.106,7.675,18.085,10.322,25.581,1.369,1.99,6.253,1.784,6.243-.073-1.078-6.265-2.346-15.931-4.595-21.426a49.211,49.211,0,0,0-4.144-6.93c-.712-2.766-1.6-10.235-2.292-14.277.618-3.346,3.315-8.937-1.868-13.8-2.091,1.488-8.557,2.418-11.489.762C-1730.623,4000.727-1727.38,4006.236-1722.326,4017.677Z" transform="translate(1730.195 -3986.753)" fill-rule="evenodd" fill="url(#linear-gradient-17)"/>
          <path id="Trazado_150997" data-name="Trazado 150997" d="M-1679.992,4143.827c.118.328.353.989.463,1.3,1.41,2.05,6.437,1.835,6.427-.076-.053-.311-.107-.627-.161-.951C-1674.461,4145.324-1678.086,4145.34-1679.992,4143.827Z" transform="translate(1697.634 -4088.629)" fill="#4c57b7" fill-rule="evenodd"/>
        </g>
        <path id="Trazado_150998" data-name="Trazado 150998" d="M-1715.873,3909.008c-.435,3.924.745,7.784-.457,11.367-.054.371-.088,1.823-.151,2.217-.791,4.642-10.609,9.338-18.8,4.886-.045-.576.008-1.178-.037-2.244a12.687,12.687,0,0,0-.276-2.669c.012-2.526.8-3.817.421-6.628-.767-5.717-3.935-11.213-2.182-15.712a4.787,4.787,0,0,1,1.781-2.033c1.935-1.554,11.943-6.65,14.977-7.011C-1711.787,3890.039-1715.4,3904.75-1715.873,3909.008Z" transform="translate(1764.637 -3874.965)" fill="#18b6fe" fill-rule="evenodd"/>
        <g id="Grupo_68298" data-name="Grupo 68298" transform="translate(31.029)">
          <path id="Trazado_150999" data-name="Trazado 150999" d="M-1725.014,3863.7c.557.276,3.384-.124,3.3.128-.041,1.265-.418,2.033-.54,3.766,3.108-.435,7.186-.884,7.349-3.268-.012-.191-.024-.382-.032-.569,0-.021-.006-.043-.01-.065h.008a4.219,4.219,0,0,1,.25-2.042c.657-1.066,2.01-2.25,2.49-3.864.766-2.579.487-5.444-1.917-7.353-4.391-3.487-10.005-1.006-11.428,4.093-.278,1,.507,1.536.48,2.387-.005.166-.226.34-.405.71C-1725.715,3858.129-1725.7,3863.359-1725.014,3863.7Z" transform="translate(1725.656 -3847.521)" fill="#e7a376" fill-rule="evenodd"/>
          <path id="Trazado_151000" data-name="Trazado 151000" d="M-1724.969,3863.668c.557.276,3.355-.1,3.272.156-.041,1.265-.417,2.033-.539,3.766,1.805.443,6.674-.206,7.4-2.945a16.836,16.836,0,0,1,.163-3c.658-1.066,2.01-2.25,2.49-3.864.766-2.579.487-5.444-1.917-7.353-4.391-3.487-10.006-1.006-11.428,4.093-.278,1,.508,1.536.48,2.387-.005.166-.226.34-.4.71C-1725.7,3858.129-1725.651,3863.328-1724.969,3863.668Z" transform="translate(1725.64 -3847.521)" fill-rule="evenodd" fill="url(#linear-gradient-18)"/>
          <path id="Trazado_151001" data-name="Trazado 151001" d="M-1724.879,3863.7a4.518,4.518,0,0,0,2.426-.294,4.244,4.244,0,0,0,1.076-.748c.376-.152,1.213-1.34-.083-3.23-1.263-1.843,6.387,2.875,6.792,2.22.658-1.066,2.01-2.25,2.49-3.864.765-2.579.487-5.444-1.917-7.353-4.391-3.487-10.005-1.006-11.427,4.093-.278,1,.507,1.536.479,2.387-.005.166-.226.34-.4.71C-1725.7,3858.129-1725.55,3863.336-1724.879,3863.7Z" transform="translate(1725.636 -3847.521)" fill-rule="evenodd" fill="url(#linear-gradient-19)"/>
          <path id="Trazado_151002" data-name="Trazado 151002" d="M-1714.626,3878.657c1.573-1.466,3.092,3.2.56,3.149A2.175,2.175,0,0,0-1714.626,3878.657Z" transform="translate(1718.53 -3866.698)" fill="#ffa698" fill-rule="evenodd"/>
          <path id="Trazado_151003" data-name="Trazado 151003" d="M-1714.8,3879.59c-.236-.652-.037-.89.25-.82a1.854,1.854,0,0,1,1,1.207c.375,1.09-.163,2.468-1.216,1.929.905.052.821-1.039.549-1.712C-1714.4,3879.736-1714.687,3879.412-1714.8,3879.59Z" transform="translate(1718.708 -3866.949)" fill="#ffb49c" fill-rule="evenodd"/>
          <path id="Trazado_151004" data-name="Trazado 151004" d="M-1713.953,3881.963c-.253.473-.341.752-.259.914.057.113.232.24.517-.035A1.628,1.628,0,0,0-1713.953,3881.963Z" transform="translate(1718.281 -3869.027)" fill="#ffa698" fill-rule="evenodd"/>
          <path id="Trazado_151005" data-name="Trazado 151005" d="M-1723.388,3851.8l-.061-.032a2.691,2.691,0,0,1-.888-4.251c1.724-1.529,6.4-1.37,9.369.158,3.02,1.554,3.76,5.425,2.857,8.466-.6,2.023-2.062,3.08-2.793,4.613a1.836,1.836,0,0,1-1.86.679c-2.094-.434-2.578-2.642-3.836-3.615-.69-.534-1.4-.676-1.659.78-.05.64-.059,1.289-.106,1.878-.073.926.158,1.1-.626,1.415a7.026,7.026,0,0,1-2.466.505c-.2-.077-.183-1.232-.146-2.1.079-.006.082.3.123.291.077-.011.171-.031.282-.042a3.414,3.414,0,0,0-.125-1.048,1.666,1.666,0,0,0-.345-.787,1.313,1.313,0,0,1-.041-.676,2.127,2.127,0,0,1,.894,1.263,6.364,6.364,0,0,1,.233,1.146,2.178,2.178,0,0,0,1.072-.351,4.075,4.075,0,0,0,.678-2.148,4.017,4.017,0,0,0-.952-3.319c-.253-.36-.266-1.1.359-2.737A.958.958,0,0,0-1723.388,3851.8Z" transform="translate(1725.735 -3845.993)" fill="#562e65" fill-rule="evenodd"/>
          <path id="Trazado_151006" data-name="Trazado 151006" d="M-1723.362,3849.945c.651.816,3.449-1.072,7.366-.351-.839-2.586-1.324-3.136-2.5-3.893-1.533-.988-4.115-.585-4.926.775A3.258,3.258,0,0,0-1723.362,3849.945Z" transform="translate(1724.538 -3845.154)" fill-rule="evenodd" fill="url(#linear-gradient-20)"/>
        </g>
        <path id="Trazado_151007" data-name="Trazado 151007" d="M-1712.657,3891.742c.849.262,1.7,1.1,1.548,1.662-.845,3.453-7.261,4.107-11.2,3.276-.047-.01,1.531-2.08,2.285-2.325C-1717.545,3894.6-1713.421,3893.781-1712.657,3891.742Z" transform="translate(1754.54 -3875.371)" fill="#0794d4" fill-rule="evenodd"/>
        <g id="Grupo_68301" data-name="Grupo 68301" transform="translate(0 22.958)">
          <path id="Trazado_151008" data-name="Trazado 151008" d="M-1734.006,3933.67c-.291-6.939-1.557-14.548-1.723-16.976a4.789,4.789,0,0,1,.747-2.6c.41-.838,5.5-.827,6.837,3.138C-1727.6,3927.677-1731.368,3934.452-1734.006,3933.67Z" transform="translate(1763.251 -3912.54)" fill="#0794d4" fill-rule="evenodd" opacity="0.35" style="mix-blend-mode: multiply;isolation: isolate"/>
          <g id="Grupo_68300" data-name="Grupo 68300">
            <g id="Grupo_68299" data-name="Grupo 68299" transform="translate(0 9.137)">
              <path id="Trazado_151009" data-name="Trazado 151009" d="M-1803.681,3941.922l2.235,1.2.582-3.846c-.4-.267-.9-.139-1.264-.465a7.691,7.691,0,0,0-.668-.643c-1.377-1.151-2.027-1.173-5.064-.455a2.493,2.493,0,0,1-1.713-.085l-2.646-1c-.83-.23-1.41-.157-1.6.086a5.017,5.017,0,0,0,0,2.861l0,0c.018.217.248.452.658.656,1.219.609,2.267,1.162,3.383,1.792,1.916,1.08,1.318.623,3.644.069A4.541,4.541,0,0,1-1803.681,3941.922Z" transform="translate(1814.031 -3936.485)" fill="#ffa698" fill-rule="evenodd"/>
              <path id="Trazado_151010" data-name="Trazado 151010" d="M-1809.624,3940.257a5.726,5.726,0,0,1,.05-1.975c.314-.235,1.055.278,1.675.547a2.608,2.608,0,0,0,2.042.165c1.145.828,4.385-.312,7.246,3.144l-.873.306c-.982-.26-3.48.341-6.146-.178C-1807.252,3941.948-1809.575,3940.562-1809.624,3940.257Z" transform="translate(1811.21 -3937.611)" fill="#ff9483" fill-rule="evenodd"/>
              <path id="Trazado_151011" data-name="Trazado 151011" d="M-1805.4,3944.578c-.187-1.1,1.165-1.172,1.663-.971a5.9,5.9,0,0,0,2.662.463,3.244,3.244,0,0,1,3.4.972c.366.378-.007.536-.115,1.405-1.974-.364-3.583.411-3.811.285C-1803.848,3945.494-1802.927,3945.288-1805.4,3944.578Z" transform="translate(1808.443 -3941.047)" fill="#ffa698" fill-rule="evenodd"/>
            </g>
            <path id="Trazado_151012" data-name="Trazado 151012" d="M-1770.218,3924.41c-2.821-.983-6.72-2.177-8.906-2.2a8.564,8.564,0,0,1-1.792.014c-.461-.145-1.129-.362-1.378-.426a6.315,6.315,0,0,0-1.274,3.594c.507.26,1.021.547,1.54.853.387.229.862,1.068,1.252,1.313,2.423,1.526,7.014,2.785,9.718,3.907a8.448,8.448,0,0,0,3.64.955,6.034,6.034,0,0,0,2.252-1.1c.118-.067.238-.137.357-.213l.159-.325a2.549,2.549,0,0,0,.461-.954c.265-.554.536-1.138.785-1.7a60.548,60.548,0,0,0,3.688-10.835c1.041-5.252-2.824-7.716-5.719-6.5-2.486,1.042-2.938,5.188-3.445,7.424C-1769.339,3920.24-1769.841,3922.543-1770.218,3924.41Z" transform="translate(1794.273 -3910.484)" fill="#18b6fe" fill-rule="evenodd"/>
          </g>
        </g>
      </g>
    </g>
    <g id="Grupo_68313" data-name="Grupo 68313" transform="translate(152.412 30.656)">
      <g id="Grupo_68311" data-name="Grupo 68311" transform="translate(0 0)">
        <g id="Grupo_68306" data-name="Grupo 68306" transform="translate(1.363 36.213)">
          <g id="Grupo_68304" data-name="Grupo 68304" transform="translate(7.167 2.894)">
            <path id="Trazado_151013" data-name="Trazado 151013" d="M-1688.334,3770.356l-22.728-13.208,5.277-25.043,0-.007v-.013h0l0-.008v0l0-.006v-.017h0l0-.008v-.009l0-.007h0l0-.009v0l0-.006V3732l0-.01v0l0-.008v-.005l0,0,0-.01h0l0-.01v0l0-.006,0-.008v0l0-.009v0l0-.008,0-.007v0l0-.01h0l0-.009,0-.005,0-.006,0-.009h0l.005-.01v0l0-.008,0-.008v0l.005-.011h0l0-.01,0-.005,0-.005.005-.011h0l.006-.01,0,0,0-.006,0-.009h0l.006-.01v0l.005-.008,0-.007,0,0,.006-.01h0l.006-.009,0,0,0-.006.006-.009h0l.007-.01,0,0,0-.006.008-.01.007-.008v0l.006-.007,0-.006,0,0,.009-.008.008-.008,0,0,.005,0,.007-.008h0l.009-.008,0,0,.007-.005.006-.006,0,0,.009-.008h0l.009-.007,0,0,.005,0,.009-.006h0l.01-.006,0,0,.006,0a.377.377,0,0,1,.339-.015l22.725,13.208C-1683.125,3744.31-1686.148,3762.972-1688.334,3770.356Z" transform="translate(1711.062 -3731.479)" fill="#7ff9ff" fill-rule="evenodd"/>
            <path id="Trazado_151014" data-name="Trazado 151014" d="M-1705.785,3733.263c9.546,10.939,20.932,17.694,19.818,27.188l-2.367,11.063-22.728-13.208Z" transform="translate(1711.062 -3732.636)" fill="#7ff9ff" fill-rule="evenodd"/>
          </g>
          <g id="Grupo_68305" data-name="Grupo 68305" transform="translate(5.229)">
            <path id="Trazado_151015" data-name="Trazado 151015" d="M-1692.226,3737.607l-.514,25.4-23.837-13.759.071-25.179Z" transform="translate(1716.576 -3723.777)" fill="#fff" fill-rule="evenodd"/>
            <path id="Trazado_151016" data-name="Trazado 151016" d="M-1648.675,3762.692l.5-.29-.07,25.18-.5.288Z" transform="translate(1672.582 -3748.64)" fill="#c5dbf1" fill-rule="evenodd"/>
            <path id="Trazado_151017" data-name="Trazado 151017" d="M-1716.374,3723.531l.5-.29,23.834,13.763-.5.289Z" transform="translate(1716.444 -3723.241)" fill="#dce8f8" fill-rule="evenodd"/>
            <path id="Trazado_151018" data-name="Trazado 151018" d="M-1691.857,3762.168l0,1.588-22.063-12.739.005-1.587,22.062,12.738Zm.049-18.257,0,1.588-22.062-12.738,0-1.588,22.059,12.737Zm-.006,2.607-22.06-12.738-.005,1.588,22.06,12.736,0-1.586Zm-.007,2.609-22.062-12.737,0,1.587,22.059,12.737.005-1.587Zm-.007,2.608L-1713.891,3739l0,1.588,22.062,12.737.005-1.588Zm-.008,2.608-22.062-12.739-.005,1.589,22.062,12.737.005-1.587Zm-.007,2.609-22.062-12.738-.005,1.587,22.062,12.738,0-1.587Zm-.007,2.608-22.062-12.738-.005,1.587,22.063,12.738Z" transform="translate(1714.856 -3728.387)" fill="#e7b9ff" fill-rule="evenodd"/>
          </g>
          <path id="Trazado_151019" data-name="Trazado 151019" d="M-1707.711,3758.164l5.418,19.053h0a2.266,2.266,0,0,0,.333.607l-22.726-13.206a.908.908,0,0,1-.335-.606l-5.418-19.054.005,0-1.016-3.572a.925.925,0,0,1,.2-.646c.944.859,5.983,3.943,6.912,4.49,1.556,1.219,1.609,2.725,3.967,5.225a4.067,4.067,0,0,0,1.166.934Z" transform="translate(1731.456 -3734.593)" fill="#b2fbff" fill-rule="evenodd"/>
          <path id="Trazado_151020" data-name="Trazado 151020" d="M-1663.631,3775.809a.648.648,0,0,1,.111-.083c.177-.1.337-.059.39.117l5.367,18.9,5.275-25.044a.9.9,0,0,1,.385-.564.468.468,0,0,1,.11-.047c.217-.057.345.128.284.408l-5.307,25.211a3.774,3.774,0,0,1-.322.987,1.137,1.137,0,0,1-.427.482.371.371,0,0,1-.421.01,1.129,1.129,0,0,1-.308-.589l-5.419-19.055A.832.832,0,0,1-1663.631,3775.809Z" transform="translate(1687.657 -3752.97)" fill="#54dbe2" fill-rule="evenodd"/>
          <path id="Trazado_151021" data-name="Trazado 151021" d="M-1718.5,3750.247l11.463,6.661c-.3-.146-.756.524-.677.843l-11.578-6.727a7.1,7.1,0,0,1-.965-.625c-1.646-1.3-2.422-3.079-3.5-4.521a4.6,4.6,0,0,0-.922-.933c-.286-.156-.437-.237-.386-.215l-6.39-3.76a.929.929,0,0,1,.2-.641c.121-.129.31-.288.483-.2l6.4,3.769c-.05-.025.1.057.387.213a4.625,4.625,0,0,1,.922.933c1.138,1.525,1.951,3.239,3.8,4.693A6.062,6.062,0,0,0-1718.5,3750.247Z" transform="translate(1731.456 -3734.18)" fill="#7ff9ff" fill-rule="evenodd"/>
        </g>
        <g id="Grupo_68310" data-name="Grupo 68310">
          <path id="Trazado_151026" data-name="Trazado 151026" d="M-1732.227,3636.351c-2.648-3.277-3.834-9.06-2.649-12.921s4.29-4.336,6.939-1.061,3.833,9.063,2.648,12.923S-1729.58,3639.626-1732.227,3636.351Z" transform="translate(1735.335 -3620.193)" fill="#7ff9ff" fill-rule="evenodd"/>
          <path id="Trazado_151027" data-name="Trazado 151027" d="M-1724.557,3638.688l.729.8-6.353,4.562-1.522-6.608.99.9,1.187,2.492Z" transform="translate(1732.979 -3631.38)" fill="#fff" fill-rule="evenodd"/>
        </g>
      </g>
    </g>
  </g>
</svg>
