<svg xmlns="http://www.w3.org/2000/svg" xmlns:xlink="http://www.w3.org/1999/xlink" width="150.975" height="218.999" viewBox="0 0 150.975 218.999">
  <defs>
    <linearGradient id="linear-gradient" x1="0.207" y1="0.097" x2="0.609" y2="0.613" gradientUnits="objectBoundingBox">
      <stop offset="0" stop-color="#fd90da"/>
      <stop offset="1" stop-color="#8e6dfd"/>
    </linearGradient>
    <linearGradient id="linear-gradient-2" x1="0.474" y1="0.62" x2="0.61" y2="0.221" gradientUnits="objectBoundingBox">
      <stop offset="0" stop-color="#6d6afe"/>
      <stop offset="1" stop-color="#3fb0f7"/>
    </linearGradient>
    <linearGradient id="linear-gradient-3" x1="0.638" y1="0.304" x2="0.228" y2="0.857" gradientUnits="objectBoundingBox">
      <stop offset="0" stop-color="#d1e8ff"/>
      <stop offset="1" stop-color="#eaefff"/>
    </linearGradient>
    <linearGradient id="linear-gradient-4" x1="0.609" y1="0.767" x2="0.186" y2="-0.049" gradientUnits="objectBoundingBox">
      <stop offset="0" stop-color="#965cf2"/>
      <stop offset="1" stop-color="#ff8adc"/>
    </linearGradient>
    <linearGradient id="linear-gradient-5" x1="0.689" y1="0.761" x2="0.279" y2="-0.029" xlink:href="#linear-gradient-4"/>
    <linearGradient id="linear-gradient-6" x1="0.421" y1="0.69" x2="0.658" y2="0.121" xlink:href="#linear-gradient-4"/>
    <linearGradient id="linear-gradient-7" x1="0.408" y1="0.072" x2="0.581" y2="0.776" gradientUnits="objectBoundingBox">
      <stop offset="0" stop-color="#fd70cb"/>
      <stop offset="1" stop-color="#6e4dfd"/>
    </linearGradient>
    <linearGradient id="linear-gradient-8" x1="0.526" y1="0.294" x2="0.442" y2="0.881" xlink:href="#linear-gradient-3"/>
    <linearGradient id="linear-gradient-9" x1="0.564" y1="0.678" x2="-0.29" y2="-0.263" xlink:href="#linear-gradient-4"/>
    <linearGradient id="linear-gradient-10" x1="0.578" y1="0.537" x2="-1.349" y2="-0.385" xlink:href="#linear-gradient-2"/>
    <linearGradient id="linear-gradient-11" x1="0.531" y1="0.984" x2="0.496" y2="0.2" xlink:href="#linear-gradient-3"/>
    <linearGradient id="linear-gradient-12" x1="0.557" y1="0.355" x2="0.438" y2="0.658" xlink:href="#linear-gradient-3"/>
    <linearGradient id="linear-gradient-13" x1="0.28" y1="0.057" x2="0.717" y2="0.617" xlink:href="#linear-gradient"/>
    <linearGradient id="linear-gradient-14" x1="0.358" y1="0.771" x2="0.637" y2="0.056" xlink:href="#linear-gradient-4"/>
    <linearGradient id="linear-gradient-15" x1="0.44" y1="0.199" x2="0.716" y2="0.924" xlink:href="#linear-gradient-2"/>
    <linearGradient id="linear-gradient-16" x1="0.201" y1="0.854" x2="0.66" y2="0.351" gradientUnits="objectBoundingBox">
      <stop offset="0" stop-color="#ff8a78"/>
      <stop offset="1" stop-color="#ffa799"/>
    </linearGradient>
    <linearGradient id="linear-gradient-17" x1="0.781" y1="0.222" x2="-0.047" y2="0.782" gradientUnits="objectBoundingBox">
      <stop offset="0" stop-color="#3e4795"/>
      <stop offset="1" stop-color="#273088"/>
    </linearGradient>
    <linearGradient id="linear-gradient-18" x1="0.948" y1="0.203" x2="0.157" y2="0.737" xlink:href="#linear-gradient-17"/>
    <linearGradient id="linear-gradient-19" x1="0.636" y1="0.277" x2="0.003" y2="0.695" xlink:href="#linear-gradient-17"/>
    <linearGradient id="linear-gradient-20" x1="0.565" y1="0.386" x2="0.428" y2="0.507" xlink:href="#linear-gradient-17"/>
    <linearGradient id="linear-gradient-21" x1="0.505" y1="0.464" x2="0.611" y2="0.799" xlink:href="#linear-gradient-16"/>
    <linearGradient id="linear-gradient-22" x1="0.732" y1="0.132" x2="0.397" y2="0.819" gradientUnits="objectBoundingBox">
      <stop offset="0" stop-color="#5a2d68"/>
      <stop offset="1" stop-color="#22043d"/>
    </linearGradient>
    <linearGradient id="linear-gradient-23" x1="0.598" y1="-0.218" x2="0.435" y2="0.916" gradientUnits="objectBoundingBox">
      <stop offset="0" stop-color="#854b9b"/>
      <stop offset="1"/>
    </linearGradient>
    <linearGradient id="linear-gradient-24" x1="1.016" y1="-0.326" x2="0.117" y2="1.002" xlink:href="#linear-gradient-23"/>
  </defs>
  <g id="Grupo_87359" data-name="Grupo 87359" transform="translate(-1877.926 -2671.289)">
    <g id="Grupo_87340" data-name="Grupo 87340" transform="translate(1895.179 2671.289)">
      <path id="Trazado_153464" data-name="Trazado 153464" d="M1927.659,2759.4a.647.647,0,0,0-1.293.059c.038.877.109,1.752.207,2.625a.647.647,0,1,0,1.286-.146c-.095-.842-.163-1.691-.2-2.538Zm47.962-67.642a.648.648,0,0,0,.824-.973.657.657,0,0,0-.173-.146l-2.238-1.3a.648.648,0,0,0-.824.973.668.668,0,0,0,.172.146l2.238,1.3Zm-5.595-3.257a.647.647,0,1,0,.651-1.119l-2.238-1.3a.648.648,0,0,0-.824.973.656.656,0,0,0,.172.146l2.238,1.3Zm-5.594-3.258a.648.648,0,0,0,.824-.973.674.674,0,0,0-.172-.146l-2.238-1.3a.648.648,0,0,0-.824.973.665.665,0,0,0,.172.146l2.238,1.3Zm-5.595-3.257a.647.647,0,1,0,.651-1.119l-2.238-1.3a.648.648,0,0,0-.824.973.665.665,0,0,0,.172.146l2.238,1.3Zm-5.594-3.257a.648.648,0,0,0,.824-.973.668.668,0,0,0-.172-.146l-2.238-1.3a.648.648,0,0,0-.824.973.677.677,0,0,0,.172.146l2.238,1.3Zm-5.594-3.257a.648.648,0,0,0,.824-.973.672.672,0,0,0-.172-.146l-.475-.276,0,0c-.6-.347-1.229-.685-1.861-.979a.648.648,0,0,0-.719,1.057.683.683,0,0,0,.171.116c.6.289,1.185.6,1.766.929h0l.465.271Zm-5.756-2.485a.648.648,0,0,0,.4-1.229.806.806,0,0,0-.082-.026,16.619,16.619,0,0,0-2.667-.437.648.648,0,0,0-.226,1.267.683.683,0,0,0,.141.025,15.86,15.86,0,0,1,2.437.4Zm-6.07-.082a.648.648,0,0,0-.287-1.261,10,10,0,0,0-2.6,1.082.648.648,0,0,0,.541,1.169.659.659,0,0,0,.123-.057,9.1,9.1,0,0,1,2.224-.933Zm-4.91,3.344a.648.648,0,0,0-.934-.885.657.657,0,0,0-.1.107,12.786,12.786,0,0,0-1.4,2.335.648.648,0,0,0,1.082.69.67.67,0,0,0,.094-.147,11.609,11.609,0,0,1,1.257-2.1Zm-2.385,5.645a.648.648,0,0,0-1.235-.369.719.719,0,0,0-.036.121,20.949,20.949,0,0,0-.346,2.648.647.647,0,0,0,1.292.085,20.189,20.189,0,0,1,.325-2.485Zm-.4,6.329a.648.648,0,0,0-1.277-.158.726.726,0,0,0-.018.15l-.017,2.59a.648.648,0,0,0,1.277.158.728.728,0,0,0,.018-.15l.017-2.589Zm-.042,6.474a.648.648,0,0,0-1.276-.158.719.719,0,0,0-.019.15l-.017,2.59a.648.648,0,0,0,1.276.159.714.714,0,0,0,.018-.15l.017-2.59Zm-.042,6.474a.648.648,0,0,0-1.276-.158.715.715,0,0,0-.018.15l-.017,2.59a.648.648,0,0,0,1.276.158.722.722,0,0,0,.018-.15l.017-2.589Zm-.042,6.474a.648.648,0,0,0-1.276-.159.714.714,0,0,0-.018.15l-.017,2.59a.648.648,0,0,0,1.276.158.721.721,0,0,0,.018-.15l.017-2.59Zm-.042,6.474a.648.648,0,0,0-1.276-.158.717.717,0,0,0-.019.15l-.017,2.59a.648.648,0,0,0,1.276.159.694.694,0,0,0,.019-.15l.017-2.589Zm-.042,6.474a.648.648,0,0,0-1.277-.158.726.726,0,0,0-.018.15l-.017,2.589a.648.648,0,0,0,1.276.158.726.726,0,0,0,.018-.15l.017-2.589Zm-.042,6.474a.648.648,0,0,0-1.276-.158.726.726,0,0,0-.018.15l-.017,2.589a.648.648,0,0,0,1.276.158.715.715,0,0,0,.018-.15l.017-2.59Zm-.042,6.474a.648.648,0,0,0-1.276-.158.715.715,0,0,0-.018.15l-.017,2.59a.648.648,0,0,0,1.276.159.726.726,0,0,0,.019-.15l.016-2.59Zm-.042,6.474a.648.648,0,0,0-1.276-.158.73.73,0,0,0-.019.15l-.017,2.589a.648.648,0,0,0,1.276.159.714.714,0,0,0,.018-.15l.017-2.589Zm-.042,6.474a.648.648,0,0,0-1.277-.158.726.726,0,0,0-.018.15l-.017,2.589a.648.648,0,0,0,1.276.158.73.73,0,0,0,.018-.15l.017-2.589Zm-.042,6.473a.648.648,0,0,0-1.276-.158.713.713,0,0,0-.018.15l-.017,2.59a.648.648,0,0,0,1.276.158.721.721,0,0,0,.018-.15l.017-2.59Zm.608,12.768a.647.647,0,1,0-1.268.26c.174.86.381,1.713.613,2.56a.648.648,0,0,0,1.266-.083.656.656,0,0,0-.017-.26c-.225-.817-.425-1.645-.593-2.476Zm1.776,6.111a.648.648,0,0,0-1.253.208.663.663,0,0,0,.042.25c.308.822.642,1.628.994,2.432a.648.648,0,0,0,1.183-.527c-.348-.768-.669-1.573-.965-2.363Zm2.654,5.8a.647.647,0,1,0-1.137.62q.627,1.154,1.311,2.272a.647.647,0,1,0,1.1-.678q-.669-1.088-1.277-2.214Zm3.408,5.4a.648.648,0,0,0-1.146.557.679.679,0,0,0,.1.207c.515.707,1.052,1.4,1.607,2.078a.648.648,0,1,0,1-.823c-.539-.654-1.062-1.333-1.561-2.018Zm4.115,4.866a.647.647,0,0,0-.922.909c.626.638,1.268,1.2,1.908,1.816a.647.647,0,1,0,.857-.971Q1941.162,2788.809,1940.27,2787.9Z" transform="translate(-1926.365 -2671.289)" fill-rule="evenodd" fill="url(#linear-gradient)"/>
      <g id="Grupo_87321" data-name="Grupo 87321" transform="translate(52.13 6.773)">
        <g id="Grupo_87319" data-name="Grupo 87319">
          <path id="Trazado_153465" data-name="Trazado 153465" d="M2085.629,2694.8a11.46,11.46,0,0,1,4.055,3.854c-.014-.292-.029.781-.019-.878s-.942-4.336.355-5.678a14,14,0,0,1,3.619-1.664,5.358,5.358,0,0,1,3.92.685,14.8,14.8,0,0,1,5.568,6.281,26.27,26.27,0,0,1,2.318,9.107c0,1.678-.009.58-.025.861,1.209-.364,2.294-.358,4.162.674a16.474,16.474,0,0,1,5.679,6.413,20.959,20.959,0,0,1,2.388,9.26,9.752,9.752,0,0,1-1.484,5.668,8.224,8.224,0,0,1-4.069,2.561c-3.715,1.291-10.875-6.24-14.654-8.379q-6.014-3.4-11.968-6.771a14.839,14.839,0,0,1-5.49-6.34,20.405,20.405,0,0,1-2.193-9.034c.016-1.764-1.273-4.41.4-5.677C2080.781,2693.776,2083.552,2693.653,2085.629,2694.8Z" transform="translate(-2075.691 -2690.305)" fill="#d0e7ff" fill-rule="evenodd"/>
          <path id="Trazado_153466" data-name="Trazado 153466" d="M2080.561,2697.364a11.452,11.452,0,0,1,4.055,3.854c-.014-.293-.029.781-.019-.878s.907-5.28,2.333-6.485,3.389-1.36,5.562-.172a14.8,14.8,0,0,1,5.568,6.281,26.255,26.255,0,0,1,2.318,9.107c0,1.677-.009.58-.025.861,1.209-.363,2.295-.358,4.162.674a16.473,16.473,0,0,1,5.678,6.413,20.9,20.9,0,0,1,2.388,9.26c.007,3.111-.9,5.427-2.363,6.647s-3.481,1.33-5.7.072l-12.14-6.869q-6.014-3.4-11.967-6.771a14.836,14.836,0,0,1-5.49-6.34,20.4,20.4,0,0,1-2.193-9.034c.028-3.018.913-5.262,2.326-6.458A4.983,4.983,0,0,1,2080.561,2697.364Z" transform="translate(-2072.724 -2691.955)" fill-rule="evenodd" fill="url(#linear-gradient-2)"/>
        </g>
        <g id="Grupo_87320" data-name="Grupo 87320" transform="translate(8.308 10.82)">
          <path id="Trazado_153467" data-name="Trazado 153467" d="M2099.771,2730.229l-3.722-2.147,5.853,10.137,5.891-3.357-3.72-2.149.01-9.545-4.3-2.484Z" transform="translate(-2096.05 -2720.685)" fill="#fff" fill-rule="evenodd"/>
          <path id="Trazado_153468" data-name="Trazado 153468" d="M2128.206,2744.651l3.722,2.148-5.853-10.138-5.891,3.357,3.72,2.148-.01,9.545,4.3,2.484Z" transform="translate(-2111.588 -2730.971)" fill="#fff" fill-rule="evenodd"/>
        </g>
      </g>
      <path id="Trazado_153469" data-name="Trazado 153469" d="M2091.061,3196.112l-60.643-34.636c-2.251-1.028-5.558-2-7.765-.654l-5.648,3.441c-1.137.692-4.873,2.99-2.374,4.349,7.352,4,54.329,31.446,61.8,35.507a10.465,10.465,0,0,0,5.646.865,14.184,14.184,0,0,0,6.115-1.821l2.256-1.391c1.595-.984,2.478-2.058,2.563-3.089C2093.089,3197.676,2092.442,3196.743,2091.061,3196.112Z" transform="translate(-1982.649 -2986.038)" fill="#9e9bf5" fill-rule="evenodd" opacity="0.5" style="mix-blend-mode: multiply;isolation: isolate"/>
      <g id="Grupo_87324" data-name="Grupo 87324" transform="translate(32.9 26.871)">
        <g id="Grupo_87322" data-name="Grupo 87322">
          <path id="Trazado_153470" data-name="Trazado 153470" d="M2097.812,2925.315c-.009,2.952-1.061,5.03-2.744,6.008l-2.67,1.606c-9.16-3.909-5.76-50.329-6.318-63.526l2.813-69.257c-2.365-4.133-11.463-7.739-9.34-16.178l-26.847-12.568c-1.192-.81-32.522-18.954-26.9-22.356.94-.569,1.871-1.142,2.8-1.682,2.076-1.228,4.723-.469,6.666.652h0l53.421,30.642c5.244,3.021,9.356,10.331,9.34,16.177Z" transform="translate(-2022.853 -2746.731)" fill-rule="evenodd" fill="url(#linear-gradient-3)"/>
          <path id="Trazado_153471" data-name="Trazado 153471" d="M2018.958,2758.071c.008-2.894,1.01-4.949,2.634-5.95,1.711-1.055,4.111-.941,6.766.593l53.422,30.64c5.17,2.986,9.356,10.236,9.339,16.178l-.222,130.484c-.017,5.941-4.231,8.343-9.4,5.357l-53.42-30.641c-5.177-2.989-9.357-10.236-9.34-16.177Z" transform="translate(-2018.734 -2749.755)" fill="#fff" fill-rule="evenodd"/>
          <path id="Trazado_153472" data-name="Trazado 153472" d="M2018.958,2758.071c.008-2.894,1.01-4.949,2.634-5.95,1.711-1.055,4.111-.941,6.766.593l53.422,30.64c5.17,2.986,9.356,10.236,9.339,16.178l-.222,130.484c-.017,5.941-4.231,8.343-9.4,5.357l-53.42-30.641c-5.177-2.989-9.357-10.236-9.34-16.177Z" transform="translate(-2018.734 -2749.755)" fill="#d07efc" fill-rule="evenodd"/>
        </g>
        <g id="Grupo_87323" data-name="Grupo 87323" transform="translate(24.364 17.852)">
          <path id="Trazado_153473" data-name="Trazado 153473" d="M2196.454,2860.464c1.4.808,2.538.159,2.543-1.449a5.57,5.57,0,0,0-2.527-4.376c-1.4-.808-2.539-.159-2.542,1.45A5.568,5.568,0,0,0,2196.454,2860.464Z" transform="translate(-2155.892 -2833.832)" fill="#485af4" fill-rule="evenodd"/>
          <path id="Trazado_153474" data-name="Trazado 153474" d="M2087.139,2797.334c0-.438.312-.61.693-.384,5.551,3.137,14.649,8.257,20.2,11.394a1.55,1.55,0,0,1,.689,1.2v.867c0,.438-.312.61-.693.383-5.552-3.136-14.649-8.257-20.2-11.394a1.55,1.55,0,0,1-.689-1.2Z" transform="translate(-2087.139 -2796.851)" fill="#485af4" fill-rule="evenodd"/>
        </g>
      </g>
      <g id="Grupo_87326" data-name="Grupo 87326" transform="translate(20.207 43.042)">
        <path id="Trazado_153475" data-name="Trazado 153475" d="M2019.546,2811.554l39.563,21.184c3.553,2.052,5.338,8.25,5.327,12.334l-.153,20.5c-.012,4.083-2.908,5.735-6.463,3.682l-38.424-22.374Z" transform="translate(-2006.467 -2804.637)" fill-rule="evenodd" opacity="0.5" fill="url(#linear-gradient-4)" style="mix-blend-mode: multiply;isolation: isolate"/>
        <path id="Trazado_153476" data-name="Trazado 153476" d="M1985.968,2796.538c0-1.374-.482-2.226.107-2.977a6.526,6.526,0,0,1,2.23-1.247,4.753,4.753,0,0,1,3.9.672l42.6,24.8a13.664,13.664,0,0,1,6.193,10.728l-.148,19.777a5.083,5.083,0,0,1-1.2,3.643,5.326,5.326,0,0,1-2.707,1.294c-.893.073-1.238-.753-2.331-1.384l-42.6-24.8a13.655,13.655,0,0,1-6.194-10.728Z" transform="translate(-1984.826 -2792.134)" fill="#f2f4ff" fill-rule="evenodd"/>
        <path id="Trazado_153477" data-name="Trazado 153477" d="M1983.246,2798.177c.011-3.94,2.8-5.535,6.234-3.553l42.6,24.8a13.661,13.661,0,0,1,6.193,10.728l-.147,19.777c-.011,3.94-2.806,5.532-6.234,3.553l-42.6-24.8a13.654,13.654,0,0,1-6.194-10.728Z" transform="translate(-1983.098 -2793.188)" fill="#18b6fe" fill-rule="evenodd"/>
        <g id="Grupo_87325" data-name="Grupo 87325" transform="translate(19.876 21.961)">
          <path id="Trazado_153478" data-name="Trazado 153478" d="M2038.9,2854.951c0-1.051.748-1.465,1.664-.92l27.759,15.745a3.718,3.718,0,0,1,1.653,2.891v2.08c0,1.051-.749,1.464-1.664.92l-27.759-15.745a3.721,3.721,0,0,1-1.653-2.891Z" transform="translate(-2038.902 -2853.791)" fill="#fff" fill-rule="evenodd" opacity="0.2"/>
          <path id="Trazado_153479" data-name="Trazado 153479" d="M2038.9,2877.293c0-.621.441-.865.982-.544l16.392,9.3a2.2,2.2,0,0,1,.976,1.707v1.229c0,.621-.443.865-.983.543l-16.392-9.3a2.2,2.2,0,0,1-.976-1.707Z" transform="translate(-2038.902 -2868.481)" fill="#fff" fill-rule="evenodd" opacity="0.2"/>
        </g>
        <path id="Trazado_153480" data-name="Trazado 153480" d="M1999.2,2840.048a7.363,7.363,0,0,1-3.334-5.212c-.131-1.89,1.149-2.621,2.86-1.632a7.369,7.369,0,0,1,3.334,5.213c.131,1.891-1.15,2.621-2.86,1.631Zm6.36-.587-1.113-.643a12.1,12.1,0,0,0-1.155-3.162l.728-.414a18.011,18.011,0,0,0-1.407-2.2l-.727.415a12.906,12.906,0,0,0-2.425-2.436l-.086-1.23c-.305-.22-.615-.422-.928-.6a8.989,8.989,0,0,0-.92-.465l.085,1.231a3.863,3.863,0,0,0-2.276-.282l-.848-1.326a2.748,2.748,0,0,0-1.207.688l.848,1.324a3.364,3.364,0,0,0-.795,2.035l-1.113-.643a7.509,7.509,0,0,0,.007.983,9.721,9.721,0,0,0,.134,1.058l1.113.643a12.06,12.06,0,0,0,1.155,3.16l-.728.416a17.993,17.993,0,0,0,1.407,2.2l.727-.415a12.89,12.89,0,0,0,2.425,2.436l.085,1.229a10.8,10.8,0,0,0,.929.6,8.724,8.724,0,0,0,.919.464l-.085-1.229a3.873,3.873,0,0,0,2.276.282l.848,1.326a2.76,2.76,0,0,0,1.207-.688l-.848-1.326a3.356,3.356,0,0,0,.795-2.034l1.113.643a7.545,7.545,0,0,0-.007-.984A9.667,9.667,0,0,0,2005.557,2839.461Z" transform="translate(-1988.963 -2815.448)" fill="#fff" fill-rule="evenodd"/>
      </g>
      <g id="Grupo_87329" data-name="Grupo 87329" transform="translate(85.832 71.035)">
        <path id="Trazado_153481" data-name="Trazado 153481" d="M2167.517,2875.815c.013-4.552,3.236-6.393,7.2-4.1l14.534,8.25.28,25.645-2.788.888-12.243-6.95a15.774,15.774,0,0,1-7.155-12.391Z" transform="translate(-2167.346 -2870.727)" fill-rule="evenodd" opacity="0.5" fill="url(#linear-gradient-5)" style="mix-blend-mode: multiply;isolation: isolate"/>
        <g id="Grupo_87328" data-name="Grupo 87328" transform="translate(1.53 0.26)">
          <path id="Trazado_153482" data-name="Trazado 153482" d="M2174.577,2875.863c0-1.374-.316-2.23.278-2.977a5.218,5.218,0,0,1,2.059-1.248,4.753,4.753,0,0,1,3.9.672l13.608,7.724a13.662,13.662,0,0,1,6.193,10.728l-.147,9.816a5.087,5.087,0,0,1-1.2,3.643,5.333,5.333,0,0,1-2.708,1.293c-.893.073-1.238-.752-2.331-1.384l-13.606-7.724a13.653,13.653,0,0,1-6.194-10.728Z" transform="translate(-2173.436 -2871.458)" fill="#f2f4ff" fill-rule="evenodd"/>
          <path id="Trazado_153483" data-name="Trazado 153483" d="M2171.791,2877.5c.011-3.94,2.8-5.535,6.234-3.552l13.607,7.723a13.661,13.661,0,0,1,6.193,10.728l-.147,9.816c-.011,3.94-2.806,5.532-6.234,3.552l-13.607-7.723a13.657,13.657,0,0,1-6.193-10.728Z" transform="translate(-2171.642 -2872.513)" fill="#ffc945" fill-rule="evenodd"/>
          <g id="Grupo_87327" data-name="Grupo 87327" transform="translate(1.991 10.244)">
            <path id="Trazado_153484" data-name="Trazado 153484" d="M2216.177,2911.774l7.867,8.467-.006,2.157-7.889-.611.007-2.545,5.513.688-5.5-5.622Z" transform="translate(-2202.288 -2907.659)" fill="#fff" fill-rule="evenodd"/>
            <path id="Trazado_153485" data-name="Trazado 153485" d="M2205.916,2903.847a1.32,1.32,0,0,1,.209.717,4.384,4.384,0,0,1-.173.917l-2.225,9.112c-.071.3-.141.536-.192.7a.478.478,0,0,1-.26.318c-.108.05-.269.016-.487-.11a1.408,1.408,0,0,1-.792-1.256,6.063,6.063,0,0,1,.16-.95l2.216-9.116a2.9,2.9,0,0,1,.332-.941c.1-.149.31-.13.606.042A1.629,1.629,0,0,1,2205.916,2903.847Z" transform="translate(-2193.176 -2902.099)" fill="#fff" fill-rule="evenodd"/>
            <path id="Trazado_153486" data-name="Trazado 153486" d="M2177.232,2902.4l.006-2.182,7.892.624-.007,2.567-5.493-.735,5.479,5.658-.007,2.545Z" transform="translate(-2177.232 -2900.219)" fill="#fff" fill-rule="evenodd"/>
          </g>
        </g>
      </g>
      <g id="Grupo_87332" data-name="Grupo 87332" transform="translate(81.454 99.931)">
        <path id="Trazado_153487" data-name="Trazado 153487" d="M2164.64,2971.718c-4.651-2.689-8.708-9.031-9.064-14.17s3.124-7.125,7.775-4.435,8.709,9.034,9.064,14.17S2169.289,2974.405,2164.64,2971.718Z" transform="translate(-2155.374 -2951.893)" fill-rule="evenodd" opacity="0.5" fill="url(#linear-gradient-6)" style="mix-blend-mode: multiply;isolation: isolate"/>
        <g id="Grupo_87331" data-name="Grupo 87331">
          <path id="Trazado_153488" data-name="Trazado 153488" d="M2157.2,2953.59a5.281,5.281,0,0,1,3.06-1.668,6.01,6.01,0,0,1,4.037.972c4.029,2.329,7.549,7.832,7.857,12.284a5.718,5.718,0,0,1-.544,3.21,6.341,6.341,0,0,1-3,2.031C2163.46,2971.9,2155.757,2956.027,2157.2,2953.59Z" transform="translate(-2156.321 -2951.855)" fill="#f2f4ff" fill-rule="evenodd"/>
          <g id="Grupo_87330" data-name="Grupo 87330" transform="translate(0 0.514)">
            <path id="Trazado_153489" data-name="Trazado 153489" d="M2162.934,2970.466c-4.032-2.331-7.549-7.829-7.858-12.284s2.708-6.176,6.74-3.845,7.549,7.832,7.857,12.284S2166.963,2972.8,2162.934,2970.466Z" transform="translate(-2155.054 -2953.298)" fill="#d1e7ff" fill-rule="evenodd"/>
            <path id="Trazado_153490" data-name="Trazado 153490" d="M2168.5,2969.942l1.069.535-4.747,7.227-4.191-6.215,1.38.54,2.213,2.1Z" transform="translate(-2158.642 -2964.014)" fill="#fff" fill-rule="evenodd"/>
          </g>
        </g>
      </g>
      <g id="Grupo_87336" data-name="Grupo 87336" transform="translate(59.385 108.31)">
        <path id="Trazado_153491" data-name="Trazado 153491" d="M2093.234,2979.537c.01-3.719,2.644-5.224,5.883-3.353l42.474,24.353,0,39.049-2.806,1.579-39.849-22.772a12.887,12.887,0,0,1-5.846-10.125Z" transform="translate(-2093.094 -2975.38)" fill-rule="evenodd" opacity="0.5" fill="url(#linear-gradient-7)" style="mix-blend-mode: multiply;isolation: isolate"/>
        <g id="Grupo_87335" data-name="Grupo 87335" transform="translate(1.837 0.603)">
          <path id="Trazado_153492" data-name="Trazado 153492" d="M2101.357,2980.794c0-.947-.74-1.718-.412-2.327.355-.658,1.818-1.063,2.447-1.264a4.062,4.062,0,0,1,3.231.589l49.614,28.634a11.544,11.544,0,0,1,5.232,9.064l-.125,25.567a3.7,3.7,0,0,1-1.495,3.343,6.07,6.07,0,0,1-2.921.829c-.545-.094-.242-.818-.852-1.17l-49.613-28.634a11.537,11.537,0,0,1-5.233-9.064Z" transform="translate(-2099.932 -2977.072)" fill-rule="evenodd" fill="url(#linear-gradient-8)"/>
          <path id="Trazado_153493" data-name="Trazado 153493" d="M2098.376,2982.112c.01-3.329,2.367-4.677,5.267-3l49.614,28.634a11.542,11.542,0,0,1,5.233,9.064l-.125,25.567c-.01,3.329-2.37,4.675-5.268,3l-49.613-28.634a11.537,11.537,0,0,1-5.233-9.064Z" transform="translate(-2098.251 -2977.921)" fill="#fff" fill-rule="evenodd"/>
          <g id="Grupo_87333" data-name="Grupo 87333" transform="translate(2.437 13.187)">
            <path id="Trazado_153494" data-name="Trazado 153494" d="M2113.516,3015.248c-4.639-2.678-8.406-.527-8.422,4.8s3.729,11.819,8.368,14.5,8.406.526,8.421-4.8S2118.151,3017.923,2113.516,3015.248Z" transform="translate(-2105.094 -3014.096)" fill="#7ff9ff" fill-rule="evenodd"/>
            <path id="Trazado_153495" data-name="Trazado 153495" d="M2118.608,3024.034l.01,9.642,8.318.68Z" transform="translate(-2113.794 -3020.494)" fill="#fff" fill-rule="evenodd"/>
          </g>
          <g id="Grupo_87334" data-name="Grupo 87334" transform="translate(20.701 20.932)">
            <path id="Trazado_153496" data-name="Trazado 153496" d="M2156.372,3036.6c0-.684.486-.952,1.081-.6l33.8,19.361a2.421,2.421,0,0,1,1.075,1.88v1.353c0,.684-.487.952-1.082.6l-33.8-19.361a2.417,2.417,0,0,1-1.075-1.879Z" transform="translate(-2156.371 -3035.841)" fill="#7ff9ff" fill-rule="evenodd" opacity="0.5"/>
            <path id="Trazado_153497" data-name="Trazado 153497" d="M2156.372,3058.714c0-.685.486-.953,1.081-.6l33.8,19.361a2.419,2.419,0,0,1,1.075,1.88v1.353c0,.684-.487.952-1.082.6l-33.8-19.362a2.417,2.417,0,0,1-1.075-1.879Z" transform="translate(-2156.371 -3050.081)" fill="#7ff9ff" fill-rule="evenodd" opacity="0.5"/>
            <path id="Trazado_153498" data-name="Trazado 153498" d="M2156.372,3080.105c0-.684.486-.952,1.081-.6l33.8,19.36a2.421,2.421,0,0,1,1.075,1.879v1.353c0,.684-.487.952-1.082.6l-33.8-19.361a2.417,2.417,0,0,1-1.075-1.879Z" transform="translate(-2156.371 -3063.854)" fill="#7ff9ff" fill-rule="evenodd" opacity="0.5"/>
          </g>
        </g>
      </g>
      <g id="Grupo_87338" data-name="Grupo 87338" transform="translate(15.568 101.512)">
        <path id="Trazado_153499" data-name="Trazado 153499" d="M2018.787,2974.488l9.684,5.473a14.866,14.866,0,0,1,6.739,11.673l-.161,19.264c-.012,4.287-3.052,6.02-6.784,3.866l-9.478-5.358Z" transform="translate(-2001.437 -2968.008)" fill-rule="evenodd" opacity="0.5" fill="url(#linear-gradient-9)" style="mix-blend-mode: multiply;isolation: isolate"/>
        <g id="Grupo_87337" data-name="Grupo 87337">
          <path id="Trazado_153500" data-name="Trazado 153500" d="M1973.01,2960.7c0-1.374-.316-2.231.278-2.977a5.214,5.214,0,0,1,2.059-1.248,4.753,4.753,0,0,1,3.9.672l18.141,10.254a13.661,13.661,0,0,1,6.193,10.728l-.147,16.789a5.084,5.084,0,0,1-1.2,3.643,5.327,5.327,0,0,1-2.707,1.293c-.893.073-1.238-.752-2.332-1.384l-18.14-10.253a13.655,13.655,0,0,1-6.194-10.728Z" transform="translate(-1971.869 -2956.293)" fill="#f2f4ff" fill-rule="evenodd"/>
          <path id="Trazado_153501" data-name="Trazado 153501" d="M1970.223,2962.335c.011-3.94,2.8-5.535,6.233-3.552l18.141,10.253a13.663,13.663,0,0,1,6.193,10.728l-.148,16.789c-.011,3.939-2.806,5.532-6.235,3.552l-18.14-10.253a13.657,13.657,0,0,1-6.194-10.728Z" transform="translate(-1970.074 -2957.347)" fill="#856de9" fill-rule="evenodd"/>
          <path id="Trazado_153502" data-name="Trazado 153502" d="M1993.4,2994.319l-.01,3.422,1.7.984a20.852,20.852,0,0,0,1.9,1.028,1.112,1.112,0,0,0,1.044.089.987.987,0,0,0,.388-.928,2.8,2.8,0,0,0-.321-1.316,2.922,2.922,0,0,0-.973-1.076c-.258-.171-1-.624-2.24-1.34l-1.5-.863Zm-12.337-.627,3.54,2.044-1.8-6.53-1.742,4.486Zm.385-8.759,2.774,1.6,5.136,17.836-2.809-1.621-1.121-4.036-5.184-2.994-1.072,2.77-2.775-1.6,5.051-11.954Zm17.091,21.552a1.313,1.313,0,0,0,.362-1.067,3,3,0,0,0-.274-1.288,3.851,3.851,0,0,0-.8-1.149,13.126,13.126,0,0,0-2.328-1.57l-2.112-1.219-.011,4,2.429,1.4a11.866,11.866,0,0,0,1.795.934.925.925,0,0,0,.942-.04Zm2.439-1.957a6.085,6.085,0,0,1,.61,2.589,3.431,3.431,0,0,1-.413,1.748,1.651,1.651,0,0,1-1.114.876,2.71,2.71,0,0,1-1.768-.3c-.427-.2-1.469-.755-3.134-1.716l-4.413-2.547.041-14.846,5.178,2.99a22.172,22.172,0,0,1,2.28,1.464,6.906,6.906,0,0,1,1.365,1.4,8.363,8.363,0,0,1,.977,1.819,5,5,0,0,1,.4,1.945,2.469,2.469,0,0,1-.5,1.629,1.443,1.443,0,0,1-1.324.536A7.919,7.919,0,0,1,2000.981,3004.528Z" transform="translate(-1974.147 -2974.732)" fill="#fff" fill-rule="evenodd"/>
        </g>
      </g>
      <g id="Grupo_87339" data-name="Grupo 87339" transform="translate(43.732 148.794)">
        <path id="Trazado_153503" data-name="Trazado 153503" d="M2054.107,3091.3c0-1.565,1.112-2.2,2.475-1.411,14.441,8.283,28.852,16.857,43.294,25.14a5.426,5.426,0,0,1,2.459,4.26l-.087,26.286c0,1.564-1.115,2.2-2.476,1.41-14.441-8.283-28.854-16.858-43.294-25.14a5.423,5.423,0,0,1-2.459-4.26Z" transform="translate(-2052.283 -3089.371)" fill-rule="evenodd" opacity="0.5" fill="url(#linear-gradient-10)" style="mix-blend-mode: multiply;isolation: isolate"/>
        <path id="Trazado_153504" data-name="Trazado 153504" d="M2051.223,3089.981l1.656-.829a1.707,1.707,0,0,1,1.57.209c13.647,7.827,27.266,15.93,40.915,23.759a5.128,5.128,0,0,1,2.324,4.026l.067,22.149a1.78,1.78,0,0,1-.494,1.358,14.653,14.653,0,0,1-1.945,1.013c-13.648-7.829-27.17-16.971-40.816-24.8a5.124,5.124,0,0,1-2.324-4.026Z" transform="translate(-2050.483 -3089.042)" fill-rule="evenodd" fill="url(#linear-gradient-11)"/>
        <path id="Trazado_153505" data-name="Trazado 153505" d="M2049.146,3092.978c0-1.479,1.052-2.077,2.34-1.334,13.647,7.828,27.266,15.93,40.915,23.759a5.127,5.127,0,0,1,2.324,4.026l.067,22.149c0,1.478-1.053,2.076-2.34,1.333-13.648-7.828-27.269-15.932-40.915-23.759a5.124,5.124,0,0,1-2.324-4.026Z" transform="translate(-2049.146 -3090.511)" fill-rule="evenodd" fill="url(#linear-gradient-12)"/>
        <path id="Trazado_153506" data-name="Trazado 153506" d="M2055.755,3102.16c0-.613.436-.861.969-.552q19.492,11.179,38.977,22.361a2.124,2.124,0,0,1,.963,1.669l.028,12.04c0,.613-.437.861-.97.553-12.994-7.453-25.983-13.912-38.977-21.365a2.122,2.122,0,0,1-.963-1.668Z" transform="translate(-2053.401 -3097.046)" fill="#18b6fe" fill-rule="evenodd"/>
        <path id="Trazado_153507" data-name="Trazado 153507" d="M2059.88,3153.358c0-.684.486-.952,1.081-.6l33.8,19.361a2.42,2.42,0,0,1,1.075,1.88v1.353c0,.684-.487.952-1.081.6l-33.8-19.361a2.417,2.417,0,0,1-1.075-1.879Z" transform="translate(-2056.057 -3129.965)" fill="#18b6fe" fill-rule="evenodd" opacity="0.5"/>
      </g>
      <path id="Trazado_153508" data-name="Trazado 153508" d="M2188.508,2785.864a.648.648,0,0,0,.944-.732.641.641,0,0,0-.306-.395l-.333-.189c-.735-.066-.872,1.114-.3,1.316Zm4.018.787a.647.647,0,1,0-.638,1.126l2.253,1.276a.648.648,0,0,0,.944-.733.641.641,0,0,0-.306-.394l-2.253-1.275Zm5.634,3.189a.647.647,0,0,0-.638,1.127l2.254,1.275a.647.647,0,1,0,.638-1.127l-2.254-1.275Zm5.634,3.189a.648.648,0,0,0-.944.732.641.641,0,0,0,.306.394l2.254,1.276a.647.647,0,1,0,.638-1.127l-2.254-1.275Zm5.634,3.188a.648.648,0,0,0-.638,1.127l2.254,1.275a.647.647,0,0,0,.638-1.127l-2.254-1.275Zm5.634,3.188a.648.648,0,0,0-.944.733.641.641,0,0,0,.306.394l2.253,1.276a.648.648,0,0,0,.638-1.127l-2.254-1.275Zm5.659,3.25a.647.647,0,1,0-.728,1.071,14.111,14.111,0,0,1,1.912,1.568.648.648,0,0,0,1.023-.768.675.675,0,0,0-.119-.159,15.269,15.269,0,0,0-2.088-1.712Zm4.647,4.8a.648.648,0,0,0-1.1.681c.466.751.887,1.408,1.288,2.2a.647.647,0,0,0,1.157-.58,21.813,21.813,0,0,0-1.345-2.305Zm2.777,6.053a.648.648,0,0,0-1.273.139.7.7,0,0,0,.021.189,14.331,14.331,0,0,1,.429,2.435.648.648,0,0,0,1.288.03.656.656,0,0,0,0-.135,15.807,15.807,0,0,0-.467-2.659Zm.49,6.6a.648.648,0,0,0-1.276-.16.706.706,0,0,0-.019.15l-.019,2.589a.648.648,0,0,0,1.276.16.722.722,0,0,0,.018-.15l.02-2.589Zm-.048,6.474a.648.648,0,0,0-1.276-.16.706.706,0,0,0-.019.15l-.019,2.589a.648.648,0,0,0,1.276.16.741.741,0,0,0,.018-.15l.02-2.59Zm-.049,6.474a.648.648,0,0,0-1.276-.159.706.706,0,0,0-.019.15l-.02,2.589a.648.648,0,0,0,1.276.16.743.743,0,0,0,.018-.15l.019-2.589Zm-.048,6.474a.648.648,0,0,0-1.276-.16.712.712,0,0,0-.019.15l-.019,2.589a.648.648,0,0,0,1.276.16.741.741,0,0,0,.018-.15l.019-2.589Zm-.256,6.6a.648.648,0,0,0-1.2-.444.717.717,0,0,0-.059.161,5.213,5.213,0,0,1-.929,2.088.648.648,0,0,0,.978.846l.043-.05a6.5,6.5,0,0,0,1.171-2.6Zm-5.059,4.47a.648.648,0,0,0,.147-1.277.7.7,0,0,0-.15-.017,6.1,6.1,0,0,1-2.274-.478.648.648,0,0,0-.644,1.109.672.672,0,0,0,.155.09,7.373,7.373,0,0,0,2.766.573Zm-6.25-2.478a.648.648,0,0,0,.824-.973.668.668,0,0,0-.173-.146l-2.238-1.3a.648.648,0,0,0-.824.973.676.676,0,0,0,.173.146l2.238,1.3Zm-5.594-3.257a.647.647,0,1,0,.651-1.119l-2.633-1.554c-.57-.252-.983.97-.257,1.37Z" transform="translate(-2094.913 -2744.206)" fill-rule="evenodd" fill="url(#linear-gradient-13)"/>
    </g>
    <g id="Grupo_87358" data-name="Grupo 87358" transform="translate(1877.926 2741.261)">
      <path id="Trazado_153509" data-name="Trazado 153509" d="M1880.108,3217.989l23.075-13.142c2.515-1.149,6.115-2.064,8.678-.73,2.335,1.215,6.182,3.7,7.883,4.672,1.292.737,5.777,3.424,2.983,4.943-8.217,4.468-16.349,9.493-24.693,14.032a11.705,11.705,0,0,1-6.31.968,16.7,16.7,0,0,1-6.834-2.035l-4.092-2.382c-1.81-1.054-2.769-2.3-2.865-3.452C1877.84,3219.737,1878.564,3218.694,1880.108,3217.989Z" transform="translate(-1877.926 -3083.882)" fill="#9e9bf5" fill-rule="evenodd" opacity="0.5" style="mix-blend-mode: multiply;isolation: isolate"/>
      <g id="Grupo_87357" data-name="Grupo 87357" transform="translate(3.313 0)">
        <g id="Grupo_87343" data-name="Grupo 87343" transform="translate(39.73 15.674)">
          <g id="Grupo_87342" data-name="Grupo 87342">
            <path id="Trazado_153510" data-name="Trazado 153510" d="M2018.935,2932.514l.006-1.631-.057-15.323.815-.387c4.648,2.688,8.708,9.035,9.063,14.171C2029.223,2936,2023.271,2936.139,2018.935,2932.514Z" transform="translate(-2011.721 -2913.952)" fill-rule="evenodd" opacity="0.5" fill="url(#linear-gradient-14)" style="mix-blend-mode: multiply;isolation: isolate"/>
            <g id="Grupo_87341" data-name="Grupo 87341">
              <path id="Trazado_153511" data-name="Trazado 153511" d="M2000.918,2913.483a5.286,5.286,0,0,1,3.06-1.668,6.009,6.009,0,0,1,4.037.973c4.029,2.33,7.549,7.832,7.857,12.284a5.711,5.711,0,0,1-.544,3.21,6.335,6.335,0,0,1-3,2.03C2007.179,2931.8,1999.476,2915.921,2000.918,2913.483Z" transform="translate(-2000.04 -2911.748)" fill="#f2f4ff" fill-rule="evenodd"/>
              <path id="Trazado_153512" data-name="Trazado 153512" d="M2006.652,2930.359c-4.032-2.331-7.549-7.829-7.858-12.284s2.708-6.176,6.741-3.845,7.549,7.832,7.857,12.284S2010.682,2932.689,2006.652,2930.359Z" transform="translate(-1998.773 -2912.677)" fill="#a0d3fb" fill-rule="evenodd"/>
            </g>
          </g>
          <path id="Trazado_153513" data-name="Trazado 153513" d="M2013.28,2929.592l-2-1.1a1.746,1.746,0,0,1-.74-.948l-.768-2.428a1.713,1.713,0,0,0-.747-.953c-.3-.164-.579-.14-.661.174l-.459,1.749c-.074.279-.338.353-.665.172l-1.995-1.106c-.716-.4-.943.451-.326,1.237l1.708,2.175a1.372,1.372,0,0,1,.338,1.065l-.467,1.739a1.588,1.588,0,0,0,.786,1.465.57.57,0,0,0,.422.078l1.516-.4a.58.58,0,0,1,.426.083,1.526,1.526,0,0,1,.448.4l1.706,2.18a1.512,1.512,0,0,0,.446.4c.462.255.837-.016.625-.681l-.771-2.427c-.127-.4-.045-.7.2-.768l1.52-.39C2014.372,2931.169,2014,2929.99,2013.28,2929.592Z" transform="translate(-2002.501 -2919.676)" fill-rule="evenodd" fill="url(#linear-gradient-15)"/>
        </g>
        <g id="Grupo_87345" data-name="Grupo 87345" transform="translate(9.472)">
          <g id="Grupo_87344" data-name="Grupo 87344" transform="translate(18.734)">
            <path id="Trazado_153514" data-name="Trazado 153514" d="M1973.69,2868.225c-.172.363-.337.729-.516,1.088l-.74,1.479c-.158-.725-.736-1-1.182-.637a1.266,1.266,0,0,0-.36.484c-.071-.2-.631-.644-1.389.433a.831.831,0,0,0-.921.531,6.021,6.021,0,0,0-.317.775,3.121,3.121,0,0,0-.221,1.051c0,.713.036,1.487.015,2.339-.022.925-1.071,2.1-1.641,2.771l3.434,1.089a19.085,19.085,0,0,1,1.337-1.672c.539-.546,1.219-.611,1.734-1.032a6.6,6.6,0,0,0,.942-1.24c.4-.573.626-1.193,1.012-1.82a1.679,1.679,0,0,0,.391-1.235,13.175,13.175,0,0,1,.258-1.459c-.706-.352-1.261.519-1.256,1.368a2.1,2.1,0,0,0-.761,1.033c-.561-.733-.227-1.04,0-1.982a9.488,9.488,0,0,0,.808-1.89c.11-.29.219-.59.337-.915a.91.91,0,0,0-.2-1.006C1974.318,2867.691,1973.977,2867.73,1973.69,2868.225Z" transform="translate(-1966.419 -2867.741)" fill-rule="evenodd" fill="url(#linear-gradient-16)"/>
            <path id="Trazado_153515" data-name="Trazado 153515" d="M1979.575,2875.791c-.5.072-.855.764-.851,1.441a2.051,2.051,0,0,0-.741.981,4.658,4.658,0,0,1,.9-.9,2.147,2.147,0,0,1,.69-1.524Zm-2.623-.431-.064.128a1.283,1.283,0,0,0-.187-.455,1.836,1.836,0,0,1-.489,1.089,1.225,1.225,0,0,0,.74-.762Zm-1.611-.037a.421.421,0,0,0-.181-.185,2.922,2.922,0,0,1-.386.984,1.647,1.647,0,0,0,.567-.8Zm-1.368.421-.016.022a1.2,1.2,0,0,0-.22,0,2.24,2.24,0,0,1-.4,1.1A1.781,1.781,0,0,0,1973.973,2875.745Z" transform="translate(-1970.873 -2872.436)" fill="#ff8978" fill-rule="evenodd"/>
          </g>
          <path id="Trazado_153516" data-name="Trazado 153516" d="M1926.861,2903.633c1.728-3.011,3.081-6.783,5.5-9.841.2-.255.674-.45.848-.718q.378-.584.753-1.147a5.356,5.356,0,0,1,3.476,1.566q-.2.6-.4,1.2c-.153.465.14,1.46.008,1.925-1.19,4.183-2.9,7.134-4.653,10.975-2.4,3.089-15.461,21.986-18.181,16.05-.881-1.923-.15-4.455,1.138-6.527a17.652,17.652,0,0,1,2.432-2.856C1919.527,2912.449,1924.234,2906.342,1926.861,2903.633Z" transform="translate(-1913.821 -2883.313)" fill="#7ff9ff" fill-rule="evenodd"/>
        </g>
        <g id="Grupo_87348" data-name="Grupo 87348" transform="translate(7.676 58.755)">
          <g id="Grupo_87346" data-name="Grupo 87346" transform="translate(2.276 64.832)">
            <path id="Trazado_153517" data-name="Trazado 153517" d="M1920.989,3222.084c.383-.073,2.093-.555,2.255-.611a22.119,22.119,0,0,1,4.3-1.217c1.259-.188,3.013.181,2.45,2.091a8.816,8.816,0,0,1-5.118,5.328c-.766.321-1.73.4-2.65.855-.712.357-.869.947-1.4,1.343a3.68,3.68,0,0,1-3.442.453,2.4,2.4,0,0,1-1.829-2.25,11.768,11.768,0,0,1,.028-4.45l.041,0a1.68,1.68,0,0,0,1.6,1.64c1.454.279,4.062-1.124,3.82-2.664C1921.019,3222.437,1921,3222.263,1920.989,3222.084Z" transform="translate(-1915.292 -3218.256)" fill="#1c236c" fill-rule="evenodd"/>
            <path id="Trazado_153518" data-name="Trazado 153518" d="M1930.249,3221.889c.6.7.208,1.9-.136,2.646a9.324,9.324,0,0,1-4.8,4.352c-.767.321-1.717.5-2.636.961-.713.357-.856.854-1.385,1.25a3.851,3.851,0,0,1-3.521.48,2.455,2.455,0,0,1-1.73-2.2,2.169,2.169,0,0,0,1.439,1.248,3.853,3.853,0,0,0,3.521-.48c.529-.4.673-.894,1.385-1.25.919-.46,2-.562,2.769-.882,2.161-.9,4.5-2.519,5.25-5.078A1.226,1.226,0,0,0,1930.249,3221.889Z" transform="translate(-1915.731 -3219.336)" fill="#e5e5e5" fill-rule="evenodd"/>
            <path id="Trazado_153519" data-name="Trazado 153519" d="M1915.654,3216.043a13.145,13.145,0,0,1,.178,3.544,1.738,1.738,0,0,0,1.582,2.147c1.455.279,4.062-1.123,3.82-2.664a21.4,21.4,0,0,1,.186-4.35Z" transform="translate(-1915.48 -3214.721)" fill="#ffa698" fill-rule="evenodd"/>
            <path id="Trazado_153520" data-name="Trazado 153520" d="M1921.653,3224.294a2.561,2.561,0,0,0,1,.145c.7,2.616-4.8,8.24-7.351,4.481a14.46,14.46,0,0,1,.036-4.2c.174-.433.495-.442,1.018-.291,1.112.322,1.454,1.784,2.219,1.933a1.685,1.685,0,0,0,1.819-1.183,16.188,16.188,0,0,0,.443-1.984c.211-.424.6-.167.535.031A1.085,1.085,0,0,0,1921.653,3224.294Z" transform="translate(-1915.166 -3220.029)" fill="#1c236c" fill-rule="evenodd"/>
            <path id="Trazado_153521" data-name="Trazado 153521" d="M1953.722,3220.988a.822.822,0,0,1,.6.5,5.408,5.408,0,0,1,0,1.236c.6-1.37-.011-2.088-.592-2.314a1.108,1.108,0,0,0-.51-.085c.131.079.13.134.126.2A.428.428,0,0,0,1953.722,3220.988Z" transform="translate(-1939.67 -3218.329)" fill="#e5e5e5" fill-rule="evenodd"/>
          </g>
          <g id="Grupo_87347" data-name="Grupo 87347">
            <path id="Trazado_153522" data-name="Trazado 153522" d="M1913.73,3032.779c5.388-.735,7.347,3.815,8.01,9.5.809,6.93,2.492,12.725.541,20.859-1.126,4.692-2.606,7.572-2.992,10.249-.375,2.607-.633,6.446-.85,9.473-.227,3.172-1.86,13.714-1.906,15.921-.1,2.216-3.811,3.329-5.386,1.466-.5-3.717-1.674-16.028-1.479-19.416.3-5.184,1.731-7.415,2.294-12.644.578-5.374-1-11.232-1.581-16.614-2.12-4.008-1.887-7.14-.76-9.911C1910.918,3038.475,1912.587,3037.266,1913.73,3032.779Z" transform="translate(-1908.777 -3032.7)" fill-rule="evenodd" fill="url(#linear-gradient-17)"/>
            <path id="Trazado_153523" data-name="Trazado 153523" d="M1928.133,3052.429a20.017,20.017,0,0,1,.466,2.549c.791,6.933,2.492,12.724.541,20.859-1.125,4.692-2.606,7.572-2.991,10.249-.375,2.607-.633,6.447-.85,9.473-.227,3.172-1.989,13.939-2.034,16.146a2.105,2.105,0,0,1-1.792,2.094c-.449-7.223-.8-13.635.069-20.373.573-4.415,1.821-9.067,2.09-12.443.6-7.457-1.119-13.354-4.2-15.743a4.906,4.906,0,0,0,4.153-.258C1923.084,3060.637,1925.611,3056.069,1928.133,3052.429Z" transform="translate(-1915.634 -3045.402)" fill="#1e2353" fill-rule="evenodd" opacity="0.3" style="mix-blend-mode: multiply;isolation: isolate"/>
            <path id="Trazado_153524" data-name="Trazado 153524" d="M1920.793,3214.236c-.051.63-.131,1.228-.138,1.548-.1,2.217-4.2,3.2-5.772,1.337-.057-.419-.234-1.139-.305-1.75C1915.949,3216.4,1918.549,3217.189,1920.793,3214.236Z" transform="translate(-1912.512 -3149.577)" fill-rule="evenodd" fill="url(#linear-gradient-18)"/>
          </g>
        </g>
        <g id="Grupo_87351" data-name="Grupo 87351" transform="translate(11.188 60.958)">
          <g id="Grupo_87349" data-name="Grupo 87349" transform="translate(0 54.353)">
            <path id="Trazado_153525" data-name="Trazado 153525" d="M1933.311,3202.879c.263-2.54,2.342-7.415,2.834-8.809l-5.017-2.581c-.852,3.2-.552,5.458-2.491,6.891Z" transform="translate(-1925.075 -3191.489)" fill="#ffa698" fill-rule="evenodd"/>
            <path id="Trazado_153526" data-name="Trazado 153526" d="M1926,3210.6c-.87-.912-.344-1.518-.677-3.016a1.932,1.932,0,0,0-1.083-1.428c-.8-.283-.995.291-1.6.693-.8.528-1.253.487-1.786,1.241-2.232.568-2.407,2.566-1.879,4.569.49,1.858,1.017,2.042,1.05,3.02a4.455,4.455,0,0,1-.276,1.277c-.453,1.542.554,3.4,1.255,4.348a7.2,7.2,0,0,0,5.706,2.343c.378-.035.56-.383.593-.843a38.963,38.963,0,0,0-.643-5.295,12.4,12.4,0,0,1,.137-2.884,26.457,26.457,0,0,0,.594-3.927C1927.316,3209.83,1927.054,3211.7,1926,3210.6Z" transform="translate(-1918.696 -3200.881)" fill="#293288" fill-rule="evenodd"/>
            <path id="Trazado_153527" data-name="Trazado 153527" d="M1921.562,3211.474c-2.961.147-3.144,2.515-2.586,4.657.484,1.86,1.016,2.042,1.05,3.02a4.445,4.445,0,0,1-.276,1.276c-.453,1.542.554,3.4,1.255,4.349a7.2,7.2,0,0,0,5.706,2.342.6.6,0,0,0,.458-.307,6.1,6.1,0,0,0-.609-2.62,14.611,14.611,0,0,1-1.49-3.437c-.271-1.072-.066-2.722-.276-3.973C1924.266,3213.635,1923.832,3211.805,1921.562,3211.474Z" transform="translate(-1918.694 -3204.356)" fill="#fff" fill-rule="evenodd"/>
            <path id="Trazado_153528" data-name="Trazado 153528" d="M1918.639,3215.826a8.018,8.018,0,0,0,.28,1.741c.484,1.86,1.017,2.042,1.05,3.02a4.464,4.464,0,0,1-.276,1.276c-.453,1.542.554,3.4,1.256,4.348a7.2,7.2,0,0,0,5.706,2.343.544.544,0,0,0,.269-.1,2.467,2.467,0,0,0-.276-1.182c-.81-1.869-2.805-4.534-3.02-6.3-.1-.85.056-1.53.02-2.3a6.547,6.547,0,0,0-1.165-3.732C1921.321,3213.381,1918.55,3212.918,1918.639,3215.826Z" transform="translate(-1918.637 -3205.792)" fill="#eaeaed" fill-rule="evenodd"/>
          </g>
          <g id="Grupo_87350" data-name="Grupo 87350" transform="translate(3.713)">
            <path id="Trazado_153529" data-name="Trazado 153529" d="M1938.258,3074.22c-.59-4.974-2.274-9.816-3.8-14.526-7.189-4.364-6.09-11.5-3.062-16.45l7.645-2.561c.775,1.236,1.355-2.5,1.889-1.675a54.344,54.344,0,0,1,4.386,10.554,57.629,57.629,0,0,1,1.69,21.529c-.064.745-.177,1.892-.249,2.993,0,.2-.142,1.5-.177,1.678-.27,2.554-9.479,20.383-11.61,24.639-.192-1.831-3.077-3.677-4.642-2.906.961-6.427,2.274-12.392,3.213-14.7C1935.461,3078.065,1937.019,3076.607,1938.258,3074.22Z" transform="translate(-1929.061 -3038.887)" fill-rule="evenodd" fill="url(#linear-gradient-19)"/>
            <path id="Trazado_153530" data-name="Trazado 153530" d="M1938.332,3200.785c-.388.768-.694,1.068-1.067,1.813-.192-1.831-3.077-3.677-4.642-2.906.128-.856,0-1.093.144-1.924C1934.264,3197.075,1938.294,3198.934,1938.332,3200.785Z" transform="translate(-1931.354 -3141.083)" fill-rule="evenodd" fill="url(#linear-gradient-20)"/>
          </g>
        </g>
        <path id="Trazado_153531" data-name="Trazado 153531" d="M1927.7,2987.926c-.24-.582-.294-1.137-.484-1.761,1.442-4.662-1.872-6.046.789-11.838,1.83-3.983,2.329-6.364,1.467-8.33-1.9-4.328-13.818-9.637-18.428-10.158-3.185-.36-5,2.994-4.971,6.429.07,9.182,3.11,10.1,3.5,19.717a9.464,9.464,0,0,0,.934,2.987c.025.57.037,1.489.059,2.01C1911.863,2991.089,1927.546,2992.4,1927.7,2987.926Z" transform="translate(-1899.361 -2924.443)" fill="#7ff9ff" fill-rule="evenodd"/>
        <path id="Trazado_153532" data-name="Trazado 153532" d="M1927.7,2987.926a10.09,10.09,0,0,1-.4-1.445c-3,2.726-9.133,1.828-12.581.487-.346-3.385-.9-4.8-.193-6.889,3.674-1.725,6.721-3.346,8.726-5.188,3.551-3.263,3.836-7.221-1.451-13.675l.484-1.192c-4.049-2.194-8.732-3.9-11.245-4.185-3.185-.36-5,2.994-4.971,6.429.07,9.182,3.11,10.1,3.5,19.716a9.451,9.451,0,0,0,.934,2.987c.025.57.037,1.489.059,2.01C1911.863,2991.088,1927.546,2992.4,1927.7,2987.926Z" transform="translate(-1899.361 -2924.443)" fill="#ff8fd5" fill-rule="evenodd" opacity="0.5" style="mix-blend-mode: multiply;isolation: isolate"/>
        <g id="Grupo_87352" data-name="Grupo 87352" transform="translate(24.907 26.977)">
          <path id="Trazado_153533" data-name="Trazado 153533" d="M2026.767,2946.769a2.458,2.458,0,0,0-.153.729,5.826,5.826,0,0,0-.353,1.106,10.258,10.258,0,0,0-.09,1.82,3.994,3.994,0,0,0,.159,1.119,10.274,10.274,0,0,1-1.841,2.173l2.168,1.653c.915-.6,1.629-1.236,2.417-1.761a2.652,2.652,0,0,0,1.055-.6c.5-.523,1.981-2.079,2.065-2.689a13.945,13.945,0,0,0-.24-3.11c-.392-2.2-1.229-4.505-1.372-3.486-.209.244-.038,2.229-.171,2.523-.513.591-.758.833-1.4,1.538a7.415,7.415,0,0,1-.854.516c-.222.06-.344-.095-.352-.29a9.281,9.281,0,0,1,.245-1.171c0-.941-.234-1.475-.737-1.425a.5.5,0,0,0-.473.44C2026.789,2946.081,2026.8,2946.385,2026.767,2946.769Z" transform="translate(-2000.506 -2943.48)" fill="#ff9e8f" fill-rule="evenodd"/>
          <path id="Trazado_153534" data-name="Trazado 153534" d="M1961.144,2970.425c2.985.46,9.166,4.113,13.139,5.893,2.217-3.159,5.124-6.944,6.918-8.218a5.918,5.918,0,0,0,.892-.641q.391-.478.76-.984c1.121.156,2.745,1.555,2.724,2.216-.181.331-.365.676-.551,1.032a6.764,6.764,0,0,0-.156,1.053c-.609,2.211-3.964,7.32-5.528,9.6-.9,1.317-1.222,2.09-1.834,2.483-.982.631-2.3.286-4.838-.352-2.136-.537-9.035-1.739-12.209-3.414-2.238-1.181-3.955-3.361-3.066-5.81C1957.965,2971.714,1959.224,2970.129,1961.144,2970.425Z" transform="translate(-1957.156 -2958.285)" fill="#7ff9ff" fill-rule="evenodd"/>
        </g>
        <g id="Grupo_87356" data-name="Grupo 87356" transform="translate(0 13.61)">
          <g id="Grupo_87354" data-name="Grupo 87354">
            <g id="Grupo_87353" data-name="Grupo 87353" transform="translate(12.063 1.395)">
              <path id="Trazado_153535" data-name="Trazado 153535" d="M1924.365,2944.61c-.353,1.5,5.109,3.111,6.98,2.3l.039-.362c.483-2.232.957-4.128,1.291-5.7.87.371,3.006.479,3.194.181-5.758-4.6-12.49-8-13.356-5.676.571,1.682,2.044,2.877,2.781,3.972a3.452,3.452,0,0,1,.386,1.505h0A16.271,16.271,0,0,1,1924.365,2944.61Z" transform="translate(-1922.008 -2925.794)" fill-rule="evenodd" fill="url(#linear-gradient-21)"/>
              <path id="Trazado_153536" data-name="Trazado 153536" d="M1934.923,2925.131c-.5.323-4.021-.849-4.306-.834-2.742.136-5.693-.087-6.237-.9-.737-1.095-2.211-2.291-2.781-3.972-.912-2.688-.734-5.719,1.724-7.829,4.273-3.669,10.977-.98,11.937,3.176.394,1.7-.094,1.846-.013,2.988a17.666,17.666,0,0,1,.193,4.639C1935.366,2923.67,1935.253,2924.916,1934.923,2925.131Z" transform="translate(-1921.094 -2909.868)" fill="#ffa698" fill-rule="evenodd"/>
              <path id="Trazado_153537" data-name="Trazado 153537" d="M1927.982,2957.064c.15,1.361,3.982,2.321,6.305,1.78.249-.058.4-.106.493-.263a4.988,4.988,0,0,1,1.377,2.2c-2.008,1.936-8.355.8-9.126-1.467A1.706,1.706,0,0,1,1927.982,2957.064Z" transform="translate(-1924.836 -2940.254)" fill="#7fc2ea" fill-rule="evenodd"/>
            </g>
            <path id="Trazado_153538" data-name="Trazado 153538" d="M1891.859,2919.646c-3.653,3.055-5.711,8.556-4.049,11.677,1.506,2.829,5.18,4.492,4.05,6.283-.935,1.48-3.134,2.964-.518,5.354,1.347,1.23,4.637,4.531,11.354,2.821,6.547-1.667,13.416-7.321,7.9-13.5-5.8-6.507-2.409-7.946.92-13.063,1.76-2.706,3.334-8.053,1.826-10.042-2.587-3.411-4.3-.953-6.794-2.158-4.747-2.3-8.641-.655-10.873,2.939C1893.677,2913.171,1894.764,2917.216,1891.859,2919.646Z" transform="translate(-1887.227 -2905.952)" fill-rule="evenodd" fill="url(#linear-gradient-22)"/>
          </g>
          <g id="Grupo_87355" data-name="Grupo 87355" transform="translate(7.374 0.265)">
            <path id="Trazado_153539" data-name="Trazado 153539" d="M1920.908,2908.444c3.618,2.616.561,9.28-3.6,12.226-3.721,2.635-8.391,1.85-8.922-.284-1.124-4.514-.173-9.6,2.849-12.066C1914.187,2905.916,1917.836,2906.37,1920.908,2908.444Z" transform="translate(-1907.929 -2906.696)" fill-rule="evenodd" fill="url(#linear-gradient-23)"/>
            <path id="Trazado_153540" data-name="Trazado 153540" d="M1941.4,2910.245c10.459.739,1.16,13.647-2.447,17.7l-.644-3.412C1941.616,2920.121,1944.479,2915.845,1941.4,2910.245Z" transform="translate(-1927.491 -2908.981)" fill-rule="evenodd" fill="url(#linear-gradient-24)"/>
          </g>
        </g>
      </g>
    </g>
  </g>
</svg>
