<svg xmlns="http://www.w3.org/2000/svg" width="295.333" height="378.798" viewBox="0 0 295.333 378.798">
  <g id="Grupo_68336" data-name="Grupo 68336" transform="translate(-2519.977 -2838.157)">
    <g id="Grupo_68327" data-name="Grupo 68327" transform="translate(2596.445 2838.157)">
      <path id="Trazado_151038" data-name="Trazado 151038" d="M2781.908,3142.994s-77.181,41.088-73.513,68.313,58.235,6.179,58.235,6.179Z" transform="translate(-2701.992 -3009.033)" fill="#332938"/>
      <path id="Trazado_151039" data-name="Trazado 151039" d="M2918.2,2853.252l33.689-15.094,32.4,28.288-6.65,2.217-3.22,11.462Z" transform="translate(-2819.67 -2838.158)" fill="#ae9bff"/>
      <path id="Trazado_151040" data-name="Trazado 151040" d="M2866.274,2964.83s13.344,8.3-2.546,22.236S2837,3023.236,2846.43,3039s24.121,19,24.121,19l50.12-54.887S2938.613,2938.793,2866.274,2964.83Z" transform="translate(-2777.469 -2905.685)" fill="#332938"/>
      <path id="Trazado_151041" data-name="Trazado 151041" d="M2761.633,3158.863l-67.648,137.626h61.732Z" transform="translate(-2693.985 -3017.927)" fill="#332938"/>
      <g id="Grupo_68317" data-name="Grupo 68317" transform="translate(47.117 219.09)">
        <path id="Trazado_151042" data-name="Trazado 151042" d="M2921.742,3658.381c-.314-.462-.63-.91-.963-1.347a40.656,40.656,0,0,0-70.633,9.727h77.3Z" transform="translate(-2828.638 -3507.053)" fill="#b0b7c7"/>
        <path id="Trazado_151043" data-name="Trazado 151043" d="M2899.294,3495.518l-32.647-158.808L2803.623,3354c-7.671,32.433,4.65,103.562,12.518,142.413h80.621Z" transform="translate(-2801.203 -3336.71)" fill="#b0b7c7"/>
        <path id="Trazado_151044" data-name="Trazado 151044" d="M2871.39,3336.71l-61.728,93.165,3.823,25.778Z" transform="translate(-2805.945 -3336.71)" fill="#332938"/>
        <g id="Grupo_68316" data-name="Grupo 68316" transform="translate(51.57 58.803)">
          <path id="Trazado_151045" data-name="Trazado 151045" d="M2937.171,3566.182a17.141,17.141,0,0,1-1.87-3.608l-14.88-92.055-1.868.3,14.941,92.324a18.937,18.937,0,0,0,2.113,4.1l2.843,4.178h2.288Z" transform="translate(-2918.554 -3470.519)" fill="#8b919e"/>
        </g>
      </g>
      <g id="Grupo_68321" data-name="Grupo 68321" transform="translate(80.852 13.921)">
        <ellipse id="Elipse_10" data-name="Elipse 10" cx="34.294" cy="32.731" rx="34.294" ry="32.731" transform="matrix(0.983, -0.181, 0.181, 0.983, 0, 12.425)" fill="#332938"/>
        <rect id="Rectángulo_7187" data-name="Rectángulo 7187" width="28.074" height="32.677" transform="translate(62.35 84.117) rotate(169.563)" fill="#f37453"/>
        <path id="Trazado_151046" data-name="Trazado 151046" d="M2951.811,3037.851l16.609-5.235-15.086,13.5Z" transform="translate(-2919.361 -2961.082)" fill="#332938"/>
        <path id="Trazado_151047" data-name="Trazado 151047" d="M2925.652,2974.329l26.534-8.039-6.008-32.618c-1.946-10.561-12.492-17.469-23.557-15.431h0c-11.064,2.038-18.457,12.251-16.511,22.811l3.962,21.51C2911.528,2970.466,2918.522,2977.1,2925.652,2974.329Z" transform="translate(-2893.57 -2896.77)" fill="#f37453"/>
        <path id="Trazado_151048" data-name="Trazado 151048" d="M2910.212,2990.206l1.924,10.443a4.152,4.152,0,0,0,1.219-.038c2.633-.485,4.327-3.3,3.778-6.282-.551-3-3.135-5.007-5.768-4.522A4.173,4.173,0,0,0,2910.212,2990.206Z" transform="translate(-2896.043 -2937.045)" fill="#c75450"/>
        <path id="Trazado_151049" data-name="Trazado 151049" d="M2945.423,2929.058l6.064-1.117-5.209-28.28-34.344,6.326h0A28.755,28.755,0,0,0,2945.423,2929.058Z" transform="translate(-2897.008 -2886.554)" fill="#332938"/>
        <circle id="Elipse_11" data-name="Elipse 11" cx="9.29" cy="9.29" r="9.29" transform="matrix(0.673, -0.74, 0.74, 0.673, 42.521, 48.333)" fill="#f37453"/>
        <path id="Trazado_151050" data-name="Trazado 151050" d="M2956.095,2986.232a5.821,5.821,0,1,0,4.67-6.779A5.821,5.821,0,0,0,2956.095,2986.232Z" transform="translate(-2921.708 -2931.227)" fill="#c75450"/>
        <g id="Grupo_68320" data-name="Grupo 68320" transform="translate(17.609 47.797)">
          <g id="Grupo_68318" data-name="Grupo 68318" transform="translate(14.939 15.008)">
            <path id="Trazado_151051" data-name="Trazado 151051" d="M2953.468,3017.351a5.451,5.451,0,0,1-1.434-.17l.435-1.406-.218.7.214-.7c.139.04,3.492.981,6.039-3.021l1.24.79C2957.685,3016.779,2955.063,3017.351,2953.468,3017.351Z" transform="translate(-2952.034 -3012.753)" fill="#332938"/>
          </g>
          <circle id="Elipse_12" data-name="Elipse 12" cx="1.838" cy="1.838" r="1.838" transform="translate(15.82)" fill="#332938"/>
          <circle id="Elipse_13" data-name="Elipse 13" cx="1.838" cy="1.838" r="1.838" transform="translate(0 2.914)" fill="#332938"/>
          <g id="Grupo_68319" data-name="Grupo 68319" transform="translate(6.706 2.469)">
            <path id="Trazado_151052" data-name="Trazado 151052" d="M2935.451,2993.935a1.651,1.651,0,0,1-1.64-1.544l-.512-8.08,1.468-.093.512,8.079.484.847-1.062-.494,4.7-1.589.5,1.385-3.884,1.39A1.659,1.659,0,0,1,2935.451,2993.935Z" transform="translate(-2933.299 -2984.219)" fill="#332938"/>
          </g>
        </g>
      </g>
      <path id="Trazado_151053" data-name="Trazado 151053" d="M2983.833,3618.281l-18.954,35.97h13.941Z" transform="translate(-2845.834 -3275.454)" fill="#332938"/>
      <g id="Grupo_68323" data-name="Grupo 68323" transform="translate(37.216 219.09)">
        <path id="Trazado_151054" data-name="Trazado 151054" d="M2819.267,3612.456a40.622,40.622,0,0,0-34.529,19.2c-.359.577-.71,1.173-1.041,1.768a40.342,40.342,0,0,0-4.872,15.534q-.1,1.007-.152,2.033h81.186A40.642,40.642,0,0,0,2819.267,3612.456Z" transform="translate(-2778.673 -3491.279)" fill="#b0b7c7"/>
        <path id="Trazado_151055" data-name="Trazado 151055" d="M2904.469,3405.588l-48.292-68.878c-34.759,31.805-73.655,150.025-73.655,150.025l37.011,9.683h47.095Z" transform="translate(-2780.831 -3336.71)" fill="#b0b7c7"/>
        <g id="Grupo_68322" data-name="Grupo 68322" transform="translate(58.65 12.673)">
          <path id="Trazado_151056" data-name="Trazado 151056" d="M2914.027,3504.4a17.063,17.063,0,0,1,.478-4.011l70.4-133.963-1.676-.881-70.5,134.167-.027.11a18.965,18.965,0,0,0-.561,4.578v8.179h1.892Z" transform="translate(-2912.135 -3365.549)" fill="#8b919e"/>
        </g>
      </g>
      <path id="Trazado_151057" data-name="Trazado 151057" d="M2914.873,3263.439l-160.755,18.573,41.223-177.866,47.944-37.811,27.61-5.085,18.848,29.082Z" transform="translate(-2727.693 -2963.212)" fill="#ffe680"/>
      <path id="Trazado_151058" data-name="Trazado 151058" d="M3035.1,3113.685s65.7,65.137,51.274,91.748c-21.53,39.727-75.015-31.88-75.015-31.88Z" transform="translate(-2871.886 -2992.604)" fill="#d07efc"/>
      <path id="Trazado_151059" data-name="Trazado 151059" d="M2872.714,3241.1l105.4,0-20.734-156.806-4.272-4.932-.962-1.115-14.761-17.006-13.595,37.83-.895,2.483Z" transform="translate(-2794.171 -2963.205)" fill="#d07efc"/>
      <path id="Trazado_151060" data-name="Trazado 151060" d="M2962.753,2910.35s-16.774-16.888-34.268-18.9a58.712,58.712,0,0,0-31.11,5.128l9.154-24.072s16.609,0,28.251,2.794c19.775,4.744,31.192,20.005,31.192,20.005Z" transform="translate(-2807.995 -2857.411)" fill="#cfc4ff"/>
      <g id="Grupo_68326" data-name="Grupo 68326" transform="translate(101.106 115.04)">
        <g id="Grupo_68324" data-name="Grupo 68324" transform="translate(27.613)">
          <path id="Trazado_151061" data-name="Trazado 151061" d="M2986.891,3123.244l13.224-9.711,1.908-1.4,15.081-11.079-.962-1.115-28.356,20.823Z" transform="translate(-2986.891 -3099.938)" fill="#332938"/>
        </g>
        <g id="Grupo_68325" data-name="Grupo 68325" transform="translate(0 11.569)">
          <path id="Trazado_151062" data-name="Trazado 151062" d="M2924.057,3277.55h1.52l41.225-150.662.068-.236-1.419-.389-.558,2.027Z" transform="translate(-2924.057 -3126.263)" fill="#332938"/>
        </g>
      </g>
    </g>
    <g id="Grupo_68335" data-name="Grupo 68335" transform="translate(2519.977 2839.677)">
      <path id="Trazado_151063" data-name="Trazado 151063" d="M2799.381,3186.546l34.093,100.479c1.329,3.918-1.435,8.412-6.161,10.016l-87.4,29.654a10.6,10.6,0,0,1-3.361.57,7.906,7.906,0,0,1-7.231-3.875,5.544,5.544,0,0,1-.388-.895l-34.093-100.479c-1.329-3.918,1.436-8.409,6.159-10.011l87.395-29.654C2793.125,3180.747,2798.051,3182.627,2799.381,3186.546Z" transform="translate(-2617.811 -3032.293)" fill="#332938" opacity="0.31"/>
      <path id="Trazado_151064" data-name="Trazado 151064" d="M2624.826,2842.8l-92.7,34.593a18.68,18.68,0,0,0-10.969,24.032l81.782,219.148a18.68,18.68,0,0,0,24.032,10.97l92.7-34.592a18.681,18.681,0,0,0,10.97-24.032l-81.783-219.148A18.68,18.68,0,0,0,2624.826,2842.8Z" transform="translate(-2519.977 -2841.617)" fill="#547896"/>
      <path id="Trazado_151065" data-name="Trazado 151065" d="M2631.709,3132.743a16.35,16.35,0,0,1-21.01-9.59l-80.743-216.363a16.349,16.349,0,0,1,9.59-21.01l90.771-33.874a16.349,16.349,0,0,1,21.009,9.591l80.742,216.363a16.348,16.348,0,0,1-9.589,21.01Z" transform="translate(-2524.992 -2846.807)" fill="#ffc8b7"/>
      <path id="Trazado_151066" data-name="Trazado 151066" d="M2651.3,2861.484l11.784,31.576-121.367,45.292-11.783-31.576a16.344,16.344,0,0,1,9.6-21.008l90.776-33.875A16.338,16.338,0,0,1,2651.3,2861.484Z" transform="translate(-2524.98 -2846.8)" fill="#619ed7"/>
      <path id="Rectángulo_7188" data-name="Rectángulo 7188" d="M18.438,0h0A18.438,18.438,0,0,1,36.875,18.438V27.87a0,0,0,0,1,0,0H0a0,0,0,0,1,0,0V18.438A18.438,18.438,0,0,1,18.438,0Z" transform="translate(15.804 62.153) rotate(-20.465)" fill="#edbdb2"/>
      <path id="Trazado_151067" data-name="Trazado 151067" d="M2679.431,2946.885l68.961,184.791a16.387,16.387,0,0,1-9.571,21.011l-90.775,33.876a16.358,16.358,0,0,1-19.582-6.684,16.115,16.115,0,0,1-1.438-2.91l-68.961-184.791Z" transform="translate(-2541.326 -2900.625)" fill="#fff"/>
      <g id="Grupo_68331" data-name="Grupo 68331" transform="translate(32.999 84.078)">
        <g id="Grupo_68330" data-name="Grupo 68330" transform="translate(0 0)">
          <g id="Grupo_68328" data-name="Grupo 68328" transform="translate(32.666 80.793)">
            <rect id="Rectángulo_7189" data-name="Rectángulo 7189" width="3.924" height="3.924" transform="matrix(0.937, -0.35, 0.35, 0.937, 0, 25.448)" fill="#b0b7c7"/>
            <rect id="Rectángulo_7190" data-name="Rectángulo 7190" width="3.924" height="3.924" transform="translate(2.946 33.341) rotate(-20.465)" fill="#b0b7c7"/>
            <rect id="Rectángulo_7191" data-name="Rectángulo 7191" width="3.924" height="3.924" transform="matrix(0.937, -0.35, 0.35, 0.937, 5.891, 41.234)" fill="#b0b7c7"/>
            <rect id="Rectángulo_7192" data-name="Rectángulo 7192" width="3.924" height="3.924" transform="translate(8.837 49.127) rotate(-20.465)" fill="#b0b7c7"/>
            <rect id="Rectángulo_7193" data-name="Rectángulo 7193" width="3.924" height="3.924" transform="matrix(0.937, -0.35, 0.35, 0.937, 11.782, 57.02)" fill="#b0b7c7"/>
            <rect id="Rectángulo_7194" data-name="Rectángulo 7194" width="3.924" height="3.924" transform="translate(14.728 64.913) rotate(-20.465)" fill="#b0b7c7"/>
            <rect id="Rectángulo_7195" data-name="Rectángulo 7195" width="3.924" height="3.924" transform="translate(17.673 72.806) rotate(-20.465)" fill="#b0b7c7"/>
            <rect id="Rectángulo_7196" data-name="Rectángulo 7196" width="3.924" height="3.924" transform="matrix(0.937, -0.35, 0.35, 0.937, 20.619, 80.699)" fill="#b0b7c7"/>
            <rect id="Rectángulo_7197" data-name="Rectángulo 7197" width="3.924" height="3.924" transform="matrix(0.937, -0.35, 0.35, 0.937, 23.564, 88.592)" fill="#b0b7c7"/>
            <rect id="Rectángulo_7198" data-name="Rectángulo 7198" width="3.924" height="3.924" transform="matrix(0.937, -0.35, 0.35, 0.937, 26.51, 96.485)" fill="#b0b7c7"/>
            <rect id="Rectángulo_7199" data-name="Rectángulo 7199" width="24.807" height="3.924" transform="translate(26.22 15.663) rotate(-20.465)" fill="#edbdb2"/>
            <rect id="Rectángulo_7200" data-name="Rectángulo 7200" width="41.953" height="3.924" transform="matrix(0.937, -0.35, 0.35, 0.937, 28.85, 22.71)" fill="#ffca80"/>
            <rect id="Rectángulo_7201" data-name="Rectángulo 7201" width="5.445" height="3.924" transform="translate(54.162 23.22) rotate(-20.465)" fill="#f37453"/>
            <rect id="Rectángulo_7202" data-name="Rectángulo 7202" width="8.167" height="3.924" transform="translate(60.751 29.753) rotate(-20.465)" fill="#f37453"/>
            <rect id="Rectángulo_7203" data-name="Rectángulo 7203" width="8.167" height="3.924" transform="translate(63.697 37.646) rotate(-20.465)" fill="#f37453"/>
            <rect id="Rectángulo_7204" data-name="Rectángulo 7204" width="8.167" height="3.924" transform="translate(62.452 47.103) rotate(-20.465)" fill="#f37453"/>
            <rect id="Rectángulo_7205" data-name="Rectángulo 7205" width="21.403" height="3.924" transform="translate(41.031 55.097) rotate(-20.465)" fill="#ffca80"/>
            <rect id="Rectángulo_7206" data-name="Rectángulo 7206" width="3.176" height="3.924" transform="translate(69.588 53.433) rotate(-20.465)" fill="#f37453"/>
            <rect id="Rectángulo_7207" data-name="Rectángulo 7207" width="8.167" height="3.924" transform="translate(102.809 23.05) rotate(-20.465)" fill="#f37453"/>
            <rect id="Rectángulo_7208" data-name="Rectángulo 7208" width="3.514" height="3.924" transform="translate(72.928 34.202) rotate(-20.465)" fill="#edbdb2"/>
            <rect id="Rectángulo_7209" data-name="Rectángulo 7209" width="25.673" height="3.924" transform="translate(77.38 32.54) rotate(-20.465)" fill="#edbdb2"/>
            <rect id="Rectángulo_7210" data-name="Rectángulo 7210" width="4.667" height="3.924" transform="translate(69.618 26.445) rotate(-20.465)" fill="#619ed7"/>
            <rect id="Rectángulo_7211" data-name="Rectángulo 7211" width="4.667" height="3.924" transform="translate(89.904 18.874) rotate(-20.465)" fill="#ffd0ab"/>
            <rect id="Rectángulo_7212" data-name="Rectángulo 7212" width="14.458" height="3.924" transform="translate(75.083 24.405) rotate(-20.465)" fill="#edbdb2"/>
            <rect id="Rectángulo_7213" data-name="Rectángulo 7213" width="9.856" height="3.924" transform="translate(74.082 51.756) rotate(-20.465)" fill="#edbdb2"/>
            <rect id="Rectángulo_7214" data-name="Rectángulo 7214" width="7.261" height="3.924" transform="translate(99.23 42.371) rotate(-20.465)" fill="#ffd0ab"/>
            <rect id="Rectángulo_7215" data-name="Rectángulo 7215" width="14.458" height="3.924" transform="translate(84.409 47.902) rotate(-20.465)" fill="#619ed7"/>
            <rect id="Rectángulo_7216" data-name="Rectángulo 7216" width="3.435" height="3.924" transform="translate(83.46 2.33) rotate(-20.465)" fill="#ffd0ab"/>
            <rect id="Rectángulo_7217" data-name="Rectángulo 7217" width="12.966" height="3.924" transform="translate(69.673 7.475) rotate(-20.465)" fill="#619ed7"/>
            <rect id="Rectángulo_7218" data-name="Rectángulo 7218" width="5.445" height="3.924" transform="translate(72.534 61.326) rotate(-20.465)" fill="#f37453"/>
            <rect id="Rectángulo_7219" data-name="Rectángulo 7219" width="8.624" height="3.924" transform="translate(90.51 54.617) rotate(-20.465)" fill="#ffd0ab"/>
            <rect id="Rectángulo_7220" data-name="Rectángulo 7220" width="10.371" height="3.924" transform="translate(79.153 58.855) rotate(-20.465)" fill="#619ed7"/>
            <rect id="Rectángulo_7221" data-name="Rectángulo 7221" width="8.039" height="3.924" transform="matrix(0.937, -0.35, 0.35, 0.937, 60.66, 2.811)" fill="#edbdb2"/>
            <rect id="Rectángulo_7222" data-name="Rectángulo 7222" width="10.89" height="3.924" transform="translate(75.795 70.065) rotate(-20.465)" fill="#edbdb2"/>
            <rect id="Rectángulo_7223" data-name="Rectángulo 7223" width="15.822" height="3.924" transform="translate(78.425 77.112) rotate(-20.465)" fill="#f37453"/>
            <rect id="Rectángulo_7224" data-name="Rectángulo 7224" width="16.407" height="3.924" transform="translate(106.123 66.775) rotate(-20.465)" fill="#ffd0ab"/>
            <rect id="Rectángulo_7225" data-name="Rectángulo 7225" width="10.371" height="3.924" transform="translate(94.767 71.013) rotate(-20.465)" fill="#619ed7"/>
            <rect id="Rectángulo_7226" data-name="Rectángulo 7226" width="5.445" height="3.924" transform="translate(88.184 65.442) rotate(-20.465)" fill="#edbdb2"/>
          </g>
          <g id="Grupo_68329" data-name="Grupo 68329">
            <rect id="Rectángulo_7227" data-name="Rectángulo 7227" width="3.924" height="3.924" transform="matrix(0.937, -0.35, 0.35, 0.937, 0, 18.707)" fill="#b0b7c7"/>
            <rect id="Rectángulo_7228" data-name="Rectángulo 7228" width="3.924" height="3.924" transform="matrix(0.937, -0.35, 0.35, 0.937, 2.946, 26.6)" fill="#b0b7c7"/>
            <rect id="Rectángulo_7229" data-name="Rectángulo 7229" width="3.924" height="3.924" transform="translate(5.891 34.493) rotate(-20.465)" fill="#b0b7c7"/>
            <rect id="Rectángulo_7230" data-name="Rectángulo 7230" width="3.924" height="3.924" transform="translate(8.837 42.386) rotate(-20.465)" fill="#b0b7c7"/>
            <rect id="Rectángulo_7231" data-name="Rectángulo 7231" width="3.924" height="3.924" transform="matrix(0.937, -0.35, 0.35, 0.937, 11.782, 50.279)" fill="#b0b7c7"/>
            <rect id="Rectángulo_7232" data-name="Rectángulo 7232" width="3.924" height="3.924" transform="translate(14.728 58.172) rotate(-20.465)" fill="#b0b7c7"/>
            <rect id="Rectángulo_7233" data-name="Rectángulo 7233" width="3.924" height="3.924" transform="matrix(0.937, -0.35, 0.35, 0.937, 17.673, 66.065)" fill="#b0b7c7"/>
            <rect id="Rectángulo_7234" data-name="Rectángulo 7234" width="3.924" height="3.924" transform="translate(20.619 73.958) rotate(-20.465)" fill="#b0b7c7"/>
            <rect id="Rectángulo_7235" data-name="Rectángulo 7235" width="3.924" height="3.924" transform="matrix(0.937, -0.35, 0.35, 0.937, 23.564, 81.852)" fill="#b0b7c7"/>
            <rect id="Rectángulo_7236" data-name="Rectángulo 7236" width="3.924" height="3.924" transform="matrix(0.937, -0.35, 0.35, 0.937, 26.51, 89.744)" fill="#b0b7c7"/>
            <rect id="Rectángulo_7237" data-name="Rectángulo 7237" width="11.635" height="3.924" transform="translate(11.861 14.281) rotate(-20.465)" fill="#edbdb2"/>
            <rect id="Rectángulo_7238" data-name="Rectángulo 7238" width="19.676" height="3.924" transform="translate(14.49 21.327) rotate(-20.465)" fill="#ffca80"/>
            <rect id="Rectángulo_7239" data-name="Rectángulo 7239" width="5.817" height="3.924" transform="translate(17.752 30.067) rotate(-20.465)" fill="#f37453"/>
            <rect id="Rectángulo_7240" data-name="Rectángulo 7240" width="8.726" height="3.924" transform="translate(24.59 36.507) rotate(-20.465)" fill="#f37453"/>
            <rect id="Rectángulo_7241" data-name="Rectángulo 7241" width="8.726" height="3.924" transform="translate(27.536 44.4) rotate(-20.465)" fill="#f37453"/>
            <rect id="Rectángulo_7242" data-name="Rectángulo 7242" width="8.726" height="3.924" transform="translate(26.005 53.964) rotate(-20.465)" fill="#f37453"/>
            <rect id="Rectángulo_7243" data-name="Rectángulo 7243" width="3.393" height="3.924" transform="translate(33.427 60.186) rotate(-20.465)" fill="#f37453"/>
            <rect id="Rectángulo_7244" data-name="Rectángulo 7244" width="17.408" height="3.924" transform="translate(95.667 18.975) rotate(-20.465)" fill="#f37453"/>
            <rect id="Rectángulo_7245" data-name="Rectángulo 7245" width="8.726" height="3.924" transform="translate(37.398 40.72) rotate(-20.465)" fill="#edbdb2"/>
            <rect id="Rectángulo_7246" data-name="Rectángulo 7246" width="44.679" height="3.924" transform="translate(50.874 35.691) rotate(-20.465)" fill="#edbdb2"/>
            <rect id="Rectángulo_7247" data-name="Rectángulo 7247" width="4.986" height="3.924" transform="translate(34.064 32.972) rotate(-20.465)" fill="#619ed7"/>
            <rect id="Rectángulo_7248" data-name="Rectángulo 7248" width="9.948" height="3.924" transform="translate(71.493 19.004) rotate(-20.465)" fill="#ffd0ab"/>
            <rect id="Rectángulo_7249" data-name="Rectángulo 7249" width="30.816" height="3.924" transform="translate(39.903 30.793) rotate(-20.465)" fill="#edbdb2"/>
            <rect id="Rectángulo_7250" data-name="Rectángulo 7250" width="10.53" height="3.924" transform="translate(38.228 58.395) rotate(-20.465)" fill="#619ed7"/>
            <rect id="Rectángulo_7251" data-name="Rectángulo 7251" width="7.758" height="3.924" transform="translate(65.096 48.368) rotate(-20.464)" fill="#ffd0ab"/>
            <rect id="Rectángulo_7252" data-name="Rectángulo 7252" width="29.155" height="3.924" transform="translate(66.121 56.978) rotate(-20.465)" fill="#b0b7c7"/>
            <rect id="Rectángulo_7253" data-name="Rectángulo 7253" width="15.447" height="3.924" transform="translate(49.262 54.277) rotate(-20.465)" fill="#edbdb2"/>
            <rect id="Rectángulo_7254" data-name="Rectángulo 7254" width="7.323" height="3.924" transform="matrix(0.937, -0.35, 0.35, 0.937, 64.78, 2.56)" fill="#ffd0ab"/>
            <rect id="Rectángulo_7255" data-name="Rectángulo 7255" width="27.635" height="3.924" transform="matrix(0.937, -0.35, 0.35, 0.937, 35.394, 13.527)" fill="#619ed7"/>
            <rect id="Rectángulo_7256" data-name="Rectángulo 7256" width="5.817" height="3.924" transform="translate(36.373 68.079) rotate(-20.465)" fill="#f37453"/>
            <rect id="Rectángulo_7257" data-name="Rectángulo 7257" width="9.214" height="3.924" transform="translate(55.578 60.912) rotate(-20.465)" fill="#ffd0ab"/>
            <rect id="Rectángulo_7258" data-name="Rectángulo 7258" width="11.081" height="3.924" transform="translate(43.445 65.44) rotate(-20.465)" fill="#619ed7"/>
            <rect id="Rectángulo_7259" data-name="Rectángulo 7259" width="8.589" height="3.924" transform="matrix(0.937, -0.35, 0.35, 0.937, 25.097, 9.341)" fill="#edbdb2"/>
            <rect id="Rectángulo_7260" data-name="Rectángulo 7260" width="11.635" height="3.924" transform="translate(39.634 76.819) rotate(-20.465)" fill="#edbdb2"/>
            <rect id="Rectángulo_7261" data-name="Rectángulo 7261" width="16.905" height="3.924" transform="translate(42.264 83.865) rotate(-20.465)" fill="#f37453"/>
            <rect id="Rectángulo_7262" data-name="Rectángulo 7262" width="17.53" height="3.924" transform="translate(71.857 72.822) rotate(-20.465)" fill="#ffd0ab"/>
            <rect id="Rectángulo_7263" data-name="Rectángulo 7263" width="11.081" height="3.924" transform="translate(59.724 77.35) rotate(-20.465)" fill="#619ed7"/>
            <rect id="Rectángulo_7264" data-name="Rectángulo 7264" width="5.817" height="3.924" transform="translate(52.87 71.879) rotate(-20.465)" fill="#edbdb2"/>
          </g>
        </g>
      </g>
      <g id="Grupo_68332" data-name="Grupo 68332" transform="translate(30.322 64.475)">
        <path id="Trazado_151068" data-name="Trazado 151068" d="M2601.54,2991.862l-10.105,3.771a1.821,1.821,0,0,1-2.343-1.07h0a1.822,1.822,0,0,1,1.069-2.343l10.1-3.771a1.821,1.821,0,0,1,2.343,1.07h0A1.821,1.821,0,0,1,2601.54,2991.862Z" transform="translate(-2588.977 -2988.334)" fill="#fae2d7"/>
        <path id="Trazado_151069" data-name="Trazado 151069" d="M2601.09,3004.8l-7.528,2.81a.666.666,0,0,1-.856-.391h0a.665.665,0,0,1,.391-.856l7.528-2.809a.665.665,0,0,1,.856.39h0A.665.665,0,0,1,2601.09,3004.8Z" transform="translate(-2591.043 -2996.839)" fill="#fae2d7"/>
        <path id="Trazado_151070" data-name="Trazado 151070" d="M2606.517,3009.412l-10.341,3.859a.665.665,0,0,1-.856-.391h0a.666.666,0,0,1,.391-.856l10.341-3.859a.665.665,0,0,1,.856.391h0A.666.666,0,0,1,2606.517,3009.412Z" transform="translate(-2592.509 -2999.426)" fill="#fae2d7"/>
      </g>
      <g id="Grupo_68333" data-name="Grupo 68333" transform="translate(64.267 51.807)">
        <path id="Trazado_151071" data-name="Trazado 151071" d="M2678.784,2963.036l-10.1,3.771a1.822,1.822,0,0,1-2.343-1.07h0a1.821,1.821,0,0,1,1.07-2.343l10.1-3.771a1.821,1.821,0,0,1,2.343,1.07h0A1.821,1.821,0,0,1,2678.784,2963.036Z" transform="translate(-2666.22 -2959.507)" fill="#fae2d7"/>
        <path id="Trazado_151072" data-name="Trazado 151072" d="M2678.335,2975.97l-7.528,2.809a.665.665,0,0,1-.856-.391h0a.666.666,0,0,1,.39-.856l7.528-2.809a.665.665,0,0,1,.856.391h0A.666.666,0,0,1,2678.335,2975.97Z" transform="translate(-2668.288 -2968.013)" fill="#fae2d7"/>
        <path id="Trazado_151073" data-name="Trazado 151073" d="M2683.761,2980.586l-10.341,3.858a.664.664,0,0,1-.855-.391h0a.665.665,0,0,1,.39-.855l10.341-3.86a.665.665,0,0,1,.856.391h0A.665.665,0,0,1,2683.761,2980.586Z" transform="translate(-2669.753 -2970.6)" fill="#fae2d7"/>
      </g>
      <g id="Grupo_68334" data-name="Grupo 68334" transform="translate(98.213 39.139)">
        <path id="Trazado_151074" data-name="Trazado 151074" d="M2756.029,2934.209l-10.1,3.771a1.821,1.821,0,0,1-2.343-1.069h0a1.821,1.821,0,0,1,1.07-2.343l10.1-3.771a1.82,1.82,0,0,1,2.343,1.069h0A1.821,1.821,0,0,1,2756.029,2934.209Z" transform="translate(-2743.465 -2930.681)" fill="#fae2d7"/>
        <path id="Trazado_151075" data-name="Trazado 151075" d="M2755.579,2947.143l-7.527,2.809a.664.664,0,0,1-.856-.391h0a.664.664,0,0,1,.39-.855l7.528-2.809a.665.665,0,0,1,.856.39h0A.665.665,0,0,1,2755.579,2947.143Z" transform="translate(-2745.532 -2939.186)" fill="#fae2d7"/>
        <path id="Trazado_151076" data-name="Trazado 151076" d="M2761.007,2951.759l-10.341,3.859a.666.666,0,0,1-.856-.391h0a.664.664,0,0,1,.391-.855l10.341-3.859a.665.665,0,0,1,.856.391h0A.665.665,0,0,1,2761.007,2951.759Z" transform="translate(-2746.997 -2941.774)" fill="#fae2d7"/>
      </g>
    </g>
    <path id="Trazado_151077" data-name="Trazado 151077" d="M3030.24,3238.513l-89.637,34.246s27.954,40.058,78.157,10.351C3052.656,3263.053,3030.24,3238.513,3030.24,3238.513Z" transform="translate(-235.781 -224.418)" fill="#f37453"/>
    <path id="Trazado_151078" data-name="Trazado 151078" d="M3117.777,3250.342h0a27.027,27.027,0,0,0-34.91-15.563l-20.092,7.7,19.347,50.473,20.091-7.7A27.028,27.028,0,0,0,3117.777,3250.342Z" transform="translate(-304.264 -221.317)" fill="#d07efc"/>
    <path id="Rectángulo_7265" data-name="Rectángulo 7265" d="M0,0H8.589A29.079,29.079,0,0,1,37.667,29.079v0a0,0,0,0,1,0,0H29.078A29.078,29.078,0,0,1,0,0V0A0,0,0,0,1,0,0Z" transform="translate(2725.219 3055.065) rotate(151.892)" fill="#f37453"/>
    <path id="Rectángulo_7266" data-name="Rectángulo 7266" d="M0,0H8.589A29.078,29.078,0,0,1,37.667,29.078v0a0,0,0,0,1,0,0H29.079A29.079,29.079,0,0,1,0,0V0A0,0,0,0,1,0,0Z" transform="matrix(0.184, 0.983, -0.983, 0.184, 2570.817, 2996.303)" fill="#f37453"/>
  </g>
</svg>
