<svg xmlns="http://www.w3.org/2000/svg" xmlns:xlink="http://www.w3.org/1999/xlink" width="829.499" height="455.119" viewBox="0 0 829.499 455.119">
  <defs>
    <filter id="Elipse_8022" x="82.659" y="85.611" width="94.538" height="94.538" filterUnits="userSpaceOnUse">
      <feOffset dx="2" dy="2" input="SourceAlpha"/>
      <feGaussianBlur stdDeviation="2.5" result="blur"/>
      <feFlood flood-color="#cbcbcb"/>
      <feComposite operator="in" in2="blur"/>
      <feComposite in="SourceGraphic"/>
    </filter>
    <filter id="Elipse_8022-2" x="605.558" y="211.054" width="94.538" height="94.538" filterUnits="userSpaceOnUse">
      <feOffset dx="2" dy="2" input="SourceAlpha"/>
      <feGaussianBlur stdDeviation="2.5" result="blur-2"/>
      <feFlood flood-color="#cbcbcb"/>
      <feComposite operator="in" in2="blur-2"/>
      <feComposite in="SourceGraphic"/>
    </filter>
    <filter id="Elipse_8022-3" x="734.961" y="324.924" width="94.538" height="94.538" filterUnits="userSpaceOnUse">
      <feOffset dx="2" dy="2" input="SourceAlpha"/>
      <feGaussianBlur stdDeviation="2.5" result="blur-3"/>
      <feFlood flood-color="#cbcbcb"/>
      <feComposite operator="in" in2="blur-3"/>
      <feComposite in="SourceGraphic"/>
    </filter>
    <filter id="Elipse_8022-4" x="289.97" y="27.511" width="94.538" height="94.538" filterUnits="userSpaceOnUse">
      <feOffset dx="2" dy="2" input="SourceAlpha"/>
      <feGaussianBlur stdDeviation="2.5" result="blur-4"/>
      <feFlood flood-color="#cbcbcb"/>
      <feComposite operator="in" in2="blur-4"/>
      <feComposite in="SourceGraphic"/>
    </filter>
    <filter id="Elipse_8022-5" x="348.305" y="199.481" width="94.538" height="94.538" filterUnits="userSpaceOnUse">
      <feOffset dx="2" dy="2" input="SourceAlpha"/>
      <feGaussianBlur stdDeviation="2.5" result="blur-5"/>
      <feFlood flood-color="#087075"/>
      <feComposite operator="in" in2="blur-5"/>
      <feComposite in="SourceGraphic"/>
    </filter>
    <filter id="Elipse_8022-6" x="476.153" y="85.611" width="94.538" height="94.538" filterUnits="userSpaceOnUse">
      <feOffset dx="2" dy="2" input="SourceAlpha"/>
      <feGaussianBlur stdDeviation="2.5" result="blur-6"/>
      <feFlood flood-color="#087075"/>
      <feComposite operator="in" in2="blur-6"/>
      <feComposite in="SourceGraphic"/>
    </filter>
  </defs>
  <g id="Grupo_87379" data-name="Grupo 87379" transform="translate(-390 -2038)">
    <g id="Grupo_86213" data-name="Grupo 86213" transform="translate(390 2038)">
      <g id="Grupo_86163" data-name="Grupo 86163" transform="translate(583.261 315.334)" opacity="0.4">
        <path id="Trazado_151084" data-name="Trazado 151084" d="M5111.51,1778.556l-2.428-1.349a4.768,4.768,0,0,1-2.458-4.24c0-.2.008-.4.008-.594s0-.4-.008-.593a4.768,4.768,0,0,1,2.458-4.24l2.428-1.348a4.8,4.8,0,0,0,2.3-5.423c-.009-.022-.014-.05-.023-.073a4.784,4.784,0,0,0-4.7-3.542l-2.784.045a4.813,4.813,0,0,1-4.276-2.5c-.175-.306-.35-.611-.525-.913a4.824,4.824,0,0,1-.033-4.964l1.426-2.37a4.788,4.788,0,0,0-.718-5.845l-.06-.059a4.788,4.788,0,0,0-5.845-.719l-2.37,1.426a4.824,4.824,0,0,1-4.965-.031c-.3-.176-.606-.351-.911-.527a4.814,4.814,0,0,1-2.5-4.276l.045-2.783a4.786,4.786,0,0,0-3.543-4.7c-.022-.009-.05-.013-.071-.022a4.8,4.8,0,0,0-5.424,2.3l-1.349,2.429a4.771,4.771,0,0,1-4.24,2.459c-.2,0-.4-.009-.593-.009s-.4.005-.594.009a4.772,4.772,0,0,1-4.24-2.459l-1.349-2.429a4.794,4.794,0,0,0-5.422-2.3c-.021.009-.05.013-.071.022a4.786,4.786,0,0,0-3.544,4.7l.044,2.783a4.813,4.813,0,0,1-2.5,4.276c-.306.176-.611.351-.913.527a4.823,4.823,0,0,1-4.964.031l-2.369-1.426a4.788,4.788,0,0,0-5.846.719l-.058.059a4.787,4.787,0,0,0-.72,5.845l1.426,2.37a4.826,4.826,0,0,1-.032,4.964c-.176.3-.35.607-.526.913a4.814,4.814,0,0,1-4.275,2.5l-2.785-.045a4.786,4.786,0,0,0-4.7,3.542c-.009.023-.013.051-.022.073a4.8,4.8,0,0,0,2.3,5.423l2.429,1.348a4.773,4.773,0,0,1,2.459,4.24c-.005.2-.009.4-.009.593s0,.4.009.594a4.772,4.772,0,0,1-2.459,4.24l-2.429,1.349a4.8,4.8,0,0,0-2.3,5.423c.009.023.013.05.022.072a4.786,4.786,0,0,0,4.7,3.543l2.785-.045a4.816,4.816,0,0,1,4.275,2.5c.176.306.351.612.526.913a4.824,4.824,0,0,1,.032,4.963l-1.426,2.37a4.789,4.789,0,0,0,.72,5.846l.058.058a4.788,4.788,0,0,0,5.846.719l2.369-1.425a4.821,4.821,0,0,1,4.964.031c.3.175.607.351.913.526a4.814,4.814,0,0,1,2.5,4.276l-.044,2.783a4.787,4.787,0,0,0,3.544,4.7c.021.01.049.013.071.022a4.792,4.792,0,0,0,5.422-2.3l1.349-2.428a4.774,4.774,0,0,1,4.24-2.46c.2.005.4.009.594.009s.4,0,.593-.009a4.772,4.772,0,0,1,4.24,2.46l1.349,2.428a4.8,4.8,0,0,0,5.424,2.3c.021-.009.049-.013.071-.022a4.787,4.787,0,0,0,3.543-4.7l-.045-2.783a4.814,4.814,0,0,1,2.5-4.276c.3-.175.611-.351.911-.526a4.822,4.822,0,0,1,4.965-.031l2.37,1.425a4.788,4.788,0,0,0,5.845-.719l.06-.058a4.79,4.79,0,0,0,.718-5.846l-1.426-2.37a4.823,4.823,0,0,1,.033-4.963c.175-.3.351-.607.525-.913a4.815,4.815,0,0,1,4.276-2.5l2.784.045a4.785,4.785,0,0,0,4.7-3.543c.009-.022.014-.049.023-.072A4.8,4.8,0,0,0,5111.51,1778.556Zm-41.151,20.8a26.979,26.979,0,1,1,26.979-26.979A26.978,26.978,0,0,1,5070.359,1799.353Z" transform="translate(-5026.745 -1728.76)" fill="#d07efc"/>
        <ellipse id="Elipse_8025" data-name="Elipse 8025" cx="12.178" cy="12.178" rx="12.178" ry="12.178" transform="translate(31.437 31.661)" fill="#d07efc"/>
      </g>
      <g id="Grupo_86165" data-name="Grupo 86165" transform="translate(672.945 410.801)">
        <path id="Trazado_151085" data-name="Trazado 151085" d="M5172.176,1919.971s8.5-24.917,35.394-15.856c0,0,6.8-21.236,25.484-20.528s24.634,18.183,24.634,18.183,25.1-3.035,28.692,18.2Z" transform="translate(-5172.176 -1883.569)" fill="#adccc7"/>
        <g id="Grupo_86164" data-name="Grupo 86164" transform="translate(43.848 9.512)">
          <path id="Trazado_151086" data-name="Trazado 151086" d="M5259.39,1925.756l-1.062-.171c2.415-14.989-6.88-25.773-6.976-25.88l.809-.711C5252.257,1899.1,5261.888,1910.252,5259.39,1925.756Z" transform="translate(-5246.375 -1898.993)" fill="#6eab9c"/>
          <path id="Trazado_151087" data-name="Trazado 151087" d="M5264.348,1916.725l-.824-.692c.086-.1,8.6-10.281,10.047-16.656l1.049.239C5273.113,1906.244,5264.706,1916.3,5264.348,1916.725Z" transform="translate(-5251.04 -1899.14)" fill="#6eab9c"/>
          <path id="Trazado_151088" data-name="Trazado 151088" d="M5256.134,1931.108c-6.685-.364-12.605-7.251-12.854-7.543l.821-.7c.059.068,5.872,6.828,12.093,7.167Z" transform="translate(-5243.279 -1908.145)" fill="#6eab9c"/>
        </g>
        <path id="Trazado_151089" data-name="Trazado 151089" d="M5297.821,1936.306l-.7-.815c.481-.417,11.875-10.2,17.818-10.369l.029,1.077C5309.4,1926.353,5297.938,1936.207,5297.821,1936.306Z" transform="translate(-5220.071 -1899.497)" fill="#6eab9c"/>
        <path id="Trazado_151090" data-name="Trazado 151090" d="M5323.989,1938.009a102.569,102.569,0,0,1-16.508-2.451l.269-1.043a101.511,101.511,0,0,0,16.3,2.42Z" transform="translate(-5224.042 -1903.098)" fill="#6eab9c"/>
        <path id="Trazado_151091" data-name="Trazado 151091" d="M5212.987,1936.126c-5.978-4.97-18.6-8.944-18.725-8.984l.32-1.028c.526.164,12.953,4.078,19.095,9.184Z" transform="translate(-5180.641 -1899.878)" fill="#6eab9c"/>
        <path id="Trazado_151092" data-name="Trazado 151092" d="M5215.535,1922.519" transform="translate(-5188.797 -1898.499)" fill="none" stroke="#6eab9c" stroke-miterlimit="10" stroke-width="2"/>
        <path id="Trazado_151093" data-name="Trazado 151093" d="M5215.314,1930.065l-1.077-.031a19.258,19.258,0,0,0-2.065-9.022l.938-.53A19.994,19.994,0,0,1,5215.314,1930.065Z" transform="translate(-5187.508 -1897.718)" fill="#6eab9c"/>
      </g>
      <g id="Grupo_86166" data-name="Grupo 86166" transform="translate(385.169 416.987)">
        <path id="Trazado_151094" data-name="Trazado 151094" d="M4743.959,1934.294l.8-2.91a32.2,32.2,0,0,0-4.721-27.495l-1.264,1a31.153,31.153,0,0,1,5,23.659c-2.19-4.315-8.606-12.977-25.045-13.8l-.08,1.613c20.7,1.035,24.521,14.867,24.555,15.006Z" transform="translate(-4710.55 -1897.544)" fill="#d07efc"/>
        <path id="Trazado_151095" data-name="Trazado 151095" d="M4705.518,1920.87a3.829,3.829,0,1,0,3.83-3.829A3.829,3.829,0,0,0,4705.518,1920.87Z" transform="translate(-4705.518 -1902.585)" fill="#d07efc"/>
        <path id="Trazado_151096" data-name="Trazado 151096" d="M4776.06,1920.87a3.829,3.829,0,1,0,3.828-3.829A3.828,3.828,0,0,0,4776.06,1920.87Z" transform="translate(-4732.559 -1902.585)" fill="#d07efc"/>
        <path id="Trazado_151097" data-name="Trazado 151097" d="M4743.893,1897.428a3.829,3.829,0,1,0,3.829-3.829A3.829,3.829,0,0,0,4743.893,1897.428Z" transform="translate(-4720.228 -1893.599)" fill="#d07efc"/>
        <path id="Trazado_151098" data-name="Trazado 151098" d="M4760.029,1939.379c1.873-7.153,10.536-13.218,10.623-13.278l-.917-1.328c-.378.26-9.241,6.461-11.269,14.2Z" transform="translate(-4725.814 -1905.549)" fill="#d07efc"/>
      </g>
      <g id="Grupo_86167" data-name="Grupo 86167" transform="translate(312.027 376.042)">
        <path id="Trazado_151099" data-name="Trazado 151099" d="M4590.225,1861.968c7.281-10.737,15.425-18.063,28.2-25.948s28.152-6.177,34.766-8.437,5.84,5.988,3.011,13.5-.953,43.773-37.888,51.039S4584.85,1869.9,4590.225,1861.968Z" transform="translate(-4586.91 -1827.203)" fill="#d07efc" opacity="0.34"/>
        <path id="Trazado_151100" data-name="Trazado 151100" d="M4626.082,1883.74a.536.536,0,0,1-.522-.67c3.054-12.072-1.659-24.927-1.706-25.056a.538.538,0,1,1,1.007-.377c.049.132,4.881,13.292,1.741,25.7A.535.535,0,0,1,4626.082,1883.74Z" transform="translate(-4601.059 -1838.735)" fill="#d07efc"/>
        <path id="Trazado_151101" data-name="Trazado 151101" d="M4626.739,1900.49a.538.538,0,0,1-.194-1.04c11.563-4.492,29.547-.454,30.308-.281a.538.538,0,1,1-.241,1.05c-.182-.043-18.423-4.137-29.677.234A.521.521,0,0,1,4626.739,1900.49Z" transform="translate(-4601.971 -1854.087)" fill="#d07efc"/>
        <path id="Trazado_151102" data-name="Trazado 151102" d="M4619.441,1886.638a.55.55,0,0,1-.184-.032.539.539,0,0,1-.32-.691c11.382-31.115,44.6-50.208,44.938-50.4a.538.538,0,0,1,.528.937c-.33.188-33.21,19.093-44.456,49.83A.537.537,0,0,1,4619.441,1886.638Z" transform="translate(-4599.175 -1830.364)" fill="#d07efc"/>
        <path id="Trazado_151103" data-name="Trazado 151103" d="M4648.141,1870.692a.539.539,0,0,1-.287-.995c7.927-4.986,24.393-1.66,25.091-1.517a.538.538,0,1,1-.217,1.054c-.167-.035-16.741-3.382-24.3,1.374A.529.529,0,0,1,4648.141,1870.692Z" transform="translate(-4610.175 -1842.443)" fill="#d07efc"/>
        <path id="Trazado_151104" data-name="Trazado 151104" d="M4658.454,1853.312a.538.538,0,0,1-.468-.8c2.615-4.658,2.461-13.514,2.459-13.6a.54.54,0,0,1,.527-.55h.012a.54.54,0,0,1,.538.527c.008.375.16,9.236-2.6,14.151A.541.541,0,0,1,4658.454,1853.312Z" transform="translate(-4614.128 -1831.479)" fill="#d07efc"/>
      </g>
      <path id="Trazado_151105" data-name="Trazado 151105" d="M4418.538,1914.237s.808-20.762,17.762-29.851,29.021,2.98,29.021,2.98,9.012-25.906,34.4-25.043,27.183,22.063,27.183,22.063,28.914-8.153,45.026,7.565c16.45,16.049,13.146,23.363,13.146,23.363Z" transform="translate(-4210.342 -1464.616)" fill="#adccc7"/>
      <g id="Grupo_86168" data-name="Grupo 86168" transform="translate(222.883 432.902)">
        <path id="Trazado_151106" data-name="Trazado 151106" d="M4474.057,1933.652c-.107-.091-10.779-9.052-22.685-13.229l.355-1.016c12.1,4.244,22.917,13.331,23.024,13.423Z" transform="translate(-4445.812 -1919.407)" fill="#6eab9c"/>
        <path id="Trazado_151107" data-name="Trazado 151107" d="M4442.848,1935.24l-.493-.958c.313-.161,7.83-3.924,21.663-2l-.148,1.066C4450.371,1931.469,4442.921,1935.2,4442.848,1935.24Z" transform="translate(-4442.355 -1924.133)" fill="#6eab9c"/>
      </g>
      <g id="Grupo_86169" data-name="Grupo 86169" transform="translate(431.286 317.621)" opacity="0.4">
        <path id="Trazado_151108" data-name="Trazado 151108" d="M4829.78,1761.536l-1.417-.787a2.786,2.786,0,0,1-1.437-2.475c0-.116.007-.231.007-.347s0-.231-.007-.347a2.787,2.787,0,0,1,1.437-2.475l1.417-.788a2.8,2.8,0,0,0,1.344-3.165c-.005-.013-.007-.029-.013-.042a2.8,2.8,0,0,0-2.743-2.068l-1.625.026a2.807,2.807,0,0,1-2.5-1.457c-.1-.178-.2-.356-.308-.532a2.816,2.816,0,0,1-.018-2.9l.831-1.383a2.794,2.794,0,0,0-.419-3.412l-.034-.034a2.794,2.794,0,0,0-3.411-.42l-1.383.832a2.815,2.815,0,0,1-2.9-.018c-.175-.1-.354-.2-.533-.307a2.811,2.811,0,0,1-1.457-2.5l.025-1.624a2.793,2.793,0,0,0-2.066-2.743l-.043-.013a2.8,2.8,0,0,0-3.165,1.344l-.788,1.417a2.782,2.782,0,0,1-2.475,1.436c-.114,0-.23,0-.346,0s-.231,0-.347,0a2.782,2.782,0,0,1-2.475-1.436l-.787-1.417a2.8,2.8,0,0,0-3.164-1.344c-.015,0-.031.008-.043.013a2.8,2.8,0,0,0-2.068,2.743l.027,1.624a2.812,2.812,0,0,1-1.458,2.5c-.18.1-.356.2-.532.307a2.814,2.814,0,0,1-2.9.018l-1.383-.832a2.8,2.8,0,0,0-3.413.42l-.033.034a2.794,2.794,0,0,0-.42,3.412l.832,1.383a2.814,2.814,0,0,1-.019,2.9c-.1.177-.2.355-.306.532a2.81,2.81,0,0,1-2.5,1.457l-1.625-.026a2.794,2.794,0,0,0-2.742,2.068c0,.013-.008.029-.013.042a2.8,2.8,0,0,0,1.344,3.165l1.417.788a2.787,2.787,0,0,1,1.437,2.475c0,.115-.006.231-.006.347s0,.23.006.347a2.786,2.786,0,0,1-1.437,2.475l-1.417.787a2.8,2.8,0,0,0-1.344,3.166c.005.013.008.029.013.042a2.793,2.793,0,0,0,2.742,2.068l1.625-.026a2.813,2.813,0,0,1,2.5,1.456c.1.179.205.357.306.533a2.815,2.815,0,0,1,.019,2.9l-.832,1.384a2.793,2.793,0,0,0,.42,3.412l.033.035a2.8,2.8,0,0,0,3.413.42l1.383-.833a2.816,2.816,0,0,1,2.9.019c.175.1.352.2.532.307a2.811,2.811,0,0,1,1.458,2.5l-.027,1.625a2.8,2.8,0,0,0,2.068,2.743c.013.005.029.008.043.013a2.8,2.8,0,0,0,3.164-1.344l.787-1.417a2.783,2.783,0,0,1,2.475-1.436c.116,0,.231.005.347.005s.232,0,.346-.005a2.783,2.783,0,0,1,2.475,1.436l.788,1.417a2.8,2.8,0,0,0,3.165,1.344l.043-.013a2.793,2.793,0,0,0,2.066-2.743l-.025-1.625a2.811,2.811,0,0,1,1.457-2.5c.178-.1.357-.2.533-.307a2.817,2.817,0,0,1,2.9-.019l1.383.833a2.794,2.794,0,0,0,3.411-.42l.034-.035a2.794,2.794,0,0,0,.419-3.412l-.831-1.384a2.817,2.817,0,0,1,.018-2.9c.1-.176.206-.354.308-.533a2.809,2.809,0,0,1,2.5-1.456l1.625.026a2.8,2.8,0,0,0,2.743-2.068c.005-.013.007-.029.013-.042A2.8,2.8,0,0,0,4829.78,1761.536Zm-24.021,12.139a15.748,15.748,0,1,1,15.748-15.748A15.746,15.746,0,0,1,4805.759,1773.675Z" transform="translate(-4780.301 -1732.469)" fill="#d07efc"/>
      </g>
      <path id="Trazado_151109" data-name="Trazado 151109" d="M4763.358,1254.365h152.135s-9-17.678-29.774-8.839c0,0-11.309-20.311-34.39-8.309,0,0-8.886-22.62-33.815-19.508-23.914,2.985-28.388,23.893-28.388,23.893S4765.864,1240.586,4763.358,1254.365Z" transform="translate(-4342.52 -1217.415)" fill="#18b6fe" opacity="0.18"/>
      <path id="Trazado_151110" data-name="Trazado 151110" d="M4195.78,1768.537H4080.929s7.9-17.623,26.13-10.331c0,0,6.685-18.23,22.483-16.1s18.838,13.13,18.838,13.13,17.014-6.749,33.422,6.923C4181.8,1762.156,4195.173,1760.637,4195.78,1768.537Z" transform="translate(-4080.929 -1418.474)" fill="#18b6fe" opacity="0.18"/>
      <path id="Trazado_151111" data-name="Trazado 151111" d="M4542.063,1293.373h95.85s-7.92-15.045-28.4-9.5c0,0-5.189-15.751-23.757-15.751s-25.122,15.751-25.122,15.751S4543.7,1283.12,4542.063,1293.373Z" transform="translate(-4257.692 -1236.854)" fill="#18b6fe" opacity="0.18"/>
      <path id="Trazado_151112" data-name="Trazado 151112" d="M4841.757,1629.96l-366,6.755-8.6-6.755v-213.7h374.6l8.6,6.755Z" transform="translate(-4228.981 -1293.636)" fill="#7ff9ff"/>
      <path id="Trazado_151113" data-name="Trazado 151113" d="M4841.757,1374.565l-366,6.755-8.6-6.755v-27.02h374.6l8.6,6.755Z" transform="translate(-4228.981 -1267.297)" fill="#7ff9ff"/>
      <rect id="Rectángulo_7274" data-name="Rectángulo 7274" width="374.596" height="213.704" transform="translate(246.779 129.375)" fill="#d1fdff"/>
      <rect id="Rectángulo_7275" data-name="Rectángulo 7275" width="101.589" height="52.295" transform="translate(260.751 151.068)" fill="#b2e5e0"/>
      <g id="Grupo_86170" data-name="Grupo 86170" transform="translate(476.423 279.855)">
        <rect id="Rectángulo_7276" data-name="Rectángulo 7276" width="106.437" height="4.248" transform="translate(16.505 1.335)" fill="#fff"/>
        <rect id="Rectángulo_7277" data-name="Rectángulo 7277" width="106.437" height="4.248" transform="translate(16.505 18.205)" fill="#fff"/>
        <rect id="Rectángulo_7278" data-name="Rectángulo 7278" width="106.437" height="4.248" transform="translate(16.505 35.263)" fill="#fff"/>
        <path id="Trazado_151114" data-name="Trazado 151114" d="M4857.2,1678.145h-.243a3.459,3.459,0,0,1-3.458-3.459h0a3.459,3.459,0,0,1,3.458-3.459h.243a3.459,3.459,0,0,1,3.459,3.459h0A3.459,3.459,0,0,1,4857.2,1678.145Z" transform="translate(-4853.495 -1671.227)" fill="#fff"/>
        <path id="Trazado_151115" data-name="Trazado 151115" d="M4857.2,1705.5h-.243a3.458,3.458,0,0,1-3.458-3.459h0a3.459,3.459,0,0,1,3.458-3.459h.243a3.459,3.459,0,0,1,3.459,3.459h0A3.459,3.459,0,0,1,4857.2,1705.5Z" transform="translate(-4853.495 -1681.714)" fill="#fff"/>
        <path id="Trazado_151116" data-name="Trazado 151116" d="M4857.2,1733.251h-.243a3.458,3.458,0,0,1-3.458-3.459h0a3.458,3.458,0,0,1,3.458-3.459h.243a3.459,3.459,0,0,1,3.459,3.459h0A3.458,3.458,0,0,1,4857.2,1733.251Z" transform="translate(-4853.495 -1692.351)" fill="#fff"/>
      </g>
      <g id="Grupo_86171" data-name="Grupo 86171" transform="translate(260.465 217.59)">
        <rect id="Rectángulo_7279" data-name="Rectángulo 7279" width="106.437" height="4.248" transform="translate(16.506 1.335)" fill="#fff"/>
        <rect id="Rectángulo_7280" data-name="Rectángulo 7280" width="106.437" height="4.248" transform="translate(16.506 18.205)" fill="#fff"/>
        <path id="Trazado_151117" data-name="Trazado 151117" d="M4507,1577.177h-.242a3.458,3.458,0,0,1-3.458-3.459h0a3.458,3.458,0,0,1,3.458-3.459H4507a3.46,3.46,0,0,1,3.46,3.459h0A3.46,3.46,0,0,1,4507,1577.177Z" transform="translate(-4503.299 -1570.259)" fill="#fff"/>
        <path id="Trazado_151118" data-name="Trazado 151118" d="M4507,1604.533h-.242a3.458,3.458,0,0,1-3.458-3.459h0a3.458,3.458,0,0,1,3.458-3.459H4507a3.46,3.46,0,0,1,3.46,3.459h0A3.46,3.46,0,0,1,4507,1604.533Z" transform="translate(-4503.299 -1580.745)" fill="#fff"/>
      </g>
      <rect id="Rectángulo_7281" data-name="Rectángulo 7281" width="374.596" height="27.02" transform="translate(246.779 87.003)" fill="#d1fdff"/>
      <g id="Grupo_86175" data-name="Grupo 86175" transform="translate(261.721 96.624)">
        <g id="Grupo_86172" data-name="Grupo 86172" transform="translate(31.932 0)">
          <path id="Trazado_151119" data-name="Trazado 151119" d="M4564.895,1377.99a3.889,3.889,0,1,1-3.89-3.889A3.889,3.889,0,0,1,4564.895,1377.99Z" transform="translate(-4557.117 -1374.1)" fill="#18b6fe"/>
        </g>
        <g id="Grupo_86173" data-name="Grupo 86173" transform="translate(15.966 0)">
          <ellipse id="Elipse_8026" data-name="Elipse 8026" cx="3.889" cy="3.889" rx="3.889" ry="3.889" fill="#d07efc"/>
        </g>
        <g id="Grupo_86174" data-name="Grupo 86174" transform="translate(0 0)">
          <ellipse id="Elipse_8027" data-name="Elipse 8027" cx="3.889" cy="3.889" rx="3.889" ry="3.889" fill="#ffc945"/>
        </g>
      </g>
      <g id="Grupo_86191" data-name="Grupo 86191" transform="translate(458.824 151.33)">
        <rect id="Rectángulo_7282" data-name="Rectángulo 7282" width="178.758" height="106.21" rx="10.466" transform="translate(0 0)" fill="#b2e5e0"/>
        <rect id="Rectángulo_7283" data-name="Rectángulo 7283" width="178.758" height="106.21" rx="10.466" transform="translate(5.51 5.034)" fill="#30bec5"/>
        <g id="Grupo_86182" data-name="Grupo 86182" transform="translate(19.404 20.366)">
          <g id="Grupo_86176" data-name="Grupo 86176" transform="translate(54.712)">
            <rect id="Rectángulo_7284" data-name="Rectángulo 7284" width="4.954" height="76.014" fill="#fff"/>
          </g>
          <g id="Grupo_86177" data-name="Grupo 86177" transform="translate(43.77)">
            <rect id="Rectángulo_7285" data-name="Rectángulo 7285" width="4.954" height="76.014" fill="#fff"/>
          </g>
          <g id="Grupo_86178" data-name="Grupo 86178" transform="translate(32.827)">
            <rect id="Rectángulo_7286" data-name="Rectángulo 7286" width="4.954" height="76.014" fill="#fff"/>
          </g>
          <g id="Grupo_86179" data-name="Grupo 86179" transform="translate(21.885)">
            <rect id="Rectángulo_7287" data-name="Rectángulo 7287" width="4.954" height="76.014" fill="#fff"/>
          </g>
          <g id="Grupo_86180" data-name="Grupo 86180" transform="translate(10.942)">
            <rect id="Rectángulo_7288" data-name="Rectángulo 7288" width="4.954" height="76.014" fill="#fff"/>
          </g>
          <g id="Grupo_86181" data-name="Grupo 86181">
            <rect id="Rectángulo_7289" data-name="Rectángulo 7289" width="4.954" height="76.014" fill="#fff"/>
          </g>
        </g>
        <g id="Grupo_86183" data-name="Grupo 86183" transform="translate(74.116 72.573)">
          <rect id="Rectángulo_7290" data-name="Rectángulo 7290" width="4.954" height="23.807" fill="#c6e0dd"/>
        </g>
        <g id="Grupo_86184" data-name="Grupo 86184" transform="translate(63.173 46.98)">
          <rect id="Rectángulo_7291" data-name="Rectángulo 7291" width="4.954" height="49.4" fill="#c6e0dd"/>
        </g>
        <g id="Grupo_86185" data-name="Grupo 86185" transform="translate(52.231 34.183)">
          <rect id="Rectángulo_7292" data-name="Rectángulo 7292" width="4.954" height="62.196" fill="#c6e0dd"/>
        </g>
        <g id="Grupo_86186" data-name="Grupo 86186" transform="translate(41.288 53.106)">
          <rect id="Rectángulo_7293" data-name="Rectángulo 7293" width="4.954" height="43.274" fill="#c6e0dd"/>
        </g>
        <g id="Grupo_86187" data-name="Grupo 86187" transform="translate(30.346 65.425)">
          <rect id="Rectángulo_7294" data-name="Rectángulo 7294" width="4.954" height="30.954" fill="#c6e0dd"/>
        </g>
        <g id="Grupo_86188" data-name="Grupo 86188" transform="translate(19.404 75.159)">
          <rect id="Rectángulo_7295" data-name="Rectángulo 7295" width="4.954" height="21.22" fill="#c6e0dd"/>
        </g>
        <ellipse id="Elipse_8028" data-name="Elipse 8028" cx="9.535" cy="9.535" rx="9.535" ry="9.535" transform="translate(96.76 36.99) rotate(-76.718)" fill="#fff"/>
        <g id="Grupo_86189" data-name="Grupo 86189" transform="translate(127.14 20.604)">
          <rect id="Rectángulo_7296" data-name="Rectángulo 7296" width="42.343" height="2.736" fill="#fff"/>
          <rect id="Rectángulo_7297" data-name="Rectángulo 7297" width="42.343" height="2.736" transform="translate(0 8.088)" fill="#fff"/>
          <rect id="Rectángulo_7298" data-name="Rectángulo 7298" width="23.431" height="2.736" transform="translate(0 16.096)" fill="#fff"/>
        </g>
        <ellipse id="Elipse_8029" data-name="Elipse 8029" cx="9.535" cy="9.535" rx="9.535" ry="9.535" transform="translate(96.759 71.731) rotate(-76.718)" fill="#fff"/>
        <g id="Grupo_86190" data-name="Grupo 86190" transform="translate(127.14 55.344)">
          <rect id="Rectángulo_7299" data-name="Rectángulo 7299" width="42.343" height="2.736" fill="#fff"/>
          <rect id="Rectángulo_7300" data-name="Rectángulo 7300" width="42.343" height="2.736" transform="translate(0 8.088)" fill="#fff"/>
          <rect id="Rectángulo_7301" data-name="Rectángulo 7301" width="23.431" height="2.736" transform="translate(0 16.097)" fill="#fff"/>
        </g>
      </g>
      <rect id="Rectángulo_7302" data-name="Rectángulo 7302" width="662.042" height="8.074" transform="translate(125.106 447.045)" fill="#aecbc7"/>
      <g id="Grupo_86192" data-name="Grupo 86192" transform="translate(438.896 186.21)">
        <path id="Trazado_151120" data-name="Trazado 151120" d="M4809.307,1578.675s-9.868-12.111-15.072-13.636,4.037,6.459,3.678,7.895-5.562,5.921-2.333,9.51,9.151,4.127,9.151,4.127Z" transform="translate(-4792.642 -1536.803)" fill="#ffac95"/>
        <path id="Trazado_151121" data-name="Trazado 151121" d="M4931.387,1579.13h-15.249l-1.648-5.205-2.3-7.267,7.637-4.064,3.667-1.949Z" transform="translate(-4838.469 -1535.193)" fill="#ffac95"/>
        <path id="Trazado_151122" data-name="Trazado 151122" d="M4919.831,1563.805a24.861,24.861,0,0,1-5.341,11.331l-2.3-7.267Z" transform="translate(-4838.469 -1536.404)" fill="#e9928b"/>
        <path id="Trazado_151123" data-name="Trazado 151123" d="M4980.009,1718.258l-1.8.987s-1.973,4.755-1.973,7.356-1.525,7.177-.538,7.536,3.5-5.831,3.857-7,1.347,4.307,1.705,5.832-.808,7.356,0,7.625,4.665-4.036,5.2-6.011.177-4.882.535-4.433.855,4.478,1.977,3.895c.483-.252-.359-5.024-1.436-7.984s-2.422-8.881-2.422-8.881Z" transform="translate(-4862.687 -1595.198)" fill="#ffac95"/>
        <path id="Trazado_151124" data-name="Trazado 151124" d="M4977.293,1672.248c-1.976,2.153-8.257.9-8.257.9s-2.869-27.99-4.305-30.681c-.943-1.772-5.459-9.9-8.435-15.266-1.551-2.793-2.687-4.828-2.687-4.828s-.645-3.052-1.232-7.041c-1.2-8.095-2.148-20.05,3-18.22h.006c6.06,2.164,15.153,20.686,19.539,32.41a55.767,55.767,0,0,1,2.368,7.563C4978.908,1645.157,4977.293,1672.248,4977.293,1672.248Z" transform="translate(-4853.51 -1549.099)" fill="#c92041"/>
        <path id="Trazado_151125" data-name="Trazado 151125" d="M5007.685,1887.292c-1.012.716,2.563,12.3,1.3,13.7s-9.663,10.669-9.663,10.669a16.6,16.6,0,0,1-.172-8.322c.963-3.655,1.271-10.728-4.844-19.959a50.537,50.537,0,0,0-3.526-4.683l8.279-11.751a58.142,58.142,0,0,0,6.487,7.477,17.64,17.64,0,0,0,1.668,1.362c3.654,2.583,12.52,13.338,12.52,13.338l-3.973,4.387S5008.7,1886.576,5007.685,1887.292Z" transform="translate(-4868.592 -1652.607)" fill="#0c1b3c"/>
        <path id="Trazado_151126" data-name="Trazado 151126" d="M4860.43,1905.332c.539,4.44-1.479,18.231-1.479,18.231h-5.922s.4-9.888-.807-10.157-7.4,10.157-9.286,10.157h-14.4a16.618,16.618,0,0,1,6.055-5.716c3.456-1.787,9.123-6.53,11.777-17.957.346-1.48.64-3.073.872-4.785l14.265-1.75s-.667,3.128-1,6.535A26.475,26.475,0,0,0,4860.43,1905.332Z" transform="translate(-4806.402 -1662.728)" fill="#0c1b3c"/>
        <path id="Trazado_151127" data-name="Trazado 151127" d="M4858.328,1895.1l14.263-1.75s-.666,3.128-1,6.535h-14.135C4857.8,1898.409,4858.1,1896.816,4858.328,1895.1Z" transform="translate(-4817.488 -1662.728)" fill="#e9928b"/>
        <path id="Trazado_151128" data-name="Trazado 151128" d="M5005.542,1874.427l-11.24,8.957a50.537,50.537,0,0,0-3.526-4.683l8.279-11.751A58.142,58.142,0,0,0,5005.542,1874.427Z" transform="translate(-4868.592 -1652.607)" fill="#e9928b"/>
        <path id="Trazado_151129" data-name="Trazado 151129" d="M4978.722,1798.462,4965,1810.3s-9.845-10.292-19.566-21.235v-.005c-8.678-9.764-17.257-20.041-18.651-23.975-1.513-4.258-2.74-11.535-3.585-17.634-.813-5.856-1.26-10.625-1.26-10.625l.679-14.5,1.743-37.179.765-.457,8.656-5.194h5.969s.366.63.975,1.706c2.755,4.877,10.475,18.888,11.358,24.4,1.075,6.729-4.307,52.482-1.616,55.173S4978.722,1798.462,4978.722,1798.462Z" transform="translate(-4842.203 -1580.754)" fill="#18b6fe"/>
        <path id="Trazado_151130" data-name="Trazado 151130" d="M4945.43,1806.63c-8.678-9.764-17.257-20.04-18.651-23.975-2.962-8.343-4.845-28.259-4.845-28.259l.679-14.5c7.881-7.552,15.325-14.572,15.325-14.572s4.844,25.838,0,35.526,5.135,11.116,1.076,22.339C4935.252,1793.6,4947.491,1793.038,4945.43,1806.63Z" transform="translate(-4842.203 -1598.32)" fill="#0c8cc7"/>
        <path id="Trazado_151131" data-name="Trazado 151131" d="M4897.765,1747.455c-.937,1.69-1.664,2.95-2.067,3.639-2.691,4.575-22.069,63.247-22.069,63.247H4855.6s4.037-31.758,8.611-57.057c3.957-21.86,16.547-64.023,19.895-75.073.533-1.739.829-2.708.829-2.708h23.415s.651,1.631,1.528,4.306a94.048,94.048,0,0,1,4.394,20.185C4915.183,1714.518,4903.071,1737.874,4897.765,1747.455Z" transform="translate(-4816.774 -1580.754)" fill="#18b6fe"/>
        <path id="Trazado_151132" data-name="Trazado 151132" d="M4850.851,1905.284" transform="translate(-4814.955 -1667.301)" fill="none" stroke="#040707" stroke-miterlimit="10" stroke-width="1"/>
        <path id="Trazado_151133" data-name="Trazado 151133" d="M4933.011,1681.209a14.465,14.465,0,0,1-5.415,2.6,34.408,34.408,0,0,1-10.184.888,76.791,76.791,0,0,1-15.588-2.487c.533-1.739.828-2.708.828-2.708h29.385S4932.4,1680.133,4933.011,1681.209Z" transform="translate(-4834.495 -1580.754)" fill="#0c8cc7"/>
        <path id="Trazado_151134" data-name="Trazado 151134" d="M4904.3,1611.74a41.125,41.125,0,0,1-1.533,8.752c-.178.554-.361,1.152-.545,1.782-2.292,7.762-5.243,20.648-5.243,20.648a23.428,23.428,0,0,1-7.025,2.207c-10.592,1.69-22.358-2.207-22.358-2.207s2.152-11.842-2.153-16.687a25.133,25.133,0,0,1-5.383-11.126s-18.118,7-22.606,6.1-27.093-25.66-27.093-27.275,5.744-7.9,5.744-7.9,22.247,19.916,22.962,19.916,22.252-13.274,28.555-16.687c4.684-2.53,12.5-4.172,16.2-4.845v-.006h.011c1.276-.231,2.061-.35,2.061-.35s.507.172,1.346.49c3.073,1.168,10.615,4.242,14.066,7.622h.006a6.867,6.867,0,0,1,1.453,1.932C4904.333,1597.509,4904.845,1604.986,4904.3,1611.74Z" transform="translate(-4799.432 -1544.174)" fill="#c92041"/>
        <path id="Trazado_151135" data-name="Trazado 151135" d="M4902.81,1536.718s-3.364,21.819,1.615,23.356,11.035-5.459,11.035-5.459,1.75-8.344,0-13.86S4909.268,1540.486,4902.81,1536.718Z" transform="translate(-4834.446 -1526.021)" fill="#ffac95"/>
        <path id="Trazado_151136" data-name="Trazado 151136" d="M4863.373,1817.063l-1.6-.242c9.94-65.645,29.01-130.682,29.2-131.332l1.549.457C4892.337,1686.6,4873.3,1751.531,4863.373,1817.063Z" transform="translate(-4819.144 -1583.049)" fill="#0c8cc7"/>
        <path id="Trazado_151137" data-name="Trazado 151137" d="M4929.053,1730.659l-.218-.012c-.292-.016-7.146-.581-8.243-17.261l-.055-.86h16.529l-.024.83c-.015.547-.457,13.44-7.794,17.2Zm-6.786-16.518c1.024,12.725,5.52,14.6,6.476,14.855,5.3-2.961,6.415-12.053,6.635-14.855Z" transform="translate(-4841.668 -1593.413)" fill="#0c8cc7"/>
        <path id="Trazado_151138" data-name="Trazado 151138" d="M4920.843,1662.494c-10.592,1.69-22.359-2.207-22.359-2.207s2.153-11.842-2.153-16.687a25.123,25.123,0,0,1-5.382-11.126s9.721-5.56,9-1.792-3.768,17.262,8.791,16.977C4919.756,1647.406,4913.388,1659.953,4920.843,1662.494Z" transform="translate(-4830.325 -1561.538)" fill="#98192c"/>
        <path id="Trazado_151139" data-name="Trazado 151139" d="M4965.76,1624.812c-3.068-2.008-7.756-1.658-10.879-7.644a10.024,10.024,0,0,0-5.672-5.21,39,39,0,0,0-6-1.335,17.652,17.652,0,0,1-10.534-5.566c-8.359-9.021-4.069-20.1-3.945-20.411v-.006h.011l3.406.14c3.074,1.168,10.616,4.242,14.065,7.622h.006C4952.281,1594.567,4961.374,1613.088,4965.76,1624.812Z" transform="translate(-4844.345 -1544.391)" fill="#98192c"/>
        <path id="Trazado_151140" data-name="Trazado 151140" d="M4994.428,1590.018c-5.549,11.126-27.872,15.142-33.884,1.953-7-15.34-11.437-11.572-23.011-10.765s-19.782-5.382-18.84-18.571c.936-13.08-8.062-14.474-10.588-26.3-.042-.189-.064-.3-.064-.3-.867-4.306-5.361-5.426-5.361-5.426s-2.961-2.019,0-6.729,21.934-8.613,26.376,3.9,4.036,18.839,18.3,18.167,23.55,4.709,24.491,18.032,22.876,4.709,23.819,20.051A11.632,11.632,0,0,1,4994.428,1590.018Z" transform="translate(-4834.318 -1519.372)" fill="#ffc945"/>
      </g>
      <g id="Grupo_86197" data-name="Grupo 86197" transform="translate(629.491 142.88)">
        <g id="Grupo_86196" data-name="Grupo 86196" transform="translate(0 0)">
          <path id="Trazado_151141" data-name="Trazado 151141" d="M5240.969,1525.012l-3.542-8.411s-6.551-6.906-2.833-12.483,19.478-6.906,22.932,13.458c0,0,5.577.177,6.552,5.578s-3.9,8.942-5.4,12.926a9.875,9.875,0,0,1-4.87,5.4l-6.287.974Z" transform="translate(-5152.209 -1468.83)" fill="#0c1b3c"/>
          <path id="Trazado_151142" data-name="Trazado 151142" d="M5303.885,1723.843s-3.718,5.932-4.6,9.119-1.682,4.161-.974,4.781,2.48-2.568,3.72-4.162,1.416,4.25,1.416,6.375-1.021,5.932.131,6.021,4.12-4.87,5.182-6.906.585-15.228.585-15.228Z" transform="translate(-5176.966 -1554.421)" fill="#e9928b"/>
          <path id="Trazado_151143" data-name="Trazado 151143" d="M5289.479,1916.3l-2.655,1.991s-1.993,7.7-1.063,10.69h31.475a18.843,18.843,0,0,0-9.295-6.341c-6.243-1.959-8.1-2.622-9.031-4.349S5289.479,1916.3,5289.479,1916.3Z" transform="translate(-5172.166 -1628.196)" fill="#ffc945"/>
          <path id="Trazado_151144" data-name="Trazado 151144" d="M5196.8,1914.578l2.259,3.054s2.788,6.771,1.593,10.69h-26.295a8.219,8.219,0,0,1,4.78-6.341,78.06,78.06,0,0,0,8.234-4.349Z" transform="translate(-5129.558 -1627.535)" fill="#ffc945"/>
          <rect id="Rectángulo_7303" data-name="Rectángulo 7303" width="31.475" height="3.122" transform="translate(113.594 300.787)" fill="#fff"/>
          <rect id="Rectángulo_7304" data-name="Rectángulo 7304" width="26.295" height="3.122" transform="translate(44.801 300.787)" fill="#fff"/>
          <path id="Trazado_151145" data-name="Trazado 151145" d="M5298.652,1911.2h-12.089l-.84-5.647-.882-5.91,12.881-1.857.54,7.767Z" transform="translate(-5171.908 -1621.096)" fill="#e9928b"/>
          <path id="Trazado_151146" data-name="Trazado 151146" d="M5208.748,1901.229l-.8,5.641-.8,5.646h-11.687l.731-5.646.727-5.641Z" transform="translate(-5137.649 -1622.418)" fill="#e9928b"/>
          <path id="Trazado_151147" data-name="Trazado 151147" d="M5197.382,1901.229H5209.2l-.8,5.641h-11.751Z" transform="translate(-5138.105 -1622.418)" fill="#de6667"/>
          <path id="Trazado_151148" data-name="Trazado 151148" d="M5298.261,1905.549h-12.538l-.882-5.91,12.881-1.857Z" transform="translate(-5171.908 -1621.096)" fill="#de6667"/>
          <path id="Trazado_151149" data-name="Trazado 151149" d="M5266.436,1827.793h-18.857s-14.608-52.062-16.2-59.5-7.085-23.813-7.085-23.813l-14.167,83.313h-16.633s-.7-40.106,0-53.391c.555-10.6,3.381-44.423,6.256-61.266a41.841,41.841,0,0,1,2.147-8.855c3.451-7.169,45.683,8.236,45.683,8.236s.291,1.637.793,4.473c1.614,9.14,5.441,30.719,8.951,49.979C5261.919,1792.2,5266.436,1827.793,5266.436,1827.793Z" transform="translate(-5136.774 -1546.193)" fill="#5f6386"/>
          <path id="Trazado_151150" data-name="Trazado 151150" d="M5235.385,1756.724l-6.331-22.4s-6.508,12.4-4.648,22.4-5.693,13.682-.334,24.348-2.354,18.808,2.841,25.474Z" transform="translate(-5147.864 -1558.439)" fill="#4a4e73"/>
          <path id="Trazado_151151" data-name="Trazado 151151" d="M5252.453,1716.99c-4.99,1.072-11.127,1.072-18.56-.99-16.87-4.678-25.789-3.989-30.063-2.864a41.989,41.989,0,0,1,2.147-8.855c3.451-7.169,45.683,8.236,45.683,8.236S5251.953,1714.153,5252.453,1716.99Z" transform="translate(-5140.854 -1546.193)" fill="#4a4e73"/>
          <path id="Trazado_151152" data-name="Trazado 151152" d="M5176.367,1552.38s-1.061-5.507,1.327-8.348,8.083,1.581,8.083,1.581,3.684,3.966,1.785,7.691S5176.367,1552.38,5176.367,1552.38Z" transform="translate(-5130.238 -1485.13)" fill="#e9928b"/>
          <path id="Trazado_151153" data-name="Trazado 151153" d="M5246.852,1606.141c-2.315,13.409-6.1,28.33-5.63,34.966.883,12.4,1.416,17,2.126,19.3s-10.448,4.247-22.489,0a98.42,98.42,0,0,0-19.249-4.08c-6.529-.813-11.562-1.049-11.562-1.049s3.365-17.892,4.425-27.275a109.177,109.177,0,0,0-.063-20.186l-.018.017c-.515.4-13.687,10.469-20.469,3.946a9.586,9.586,0,0,1-2.271-3.844c-4.447-12.9,4.052-44.036,4.052-44.036l10.093,1.415s-1.416,24.26-.528,24.438,10.448-8.5,15.05-11.864c2.578-1.884,6.922-3,11.5-3.488a52.791,52.791,0,0,1,10.459-.054,61.309,61.309,0,0,1,10.254,1.308c4.462.948,9.521,2.594,13.3,5.421C5249.77,1584.04,5248.871,1594.52,5246.852,1606.141Z" transform="translate(-5128.026 -1493.113)" fill="#7ff9ff"/>
          <g id="Grupo_86193" data-name="Grupo 86193" transform="translate(73.585 107.005)" opacity="0.65">
            <path id="Trazado_151154" data-name="Trazado 151154" d="M5262.772,1682.921c.706,2.3-10.447,4.247-22.49,0a98.409,98.409,0,0,0-19.248-4.08c2.228-2.772,6.032-5.587,13.936-7.924,19.388-5.743.883-15.61,12.009-22.069s12.068-26.219,12.068-26.219l7.228,6.023c-2.314,13.408-6.1,28.329-5.628,34.966C5261.529,1676.015,5262.061,1680.617,5262.772,1682.921Z" transform="translate(-5221.035 -1622.629)" fill="#51d2d8"/>
          </g>
          <path id="Trazado_151155" data-name="Trazado 151155" d="M5258.206,1582.008c-4.909,9.183-18.812,17.214-18.812,17.214-2.4-6.938-2.132-15.19-1.9-18.468a52.764,52.764,0,0,1,10.458-.054A61.277,61.277,0,0,1,5258.206,1582.008Z" transform="translate(-5153.703 -1499.462)" fill="#fff"/>
          <path id="Trazado_151156" data-name="Trazado 151156" d="M5280.377,1589.955c2.423-2.693,7.437-.354,13.635,8.676s11.51,29.041,12.572,35.947-.533,30.633-3.9,40.9l-9.044-.708s-2.288-34-2.643-36.3-7.613-20.541-10.624-30.457S5277.189,1593.5,5280.377,1589.955Z" transform="translate(-5169.307 -1502.696)" fill="#7ff9ff"/>
          <path id="Trazado_151157" data-name="Trazado 151157" d="M5256.57,1572.324c0,1.33-1.949,3.628-6.727,4.516s-10.627-2.567-8.855-4.871a10.359,10.359,0,0,0,1.308-4.393,50.9,50.9,0,0,0,.375-6.319s10.357-9.652,10.272-4.694,3.627,5.846,3.627,5.846C5255.333,1567.894,5256.57,1570.995,5256.57,1572.324Z" transform="translate(-5154.975 -1489.756)" fill="#e9928b"/>
          <path id="Trazado_151158" data-name="Trazado 151158" d="M5253.957,1556.563c-2.762,6.965-7.106,9.851-10.646,11.013a51.057,51.057,0,0,0,.376-6.319S5254.042,1551.606,5253.957,1556.563Z" transform="translate(-5155.989 -1489.756)" fill="#de6667"/>
          <g id="Grupo_86194" data-name="Grupo 86194">
            <path id="Trazado_151159" data-name="Trazado 151159" d="M5184.07,1546.025l-18.441,23.74a1.515,1.515,0,0,1-2.123.267,6.254,6.254,0,0,1-1.1-8.776l15.534-20Z" transform="translate(-5124.471 -1484.433)" fill="#8fb9cf"/>
            <path id="Trazado_151160" data-name="Trazado 151160" d="M5185.729,1547.315l-18.442,23.739a1.5,1.5,0,0,1-1.006.572,6.248,6.248,0,0,1,.451-7.007l15.534-20Z" transform="translate(-5126.13 -1485.722)" fill="#7a9db0"/>
            <path id="Trazado_151161" data-name="Trazado 151161" d="M5207.484,1541.45c-2.712,3.491-5.655,5.743-6.575,5.03s.537-4.123,3.248-7.614,5.656-5.743,6.574-5.03S5210.2,1537.96,5207.484,1541.45Z" transform="translate(-5139.629 -1481.537)" fill="#8fb9cf"/>
            <rect id="Rectángulo_7305" data-name="Rectángulo 7305" width="16.042" height="14.479" transform="translate(49.845 56.06) rotate(-52.158)" fill="#8fb9cf"/>
            <path id="Trazado_151162" data-name="Trazado 151162" d="M5202.752,1540.215l-6.683-5.191a.859.859,0,0,1-.151-1.2h0a.857.857,0,0,1,1.2-.151l6.682,5.192a.858.858,0,0,1,.151,1.2h0A.857.857,0,0,1,5202.752,1540.215Z" transform="translate(-5137.754 -1481.455)" fill="#7a9db0"/>
            <path id="Trazado_151163" data-name="Trazado 151163" d="M5206.772,1534.155l-6.682-5.191a.858.858,0,0,1-.151-1.2h0a.857.857,0,0,1,1.2-.151l6.682,5.191a.855.855,0,0,1,.152,1.2h0A.857.857,0,0,1,5206.772,1534.155Z" transform="translate(-5139.295 -1479.132)" fill="#7a9db0"/>
            <path id="Trazado_151164" data-name="Trazado 151164" d="M5197.94,1545.522l-6.683-5.191a.857.857,0,0,1-.152-1.2h0a.858.858,0,0,1,1.2-.151l6.682,5.191a.857.857,0,0,1,.151,1.2h0A.856.856,0,0,1,5197.94,1545.522Z" transform="translate(-5135.908 -1483.489)" fill="#7a9db0"/>
            <path id="Trazado_151165" data-name="Trazado 151165" d="M5158.638,1500.385l-.012.016q-.589.754-1.179,1.424c-.454.511-.9.982-1.337,1.4-1.819,1.755-3.414,2.672-4.044,2.182l-.02.026-49.009-18.145,29.169-37.547,29.7,43-.019.025c.55.429.249,1.823-.667,3.627-.188.374-.408.77-.651,1.181s-.533.863-.839,1.31C5159.395,1499.379,5159.03,1499.882,5158.638,1500.385Z" transform="translate(-5102.22 -1449.353)" fill="#b2d3e4"/>
            <path id="Trazado_151166" data-name="Trazado 151166" d="M5168.339,1509.25l-.012.016-39.981-30.023,4.951-6.373,36.134,34.882C5169.1,1508.244,5168.732,1508.746,5168.339,1509.25Z" transform="translate(-5111.919 -1458.218)" fill="#fff" opacity="0.15"/>
            <path id="Trazado_151167" data-name="Trazado 151167" d="M5161.25,1517.071c-.452.511-.9.982-1.335,1.4l-46.955-23.7,7.316-5.256Z" transform="translate(-5106.023 -1464.599)" fill="#fff" opacity="0.15"/>
            <path id="Trazado_151168" data-name="Trazado 151168" d="M5174.484,1502.423l-35.143-37.9,2.343-2.138,33.452,38.857C5174.947,1501.617,5174.727,1502.013,5174.484,1502.423Z" transform="translate(-5116.134 -1454.199)" fill="#fff" opacity="0.15"/>
            <path id="Trazado_151169" data-name="Trazado 151169" d="M5122.05,1472.114a82.816,82.816,0,0,1-6.82,7.773l0,0c-5.681,5.668-10.741,8.687-12.7,7.164-2.728-2.119,1.589-12.24,9.645-22.609s16.8-17.057,19.525-14.938c1.96,1.522.284,7.171-3.8,14.076A82.343,82.343,0,0,1,5122.05,1472.114Z" transform="translate(-5101.709 -1449.11)" fill="#8fb9cf"/>
            <path id="Trazado_151170" data-name="Trazado 151170" d="M5133.979,1506.114a.807.807,0,1,1,.99-1.274c.692.536,3.621-.444,8.545-5.357l.4-.393a62.933,62.933,0,0,0,4.7-5.411,61.036,61.036,0,0,0,4.364-6.375c3.544-5.987,3.768-9.069,3.078-9.605a.807.807,0,1,1,.99-1.275c2.625,2.04-1,8.863-2.679,11.7a66.024,66.024,0,0,1-9.708,12.5l-.509.5C5141.575,1503.614,5136.431,1508.019,5133.979,1506.114Z" transform="translate(-5113.96 -1459.515)" fill="#8fb9cf"/>
            <path id="Trazado_151171" data-name="Trazado 151171" d="M5129.073,1480.566a82.947,82.947,0,0,1-6.82,7.773l0,0a10.664,10.664,0,0,1,12.667-16.306A82.143,82.143,0,0,1,5129.073,1480.566Z" transform="translate(-5108.731 -1457.562)" fill="#7a9db0"/>
            <path id="Trazado_151172" data-name="Trazado 151172" d="M5131.307,1480.216c-.81,1.042-2.035,1.442-2.739.9s-.619-1.834.19-2.875,2.036-1.442,2.739-.9S5132.116,1479.175,5131.307,1480.216Z" transform="translate(-5111.822 -1459.838)" fill="#fff" opacity="0.15"/>
          </g>
          <path id="Trazado_151173" data-name="Trazado 151173" d="M5191.509,1558.913s-.351-7.461-2.544-9.995-4.034-2.071-3.654,0,2.053,5.71.43,9.158Z" transform="translate(-5133.739 -1486.705)" fill="#e9928b"/>
          <path id="Trazado_151174" data-name="Trazado 151174" d="M5191.2,1895v7.334h18.571l1.681-7.334Z" transform="translate(-5136.016 -1620.029)" fill="#4a4e73"/>
          <path id="Trazado_151175" data-name="Trazado 151175" d="M5278.638,1902.331h20.992l-.6-7.334h-22.609Z" transform="translate(-5168.68 -1620.029)" fill="#4a4e73"/>
          <path id="Trazado_151176" data-name="Trazado 151176" d="M5301.9,1923.85l-.51-.174c.024-.071.624-1.75,4.2-3.067l.184.505C5302.477,1922.328,5301.905,1923.835,5301.9,1923.85Z" transform="translate(-5178.252 -1629.847)" fill="#fff"/>
          <path id="Trazado_151177" data-name="Trazado 151177" d="M5308.448,1926.87l-.521-.137a5.321,5.321,0,0,1,3.71-3.532l.143.52A4.778,4.778,0,0,0,5308.448,1926.87Z" transform="translate(-5180.757 -1630.84)" fill="#fff"/>
          <path id="Trazado_151178" data-name="Trazado 151178" d="M5316.433,1927.433l-.538-.048a4.8,4.8,0,0,1,1.126-2.6l.392.37A4.328,4.328,0,0,0,5316.433,1927.433Z" transform="translate(-5183.812 -1631.448)" fill="#fff"/>
          <path id="Trazado_151179" data-name="Trazado 151179" d="M5198.656,1921.958a15.835,15.835,0,0,0-5.47-.973l-.016-.538a16.09,16.09,0,0,1,5.681,1.01Z" transform="translate(-5136.769 -1629.784)" fill="#fff"/>
          <path id="Trazado_151180" data-name="Trazado 151180" d="M5193.834,1924.891a16.814,16.814,0,0,0-5.139-1.441l.033-.537a17.013,17.013,0,0,1,5.323,1.486Z" transform="translate(-5135.054 -1630.729)" fill="#fff"/>
          <path id="Trazado_151181" data-name="Trazado 151181" d="M5187.5,1926.68a7.978,7.978,0,0,0-3.087-1.094l.08-.532a8.27,8.27,0,0,1,3.366,1.225Z" transform="translate(-5133.414 -1631.551)" fill="#fff"/>
          <g id="Grupo_86195" data-name="Grupo 86195" transform="translate(43.624 100.837)" opacity="0.65">
            <path id="Trazado_151182" data-name="Trazado 151182" d="M5197.685,1612.626c-1.868,4.845-2.476,13.871-2.476,13.871l-.017.017c-.516.4-13.688,10.469-20.469,3.945a9.579,9.579,0,0,1-2.271-3.843c3.751.517,6.953,4.468,11.395-.119C5190.741,1619.376,5197.685,1612.626,5197.685,1612.626Z" transform="translate(-5172.451 -1612.626)" fill="#51d2d8"/>
          </g>
          <path id="Trazado_151183" data-name="Trazado 151183" d="M5237.5,1526.575s-7.348,20.187-1.771,24.259,14.521-5.224,14.521-5.224a7.062,7.062,0,0,0,5.844-2.921c2.035-3.1-1.5-4.457-3.1-3.468s-3.454-.516-2.214-4.323.533-3.984-1.859-3.453S5237.764,1527.638,5237.5,1526.575Z" transform="translate(-5152.282 -1478.804)" fill="#e9928b"/>
        </g>
        <path id="Trazado_151184" data-name="Trazado 151184" d="M5292.945,1830.638a777.016,777.016,0,0,0-20.906-103.363l1.549-.455a778.7,778.7,0,0,1,20.958,103.6Z" transform="translate(-5167.002 -1555.563)" fill="#4a4e73"/>
      </g>
      <g id="Grupo_86202" data-name="Grupo 86202" transform="translate(76.079 133.601)">
        <path id="Trazado_151185" data-name="Trazado 151185" d="M4441.568,1520.609s-2.512-8.375-2.512-11.056,2.457-10.218,3.824-10.385,4.048,14.573,5.222,16.583-1,4.858-1,4.858Z" transform="translate(-4294.287 -1459.018)" fill="#91415c"/>
        <g id="Grupo_86199" data-name="Grupo 86199" transform="translate(0 226.823)">
          <g id="Grupo_86198" data-name="Grupo 86198" transform="translate(1.247)">
            <path id="Trazado_151186" data-name="Trazado 151186" d="M4234.778,1822.275l-8.906-9.81,3.418-3.5,6.912-7.086,8.526,9.391-6.659,7.365Z" transform="translate(-4213.814 -1801.877)" fill="#91415c"/>
            <path id="Trazado_151187" data-name="Trazado 151187" d="M4240.192,1818.633l-8.778-9.67,6.914-7.086,8.524,9.391Z" transform="translate(-4215.94 -1801.877)" fill="#75354a"/>
            <path id="Trazado_151188" data-name="Trazado 151188" d="M4218.921,1819.046l8.9,9.808s-.49,8.48,3.314,13.671,4.819,8.816,3.083,12.667l-26.487-29.176Z" transform="translate(-4206.863 -1808.458)" fill="#ffc945"/>
            <path id="Trazado_151189" data-name="Trazado 151189" d="M4206.321,1831.633" transform="translate(-4206.321 -1813.283)" fill="#fff"/>
            <path id="Trazado_151190" data-name="Trazado 151190" d="M4249.271,1878.944" transform="translate(-4222.785 -1831.418)" fill="#fff"/>
            <path id="Trazado_151191" data-name="Trazado 151191" d="M4235.852,1838.56c-2.056-1.491-6.9-2.835-6.947-2.848l.143-.52c.2.056,4.986,1.384,7.121,2.931Z" transform="translate(-4214.978 -1814.647)" fill="#fff"/>
            <path id="Trazado_151192" data-name="Trazado 151192" d="M4236.857,1844.482c-2.445-1.033-6.265-.617-6.3-.614l-.06-.535c.162-.018,4-.433,6.572.653Z" transform="translate(-4215.587 -1817.733)" fill="#fff"/>
            <path id="Trazado_151193" data-name="Trazado 151193" d="M4234.055,1850.546l-.2-.5a19.139,19.139,0,0,1,5.011-1.164l.033.537A18.877,18.877,0,0,0,4234.055,1850.546Z" transform="translate(-4216.875 -1819.894)" fill="#fff"/>
          </g>
          <rect id="Rectángulo_7306" data-name="Rectángulo 7306" width="2.863" height="39.405" transform="matrix(0.74, -0.672, 0.672, 0.74, 0, 19.482)" fill="#dceceb"/>
        </g>
        <path id="Trazado_151194" data-name="Trazado 151194" d="M4302.4,1669.229s-.166.92-.472,2.493c-.649,3.342-1.93,9.649-3.579,16.407-2.124,8.689-4.865,18.126-7.678,22.975-3.255,5.613-16.658,17.453-28.287,27.152-9.889,8.246-18.5,14.944-18.5,14.944l-18.005-18.477s37.258-33.583,38.262-34.926,5.428-20.855,7.106-36.267a91.926,91.926,0,0,1,4.854-19.7,137.788,137.788,0,0,1,5.527-13.463l17.423,6.366.171,1.634,1.689,16.377Z" transform="translate(-4212.568 -1509.309)" fill="#856de9"/>
        <path id="Trazado_151195" data-name="Trazado 151195" d="M4324.618,1688.33c-.65,3.342-1.931,9.649-3.579,16.407-2.125,8.689-4.865,18.126-7.679,22.975-3.255,5.613-16.658,17.453-28.287,27.152,2.79-15.166,20.725-13.8,18.07-24.891-2.764-11.557,8.795-16.08,4.186-31.156s2.85-25.126,2.85-25.126S4316.939,1680.45,4324.618,1688.33Z" transform="translate(-4235.261 -1525.917)" fill="#6349cf"/>
        <path id="Trazado_151196" data-name="Trazado 151196" d="M4393.14,1497.784a19.793,19.793,0,0,0-5.221,7.211,24.516,24.516,0,0,0-1.919,6.859c-1.256,9.548-17.84-.754-17.84-.754l8.041-16.834,6.589-3.518,5.13,3.488Z" transform="translate(-4267.11 -1455.791)" fill="#91415c"/>
        <path id="Trazado_151197" data-name="Trazado 151197" d="M4368.159,1517.236s1.312-4.1,3.168-4.247,15.425,1.83,16.054,4.986a11.381,11.381,0,0,1,0,5.166Z" transform="translate(-4267.11 -1464.313)" fill="#ffab40"/>
        <path id="Trazado_151198" data-name="Trazado 151198" d="M4444.26,1538.756l1.341-6.2s-6.2-1.61-8.542-1.308-4.523,7.506-4.523,7.506Z" transform="translate(-4291.788 -1471.302)" fill="#ffab40"/>
        <path id="Trazado_151199" data-name="Trazado 151199" d="M4395.052,1580.086s8.681,2.333,27.034-14.151-15.225-9.97-15.225-9.97Z" transform="translate(-4277.42 -1480.303)" fill="#ffab40"/>
        <rect id="Rectángulo_7307" data-name="Rectángulo 7307" width="55.931" height="1.615" transform="translate(93.365 251.795)" fill="#040707"/>
        <path id="Trazado_151200" data-name="Trazado 151200" d="M4368.8,1890.171l-17.029-78.286-17.029,78.286-1.578-.343,17.818-81.913a.808.808,0,0,1,1.578,0l17.817,81.913Z" transform="translate(-4253.694 -1577.125)" fill="#040707"/>
        <g id="Grupo_86201" data-name="Grupo 86201" transform="translate(99.92 251.957)">
          <g id="Grupo_86200" data-name="Grupo 86200">
            <path id="Trazado_151201" data-name="Trazado 151201" d="M4382.844,1857.4H4369.6l-.3-4.884-.6-9.881h12.684l.977,9.881Z" transform="translate(-4367.237 -1842.635)" fill="#91415c"/>
            <path id="Trazado_151202" data-name="Trazado 151202" d="M4382.36,1852.516H4369.3l-.6-9.881h12.684Z" transform="translate(-4367.237 -1842.635)" fill="#75354a"/>
            <path id="Trazado_151203" data-name="Trazado 151203" d="M4368.686,1866.577h13.247s5.95,6.063,12.35,6.736,9.767,2.358,11.45,6.231h-39.4Z" transform="translate(-4366.329 -1851.812)" fill="#ffc945"/>
            <path id="Trazado_151204" data-name="Trazado 151204" d="M4366.329,1889.515" transform="translate(-4366.329 -1860.605)" fill="#fff"/>
            <path id="Trazado_151205" data-name="Trazado 151205" d="M4430.228,1889.515" transform="translate(-4390.824 -1860.605)" fill="#fff"/>
            <path id="Trazado_151206" data-name="Trazado 151206" d="M4384.588,1873.417l-.288-.454c.178-.112,4.375-2.761,6.955-3.3l.111.527C4388.882,1870.708,4384.63,1873.39,4384.588,1873.417Z" transform="translate(-4373.219 -1852.994)" fill="#fff"/>
            <path id="Trazado_151207" data-name="Trazado 151207" d="M4391.721,1877.083l-.437-.315c.1-.132,2.368-3.253,4.9-4.427l.227.488C4394,1873.945,4391.742,1877.052,4391.721,1877.083Z" transform="translate(-4375.894 -1854.022)" fill="#fff"/>
            <path id="Trazado_151208" data-name="Trazado 151208" d="M4399.508,1879.385l-.5-.191a19.072,19.072,0,0,1,2.507-4.492l.42.336A19,19,0,0,0,4399.508,1879.385Z" transform="translate(-4378.854 -1854.927)" fill="#fff"/>
          </g>
          <rect id="Rectángulo_7308" data-name="Rectángulo 7308" width="39.405" height="2.863" transform="translate(0 27.732)" fill="#dceceb"/>
        </g>
        <path id="Trazado_151209" data-name="Trazado 151209" d="M4459.748,1890.171l-17.028-78.286-17.031,78.286-1.577-.343,17.819-81.913a.806.806,0,0,1,1.576,0l17.819,81.913Z" transform="translate(-4288.558 -1577.125)" fill="#040707"/>
        <rect id="Rectángulo_7309" data-name="Rectángulo 7309" width="56.088" height="1.615" transform="translate(86.851 281.744)" fill="#040707"/>
        <path id="Trazado_151210" data-name="Trazado 151210" d="M4372.568,1773h-27.137s.529-45.207.529-53.247c0-5.718-5.423-15.156-11.085-27.664a177.081,177.081,0,0,1-6.675-16.724,150.458,150.458,0,0,1-5.542-21.413,84.1,84.1,0,0,1-1.493-13.262l14.578,1.634,21.272,2.386s2.332,8.242,5.228,18.875c4.611,16.99,10.646,40.091,10.853,45.448C4373.427,1717.74,4372.568,1773,4372.568,1773Z" transform="translate(-4249.096 -1513.266)" fill="#856de9"/>
        <path id="Trazado_151211" data-name="Trazado 151211" d="M4356.932,1659.626c-5.885-2.478-11.939-4.854-17.956-4.553a36.071,36.071,0,0,1-6.855-.332,49.2,49.2,0,0,1-14.773-4.749,65.222,65.222,0,0,1-10.036-6.166,137.911,137.911,0,0,1,5.529-13.463l17.421,6.366.171,1.634,21.271,2.386S4354.037,1648.993,4356.932,1659.626Z" transform="translate(-4243.786 -1509.309)" fill="#6349cf"/>
        <path id="Trazado_151212" data-name="Trazado 151212" d="M4439.966,1531.99s-22.612,22.111-29.146,23.619-30.654-6.281-34.673-6.03c-1.82.116-5.655,12.895-9.292,26.855-4.408,16.87-8.548,35.458-8.548,35.458s-11.306-4.523-29.649-5.779a42.035,42.035,0,0,1-7.347-1.141c-12.779-3.2-17.528-11.423-17.528-11.423,18.09-25.88,18.342-48.494,22.112-62.564s18.845-15.075,30.151-11.558c5.011,1.558,15.828,3.518,20.855,5.276s30.9,11.81,32.664,11.81,23.115-12.061,23.115-12.061C4439.464,1524.452,4439.966,1531.99,4439.966,1531.99Z" transform="translate(-4242.434 -1466.127)" fill="#ffc945"/>
        <path id="Trazado_151213" data-name="Trazado 151213" d="M4513.481,1525.75s4.354-3.847,8.041-5.354,8.71-4.6,8.71-2.971-4.523,3.932-4.523,3.932l13.778-1.253s-6.072,6.154-10.93,7.327-11.057,3.35-11.057,3.35Z" transform="translate(-4322.817 -1465.84)" fill="#91415c"/>
        <rect id="Rectángulo_7310" data-name="Rectángulo 7310" width="83.245" height="48.242" transform="translate(147.604 11.615) rotate(-4.767)" fill="#18b6fe"/>
        <rect id="Rectángulo_7311" data-name="Rectángulo 7311" width="73.195" height="38.192" transform="matrix(0.997, -0.083, 0.083, 0.997, 153.029, 16.205)" fill="#fff"/>
        <path id="Trazado_151214" data-name="Trazado 151214" d="M4470.148,1503.181l14.187-30.1,18.977,27.339Z" transform="translate(-4306.206 -1449.017)" fill="#18b6fe"/>
        <path id="Trazado_151215" data-name="Trazado 151215" d="M4521.481,1503.232l10.973-23.284,14.677,21.145Z" transform="translate(-4325.882 -1451.651)" fill="#18b6fe"/>
        <ellipse id="Elipse_8030" data-name="Elipse 8030" cx="4.951" cy="4.951" rx="4.951" ry="4.951" transform="translate(187.508 17.599) rotate(-2.821)" fill="#18b6fe"/>
        <path id="Trazado_151216" data-name="Trazado 151216" d="M4379.706,1781.563l-1.614,0c0-.484.063-48.544-.216-60.125-.274-11.436-20.218-57.819-20.419-58.286l1.482-.64c.828,1.92,20.27,47.14,20.552,58.887C4379.77,1733,4379.708,1781.079,4379.706,1781.563Z" transform="translate(-4263.007 -1521.631)" fill="#6349cf"/>
        <path id="Trazado_151217" data-name="Trazado 151217" d="M4377.75,1612.933c-4.408,16.87-8.548,35.458-8.548,35.458s-11.307-4.523-29.648-5.779a42.044,42.044,0,0,1-7.348-1.141,16.862,16.862,0,0,1,1.377-1.372c15.135-13.568,20.794-4.523,28.2-14.322C4367.318,1618.456,4372.689,1618.049,4377.75,1612.933Z" transform="translate(-4253.329 -1502.627)" fill="#ffab40"/>
        <path id="Trazado_151218" data-name="Trazado 151218" d="M4394.619,1452.938l2.765-2.89s.251-5.15-4.942-11.851-8.208-4.187-5.863,0-4.691,2.01-10.972,1.173-11.473.052-8.374,4.13.418,4.245-7.286,7.428-6.535,7.873,0,8.375,2.184,4.355-2.845,9.715-1.176,8.376,4.35,5.361,6.7.335,4.858,5.024,4.69.67,7.707-2.68,2.176,2.513,6.783-4.858S4394.619,1452.938,4394.619,1452.938Z" transform="translate(-4261.912 -1434.062)" fill="#0c1b3c"/>
        <path id="Trazado_151219" data-name="Trazado 151219" d="M4404.077,1499.952a19.773,19.773,0,0,0-5.22,7.211c-3.669-3.9-1.563-10.593-1.563-10.593l1.563-.166Z" transform="translate(-4278.047 -1457.959)" fill="#75354a"/>
        <path id="Trazado_151220" data-name="Trazado 151220" d="M4410.442,1459.52s-.836,8.5.754,12.857,3.183,4.523,1.257,6.2-3.182,1.34-3.6,3.266.419,8.543-4.438,8.375-10.051-7.119-10.554-8.878c0,0-5.108-1.675-5.192-5.947s4.1-5.695,5.779-3.685,3.518-.586,3.6-3.768,2.1-7.706,5.529-7.454S4408.6,1457.3,4410.442,1459.52Z" transform="translate(-4274.971 -1443.532)" fill="#91415c"/>
      </g>
      <g id="Grupo_86203" data-name="Grupo 86203" transform="translate(277.048 400.369)">
        <path id="Trazado_151221" data-name="Trazado 151221" d="M4538.292,1912.929l-.911-.573a44.308,44.308,0,0,0,2.933-6.06c2.845-6.948,6.566-18.615,6.052-39.617l1.075-.027c.522,21.2-3.25,33.014-6.13,40.051A44.356,44.356,0,0,1,4538.292,1912.929Z" transform="translate(-4532.946 -1866.652)" fill="#6eab9c"/>
        <path id="Trazado_151222" data-name="Trazado 151222" d="M4541.148,1930.078l-.653-.856c11.029-8.407,26.355-9.242,26.508-9.249l.053,1.075C4566.906,1921.055,4551.905,1921.878,4541.148,1930.078Z" transform="translate(-4534.139 -1887.091)" fill="#6eab9c"/>
        <path id="Trazado_151223" data-name="Trazado 151223" d="M4549.877,1899.039l-1.036-.292c1.033-3.664,12.064-17.391,12.534-17.973l.839.675C4562.1,1881.589,4550.851,1895.585,4549.877,1899.039Z" transform="translate(-4537.339 -1872.065)" fill="#6eab9c"/>
        <path id="Trazado_151224" data-name="Trazado 151224" d="M4539.161,1908.95c-3.441-5.319-8.748-18.931-8.973-19.508l1-.39c.054.14,5.491,14.085,8.873,19.314Z" transform="translate(-4530.188 -1875.239)" fill="#6eab9c"/>
      </g>
      <g id="Grupo_86204" data-name="Grupo 86204" transform="translate(324.083 426.868)">
        <path id="Trazado_151225" data-name="Trazado 151225" d="M4606.461,1933.275l1.446-1.037c.138-.1,13.9-9.85,28.626-10.536l.05,1.076c-11.533.537-22.492,6.776-26.472,9.292l14.3-.5.037,1.076Z" transform="translate(-4606.461 -1914.253)" fill="#6eab9c"/>
        <path id="Trazado_151226" data-name="Trazado 151226" d="M4624.18,1923.067l-1.018-.349a53.048,53.048,0,0,1,7.241-13.1l.851.656A53.132,53.132,0,0,0,4624.18,1923.067Z" transform="translate(-4612.863 -1909.623)" fill="#6eab9c"/>
      </g>
      <path id="Trazado_151227" data-name="Trazado 151227" d="M4998.621,1600.559c-5.551,11.126-27.874,15.142-33.884,1.954-7-15.341-11.439-11.573-23.012-10.765s-19.782-5.382-18.839-18.571c.936-13.08-8.064-14.474-10.588-26.3.371,1.566,2.449,8.832,9.312,11.083,7.714,2.525,14.712,9.753,10.944,17.983s10.506,6.976,20.771-2.088,17.983,5.652,16.369,18.57C4968.192,1604.43,4987.148,1611.535,4998.621,1600.559Z" transform="translate(-4399.614 -1343.704)" fill="#ffab40"/>
      <g id="Grupo_86206" data-name="Grupo 86206" transform="translate(567.925 59.618)">
        <g id="Grupo_86205" data-name="Grupo 86205" transform="translate(0 0)">
          <ellipse id="Elipse_8031" data-name="Elipse 8031" cx="17.205" cy="17.205" rx="17.205" ry="17.205" transform="matrix(0.044, -0.999, 0.999, 0.044, 0, 34.378)" fill="#b2e5e0"/>
        </g>
        <path id="Trazado_151228" data-name="Trazado 151228" d="M5032.231,1333.186c-4.462-2.418-6.91,3.75-6.91,3.75s-2.487-6.152-6.934-3.706c-5.017,2.76-.525,11.674,6.972,15.541C5032.832,1344.856,5037.265,1335.913,5032.231,1333.186Z" transform="translate(-5007.389 -1321.196)" fill="#b2e5e0"/>
      </g>
      <g id="Grupo_86207" data-name="Grupo 86207" transform="translate(572.829 63.043)">
        <ellipse id="Elipse_8032" data-name="Elipse 8032" cx="17.205" cy="17.205" rx="17.205" ry="17.205" transform="translate(0 0)" fill="#fff"/>
        <path id="Trazado_151229" data-name="Trazado 151229" d="M5039,1337.55c-4.46-2.417-6.91,3.751-6.91,3.751s-2.489-6.153-6.934-3.706c-5.017,2.76-.523,11.674,6.972,15.54C5039.6,1349.221,5044.03,1340.278,5039,1337.55Z" transform="translate(-5014.888 -1326.293)" fill="#eb908b"/>
      </g>
      <g id="Grupo_86210" data-name="Grupo 86210" transform="translate(683.857 125.682)">
        <g id="Grupo_86208" data-name="Grupo 86208" transform="translate(0 0)">
          <ellipse id="Elipse_8033" data-name="Elipse 8033" cx="13.478" cy="13.478" rx="13.478" ry="13.478" fill="#b2e5e0"/>
        </g>
        <g id="Grupo_86209" data-name="Grupo 86209" transform="translate(6.008 6.374)">
          <path id="Trazado_151230" data-name="Trazado 151230" d="M5207.082,1433.984l4.618-2.427-.881,5.141,3.734,3.641-5.161.75-2.31,4.677-2.307-4.677-5.162-.75,3.735-3.641-.881-5.141Z" transform="translate(-5199.613 -1431.557)" fill="#b2e5e0"/>
        </g>
      </g>
      <g id="Grupo_86211" data-name="Grupo 86211" transform="translate(687.487 128.405)">
        <ellipse id="Elipse_8034" data-name="Elipse 8034" cx="13.478" cy="13.478" rx="13.478" ry="13.478" transform="translate(0)" fill="#edf6f5"/>
        <path id="Trazado_151231" data-name="Trazado 151231" d="M5212.969,1438.4l4.618-2.427-.882,5.141,3.736,3.641-5.163.75-2.309,4.677-2.308-4.677-5.159-.75,3.732-3.641-.88-5.141Z" transform="translate(-5199.493 -1429.598)" fill="#ffc945"/>
      </g>
      <path id="Trazado_151232" data-name="Trazado 151232" d="M4503.762,1680.479v-42.793s14.9,3.768,18.892,17.225,17.827,19.109,25.011,14.8,6.773-15.88,16.291-19.916,15.374,5.921,26.549,16.956,26.076,13.187,37.783,3.229,23.017-12.649,31.864-3.5,12.839,9.958,22.95,8.074,16.653,5.921,16.653,5.921Z" transform="translate(-4243.011 -1378.515)" fill="#b2e5e0"/>
      <rect id="Rectángulo_7312" data-name="Rectángulo 7312" width="180.978" height="3.947" transform="translate(275.766 315.197)" fill="#fff"/>
      <path id="Trazado_151233" data-name="Trazado 151233" d="M4509.525,1724.972h0a4.173,4.173,0,0,0-4.174,4.172h0a4.173,4.173,0,0,0,4.174,4.172h0a4.17,4.17,0,0,0,4.169-4.172h0A4.17,4.17,0,0,0,4509.525,1724.972Z" transform="translate(-4243.621 -1411.974)" fill="#fff"/>
      <g id="Grupo_86212" data-name="Grupo 86212" transform="translate(260.743 254.802)" opacity="0.38">
        <path id="Trazado_151234" data-name="Trazado 151234" d="M4503.757,1677.763h195.991s-4.146-23.684-19.312-23.684-11.432,20.879-30.994,15.553-21.69-37.353-42.711-38.969-26.076,28.26-36.985,28.26-13.038-12.425-26.875-13.211-13.036,19.67-23.148,20.746S4503.49,1674,4503.757,1677.763Z" transform="translate(-4503.749 -1630.601)" fill="#3fb8a9"/>
      </g>
      <rect id="Rectángulo_7313" data-name="Rectángulo 7313" width="52.212" height="52.213" rx="7.581" transform="translate(383.408 151.068)" fill="#b2e5e0"/>
      <rect id="Rectángulo_7314" data-name="Rectángulo 7314" width="52.212" height="52.213" rx="7.581" transform="translate(388.791 156.365)" fill="#fff"/>
      <path id="Trazado_151235" data-name="Trazado 151235" d="M4737.335,1518.873l21-14.7-21-14.7Z" transform="translate(-4332.545 -1321.699)" fill="#18b6fe"/>
    </g>
    <g id="Grupo_86156" data-name="Grupo 86156" transform="translate(478.159 2129.111)">
      <g id="Grupo_86155" data-name="Grupo 86155" transform="translate(0 0)">
        <g transform="matrix(1, 0, 0, 1, -88.16, -91.11)" filter="url(#Elipse_8022)">
          <ellipse id="Elipse_8022-7" data-name="Elipse 8022" cx="39.769" cy="39.769" rx="39.769" ry="39.769" transform="translate(88.16 91.11)" fill="#f8f7ef"/>
        </g>
        <ellipse id="Elipse_8023" data-name="Elipse 8023" cx="33.429" cy="33.429" rx="33.429" ry="33.429" transform="matrix(0.989, -0.15, 0.15, 0.989, 1.713, 11.72)" fill="#7ff9ff"/>
        <ellipse id="Elipse_8024" data-name="Elipse 8024" cx="29.354" cy="29.354" rx="29.354" ry="29.354" transform="translate(9.989 68.691) rotate(-89.163)" fill="#f8f7ef"/>
      </g>
      <path id="Trazado_153621" data-name="Trazado 153621" d="M21.1,22.284a10.184,10.184,0,0,1-1.941,6.665,6.707,6.707,0,0,1-5.471,2.344,6.743,6.743,0,0,1-5.508-2.358,10.168,10.168,0,0,1-1.948-6.65v-3.9a10.184,10.184,0,0,1,1.941-6.665,6.724,6.724,0,0,1,5.486-2.344,6.726,6.726,0,0,1,5.493,2.358A10.193,10.193,0,0,1,21.1,18.4Zm-4.937-4.526a7.607,7.607,0,0,0-.6-3.435,2.008,2.008,0,0,0-1.9-1.135,1.96,1.96,0,0,0-1.853,1.055,7.166,7.166,0,0,0-.623,3.193v5.449a7.664,7.664,0,0,0,.6,3.494,2.015,2.015,0,0,0,1.9,1.106,1.988,1.988,0,0,0,1.86-1.077,7.317,7.317,0,0,0,.615-3.376ZM34.61,31H29.659V15.238L24.8,16.659v-3.75l9.36-3.237h.454Z" transform="translate(17.687 21.538)" fill="#12263f"/>
    </g>
    <g id="Grupo_86219" data-name="Grupo 86219" transform="translate(1001.058 2254.555)">
      <g id="Grupo_86155-2" data-name="Grupo 86155" transform="translate(0 0)">
        <g transform="matrix(1, 0, 0, 1, -611.06, -216.55)" filter="url(#Elipse_8022-2)">
          <ellipse id="Elipse_8022-8" data-name="Elipse 8022" cx="39.769" cy="39.769" rx="39.769" ry="39.769" transform="translate(611.06 216.55)" fill="#f8f7ef"/>
        </g>
        <ellipse id="Elipse_8023-2" data-name="Elipse 8023" cx="33.429" cy="33.429" rx="33.429" ry="33.429" transform="matrix(0.989, -0.15, 0.15, 0.989, 1.713, 11.72)" fill="#7ff9ff"/>
        <ellipse id="Elipse_8024-2" data-name="Elipse 8024" cx="29.354" cy="29.354" rx="29.354" ry="29.354" transform="translate(9.989 68.691) rotate(-89.163)" fill="#f8f7ef"/>
      </g>
      <path id="Trazado_153625" data-name="Trazado 153625" d="M21.1,22.284a10.184,10.184,0,0,1-1.941,6.665,6.707,6.707,0,0,1-5.471,2.344,6.743,6.743,0,0,1-5.508-2.358,10.168,10.168,0,0,1-1.948-6.65v-3.9a10.184,10.184,0,0,1,1.941-6.665,6.724,6.724,0,0,1,5.486-2.344,6.726,6.726,0,0,1,5.493,2.358A10.193,10.193,0,0,1,21.1,18.4Zm-4.937-4.526a7.607,7.607,0,0,0-.6-3.435,2.008,2.008,0,0,0-1.9-1.135,1.96,1.96,0,0,0-1.853,1.055,7.166,7.166,0,0,0-.623,3.193v5.449a7.664,7.664,0,0,0,.6,3.494,2.015,2.015,0,0,0,1.9,1.106,1.988,1.988,0,0,0,1.86-1.077,7.317,7.317,0,0,0,.615-3.376Zm7.793,2.824,1.3-10.91H37.73V13.51H29.278l-.483,4.237a5.822,5.822,0,0,1,1.384-.544,6.316,6.316,0,0,1,1.677-.235,6.257,6.257,0,0,1,4.885,1.882,7.582,7.582,0,0,1,1.707,5.281,7.569,7.569,0,0,1-.916,3.713A6.293,6.293,0,0,1,34.961,30.4a8.116,8.116,0,0,1-3.911.894,8.733,8.733,0,0,1-3.765-.827A6.754,6.754,0,0,1,24.532,28.2a5.513,5.513,0,0,1-.981-3.257H28.5a2.8,2.8,0,0,0,.747,1.856,2.371,2.371,0,0,0,1.772.687q2.49,0,2.49-3.684,0-3.406-3.047-3.406a3.04,3.04,0,0,0-2.578,1.111Z" transform="translate(17.688 21.538)" fill="#12263f"/>
    </g>
    <g id="Grupo_86218" data-name="Grupo 86218" transform="translate(1130.462 2368.424)">
      <g id="Grupo_86155-3" data-name="Grupo 86155" transform="translate(0 0)">
        <g transform="matrix(1, 0, 0, 1, -740.46, -330.42)" filter="url(#Elipse_8022-3)">
          <ellipse id="Elipse_8022-9" data-name="Elipse 8022" cx="39.769" cy="39.769" rx="39.769" ry="39.769" transform="translate(740.46 330.42)" fill="#f8f7ef"/>
        </g>
        <ellipse id="Elipse_8023-3" data-name="Elipse 8023" cx="33.429" cy="33.429" rx="33.429" ry="33.429" transform="matrix(0.989, -0.15, 0.15, 0.989, 1.713, 11.72)" fill="#d07efc"/>
        <ellipse id="Elipse_8024-3" data-name="Elipse 8024" cx="29.354" cy="29.354" rx="29.354" ry="29.354" transform="translate(9.989 68.691) rotate(-89.163)" fill="#f8f7ef"/>
      </g>
      <path id="Trazado_153626" data-name="Trazado 153626" d="M21.1,22.284a10.184,10.184,0,0,1-1.941,6.665,6.707,6.707,0,0,1-5.471,2.344,6.743,6.743,0,0,1-5.508-2.358,10.168,10.168,0,0,1-1.948-6.65v-3.9a10.184,10.184,0,0,1,1.941-6.665,6.724,6.724,0,0,1,5.486-2.344,6.726,6.726,0,0,1,5.493,2.358A10.193,10.193,0,0,1,21.1,18.4Zm-4.937-4.526a7.607,7.607,0,0,0-.6-3.435,2.008,2.008,0,0,0-1.9-1.135,1.96,1.96,0,0,0-1.853,1.055,7.166,7.166,0,0,0-.623,3.193v5.449a7.664,7.664,0,0,0,.6,3.494,2.015,2.015,0,0,0,1.9,1.106,1.988,1.988,0,0,0,1.86-1.077,7.317,7.317,0,0,0,.615-3.376ZM35.591,9.364v3.882h-.22a7.411,7.411,0,0,0-4.548,1.326,5.6,5.6,0,0,0-2.19,3.684,5.773,5.773,0,0,1,4.219-1.641,5.385,5.385,0,0,1,4.409,2.021,8.153,8.153,0,0,1,1.641,5.3,7.466,7.466,0,0,1-.959,3.735,6.846,6.846,0,0,1-2.681,2.659,7.7,7.7,0,0,1-3.816.959,7.961,7.961,0,0,1-4.058-1.033A7.1,7.1,0,0,1,24.6,27.309a9.719,9.719,0,0,1-1.025-4.424V20.907a12.312,12.312,0,0,1,1.414-5.925,10.248,10.248,0,0,1,4.036-4.124,11.538,11.538,0,0,1,5.815-1.494Zm-4.453,11.03a2.824,2.824,0,0,0-1.641.454,2.883,2.883,0,0,0-.981,1.113v1.479q0,4.043,2.8,4.043A2.27,2.27,0,0,0,33.2,26.474a4.119,4.119,0,0,0,.754-2.534,4.043,4.043,0,0,0-.769-2.556A2.46,2.46,0,0,0,31.138,20.395Z" transform="translate(17.687 21.538)" fill="#12263f"/>
    </g>
    <g id="Grupo_86214" data-name="Grupo 86214" transform="translate(685.471 2071.011)">
      <g id="Grupo_86155-4" data-name="Grupo 86155" transform="translate(0 0.001)">
        <g transform="matrix(1, 0, 0, 1, -295.47, -33.01)" filter="url(#Elipse_8022-4)">
          <ellipse id="Elipse_8022-10" data-name="Elipse 8022" cx="39.769" cy="39.769" rx="39.769" ry="39.769" transform="translate(295.47 33.01)" fill="#f8f7ef"/>
        </g>
        <ellipse id="Elipse_8023-4" data-name="Elipse 8023" cx="33.429" cy="33.429" rx="33.429" ry="33.429" transform="matrix(0.989, -0.15, 0.15, 0.989, 1.713, 11.72)" fill="#d07efc"/>
        <ellipse id="Elipse_8024-4" data-name="Elipse 8024" cx="29.354" cy="29.354" rx="29.354" ry="29.354" transform="translate(9.989 68.691) rotate(-89.163)" fill="#f8f7ef"/>
      </g>
      <path id="Trazado_153622" data-name="Trazado 153622" d="M21.1,22.284a10.184,10.184,0,0,1-1.941,6.665,6.707,6.707,0,0,1-5.471,2.344,6.743,6.743,0,0,1-5.508-2.358,10.168,10.168,0,0,1-1.948-6.65v-3.9a10.184,10.184,0,0,1,1.941-6.665,6.724,6.724,0,0,1,5.486-2.344,6.726,6.726,0,0,1,5.493,2.358A10.193,10.193,0,0,1,21.1,18.4Zm-4.937-4.526a7.607,7.607,0,0,0-.6-3.435,2.008,2.008,0,0,0-1.9-1.135,1.96,1.96,0,0,0-1.853,1.055,7.166,7.166,0,0,0-.623,3.193v5.449a7.664,7.664,0,0,0,.6,3.494,2.015,2.015,0,0,0,1.9,1.106,1.988,1.988,0,0,0,1.86-1.077,7.317,7.317,0,0,0,.615-3.376ZM38.55,31H23.667V27.777l6.855-7.207q2.534-2.886,2.534-4.585a3.189,3.189,0,0,0-.6-2.095,2.144,2.144,0,0,0-1.743-.718,2.171,2.171,0,0,0-1.831.959,3.943,3.943,0,0,0-.7,2.4H23.228a7,7,0,0,1,.981-3.625,6.882,6.882,0,0,1,2.725-2.6,8.094,8.094,0,0,1,3.9-.937,7.962,7.962,0,0,1,5.325,1.6,5.7,5.7,0,0,1,1.868,4.585A6.658,6.658,0,0,1,37.554,18,10.76,10.76,0,0,1,36.1,20.5a36.715,36.715,0,0,1-3.186,3.508l-2.754,3.179H38.55Z" transform="translate(17.366 21.538)" fill="#12263f"/>
    </g>
    <g id="Grupo_86215" data-name="Grupo 86215" transform="translate(743.805 2242.981)">
      <g id="Grupo_86155-5" data-name="Grupo 86155" transform="translate(0 -0.001)">
        <g transform="matrix(1, 0, 0, 1, -353.8, -204.98)" filter="url(#Elipse_8022-5)">
          <ellipse id="Elipse_8022-11" data-name="Elipse 8022" cx="39.769" cy="39.769" rx="39.769" ry="39.769" transform="translate(353.8 204.98)" fill="#f8f7ef"/>
        </g>
        <ellipse id="Elipse_8023-5" data-name="Elipse 8023" cx="33.429" cy="33.429" rx="33.429" ry="33.429" transform="matrix(0.989, -0.15, 0.15, 0.989, 1.713, 11.72)" fill="#856de9"/>
        <ellipse id="Elipse_8024-5" data-name="Elipse 8024" cx="29.354" cy="29.354" rx="29.354" ry="29.354" transform="translate(9.989 68.691) rotate(-89.163)" fill="#f8f7ef"/>
      </g>
      <path id="Trazado_153623" data-name="Trazado 153623" d="M21.1,22.284a10.184,10.184,0,0,1-1.941,6.665,6.707,6.707,0,0,1-5.471,2.344,6.743,6.743,0,0,1-5.508-2.358,10.168,10.168,0,0,1-1.948-6.65v-3.9a10.184,10.184,0,0,1,1.941-6.665,6.724,6.724,0,0,1,5.486-2.344,6.726,6.726,0,0,1,5.493,2.358A10.193,10.193,0,0,1,21.1,18.4Zm-4.937-4.526a7.607,7.607,0,0,0-.6-3.435,2.008,2.008,0,0,0-1.9-1.135,1.96,1.96,0,0,0-1.853,1.055,7.166,7.166,0,0,0-.623,3.193v5.449a7.664,7.664,0,0,0,.6,3.494,2.015,2.015,0,0,0,1.9,1.106,1.988,1.988,0,0,0,1.86-1.077,7.317,7.317,0,0,0,.615-3.376Zm12.012.513h2.329q2.769,0,2.769-2.71a2.343,2.343,0,0,0-.659-1.721,2.5,2.5,0,0,0-1.86-.667,2.676,2.676,0,0,0-1.707.571,1.743,1.743,0,0,0-.725,1.421H23.389a5.053,5.053,0,0,1,.938-3,6.191,6.191,0,0,1,2.6-2.058,8.89,8.89,0,0,1,3.655-.74,8.735,8.735,0,0,1,5.6,1.626,5.405,5.405,0,0,1,2.036,4.468,4.505,4.505,0,0,1-.842,2.6,6,6,0,0,1-2.454,1.985,5.734,5.734,0,0,1,2.666,1.868,4.919,4.919,0,0,1,.967,3.1,5.5,5.5,0,0,1-2.2,4.57,9.12,9.12,0,0,1-5.771,1.714,9.458,9.458,0,0,1-3.889-.8,6.093,6.093,0,0,1-2.717-2.212,5.751,5.751,0,0,1-.923-3.215h4.966a2.223,2.223,0,0,0,.791,1.7,2.793,2.793,0,0,0,1.948.718,2.925,2.925,0,0,0,2.08-.725,2.424,2.424,0,0,0,.776-1.853,2.833,2.833,0,0,0-.806-2.285,3.368,3.368,0,0,0-2.227-.674h-2.4Z" transform="translate(17.367 21.537)" fill="#12263f"/>
    </g>
    <g id="Grupo_86216" data-name="Grupo 86216" transform="translate(871.653 2129.111)">
      <g id="Grupo_86155-6" data-name="Grupo 86155" transform="translate(0 0)">
        <g transform="matrix(1, 0, 0, 1, -481.65, -91.11)" filter="url(#Elipse_8022-6)">
          <ellipse id="Elipse_8022-12" data-name="Elipse 8022" cx="39.769" cy="39.769" rx="39.769" ry="39.769" transform="translate(481.65 91.11)" fill="#f8f7ef"/>
        </g>
        <ellipse id="Elipse_8023-6" data-name="Elipse 8023" cx="33.429" cy="33.429" rx="33.429" ry="33.429" transform="matrix(0.989, -0.15, 0.15, 0.989, 1.713, 11.72)" fill="#18b6fe"/>
        <ellipse id="Elipse_8024-6" data-name="Elipse 8024" cx="29.354" cy="29.354" rx="29.354" ry="29.354" transform="translate(9.989 68.691) rotate(-89.163)" fill="#f8f7ef"/>
      </g>
      <path id="Trazado_153624" data-name="Trazado 153624" d="M21.1,22.284a10.184,10.184,0,0,1-1.941,6.665,6.707,6.707,0,0,1-5.471,2.344,6.743,6.743,0,0,1-5.508-2.358,10.168,10.168,0,0,1-1.948-6.65v-3.9a10.184,10.184,0,0,1,1.941-6.665,6.724,6.724,0,0,1,5.486-2.344,6.726,6.726,0,0,1,5.493,2.358A10.193,10.193,0,0,1,21.1,18.4Zm-4.937-4.526a7.607,7.607,0,0,0-.6-3.435,2.008,2.008,0,0,0-1.9-1.135,1.96,1.96,0,0,0-1.853,1.055,7.166,7.166,0,0,0-.623,3.193v5.449a7.664,7.664,0,0,0,.6,3.494,2.015,2.015,0,0,0,1.9,1.106,1.988,1.988,0,0,0,1.86-1.077,7.317,7.317,0,0,0,.615-3.376ZM36.7,22.665h2.168v3.809H36.7V31H31.768V26.474H23.521l-.293-3.018,8.54-13.74V9.672H36.7Zm-8.774,0h3.838V16.1l-.308.5Z" transform="translate(17.367 21.538)" fill="#12263f"/>
    </g>
  </g>
</svg>
