<svg xmlns="http://www.w3.org/2000/svg" width="220.589" height="184.667" viewBox="0 0 220.589 184.667">
  <g id="Grupo_86876" data-name="Grupo 86876" transform="translate(-591.893 -248.167)">
    <path id="Trazado_152474" data-name="Trazado 152474" d="M902.04,373.079s2.369-.708,5.605-5.562,8.585,1.749,12.722-6.187,6.889-10.394,14.058-3.6,11.723,9.323,17.315,5.181,8.8,2.03,13.783,6.1,9.762,1.666,11.6,4.069Z" transform="translate(-276.954 -64.185)" fill="#f0ebf7" opacity="0.52"/>
    <circle id="Elipse_8360" data-name="Elipse 8360" cx="4.524" cy="4.524" r="4.524" transform="translate(716.298 277.046)" fill="#8f94a3"/>
    <path id="Trazado_152479" data-name="Trazado 152479" d="M1027.512,468.229V564.28a4.63,4.63,0,0,1-4.868,4.347H836.56a4.63,4.63,0,0,1-4.868-4.347V468.229a4.63,4.63,0,0,1,4.868-4.348h186.083A4.63,4.63,0,0,1,1027.512,468.229Z" transform="translate(-231.203 -135.794)" fill="#7ff9ff"/>
    <path id="Trazado_152480" data-name="Trazado 152480" d="M1039.158,475.054v88.483c0,2.351-2.245,4.256-5.016,4.256H847.908c-2.77,0-5.016-1.905-5.016-4.256V475.054c0-2.931,2.8-5.307,6.254-5.307H1032.9C1036.359,469.747,1039.158,472.123,1039.158,475.054Z" transform="translate(-238.486 -139.609)" fill="#f4faf8"/>
    <g id="Grupo_86839" data-name="Grupo 86839" transform="translate(686.768 354.994)">
      <g id="Grupo_86833" data-name="Grupo 86833">
        <path id="Trazado_152481" data-name="Trazado 152481" d="M1091.151,540.837a12.694,12.694,0,1,0,12.694,12.694A12.693,12.693,0,0,0,1091.151,540.837Zm0,20.865a8.171,8.171,0,1,1,8.171-8.171A8.171,8.171,0,0,1,1091.151,561.7Z" transform="translate(-1078.457 -540.837)" fill="#c2e7f0"/>
      </g>
      <path id="Trazado_152482" data-name="Trazado 152482" d="M1106.788,626.878H1092.6a1.007,1.007,0,0,1-1.007-1.007h0a1.007,1.007,0,0,1,1.007-1.007h14.19a1.007,1.007,0,0,1,1.007,1.007h0A1.007,1.007,0,0,1,1106.788,626.878Z" transform="translate(-1086.999 -595.485)" fill="#c2e7f0"/>
      <g id="Grupo_86834" data-name="Grupo 86834" transform="translate(38.391)">
        <path id="Trazado_152483" data-name="Trazado 152483" d="M1200.955,540.837a12.694,12.694,0,1,0,12.694,12.694A12.693,12.693,0,0,0,1200.955,540.837Zm0,20.865a8.171,8.171,0,1,1,8.171-8.171A8.171,8.171,0,0,1,1200.955,561.7Z" transform="translate(-1188.261 -540.837)" fill="#c2e7f0"/>
      </g>
      <path id="Trazado_152484" data-name="Trazado 152484" d="M1216.592,626.878H1202.4a1.007,1.007,0,0,1-1.007-1.007h0a1.007,1.007,0,0,1,1.007-1.007h14.19a1.007,1.007,0,0,1,1.007,1.007h0A1.007,1.007,0,0,1,1216.592,626.878Z" transform="translate(-1158.411 -595.485)" fill="#c2e7f0"/>
      <g id="Grupo_86835" data-name="Grupo 86835" transform="translate(77.058)">
        <path id="Trazado_152485" data-name="Trazado 152485" d="M1311.547,540.837a12.694,12.694,0,1,0,12.694,12.694A12.693,12.693,0,0,0,1311.547,540.837Zm0,20.865a8.171,8.171,0,1,1,8.171-8.171A8.171,8.171,0,0,1,1311.547,561.7Z" transform="translate(-1298.853 -540.837)" fill="#c2e7f0"/>
      </g>
      <g id="Grupo_86836" data-name="Grupo 86836" transform="translate(3.021 1.099)">
        <path id="Trazado_152486" data-name="Trazado 152486" d="M1099.792,543.979c-.094,0-.184,0-.275.005a12.594,12.594,0,1,0,.275-.005Zm4.347,19.612a8.169,8.169,0,1,1-4.622-15.081c.09-.006.181-.008.275-.008a8.171,8.171,0,0,1,4.347,15.089Z" transform="translate(-1087.098 -543.979)" fill="#745faa"/>
      </g>
      <g id="Grupo_86837" data-name="Grupo 86837" transform="translate(41.411 1.099)">
        <path id="Trazado_152487" data-name="Trazado 152487" d="M1221.2,551.526c-.06-.14-.127-.278-.192-.415a12.723,12.723,0,1,0,.192.415Zm-7.88,12.417a8.088,8.088,0,0,1-3.727.9,8.171,8.171,0,1,1,6.987-12.411,7.956,7.956,0,0,1,.481.925,8.168,8.168,0,0,1-3.741,10.585Z" transform="translate(-1196.898 -543.979)" fill="#67b4d2"/>
      </g>
      <path id="Trazado_152488" data-name="Trazado 152488" d="M1252.831,569.941a12.69,12.69,0,0,1-6.9,11.3l-2.062-4.029a8.174,8.174,0,0,0,3.26-11.51l4.427-1.321A12.612,12.612,0,0,1,1252.831,569.941Z" transform="translate(-1186.032 -556.148)" fill="#fff"/>
      <g id="Grupo_86838" data-name="Grupo 86838" transform="translate(80.078 1.099)">
        <path id="Trazado_152489" data-name="Trazado 152489" d="M1329.155,547.692a12.7,12.7,0,1,0,3.724,8.981A12.64,12.64,0,0,0,1329.155,547.692Zm-4.875,16.05a8.172,8.172,0,1,1,4.076-7.069A8.126,8.126,0,0,1,1324.28,563.742Z" transform="translate(-1307.491 -543.979)" fill="#67b4d2"/>
      </g>
      <path id="Trazado_152490" data-name="Trazado 152490" d="M1327.184,626.878h-14.19a1.007,1.007,0,0,1-1.007-1.007h0a1.007,1.007,0,0,1,1.007-1.007h14.19a1.007,1.007,0,0,1,1.007,1.007h0A1.007,1.007,0,0,1,1327.184,626.878Z" transform="translate(-1230.337 -595.485)" fill="#c2e7f0"/>
      <path id="Trazado_152491" data-name="Trazado 152491" d="M1135.588,556.673h-4.523a8.171,8.171,0,0,0-8.171-8.171c-.094,0-.184,0-.275.008v-4.526c.09-.005.181-.005.275-.005A12.693,12.693,0,0,1,1135.588,556.673Z" transform="translate(-1107.178 -542.88)" fill="#fff"/>
      <path id="Trazado_152492" data-name="Trazado 152492" d="M1144.185,580.286a12.677,12.677,0,0,1-5.833,10.681l-2.513-3.762a8.168,8.168,0,0,0,3.823-6.918Z" transform="translate(-1115.776 -566.493)" fill="#f38ab2"/>
      <path id="Trazado_152493" data-name="Trazado 152493" d="M1244.811,551.526l-4.139,1.832a8.03,8.03,0,0,0-.481-.925,8.167,8.167,0,0,0-6.987-3.93v-4.523a12.692,12.692,0,0,1,11.414,7.133C1244.685,551.249,1244.751,551.386,1244.811,551.526Z" transform="translate(-1179.1 -542.88)" fill="#f38ab2"/>
      <path id="Trazado_152494" data-name="Trazado 152494" d="M1364.109,563.58a12.692,12.692,0,0,1-6.331,10.988l-2.269-3.919a8.172,8.172,0,0,0,1.678-12.853l3.2-3.2A12.643,12.643,0,0,1,1364.109,563.58Z" transform="translate(-1258.643 -549.787)" fill="#fff"/>
      <path id="Trazado_152495" data-name="Trazado 152495" d="M1326.963,594.1a12.7,12.7,0,0,1-18.835-8.615l4.444-.852a8.169,8.169,0,0,0,12.123,5.548Z" transform="translate(-1227.827 -569.323)" fill="#f38ab2"/>
    </g>
    <rect id="Rectángulo_7912" data-name="Rectángulo 7912" width="196.266" height="9.082" rx="4.541" transform="translate(604.406 330.138)" fill="#18b6fe"/>
    <g id="Grupo_86843" data-name="Grupo 86843" transform="translate(609.115 333.336)">
      <g id="Grupo_86840" data-name="Grupo 86840" transform="translate(12.891 0)">
        <path id="Trazado_152496" data-name="Trazado 152496" d="M895.914,480.237a1.343,1.343,0,1,1-1.343-1.343A1.343,1.343,0,0,1,895.914,480.237Z" transform="translate(-893.229 -478.894)" fill="#fff"/>
      </g>
      <g id="Grupo_86841" data-name="Grupo 86841" transform="translate(6.446 0)">
        <path id="Trazado_152497" data-name="Trazado 152497" d="M877.481,480.237a1.343,1.343,0,1,1-1.343-1.343A1.343,1.343,0,0,1,877.481,480.237Z" transform="translate(-874.795 -478.894)" fill="#fbd163"/>
      </g>
      <g id="Grupo_86842" data-name="Grupo 86842" transform="translate(0 0)">
        <path id="Trazado_152498" data-name="Trazado 152498" d="M859.045,480.237a1.343,1.343,0,1,1-1.343-1.343A1.343,1.343,0,0,1,859.045,480.237Z" transform="translate(-856.36 -478.894)" fill="#f38ab2"/>
      </g>
    </g>
    <path id="Trazado_152499" data-name="Trazado 152499" d="M818.118,562.965a2.088,2.088,0,0,1-1.986-2.178v-44.17a2.142,2.142,0,0,1,2.037-2.233h70.493a2.142,2.142,0,0,1,2.036,2.233V560.41a2.555,2.555,0,0,1-2.555,2.555Z" transform="translate(-221.083 -168.64)" fill="#7dd0e2"/>
    <path id="Trazado_152500" data-name="Trazado 152500" d="M824.692,562.182a1.986,1.986,0,0,1-1.986-1.986V519.864a1.985,1.985,0,0,1,1.986-1.986h70.795a1.786,1.786,0,0,1,1.786,1.786V560.4a1.786,1.786,0,0,1-1.786,1.786Z" transform="translate(-225.359 -170.911)" fill="#c2e7f0"/>
    <g id="Grupo_86850" data-name="Grupo 86850" transform="translate(603.144 353.362)">
      <g id="Grupo_86844" data-name="Grupo 86844" transform="translate(22.822)">
        <rect id="Rectángulo_7913" data-name="Rectángulo 7913" width="2.067" height="31.708" fill="#fff"/>
      </g>
      <g id="Grupo_86845" data-name="Grupo 86845" transform="translate(18.258)">
        <rect id="Rectángulo_7914" data-name="Rectángulo 7914" width="2.067" height="31.708" fill="#fff"/>
      </g>
      <g id="Grupo_86846" data-name="Grupo 86846" transform="translate(13.693)">
        <rect id="Rectángulo_7915" data-name="Rectángulo 7915" width="2.067" height="31.708" fill="#fff"/>
      </g>
      <g id="Grupo_86847" data-name="Grupo 86847" transform="translate(9.129)">
        <rect id="Rectángulo_7916" data-name="Rectángulo 7916" width="2.067" height="31.708" fill="#fff"/>
      </g>
      <g id="Grupo_86848" data-name="Grupo 86848" transform="translate(4.564)">
        <rect id="Rectángulo_7917" data-name="Rectángulo 7917" width="2.067" height="31.708" fill="#fff"/>
      </g>
      <g id="Grupo_86849" data-name="Grupo 86849" transform="translate(0)">
        <rect id="Rectángulo_7918" data-name="Rectángulo 7918" width="2.067" height="31.708" fill="#fff"/>
      </g>
    </g>
    <g id="Grupo_86851" data-name="Grupo 86851" transform="translate(625.966 375.139)">
      <rect id="Rectángulo_7919" data-name="Rectángulo 7919" width="2.067" height="9.931" transform="translate(0)" fill="#cbc0e0"/>
    </g>
    <g id="Grupo_86852" data-name="Grupo 86852" transform="translate(621.402 364.463)">
      <rect id="Rectángulo_7920" data-name="Rectángulo 7920" width="2.067" height="20.606" fill="#cbc0e0"/>
    </g>
    <g id="Grupo_86853" data-name="Grupo 86853" transform="translate(616.837 359.125)">
      <rect id="Rectángulo_7921" data-name="Rectángulo 7921" width="2.067" height="25.944" fill="#cbc0e0"/>
    </g>
    <g id="Grupo_86854" data-name="Grupo 86854" transform="translate(612.273 367.019)">
      <rect id="Rectángulo_7922" data-name="Rectángulo 7922" width="2.067" height="18.051" fill="#cbc0e0"/>
    </g>
    <g id="Grupo_86855" data-name="Grupo 86855" transform="translate(607.708 372.158)">
      <rect id="Rectángulo_7923" data-name="Rectángulo 7923" width="2.067" height="12.912" fill="#cbc0e0"/>
    </g>
    <g id="Grupo_86856" data-name="Grupo 86856" transform="translate(603.144 376.218)">
      <rect id="Rectángulo_7924" data-name="Rectángulo 7924" width="2.067" height="8.852" transform="translate(0)" fill="#cbc0e0"/>
    </g>
    <circle id="Elipse_8361" data-name="Elipse 8361" cx="3.977" cy="3.977" r="3.977" transform="translate(635.412 360.296) rotate(-76.718)" fill="#fff"/>
    <g id="Grupo_86857" data-name="Grupo 86857" transform="translate(648.085 353.461)">
      <rect id="Rectángulo_7925" data-name="Rectángulo 7925" width="17.663" height="1.141" fill="#fff"/>
      <rect id="Rectángulo_7926" data-name="Rectángulo 7926" width="17.663" height="1.141" transform="translate(0 3.374)" fill="#fff"/>
      <rect id="Rectángulo_7927" data-name="Rectángulo 7927" width="9.774" height="1.141" transform="translate(0 6.714)" fill="#fff"/>
    </g>
    <circle id="Elipse_8362" data-name="Elipse 8362" cx="3.977" cy="3.977" r="3.977" transform="translate(636.219 367.853)" fill="#fff"/>
    <g id="Grupo_86858" data-name="Grupo 86858" transform="translate(648.085 367.952)">
      <rect id="Rectángulo_7928" data-name="Rectángulo 7928" width="17.663" height="1.141" fill="#fff"/>
      <rect id="Rectángulo_7929" data-name="Rectángulo 7929" width="17.663" height="1.141" transform="translate(0 3.374)" fill="#fff"/>
      <rect id="Rectángulo_7930" data-name="Rectángulo 7930" width="9.774" height="1.141" transform="translate(0 6.714)" fill="#fff"/>
    </g>
    <path id="Trazado_152501" data-name="Trazado 152501" d="M1457.888,454.127a12.426,12.426,0,0,1-5.461,10.3,5.706,5.706,0,0,0-2.449,4.732v4.45H1440.9v-4.526a5.739,5.739,0,0,0-2.528-4.708,12.45,12.45,0,1,1,19.521-10.248Z" transform="translate(-724.614 -193.508)" fill="#fbd163"/>
    <rect id="Rectángulo_7931" data-name="Rectángulo 7931" width="11.499" height="3.589" rx="1.794" transform="translate(715.073 278.233)" fill="#a7adbf"/>
    <rect id="Rectángulo_7939" data-name="Rectángulo 7939" width="165.33" height="0.586" transform="translate(618.246 397.96)" fill="#3a3e49"/>
    <path id="Trazado_152531" data-name="Trazado 152531" d="M1457.653,484.284a30.946,30.946,0,0,1-.039-14.276,4.519,4.519,0,0,1-2.962-.269,109.1,109.1,0,0,1,1.529,14.469l-.585.024a107.332,107.332,0,0,0-1.619-14.848c-2.37-1.456-3.82-4.557-3.321-5.642.072-.157.371-.647,1.186-.339,1.161.437,2.023,2.71,2.659,5.609l.018.01a3.98,3.98,0,0,0,3.269.338c1.285-4.615,3.547-7.539,5.032-8.311.665-.346,1.01-.129,1.155.03.757.829-.7,3.4-1.637,4.856a9.382,9.382,0,0,1-4.022,3.84,30.179,30.179,0,0,0-.088,14.382Zm5.805-22.835a.886.886,0,0,0-.37.118c-1.308.68-3.32,3.326-4.566,7.47a9.619,9.619,0,0,0,3.321-3.421c1.848-2.876,1.844-3.983,1.7-4.144A.112.112,0,0,0,1463.459,461.449Zm-12.1,2.438a.161.161,0,0,0-.173.1c-.295.642.706,3.119,2.607,4.564-.566-2.458-1.279-4.268-2.16-4.6A.8.8,0,0,0,1451.361,463.888Z" transform="translate(-736.043 -205.987)" fill="#fff"/>
    <g id="Grupo_86866" data-name="Grupo 86866" transform="translate(648.085 315.258)">
      <rect id="Rectángulo_7942" data-name="Rectángulo 7942" width="69.53" height="26.197" rx="9.471" fill="#c2e7f0"/>
      <rect id="Rectángulo_7943" data-name="Rectángulo 7943" width="69.53" height="21.875" rx="9.471" transform="translate(3.207 1.375)" fill="#fff"/>
      <path id="Trazado_152532" data-name="Trazado 152532" d="M1000.8,458.029h52.88s.293-6.006-7.91-4.395-13.183-8.056-19.629-7.617-7.47,7.324-14.5,7.031A13.325,13.325,0,0,0,1000.8,458.029Z" transform="translate(-989.27 -439.425)" fill="#f38ab2" opacity="0.49"/>
      <path id="Trazado_152533" data-name="Trazado 152533" d="M1000.8,458.737V447.824s6.592-.747,14.5,4.9,12.524,3.889,14.282,1.033,6.226-6.006,10.62-1.978,8.718-2.93,13.478-4.688v11.645Z" transform="translate(-989.27 -440.133)" fill="#7dd0e2" opacity="0.31"/>
    </g>
    <path id="Trazado_152534" data-name="Trazado 152534" d="M897.916,496.605" transform="translate(-274.272 -157.076)" fill="none" stroke="#3a3e49" stroke-miterlimit="10" stroke-width="2"/>
    <path id="Trazado_152535" data-name="Trazado 152535" d="M897.916,472.238" transform="translate(-274.272 -141.229)" fill="none" stroke="#3a3e49" stroke-miterlimit="10" stroke-width="2"/>
    <path id="Trazado_152536" data-name="Trazado 152536" d="M1259.591,352.29l-.568,1.925-3.686,12.466-.712,2.405-6.46-1.561,2.01-5.177s1.576-8.5,2.581-13.28c1.611-7.667,6.762-8.569,6.762-8.569Z" transform="translate(-502.061 -55.55)" fill="#c2e7f0"/>
    <path id="Trazado_152537" data-name="Trazado 152537" d="M1271.038,379.73l-3.685,12.466-.712-.255a58.372,58.372,0,0,0,1.524-9.888C1268.223,380.351,1269.5,379.786,1271.038,379.73Z" transform="translate(-514.077 -81.065)" fill="#7dd0e2"/>
    <path id="Trazado_152538" data-name="Trazado 152538" d="M1284.664,281.77a19.354,19.354,0,0,1-2.308,6.17,21.529,21.529,0,0,1-1.45,2.2,14.853,14.853,0,0,1-1.028,1.245l-5.411-.773-7.359-1.052-1.4-.2s-.047.129-.12.29c-.211.472-.633,1.233-.65-.135,0-.407.026-1,.1-1.852.082-.817.208-1.869.4-3.211.079-.569.138-1.11.179-1.629a17.239,17.239,0,0,0-.349-5.393q-.066-.273-.141-.527c-.056-.2-.117-.393-.182-.577a9.636,9.636,0,0,0-.891-1.9,6.462,6.462,0,0,0-1.219-1.479c-.085-.07-.149-.123-.19-.152l-.05-.035a22.349,22.349,0,0,1-2.663.337c-.351.023-.726.044-1.113.05h-.061c-.085,0-.173,0-.26,0-.249,0-.5,0-.762-.015-.085,0-.167-.009-.252-.012a.354.354,0,0,0-.058,0c-.451-.029-.908-.076-1.353-.149a8.326,8.326,0,0,1-1.9-.527l-.082-.035c-.018-.009-.036-.015-.053-.023-.076-.035-.149-.07-.223-.108a3.679,3.679,0,0,1-2.092-2.628c-1.025-5.127,3.715-9.366,3.715-9.366s.475-6.818,4.807-6.006c3.126.586,1.087,4.687,1.087,4.687a12.551,12.551,0,0,1,6.806,2.924,7.242,7.242,0,0,1,1.927,3.082c1.7,5.42,3.258,5.69,7.857,6.958a8.944,8.944,0,0,1,6.82,8.065A7.241,7.241,0,0,1,1284.664,281.77Z" transform="translate(-504.283 0.568)" fill="#24292f"/>
    <path id="Trazado_152539" data-name="Trazado 152539" d="M1229.546,573.607s-4.787,6.772-6.154,8.14-.476,1.77.4,1.77,5.957-.405,7.031-1.062,2.722-3.443,3.6-4.907,3.125-1.465,3.614-3.516a4.786,4.786,0,0,0-1.114-3.848Z" transform="translate(-485.491 -204.929)" fill="#24292f"/>
    <path id="Trazado_152540" data-name="Trazado 152540" d="M1265.185,427.991a3.924,3.924,0,0,1-1.017,1.529c-3.012,2.959-11.255,4.884-15.738,5.745-1.8.349-3,.522-3,.522l-15.615.44-3.557-10.034s2.5-6.079,6.472-7.983,26.528-5.859,26.528-5.859S1267.412,421.127,1265.185,427.991Z" transform="translate(-487.816 -102.28)" fill="#745faa"/>
    <path id="Trazado_152541" data-name="Trazado 152541" d="M1305.405,461.46c-3.012,2.959-11.255,4.884-15.738,5.745l2.445-5.389C1292.917,465.712,1301.194,463.808,1305.405,461.46Z" transform="translate(-529.053 -134.219)" fill="#5a4a85"/>
    <path id="Trazado_152542" data-name="Trazado 152542" d="M1270.915,550.151s2.588,1.7,3.027,3.089,2.124,6.885,2.124,6.885l-.879.879s-1.757-4.248-2.93-3-.659,5.054-2.05,7.1-5.107,4.8-5.557,4.563-.411-1.926.6-3.831a13.451,13.451,0,0,0,.933-5.273Z" transform="translate(-512.604 -191.901)" fill="#24292f"/>
    <path id="Trazado_152543" data-name="Trazado 152543" d="M1245.141,480.888a23.479,23.479,0,0,1-.744,4.5c-.987,3.882-4.237,8.6-4.237,8.6s-.052-2.669-.266-5.5c-.015-.2-.03-.4-.047-.606-.067-.823-.149-1.646-.249-2.405a11.891,11.891,0,0,0-.709-3.173c-.006-.012-.009-.023-.015-.032-.152-.3-.486-.923-.949-1.784-2.856-5.308-10.708-19.752-12.219-24.876-1.758-5.959-.85-9.263.668-10.848.964-1.008,4.389-2.013,6.463.3.052.058.1.117.152.176,4.146,4.86,5.7,16.377,6.4,21.269q.044.277.079.527a37.393,37.393,0,0,0,2.977,8.411l0,0c.278.607.554,1.189.814,1.735C1244.3,479.332,1245.141,480.888,1245.141,480.888Z" transform="translate(-486.829 -122.637)" fill="#f6a49d"/>
    <path id="Trazado_152544" data-name="Trazado 152544" d="M1251.278,471.768s.445-10.476,0-13.626c-.346-2.44-.926-6.841-2.953-9.955,4.145,4.86,5.7,16.377,6.4,21.269C1252.845,470.775,1251.278,471.768,1251.278,471.768Z" transform="translate(-502.165 -125.587)" fill="#d47c74"/>
    <path id="Trazado_152545" data-name="Trazado 152545" d="M1267.785,536.322c-.767,2.637-2.229,7.57-3.372,11.3-.015-.2-.029-.4-.047-.606-.068-.823-.149-1.646-.249-2.405a11.889,11.889,0,0,0-.709-3.173.3.3,0,0,0-.015-.032c-.152-.3-.486-.923-.949-1.784,1.822-2.022,4.412-4.916,4.524-5.039l0,0C1267.25,535.194,1267.525,535.777,1267.785,536.322Z" transform="translate(-511.349 -181.777)" fill="#d47c74"/>
    <path id="Trazado_152546" data-name="Trazado 152546" d="M1250.453,441.62c-2.769-.313-5.859,1.611-7.031,12.744s-4.1,29.736-5.273,32.666-5.127,8.789-4.395,9.228,4.88-.562,9.642-7.652a1.832,1.832,0,0,0,.249-.548,149.861,149.861,0,0,1,6.076-17.623C1255.148,457.44,1259.535,442.645,1250.453,441.62Z" transform="translate(-492.631 -121.296)" fill="#f6a49d"/>
    <path id="Trazado_152547" data-name="Trazado 152547" d="M1256.061,588.66h.806a41.088,41.088,0,0,1,1.831-7.47l-4.248,2.818S1256.574,585.328,1256.061,588.66Z" transform="translate(-506.149 -212.087)" fill="#24292f"/>
    <path id="Trazado_152548" data-name="Trazado 152548" d="M1290.727,347.7c-1.392,4.248-4.468,10.107-4.614,14.355s-14.915,2.856-14.915,2.856a55.38,55.38,0,0,0-2.883-10.4c-1.9-4.541.293-7.837.659-10.62s0-5.274,3.15-6.958l0,0a16.251,16.251,0,0,1,5.6-1.9s1.737-.038,3.882.029a33.854,33.854,0,0,1,6.117.63C1291.02,336.5,1292.119,343.455,1290.727,347.7Z" transform="translate(-514.668 -51.988)" fill="#c2e7f0"/>
    <path id="Trazado_152549" data-name="Trazado 152549" d="M1299.631,377.051s-.836,4.862-3.571,6.86-3.941,5.7-5.026,6.542,7.593-.213,7.8-.612,2.35-6.552,2.35-6.845S1299.631,377.051,1299.631,377.051Z" transform="translate(-529.881 -79.323)" fill="#7dd0e2"/>
    <path id="Trazado_152550" data-name="Trazado 152550" d="M1283.789,342.063c-3.36-1.025-3.158-5.127-3.158-5.127l0,0a16.251,16.251,0,0,1,5.6-1.9s1.737-.038,3.882.029C1291.054,339.813,1286.988,343.039,1283.789,342.063Z" transform="translate(-523.175 -51.988)" fill="#f6a49d"/>
    <path id="Trazado_152551" data-name="Trazado 152551" d="M1251.414,421.764v-1.245l-18.693,1.245-7.3,2.783.293.635h18.693Z" transform="translate(-487.272 -107.593)" fill="#3a3e49"/>
    <path id="Trazado_152552" data-name="Trazado 152552" d="M1270.056,366.634s13.245-7.092,14.709-8.166.586-1.88,1.074-5.005.177-16.664,3.516-16.528c3.592.146,5.469,2.783,5.273,8.838s-1.94,15.123-3.32,16.87c-3.858,4.881-18.909,7.349-18.909,7.349Z" transform="translate(-516.298 -53.232)" fill="#c2e7f0"/>
    <path id="Trazado_152553" data-name="Trazado 152553" d="M1222.829,388.888h-18.271a.259.259,0,0,0-.232.374l7.359,14.713h19.083l-7.371-14.736A.635.635,0,0,0,1222.829,388.888Z" transform="translate(-473.532 -87.021)" fill="#a7adbf"/>
    <path id="Trazado_152554" data-name="Trazado 152554" d="M1283.275,323.587c-1.814-.164-2.291-2.537-2.772-4.872a16.246,16.246,0,0,0-.829-3.064.1.1,0,0,1-.012-.023c-1.172-2.637,3.613-6.2,3.613-6.2.05.146,3.516,7.743,4.687,8.947S1285.961,323.83,1283.275,323.587Z" transform="translate(-522.426 -35.343)" fill="#f6a49d"/>
    <path id="Trazado_152555" data-name="Trazado 152555" d="M1283.945,316.056s0,.056-.009.158c-.053.917-.454,5.537-3.067,6.811a16.272,16.272,0,0,0-.829-3.064Z" transform="translate(-522.792 -39.654)" fill="#d47c74"/>
    <path id="Trazado_152556" data-name="Trazado 152556" d="M1240.132,407.46a1.476,1.476,0,0,1-1.466,1.953,2.668,2.668,0,0,1-2.44-1.953,1.476,1.476,0,0,1,1.466-1.953A2.668,2.668,0,0,1,1240.132,407.46Z" transform="translate(-494.258 -97.829)" fill="#f0e9fa"/>
    <path id="Trazado_152557" data-name="Trazado 152557" d="M1258.779,294.393s3.027,9.668,6.152,9.57,5.176-4.053,5.518-7.959c0,0,2.05-1.611,1.318-3.858s-2.442-.2-2.442-.2-7.91-.537-8.789-3.613C1260.536,288.338,1260.635,292.342,1258.779,294.393Z" transform="translate(-508.964 -21.627)" fill="#f6a49d"/>
    <g id="Grupo_86869" data-name="Grupo 86869" transform="translate(748.889 270.395)">
      <g id="Grupo_86867" data-name="Grupo 86867" transform="translate(5.11 0)">
        <path id="Trazado_152558" data-name="Trazado 152558" d="M1275.425,300.729a2.112,2.112,0,1,1-.766-.855A2.086,2.086,0,0,1,1275.425,300.729Z" transform="translate(-1271.185 -299.31)" fill="#fff" opacity="0.3"/>
        <path id="Trazado_152559" data-name="Trazado 152559" d="M1277.054,301.342a2.11,2.11,0,0,1-3.13,2.637c.748-1.079,1.683-2.475,2.363-3.492A2.086,2.086,0,0,1,1277.054,301.342Z" transform="translate(-1272.813 -299.923)" fill="#fff" opacity="0.47"/>
        <path id="Trazado_152560" data-name="Trazado 152560" d="M1275.2,300.192a2.344,2.344,0,0,0-4.236,2.007c.009.017.014.032.023.05a2.344,2.344,0,0,0,4.213-2.057Zm-3.311,2.7a2.1,2.1,0,0,1-.6-.691c-.015-.023-.026-.05-.038-.073a2.052,2.052,0,1,1,.641.765Z" transform="translate(-1270.748 -298.875)" fill="#24292f"/>
      </g>
      <g id="Grupo_86868" data-name="Grupo 86868" transform="translate(0 1.721)">
        <path id="Trazado_152561" data-name="Trazado 152561" d="M1260.809,305.652a2.112,2.112,0,1,1-.766-.855A2.082,2.082,0,0,1,1260.809,305.652Z" transform="translate(-1256.569 -304.233)" fill="#fff" opacity="0.3"/>
        <path id="Trazado_152562" data-name="Trazado 152562" d="M1262.438,306.266a2.11,2.11,0,0,1-3.13,2.637c.748-1.079,1.683-2.475,2.364-3.492A2.085,2.085,0,0,1,1262.438,306.266Z" transform="translate(-1258.197 -304.847)" fill="#fff" opacity="0.47"/>
        <path id="Trazado_152563" data-name="Trazado 152563" d="M1260.694,305.386a2.128,2.128,0,0,0-.111-.272,2.348,2.348,0,0,0-3.135-1.078,1.115,1.115,0,0,0-.1.056,2.273,2.273,0,0,0-.568.436,2.346,2.346,0,0,0,1.822,3.958,2.4,2.4,0,0,0,.905-.237A2.343,2.343,0,0,0,1260.694,305.386Zm-3.422,2.426a2.059,2.059,0,0,1-.219-3.152c.017-.017.035-.035.053-.05a1.932,1.932,0,0,1,.469-.316,2.056,2.056,0,0,1,2,.114,2.007,2.007,0,0,1,.75.832c.021.044.041.088.059.132a2.059,2.059,0,0,1-1,2.619,2,2,0,0,1-.905.208A2.075,2.075,0,0,1,1257.272,307.812Z" transform="translate(-1256.131 -303.798)" fill="#24292f"/>
      </g>
    </g>
    <g id="Grupo_86871" data-name="Grupo 86871" transform="translate(591.892 299.743)">
      <path id="Trazado_152565" data-name="Trazado 152565" d="M807.1,382.813h28.586V395.69H821.365l-11.1,6.459,3.364-6.459H807.1Z" transform="translate(-807.102 -382.813)" fill="#d07efc"/>
      <rect id="Rectángulo_7947" data-name="Rectángulo 7947" width="17.526" height="1.27" transform="translate(23.909 4.639) rotate(180)" fill="#fff"/>
      <rect id="Rectángulo_7948" data-name="Rectángulo 7948" width="17.526" height="1.269" transform="translate(23.909 8.496) rotate(180)" fill="#fff"/>
    </g>
    <rect id="Rectángulo_7949" data-name="Rectángulo 7949" width="79.227" height="2.256" rx="1.128" transform="translate(632.726 405.895)" fill="#c2e7f0"/>
    <rect id="Rectángulo_7950" data-name="Rectángulo 7950" width="79.227" height="2.256" rx="1.128" transform="translate(632.726 415.5)" fill="#c2e7f0"/>
    <path id="Trazado_152589" data-name="Trazado 152589" d="M1315.55,294.277c-1.02-3.179-7.752-6.339-11.487-5.477-7.261,1.675-1.412-5.524-5.118-12.628a7.241,7.241,0,0,1,1.928,3.082c1.7,5.42,3.258,5.69,7.857,6.958A8.944,8.944,0,0,1,1315.55,294.277Z" transform="translate(-535.087 -13.714)" fill="#fff" opacity="0.11"/>
    <path id="Trazado_152590" data-name="Trazado 152590" d="M1453.792,448.593a12.826,12.826,0,0,1-19.594,10.9,12.451,12.451,0,0,1,18.844-15.22A12.74,12.74,0,0,1,1453.792,448.593Z" transform="translate(-724.614 -193.508)" fill="#fff" opacity="0.32"/>
    <rect id="Rectángulo_7934" data-name="Rectángulo 7934" width="83.593" height="25.976" transform="translate(725.666 391.78)" fill="#7ff9ff"/>
    <rect id="Rectángulo_7935" data-name="Rectángulo 7935" width="83.593" height="21.875" rx="3" transform="translate(728.889 392.952)" fill="#fff"/>
    <circle id="Elipse_8364" data-name="Elipse 8364" cx="7.373" cy="7.373" r="7.373" transform="matrix(0.237, -0.972, 0.972, 0.237, 732.824, 409.31)" fill="#c2e7f0"/>
    <path id="Trazado_152504" data-name="Trazado 152504" d="M1233.853,706.6a2.1,2.1,0,1,1-2.1-2.1A2.1,2.1,0,0,1,1233.853,706.6Z" transform="translate(-490.023 -302.713)" fill="#f4faf8"/>
    <rect id="Rectángulo_7936" data-name="Rectángulo 7936" width="44.677" height="1.076" transform="translate(756.305 403.352)" fill="#c2e7f0"/>
    <rect id="Rectángulo_7937" data-name="Rectángulo 7937" width="19.702" height="1.076" transform="translate(756.305 407.868)" fill="#c2e7f0"/>
    <rect id="Rectángulo_7938" data-name="Rectángulo 7938" width="44.677" height="1.076" transform="translate(756.305 398.372)" fill="#c2e7f0"/>
  </g>
</svg>
