<svg xmlns="http://www.w3.org/2000/svg" width="210.923" height="202.467" viewBox="0 0 210.923 202.467">
  <g id="Grupo_86968" data-name="Grupo 86968" transform="translate(-585.991 -1329.556)">
    <path id="Trazado_152707" data-name="Trazado 152707" d="M820.14,1860.053v-12.735a7.187,7.187,0,0,0-7.187-7.187h-9.087v60.564h30.647v-26.269a7.187,7.187,0,0,0-7.187-7.187h0A7.187,7.187,0,0,1,820.14,1860.053Z" transform="translate(-158.757 -372.035)" fill="#b6d5d0"/>
    <path id="Trazado_152708" data-name="Trazado 152708" d="M1122.514,1993.191l-5.8,5.663-1.95-2.9-3.113-4.629,7.457-3.464,2.035,3.187Z" transform="translate(-383.028 -479.68)" fill="#e9928b"/>
    <path id="Trazado_152709" data-name="Trazado 152709" d="M1121.144,1991.048a24.117,24.117,0,0,0-6.379,4.907l-3.113-4.629,7.457-3.464Z" transform="translate(-383.028 -479.68)" fill="#de6667"/>
    <rect id="Rectángulo_8006" data-name="Rectángulo 8006" width="123.096" height="64.185" transform="translate(633.499 1343.62)" fill="#edf6f5"/>
    <rect id="Rectángulo_8007" data-name="Rectángulo 8007" width="19.826" height="18.285" transform="translate(640.252 1349.388)" fill="#dceceb"/>
    <g id="Grupo_86927" data-name="Grupo 86927" transform="translate(682.877 1364.083)">
      <path id="Trazado_152710" data-name="Trazado 152710" d="M1164.7,1458.66h-.743v-1.115h-1.115v-.743h1.859Z" transform="translate(-1103.206 -1456.802)" fill="#b6d5d0"/>
      <path id="Trazado_152711" data-name="Trazado 152711" d="M1012.809,1457.545h-3.041v-.743h3.041Zm-6.082,0h-3.041v-.743h3.041Zm-6.082,0H997.6v-.743h3.041Zm-6.082,0h-3.041v-.743h3.041Zm-6.082,0H985.44v-.743h3.041Zm-6.082,0h-3.041v-.743H982.4Zm-6.082,0h-3.041v-.743h3.041Zm-6.082,0h-3.041v-.743h3.041Zm-6.082,0h-3.041v-.743h3.041Z" transform="translate(-956.212 -1456.802)" fill="#b6d5d0"/>
      <path id="Trazado_152712" data-name="Trazado 152712" d="M943.8,1458.66h-.743V1456.8h1.859v.743H943.8Z" transform="translate(-943.055 -1456.802)" fill="#b6d5d0"/>
      <path id="Trazado_152713" data-name="Trazado 152713" d="M943.8,1502.179h-.743v-3.037h.743Zm0-6.074h-.743v-3.037h.743Zm0-6.074h-.743v-3.037h.743Zm0-6.074h-.743v-3.037h.743Zm0-6.074h-.743v-3.037h.743Z" transform="translate(-943.055 -1469.949)" fill="#b6d5d0"/>
      <path id="Trazado_152714" data-name="Trazado 152714" d="M944.913,1588.634h-1.859v-1.859h.743v1.115h1.115Z" transform="translate(-943.055 -1551.508)" fill="#b6d5d0"/>
      <path id="Trazado_152715" data-name="Trazado 152715" d="M1012.809,1591.629h-3.041v-.744h3.041Zm-6.082,0h-3.041v-.744h3.041Zm-6.082,0H997.6v-.744h3.041Zm-6.082,0h-3.041v-.744h3.041Zm-6.082,0H985.44v-.744h3.041Zm-6.082,0h-3.041v-.744H982.4Zm-6.082,0h-3.041v-.744h3.041Zm-6.082,0h-3.041v-.744h3.041Zm-6.082,0h-3.041v-.744h3.041Z" transform="translate(-956.212 -1554.503)" fill="#b6d5d0"/>
      <path id="Trazado_152716" data-name="Trazado 152716" d="M1164.7,1588.634h-1.859v-.744h1.115v-1.115h.743Z" transform="translate(-1103.206 -1551.508)" fill="#b6d5d0"/>
      <path id="Trazado_152717" data-name="Trazado 152717" d="M1167.7,1502.179h-.744v-3.037h.744Zm0-6.074h-.744v-3.037h.744Zm0-6.074h-.744v-3.037h.744Zm0-6.074h-.744v-3.037h.744Zm0-6.074h-.744v-3.037h.744Z" transform="translate(-1106.2 -1469.949)" fill="#b6d5d0"/>
    </g>
    <rect id="Rectángulo_8008" data-name="Rectángulo 8008" width="68.514" height="35.521" rx="6.785" transform="translate(620.307 1375.754)" fill="#b2e5e0"/>
    <path id="Trazado_152811" data-name="Trazado 152811" d="M6.42,0H62.093a6.42,6.42,0,0,1,6.42,6.42V29.1a6.42,6.42,0,0,1-6.42,6.42H6.42A6.42,6.42,0,0,1,0,29.1V6.42A6.42,6.42,0,0,1,6.42,0Z" transform="translate(622.537 1377.984)" fill="#18b6fe"/>
    <path id="Trazado_152718" data-name="Trazado 152718" d="M738.7,1574.67h58.237s-1.941-13.589-5-17.719-5.617,1.569-9,8.343-10.408,9.83-15.53,3.057-7.435-8.922-13.134-5.287-10.161.578-12.061-4.13-3.511-4.626-3.511-4.626Z" transform="translate(-111.274 -163.767)" fill="#fff" opacity="0.67"/>
    <path id="Trazado_152719" data-name="Trazado 152719" d="M738.7,1581.943a6.1,6.1,0,0,0,4.832-2.85c2.148-2.974,2.726-7.517,5.039-8.922s4.461,0,7.682,5.886,8.26,3.118,10.408-2.747,3.139-8.674,6.691-9,5.783,4.048,7.022,8.26,4.461,5.617,7.682,3.883,8.88,5.493,8.88,5.493Z" transform="translate(-111.274 -171.041)" fill="#fff" opacity="0.28"/>
    <path id="Trazado_152720" data-name="Trazado 152720" d="M739.816,1520.918h0a1.115,1.115,0,0,1-1.115-1.115h0a1.115,1.115,0,0,1,1.115-1.115h0a1.115,1.115,0,0,1,1.115,1.115h0A1.115,1.115,0,0,1,739.816,1520.918Z" transform="translate(-111.274 -137.813)" fill="#fff"/>
    <rect id="Rectángulo_8010" data-name="Rectángulo 8010" width="23.378" height="1.322" transform="translate(632.425 1381.33)" fill="#fff"/>
    <path id="Trazado_152721" data-name="Trazado 152721" d="M739.816,1535.76h0a1.115,1.115,0,0,1-1.115-1.115h0a1.115,1.115,0,0,1,1.115-1.115h0a1.115,1.115,0,0,1,1.115,1.115h0A1.115,1.115,0,0,1,739.816,1535.76Z" transform="translate(-111.274 -148.628)" fill="#fff"/>
    <rect id="Rectángulo_8011" data-name="Rectángulo 8011" width="18.008" height="1.322" transform="translate(632.425 1385.357)" fill="#fff"/>
    <rect id="Rectángulo_8012" data-name="Rectángulo 8012" width="19.826" height="18.285" transform="translate(642.575 1351.263)" fill="#fff"/>
    <g id="Grupo_86928" data-name="Grupo 86928" transform="translate(645.663 1357.153)">
      <path id="Trazado_152722" data-name="Trazado 152722" d="M820.32,1439.367l-7.207,3.263-7.207-3.263v4.874H820.32Z" transform="translate(-805.905 -1437.167)" fill="#d07efc"/>
      <path id="Trazado_152723" data-name="Trazado 152723" d="M820.32,1431.261H805.905v1.3l7.207,3.191,7.207-3.191Z" transform="translate(-805.905 -1431.261)" fill="#d07efc"/>
    </g>
    <g id="Grupo_86932" data-name="Grupo 86932" transform="translate(682.343 1345.764)">
      <g id="Grupo_86929" data-name="Grupo 86929" transform="translate(0 15.365)">
        <path id="Trazado_152724" data-name="Trazado 152724" d="M980.964,1447.777H941.086v-1.862h39.878Zm-39.63-.248h39.383v-1.366H941.334Z" transform="translate(-941.086 -1445.915)" fill="#fff"/>
      </g>
      <g id="Grupo_86930" data-name="Grupo 86930" transform="translate(0 7.682)">
        <path id="Trazado_152725" data-name="Trazado 152725" d="M980.964,1419.465H941.086V1417.6h39.878Zm-39.63-.248h39.383v-1.366H941.334Z" transform="translate(-941.086 -1417.603)" fill="#fff"/>
      </g>
      <g id="Grupo_86931" data-name="Grupo 86931" transform="translate(0 0)">
        <path id="Trazado_152726" data-name="Trazado 152726" d="M980.964,1391.152H941.086v-1.862h39.878Zm-39.63-.248h39.383v-1.366H941.334Z" transform="translate(-941.086 -1389.29)" fill="#fff"/>
      </g>
    </g>
    <g id="Grupo_86933" data-name="Grupo 86933" transform="translate(768.828 1376.369)">
      <rect id="Rectángulo_8013" data-name="Rectángulo 8013" width="15.131" height="11.145" transform="translate(0)" fill="#dceceb"/>
      <path id="Trazado_152727" data-name="Trazado 152727" d="M1268.652,1517.982l-3.291-2.481a.325.325,0,0,1,0-.518l3.27-2.5.4.517-2.93,2.241,2.949,2.224Z" transform="translate(-1263.764 -1509.658)" fill="#fff"/>
      <path id="Trazado_152728" data-name="Trazado 152728" d="M1296.518,1517.982l-.392-.52,2.949-2.224-2.93-2.241.4-.517,3.27,2.5a.325.325,0,0,1,0,.518Z" transform="translate(-1286.275 -1509.658)" fill="#fff"/>
      <rect id="Rectángulo_8014" data-name="Rectángulo 8014" width="6.028" height="0.651" transform="translate(6.522 8.419) rotate(-76.026)" fill="#fff"/>
    </g>
    <path id="Trazado_152729" data-name="Trazado 152729" d="M1200.374,1989.963l-6.374,5.943-1.591-7.123-.616-2.759,7.618-1.926.44,2.684Z" transform="translate(-441.424 -476.938)" fill="#e9928b"/>
    <path id="Trazado_152730" data-name="Trazado 152730" d="M1199.85,1986.782a10.63,10.63,0,0,0-3.15.2,39.013,39.013,0,0,0-4.291,1.8l-.616-2.759,7.618-1.926Z" transform="translate(-441.423 -476.938)" fill="#de6667"/>
    <path id="Trazado_152731" data-name="Trazado 152731" d="M1183.384,2003.308c-3.226-.05-4.383,2.6-5.467,5.054s-2.4,8.193-4.28,8.771-2.892,1.591-2.892,2.748h6.784s4.257-4.68,6.447-6.507a10.124,10.124,0,0,0,2.721-3.011,43.072,43.072,0,0,0-1.661-6.4A2.377,2.377,0,0,0,1183.384,2003.308Z" transform="translate(-426.087 -490.935)" fill="#0c1b3c"/>
    <path id="Trazado_152732" data-name="Trazado 152732" d="M1195.179,2020.64c-2.353.487-3.219,3.013-4.665,7.206s-4.315,4.65-4.315,4.65h8.013a24.254,24.254,0,0,1,1.4-3.494c.706-1.445,1.92-3.1,2.228-4.6C1198.564,2020.856,1195.753,2020.521,1195.179,2020.64Z" transform="translate(-437.348 -503.551)" fill="#408c91"/>
    <path id="Trazado_152733" data-name="Trazado 152733" d="M1157.118,1922.049a29.523,29.523,0,0,0-8.56,2.231s-1.712.557-4.191-4.657-11.189-21.55-11.189-21.55l10.017.317,7.573.24s4.089,10.346,6.071,14.745A12.071,12.071,0,0,1,1157.118,1922.049Z" transform="translate(-398.714 -414.255)" fill="#856de9"/>
    <path id="Trazado_152734" data-name="Trazado 152734" d="M1148.558,1915.006c-3.036,3.636-2.019,7.866,0,9.274,0,0-1.712.557-4.191-4.657s-11.189-21.55-11.189-21.55l10.017.317,6.54,2.9s-6.441.825-7.888,4.213S1151.594,1911.373,1148.558,1915.006Z" transform="translate(-398.714 -414.255)" fill="#856de9"/>
    <g id="Grupo_86934" data-name="Grupo 86934" transform="translate(683.607 1466.709)" opacity="0.4">
      <path id="Trazado_152735" data-name="Trazado 152735" d="M984.773,1857.949l-1.118-.621a2.2,2.2,0,0,1-1.133-1.953c0-.091,0-.182,0-.273s0-.182,0-.273a2.2,2.2,0,0,1,1.133-1.952l1.118-.621a2.207,2.207,0,0,0,1.06-2.5c0-.01-.006-.023-.01-.033a2.2,2.2,0,0,0-2.163-1.631l-1.281.021a2.217,2.217,0,0,1-1.969-1.149c-.081-.141-.161-.282-.242-.42a2.22,2.22,0,0,1-.014-2.285l.656-1.091a2.2,2.2,0,0,0-.331-2.691l-.027-.027a2.2,2.2,0,0,0-2.691-.331l-1.091.656a2.22,2.22,0,0,1-2.285-.014c-.139-.081-.28-.161-.42-.242a2.216,2.216,0,0,1-1.149-1.969l.021-1.282a2.2,2.2,0,0,0-1.631-2.163l-.033-.01a2.207,2.207,0,0,0-2.5,1.06l-.621,1.118a2.2,2.2,0,0,1-1.952,1.133c-.091,0-.182,0-.273,0s-.182,0-.273,0a2.2,2.2,0,0,1-1.952-1.133l-.621-1.118a2.207,2.207,0,0,0-2.5-1.06l-.033.01a2.2,2.2,0,0,0-1.631,2.163l.021,1.282a2.217,2.217,0,0,1-1.149,1.969c-.141.081-.282.161-.42.242a2.22,2.22,0,0,1-2.286.014l-1.091-.656a2.2,2.2,0,0,0-2.691.331l-.027.027a2.2,2.2,0,0,0-.331,2.691l.656,1.091a2.22,2.22,0,0,1-.015,2.285c-.081.139-.161.28-.242.42a2.217,2.217,0,0,1-1.969,1.149l-1.281-.021a2.2,2.2,0,0,0-2.163,1.631c0,.01-.006.023-.01.033a2.207,2.207,0,0,0,1.06,2.5l1.118.621a2.2,2.2,0,0,1,1.132,1.952c0,.091,0,.182,0,.273s0,.182,0,.273a2.2,2.2,0,0,1-1.132,1.953l-1.118.621a2.207,2.207,0,0,0-1.06,2.5c0,.01.006.023.01.033a2.2,2.2,0,0,0,2.163,1.631l1.281-.021a2.217,2.217,0,0,1,1.969,1.149c.081.141.161.282.242.42a2.22,2.22,0,0,1,.015,2.286l-.656,1.091a2.2,2.2,0,0,0,.331,2.691l.027.027a2.2,2.2,0,0,0,2.691.331l1.091-.656a2.22,2.22,0,0,1,2.286.014l.42.242a2.217,2.217,0,0,1,1.149,1.969l-.021,1.281a2.2,2.2,0,0,0,1.631,2.163l.033.01a2.207,2.207,0,0,0,2.5-1.06l.621-1.118a2.2,2.2,0,0,1,1.952-1.132c.091,0,.182,0,.273,0s.182,0,.273,0a2.2,2.2,0,0,1,1.952,1.132l.621,1.118a2.207,2.207,0,0,0,2.5,1.06l.033-.01a2.2,2.2,0,0,0,1.631-2.163l-.021-1.281a2.216,2.216,0,0,1,1.149-1.969l.42-.242a2.22,2.22,0,0,1,2.285-.014l1.091.656a2.2,2.2,0,0,0,2.691-.331l.027-.027a2.2,2.2,0,0,0,.331-2.691l-.656-1.091a2.22,2.22,0,0,1,.014-2.286c.081-.139.161-.279.242-.42a2.216,2.216,0,0,1,1.969-1.149l1.281.021a2.2,2.2,0,0,0,2.163-1.631c0-.01.006-.023.01-.033A2.208,2.208,0,0,0,984.773,1857.949Zm-18.946,9.575a12.421,12.421,0,1,1,12.421-12.421A12.42,12.42,0,0,1,965.827,1867.523Z" transform="translate(-945.747 -1835.022)" fill="#d07efc"/>
      <circle id="Elipse_8378" data-name="Elipse 8378" cx="5.607" cy="5.607" r="5.607" transform="translate(13.191 24.109) rotate(-74.68)" fill="#d07efc"/>
    </g>
    <g id="Grupo_86935" data-name="Grupo 86935" transform="translate(773.472 1501.203)" opacity="0.4">
      <path id="Trazado_152736" data-name="Trazado 152736" d="M1299.715,1975.53l-.652-.363a1.283,1.283,0,0,1-.661-1.139c0-.053,0-.106,0-.16s0-.106,0-.16a1.283,1.283,0,0,1,.661-1.14l.652-.363a1.287,1.287,0,0,0,.619-1.457c0-.006,0-.013-.006-.02a1.286,1.286,0,0,0-1.263-.952l-.748.012a1.294,1.294,0,0,1-1.149-.671c-.047-.082-.094-.165-.141-.245a1.3,1.3,0,0,1-.009-1.334l.383-.637a1.287,1.287,0,0,0-.193-1.571l-.016-.016a1.286,1.286,0,0,0-1.571-.193l-.637.383a1.3,1.3,0,0,1-1.334-.009l-.246-.141a1.293,1.293,0,0,1-.671-1.149l.012-.748a1.286,1.286,0,0,0-.952-1.263l-.019-.006a1.289,1.289,0,0,0-1.457.619l-.363.652a1.282,1.282,0,0,1-1.139.661l-.16,0-.159,0a1.282,1.282,0,0,1-1.14-.661l-.362-.652a1.289,1.289,0,0,0-1.457-.619l-.02.006a1.286,1.286,0,0,0-.952,1.263l.012.748a1.294,1.294,0,0,1-.671,1.149l-.245.141a1.3,1.3,0,0,1-1.334.009l-.637-.383a1.286,1.286,0,0,0-1.571.193l-.016.016a1.287,1.287,0,0,0-.193,1.571l.383.637a1.3,1.3,0,0,1-.009,1.334l-.141.245a1.294,1.294,0,0,1-1.149.671l-.748-.012a1.286,1.286,0,0,0-1.263.952c0,.006,0,.013-.006.02a1.288,1.288,0,0,0,.619,1.457l.653.363a1.283,1.283,0,0,1,.661,1.14c0,.053,0,.106,0,.16s0,.106,0,.16a1.282,1.282,0,0,1-.661,1.139l-.653.363a1.289,1.289,0,0,0-.619,1.457c0,.006,0,.013.006.019a1.286,1.286,0,0,0,1.263.952l.748-.012a1.294,1.294,0,0,1,1.149.67l.141.246a1.3,1.3,0,0,1,.009,1.334l-.383.637a1.287,1.287,0,0,0,.193,1.571l.016.016a1.286,1.286,0,0,0,1.571.193l.637-.383a1.3,1.3,0,0,1,1.334.009l.245.141a1.3,1.3,0,0,1,.671,1.149l-.012.748a1.286,1.286,0,0,0,.952,1.263l.02.006a1.288,1.288,0,0,0,1.457-.619l.362-.652a1.284,1.284,0,0,1,1.14-.661l.159,0,.16,0a1.283,1.283,0,0,1,1.139.661l.363.652a1.288,1.288,0,0,0,1.457.619l.019-.006a1.286,1.286,0,0,0,.952-1.263l-.012-.748a1.294,1.294,0,0,1,.671-1.149l.246-.141a1.3,1.3,0,0,1,1.334-.009l.637.383a1.286,1.286,0,0,0,1.571-.193l.016-.016a1.286,1.286,0,0,0,.193-1.571l-.383-.637a1.3,1.3,0,0,1,.009-1.334l.141-.246a1.294,1.294,0,0,1,1.149-.67l.748.012a1.286,1.286,0,0,0,1.263-.952c0-.006,0-.013.006-.019A1.288,1.288,0,0,0,1299.715,1975.53Zm-11.059,5.589a7.25,7.25,0,1,1,7.25-7.25A7.25,7.25,0,0,1,1288.656,1981.118Z" transform="translate(-1276.935 -1962.147)" fill="#d07efc"/>
    </g>
    <g id="Grupo_86944" data-name="Grupo 86944" transform="translate(644.748 1417.414)">
      <path id="Trazado_152737" data-name="Trazado 152737" d="M920.4,1696.294V1692.4l-3.506-.905-2.686-3.2.7-1.917-21.4-24.45H804.121a1.588,1.588,0,0,0-1.587,1.587v2.765l.021.017a2.448,2.448,0,0,0,.567,1.287l23.714,28.262a9.07,9.07,0,0,0,6.947,3.239h84.135a2.485,2.485,0,0,0,2.479-2.219A2.616,2.616,0,0,0,920.4,1696.294Z" transform="translate(-802.534 -1659.6)" fill="#b6d5d0"/>
      <g id="Grupo_86943" data-name="Grupo 86943" transform="translate(0)">
        <path id="Trazado_152738" data-name="Trazado 152738" d="M917.918,1688.94H833.781a9.068,9.068,0,0,1-6.946-3.239l-23.714-28.261a2.491,2.491,0,0,1,1.908-4.092h84.137a9.068,9.068,0,0,1,6.946,3.239l23.714,28.261A2.491,2.491,0,0,1,917.918,1688.94Z" transform="translate(-802.534 -1653.348)" fill="#fff"/>
        <path id="Trazado_152739" data-name="Trazado 152739" d="M1143.736,1706.445h0a.558.558,0,0,1-.427-.2l-16.35-19.425a.558.558,0,0,1,.427-.918h0a.559.559,0,0,1,.427.2l16.35,19.425A.558.558,0,0,1,1143.736,1706.445Z" transform="translate(-1038.833 -1677.069)" fill="#b2e5e0"/>
        <g id="Grupo_86937" data-name="Grupo 86937" transform="translate(11.472 8.66)">
          <path id="Trazado_152740" data-name="Trazado 152740" d="M874.3,1697.882H855.377a1.5,1.5,0,0,1-1.152-.54l-9.277-11.13a.577.577,0,0,1,.444-.947h18.919a1.5,1.5,0,0,1,1.152.539l9.277,11.13A.577.577,0,0,1,874.3,1697.882Z" transform="translate(-844.813 -1685.265)" fill="#dceceb"/>
          <path id="Trazado_152741" data-name="Trazado 152741" d="M899.473,1747.334h-2.79a1.5,1.5,0,0,1-1.149-.536l-3.43-4.094a.577.577,0,0,1,.443-.948h2.79a1.5,1.5,0,0,1,1.149.537l3.43,4.093A.577.577,0,0,1,899.473,1747.334Z" transform="translate(-879.173 -1726.427)" fill="#b2e5e0"/>
          <path id="Trazado_152742" data-name="Trazado 152742" d="M929.191,1747.334H926.4a1.5,1.5,0,0,1-1.149-.536l-3.43-4.094a.577.577,0,0,1,.443-.948h2.79a1.5,1.5,0,0,1,1.149.537l3.43,4.093A.578.578,0,0,1,929.191,1747.334Z" transform="translate(-900.827 -1726.427)" fill="#b2e5e0"/>
          <path id="Trazado_152743" data-name="Trazado 152743" d="M958.909,1747.334h-2.79a1.5,1.5,0,0,1-1.149-.536l-3.43-4.094a.577.577,0,0,1,.443-.948h2.79a1.5,1.5,0,0,1,1.149.537l3.43,4.093A.578.578,0,0,1,958.909,1747.334Z" transform="translate(-922.481 -1726.427)" fill="#b2e5e0"/>
          <g id="Grupo_86936" data-name="Grupo 86936" transform="translate(25.56)">
            <path id="Trazado_152744" data-name="Trazado 152744" d="M964.87,1690.563H943.5a1.5,1.5,0,0,1-1.149-.536l-3.2-3.813a.577.577,0,0,1,.443-.948h21.372a1.5,1.5,0,0,1,1.149.536l3.2,3.813A.578.578,0,0,1,964.87,1690.563Z" transform="translate(-939.013 -1685.265)" fill="#dceceb"/>
            <path id="Trazado_152745" data-name="Trazado 152745" d="M988.975,1719.291H967.6a1.5,1.5,0,0,1-1.149-.536l-3.2-3.813a.577.577,0,0,1,.442-.948h21.372a1.5,1.5,0,0,1,1.149.536l3.2,3.813A.578.578,0,0,1,988.975,1719.291Z" transform="translate(-956.578 -1706.198)" fill="#dceceb"/>
            <path id="Trazado_152746" data-name="Trazado 152746" d="M1013.139,1748.088H991.768a1.5,1.5,0,0,1-1.149-.536l-3.2-3.813a.578.578,0,0,1,.442-.949h21.372a1.5,1.5,0,0,1,1.149.536l3.2,3.813A.577.577,0,0,1,1013.139,1748.088Z" transform="translate(-974.185 -1727.181)" fill="#dceceb"/>
          </g>
        </g>
        <g id="Grupo_86939" data-name="Grupo 86939" transform="translate(68.495 8.833)">
          <path id="Trazado_152747" data-name="Trazado 152747" d="M1071.874,1706.445h0a.558.558,0,0,1-.427-.2l-16.35-19.425a.558.558,0,0,1,.427-.918h0a.558.558,0,0,1,.427.2l16.35,19.425A.559.559,0,0,1,1071.874,1706.445Z" transform="translate(-1054.964 -1685.903)" fill="#b2e5e0"/>
          <g id="Grupo_86938" data-name="Grupo 86938" transform="translate(0.347 1.425)">
            <path id="Trazado_152748" data-name="Trazado 152748" d="M1060.723,1695.365h-2.329a1.738,1.738,0,0,1-1.119-.608l-.846-1.008c-.282-.336-.238-.608.1-.608h2.328a1.738,1.738,0,0,1,1.119.608l.846,1.008C1061.1,1695.093,1061.059,1695.365,1060.723,1695.365Z" transform="translate(-1056.244 -1692.602)" fill="#b2e5e0"/>
            <path id="Trazado_152749" data-name="Trazado 152749" d="M1061.313,1693.38h-2.329a1.737,1.737,0,0,1-1.118-.608l-.846-1.008c-.282-.336-.238-.608.1-.608h2.329a1.736,1.736,0,0,1,1.119.608l.846,1.008C1061.693,1693.107,1061.649,1693.38,1061.313,1693.38Z" transform="translate(-1056.674 -1691.155)" fill="#dceceb"/>
          </g>
        </g>
        <g id="Grupo_86940" data-name="Grupo 86940" transform="translate(92.513 15.304)">
          <path id="Trazado_152750" data-name="Trazado 152750" d="M1147.961,1713.96h-2.329a1.739,1.739,0,0,1-1.119-.608l-.846-1.008c-.282-.336-.238-.608.1-.608h2.329a1.739,1.739,0,0,1,1.119.608l.846,1.008C1148.341,1713.687,1148.3,1713.96,1147.961,1713.96Z" transform="translate(-1143.483 -1711.196)" fill="#b2e5e0"/>
          <path id="Trazado_152751" data-name="Trazado 152751" d="M1148.551,1711.974h-2.329a1.737,1.737,0,0,1-1.119-.608l-.846-1.008c-.282-.336-.238-.608.1-.608h2.329a1.737,1.737,0,0,1,1.119.608l.846,1.008C1148.93,1711.7,1148.887,1711.974,1148.551,1711.974Z" transform="translate(-1143.912 -1709.749)" fill="#dceceb"/>
        </g>
        <g id="Grupo_86942" data-name="Grupo 86942" transform="translate(78.331 8.833)">
          <path id="Trazado_152752" data-name="Trazado 152752" d="M1108.125,1706.445h0a.558.558,0,0,1-.427-.2l-16.35-19.425a.558.558,0,0,1,.427-.918h0a.558.558,0,0,1,.427.2l16.35,19.425A.559.559,0,0,1,1108.125,1706.445Z" transform="translate(-1091.215 -1685.903)" fill="#b2e5e0"/>
          <g id="Grupo_86941" data-name="Grupo 86941" transform="translate(10.103 13.051)">
            <path id="Trazado_152753" data-name="Trazado 152753" d="M1132.927,1738.212H1130.6a1.738,1.738,0,0,1-1.119-.608l-.846-1.008c-.282-.336-.238-.608.1-.608h2.329a1.738,1.738,0,0,1,1.119.608l.846,1.008C1133.307,1737.94,1133.263,1738.212,1132.927,1738.212Z" transform="translate(-1128.448 -1735.449)" fill="#b2e5e0"/>
            <path id="Trazado_152754" data-name="Trazado 152754" d="M1133.517,1736.227h-2.329a1.737,1.737,0,0,1-1.119-.608l-.846-1.008c-.282-.336-.238-.608.1-.608h2.329a1.736,1.736,0,0,1,1.118.608l.846,1.008C1133.9,1735.954,1133.853,1736.227,1133.517,1736.227Z" transform="translate(-1128.878 -1734.002)" fill="#dceceb"/>
          </g>
        </g>
      </g>
    </g>
    <path id="Trazado_152755" data-name="Trazado 152755" d="M1092.554,1834.55a18.035,18.035,0,0,1-6.156,7.849,25.544,25.544,0,0,1-9.642,4.446,85.959,85.959,0,0,1-23.845,2.1c-.662.109,5.737,10.223,9.338,16.292.448.754.853,1.445,1.194,2.047.042.074.082.146.121.218,2.934,5.271,1.365,6.6,1.365,6.6-2.974.372-7.063,3.717-7.063,3.717-6.2,1.611-9.913-8.054-13.382-12.143s-12.391-16.232-8.426-22.8,39.22-14.993,39.22-14.993l3.514,1.356,6.629,2.558Z" transform="translate(-327.22 -363.111)" fill="#856de9"/>
    <path id="Trazado_152756" data-name="Trazado 152756" d="M1139.654,1973.1c.042.074.082.146.122.218A.8.8,0,0,1,1139.654,1973.1Z" transform="translate(-403.432 -468.925)" fill="#1b5175"/>
    <path id="Trazado_152757" data-name="Trazado 152757" d="M1107.915,1840.9c-.02.047-.947,1.361-2.438,3.4a25.545,25.545,0,0,1-9.643,4.446,85.949,85.949,0,0,1-23.845,2.1c-.662.109,5.737,10.223,9.338,16.292-2.161-2.6-5.573-2.942-8.126-8.141-3.1-6.309-10.409.238-11.744-4.966s3.814-4.832,11.372-8.178,8.8-1.983,15.652-3.348,5.781-9.773,5.781-9.773l3.609-1.594,5.023-.649s.714,1.417,1.606,3.207C1105.992,1836.7,1107.979,1840.74,1107.915,1840.9Z" transform="translate(-346.299 -365.008)" fill="#6349cf"/>
    <path id="Trazado_152758" data-name="Trazado 152758" d="M1114.915,2007.5s3.567,2.979,3.649,5.242-7.511,9.932-7.511,9.932h-9.631s-1.032-1.581,1.633-2.713,2.932-1.2,3.931-2.265,1.865-3.931,3.465-6.93A6.1,6.1,0,0,1,1114.915,2007.5Z" transform="translate(-375.431 -493.992)" fill="#0c1b3c"/>
    <path id="Trazado_152759" data-name="Trazado 152759" d="M1143.855,1534.351a9.33,9.33,0,0,1-3.005-2.948c-.751-1.561-2.659-4.971-2.774-5.78s1.5.058,2.428,1.676a39.644,39.644,0,0,0-1.792-3.988c-1.156-2.254-3.005-3.641-2.543-4.739s3.815,3.063,4.219,3.757,1.214-.058,2.254.462,1.04-.058,2.081.578,1.936,1.928,3.02,7.611Z" transform="translate(-400.839 -137.595)" fill="#e9928b"/>
    <path id="Trazado_152760" data-name="Trazado 152760" d="M1034.541,1709.778a10.611,10.611,0,0,1-3.285-2.407,14.841,14.841,0,0,0-3.973-3.018,6.5,6.5,0,0,0-2.941-.573c-1.146.077-1.757-.458-1.49-.84s1.337-.649,1.337-.649-2.1.191-1.566-.764,3.552-.573,3.552-.573a1.989,1.989,0,0,1,1.375-.726c.8,0,.726-.649,2.33-.458s2.445,1.146,4.125,1.528,3.068,3.877,3.068,3.877Z" transform="translate(-318.093 -269.734)" fill="#e9928b"/>
    <path id="Trazado_152761" data-name="Trazado 152761" d="M1065.838,1718.361a13.9,13.9,0,0,0-3.525,4.905l-.289.743,1.569,2.189,3.635-6.939Z" transform="translate(-346.866 -283.306)" fill="#93405e"/>
    <path id="Trazado_152762" data-name="Trazado 152762" d="M1160.136,1569.365l-1.3-2.045a13.434,13.434,0,0,1,5.824-3.841l.808,1.425Z" transform="translate(-417.408 -170.45)" fill="#93405e"/>
    <path id="Trazado_152763" data-name="Trazado 152763" d="M1196.065,1598.077l-9.88,5.241-1.467.778s-.523-.263-1.38-.711c-2.8-1.469-9.159-4.931-12.381-7.715a60.789,60.789,0,0,1-6.562-7.851c-4.677-6.265-9.67-13.709-9.67-13.709,3.593-5.576,7.747-7.435,7.747-7.435s11.189,15.737,12.924,17.224c1.014.87,7.908,5.568,13.459,9.321C1192.8,1595.889,1196.065,1598.077,1196.065,1598.077Z" transform="translate(-414.413 -172.78)" fill="#e6c0fb"/>
    <path id="Trazado_152764" data-name="Trazado 152764" d="M1222.033,1654.858l-9.881,5.241c-.877.02-1.844.042-2.847.067-2.8-1.47-9.159-4.932-12.381-7.715a60.8,60.8,0,0,1-6.562-7.851,31.094,31.094,0,0,1,5.254,3.024c2.563,2.218,1.819-.5,13.219,1.073a38.021,38.021,0,0,1,5.987,1.3C1218.767,1652.669,1222.033,1654.858,1222.033,1654.858Z" transform="translate(-440.381 -229.56)" fill="#d07efc"/>
    <path id="Trazado_152765" data-name="Trazado 152765" d="M1229.49,1627.442s-8.55,5.246-8.57,1.943a8.992,8.992,0,0,0-.468-2.843,7.41,7.41,0,0,0-1.288-2.4.028.028,0,0,0-.005.007c-3.053,3.254-4.414,2.223-4.786,1.6s-2.892-5.824-2.52-7.559a5.308,5.308,0,0,0-.248-3.841c-.535-1.073.248-3.675.248-3.675l7.271-1.529s6.731,6.857,7.31,9.169S1229.49,1627.442,1229.49,1627.442Z" transform="translate(-455.724 -203.726)" fill="#e9928b"/>
    <path id="Trazado_152766" data-name="Trazado 152766" d="M1128.966,1696.829c-2.23,6.691-14.361,29.037-20.713,29.674-2.59.26-5.928-1.43-8.974-3.524a63.586,63.586,0,0,1-8.23-6.932c5.576-3.953,4.832-16.418,4.832-16.418a.007.007,0,0,1,0,0c-.121.1-7.97,6.617-13.231,7.232-5.306.619-22.452-11.276-22.452-11.276s3.841-9.665,5.7-9.293,14.126,8.3,16.227,8.426,14.007-10.532,16.971-13.506,14.631-7.558,22.809-7.682c0,0,5.328.867,7.187,4.833S1131.2,1690.138,1128.966,1696.829Z" transform="translate(-345.534 -250.643)" fill="#e6c0fb"/>
    <path id="Trazado_152767" data-name="Trazado 152767" d="M1208.345,1584.536c-3.884.466-7.571,3.343-6.38,6.226a5.009,5.009,0,0,0,5.006,3.248,2.772,2.772,0,0,1,2.505,1.71c.521.807.752.307,1.4-1s2.152-.373,2.191,1.39-.269,6.028,2.882,6.1,3.766-1.23,3.882-1.23a22.008,22.008,0,0,0,2.5-9.877s3.267-1.691,2.652-4.381-4.151-3.229-6.265-1.057a6.134,6.134,0,0,1-3.421-1.019c-1.653-1.114-3.882-1.653-4.92-1S1209.306,1584.421,1208.345,1584.536Z" transform="translate(-448.67 -184.943)" fill="#0c1b3c"/>
    <g id="Grupo_86946" data-name="Grupo 86946" transform="translate(737.113 1448.094)">
      <rect id="Rectángulo_8015" data-name="Rectángulo 8015" width="3.319" height="37.706" transform="translate(22.015 40.104)" fill="#ffda81"/>
      <path id="Trazado_152768" data-name="Trazado 152768" d="M1231.846,1951.648h-1.659v-37.706l1.659-.1Z" transform="translate(-1206.513 -1873.837)" fill="#ffc945"/>
      <path id="Trazado_152769" data-name="Trazado 152769" d="M1208.047,2055.969h-26.272a2.791,2.791,0,0,1,2.79-2.788h20.693A2.788,2.788,0,0,1,1208.047,2055.969Z" transform="translate(-1171.237 -1975.371)" fill="#ffc945"/>
      <path id="Trazado_152770" data-name="Trazado 152770" d="M1199.663,2055.969h-17.888a2.791,2.791,0,0,1,2.79-2.788h10.346Z" transform="translate(-1171.237 -1975.371)" fill="#ffda81"/>
      <g id="Grupo_86945" data-name="Grupo 86945" transform="translate(0)">
        <path id="Trazado_152771" data-name="Trazado 152771" d="M1199.213,1766.961c-.236.11-.466.227-.691.349-.073.04-.146.08-.217.122s-.144.082-.216.126-.141.084-.212.13-.13.08-.192.122-.148.1-.221.148-.135.093-.2.141-.135.1-.2.146q-.334.247-.656.519c-.078.066-.155.131-.23.2q-.405.356-.787.749l-.007.007c-.1.106-.206.216-.309.325l-.046.051q-.151.164-.3.335c-.108.124-.212.248-.316.376a.127.127,0,0,1-.02.024c-.1.119-.192.241-.285.364s-.2.258-.292.391l-.017.022c-.095.13-.186.261-.278.395s-.19.278-.281.418c0,0,0,0,0,0-.08.124-.161.25-.239.378-.022.034-.044.069-.066.106s-.04.062-.059.095c-.146.238-.287.481-.426.727-.168.3-.332.6-.49.914-.08.155-.159.312-.236.469s-.153.316-.228.475q-.225.479-.437.97-.107.244-.208.493t-.2.5c-.058.144-.115.289-.172.433q-.109.288-.219.581c-.064.17-.126.34-.186.512l-.022.06c-.055.152-.11.3-.161.457q-.183.529-.36,1.067c-.053.167-.108.333-.159.5l-.164.526c-.1.333-.2.665-.3,1-.005.02-.011.04-.016.059q-.079.266-.153.531a.092.092,0,0,1,0,.009c-.049.174-.1.349-.148.523-.064.225-.126.451-.188.676-.034.128-.069.258-.1.386-.02.071-.038.142-.059.214-.124.459-.245.917-.364,1.372s-.23.886-.344,1.325c-.047.186-.1.373-.144.559q-.225.877-.444,1.728c-.046.166-.088.333-.131.5-.079.3-.159.6-.238.893-.049.183-.1.366-.148.546-.179.648-.358,1.279-.545,1.887-.042.139-.084.276-.126.413l-.093.291c-.026.082-.051.164-.078.245-.086.267-.174.528-.265.784-.095.276-.193.546-.294.807-.005.015-.011.027-.014.04-.046.119-.091.234-.139.349s-.08.2-.122.3c-.011.026-.022.053-.033.079-.047.113-.1.227-.146.338a.218.218,0,0,1-.013.027c-.053.12-.108.239-.163.354s-.11.23-.166.342q-.06.126-.126.247c-.018.038-.038.075-.058.111-.053.1-.106.193-.161.289-.026.045-.051.089-.077.133s-.068.114-.1.17c-4.659,7.582-17.9,7.308-17.9,7.308h-19.458c-4.567,0-4.659-4.659.548-5.024s15.347-6.395,19.915-19.64c2.214-6.42,4.792-10.242,6.862-12.478a9.3,9.3,0,0,1,6.839-2.96h18.6A.285.285,0,0,1,1199.213,1766.961Z" transform="translate(-1142.938 -1766.417)" fill="#ffda81"/>
        <path id="Trazado_152772" data-name="Trazado 152772" d="M1209.261,1769.709c-.073.04-.146.08-.218.122s-.144.082-.215.126-.141.084-.212.13-.128.08-.192.122-.148.1-.221.148-.137.093-.2.141-.135.1-.2.146q-.335.246-.656.519c-.079.066-.156.131-.23.2-.27.237-.534.488-.787.749l-.007.007c-.1.106-.207.216-.309.325l-.046.051q-.151.164-.3.334c-.108.124-.212.25-.316.376a.138.138,0,0,1-.02.024c-.095.121-.192.241-.285.364s-.2.26-.292.391l-.016.022c-.093.13-.186.261-.278.394s-.188.278-.281.418c0,0,0,0,0,0-.078.124-.159.25-.239.378-.022.035-.044.069-.066.106s-.039.062-.057.095h0c-.146.238-.287.481-.426.727-.168.3-.332.6-.49.914-.08.155-.159.31-.236.469s-.153.314-.228.475q-.225.479-.437.97c-.069.163-.14.327-.208.493s-.137.333-.2.5c-.058.144-.115.289-.172.433q-.109.288-.219.581c-.062.17-.126.34-.186.512l-.022.06c-.055.152-.108.3-.161.457q-.184.529-.36,1.067c-.053.166-.106.333-.159.5l-.164.526c-.1.333-.2.667-.3,1-.005.02-.011.04-.016.058l-.153.531s0,.006,0,.009c-.049.174-.1.347-.148.523-.064.225-.126.451-.188.676-.035.13-.069.258-.1.385-.02.071-.039.143-.059.214-.122.458-.245.917-.364,1.372s-.23.886-.344,1.325c-.048.186-.095.374-.144.559q-.224.877-.444,1.728-.066.252-.131.5c-.079.3-.159.6-.238.894-.049.182-.1.365-.148.546-.179.649-.358,1.279-.545,1.887-.042.139-.084.276-.126.413l-.094.291c-.025.082-.051.164-.078.245q-.129.4-.265.784c-.1.276-.193.546-.294.807-.005.015-.011.027-.014.04-.046.119-.092.234-.139.349s-.08.2-.122.3l-.033.079c-.048.113-.1.227-.146.338a.238.238,0,0,1-.013.027c-.053.121-.108.24-.163.354s-.11.23-.166.342q-.06.126-.126.247c-.018.038-.038.075-.058.112-.053.1-.106.193-.161.289s-.119.2-.179.3c-4.659,7.582-17.9,7.308-17.9,7.308H1158.3c-1.3-1.016-.667-2.565,2.788-2.808,5.207-.365,16.458-7.717,21.026-20.963,2.214-6.42,4.792-10.242,6.862-12.478a9.305,9.305,0,0,1,6.838-2.96Z" transform="translate(-1153.677 -1768.816)" fill="#ffc945"/>
        <path id="Trazado_152773" data-name="Trazado 152773" d="M1237.041,1790.69c-.146.238-.287.481-.426.727-.168.3-.332.6-.49.914-.08.155-.159.31-.236.469s-.153.314-.228.475q-.225.48-.437.97c-.069.162-.141.327-.208.493s-.137.333-.2.5c-.058.144-.115.289-.172.433q-.11.288-.219.581c-.062.17-.126.34-.186.512l-.022.06c-.055.152-.108.3-.161.457q-.183.529-.36,1.067c-.053.166-.106.333-.159.5l-.165.526c-.1.333-.2.667-.3,1-.005.02-.011.04-.017.058l-.153.532s0,.006,0,.009c-.049.174-.1.347-.148.523-.064.225-.126.451-.188.676-.035.13-.069.258-.1.386-.02.071-.039.143-.059.214-.122.458-.245.917-.364,1.372s-.23.886-.344,1.325c-.047.186-.095.375-.144.559q-.224.877-.444,1.728-.066.253-.131.5c-.079.3-.159.6-.238.894-.049.182-.1.365-.148.546-.179.649-.358,1.279-.545,1.887-.042.139-.084.276-.126.413l-.093.291c-.026.082-.051.164-.079.245q-.129.4-.265.784c-.1.276-.193.546-.294.808-.006.015-.011.027-.015.04-.046.119-.091.234-.139.349s-.08.2-.122.3l-.033.079c-.047.113-.1.227-.146.338a.236.236,0,0,1-.013.027c-.053.12-.108.239-.163.354s-.11.23-.166.342q-.06.126-.126.247c-.018.038-.038.075-.058.112-.053.1-.106.193-.161.289-.025.046-.051.089-.077.133s-.068.113-.1.17c-4.659,7.582-17.9,7.308-17.9,7.308h-6.4c.672-.04,13.114-.638,17.552-19.235C1224.1,1792.416,1232.24,1791.669,1237.041,1790.69Z" transform="translate(-1187.106 -1784.104)" fill="#ffda81"/>
      </g>
    </g>
    <path id="Trazado_152774" data-name="Trazado 152774" d="M789.087,1860.053v-12.735a7.187,7.187,0,0,0-7.187-7.187h-9.087v60.564h30.647v-26.269a7.187,7.187,0,0,0-7.187-7.187h0A7.187,7.187,0,0,1,789.087,1860.053Z" transform="translate(-136.13 -372.035)" fill="#dceceb"/>
    <g id="Grupo_86947" data-name="Grupo 86947" transform="translate(621.412 1493.988)">
      <path id="Trazado_152775" data-name="Trazado 152775" d="M746.139,1954.846c-2.772-5.29-6.117-9.065-11.553-13.336s-12.557-4.289-15.465-5.667-2.982,2.436-2.079,6.018-1.838,20.073,14.68,25.317S748.186,1958.752,746.139,1954.846Z" transform="translate(-716.532 -1935.555)" fill="#f2d6c8"/>
      <path id="Trazado_152776" data-name="Trazado 152776" d="M786.163,1987.5a.248.248,0,0,1-.245-.214c-.791-5.838,2.1-11.607,2.132-11.664a.248.248,0,0,1,.442.225c-.029.056-2.853,5.692-2.083,11.373a.248.248,0,0,1-.212.279Z" transform="translate(-766.991 -1964.648)" fill="#f5b89b"/>
      <path id="Trazado_152777" data-name="Trazado 152777" d="M749.878,2015.845a.245.245,0,0,1-.115-.028c-4.923-2.586-13.478-1.659-13.563-1.65a.248.248,0,1,1-.056-.493c.357-.04,8.793-.953,13.849,1.7a.248.248,0,0,1-.116.467Z" transform="translate(-730.662 -1992.344)" fill="#f5b89b"/>
      <path id="Trazado_152778" data-name="Trazado 152778" d="M744.469,1970.538a.248.248,0,0,1-.24-.189c-3.548-14.65-17.605-25-17.747-25.105a.248.248,0,0,1,.291-.4c.143.1,14.347,10.564,17.937,25.39a.248.248,0,0,1-.183.3A.24.24,0,0,1,744.469,1970.538Z" transform="translate(-723.708 -1942.287)" fill="#f5b89b"/>
      <path id="Trazado_152779" data-name="Trazado 152779" d="M737.778,1982.229a.246.246,0,0,1-.155-.054c-3.211-2.569-10.967-1.9-11.045-1.892a.245.245,0,0,1-.269-.224.248.248,0,0,1,.224-.269c.327-.029,8.032-.695,11.4,2a.248.248,0,0,1-.155.441Z" transform="translate(-723.656 -1967.719)" fill="#f5b89b"/>
      <path id="Trazado_152780" data-name="Trazado 152780" d="M756.826,1958.265a.248.248,0,0,1-.229-.152c-1.006-2.392-.476-6.438-.453-6.609a.248.248,0,1,1,.491.067c-.006.04-.535,4.083.419,6.35a.248.248,0,0,1-.228.344Z" transform="translate(-745.279 -1947.021)" fill="#f5b89b"/>
    </g>
    <g id="Grupo_86949" data-name="Grupo 86949" transform="translate(607.791 1510.042)">
      <path id="Trazado_152781" data-name="Trazado 152781" d="M666.368,2013.262c-.472-4.95,4.01-12.4,18.4-7.553,0,0,3.635-11.359,13.631-10.98s13.177,9.726,13.177,9.726,13.429-1.623,15.348,9.736C726.922,2014.191,667.05,2020.414,666.368,2013.262Z" transform="translate(-666.335 -1994.72)" fill="#adccc7"/>
      <g id="Grupo_86948" data-name="Grupo 86948" transform="translate(22.985 5.114)">
        <path id="Trazado_152782" data-name="Trazado 152782" d="M765.084,2027.851l-.489-.079a18.208,18.208,0,0,0-3.74-13.876l.372-.328A18.751,18.751,0,0,1,765.084,2027.851Z" transform="translate(-758.192 -2013.568)" fill="#6eab9c"/>
        <path id="Trazado_152783" data-name="Trazado 152783" d="M776.033,2023.214l-.38-.319c.046-.055,4.6-5.507,5.382-8.926l.484.11C780.714,2017.615,776.223,2022.987,776.033,2023.214Z" transform="translate(-768.975 -2013.86)" fill="#6eab9c"/>
        <path id="Trazado_152784" data-name="Trazado 152784" d="M757.89,2046.931c-3.56-.193-6.715-3.865-6.847-4.021l.378-.321c.031.037,3.151,3.665,6.5,3.848Z" transform="translate(-751.043 -2034.714)" fill="#6eab9c"/>
      </g>
      <path id="Trazado_152785" data-name="Trazado 152785" d="M816.8,2051.295l-.324-.375c.257-.222,6.342-5.448,9.506-5.536l.014.5C823.007,2045.962,816.862,2051.242,816.8,2051.295Z" transform="translate(-775.737 -2031.636)" fill="#6eab9c"/>
      <path id="Trazado_152786" data-name="Trazado 152786" d="M837.836,2058.588a54.9,54.9,0,0,1-8.822-1.311l.124-.479a54.425,54.425,0,0,0,8.727,1.3Z" transform="translate(-784.873 -2039.953)" fill="#6eab9c"/>
      <path id="Trazado_152787" data-name="Trazado 152787" d="M701.413,2051.869c-3.2-2.664-9.962-4.792-10.03-4.813l.148-.473c.281.088,6.92,2.179,10.2,4.906Z" transform="translate(-684.586 -2032.51)" fill="#6eab9c"/>
      <path id="Trazado_152788" data-name="Trazado 152788" d="M717.2,2042.07" transform="translate(-703.397 -2029.222)" fill="none" stroke="#6eab9c" stroke-miterlimit="10" stroke-width="2"/>
      <path id="Trazado_152789" data-name="Trazado 152789" d="M714.846,2044.771l-.5-.014a10.33,10.33,0,0,0-1.11-4.848l.432-.244A10.647,10.647,0,0,1,714.846,2044.771Z" transform="translate(-700.513 -2027.47)" fill="#6eab9c"/>
    </g>
    <g id="Grupo_86957" data-name="Grupo 86957" transform="translate(677.976 1329.556)">
      <path id="Trazado_152790" data-name="Trazado 152790" d="M1013.959,1391.785l-87.232,1.487-1.735-1.487v-28.664h88.967l1.735,1.487Z" transform="translate(-924.992 -1354.013)" fill="#b6d5d0"/>
      <path id="Trazado_152791" data-name="Trazado 152791" d="M1013.959,1336l-87.232,1.487L924.992,1336v-6.443h88.967l1.735,1.487Z" transform="translate(-924.992 -1329.556)" fill="#b6d5d0"/>
      <rect id="Rectángulo_8016" data-name="Rectángulo 8016" width="88.967" height="28.664" transform="translate(1.735 10.594)" fill="#dceceb"/>
      <rect id="Rectángulo_8017" data-name="Rectángulo 8017" width="88.967" height="6.443" transform="translate(1.735 1.487)" fill="#edf6f5"/>
      <g id="Grupo_86953" data-name="Grupo 86953" transform="translate(6.216 3.503)">
        <g id="Grupo_86950" data-name="Grupo 86950" transform="translate(11.343 0)">
          <circle id="Elipse_8379" data-name="Elipse 8379" cx="1.205" cy="1.205" r="1.205" fill="#67a4c3"/>
        </g>
        <g id="Grupo_86951" data-name="Grupo 86951" transform="translate(5.672)">
          <path id="Trazado_152792" data-name="Trazado 152792" d="M971.215,1343.672a1.205,1.205,0,1,1-1.205-1.205A1.205,1.205,0,0,1,971.215,1343.672Z" transform="translate(-968.804 -1342.467)" fill="#eb908b"/>
        </g>
        <g id="Grupo_86952" data-name="Grupo 86952" transform="translate(0 0)">
          <circle id="Elipse_8380" data-name="Elipse 8380" cx="1.205" cy="1.205" r="1.205" fill="#ffaa3f"/>
        </g>
      </g>
      <g id="Grupo_86956" data-name="Grupo 86956" transform="translate(61.363 11.99)">
        <g id="Grupo_86954" data-name="Grupo 86954">
          <path id="Trazado_152793" data-name="Trazado 152793" d="M1162.6,1373.745a11.454,11.454,0,1,0,11.454,11.454A11.453,11.453,0,0,0,1162.6,1373.745Zm0,18.827a7.373,7.373,0,1,1,7.373-7.373A7.373,7.373,0,0,1,1162.6,1392.572Z" transform="translate(-1151.141 -1373.745)" fill="#b2e5e0"/>
        </g>
        <g id="Grupo_86955" data-name="Grupo 86955" transform="translate(2.725 0.991)">
          <path id="Trazado_152794" data-name="Trazado 152794" d="M1180.733,1380.75a11.458,11.458,0,1,0,3.36,8.1A11.406,11.406,0,0,0,1180.733,1380.75Zm-4.4,14.483a7.374,7.374,0,1,1,3.678-6.379A7.332,7.332,0,0,1,1176.334,1395.232Z" transform="translate(-1161.185 -1377.399)" fill="#3fb8a9"/>
        </g>
        <path id="Trazado_152795" data-name="Trazado 152795" d="M1224.775,1397.85a11.452,11.452,0,0,1-5.712,9.916l-2.047-3.537a7.373,7.373,0,0,0,1.514-11.6l2.885-2.884A11.408,11.408,0,0,1,1224.775,1397.85Z" transform="translate(-1199.142 -1385.405)" fill="#fff"/>
        <path id="Trazado_152796" data-name="Trazado 152796" d="M1178.92,1433.214a11.462,11.462,0,0,1-17-7.774l4.01-.768a7.371,7.371,0,0,0,10.939,5.006Z" transform="translate(-1158.999 -1410.854)" fill="#ffc945"/>
      </g>
      <rect id="Rectángulo_8018" data-name="Rectángulo 8018" width="39.878" height="1.862" transform="translate(6.464 16.208)" fill="#fff"/>
      <rect id="Rectángulo_8019" data-name="Rectángulo 8019" width="39.878" height="1.862" transform="translate(6.464 23.891)" fill="#fff"/>
      <rect id="Rectángulo_8020" data-name="Rectángulo 8020" width="39.878" height="1.862" transform="translate(6.464 31.573)" fill="#fff"/>
    </g>
    <path id="Trazado_152797" data-name="Trazado 152797" d="M1132.895,2034.567h-4.708a10.923,10.923,0,0,0,5.039-5.8c.9-2.81,2.36-5.508,4.181-4.842s.32,3.762-.646,5.508A31.116,31.116,0,0,1,1132.895,2034.567Z" transform="translate(-395.076 -505.884)" fill="#408c91"/>
    <path id="Trazado_152798" data-name="Trazado 152798" d="M806.633,1746.841h-.743v-30.1a4.646,4.646,0,0,1,4.641-4.641H813.6v.743h-3.068a3.9,3.9,0,0,0-3.9,3.9Z" transform="translate(-160.232 -278.746)" fill="#3fb8a9"/>
    <path id="Trazado_152799" data-name="Trazado 152799" d="M817.7,1754.647h-.743v-30.1a2.165,2.165,0,0,1,2.163-2.163h5.4v.743h-5.4a1.421,1.421,0,0,0-1.419,1.419Z" transform="translate(-168.296 -286.239)" fill="#3fb8a9"/>
    <path id="Trazado_152800" data-name="Trazado 152800" d="M1181.948,1780.415a3.028,3.028,0,0,1,.186.9,63.6,63.6,0,0,1-8.23-6.932c5.576-3.952,4.832-16.418,4.832-16.418s6.292-5.494,7.16-4.166-2.23,8.949,0,12.079S1180.109,1775.347,1181.948,1780.415Z" transform="translate(-428.389 -308.976)" fill="#d07efc"/>
    <path id="Trazado_152801" data-name="Trazado 152801" d="M1241.253,1658.38a7.412,7.412,0,0,0-1.289-2.4,6.612,6.612,0,0,0,1.291-3.137S1242.759,1656.31,1241.253,1658.38Z" transform="translate(-476.524 -235.563)" fill="#de6667"/>
    <g id="Grupo_86959" data-name="Grupo 86959" transform="translate(689.271 1370.059)">
      <circle id="Elipse_8381" data-name="Elipse 8381" cx="6.279" cy="6.279" r="6.279" transform="translate(0 8.225) rotate(-40.913)" fill="#fff"/>
      <g id="Grupo_86958" data-name="Grupo 86958" transform="translate(21.311 2.735)">
        <rect id="Rectángulo_8021" data-name="Rectángulo 8021" width="27.885" height="1.802" fill="#fff"/>
        <rect id="Rectángulo_8022" data-name="Rectángulo 8022" width="27.885" height="1.802" transform="translate(0 5.326)" fill="#fff"/>
        <rect id="Rectángulo_8023" data-name="Rectángulo 8023" width="15.431" height="1.802" transform="translate(0 10.6)" fill="#fff"/>
      </g>
    </g>
    <g id="Grupo_86961" data-name="Grupo 86961" transform="translate(619.008 1450.384)">
      <rect id="Rectángulo_8024" data-name="Rectángulo 8024" width="15.331" height="10.418" transform="translate(0 0)" fill="#d07efc"/>
      <g id="Grupo_86960" data-name="Grupo 86960" transform="translate(1.876 2.934)">
        <path id="Trazado_152802" data-name="Trazado 152802" d="M718.167,1790.174a3.03,3.03,0,0,1-1.313.243,2.212,2.212,0,0,1-1.662-.621,2.272,2.272,0,0,1-.605-1.656,2.426,2.426,0,0,1,.681-1.787,2.38,2.38,0,0,1,1.766-.685,3.3,3.3,0,0,1,1.134.17v1a2.011,2.011,0,0,0-1.05-.275,1.393,1.393,0,0,0-1.044.407,1.508,1.508,0,0,0-.4,1.1,1.481,1.481,0,0,0,.375,1.062,1.324,1.324,0,0,0,1.009.4,2.152,2.152,0,0,0,1.108-.295Z" transform="translate(-714.587 -1785.668)" fill="#fff"/>
        <path id="Trazado_152803" data-name="Trazado 152803" d="M730.505,1790.161v-1.025a1.969,1.969,0,0,0,1.265.468,1.459,1.459,0,0,0,.341-.035.791.791,0,0,0,.243-.1.423.423,0,0,0,.146-.147.366.366,0,0,0,.048-.184.4.4,0,0,0-.077-.24.827.827,0,0,0-.21-.2,2.212,2.212,0,0,0-.316-.173q-.182-.083-.394-.17a2.008,2.008,0,0,1-.8-.548,1.2,1.2,0,0,1-.264-.781,1.244,1.244,0,0,1,.144-.616,1.229,1.229,0,0,1,.392-.424,1.761,1.761,0,0,1,.575-.245,2.969,2.969,0,0,1,.692-.078,4.167,4.167,0,0,1,.636.043,2.517,2.517,0,0,1,.511.133v.957a1.556,1.556,0,0,0-.252-.141,1.989,1.989,0,0,0-.28-.1,2.11,2.11,0,0,0-.286-.059,1.993,1.993,0,0,0-.271-.019,1.4,1.4,0,0,0-.32.034.808.808,0,0,0-.243.094.468.468,0,0,0-.154.146.345.345,0,0,0-.055.19.365.365,0,0,0,.061.207.7.7,0,0,0,.173.173,1.847,1.847,0,0,0,.272.16q.16.078.362.161a4.061,4.061,0,0,1,.495.245,1.759,1.759,0,0,1,.376.293,1.143,1.143,0,0,1,.24.373,1.489,1.489,0,0,1-.062,1.133,1.181,1.181,0,0,1-.4.423,1.712,1.712,0,0,1-.581.232,3.366,3.366,0,0,1-.7.07,3.877,3.877,0,0,1-.719-.064A2.175,2.175,0,0,1,730.505,1790.161Z" transform="translate(-726.172 -1785.668)" fill="#fff"/>
        <path id="Trazado_152804" data-name="Trazado 152804" d="M744.657,1790.161v-1.025a1.97,1.97,0,0,0,1.265.468,1.46,1.46,0,0,0,.341-.035.793.793,0,0,0,.243-.1.424.424,0,0,0,.146-.147.366.366,0,0,0,.048-.184.4.4,0,0,0-.077-.24.828.828,0,0,0-.21-.2,2.211,2.211,0,0,0-.316-.173q-.182-.083-.394-.17a2.008,2.008,0,0,1-.8-.548,1.194,1.194,0,0,1-.264-.781,1.245,1.245,0,0,1,.144-.616,1.229,1.229,0,0,1,.392-.424,1.761,1.761,0,0,1,.575-.245,2.968,2.968,0,0,1,.692-.078,4.16,4.16,0,0,1,.635.043,2.513,2.513,0,0,1,.511.133v.957a1.56,1.56,0,0,0-.251-.141,2,2,0,0,0-.28-.1,2.117,2.117,0,0,0-.286-.059,1.993,1.993,0,0,0-.271-.019,1.4,1.4,0,0,0-.32.034.807.807,0,0,0-.243.094.467.467,0,0,0-.154.146.344.344,0,0,0-.055.19.366.366,0,0,0,.061.207.705.705,0,0,0,.173.173,1.846,1.846,0,0,0,.272.16q.16.078.362.161a4.061,4.061,0,0,1,.495.245,1.76,1.76,0,0,1,.376.293,1.142,1.142,0,0,1,.24.373,1.488,1.488,0,0,1-.062,1.133,1.183,1.183,0,0,1-.4.423,1.712,1.712,0,0,1-.581.232,3.368,3.368,0,0,1-.7.07,3.877,3.877,0,0,1-.719-.064A2.175,2.175,0,0,1,744.657,1790.161Z" transform="translate(-736.484 -1785.668)" fill="#fff"/>
      </g>
    </g>
    <g id="Grupo_86963" data-name="Grupo 86963" transform="translate(585.991 1472.024)">
      <rect id="Rectángulo_8025" data-name="Rectángulo 8025" width="24.623" height="11.317" fill="#7ff9ff"/>
      <g id="Grupo_86962" data-name="Grupo 86962" transform="translate(2.351 3.058)">
        <path id="Trazado_152805" data-name="Trazado 152805" d="M598.973,1870.868h-1.127v-2.032H595.78v2.032h-1.124v-4.989h1.124v1.99h2.066v-1.99h1.127Z" transform="translate(-594.656 -1865.879)" fill="#fff"/>
        <path id="Trazado_152806" data-name="Trazado 152806" d="M617.688,1866.794h-1.423v4.074h-1.127v-4.074h-1.416v-.915h3.966Z" transform="translate(-608.549 -1865.879)" fill="#fff"/>
        <path id="Trazado_152807" data-name="Trazado 152807" d="M637.151,1870.868h-1.11v-2.985q0-.484.042-1.068h-.028a5.272,5.272,0,0,1-.157.661l-1.169,3.392h-.918l-1.19-3.357a6.516,6.516,0,0,1-.157-.7h-.031q.046.737.045,1.294v2.759h-1.012v-4.989h1.645l1.019,2.957a4.168,4.168,0,0,1,.177.713h.021a7.157,7.157,0,0,1,.2-.72l1.019-2.95h1.6Z" transform="translate(-621.479 -1865.879)" fill="#fff"/>
        <path id="Trazado_152808" data-name="Trazado 152808" d="M660.222,1870.868h-2.971v-4.989h1.124v4.077h1.847Z" transform="translate(-640.266 -1865.879)" fill="#fff"/>
      </g>
    </g>
    <g id="Grupo_86967" data-name="Grupo 86967" transform="translate(646.945 1473.055)">
      <g id="Grupo_86964" data-name="Grupo 86964" transform="translate(0 11.103)">
        <path id="Trazado_152809" data-name="Trazado 152809" d="M812.991,1900.509a1.18,1.18,0,1,1-1.18-1.18A1.18,1.18,0,0,1,812.991,1900.509Z" transform="translate(-810.632 -1899.329)" fill="#b6d5d0"/>
      </g>
      <g id="Grupo_86965" data-name="Grupo 86965" transform="translate(0 5.552)">
        <circle id="Elipse_8382" data-name="Elipse 8382" cx="1.18" cy="1.18" r="1.18" fill="#b6d5d0"/>
      </g>
      <g id="Grupo_86966" data-name="Grupo 86966" transform="translate(0)">
        <circle id="Elipse_8383" data-name="Elipse 8383" cx="1.18" cy="1.18" r="1.18" fill="#b6d5d0"/>
      </g>
    </g>
    <path id="Trazado_152810" data-name="Trazado 152810" d="M1244.721,1672.628a2.753,2.753,0,0,1,1.086-1.658c.916-.633,6.777-3.208,8.369-.405Z" transform="translate(-479.99 -247.546)" fill="#93405e"/>
  </g>
</svg>
