<svg xmlns="http://www.w3.org/2000/svg" width="246.736" height="227.905" viewBox="0 0 246.736 227.905">
  <g id="Grupo_87245" data-name="Grupo 87245" transform="translate(3321 5647.784)">
    <g id="Grupo_87243" data-name="Grupo 87243" transform="translate(-3321 -5475.571)">
      <g id="Grupo_87000" data-name="Grupo 87000" transform="translate(62.888)" opacity="0.74">
        <path id="Trazado_152956" data-name="Trazado 152956" d="M2796.562,857.941l-1.113-.618a2.186,2.186,0,0,1-1.127-1.943c0-.091,0-.181,0-.272s0-.181,0-.272a2.186,2.186,0,0,1,1.127-1.943l1.113-.618a2.2,2.2,0,0,0,1.055-2.485c0-.01-.006-.023-.01-.033a2.193,2.193,0,0,0-2.153-1.623l-1.276.021a2.206,2.206,0,0,1-1.959-1.144c-.081-.14-.161-.28-.241-.418a2.21,2.21,0,0,1-.015-2.275l.653-1.086a2.195,2.195,0,0,0-.33-2.679l-.027-.026a2.195,2.195,0,0,0-2.679-.33l-1.085.653a2.21,2.21,0,0,1-2.275-.015l-.418-.241a2.206,2.206,0,0,1-1.143-1.96l.02-1.276a2.193,2.193,0,0,0-1.623-2.153c-.01,0-.023-.006-.033-.01a2.2,2.2,0,0,0-2.485,1.055l-.618,1.112a2.186,2.186,0,0,1-1.943,1.127c-.091,0-.181,0-.272,0s-.181,0-.272,0a2.185,2.185,0,0,1-1.943-1.127l-.618-1.112a2.2,2.2,0,0,0-2.485-1.055l-.033.01a2.193,2.193,0,0,0-1.624,2.153l.021,1.276a2.207,2.207,0,0,1-1.143,1.96l-.419.241a2.209,2.209,0,0,1-2.275.015l-1.086-.653a2.194,2.194,0,0,0-2.679.33l-.027.026a2.194,2.194,0,0,0-.33,2.679l.654,1.086a2.21,2.21,0,0,1-.015,2.275c-.081.138-.16.278-.241.418a2.207,2.207,0,0,1-1.96,1.144l-1.275-.021a2.193,2.193,0,0,0-2.153,1.623c0,.01-.007.023-.01.033a2.2,2.2,0,0,0,1.055,2.485l1.113.618a2.186,2.186,0,0,1,1.127,1.943c0,.091,0,.181,0,.272s0,.181,0,.272a2.186,2.186,0,0,1-1.127,1.943l-1.113.618a2.2,2.2,0,0,0-1.055,2.485c0,.01.006.023.01.033a2.193,2.193,0,0,0,2.153,1.624l1.275-.02a2.206,2.206,0,0,1,1.96,1.144c.08.14.16.28.241.418a2.21,2.21,0,0,1,.015,2.275l-.654,1.086a2.194,2.194,0,0,0,.33,2.679l.027.027a2.194,2.194,0,0,0,2.679.33l1.086-.653a2.21,2.21,0,0,1,2.275.014c.138.081.278.161.419.241a2.206,2.206,0,0,1,1.143,1.959l-.021,1.276a2.194,2.194,0,0,0,1.624,2.153c.01,0,.023.006.033.01a2.2,2.2,0,0,0,2.485-1.055l.618-1.113a2.185,2.185,0,0,1,1.943-1.127c.091,0,.181,0,.272,0s.181,0,.272,0a2.186,2.186,0,0,1,1.943,1.127l.618,1.113a2.2,2.2,0,0,0,2.485,1.055c.01,0,.023-.006.033-.01a2.193,2.193,0,0,0,1.623-2.153l-.02-1.276a2.206,2.206,0,0,1,1.143-1.959c.14-.081.281-.161.418-.241a2.211,2.211,0,0,1,2.275-.014l1.085.653a2.195,2.195,0,0,0,2.679-.33l.027-.027a2.194,2.194,0,0,0,.33-2.679l-.653-1.086a2.21,2.21,0,0,1,.015-2.275c.08-.138.161-.278.241-.418a2.2,2.2,0,0,1,1.959-1.144l1.276.02a2.192,2.192,0,0,0,2.153-1.624c0-.01.007-.023.01-.033A2.2,2.2,0,0,0,2796.562,857.941Zm-18.857,9.529a12.363,12.363,0,1,1,12.363-12.363A12.362,12.362,0,0,1,2777.7,867.471Z" transform="translate(-2757.719 -835.122)" fill="#f0ebf7"/>
        <circle id="Elipse_8392" data-name="Elipse 8392" cx="5.58" cy="5.58" r="5.58" transform="translate(14.406 14.509)" fill="#f0ebf7"/>
      </g>
      <g id="Grupo_87002" data-name="Grupo 87002" transform="translate(0 23.464)">
        <path id="Trazado_152957" data-name="Trazado 152957" d="M2659.414,939.9s-8.76-17.9-26.391-12.4c0,0-5.808-20.78-21.03-19.8s-22.494,17.245-22.494,17.245-22.166-8.384-26.229,14.294Z" transform="translate(-2563.27 -907.675)" fill="#d6ece0"/>
        <g id="Grupo_87001" data-name="Grupo 87001" transform="translate(11.422 9.566)">
          <path id="Trazado_152958" data-name="Trazado 152958" d="M2700.717,959.374l-.531-.074a31.358,31.358,0,0,0-5.09-21.72l.426-.326A31.954,31.954,0,0,1,2700.717,959.374Z" transform="translate(-2663.884 -937.253)" fill="#93deb4"/>
          <path id="Trazado_152959" data-name="Trazado 152959" d="M2712.341,951.867l-.433-.316c.063-.085,6.25-8.6,7.31-13.954l.526.1C2718.661,943.174,2712.6,951.514,2712.341,951.867Z" transform="translate(-2675.259 -937.485)" fill="#93deb4"/>
          <path id="Trazado_152960" data-name="Trazado 152960" d="M2693.186,981.71c-4.8-.3-9.052-5.992-9.231-6.234l.431-.318c.042.057,4.284,5.732,8.833,6.018Z" transform="translate(-2656.346 -962.899)" fill="#93deb4"/>
          <path id="Trazado_152961" data-name="Trazado 152961" d="M2760.962,990.741l.72-.516c.083-.06,8.436-5.98,17.378-6.4l.024.535c-7.215.336-14.057,4.332-16.312,5.778l8.912-.311.019.536Z" transform="translate(-2708.448 -968.765)" fill="#93deb4"/>
          <path id="Trazado_152962" data-name="Trazado 152962" d="M2780.409,977.87l-.507-.174a32.93,32.93,0,0,1,4.393-7.947l.425.327A32.322,32.322,0,0,0,2780.409,977.87Z" transform="translate(-2721.262 -959.239)" fill="#93deb4"/>
          <path id="Trazado_152963" data-name="Trazado 152963" d="M2622.837,987a51.248,51.248,0,0,0-13.815-8.056l.177-.505a51.82,51.82,0,0,1,13.983,8.153Z" transform="translate(-2605.648 -965.119)" fill="#93deb4"/>
          <path id="Trazado_152964" data-name="Trazado 152964" d="M2598.833,994.763l-.245-.476c.19-.1,4.744-2.379,13.14-1.211l-.074.531C2603.443,992.464,2598.878,994.74,2598.833,994.763Z" transform="translate(-2598.588 -974.797)" fill="#93deb4"/>
        </g>
      </g>
      <g id="Grupo_87003" data-name="Grupo 87003" transform="translate(196.055 7.677)">
        <path id="Trazado_152965" data-name="Trazado 152965" d="M3169.469,896.849s.175-16.238,13.106-25.849,23.416-10.135,25.075-11.883,1.586,5.85,1.5,8.82.5,13.013-5.6,22.8-25.513,10.315-25.513,10.315Z" transform="translate(-3169.469 -858.86)" fill="#f0ebf7"/>
        <path id="Trazado_152966" data-name="Trazado 152966" d="M3192.475,894.074a.214.214,0,0,1-.178-.333,82.44,82.44,0,0,1,12.933-14.592,98.76,98.76,0,0,1,10.521-7.746c2.947-1.954,5.077-3.365,5.728-4.53a.214.214,0,1,1,.374.209c-.7,1.256-2.867,2.692-5.865,4.679a98.353,98.353,0,0,0-10.477,7.712,82,82,0,0,0-12.857,14.5A.214.214,0,0,1,3192.475,894.074Z" transform="translate(-3184.89 -864.207)" fill="#cbc0e0"/>
        <path id="Trazado_152967" data-name="Trazado 152967" d="M3226.411,921.833a56.423,56.423,0,0,1-10.2-.958.215.215,0,1,1,.088-.42c.1.022,10.4,2.125,18.554,0a.214.214,0,0,1,.107.415A34.529,34.529,0,0,1,3226.411,921.833Z" transform="translate(-3200.979 -900.531)" fill="#cbc0e0"/>
        <path id="Trazado_152968" data-name="Trazado 152968" d="M3253.126,893.874a48.1,48.1,0,0,1-5.856-.4.215.215,0,1,1,.059-.425c.065.009,6.5.884,9.877,0a.214.214,0,1,1,.108.415A17.559,17.559,0,0,1,3253.126,893.874Z" transform="translate(-3221.983 -881.987)" fill="#cbc0e0"/>
        <path id="Trazado_152969" data-name="Trazado 152969" d="M3209.533,947.116c-4.851,0-13.09-1.806-13.508-1.9a.215.215,0,1,1,.093-.419c.122.027,12.243,2.685,15.747,1.65a.214.214,0,1,1,.121.411A9.177,9.177,0,0,1,3209.533,947.116Z" transform="translate(-3187.323 -917.001)" fill="#cbc0e0"/>
        <path id="Trazado_152970" data-name="Trazado 152970" d="M3202.01,915.231a.214.214,0,0,1-.208-.163,22.841,22.841,0,0,1,0-10.011.215.215,0,0,1,.414.113,22.379,22.379,0,0,0,0,9.795.215.215,0,0,1-.156.26A.225.225,0,0,1,3202.01,915.231Z" transform="translate(-3190.956 -890.009)" fill="#cbc0e0"/>
        <path id="Trazado_152971" data-name="Trazado 152971" d="M3228.5,892.423h0a.215.215,0,0,1-.211-.218,27.932,27.932,0,0,1,1.258-7.879.215.215,0,1,1,.4.155,28.079,28.079,0,0,0-1.229,7.732A.214.214,0,0,1,3228.5,892.423Z" transform="translate(-3209.263 -875.996)" fill="#cbc0e0"/>
      </g>
      <g id="Grupo_87005" data-name="Grupo 87005" transform="translate(137.952 22.792)">
        <path id="Trazado_152972" data-name="Trazado 152972" d="M3085.961,937.824s.04-24.138-26.392-12.4c0,0-5.808-20.78-21.03-19.8s-16.695,20.645-16.695,20.645-20.847-10.6-32.028,10.894Z" transform="translate(-2989.817 -905.596)" fill="#d6ece0"/>
        <g id="Grupo_87004" data-name="Grupo 87004" transform="translate(11.422 9.566)">
          <path id="Trazado_152973" data-name="Trazado 152973" d="M3127.264,957.3l-.531-.074a31.362,31.362,0,0,0-5.091-21.721l.425-.326A31.951,31.951,0,0,1,3127.264,957.3Z" transform="translate(-3090.431 -935.175)" fill="#93deb4"/>
          <path id="Trazado_152974" data-name="Trazado 152974" d="M3138.888,949.789l-.433-.316c.063-.085,6.251-8.6,7.31-13.955l.525.1C3145.208,941.1,3139.145,949.436,3138.888,949.789Z" transform="translate(-3101.805 -935.407)" fill="#93deb4"/>
          <path id="Trazado_152975" data-name="Trazado 152975" d="M3119.733,979.632c-4.8-.3-9.052-5.992-9.231-6.234l.431-.318c.042.057,4.284,5.732,8.833,6.017Z" transform="translate(-3082.893 -960.821)" fill="#93deb4"/>
          <path id="Trazado_152976" data-name="Trazado 152976" d="M3187.509,988.663l.72-.516c.083-.06,8.436-5.98,17.378-6.4l.024.535c-7.215.336-14.056,4.332-16.312,5.778l8.912-.311.018.536Z" transform="translate(-3134.995 -966.687)" fill="#93deb4"/>
          <path id="Trazado_152977" data-name="Trazado 152977" d="M3206.956,975.792l-.507-.174a32.926,32.926,0,0,1,4.394-7.947l.424.327A32.332,32.332,0,0,0,3206.956,975.792Z" transform="translate(-3147.809 -957.161)" fill="#93deb4"/>
          <path id="Trazado_152978" data-name="Trazado 152978" d="M3049.384,984.922a51.236,51.236,0,0,0-13.815-8.056l.178-.506a51.818,51.818,0,0,1,13.983,8.153Z" transform="translate(-3032.194 -963.041)" fill="#93deb4"/>
          <path id="Trazado_152979" data-name="Trazado 152979" d="M3025.38,992.685l-.245-.476c.189-.1,4.744-2.379,13.139-1.211l-.074.531C3029.99,990.386,3025.425,992.662,3025.38,992.685Z" transform="translate(-3025.135 -972.719)" fill="#93deb4"/>
        </g>
      </g>
      <rect id="Rectángulo_8067" data-name="Rectángulo 8067" width="246.736" height="1.036" transform="translate(0 54.433)" fill="#3a3e49"/>
      <g id="Grupo_87007" data-name="Grupo 87007" transform="translate(100.919 28.893)" opacity="0.74">
        <path id="Trazado_152982" data-name="Trazado 152982" d="M2897.154,937.292l-.626-.348a1.231,1.231,0,0,1-.634-1.093c0-.051,0-.1,0-.153s0-.1,0-.153a1.231,1.231,0,0,1,.634-1.093l.626-.348a1.236,1.236,0,0,0,.593-1.4c0-.006,0-.013-.006-.019a1.233,1.233,0,0,0-1.211-.913l-.717.012a1.241,1.241,0,0,1-1.1-.643c-.045-.079-.09-.158-.136-.236a1.242,1.242,0,0,1-.008-1.279l.367-.611a1.233,1.233,0,0,0-.186-1.506l-.015-.015a1.234,1.234,0,0,0-1.507-.185l-.61.367a1.242,1.242,0,0,1-1.279-.008l-.235-.135a1.242,1.242,0,0,1-.643-1.1l.012-.717a1.234,1.234,0,0,0-.913-1.211l-.018-.006a1.236,1.236,0,0,0-1.4.594l-.347.626a1.228,1.228,0,0,1-1.093.634l-.153,0-.153,0a1.228,1.228,0,0,1-1.093-.634l-.348-.626a1.236,1.236,0,0,0-1.4-.594l-.018.006a1.235,1.235,0,0,0-.914,1.211l.012.717a1.24,1.24,0,0,1-.643,1.1l-.235.135a1.242,1.242,0,0,1-1.279.008l-.611-.367a1.233,1.233,0,0,0-1.506.185l-.015.015a1.234,1.234,0,0,0-.186,1.506l.367.611a1.242,1.242,0,0,1-.008,1.279l-.136.236a1.241,1.241,0,0,1-1.1.643l-.717-.012a1.233,1.233,0,0,0-1.21.913c0,.006,0,.013-.006.019a1.235,1.235,0,0,0,.594,1.4l.625.348a1.231,1.231,0,0,1,.634,1.093c0,.051,0,.1,0,.153s0,.1,0,.153a1.231,1.231,0,0,1-.634,1.093l-.625.348a1.236,1.236,0,0,0-.594,1.4c0,.006,0,.013.006.018a1.233,1.233,0,0,0,1.21.913l.717-.012a1.241,1.241,0,0,1,1.1.643l.136.235a1.242,1.242,0,0,1,.008,1.279l-.367.611a1.234,1.234,0,0,0,.186,1.506l.015.015a1.233,1.233,0,0,0,1.506.185l.611-.367a1.243,1.243,0,0,1,1.279.008l.235.135a1.24,1.24,0,0,1,.643,1.1l-.012.717a1.234,1.234,0,0,0,.914,1.211l.018.006a1.236,1.236,0,0,0,1.4-.594l.348-.625a1.228,1.228,0,0,1,1.093-.634l.153,0,.153,0a1.228,1.228,0,0,1,1.093.634l.347.625a1.236,1.236,0,0,0,1.4.594l.018-.006a1.234,1.234,0,0,0,.913-1.211l-.012-.717a1.242,1.242,0,0,1,.643-1.1l.235-.135a1.242,1.242,0,0,1,1.279-.008l.61.367a1.234,1.234,0,0,0,1.507-.185l.015-.015a1.234,1.234,0,0,0,.186-1.506l-.367-.611a1.242,1.242,0,0,1,.008-1.279c.045-.078.09-.156.136-.235a1.241,1.241,0,0,1,1.1-.643l.717.012a1.233,1.233,0,0,0,1.211-.913c0-.006,0-.013.006-.018A1.236,1.236,0,0,0,2897.154,937.292Zm-10.6,5.359a6.952,6.952,0,1,1,6.952-6.952A6.952,6.952,0,0,1,2886.55,942.651Z" transform="translate(-2875.31 -924.459)" fill="#f0ebf7"/>
      </g>
    </g>
    <g id="Grupo_87244" data-name="Grupo 87244" transform="translate(-3304.795 -5647.784)">
      <path id="Trazado_152946" data-name="Trazado 152946" d="M3035.375,660.045a12.651,12.651,0,0,1,14.008-5.2c6.086,1.443,8.587-7.468,13.627-9.428,9.24-3.593,14.6,14.289,24.8,9.292,6.745-3.3,14.876,5.335,14.876,5.335Z" transform="translate(-2889.442 -514.102)" fill="#18b6fe" opacity="0.19"/>
      <path id="Trazado_152947" data-name="Trazado 152947" d="M3057.6,436.25l.168,10.253.028,1.747-8.67-.8.568-3.637h0l1.233-7.9a26.211,26.211,0,0,1-2.092-4.239c-.9-2.36-1.8-5.117-2.3-6.632s1.01-1.012,2.022.9,2.248,3.246,2.925,2.692,1.348-5.9,1.63-8.312.168-5.508,1.236-5.676.957,6.576,1.012,8.036c0,0,1.686.056,1.91,1.239,0,0,1.63-.282,2.024,1.124,0,0,1.292-.283,1.406,1.854S3059.458,435.014,3057.6,436.25Z" transform="translate(-2896.927 -358.287)" fill="#f6a49d"/>
      <path id="Trazado_152948" data-name="Trazado 152948" d="M3063.432,509.271l-8.67-.8.567-3.638h0a19.673,19.673,0,0,1,8.072,2.693Z" transform="translate(-2902.559 -419.307)" fill="#d47c74"/>
      <rect id="Rectángulo_8066" data-name="Rectángulo 8066" width="65.663" height="134.635" rx="1" transform="translate(68.55 49.661)" fill="#18b6fe"/>
      <path id="Trazado_152949" data-name="Trazado 152949" d="M2873.446,407.331v128.34a3.147,3.147,0,0,1-3.146,3.148h-59.371a3.147,3.147,0,0,1-3.146-3.148V407.331a3.147,3.147,0,0,1,3.146-3.148H2870.3A3.147,3.147,0,0,1,2873.446,407.331Z" transform="translate(-2735.458 -351.21)" fill="#e5e7e6"/>
      <path id="Trazado_152950" data-name="Trazado 152950" d="M2853.981,473.8a44.718,44.718,0,1,0-49.651,44.446l3.44,9.93a1.58,1.58,0,0,0,2.986,0l3.44-9.93A44.722,44.722,0,0,0,2853.981,473.8Z" transform="translate(-2706.204 -368.056)" fill="#87d9ff"/>
      <path id="Trazado_152951" data-name="Trazado 152951" d="M2865.653,476.392A44.718,44.718,0,1,0,2816,520.838l3.44,9.93a1.58,1.58,0,0,0,2.986,0l3.44-9.93A44.722,44.722,0,0,0,2865.653,476.392Z" transform="translate(-2714.1 -369.81)" fill="#fff"/>
      <path id="Trazado_152952" data-name="Trazado 152952" d="M2865.653,476.392A44.718,44.718,0,1,0,2816,520.838l3.44,9.93a1.58,1.58,0,0,0,2.986,0l3.44-9.93A44.722,44.722,0,0,0,2865.653,476.392Z" transform="translate(-2714.1 -369.81)" fill="#f0ebf7" opacity="0.52"/>
      <path id="Trazado_152953" data-name="Trazado 152953" d="M2840.128,452.252s4.38-.745,5.033-6.99-4.287-8.574-7.083-10.9-5.405-2.983-8.854-1.957a6.543,6.543,0,0,0-8.388-4.849c-5.919,1.419-4.846,10.068-.932,9.788,0,0-6.618,2.8-7.363,12.582s-2.239,12.487-12.51,13.325c-8.426.688-12.282,12.023-6.99,17.149,4.586,4.442-.725,16.126,14.094,19.2s22.275-24.046,22.275-24.046Z" transform="translate(-2723.845 -366.837)" fill="#3a3e49"/>
      <path id="Trazado_152954" data-name="Trazado 152954" d="M2834.808,504.831a9.636,9.636,0,0,0-2.973,8.464c.631,5.592-3.935,8.388-9.714,9.972s-11,5.406-8.574,11.744-.373,12.489,7.27,15.751,29.824-9.746,29.917-11.164-4.56-28.446-4.237-28.726-4.99-4.643-4.99-4.643Z" transform="translate(-2738.945 -419.307)" fill="#24292f"/>
      <path id="Trazado_152955" data-name="Trazado 152955" d="M2873.446,782.05v9.28a3.147,3.147,0,0,1-3.146,3.148h-59.371a3.147,3.147,0,0,1-3.146-3.148v-9.28Z" transform="translate(-2735.458 -606.869)" fill="#87d9ff"/>
      <path id="Trazado_152980" data-name="Trazado 152980" d="M2584.154,447.852a10.2,10.2,0,0,1,11.287-4.189c4.9,1.163,6.919-6.018,10.981-7.6,7.446-2.9,11.767,11.514,19.986,7.487,5.435-2.662,11.987,4.3,11.987,4.3Z" transform="translate(-2584.154 -372.52)" fill="#18b6fe" opacity="0.19"/>
      <g id="Grupo_87006" data-name="Grupo 87006" transform="translate(187.162 64.819)">
        <path id="Trazado_152981" data-name="Trazado 152981" d="M3188.776,440.811h-24.557a1.362,1.362,0,0,0-1.363,1.362v9.564a1.362,1.362,0,0,0,1.363,1.362h11.939a1.364,1.364,0,0,1,.685.185l8.789,5.113a.5.5,0,0,0,.694-.662l-1.377-2.643a1.362,1.362,0,0,1,1.208-1.992h2.619a1.362,1.362,0,0,0,1.362-1.362v-9.564A1.362,1.362,0,0,0,3188.776,440.811Z" transform="translate(-3162.856 -440.811)" fill="#7ff9ff"/>
        <rect id="Rectángulo_8068" data-name="Rectángulo 8068" width="16.727" height="1.212" transform="translate(4.464 3.215)" fill="#fff"/>
        <rect id="Rectángulo_8069" data-name="Rectángulo 8069" width="16.727" height="1.212" transform="translate(4.464 6.897)" fill="#fff"/>
      </g>
      <path id="Trazado_152983" data-name="Trazado 152983" d="M2884.77,501.625l-.778-.841s-3.834-2.375-5.513,1.82,5.033,6.99,6.291,5.8S2884.77,501.625,2884.77,501.625Z" transform="translate(-2783.108 -416.116)" fill="#f6a49d"/>
      <path id="Trazado_152984" data-name="Trazado 152984" d="M2917.018,537.395a9.265,9.265,0,0,1-4.733,3.668c-6.967,2.872-18.547,2.463-22.3,3.244a4.826,4.826,0,0,0-3.073,1.815h0c-1.51,2.047-1.2,5.385-1.1,8.721a18.5,18.5,0,0,1-2.153,9.4,7.42,7.42,0,0,1-3.459,3.255c-4.054,1.678-14.539,2.656-23.207,0-3.844-1.177-7.435-6.741-10-12.94-3.221-7.784-4.821-16.575-3.263-18.963,2.043-3.134,7.848-4.8,10.823-5.466,1.1-.246,1.806-.358,1.806-.358l3.028,1.166,12.018-1.445s2.648.061,5.824.126c3.288.064,7.147.131,9.21.131,4.054,0,18.6.212,20.134-.537s5.248-18.515,5.248-18.515c2.517-.559,8.388,1.118,8.388,1.118S2920.933,530.5,2917.018,537.395Z" transform="translate(-2759.375 -423.198)" fill="#856de9"/>
      <path id="Trazado_152985" data-name="Trazado 152985" d="M2901.135,569.174c-.062,3.442.059,12.6-7.236,14.124-7.446,1.557-13.779-9.642-15.44-13.612,1.1-.246,1.806-.358,1.806-.358l3.028,1.166,12.018-1.445S2897.959,569.109,2901.135,569.174Z" transform="translate(-2783.276 -462.756)" fill="#fff"/>
      <path id="Trazado_152986" data-name="Trazado 152986" d="M2891.747,638.591a7.416,7.416,0,0,1-3.459,3.255c-4.054,1.678-14.539,2.656-23.207,0-3.844-1.177-7.435-6.741-10-12.94,1.985-4.241,3.987-8.435,3.987-8.435s2.1,16.133,12.722,18.926A35.694,35.694,0,0,0,2891.747,638.591Z" transform="translate(-2767.46 -497.546)" fill="#5c43c7"/>
      <circle id="Elipse_8393" data-name="Elipse 8393" cx="4.82" cy="4.82" r="4.82" transform="translate(99.358 184.996) rotate(-76.718)" fill="#f4faf8"/>
      <circle id="Elipse_8394" data-name="Elipse 8394" cx="3.596" cy="3.596" r="3.596" transform="matrix(0.23, -0.973, 0.973, 0.23, 100.831, 184.086)" fill="#7dd0e2"/>
      <path id="Trazado_152987" data-name="Trazado 152987" d="M2839.139,582.34c-2.931.386-7.71,2.294-7.549,22.447a12.652,12.652,0,0,0,11.184,8.8s1.677-20.411,1.677-24.745S2841.026,582.092,2839.139,582.34Z" transform="translate(-2751.562 -471.737)" fill="#856de9"/>
      <path id="Trazado_153231" data-name="Trazado 153231" d="M2897.932,568.184l5.406.372s-.187,12.417-6.652,12.4c-8.479-.026-12.641-12.209-12.641-12.209l3.03-.513Z" transform="translate(-2787.055 -462.171)" fill="#f6a49d"/>
      <path id="Trazado_153232" data-name="Trazado 153232" d="M2906.272,525.779v8.668a5.643,5.643,0,0,1-6.082,3.425,9.276,9.276,0,0,1-6.78-4.054l1.05-16.5Z" transform="translate(-2793.391 -427.758)" fill="#f6a49d"/>
      <path id="Trazado_153233" data-name="Trazado 153233" d="M2910.878,537.393c-6.277-.324-10.658-9.4-10.658-9.4l3.47-.436,7.19,4.917Z" transform="translate(-2797.999 -434.685)" fill="#d47c74"/>
      <path id="Trazado_153234" data-name="Trazado 153234" d="M2913.244,476.4s-.255,7.962-1.419,12.44c-1.139,4.383-3.005,7.759-7.969,5.942-5.687-2.083-8.018-7.757-8.018-7.757l-.7-7.27s11.674-5.312,12.792-10.415C2907.932,469.34,2909.889,474.373,2913.244,476.4Z" transform="translate(-2794.562 -395.295)" fill="#f6a49d"/>
      <path id="Trazado_153235" data-name="Trazado 153235" d="M2889.318,510.532s-1.3-4.054-2.656-3.542S2886.383,509.507,2889.318,510.532Z" transform="translate(-2788.435 -420.738)" fill="#d47c74"/>
      <path id="Trazado_153236" data-name="Trazado 153236" d="M3003.874,604.822v0c-6.968,2.872-18.546,2.463-22.3,3.244a4.822,4.822,0,0,0-3.073,1.815h0s.746-4.829,7.921-4.393A129.69,129.69,0,0,0,3003.874,604.822Z" transform="translate(-2850.964 -486.959)" fill="#5c43c7"/>
      <g id="Grupo_87216" data-name="Grupo 87216" transform="translate(105.404 82.275)">
        <g id="Grupo_87214" data-name="Grupo 87214" transform="translate(8.111 0)">
          <path id="Trazado_153237" data-name="Trazado 153237" d="M2942.565,499.366a3.178,3.178,0,1,0-.635,1.607A3.138,3.138,0,0,0,2942.565,499.366Z" transform="translate(-2935.879 -495.522)" fill="#fff" opacity="0.3"/>
          <path id="Trazado_153238" data-name="Trazado 153238" d="M2943.69,499.366a3.175,3.175,0,0,0-5.794-2.086c1.619,1.132,3.668,2.614,5.16,3.693A3.141,3.141,0,0,0,2943.69,499.366Z" transform="translate(-2937.005 -495.522)" fill="#fff" opacity="0.47"/>
          <path id="Trazado_153239" data-name="Trazado 153239" d="M2942.177,498.663a3.527,3.527,0,1,0-3.86,3.158A3.529,3.529,0,0,0,2942.177,498.663Zm-.43-.043a3.095,3.095,0,1,1-2.771-3.387A3.1,3.1,0,0,1,2941.748,498.619Z" transform="translate(-2935.141 -494.784)" fill="#24292f"/>
        </g>
        <g id="Grupo_87215" data-name="Grupo 87215" transform="translate(0 0.241)">
          <path id="Trazado_153240" data-name="Trazado 153240" d="M2917.485,500.111a3.178,3.178,0,1,0-.635,1.607A3.132,3.132,0,0,0,2917.485,500.111Z" transform="translate(-2910.8 -496.268)" fill="#fff" opacity="0.3"/>
          <path id="Trazado_153241" data-name="Trazado 153241" d="M2918.611,500.111a3.175,3.175,0,0,0-5.794-2.086c1.619,1.132,3.668,2.614,5.16,3.693A3.132,3.132,0,0,0,2918.611,500.111Z" transform="translate(-2911.926 -496.268)" fill="#fff" opacity="0.47"/>
          <path id="Trazado_153242" data-name="Trazado 153242" d="M2917.1,499.408a3.527,3.527,0,1,0-3.861,3.158A3.53,3.53,0,0,0,2917.1,499.408Zm-.43-.043a3.095,3.095,0,1,1-2.771-3.387A3.1,3.1,0,0,1,2916.669,499.365Z" transform="translate(-2910.062 -495.529)" fill="#24292f"/>
        </g>
      </g>
      <g id="Grupo_87217" data-name="Grupo 87217" transform="translate(31.304 42.233)">
        <path id="Trazado_153243" data-name="Trazado 153243" d="M2813.934,412.989v7.261a1.124,1.124,0,0,1-1.907.807l-8.315-8.068Z" transform="translate(-2764.006 -399.401)" fill="#7dd0e2"/>
        <rect id="Rectángulo_8070" data-name="Rectángulo 8070" width="57.499" height="17.286" rx="1" transform="translate(0 0)" fill="#7dd0e2"/>
        <rect id="Rectángulo_8071" data-name="Rectángulo 8071" width="57.499" height="14.556" rx="2" transform="translate(2.454 0.78)" fill="#fff"/>
        <circle id="Elipse_8395" data-name="Elipse 8395" cx="5.614" cy="5.614" r="5.614" transform="translate(6.618 2.36)" fill="#c2e7f0"/>
        <rect id="Rectángulo_8072" data-name="Rectángulo 8072" width="30.384" height="1.476" rx="0.738" transform="translate(23.33 3.713)" fill="#c2e7f0"/>
        <path id="Trazado_153244" data-name="Trazado 153244" d="M2782.724,393.35h-28.908a.738.738,0,0,0-.738.738h0a.738.738,0,0,0,.738.738h28.908a.738.738,0,0,0,.738-.738h0A.738.738,0,0,0,2782.724,393.35Z" transform="translate(-2729.748 -386.114)" fill="#c2e7f0"/>
        <rect id="Rectángulo_8073" data-name="Rectángulo 8073" width="13.16" height="1.476" rx="0.738" transform="translate(23.33 10.809)" fill="#c2e7f0"/>
        <path id="Trazado_153245" data-name="Trazado 153245" d="M2821.523,412.989v7.261a1.124,1.124,0,0,1-1.906.807l-8.315-8.068Z" transform="translate(-2769.141 -399.401)" fill="#fff"/>
      </g>
      <g id="Grupo_87218" data-name="Grupo 87218" transform="translate(109.507 92.568)">
        <path id="Trazado_153246" data-name="Trazado 153246" d="M2926.318,526.758a9.436,9.436,0,0,0-3.188.1.5.5,0,0,0-.278.8,4.15,4.15,0,0,0,7.113-.119.5.5,0,0,0-.3-.786,9.445,9.445,0,0,0-3.19.01A.481.481,0,0,1,2926.318,526.758Z" transform="translate(-2922.747 -526.611)" fill="#db6592"/>
        <path id="Trazado_153247" data-name="Trazado 153247" d="M2923.918,528.3a20.071,20.071,0,0,0,6.158-.065.229.229,0,0,1,.186.406,5.184,5.184,0,0,1-6.506.073A.23.23,0,0,1,2923.918,528.3Z" transform="translate(-2923.364 -527.704)" fill="#fff"/>
      </g>
      <g id="Grupo_87219" data-name="Grupo 87219" transform="translate(124.845 168.564)">
        <rect id="Rectángulo_8074" data-name="Rectángulo 8074" width="49.831" height="15.51" rx="1" transform="translate(0)" fill="#d07efc"/>
        <circle id="Elipse_8396" data-name="Elipse 8396" cx="3.915" cy="3.915" r="3.915" transform="translate(3.319 10.666) rotate(-76.717)" fill="#fff"/>
        <rect id="Rectángulo_8075" data-name="Rectángulo 8075" width="29.782" height="0.959" transform="translate(15.68 7.275)" fill="#fff"/>
        <rect id="Rectángulo_8076" data-name="Rectángulo 8076" width="15.719" height="0.959" transform="translate(15.68 10.326)" fill="#fff"/>
        <rect id="Rectángulo_8077" data-name="Rectángulo 8077" width="29.782" height="0.959" transform="translate(15.68 4.328)" fill="#fff"/>
      </g>
      <g id="Grupo_87220" data-name="Grupo 87220" transform="translate(116.816 180.091)">
        <rect id="Rectángulo_8078" data-name="Rectángulo 8078" width="49.831" height="15.51" rx="1" transform="translate(0 0)" fill="#ffc945"/>
        <circle id="Elipse_8397" data-name="Elipse 8397" cx="3.915" cy="3.915" r="3.915" transform="translate(3.319 10.666) rotate(-76.717)" fill="#fff"/>
        <rect id="Rectángulo_8079" data-name="Rectángulo 8079" width="29.782" height="0.959" transform="translate(15.68 7.275)" fill="#fff"/>
        <rect id="Rectángulo_8080" data-name="Rectángulo 8080" width="15.719" height="0.959" transform="translate(15.68 10.326)" fill="#fff"/>
        <rect id="Rectángulo_8081" data-name="Rectángulo 8081" width="29.782" height="0.959" transform="translate(15.68 4.328)" fill="#fff"/>
      </g>
      <path id="Trazado_153248" data-name="Trazado 153248" d="M2906.018,530.029c-10.283,0-12.878-4.39-12.984-4.577l.244-.138c.025.044,2.639,4.435,12.74,4.435Z" transform="translate(-2793.136 -433.166)" fill="#574780"/>
      <path id="Trazado_153249" data-name="Trazado 153249" d="M2932.1,538.725h-.913a.673.673,0,0,1-.673-.673h0a.673.673,0,0,1,.673-.674h.913a.673.673,0,0,1,.674.674h0A.673.673,0,0,1,2932.1,538.725Z" transform="translate(-2818.496 -441.328)" fill="#24292f"/>
      <path id="Trazado_153250" data-name="Trazado 153250" d="M2889.885,500.8c0,2.719-1.294,4.924-2.89,4.924-.432,0-1.4,0-2.3-.022-1.261-.03-.593-2.919-.593-4.9,0-2.188-.46-4.924.865-4.924H2887C2888.592,495.875,2889.885,498.079,2889.885,500.8Z" transform="translate(-2786.976 -413.248)" fill="#574780"/>
      <path id="Trazado_153251" data-name="Trazado 153251" d="M2909.135,453.3a14.094,14.094,0,0,0-12.325-.81,9.821,9.821,0,0,0-6.336,9.173v3.858h-1.118v-3.858a10.945,10.945,0,0,1,7.063-10.221,14.654,14.654,0,0,1,9.882-.539A7.983,7.983,0,0,1,2909.135,453.3Z" transform="translate(-2790.647 -382.394)" fill="#574780"/>
      <ellipse id="Elipse_8398" data-name="Elipse 8398" cx="2.89" cy="4.924" rx="2.89" ry="4.924" transform="translate(95.103 82.627)" fill="#745faa"/>
      <g id="Grupo_87225" data-name="Grupo 87225" transform="translate(149.255)">
        <g id="Grupo_87221" data-name="Grupo 87221" transform="translate(8.443 8.289)">
          <circle id="Elipse_8399" data-name="Elipse 8399" cx="5.7" cy="5.7" r="5.7" transform="translate(9.988 36.384)" fill="#8f94a3"/>
          <path id="Trazado_153252" data-name="Trazado 153252" d="M3103.13,281.71a15.656,15.656,0,0,1-6.88,12.978,7.189,7.189,0,0,0-3.086,5.961v5.607h-11.442v-5.7a7.229,7.229,0,0,0-3.185-5.931,15.686,15.686,0,1,1,24.594-12.911Z" transform="translate(-3071.755 -266.023)" fill="#ffc945"/>
          <rect id="Rectángulo_8082" data-name="Rectángulo 8082" width="14.487" height="4.522" rx="2.261" transform="translate(8.444 37.88)" fill="#a7adbf"/>
          <path id="Trazado_153253" data-name="Trazado 153253" d="M3104.91,321.835a38.442,38.442,0,0,1,.01-18.1,5.634,5.634,0,0,1-4.023-.369,140.038,140.038,0,0,1,1.981,18.4l-.558.023a134.01,134.01,0,0,0-2.062-18.768c-2.909-1.782-4.773-5.7-4.17-7.008.106-.231.453-.731,1.38-.381,1.423.536,2.489,3.389,3.28,7.028l.081.045a5.1,5.1,0,0,0,4.258.412c.157-.56.321-1.083.486-1.571,1.669-4.9,4.176-8.041,5.8-8.886.785-.408,1.181-.163,1.348.019.667.731-.088,2.921-2.072,6.009-1.768,2.752-3.5,4.175-5.062,4.816a38.064,38.064,0,0,0-.129,18.21Zm7.224-28.84a1.193,1.193,0,0,0-.505.16c-1.679.874-4.277,4.3-5.853,9.668a11.891,11.891,0,0,0,4.4-4.438c2.285-3.557,2.392-5.041,2.13-5.33A.226.226,0,0,0,3112.134,292.995Zm-15.244,3.072a.281.281,0,0,0-.294.177c-.389.848.951,4.168,3.493,5.992-.731-3.24-1.66-5.647-2.817-6.083A1.121,1.121,0,0,0,3096.89,296.067Z" transform="translate(-3088.142 -283.894)" fill="#fff"/>
          <path id="Trazado_153254" data-name="Trazado 153254" d="M3097.969,274.738a16.16,16.16,0,0,1-24.686,13.727,15.687,15.687,0,0,1,23.741-19.175A16.046,16.046,0,0,1,3097.969,274.738Z" transform="translate(-3071.755 -266.023)" fill="#fff" opacity="0.32"/>
        </g>
        <path id="Trazado_153255" data-name="Trazado 153255" d="M3118.965,245.893h0a.619.619,0,0,1-.619-.619v-4.263a.619.619,0,0,1,.619-.619h0a.619.619,0,0,1,.619.619v4.263A.619.619,0,0,1,3118.965,245.893Z" transform="translate(-3094.835 -240.392)" fill="#fbd163"/>
        <path id="Trazado_153256" data-name="Trazado 153256" d="M3148.414,254.979h0a.619.619,0,0,1-.227-.846l2.132-3.692a.619.619,0,0,1,.845-.227h0a.619.619,0,0,1,.227.846l-2.132,3.692A.619.619,0,0,1,3148.414,254.979Z" transform="translate(-3114.968 -246.982)" fill="#fbd163"/>
        <path id="Trazado_153257" data-name="Trazado 153257" d="M3085.057,254.979h0a.619.619,0,0,0,.226-.846l-2.131-3.692a.62.62,0,0,0-.846-.227h0a.619.619,0,0,0-.227.846l2.132,3.692A.619.619,0,0,0,3085.057,254.979Z" transform="translate(-3070.241 -246.982)" fill="#fbd163"/>
        <g id="Grupo_87222" data-name="Grupo 87222" transform="translate(0 23.471)">
          <path id="Trazado_153258" data-name="Trazado 153258" d="M3177.861,313.808h0a.62.62,0,0,1,.621-.618l4.263.007a.62.62,0,0,1,.618.62h0a.619.619,0,0,1-.62.618l-4.263-.007A.619.619,0,0,1,3177.861,313.808Z" transform="translate(-3135.101 -313.117)" fill="#fbd163"/>
          <path id="Trazado_153259" data-name="Trazado 153259" d="M3045.649,313.583h0a.619.619,0,0,1,.62-.618l4.263.007a.62.62,0,0,1,.618.62h0a.619.619,0,0,1-.62.618l-4.263-.007A.619.619,0,0,1,3045.649,313.583Z" transform="translate(-3045.649 -312.965)" fill="#fbd163"/>
        </g>
        <g id="Grupo_87223" data-name="Grupo 87223" transform="translate(3.17 11.721)">
          <path id="Trazado_153260" data-name="Trazado 153260" d="M3169.92,343.243h0a.619.619,0,0,1,.846-.225l3.688,2.138a.62.62,0,0,1,.225.846h0a.619.619,0,0,1-.846.225l-3.688-2.138A.619.619,0,0,1,3169.92,343.243Z" transform="translate(-3132.842 -321.491)" fill="#fbd163"/>
          <path id="Trazado_153261" data-name="Trazado 153261" d="M3055.534,276.94h0a.619.619,0,0,1,.846-.225l3.688,2.138a.619.619,0,0,1,.225.846h0a.62.62,0,0,1-.846.225l-3.688-2.138A.62.62,0,0,1,3055.534,276.94Z" transform="translate(-3055.451 -276.632)" fill="#fbd163"/>
        </g>
        <g id="Grupo_87224" data-name="Grupo 87224" transform="translate(3.13 11.79)">
          <path id="Trazado_153262" data-name="Trazado 153262" d="M3170.02,279.9h0a.619.619,0,0,0,.845.228l3.7-2.126a.62.62,0,0,0,.228-.845h0a.619.619,0,0,0-.845-.228l-3.7,2.125A.619.619,0,0,0,3170.02,279.9Z" transform="translate(-3132.871 -276.846)" fill="#fbd163"/>
          <path id="Trazado_153263" data-name="Trazado 153263" d="M3055.409,345.812h0a.62.62,0,0,0,.846.228l3.7-2.125a.619.619,0,0,0,.228-.845h0a.619.619,0,0,0-.845-.228l-3.7,2.125A.619.619,0,0,0,3055.409,345.812Z" transform="translate(-3055.327 -321.442)" fill="#fbd163"/>
        </g>
      </g>
      <circle id="Elipse_8400" data-name="Elipse 8400" cx="10.792" cy="10.792" r="10.792" transform="translate(59.047 165.09) rotate(-45)" fill="#c2e7f0"/>
      <circle id="Elipse_8401" data-name="Elipse 8401" cx="10.792" cy="10.792" r="10.792" transform="matrix(0.23, -0.973, 0.973, 0.23, 63.215, 175.345)" fill="#fff"/>
      <g id="Grupo_87227" data-name="Grupo 87227" transform="translate(69.256 160.869)">
        <path id="Trazado_153264" data-name="Trazado 153264" d="M2809.328,753.444a.623.623,0,0,1-.013.881h0c-1.781,1.73-4.043,1.124-5.773-.657l-3.661-3.768c-1.73-1.78-2.272-4.06-.492-5.79h0a.623.623,0,0,1,.881.013l1.987,2.045a.344.344,0,0,1-.007.486l-.652.633a.9.9,0,0,0-.018,1.273l3.34,3.437a.9.9,0,0,0,1.273.019l.661-.629a.343.343,0,0,1,.483.009Z" transform="translate(-2798.291 -741.95)" fill="#856de9"/>
        <g id="Grupo_87226" data-name="Grupo 87226" transform="translate(6.272)">
          <path id="Trazado_153265" data-name="Trazado 153265" d="M2820.562,751.9h-.006a.156.156,0,0,1-.15-.162,2.683,2.683,0,0,0-2.573-2.782.156.156,0,0,1,.012-.312,3,3,0,0,1,2.873,3.107A.157.157,0,0,1,2820.562,751.9Z" transform="translate(-2817.683 -745.134)" fill="#856de9"/>
          <path id="Trazado_153266" data-name="Trazado 153266" d="M2822.622,747.99h-.007a.157.157,0,0,1-.15-.162,4.59,4.59,0,0,0-4.4-4.76.156.156,0,0,1-.15-.162.155.155,0,0,1,.163-.15,4.9,4.9,0,0,1,4.7,5.085A.156.156,0,0,1,2822.622,747.99Z" transform="translate(-2817.839 -741.152)" fill="#856de9"/>
          <path id="Trazado_153267" data-name="Trazado 153267" d="M2824.356,744.7h-.006a.157.157,0,0,1-.15-.162,6.188,6.188,0,0,0-5.941-6.426.156.156,0,1,1,.012-.312,6.5,6.5,0,0,1,6.241,6.751A.156.156,0,0,1,2824.356,744.7Z" transform="translate(-2817.97 -737.799)" fill="#856de9"/>
        </g>
      </g>
    </g>
  </g>
</svg>
