<svg xmlns="http://www.w3.org/2000/svg" width="252.904" height="148.357" viewBox="0 0 252.904 148.357">
  <g id="Grupo_86912" data-name="Grupo 86912" transform="translate(-2358.053 -1344.782)">
    <path id="Trazado_152625" data-name="Trazado 152625" d="M2694.389,1497.956v104.7a5.128,5.128,0,0,1-5.009,5.236H2506.466a5.126,5.126,0,0,1-5.01-5.236v-104.7a5.126,5.126,0,0,1,5.01-5.236H2689.38A5.128,5.128,0,0,1,2694.389,1497.956Z" transform="translate(-122.913 -114.748)" fill="#c2e7f0"/>
    <path id="Trazado_152626" data-name="Trazado 152626" d="M2706.378,1506.815v100.168a5.011,5.011,0,0,1-5.009,5.009H2518.454a5.009,5.009,0,0,1-5.009-5.009V1506.815a5.009,5.009,0,0,1,5.009-5.009h182.915A5.011,5.011,0,0,1,2706.378,1506.815Z" transform="translate(-131.517 -121.269)" fill="#f4faf8"/>
    <g id="Grupo_86886" data-name="Grupo 86886" transform="translate(2390.058 1452.795)">
      <path id="Trazado_152627" data-name="Trazado 152627" d="M2542.837,1759.794h-.607v-2.123h2.123v.607h-1.517Z" transform="translate(-2542.231 -1757.67)" fill="#cbc0e0"/>
      <path id="Trazado_152628" data-name="Trazado 152628" d="M2601.292,1758.277h-3.545v-.607h3.545Zm-7.089,0h-3.545v-.607h3.545Zm-7.089,0h-3.545v-.607h3.545Zm-7.089,0h-3.544v-.607h3.544Zm-7.089,0h-3.544v-.607h3.544Zm-7.089,0H2562.3v-.607h3.544Z" transform="translate(-2556.633 -1757.67)" fill="#cbc0e0"/>
      <path id="Trazado_152629" data-name="Trazado 152629" d="M2715.042,1759.794h-.607v-1.517h-1.516v-.607h2.123Z" transform="translate(-2664.716 -1757.67)" fill="#cbc0e0"/>
      <path id="Trazado_152630" data-name="Trazado 152630" d="M2718.9,1797.127h-.607v-3.74h.607Zm0-7.479h-.607v-3.74h.607Zm0-7.479h-.607v-3.739h.607Z" transform="translate(-2668.569 -1772.568)" fill="#cbc0e0"/>
      <path id="Trazado_152631" data-name="Trazado 152631" d="M2715.042,1860h-2.123v-.607h1.516v-1.517h.607Z" transform="translate(-2664.716 -1829.579)" fill="#cbc0e0"/>
      <path id="Trazado_152632" data-name="Trazado 152632" d="M2601.293,1863.855h-3.545v-.607h3.545Zm-7.089,0h-3.544v-.607h3.544Zm-7.09,0h-3.544v-.607h3.544Zm-7.089,0h-3.544v-.607h3.544Zm-7.089,0h-3.544v-.607h3.544Zm-7.089,0H2562.3v-.607h3.544Z" transform="translate(-2556.634 -1833.432)" fill="#cbc0e0"/>
      <path id="Trazado_152633" data-name="Trazado 152633" d="M2544.354,1860h-2.123v-2.123h.607v1.517h1.517Z" transform="translate(-2542.231 -1829.579)" fill="#cbc0e0"/>
      <path id="Trazado_152634" data-name="Trazado 152634" d="M2542.837,1797.127h-.607v-3.74h.607Zm0-7.479h-.607v-3.74h.607Zm0-7.479h-.607v-3.739h.607Z" transform="translate(-2542.231 -1772.568)" fill="#cbc0e0"/>
    </g>
    <g id="Grupo_86893" data-name="Grupo 86893" transform="translate(2389.48 1396.796)">
      <rect id="Rectángulo_7952" data-name="Rectángulo 7952" width="72.165" height="44.44" transform="translate(0 0)" fill="#e5e7e6"/>
      <rect id="Rectángulo_7953" data-name="Rectángulo 7953" width="72.165" height="4.746" transform="translate(0 0)" fill="#a7adbf"/>
      <path id="Trazado_152635" data-name="Trazado 152635" d="M2552.252,1565.93a.728.728,0,1,1-.728-.728A.728.728,0,0,1,2552.252,1565.93Z" transform="translate(-2547.8 -1563.557)" fill="#fff"/>
      <path id="Trazado_152636" data-name="Trazado 152636" d="M2564.57,1565.93a.728.728,0,1,1-.728-.728A.728.728,0,0,1,2564.57,1565.93Z" transform="translate(-2556.639 -1563.557)" fill="#fff"/>
      <path id="Trazado_152637" data-name="Trazado 152637" d="M2577.642,1565.93a.728.728,0,1,1-.728-.728A.728.728,0,0,1,2577.642,1565.93Z" transform="translate(-2566.019 -1563.557)" fill="#fff"/>
      <g id="Grupo_86892" data-name="Grupo 86892" transform="translate(5.886 10.988)">
        <g id="Grupo_86887" data-name="Grupo 86887" transform="translate(0 25.888)">
          <rect id="Rectángulo_7954" data-name="Rectángulo 7954" width="33.813" height="1.089" fill="#fff"/>
        </g>
        <g id="Grupo_86888" data-name="Grupo 86888" transform="translate(0 19.416)">
          <rect id="Rectángulo_7955" data-name="Rectángulo 7955" width="33.813" height="1.089" fill="#fff"/>
        </g>
        <g id="Grupo_86889" data-name="Grupo 86889" transform="translate(0 12.944)">
          <rect id="Rectángulo_7956" data-name="Rectángulo 7956" width="33.813" height="1.089" fill="#fff"/>
        </g>
        <g id="Grupo_86890" data-name="Grupo 86890" transform="translate(0 6.472)">
          <rect id="Rectángulo_7957" data-name="Rectángulo 7957" width="33.813" height="1.089" fill="#fff"/>
        </g>
        <g id="Grupo_86891" data-name="Grupo 86891">
          <rect id="Rectángulo_7958" data-name="Rectángulo 7958" width="33.813" height="1.089" fill="#fff"/>
        </g>
      </g>
      <rect id="Rectángulo_7959" data-name="Rectángulo 7959" width="20.225" height="26.977" transform="translate(45.954 10.988)" fill="#fff"/>
    </g>
    <rect id="Rectángulo_7960" data-name="Rectángulo 7960" width="37.92" height="22.193" transform="translate(2447.46 1461.025)" fill="#cbc0e0"/>
    <rect id="Rectángulo_7961" data-name="Rectángulo 7961" width="17.947" height="33.674" transform="translate(2449.583 1481.095) rotate(-90)" fill="#fff"/>
    <path id="Trazado_152638" data-name="Trazado 152638" d="M2764.143,1821.1l8.6-14.9,8.6,14.9Z" transform="translate(-311.416 -339.704)" fill="#cbc0e0"/>
    <path id="Trazado_152639" data-name="Trazado 152639" d="M2814.76,1831.468l6.278-10.874,6.278,10.874Z" transform="translate(-347.739 -350.029)" fill="#cbc0e0"/>
    <path id="Trazado_152640" data-name="Trazado 152640" d="M2816.347,1804.61a1.66,1.66,0,1,1-1.66-1.66A1.66,1.66,0,0,1,2816.347,1804.61Z" transform="translate(-346.494 -337.368)" fill="#cbc0e0"/>
    <path id="Trazado_152641" data-name="Trazado 152641" d="M2991.541,1646.276H2987.6v-.607h3.337v-2.333h.607Zm-7.583,0h-3.64v-.607h3.64Zm-7.28,0h-3.64v-.607h3.64Zm-7.28,0h-3.64v-.607h3.64Zm-7.28,0h-3.64v-.607h3.64Zm-7.28,0h-3.64v-.607h3.64Zm-7.28,0h-3.64v-.607h3.64Zm-7.28,0h-3.64v-.607h3.64Zm-7.28,0h-3.64v-.607H2933Zm-7.279,0h-3.343v-.9h.607v.3h2.736Zm-2.736-4.544h-.607v-3.64h.607Zm68.557-2.035h-.607v-3.64h.607Zm-68.557-5.245h-.607v-3.639h.607Zm68.557-2.035h-.607v-3.64h.607Zm-68.557-5.244h-.607v-3.64h.607Zm68.557-2.035h-.607v-3.64h.607Zm-68.557-5.245h-.607v-3.64h.607Zm68.557-2.035h-.607v-3.64h.607Zm-68.557-5.245h-.607v-3.64h.607Zm68.557-2.035h-.607v-3.64h.607Zm-68.557-5.244h-.607v-3.64h.607Zm68.557-2.035h-.607v-3.64h.607Zm-68.557-5.245h-.607v-3.64h.607Zm68.557-2.035h-.607v-3.64h.607Zm-68.557-5.245h-.607v-3.64h.607Zm68.557-2.035h-.607v-3.64h.607Zm-68.557-5.244h-.607v-3.64h.607Zm68.557-2.035h-.607v-3.64h.607Zm-68.557-5.245h-.607v-3.64h.607Zm68.557-2.035h-.607v-3.64h.607Zm-68.557-5.244h-.607v-3.64h.607Zm68.557-2.035h-.607v-3.64h.607Zm-68.557-5.244h-.607v-1.622H2925v.607h-2.018Zm67.536-1.015h-3.64v-.607h3.64Zm-7.28,0h-3.64v-.607h3.64Zm-7.28,0h-3.64v-.607h3.64Zm-7.28,0h-3.639v-.607h3.639Zm-7.279,0h-3.64v-.607h3.64Zm-7.28,0h-3.64v-.607h3.64Zm-7.28,0h-3.64v-.607h3.64Zm-7.28,0h-3.64v-.607h3.64Zm-7.28,0h-3.64v-.607h3.64Z" transform="translate(-424.964 -163.052)" fill="#cbc0e0"/>
    <path id="Trazado_152646" data-name="Trazado 152646" d="M2611.967,1345.089s1.507-.45,3.564-3.538,5.459,1.112,8.091-3.935,4.381-6.61,8.94-2.289,7.456,5.929,11.012,3.295,5.6,1.291,8.765,3.879,6.208,1.06,7.379,2.588Z" transform="translate(-253.914 22.965)" fill="#f0ebf7" opacity="0.52"/>
    <path id="Trazado_152647" data-name="Trazado 152647" d="M2974.25,1400.015s2.453-.733,5.8-5.759,8.888,1.811,13.172-6.406,7.132-10.761,14.554-3.726,12.138,9.652,17.928,5.364,9.115,2.1,14.27,6.315,10.108,1.725,12.013,4.213Z" transform="translate(-446.543 -35.248)" fill="#f0ebf7" opacity="0.52"/>
    <path id="Trazado_152687" data-name="Trazado 152687" d="M2706.378,1506.815v4.723H2513.445v-4.723a5.009,5.009,0,0,1,5.009-5.009h182.915A5.011,5.011,0,0,1,2706.378,1506.815Z" transform="translate(-131.517 -121.269)" fill="#18b6fe"/>
    <g id="Grupo_86901" data-name="Grupo 86901" transform="translate(2421.646 1364.767)">
      <g id="Grupo_86899" data-name="Grupo 86899" transform="translate(10.158 0)">
        <rect id="Rectángulo_7970" data-name="Rectángulo 7970" width="63.045" height="19.623" fill="#d07efc"/>
        <circle id="Elipse_8371" data-name="Elipse 8371" cx="4.953" cy="4.953" r="4.953" transform="translate(5.204 4.858)" fill="#fff"/>
        <rect id="Rectángulo_7971" data-name="Rectángulo 7971" width="37.68" height="1.214" transform="translate(19.838 9.205)" fill="#fff"/>
        <rect id="Rectángulo_7972" data-name="Rectángulo 7972" width="19.887" height="1.214" transform="translate(19.838 13.064)" fill="#fff"/>
        <rect id="Rectángulo_7973" data-name="Rectángulo 7973" width="37.68" height="1.214" transform="translate(19.838 5.476)" fill="#fff"/>
      </g>
      <g id="Grupo_86900" data-name="Grupo 86900" transform="translate(0 14.584)">
        <rect id="Rectángulo_7974" data-name="Rectángulo 7974" width="63.045" height="19.623" rx="1" fill="#856de9"/>
        <circle id="Elipse_8372" data-name="Elipse 8372" cx="4.953" cy="4.953" r="4.953" transform="translate(5.204 4.858)" fill="#fff"/>
        <rect id="Rectángulo_7975" data-name="Rectángulo 7975" width="37.68" height="1.214" transform="translate(19.838 9.205)" fill="#fff"/>
        <rect id="Rectángulo_7976" data-name="Rectángulo 7976" width="19.887" height="1.214" transform="translate(19.838 13.064)" fill="#fff"/>
        <rect id="Rectángulo_7977" data-name="Rectángulo 7977" width="37.68" height="1.214" transform="translate(19.838 5.476)" fill="#fff"/>
      </g>
    </g>
    <g id="Grupo_86902" data-name="Grupo 86902" transform="translate(2402.393 1383.989)">
      <path id="Trazado_152688" data-name="Trazado 152688" d="M2588.8,1515.471a1.445,1.445,0,1,1-1.444-1.445A1.445,1.445,0,0,1,2588.8,1515.471Z" transform="translate(-2585.909 -1514.026)" fill="#fff"/>
    </g>
    <g id="Grupo_86903" data-name="Grupo 86903" transform="translate(2395.654 1383.989)">
      <path id="Trazado_152689" data-name="Trazado 152689" d="M2564.939,1515.471a1.445,1.445,0,1,1-1.445-1.445A1.445,1.445,0,0,1,2564.939,1515.471Z" transform="translate(-2562.049 -1514.026)" fill="#fbd163"/>
    </g>
    <g id="Grupo_86904" data-name="Grupo 86904" transform="translate(2388.916 1383.989)">
      <path id="Trazado_152690" data-name="Trazado 152690" d="M2541.078,1515.471a1.445,1.445,0,1,1-1.445-1.445A1.445,1.445,0,0,1,2541.078,1515.471Z" transform="translate(-2538.188 -1514.026)" fill="#f38ab2"/>
    </g>
    <rect id="Rectángulo_7978" data-name="Rectángulo 7978" width="61.12" height="23.832" rx="6.3" transform="translate(2547.881 1386.405)" fill="#a7adbf"/>
    <rect id="Rectángulo_7979" data-name="Rectángulo 7979" width="61.12" height="23.832" rx="6.3" transform="translate(2549.837 1388.205)" fill="#e5e7e6"/>
    <g id="Grupo_86905" data-name="Grupo 86905" transform="translate(2555.905 1392.557)">
      <path id="Trazado_152691" data-name="Trazado 152691" d="M3141.323,1556.815a9.227,9.227,0,0,0,2.26,1.182l-1.04,1.994a6.441,6.441,0,0,1-1.249-.525q-.134-.067-1.879-1.24a7.511,7.511,0,0,1-3.042.6,6.679,6.679,0,0,1-5.05-1.9,8.678,8.678,0,0,1,0-10.657,6.573,6.573,0,0,1,4.969-1.9,6.506,6.506,0,0,1,4.931,1.9,7.391,7.391,0,0,1,1.821,5.326,9.2,9.2,0,0,1-.505,3.186A6.623,6.623,0,0,1,3141.323,1556.815Zm-2.27-1.593a4.215,4.215,0,0,0,.815-1.545,7.227,7.227,0,0,0,.272-2.079,5.3,5.3,0,0,0-1.068-3.619,3.86,3.86,0,0,0-5.593,0,5.285,5.285,0,0,0-1.073,3.614,5.409,5.409,0,0,0,1.073,3.667,3.462,3.462,0,0,0,2.713,1.216,3.306,3.306,0,0,0,1.154-.2,8.143,8.143,0,0,0-1.745-.877l.792-1.612A9.59,9.59,0,0,1,3139.053,1555.222Z" transform="translate(-3129.497 -1544.369)" fill="#856de9"/>
    </g>
    <g id="Grupo_86909" data-name="Grupo 86909" transform="translate(2575.771 1392.557)">
      <g id="Grupo_86906" data-name="Grupo 86906" transform="translate(0 11.526)">
        <rect id="Rectángulo_7980" data-name="Rectángulo 7980" width="13.612" height="1.508" fill="#a7adbf"/>
      </g>
      <g id="Grupo_86907" data-name="Grupo 86907" transform="translate(0 5.763)">
        <rect id="Rectángulo_7981" data-name="Rectángulo 7981" width="27.223" height="1.508" fill="#a7adbf"/>
      </g>
      <g id="Grupo_86908" data-name="Grupo 86908" transform="translate(0 0)">
        <rect id="Rectángulo_7982" data-name="Rectángulo 7982" width="27.223" height="1.508" fill="#a7adbf"/>
      </g>
    </g>
  </g>
</svg>
