<svg xmlns="http://www.w3.org/2000/svg" width="271.365" height="193.313" viewBox="0 0 271.365 193.313">
  <g id="Grupo_86551" data-name="Grupo 86551" transform="translate(-609.113 -382.813)">
    <g id="Grupo_86525" data-name="Grupo 86525" transform="translate(664.724 461.197)">
      <path id="Trazado_151806" data-name="Trazado 151806" d="M874.977,899.264l-1.032-.574a2.028,2.028,0,0,1-1.046-1.8c0-.084,0-.168,0-.252s0-.168,0-.252a2.029,2.029,0,0,1,1.046-1.8l1.032-.573a2.038,2.038,0,0,0,.979-2.305c0-.01-.006-.021-.01-.031a2.035,2.035,0,0,0-2-1.506l-1.183.019a2.047,2.047,0,0,1-1.818-1.061l-.224-.388a2.05,2.05,0,0,1-.014-2.11l.606-1.008a2.035,2.035,0,0,0-.306-2.485l-.025-.025a2.035,2.035,0,0,0-2.485-.306l-1.007.606a2.049,2.049,0,0,1-2.11-.013l-.388-.224a2.046,2.046,0,0,1-1.061-1.818l.019-1.183a2.034,2.034,0,0,0-1.506-2c-.009,0-.021-.006-.03-.01a2.038,2.038,0,0,0-2.305.979l-.574,1.032a2.028,2.028,0,0,1-1.8,1.046c-.084,0-.168,0-.252,0s-.168,0-.252,0a2.028,2.028,0,0,1-1.8-1.046l-.574-1.032a2.038,2.038,0,0,0-2.305-.979c-.01,0-.021.006-.031.01a2.034,2.034,0,0,0-1.506,2l.019,1.183a2.046,2.046,0,0,1-1.061,1.818l-.388.224a2.049,2.049,0,0,1-2.11.013l-1.007-.606a2.036,2.036,0,0,0-2.485.306l-.025.025a2.035,2.035,0,0,0-.306,2.485l.606,1.008a2.05,2.05,0,0,1-.014,2.11c-.074.128-.149.258-.223.388a2.047,2.047,0,0,1-1.818,1.061l-1.183-.019a2.035,2.035,0,0,0-2,1.506c0,.01-.006.021-.01.031a2.039,2.039,0,0,0,.979,2.305l1.032.573a2.027,2.027,0,0,1,1.045,1.8c0,.084,0,.168,0,.252s0,.168,0,.252a2.027,2.027,0,0,1-1.045,1.8l-1.032.574a2.038,2.038,0,0,0-.979,2.305c0,.01.006.021.01.031a2.034,2.034,0,0,0,2,1.506l1.183-.019a2.047,2.047,0,0,1,1.818,1.061l.223.388a2.05,2.05,0,0,1,.014,2.11l-.606,1.007a2.035,2.035,0,0,0,.306,2.485l.025.025a2.036,2.036,0,0,0,2.485.306l1.007-.606a2.049,2.049,0,0,1,2.11.013l.388.224a2.046,2.046,0,0,1,1.061,1.818l-.019,1.183a2.035,2.035,0,0,0,1.506,2c.01,0,.021.005.031.01a2.038,2.038,0,0,0,2.305-.979l.574-1.032a2.028,2.028,0,0,1,1.8-1.046c.084,0,.168,0,.252,0s.168,0,.252,0a2.028,2.028,0,0,1,1.8,1.046l.574,1.032a2.038,2.038,0,0,0,2.305.979c.009,0,.021-.006.03-.01a2.034,2.034,0,0,0,1.506-2l-.019-1.183a2.046,2.046,0,0,1,1.061-1.818l.388-.224a2.049,2.049,0,0,1,2.11-.013l1.007.606a2.035,2.035,0,0,0,2.485-.306l.025-.025a2.035,2.035,0,0,0,.306-2.485l-.606-1.007a2.05,2.05,0,0,1,.014-2.11l.224-.388a2.047,2.047,0,0,1,1.818-1.061l1.183.019a2.034,2.034,0,0,0,2-1.506c0-.01.006-.021.01-.031A2.038,2.038,0,0,0,874.977,899.264Zm-17.494,8.841a11.469,11.469,0,1,1,11.469-11.469A11.468,11.468,0,0,1,857.482,908.105Z" transform="translate(-838.941 -878.094)" fill="#fff"/>
      <circle id="Elipse_8317" data-name="Elipse 8317" cx="5.177" cy="5.177" r="5.177" transform="translate(13.364 13.46)" fill="#fff"/>
    </g>
    <g id="Grupo_86526" data-name="Grupo 86526" transform="translate(761.687 531.78)">
      <path id="Trazado_151807" data-name="Trazado 151807" d="M1356.857,899.266s.162-15.064,12.159-23.98,21.723-9.4,23.263-11.024,1.471,5.427,1.39,8.183.461,12.072-5.2,21.154-23.669,9.569-23.669,9.569Z" transform="translate(-1356.857 -864.023)" fill="#e7befe"/>
      <path id="Trazado_151808" data-name="Trazado 151808" d="M1379.146,897.02a.2.2,0,0,1-.166-.309,76.5,76.5,0,0,1,12-13.537,91.6,91.6,0,0,1,9.76-7.186c2.734-1.813,4.71-3.122,5.313-4.2a.2.2,0,0,1,.348.194c-.651,1.165-2.66,2.5-5.441,4.341a91.3,91.3,0,0,0-9.719,7.155,76.085,76.085,0,0,0-11.928,13.457A.2.2,0,0,1,1379.146,897.02Z" transform="translate(-1372.109 -869.312)" fill="#d07efc"/>
      <path id="Trazado_151809" data-name="Trazado 151809" d="M1411.616,925a52.372,52.372,0,0,1-9.461-.889.2.2,0,1,1,.081-.39c.1.02,9.653,1.972,17.213,0a.2.2,0,1,1,.1.385A32.055,32.055,0,0,1,1411.616,925Z" transform="translate(-1388.023 -905.239)" fill="#d07efc"/>
      <path id="Trazado_151810" data-name="Trazado 151810" d="M1437.689,897.925a44.567,44.567,0,0,1-5.432-.376.2.2,0,0,1,.055-.394c.06.008,6.032.82,9.163,0a.2.2,0,0,1,.1.385A16.288,16.288,0,0,1,1437.689,897.925Z" transform="translate(-1408.797 -886.897)" fill="#d07efc"/>
      <path id="Trazado_151811" data-name="Trazado 151811" d="M1395.121,949.466c-4.5,0-12.144-1.676-12.531-1.761a.2.2,0,1,1,.086-.388c.113.025,11.358,2.491,14.609,1.531a.2.2,0,1,1,.113.381A8.51,8.51,0,0,1,1395.121,949.466Z" transform="translate(-1374.516 -921.528)" fill="#d07efc"/>
      <path id="Trazado_151812" data-name="Trazado 151812" d="M1388.365,918.229a.2.2,0,0,1-.193-.151,21.185,21.185,0,0,1,0-9.288.2.2,0,1,1,.384.1,20.761,20.761,0,0,0,0,9.087.2.2,0,0,1-.145.241A.2.2,0,0,1,1388.365,918.229Z" transform="translate(-1378.11 -894.831)" fill="#d07efc"/>
      <path id="Trazado_151813" data-name="Trazado 151813" d="M1414.063,896.211h0a.2.2,0,0,1-.2-.2,25.89,25.89,0,0,1,1.167-7.31.2.2,0,1,1,.371.144,26.029,26.029,0,0,0-1.141,7.173A.2.2,0,0,1,1414.063,896.211Z" transform="translate(-1396.216 -880.972)" fill="#d07efc"/>
    </g>
    <g id="Grupo_86528" data-name="Grupo 86528" transform="translate(707.784 545.804)">
      <path id="Trazado_151814" data-name="Trazado 151814" d="M1271.93,939.22s.037-22.394-24.484-11.5c0,0-5.388-19.277-19.51-18.366s-15.488,19.152-15.488,19.152-19.34-9.831-29.713,10.107Z" transform="translate(-1182.735 -909.322)" fill="#d6ece0"/>
      <g id="Grupo_86527" data-name="Grupo 86527" transform="translate(10.597 8.874)">
        <path id="Trazado_151815" data-name="Trazado 151815" d="M1315.718,958.511l-.492-.069a29.093,29.093,0,0,0-4.722-20.15l.395-.3A29.642,29.642,0,0,1,1315.718,958.511Z" transform="translate(-1281.547 -937.989)" fill="#93deb4"/>
        <path id="Trazado_151816" data-name="Trazado 151816" d="M1327.2,951.561l-.4-.293c.058-.079,5.8-7.976,6.781-12.946l.488.1C1333.063,943.5,1327.438,951.234,1327.2,951.561Z" transform="translate(-1292.797 -938.219)" fill="#93deb4"/>
        <path id="Trazado_151817" data-name="Trazado 151817" d="M1308.269,980.806c-4.453-.279-8.4-5.559-8.564-5.783l.4-.3c.039.053,3.974,5.318,8.195,5.582Z" transform="translate(-1274.092 -963.355)" fill="#93deb4"/>
        <path id="Trazado_151818" data-name="Trazado 151818" d="M1374.342,989.544l.668-.479c.077-.055,7.826-5.548,16.122-5.934l.023.5c-6.693.312-13.041,4.019-15.133,5.361l8.268-.288.017.5Z" transform="translate(-1325.623 -969.156)" fill="#93deb4"/>
        <path id="Trazado_151819" data-name="Trazado 151819" d="M1393.168,977.019l-.47-.161a30.55,30.55,0,0,1,4.076-7.373l.394.3A29.987,29.987,0,0,0,1393.168,977.019Z" transform="translate(-1338.297 -959.735)" fill="#93deb4"/>
        <path id="Trazado_151820" data-name="Trazado 151820" d="M1239.9,985.85a47.548,47.548,0,0,0-12.817-7.474l.164-.469a48.067,48.067,0,0,1,12.973,7.563Z" transform="translate(-1223.948 -965.55)" fill="#93deb4"/>
        <path id="Trazado_151821" data-name="Trazado 151821" d="M1217.193,993.645l-.227-.442c.176-.09,4.4-2.207,12.19-1.123l-.069.492C1221.47,991.512,1217.235,993.624,1217.193,993.645Z" transform="translate(-1216.966 -975.122)" fill="#93deb4"/>
      </g>
    </g>
    <g id="Grupo_86530" data-name="Grupo 86530" transform="translate(655.075 545.797)">
      <path id="Trazado_151822" data-name="Trazado 151822" d="M655.053,939.205s10.613-24.871,27.985-14.949c0,0,1.887-15.829,16.008-14.918s15.488,19.152,15.488,19.152,19.34-9.831,29.713,10.107Z" transform="translate(-655.053 -909.301)" fill="#d6ece0"/>
      <g id="Grupo_86529" data-name="Grupo 86529" transform="translate(13.067 8.881)">
        <path id="Trazado_151823" data-name="Trazado 151823" d="M797.952,958.511l.492-.069a29.09,29.09,0,0,1,4.722-20.15l-.4-.3A29.642,29.642,0,0,0,797.952,958.511Z" transform="translate(-766.591 -937.989)" fill="#93deb4"/>
        <path id="Trazado_151824" data-name="Trazado 151824" d="M782.5,951.561l.4-.293c-.058-.079-5.8-7.976-6.781-12.946l-.488.1C776.639,943.5,782.264,951.234,782.5,951.561Z" transform="translate(-751.373 -938.219)" fill="#93deb4"/>
        <path id="Trazado_151825" data-name="Trazado 151825" d="M798.476,980.806c4.453-.279,8.4-5.559,8.564-5.783l-.4-.3c-.039.053-3.974,5.318-8.195,5.582Z" transform="translate(-767.122 -963.355)" fill="#93deb4"/>
        <path id="Trazado_151826" data-name="Trazado 151826" d="M714.075,989.544l-.668-.479c-.077-.055-7.826-5.548-16.122-5.934l-.023.5c6.693.312,13.041,4.019,15.134,5.361l-8.268-.288-.017.5Z" transform="translate(-697.262 -969.156)" fill="#93deb4"/>
        <path id="Trazado_151827" data-name="Trazado 151827" d="M722.777,977.019l.47-.161a30.539,30.539,0,0,0-4.076-7.373l-.394.3A29.99,29.99,0,0,1,722.777,977.019Z" transform="translate(-712.117 -959.735)" fill="#93deb4"/>
        <path id="Trazado_151828" data-name="Trazado 151828" d="M856.719,985.85a47.539,47.539,0,0,1,12.816-7.474l-.164-.469a48.068,48.068,0,0,0-12.973,7.563Z" transform="translate(-807.135 -965.55)" fill="#93deb4"/>
        <path id="Trazado_151829" data-name="Trazado 151829" d="M881.535,993.645l.227-.442c-.176-.09-4.4-2.207-12.19-1.123l.068.492C877.259,991.512,881.494,993.624,881.535,993.645Z" transform="translate(-816.231 -975.122)" fill="#93deb4"/>
      </g>
    </g>
    <path id="Trazado_151830" data-name="Trazado 151830" d="M1545.179,644.979a11.371,11.371,0,0,1,12.589-4.672c5.468,1.3,7.717-6.711,12.246-8.473,8.3-3.229,13.123,12.841,22.29,8.35,6.061-2.969,13.368,4.795,13.368,4.795Z" transform="translate(-725.194 -171.633)" fill="#90edf1"/>
    <path id="Trazado_151831" data-name="Trazado 151831" d="M490.81,900.292A11.37,11.37,0,0,1,503.4,895.62c5.469,1.3,7.717-6.711,12.246-8.473,8.3-3.229,13.123,12.841,22.29,8.35,6.061-2.969,13.368,4.795,13.368,4.795Z" transform="translate(118.303 -347.706)" fill="#90edf1"/>
    <path id="Trazado_151832" data-name="Trazado 151832" d="M1655.953,779.235c-3.588-1.756-4.809-3.206-5.5-3.136s-.542.934-1.25,2.534c-.653,1.487-1.491,1.346-1.372.545a7.5,7.5,0,0,0-.086-3.834,11.241,11.241,0,0,1-.285-1.465,10.505,10.505,0,0,1-.06-2.236c2.633-2.711,3.549-2.176,3.549-2.176s.189.3.5.775a44.944,44.944,0,0,0,4.239,5.826c1.372,1.261,4.2,2.726,3.94,2.841a3.593,3.593,0,0,1-1.805-.208,21.473,21.473,0,0,0,2.173,1.435C1660.62,780.509,1658.43,780.449,1655.953,779.235Z" transform="translate(-795.751 -266.928)" fill="#f6a49d"/>
    <path id="Trazado_151833" data-name="Trazado 151833" d="M1651.447,770.242a8.213,8.213,0,0,1-3.984,3.637,10.505,10.505,0,0,1-.06-2.236c2.633-2.711,3.549-2.176,3.549-2.176S1651.141,769.767,1651.447,770.242Z" transform="translate(-795.751 -266.928)" fill="#d47c74"/>
    <circle id="Elipse_8318" data-name="Elipse 8318" cx="4.006" cy="4.006" r="4.006" transform="translate(792.272 426.605)" fill="#8f94a3"/>
    <path id="Trazado_151834" data-name="Trazado 151834" d="M1597.108,959.739a48.29,48.29,0,0,1,0,8.365,41.212,41.212,0,0,0-.519,4.734h17.833s-.454-2.918-6.615-4.475-5.641-9.273-5.641-9.273Z" transform="translate(-760.689 -397.88)" fill="#24292f"/>
    <path id="Trazado_151835" data-name="Trazado 151835" d="M1497.268,954.8a35.939,35.939,0,0,0,.583,7.587,31.484,31.484,0,0,1,.778,6.16h-15.369s.163-3.048,4.524-4.085,3.712-6.744,3.971-10.181S1497.268,954.8,1497.268,954.8Z" transform="translate(-682.444 -393.592)" fill="#24292f"/>
    <path id="Trazado_151836" data-name="Trazado 151836" d="M817.891,557.4a1.849,1.849,0,0,1-1.758-1.928V516.362a1.9,1.9,0,0,1,1.8-1.977h62.415a1.9,1.9,0,0,1,1.8,1.977v38.774a2.262,2.262,0,0,1-2.262,2.262Z" transform="translate(-111.193 -90.841)" fill="#7ff9ff"/>
    <path id="Trazado_151837" data-name="Trazado 151837" d="M824.465,557.1a1.758,1.758,0,0,1-1.758-1.758V519.636a1.758,1.758,0,0,1,1.758-1.758h62.682a1.581,1.581,0,0,1,1.581,1.581v36.064a1.581,1.581,0,0,1-1.581,1.581Z" transform="translate(-115.732 -93.253)" fill="#dbfdff"/>
    <g id="Grupo_86537" data-name="Grupo 86537" transform="translate(712.107 430.287)">
      <g id="Grupo_86531" data-name="Grupo 86531" transform="translate(20.207 0)">
        <rect id="Rectángulo_7797" data-name="Rectángulo 7797" width="1.83" height="28.074" fill="#fff"/>
      </g>
      <g id="Grupo_86532" data-name="Grupo 86532" transform="translate(16.166 0)">
        <rect id="Rectángulo_7798" data-name="Rectángulo 7798" width="1.83" height="28.074" fill="#fff"/>
      </g>
      <g id="Grupo_86533" data-name="Grupo 86533" transform="translate(12.124 0)">
        <rect id="Rectángulo_7799" data-name="Rectángulo 7799" width="1.83" height="28.074" fill="#fff"/>
      </g>
      <g id="Grupo_86534" data-name="Grupo 86534" transform="translate(8.083 0)">
        <rect id="Rectángulo_7800" data-name="Rectángulo 7800" width="1.83" height="28.074" fill="#fff"/>
      </g>
      <g id="Grupo_86535" data-name="Grupo 86535" transform="translate(4.041 0)">
        <rect id="Rectángulo_7801" data-name="Rectángulo 7801" width="1.83" height="28.074" fill="#fff"/>
      </g>
      <g id="Grupo_86536" data-name="Grupo 86536" transform="translate(0 0)">
        <rect id="Rectángulo_7802" data-name="Rectángulo 7802" width="1.83" height="28.074" fill="#fff"/>
      </g>
    </g>
    <g id="Grupo_86538" data-name="Grupo 86538" transform="translate(732.314 449.569)">
      <rect id="Rectángulo_7803" data-name="Rectángulo 7803" width="1.83" height="8.793" transform="translate(0 0)" fill="#cbc0e0"/>
    </g>
    <g id="Grupo_86539" data-name="Grupo 86539" transform="translate(724.231 435.39)">
      <rect id="Rectángulo_7804" data-name="Rectángulo 7804" width="1.83" height="22.971" transform="translate(0)" fill="#cbc0e0"/>
    </g>
    <g id="Grupo_86540" data-name="Grupo 86540" transform="translate(716.148 446.929)">
      <rect id="Rectángulo_7805" data-name="Rectángulo 7805" width="1.83" height="11.432" transform="translate(0 0)" fill="#cbc0e0"/>
    </g>
    <circle id="Elipse_8319" data-name="Elipse 8319" cx="3.522" cy="3.522" r="3.522" transform="translate(740.677 436.427) rotate(-76.718)" fill="#fff"/>
    <g id="Grupo_86541" data-name="Grupo 86541" transform="translate(751.897 430.375)">
      <rect id="Rectángulo_7806" data-name="Rectángulo 7806" width="15.638" height="1.01" transform="translate(0)" fill="#fff"/>
      <rect id="Rectángulo_7807" data-name="Rectángulo 7807" width="15.638" height="1.01" transform="translate(0 2.987)" fill="#fff"/>
      <rect id="Rectángulo_7808" data-name="Rectángulo 7808" width="8.654" height="1.01" transform="translate(0 5.945)" fill="#fff"/>
    </g>
    <circle id="Elipse_8320" data-name="Elipse 8320" cx="3.522" cy="3.522" r="3.522" transform="translate(741.392 443.118)" fill="#fff"/>
    <g id="Grupo_86542" data-name="Grupo 86542" transform="translate(751.897 443.206)">
      <rect id="Rectángulo_7809" data-name="Rectángulo 7809" width="15.638" height="1.01" transform="translate(0 0)" fill="#fff"/>
      <rect id="Rectángulo_7810" data-name="Rectángulo 7810" width="15.638" height="1.01" transform="translate(0 2.987)" fill="#fff"/>
      <rect id="Rectángulo_7811" data-name="Rectángulo 7811" width="8.654" height="1.01" transform="translate(0 5.945)" fill="#fff"/>
    </g>
    <path id="Trazado_151838" data-name="Trazado 151838" d="M1455.034,452.7a11,11,0,0,1-4.835,9.12,5.052,5.052,0,0,0-2.169,4.189v3.94h-8.041v-4.008a5.082,5.082,0,0,0-2.239-4.169,11.024,11.024,0,1,1,17.283-9.073Z" transform="translate(-647.732 -40.64)" fill="#ffc945"/>
    <rect id="Rectángulo_7812" data-name="Rectángulo 7812" width="10.181" height="3.178" rx="1.589" transform="translate(791.187 427.656)" fill="#a7adbf"/>
    <g id="Grupo_86543" data-name="Grupo 86543" transform="translate(683.06 530.917)">
      <rect id="Rectángulo_7813" data-name="Rectángulo 7813" width="29.354" height="0.848" transform="translate(7.295 11.358)" fill="#3a3e49"/>
      <path id="Trazado_151839" data-name="Trazado 151839" d="M764.157,904.736,755.22,863.65l-8.937,41.086-.828-.18,9.351-42.99a.424.424,0,0,1,.828,0l9.352,42.99Z" transform="translate(-745.454 -861.233)" fill="#3a3e49"/>
      <path id="Trazado_151840" data-name="Trazado 151840" d="M859.245,904.736l-8.937-41.086-8.938,41.086-.828-.18,9.352-42.99a.424.424,0,0,1,.828,0l9.351,42.99Z" transform="translate(-811.106 -861.233)" fill="#3a3e49"/>
      <rect id="Rectángulo_7814" data-name="Rectángulo 7814" width="29.436" height="0.847" transform="translate(3.876 27.076)" fill="#3a3e49"/>
    </g>
    <path id="Trazado_151841" data-name="Trazado 151841" d="M1423.9,610.035s.128-2.434.161-4.09-1.863-4.135-2.223-5.1-1.53-5.72-1.648-6.373-1.453.779-.44,5.928a1.2,1.2,0,0,0-1.367,1.094,1.058,1.058,0,0,0-1.338,1.027s-.813.242-.66,1.778c.146,1.467,2.069,4.569,2.723,6.068a11.033,11.033,0,0,1,.777,2.226A7.748,7.748,0,0,0,1423.9,610.035Z" transform="translate(-636.26 -146.031)" fill="#f6a49d"/>
    <path id="Trazado_151842" data-name="Trazado 151842" d="M1537.319,803.388a23.961,23.961,0,0,1-10.246,0,127.045,127.045,0,0,0-3.5-14.656,73.431,73.431,0,0,1-3.372-15.823c-.129-2.724-6.1-22.048-7.522-26.847l-1.945.13a131.2,131.2,0,0,0-2.075,19.714c0,8.56.778,18.936.908,25.68s.259,10.765.259,10.765-6.355,1.816-10.376-.259c0,0-1.427-23.345-1.427-30.609,0-5.681-.555-25.1.508-34.582.293-2.641.713-4.511,1.307-5.1,2.462-2.461,20.907.161,24.445.688.379.057.586.091.586.091s.065.309.179.872c.07.363.163.832.27,1.393.7,3.652,2.049,11.2,2.793,18.746A373.976,373.976,0,0,0,1537.319,803.388Z" transform="translate(-692.535 -240.232)" fill="#3a3e49"/>
    <path id="Trazado_151843" data-name="Trazado 151843" d="M1527.461,734.652s-.244.072-.687.187c-2.127.55-8.82,2.052-14.765.978a24.755,24.755,0,0,0-12.023,1.084c.293-2.641.713-4.511,1.307-5.1,2.462-2.461,20.907.161,24.445.688l.765.962Z" transform="translate(-693.991 -240.232)" fill="#24292f"/>
    <path id="Trazado_151844" data-name="Trazado 151844" d="M1538.628,536.3c-.067,4.409-3.471,7.457-3.795,7.426s-.973-1.331-.973-1.331l-2.1-2.278-3.839-4.174-1.945-2.143a4.483,4.483,0,0,1-3-3.836,3.64,3.64,0,0,1,1.318-3.458c1.11-.905,2.61-1.079,3.372-.031,0,0,.327-3.211,2.887-3.44s2.628,4.184,2.628,4.184a1.854,1.854,0,0,1,2.464-.485c1.588.809,1.556,3.434.259,4.83C1535.9,531.565,1538.691,531.889,1538.628,536.3Z" transform="translate(-709.828 -96.809)" fill="#3a3e49"/>
    <path id="Trazado_151845" data-name="Trazado 151845" d="M1531.765,547.876l-3.839-4.174-1.945-2.143a4.483,4.483,0,0,1-3-3.836,3.64,3.64,0,0,1,1.318-3.458c-1.847,6.805,9.016,8.755,9.016,8.755S1530.488,545.971,1531.765,547.876Z" transform="translate(-709.828 -104.568)" fill="#24292f"/>
    <path id="Trazado_151846" data-name="Trazado 151846" d="M1422.179,638.535l-.714-1.913s.324-.648,3.145-1.556,3.113-2.626,3.923-.357S1422.179,638.535,1422.179,638.535Z" transform="translate(-639.779 -173.141)" fill="#fff"/>
    <path id="Trazado_151847" data-name="Trazado 151847" d="M1642.884,765.544l1.059,2.313a19.328,19.328,0,0,0,4.95-3.913l-1.621-2.183Z" transform="translate(-792.653 -261.638)" fill="#fef2fc"/>
    <path id="Trazado_151848" data-name="Trazado 151848" d="M1496.912,658.19s-4.583,4.669-8.56,6.311c0,0-5.621-10.375-8.389-14.438-2.68-3.938-6.334-13.476-6.56-14.067a.224.224,0,0,1-.01-.029s.241,2.7.614,6.269a93.978,93.978,0,0,0,1.546,10.939,34.344,34.344,0,0,1-15.735-.174,54.166,54.166,0,0,0-17.812-.778s3.027-9.079,3.286-15.3l0,.005c-.125.218-4.163,7.182-10.461,7.776a4.763,4.763,0,0,1-2.877-.708c-5.071-2.926-9.089-14.038-10.7-19.958,0,0,5.707-1.9,7.956-4.84,0,0,4.15,7.263,5.014,9.683s2.075,4.41,4.236,0,5.795-13.143,11.673-14.352c1.45-.3,2.856-.532,4.2-.706a34.451,34.451,0,0,1,10.327.013s1.73.436,3.792,1.126c2.436.815,5.336,1.982,6.412,3.2,1.987,2.247,8.212,15.475,11.932,20.059S1496.479,654.473,1496.912,658.19Z" transform="translate(-639.633 -159.234)" fill="#7e6ee9"/>
    <path id="Trazado_151849" data-name="Trazado 151849" d="M1542.225,614.96c-1.58,3.359-4.97,7.579-9.369,6.106-3.639-1.219-4.532-5.374-4.75-7.245a34.451,34.451,0,0,1,10.327.013S1540.163,614.27,1542.225,614.96Z" transform="translate(-713.406 -159.234)" fill="#fff"/>
    <path id="Trazado_151850" data-name="Trazado 151850" d="M1545.83,592.578a3.448,3.448,0,0,1-3.619,2.822,3.238,3.238,0,0,1-3.336-1.912,1.061,1.061,0,0,1-.036-.163c-.049-.353.005-1.826.073-3.227.018-.368.036-.732.055-1.069.052-.981.1-1.738.1-1.738l2.714-3.274,3.226-1.185.48-.177S1546.035,591.151,1545.83,592.578Z" transform="translate(-720.804 -137.978)" fill="#f6a49d"/>
    <path id="Trazado_151851" data-name="Trazado 151851" d="M1545.21,583.226c-.042.22-.1.464-.168.732-1.927,7.211-5.323,6.687-5.925,6.534.07-1.44.153-2.807.153-2.807l2.714-3.274Z" transform="translate(-721.008 -138.371)" fill="#d47c74"/>
    <path id="Trazado_151852" data-name="Trazado 151852" d="M1585.718,688.47c-5.491-10.2-4.884-23.908-4.884-23.908l2.724,6.7S1584.854,685.788,1585.718,688.47Z" transform="translate(-749.797 -194.528)" fill="#6349cf"/>
    <path id="Trazado_151853" data-name="Trazado 151853" d="M1530.142,557.833s-3.145,11.219.778,13.132,7.1-4.539,7.1-4.539,2.529-.132,2.853-1.849-1.394-2.009-2.529-1.458c0,0-1.07-.065-1.1-.94a26.276,26.276,0,0,1,.227-2.886A20.432,20.432,0,0,1,1530.142,557.833Z" transform="translate(-713.988 -120.839)" fill="#f6a49d"/>
    <path id="Trazado_151854" data-name="Trazado 151854" d="M1469.885,671.266l-.734,5.577,0,.005c-.125.218-4.163,7.182-10.461,7.776a4.762,4.762,0,0,1-2.877-.708C1463.569,686.534,1469.885,671.266,1469.885,671.266Z" transform="translate(-663.491 -199.157)" fill="#6349cf"/>
    <path id="Trazado_151855" data-name="Trazado 151855" d="M1527.049,800.328c0,8.56.778,18.936.908,25.68a69.865,69.865,0,0,0-2.329-13.748c-2.135-8.168-.654-15.045,0-23.086s3.5-8.56,3.5-8.56A131.2,131.2,0,0,0,1527.049,800.328Z" transform="translate(-710.928 -274.654)" fill="#24292f"/>
    <path id="Trazado_151856" data-name="Trazado 151856" d="M1503.8,854.629a2.729,2.729,0,1,1,2.154-2.668A2.455,2.455,0,0,1,1503.8,854.629Zm0-5.077a2.479,2.479,0,1,0,1.895,2.409A2.2,2.2,0,0,0,1503.8,849.552Z" transform="translate(-695.14 -322.072)" fill="#fff"/>
    <path id="Trazado_151857" data-name="Trazado 151857" d="M1587.464,854.629a2.729,2.729,0,1,1,2.154-2.668A2.455,2.455,0,0,1,1587.464,854.629Zm0-5.077a2.478,2.478,0,1,0,1.895,2.409A2.2,2.2,0,0,0,1587.464,849.552Z" transform="translate(-752.902 -322.072)" fill="#fff"/>
    <g id="Grupo_86544" data-name="Grupo 86544" transform="translate(818.873 439.944)">
      <path id="Trazado_151858" data-name="Trazado 151858" d="M1545.993,569.9a1.87,1.87,0,1,1-.278-.978A1.847,1.847,0,0,1,1545.993,569.9Z" transform="translate(-1542.051 -567.827)" fill="#fff" opacity="0.3"/>
      <path id="Trazado_151859" data-name="Trazado 151859" d="M1546.485,571.886a1.868,1.868,0,0,1-3.515.882c1.014-.568,2.3-1.315,3.237-1.86A1.846,1.846,0,0,1,1546.485,571.886Z" transform="translate(-1542.542 -569.811)" fill="#fff" opacity="0.47"/>
      <path id="Trazado_151860" data-name="Trazado 151860" d="M1543.663,567.364a2.075,2.075,0,1,0,2.075,2.075A2.074,2.074,0,0,0,1543.663,567.364Zm0,3.9a1.821,1.821,0,1,1,1.821-1.821A1.82,1.82,0,0,1,1543.663,571.26Z" transform="translate(-1541.588 -567.364)" fill="#24292f"/>
    </g>
    <g id="Grupo_86545" data-name="Grupo 86545" transform="translate(814.139 439.328)">
      <path id="Trazado_151861" data-name="Trazado 151861" d="M1530.7,567.912a1.87,1.87,0,1,1-.277-.978A1.846,1.846,0,0,1,1530.7,567.912Z" transform="translate(-1526.757 -565.837)" fill="#fff" opacity="0.3"/>
      <path id="Trazado_151862" data-name="Trazado 151862" d="M1531.192,569.9a1.868,1.868,0,0,1-3.515.882c1.014-.568,2.3-1.315,3.237-1.86A1.846,1.846,0,0,1,1531.192,569.9Z" transform="translate(-1527.249 -567.821)" fill="#fff" opacity="0.47"/>
      <path id="Trazado_151863" data-name="Trazado 151863" d="M1528.369,565.374a2.075,2.075,0,1,0,2.075,2.075A2.075,2.075,0,0,0,1528.369,565.374Zm0,3.9a1.821,1.821,0,1,1,1.821-1.821A1.82,1.82,0,0,1,1528.369,569.27Z" transform="translate(-1526.294 -565.374)" fill="#24292f"/>
    </g>
    <path id="Trazado_151864" data-name="Trazado 151864" d="M1539.677,603.244l-.8,4.459a1.057,1.057,0,0,1-.036-.163c-.049-.353.005-1.826.073-3.227.018-.368.036-.732.055-1.069Z" transform="translate(-720.804 -152.192)" fill="#d47c74"/>
    <path id="Trazado_151865" data-name="Trazado 151865" d="M1532.321,626.94c-9.978-2.547-9.821-11.451-9.818-11.54l.259.008c0,.088-.149,8.786,9.623,11.281Z" transform="translate(-709.537 -160.585)" fill="#fff"/>
    <path id="Trazado_151866" data-name="Trazado 151866" d="M1531.609,629.138h-.171l0-.259h.169c11.978,0,14.123-9,14.143-9.093l.253.056C1545.984,619.935,1543.791,629.138,1531.609,629.138Z" transform="translate(-715.707 -163.614)" fill="#fff"/>
    <path id="Trazado_151867" data-name="Trazado 151867" d="M1456.84,481.6a27.4,27.4,0,0,1-.034-12.64,4,4,0,0,1-2.623-.238,96.56,96.56,0,0,1,1.354,12.811l-.518.021a94.974,94.974,0,0,0-1.434-13.147c-2.1-1.289-3.382-4.035-2.941-5,.064-.139.329-.573,1.05-.3,1.028.387,1.791,2.4,2.354,4.966l.015.009a3.524,3.524,0,0,0,2.894.3c1.138-4.086,3.141-6.675,4.455-7.359.589-.306.894-.115,1.023.027.671.734-.62,3.009-1.45,4.3a8.306,8.306,0,0,1-3.562,3.4,26.722,26.722,0,0,0-.078,12.734Zm5.14-20.218a.784.784,0,0,0-.328.1c-1.158.6-2.94,2.945-4.043,6.614a8.517,8.517,0,0,0,2.941-3.029c1.636-2.546,1.633-3.526,1.5-3.669A.1.1,0,0,0,1461.98,461.382Zm-10.711,2.159a.143.143,0,0,0-.153.087c-.261.568.625,2.762,2.308,4.041-.5-2.176-1.132-3.779-1.912-4.073A.713.713,0,0,0,1451.269,463.541Z" transform="translate(-659.864 -53.888)" fill="#fff"/>
    <rect id="Rectángulo_7817" data-name="Rectángulo 7817" width="226.798" height="0.961" transform="translate(634.477 575.164)" fill="#3a3e49"/>
    <g id="Grupo_86546" data-name="Grupo 86546" transform="translate(702.144 382.813)">
      <path id="Trazado_151868" data-name="Trazado 151868" d="M807.1,382.813h25.31v11.4H819.731l-9.831,5.719,2.979-5.719H807.1Z" transform="translate(-807.102 -382.813)" fill="#d07efc"/>
      <rect id="Rectángulo_7818" data-name="Rectángulo 7818" width="15.518" height="1.124" transform="translate(21.169 4.107) rotate(180)" fill="#fff"/>
      <rect id="Rectángulo_7819" data-name="Rectángulo 7819" width="15.518" height="1.124" transform="translate(21.169 7.522) rotate(180)" fill="#fff"/>
    </g>
    <g id="Grupo_86547" data-name="Grupo 86547" transform="translate(647.283 408.846)">
      <path id="Trazado_151869" data-name="Trazado 151869" d="M767.716,508.287l-.187.065c-.638.226-2.708.993-2.926,1.577-.259.693-1.383,4.324-1.383,4.324l-8.648-.62,4.324-10.194,6.01-1.333Z" transform="translate(-715.973 -491.209)" fill="#cfa97d"/>
      <path id="Trazado_151870" data-name="Trazado 151870" d="M789.024,514.907c-.638.226-2.708.993-2.926,1.577a11.349,11.349,0,0,1-.215-4.884Z" transform="translate(-737.468 -497.764)" fill="#543845"/>
      <path id="Trazado_151871" data-name="Trazado 151871" d="M645.265,820.562s-.262.119-.687.342c-1.442.76-4.752,2.724-5.995,5.31-.638,1.328.137,3.5.667,4.721,1.86,4.324-.6,5.766-.6,5.766l-8.765-14.931a15.137,15.137,0,0,1,3.914-1.219c.656-.135,1.4-.257,2.231-.358,4.207-.514,6.838-4.615,6.838-4.615l2.075,4.309Z" transform="translate(-629.883 -707.641)" fill="#24292f"/>
      <path id="Trazado_151872" data-name="Trazado 151872" d="M653.671,819.888c-.114.322-.233.662-.363,1.017-1.442.76-4.752,2.724-5.995,5.31-.638,1.328.137,3.5.667,4.721-2.192.84-4.871-8.3-5.452-10.384.656-.135,1.4-.257,2.231-.358,4.207-.514,6.838-4.615,6.838-4.615Z" transform="translate(-638.613 -707.641)" fill="#cfa97d"/>
      <path id="Trazado_151873" data-name="Trazado 151873" d="M684.17,668.219c-.228,3.325-1.881,4.934-7.094,9.271C670,683.367,658.36,693.38,658.36,693.38A28.5,28.5,0,0,1,653,685.186s3.3-.433,7.8-5.925a92.526,92.526,0,0,1,11.413-11.629c1.383-1.038-5.017-23.519-4.669-28.533s7.782-15.218,7.782-15.218l5.533,1.211,1.73,14.7s.088,2.184.234,5.307c.259,5.621.7,14.285,1.149,18.731A27.408,27.408,0,0,1,684.17,668.219Z" transform="translate(-645.844 -575.287)" fill="#3a3e49"/>
      <path id="Trazado_151874" data-name="Trazado 151874" d="M737.371,698.175c-.7-2.026-2.584-1.826-2.275-6.552.433-6.658-.778-6.485-3.372-11.846s-1.387-12.508-1.387-12.508,2.568,3.489,5.686,7.784c.259,5.621.7,14.285,1.149,18.731A27.4,27.4,0,0,1,737.371,698.175Z" transform="translate(-699.046 -605.242)" fill="#24292f"/>
      <path id="Trazado_151875" data-name="Trazado 151875" d="M821.677,866.963H804.362a14.074,14.074,0,0,1,.742-3.429,28.481,28.481,0,0,1,1.009-2.667c1.686-3.891-.519-8.236-.519-8.236l5.512.454s-.584,5.541,1.492,8.625c.822,1.222,3.084,1.65,4.409,1.816l.239.031C821.677,864.209,821.677,866.963,821.677,866.963Z" transform="translate(-750.349 -733.224)" fill="#24292f"/>
      <path id="Trazado_151876" data-name="Trazado 151876" d="M818.9,863.557c-1.631,2.22-9.649.555-12.142-.023.246-.77.573-1.663,1.009-2.667,1.686-3.891-.519-8.236-.519-8.236l5.512.454s-.584,5.541,1.492,8.625c.822,1.222,3.084,1.65,4.409,1.816Z" transform="translate(-752.003 -733.224)" fill="#cfa97d"/>
      <path id="Trazado_151877" data-name="Trazado 151877" d="M789.122,482.4s.476,3.631,2.032,4.107c0,0-.735.692-1.016.951s.411,3.156-.238,4.453-5.448,3.372-7.263-2.724L781,479.131Z" transform="translate(-734.222 -475.347)" fill="#cfa97d"/>
      <path id="Trazado_151878" data-name="Trazado 151878" d="M669.6,633.3a16.227,16.227,0,0,0-1.9,8.463,10.187,10.187,0,0,0,.432,3.523c.541,1.783.724,2.356.378,2.7s-1.07-.843-1.935-2.118c-.69-1.018-.908.216-1.253,1.3s-.692,3.977-.908,5.361-1.211.346-1.211.346-.259,1.622-.865,1.45-.475-3.222-.475-3.222-.33,2.73-.806,2.644-.794-1.909-.75-3.379a3.11,3.11,0,0,1-.432-1.21,16.875,16.875,0,0,1,2.183-7.458c1.451-2.147,2.27-7.847,2.27-7.847Z" transform="translate(-650.585 -581.787)" fill="#cfa97d"/>
      <path id="Trazado_151879" data-name="Trazado 151879" d="M870.151,542.889l-1.082.7a2.007,2.007,0,0,1-.392,1.795,1.64,1.64,0,0,1-.589,1.8c-.965.778-4.794,1.6-5.964,2.347-.239.153-.693.477-1.263.892-.789.576-1.8,1.333-2.773,2.065-1.759,1.328-3.4,2.581-3.4,2.581l-3.154-4.913s2.57-1.427,4.944-2.9a19,19,0,0,0,3.816-2.781c.983-1.364,1.1-1.735,2.376-3.32s1.134-3.307,2.088-3.561.334,3.128-.156,4.236,4.625-.706,6.35-1.307,2.8-1.232,3.037-.607S871.235,542.2,870.151,542.889Z" transform="translate(-782.92 -515.697)" fill="#cfa97d"/>
      <path id="Trazado_151880" data-name="Trazado 151880" d="M869.8,572c-.789.576-1.8,1.333-2.773,2.065a28.778,28.778,0,0,1-2.545-2.176l.936-3.055A5.7,5.7,0,0,1,869.8,572Z" transform="translate(-791.857 -537.278)" fill="#543845"/>
      <path id="Trazado_151881" data-name="Trazado 151881" d="M736.51,550.23a79.387,79.387,0,0,1-8.812,5.387,4.5,4.5,0,0,1-2.278.644c-2.231-.553-12.127-8.5-13.553-8.365a.551.551,0,0,0-.306.106c-.716.55.835,3.089-.085,5.9v0c-.039.117-.08.231-.127.348a4.36,4.36,0,0,1-.527.947c-1.751,2.43-5.694,3.323-6.737,9.753l-1.393-.047L699,564.777l-5.235-.179-5.05-2.5a32.557,32.557,0,0,0,1.6-12.646s-6.724,5.058-8.021,7.393c-.194.353-.446.871-.734,1.5a.043.043,0,0,0,0,.01c-1.613,3.549-4.322,10.552-4.322,10.552s-3.761.519-5.058-1.167c0,0,1.945-10.505,4.15-14.526,1.461-2.664,6.931-8.578,10.838-12.6,1.079-1.113,2.039-2.08,2.762-2.8.607-.6,1.048-1.022,1.25-1.2.568-.5,2.249-.861,4.34-1.045,1.084-.093,2.28-.142,3.486-.137a33.774,33.774,0,0,1,5.325.4c2.431.418,6.887,1.037,9.481,2.724s12.451,9.468,13.1,9.6,5.966-2.724,5.966-2.724S736.64,547.247,736.51,550.23Z" transform="translate(-659.087 -514.216)" fill="#d07efc"/>
      <path id="Trazado_151882" data-name="Trazado 151882" d="M771.3,595.107c-.039.117-.081.231-.127.348a4.359,4.359,0,0,1-.527.947c-1.751,2.43-5.694,3.323-6.737,9.753l-1.393-.047-3.691-.127a20.644,20.644,0,0,1,3.009-5.208C763.516,599.086,770.032,597.112,771.3,595.107Z" transform="translate(-718.906 -555.42)" fill="#bb61ec"/>
      <path id="Trazado_151883" data-name="Trazado 151883" d="M734.095,529.205c-.047.06-.672.861-1.66,1.927a24.606,24.606,0,0,1-5.945,4.905,6.61,6.61,0,0,1-5.893.278c1.079-1.113,2.038-2.08,2.762-2.8l5.59-2.247Z" transform="translate(-692.514 -509.919)" fill="#db6592"/>
      <path id="Trazado_151884" data-name="Trazado 151884" d="M773.4,497.045s4.527-5.228,5.662-10.027-2.4.324-2.4.324Z" transform="translate(-728.97 -479.376)" fill="#543845"/>
      <path id="Trazado_151885" data-name="Trazado 151885" d="M733.142,474.517a19.983,19.983,0,0,1-2.413.542,2.614,2.614,0,0,0-.366-1.076,2.147,2.147,0,0,1-.073,1.141c-.454.062-.877.106-1.263.135a3.989,3.989,0,0,0-.371-2.171,4.949,4.949,0,0,1-.117,2.2,13.764,13.764,0,0,1-2.013-.037,79.612,79.612,0,0,1-5.751,10.505,36.132,36.132,0,0,1-5.748,6.918l-1.126-.563a35.979,35.979,0,0,0,4-5.074c-.366.436-5.234,6.192-9.1,5.982-4.021-.215-7.826-5.1-7.826-5.1l2.594-1.686a15.621,15.621,0,0,1-2.983.864l-.345-1.211a19.456,19.456,0,0,0,6.736-2.76,11.182,11.182,0,0,1-7.214,1.162,27.439,27.439,0,0,1-1.222-5.994c-.171-1.419-.247-2.48-.247-2.48a18.579,18.579,0,0,0,13.639-3.5c5.338-3.829,8.71-5.66,12.479-5.377a12.775,12.775,0,0,1,3.408.773A7.481,7.481,0,0,1,733.142,474.517Z" transform="translate(-677.119 -466.906)" fill="#ffc945"/>
      <path id="Trazado_151886" data-name="Trazado 151886" d="M744.577,629.52s1.21,3.977,4.15,10.895,10.376,24.383,10.2,29.4,1.383,24.729,3.8,30.262a26.42,26.42,0,0,1-10.548,3.251s-1.383-8.958-3.113-15.875-.865-15.737-1.557-18.331-11.24-18.331-14.18-22.826-4.323-8.992,1.211-18.5Z" transform="translate(-699.534 -577.986)" fill="#3a3e49"/>
      <path id="Trazado_151887" data-name="Trazado 151887" d="M724.409,621.577s4.409,2.075,15.369,2.853l.246,1.431a37.7,37.7,0,0,1-16.148-3.036Z" transform="translate(-694.779 -573.696)" fill="#24292f"/>
      <path id="Trazado_151888" data-name="Trazado 151888" d="M781.412,706.787c-2.122-5.065-3.771-26.945-3.771-31.5,0-4.675-15.116-39.488-15.268-39.839l.238-.1c.624,1.435,15.29,35.214,15.29,39.942,0,4.542,1.64,26.36,3.751,31.4Z" transform="translate(-721.358 -583.203)" fill="#fff"/>
      <path id="Trazado_151889" data-name="Trazado 151889" d="M711.243,568.83v3.683s-6.724,5.058-8.021,7.393c-.194.353-.446.871-.734,1.5a10.28,10.28,0,0,1,3.717-5.984A19.818,19.818,0,0,0,711.243,568.83Z" transform="translate(-680.012 -537.278)" fill="#bb61ec"/>
      <path id="Trazado_151890" data-name="Trazado 151890" d="M815.527,580.126a4.5,4.5,0,0,1-2.277.644c-2.231-.553-12.127-8.5-13.553-8.365a.551.551,0,0,0-.306.106c-.054-.111,1.927-4.041,6.272.91s5.058,3.523,8.041,5.922A3.578,3.578,0,0,0,815.527,580.126Z" transform="translate(-746.916 -538.725)" fill="#bb61ec"/>
      <path id="Trazado_151891" data-name="Trazado 151891" d="M724.416,466.935a12.256,12.256,0,0,0-5.717,4.729c-2.8,4.518-3.005,11.444-6.9,7.89-3.255-2.968-9.444,7.47-13.256-1.26-.171-1.419-.247-2.48-.247-2.48a18.579,18.579,0,0,0,13.639-3.5C717.275,468.483,720.647,466.652,724.416,466.935Z" transform="translate(-677.119 -466.906)" fill="#ffefc8" opacity="0.31"/>
    </g>
    <g id="Grupo_86548" data-name="Grupo 86548" transform="translate(748.236 501.251)">
      <rect id="Rectángulo_7820" data-name="Rectángulo 7820" width="46.229" height="14.389" rx="1" transform="translate(0)" fill="#d07efc"/>
      <circle id="Elipse_8321" data-name="Elipse 8321" cx="3.632" cy="3.632" r="3.632" transform="translate(2.709 5.215) rotate(-22.331)" fill="#fff"/>
      <rect id="Rectángulo_7821" data-name="Rectángulo 7821" width="27.629" height="0.89" transform="translate(14.547 6.75)" fill="#fff"/>
      <rect id="Rectángulo_7822" data-name="Rectángulo 7822" width="14.582" height="0.89" transform="translate(14.547 9.58)" fill="#fff"/>
      <rect id="Rectángulo_7823" data-name="Rectángulo 7823" width="27.629" height="0.89" transform="translate(14.547 4.015)" fill="#fff"/>
    </g>
    <g id="Grupo_86549" data-name="Grupo 86549" transform="translate(735.76 507.713)">
      <rect id="Rectángulo_7824" data-name="Rectángulo 7824" width="46.229" height="14.389" rx="3" fill="#856de9"/>
      <circle id="Elipse_8322" data-name="Elipse 8322" cx="3.632" cy="3.632" r="3.632" transform="translate(3.082 9.9) rotate(-76.785)" fill="#fff"/>
      <rect id="Rectángulo_7825" data-name="Rectángulo 7825" width="27.629" height="0.89" transform="translate(14.546 6.75)" fill="#fff"/>
      <rect id="Rectángulo_7826" data-name="Rectángulo 7826" width="14.582" height="0.89" transform="translate(14.546 9.58)" fill="#fff"/>
      <rect id="Rectángulo_7827" data-name="Rectángulo 7827" width="27.629" height="0.89" transform="translate(14.546 4.016)" fill="#fff"/>
    </g>
    <path id="Trazado_151892" data-name="Trazado 151892" d="M1451.407,447.8a11.356,11.356,0,0,1-17.348,9.647,11.024,11.024,0,0,1,16.684-13.476A11.281,11.281,0,0,1,1451.407,447.8Z" transform="translate(-647.732 -40.64)" fill="#ffd56e" opacity="0.32"/>
    <g id="Grupo_86550" data-name="Grupo 86550" transform="translate(709.832 475.383)">
      <path id="Trazado_151893" data-name="Trazado 151893" d="M1004.919,935.825l-.581-.323a1.141,1.141,0,0,1-.588-1.014c0-.047,0-.095,0-.142s0-.094,0-.142a1.141,1.141,0,0,1,.588-1.014l.581-.322a1.147,1.147,0,0,0,.55-1.3c0-.005,0-.012-.005-.017a1.144,1.144,0,0,0-1.123-.847l-.665.011a1.151,1.151,0,0,1-1.022-.6c-.042-.073-.084-.146-.126-.218a1.154,1.154,0,0,1-.008-1.187l.341-.566a1.145,1.145,0,0,0-.172-1.4l-.014-.014a1.145,1.145,0,0,0-1.4-.172l-.566.341a1.153,1.153,0,0,1-1.187-.007l-.218-.126a1.151,1.151,0,0,1-.6-1.022l.011-.665a1.145,1.145,0,0,0-.847-1.123l-.017-.005a1.146,1.146,0,0,0-1.3.55l-.323.58a1.141,1.141,0,0,1-1.014.588l-.142,0-.142,0a1.141,1.141,0,0,1-1.014-.588l-.322-.58a1.146,1.146,0,0,0-1.3-.55l-.017.005a1.144,1.144,0,0,0-.847,1.123l.011.665a1.151,1.151,0,0,1-.6,1.022l-.218.126a1.154,1.154,0,0,1-1.187.007l-.566-.341a1.145,1.145,0,0,0-1.4.172l-.014.014a1.145,1.145,0,0,0-.172,1.4l.341.566a1.153,1.153,0,0,1-.007,1.187c-.042.072-.084.145-.126.218a1.152,1.152,0,0,1-1.023.6l-.665-.011a1.144,1.144,0,0,0-1.123.847c0,.006,0,.012-.005.017a1.146,1.146,0,0,0,.55,1.3l.58.322a1.141,1.141,0,0,1,.588,1.014c0,.047,0,.094,0,.142s0,.095,0,.142a1.141,1.141,0,0,1-.588,1.014l-.58.323a1.146,1.146,0,0,0-.55,1.3c0,.006,0,.012.005.017a1.144,1.144,0,0,0,1.123.847l.665-.011a1.152,1.152,0,0,1,1.023.6l.126.218a1.152,1.152,0,0,1,.007,1.187l-.341.567a1.145,1.145,0,0,0,.172,1.4l.014.014a1.144,1.144,0,0,0,1.4.172l.566-.341a1.154,1.154,0,0,1,1.187.008l.218.126a1.151,1.151,0,0,1,.6,1.022l-.011.665a1.144,1.144,0,0,0,.847,1.123l.017.005a1.146,1.146,0,0,0,1.3-.55l.322-.58a1.141,1.141,0,0,1,1.014-.588l.142,0,.142,0a1.14,1.14,0,0,1,1.014.588l.323.58a1.146,1.146,0,0,0,1.3.55l.017-.005a1.144,1.144,0,0,0,.847-1.123l-.011-.665a1.151,1.151,0,0,1,.6-1.022l.218-.126a1.153,1.153,0,0,1,1.187-.008l.566.341a1.144,1.144,0,0,0,1.4-.172l.014-.014a1.145,1.145,0,0,0,.172-1.4l-.341-.567a1.153,1.153,0,0,1,.008-1.187l.126-.218a1.151,1.151,0,0,1,1.022-.6l.665.011a1.144,1.144,0,0,0,1.123-.847c0-.005,0-.012.005-.017A1.146,1.146,0,0,0,1004.919,935.825Zm-9.838,4.972a6.45,6.45,0,1,1,6.45-6.45A6.449,6.449,0,0,1,995.081,940.8Z" transform="translate(-984.655 -923.92)" fill="#fff"/>
    </g>
  </g>
</svg>
