<svg xmlns="http://www.w3.org/2000/svg" width="295" height="151.325" viewBox="0 0 295 151.325">
  <g id="Grupo_86317" data-name="Grupo 86317" transform="translate(-712.458 -1329.556)">
    <rect id="Rectángulo_7360" data-name="Rectángulo 7360" width="221.892" height="115.7" transform="translate(736.238 1354.907)" fill="#edf6f5"/>
    <rect id="Rectángulo_7361" data-name="Rectángulo 7361" width="35.737" height="32.961" transform="translate(748.411 1365.304)" fill="#dceceb"/>
    <g id="Grupo_86300" data-name="Grupo 86300" transform="translate(825.247 1391.794)">
      <path id="Trazado_151362" data-name="Trazado 151362" d="M1166.194,1460.152h-1.34v-2.01h-2.01v-1.34h3.35Z" transform="translate(-1055.341 -1456.802)" fill="#b6d5d0"/>
      <path id="Trazado_151363" data-name="Trazado 151363" d="M1054.3,1458.142h-5.482v-1.34h5.482Zm-10.963,0h-5.482v-1.34h5.482Zm-10.964,0h-5.481v-1.34h5.481Zm-10.963,0h-5.482v-1.34h5.482Zm-10.963,0h-5.482v-1.34h5.482Zm-10.963,0H994v-1.34h5.482Zm-10.964,0h-5.482v-1.34h5.482Zm-10.964,0h-5.481v-1.34h5.481Zm-10.963,0h-5.482v-1.34h5.482Z" transform="translate(-952.28 -1456.802)" fill="#b6d5d0"/>
      <path id="Trazado_151364" data-name="Trazado 151364" d="M944.395,1460.152h-1.34v-3.35h3.35v1.34h-2.01Z" transform="translate(-943.055 -1456.802)" fill="#b6d5d0"/>
      <path id="Trazado_151365" data-name="Trazado 151365" d="M944.4,1524.117h-1.34v-5.475h1.34Zm0-10.949h-1.34v-5.475h1.34Zm0-10.949h-1.34v-5.475h1.34Zm0-10.95h-1.34v-5.475h1.34Zm0-10.949h-1.34v-5.475h1.34Z" transform="translate(-943.055 -1466.02)" fill="#b6d5d0"/>
      <path id="Trazado_151366" data-name="Trazado 151366" d="M946.405,1590.125h-3.35v-3.35h1.34v2.01h2.01Z" transform="translate(-943.055 -1523.203)" fill="#b6d5d0"/>
      <path id="Trazado_151367" data-name="Trazado 151367" d="M1054.3,1592.225h-5.481v-1.34h5.481Zm-10.963,0h-5.482v-1.34h5.482Zm-10.964,0h-5.481v-1.34h5.481Zm-10.963,0h-5.482v-1.34h5.482Zm-10.963,0h-5.482v-1.34h5.482Zm-10.963,0H994v-1.34h5.482Zm-10.964,0h-5.482v-1.34h5.482Zm-10.963,0h-5.482v-1.34h5.482Zm-10.964,0h-5.482v-1.34h5.482Z" transform="translate(-952.28 -1525.303)" fill="#b6d5d0"/>
      <path id="Trazado_151368" data-name="Trazado 151368" d="M1166.194,1590.125h-3.35v-1.34h2.01v-2.01h1.34Z" transform="translate(-1055.341 -1523.203)" fill="#b6d5d0"/>
      <path id="Trazado_151369" data-name="Trazado 151369" d="M1168.293,1524.117h-1.34v-5.475h1.34Zm0-10.949h-1.34v-5.475h1.34Zm0-10.949h-1.34v-5.475h1.34Zm0-10.95h-1.34v-5.475h1.34Zm0-10.949h-1.34v-5.475h1.34Z" transform="translate(-1057.441 -1466.02)" fill="#b6d5d0"/>
    </g>
    <rect id="Rectángulo_7362" data-name="Rectángulo 7362" width="123.502" height="64.029" rx="2" transform="translate(712.458 1412.832)" fill="#18b6fe" opacity="0.32"/>
    <rect id="Rectángulo_7363" data-name="Rectángulo 7363" width="123.502" height="64.029" rx="1" transform="translate(716.479 1416.852)" fill="#18b6fe"/>
    <path id="Trazado_151370" data-name="Trazado 151370" d="M738.7,1591.013H843.679s-3.5-24.495-9.009-31.94-10.126,2.829-16.231,15.039-18.762,17.72-27.994,5.51-13.4-16.082-23.676-9.53-18.315,1.042-21.74-7.445-6.328-8.338-6.328-8.338Z" transform="translate(-13.407 -114.822)" fill="#fff" opacity="0.67"/>
    <path id="Trazado_151371" data-name="Trazado 151371" d="M738.7,1596.113s4.839.223,8.711-5.137,4.914-13.55,9.083-16.082,8.041,0,13.848,10.61,14.89,5.621,18.762-4.952,5.658-15.635,12.061-16.231,10.424,7.3,12.657,14.891,8.041,10.126,13.848,7,16.007,9.9,16.007,9.9Z" transform="translate(-13.407 -119.921)" fill="#fff" opacity="0.28"/>
    <path id="Trazado_151372" data-name="Trazado 151372" d="M740.711,1522.708h0a2.01,2.01,0,0,1-2.01-2.01h0a2.01,2.01,0,0,1,2.01-2.01h0a2.01,2.01,0,0,1,2.01,2.01h0A2.01,2.01,0,0,1,740.711,1522.708Z" transform="translate(-13.407 -96.625)" fill="#fff"/>
    <rect id="Rectángulo_7364" data-name="Rectángulo 7364" width="42.14" height="2.382" transform="translate(734.303 1422.883)" fill="#fff"/>
    <path id="Trazado_151373" data-name="Trazado 151373" d="M740.711,1537.551h0a2.011,2.011,0,0,1-2.01-2.01h0a2.01,2.01,0,0,1,2.01-2.01h0a2.01,2.01,0,0,1,2.01,2.01h0A2.011,2.011,0,0,1,740.711,1537.551Z" transform="translate(-13.407 -104.207)" fill="#fff"/>
    <rect id="Rectángulo_7365" data-name="Rectángulo 7365" width="32.461" height="2.382" transform="translate(734.303 1430.142)" fill="#fff"/>
    <rect id="Rectángulo_7366" data-name="Rectángulo 7366" width="35.737" height="32.961" transform="translate(752.599 1368.684)" fill="#fff"/>
    <g id="Grupo_86301" data-name="Grupo 86301" transform="translate(758.165 1379.302)">
      <path id="Trazado_151374" data-name="Trazado 151374" d="M831.889,1439.367l-12.992,5.882-12.992-5.882v8.786h25.984Z" transform="translate(-805.905 -1435.402)" fill="#856de9"/>
      <path id="Trazado_151375" data-name="Trazado 151375" d="M831.889,1431.261H805.905v2.345l12.992,5.751,12.992-5.751Z" transform="translate(-805.905 -1431.261)" fill="#856de9"/>
    </g>
    <g id="Grupo_86305" data-name="Grupo 86305" transform="translate(824.284 1358.773)">
      <g id="Grupo_86302" data-name="Grupo 86302" transform="translate(0 27.696)">
        <path id="Trazado_151376" data-name="Trazado 151376" d="M1012.97,1449.271H941.086v-3.356h71.884Zm-71.437-.447h70.991v-2.463H941.533Z" transform="translate(-941.086 -1445.915)" fill="#fff"/>
      </g>
      <g id="Grupo_86303" data-name="Grupo 86303" transform="translate(0 13.848)">
        <path id="Trazado_151377" data-name="Trazado 151377" d="M1012.97,1420.959H941.086V1417.6h71.884Zm-71.437-.447h70.991v-2.463H941.533Z" transform="translate(-941.086 -1417.603)" fill="#fff"/>
      </g>
      <g id="Grupo_86304" data-name="Grupo 86304" transform="translate(0)">
        <path id="Trazado_151378" data-name="Trazado 151378" d="M1012.97,1392.646H941.086v-3.356h71.884Zm-71.437-.447h70.991v-2.463H941.533Z" transform="translate(-941.086 -1389.29)" fill="#fff"/>
      </g>
    </g>
    <g id="Grupo_86306" data-name="Grupo 86306" transform="translate(980.182 1413.94)">
      <rect id="Rectángulo_7367" data-name="Rectángulo 7367" width="27.276" height="20.09" transform="translate(0 0)" fill="#dceceb"/>
      <path id="Trazado_151379" data-name="Trazado 151379" d="M1271.4,1522.4l-5.932-4.473a.586.586,0,0,1,0-.934l5.9-4.51.713.932-5.282,4.041,5.315,4.008Z" transform="translate(-1262.585 -1507.393)" fill="#fff"/>
      <path id="Trazado_151380" data-name="Trazado 151380" d="M1296.832,1522.4l-.706-.937,5.315-4.008-5.281-4.041.713-.932,5.9,4.51a.587.587,0,0,1,0,.934Z" transform="translate(-1278.369 -1507.393)" fill="#fff"/>
      <rect id="Rectángulo_7368" data-name="Rectángulo 7368" width="10.866" height="1.173" transform="translate(11.757 15.176) rotate(-76.026)" fill="#fff"/>
    </g>
    <g id="Grupo_86314" data-name="Grupo 86314" transform="translate(816.412 1329.556)">
      <path id="Trazado_151381" data-name="Trazado 151381" d="M1085.364,1414.791l-157.244,2.68-3.127-2.68v-51.67h160.371l3.127,2.68Z" transform="translate(-924.992 -1346.704)" fill="#b6d5d0"/>
      <path id="Trazado_151382" data-name="Trazado 151382" d="M1085.364,1341.171l-157.244,2.68-3.127-2.68v-11.615h160.371l3.127,2.68Z" transform="translate(-924.992 -1329.556)" fill="#b6d5d0"/>
      <rect id="Rectángulo_7369" data-name="Rectángulo 7369" width="160.371" height="51.67" transform="translate(3.127 19.097)" fill="#dceceb"/>
      <rect id="Rectángulo_7370" data-name="Rectángulo 7370" width="160.371" height="11.615" transform="translate(3.127 2.68)" fill="#edf6f5"/>
      <g id="Grupo_86310" data-name="Grupo 86310" transform="translate(11.205 6.315)">
        <g id="Grupo_86307" data-name="Grupo 86307" transform="translate(20.448 0)">
          <circle id="Elipse_8280" data-name="Elipse 8280" cx="2.173" cy="2.173" r="2.173" fill="#67a4c3"/>
        </g>
        <g id="Grupo_86308" data-name="Grupo 86308" transform="translate(10.224)">
          <path id="Trazado_151383" data-name="Trazado 151383" d="M973.149,1344.64a2.173,2.173,0,1,1-2.173-2.173A2.173,2.173,0,0,1,973.149,1344.64Z" transform="translate(-968.804 -1342.467)" fill="#eb908b"/>
        </g>
        <g id="Grupo_86309" data-name="Grupo 86309" transform="translate(0 0)">
          <circle id="Elipse_8281" data-name="Elipse 8281" cx="2.173" cy="2.173" r="2.173" fill="#ffaa3f"/>
        </g>
      </g>
      <g id="Grupo_86313" data-name="Grupo 86313" transform="translate(110.613 21.613)">
        <g id="Grupo_86311" data-name="Grupo 86311">
          <path id="Trazado_151384" data-name="Trazado 151384" d="M1171.789,1373.745a20.647,20.647,0,1,0,20.647,20.647A20.646,20.646,0,0,0,1171.789,1373.745Zm0,33.937a13.29,13.29,0,1,1,13.29-13.29A13.29,13.29,0,0,1,1171.789,1407.682Z" transform="translate(-1151.141 -1373.745)" fill="#b2e5e0"/>
        </g>
        <g id="Grupo_86312" data-name="Grupo 86312" transform="translate(4.913 1.787)">
          <path id="Trazado_151385" data-name="Trazado 151385" d="M1196.422,1383.438a20.653,20.653,0,1,0,6.057,14.608A20.559,20.559,0,0,0,1196.422,1383.438Zm-7.93,26.106a13.291,13.291,0,1,1,6.63-11.5A13.214,13.214,0,0,1,1188.493,1409.545Z" transform="translate(-1161.185 -1377.399)" fill="#18b6fe"/>
        </g>
        <path id="Trazado_151386" data-name="Trazado 151386" d="M1231,1404.354a20.643,20.643,0,0,1-10.3,17.873l-3.69-6.375a13.292,13.292,0,0,0,2.73-20.907l5.2-5.2A20.566,20.566,0,0,1,1231,1404.354Z" transform="translate(-1184.796 -1381.92)" fill="#fff"/>
        <path id="Trazado_151387" data-name="Trazado 151387" d="M1192.561,1440.07a20.662,20.662,0,0,1-30.636-14.014l7.228-1.385a13.287,13.287,0,0,0,19.718,9.024Z" transform="translate(-1156.65 -1399.763)" fill="#d07efc"/>
      </g>
      <rect id="Rectángulo_7371" data-name="Rectángulo 7371" width="71.884" height="3.356" transform="translate(11.652 29.217)" fill="#fff"/>
      <rect id="Rectángulo_7372" data-name="Rectángulo 7372" width="71.884" height="3.356" transform="translate(11.652 43.065)" fill="#fff"/>
      <rect id="Rectángulo_7373" data-name="Rectángulo 7373" width="71.884" height="3.356" transform="translate(11.652 56.913)" fill="#fff"/>
    </g>
    <g id="Grupo_86316" data-name="Grupo 86316" transform="translate(836.772 1402.566)">
      <circle id="Elipse_8282" data-name="Elipse 8282" cx="11.319" cy="11.319" r="11.319" transform="translate(0 14.826) rotate(-40.913)" fill="#fff"/>
      <g id="Grupo_86315" data-name="Grupo 86315" transform="translate(38.415 4.93)">
        <rect id="Rectángulo_7374" data-name="Rectángulo 7374" width="50.265" height="3.247" fill="#fff"/>
        <rect id="Rectángulo_7375" data-name="Rectángulo 7375" width="50.265" height="3.247" transform="translate(0 9.601)" fill="#fff"/>
        <rect id="Rectángulo_7376" data-name="Rectángulo 7376" width="27.815" height="3.247" transform="translate(0 19.108)" fill="#fff"/>
      </g>
    </g>
  </g>
</svg>
