<svg xmlns="http://www.w3.org/2000/svg" width="539.394" height="386.804" viewBox="0 0 539.394 386.804">
  <g id="Grupo_87416" data-name="Grupo 87416" transform="translate(-924.605 -1963.196)">
    <path id="Trazado_151690" data-name="Trazado 151690" d="M1468.581,4144.686A177.319,177.319,0,0,1,1750.1,4001.23v286.911a177.319,177.319,0,0,1-281.522-143.456Z" transform="translate(-286.103 -2004.187)" fill="#7ff9ff"/>
    <g id="Grupo_86482" data-name="Grupo 86482" transform="translate(1152 1985.892)">
      <path id="Trazado_151692" data-name="Trazado 151692" d="M2715.708,3184.714l-20.993,61.87c-.819,2.413.884,5.18,3.794,6.167l53.814,18.259a6.52,6.52,0,0,0,2.069.351,4.867,4.867,0,0,0,4.452-2.386,3.408,3.408,0,0,0,.24-.551l20.993-61.87c.819-2.413-.884-5.178-3.792-6.165l-53.813-18.259C2719.56,3181.143,2716.526,3182.3,2715.708,3184.714Z" transform="translate(-2694.51 -3089.732)" fill="#332938" opacity="0.31"/>
      <path id="Trazado_151693" data-name="Trazado 151693" d="M2585.86,2842.346l57.078,21.3a11.5,11.5,0,0,1,6.755,14.8l-50.358,134.941a11.5,11.5,0,0,1-14.8,6.755l-57.078-21.3a11.5,11.5,0,0,1-6.755-14.8l50.358-134.941A11.5,11.5,0,0,1,2585.86,2842.346Z" transform="translate(-2517.422 -2841.617)" fill="#547896"/>
      <path id="Trazado_151694" data-name="Trazado 151694" d="M2591.356,3024.436a10.066,10.066,0,0,0,12.937-5.905l49.718-133.226a10.067,10.067,0,0,0-5.905-12.937l-55.892-20.858a10.067,10.067,0,0,0-12.937,5.906l-49.717,133.226a10.066,10.066,0,0,0,5.9,12.937Z" transform="translate(-2524.067 -2848.37)" fill="#ffc8b7"/>
      <path id="Trazado_151695" data-name="Trazado 151695" d="M2536.159,2857.4l-7.256,19.443,74.732,27.889,7.256-19.443a10.063,10.063,0,0,0-5.911-12.936l-55.9-20.859A10.06,10.06,0,0,0,2536.159,2857.4Z" transform="translate(-2480.941 -2848.361)" fill="#619ed7"/>
      <path id="Rectángulo_7700" data-name="Rectángulo 7700" d="M0,0H22.706a0,0,0,0,1,0,0V5.808A11.353,11.353,0,0,1,11.353,17.161h0A11.353,11.353,0,0,1,0,5.808V0A0,0,0,0,1,0,0Z" transform="translate(117.268 54.349) rotate(-159.535)" fill="#edbdb2"/>
      <path id="Trazado_151696" data-name="Trazado 151696" d="M2601.163,2946.885,2558.7,3060.67a10.09,10.09,0,0,0,5.894,12.938l55.9,20.859a10.072,10.072,0,0,0,12.058-4.116,9.893,9.893,0,0,0,.885-1.792l42.463-113.786Z" transform="translate(-2553.201 -2918.4)" fill="#fff"/>
      <g id="Grupo_86478" data-name="Grupo 86478" transform="translate(16.911 51.771)">
        <g id="Grupo_86477" data-name="Grupo 86477" transform="translate(0 0)">
          <g id="Grupo_86475" data-name="Grupo 86475" transform="translate(0 49.749)">
            <rect id="Rectángulo_7701" data-name="Rectángulo 7701" width="2.416" height="2.416" transform="translate(74.811 17.934) rotate(-159.535)" fill="#b0b7c7"/>
            <rect id="Rectángulo_7702" data-name="Rectángulo 7702" width="2.416" height="2.416" transform="matrix(-0.937, -0.35, 0.35, -0.937, 72.997, 22.794)" fill="#b0b7c7"/>
            <rect id="Rectángulo_7703" data-name="Rectángulo 7703" width="2.416" height="2.416" transform="translate(71.183 27.654) rotate(-159.535)" fill="#b0b7c7"/>
            <rect id="Rectángulo_7704" data-name="Rectángulo 7704" width="2.416" height="2.416" transform="translate(69.369 32.514) rotate(-159.535)" fill="#b0b7c7"/>
            <rect id="Rectángulo_7705" data-name="Rectángulo 7705" width="2.416" height="2.416" transform="translate(67.556 37.374) rotate(-159.535)" fill="#b0b7c7"/>
            <rect id="Rectángulo_7706" data-name="Rectángulo 7706" width="2.416" height="2.416" transform="matrix(-0.937, -0.35, 0.35, -0.937, 65.742, 42.234)" fill="#b0b7c7"/>
            <rect id="Rectángulo_7707" data-name="Rectángulo 7707" width="2.416" height="2.416" transform="matrix(-0.937, -0.35, 0.35, -0.937, 63.928, 47.094)" fill="#b0b7c7"/>
            <rect id="Rectángulo_7708" data-name="Rectángulo 7708" width="2.416" height="2.416" transform="translate(62.115 51.955) rotate(-159.535)" fill="#b0b7c7"/>
            <rect id="Rectángulo_7709" data-name="Rectángulo 7709" width="2.416" height="2.416" transform="translate(60.301 56.815) rotate(-159.535)" fill="#b0b7c7"/>
            <rect id="Rectángulo_7710" data-name="Rectángulo 7710" width="2.416" height="2.416" transform="translate(58.487 61.675) rotate(-159.535)" fill="#b0b7c7"/>
            <rect id="Rectángulo_7711" data-name="Rectángulo 7711" width="15.275" height="2.416" transform="matrix(-0.937, -0.35, 0.35, -0.937, 58.666, 11.908)" fill="#edbdb2"/>
            <rect id="Rectángulo_7712" data-name="Rectángulo 7712" width="25.833" height="2.416" transform="matrix(-0.937, -0.35, 0.35, -0.937, 57.046, 16.247)" fill="#ffca80"/>
            <rect id="Rectángulo_7713" data-name="Rectángulo 7713" width="3.353" height="2.416" transform="translate(41.46 16.562) rotate(-159.535)" fill="#f37453"/>
            <rect id="Rectángulo_7714" data-name="Rectángulo 7714" width="5.029" height="2.416" transform="matrix(-0.937, -0.35, 0.35, -0.937, 37.403, 20.585)" fill="#f37453"/>
            <rect id="Rectángulo_7715" data-name="Rectángulo 7715" width="5.029" height="2.416" transform="translate(35.589 25.445) rotate(-159.535)" fill="#f37453"/>
            <rect id="Rectángulo_7716" data-name="Rectángulo 7716" width="5.029" height="2.416" transform="translate(36.356 31.268) rotate(-159.535)" fill="#f37453"/>
            <rect id="Rectángulo_7717" data-name="Rectángulo 7717" width="13.179" height="2.416" transform="matrix(-0.937, -0.35, 0.35, -0.937, 49.546, 36.19)" fill="#ffca80"/>
            <rect id="Rectángulo_7718" data-name="Rectángulo 7718" width="1.956" height="2.416" transform="matrix(-0.937, -0.35, 0.35, -0.937, 31.962, 35.165)" fill="#f37453"/>
            <rect id="Rectángulo_7719" data-name="Rectángulo 7719" width="5.029" height="2.416" transform="translate(11.506 16.457) rotate(-159.535)" fill="#f37453"/>
            <rect id="Rectángulo_7720" data-name="Rectángulo 7720" width="2.164" height="2.416" transform="matrix(-0.937, -0.35, 0.35, -0.937, 29.905, 23.324)" fill="#edbdb2"/>
            <rect id="Rectángulo_7721" data-name="Rectángulo 7721" width="15.808" height="2.416" transform="matrix(-0.937, -0.35, 0.35, -0.937, 27.164, 22.301)" fill="#edbdb2"/>
            <rect id="Rectángulo_7722" data-name="Rectángulo 7722" width="2.874" height="2.416" transform="translate(31.943 18.547) rotate(-159.535)" fill="#619ed7"/>
            <rect id="Rectángulo_7723" data-name="Rectángulo 7723" width="2.874" height="2.416" transform="matrix(-0.937, -0.35, 0.35, -0.937, 19.452, 13.886)" fill="#ffd0ab"/>
            <rect id="Rectángulo_7724" data-name="Rectángulo 7724" width="8.903" height="2.416" transform="matrix(-0.937, -0.35, 0.35, -0.937, 28.578, 17.291)" fill="#edbdb2"/>
            <rect id="Rectángulo_7725" data-name="Rectángulo 7725" width="6.069" height="2.416" transform="matrix(-0.937, -0.35, 0.35, -0.937, 29.194, 34.132)" fill="#edbdb2"/>
            <rect id="Rectángulo_7726" data-name="Rectángulo 7726" width="4.471" height="2.416" transform="translate(13.71 28.354) rotate(-159.535)" fill="#ffd0ab"/>
            <rect id="Rectángulo_7727" data-name="Rectángulo 7727" width="8.903" height="2.416" transform="translate(22.836 31.759) rotate(-159.535)" fill="#619ed7"/>
            <rect id="Rectángulo_7728" data-name="Rectángulo 7728" width="2.115" height="2.416" transform="matrix(-0.937, -0.35, 0.35, -0.937, 23.42, 3.699)" fill="#ffd0ab"/>
            <rect id="Rectángulo_7729" data-name="Rectángulo 7729" width="7.984" height="2.416" transform="matrix(-0.937, -0.35, 0.35, -0.937, 31.909, 6.867)" fill="#619ed7"/>
            <rect id="Rectángulo_7730" data-name="Rectángulo 7730" width="3.353" height="2.416" transform="translate(30.148 40.025) rotate(-159.535)" fill="#f37453"/>
            <rect id="Rectángulo_7731" data-name="Rectángulo 7731" width="5.31" height="2.416" transform="translate(19.079 35.895) rotate(-159.535)" fill="#ffd0ab"/>
            <rect id="Rectángulo_7732" data-name="Rectángulo 7732" width="6.386" height="2.416" transform="translate(26.072 38.504) rotate(-159.535)" fill="#619ed7"/>
            <rect id="Rectángulo_7733" data-name="Rectángulo 7733" width="4.95" height="2.416" transform="translate(37.459 3.995) rotate(-159.535)" fill="#edbdb2"/>
            <rect id="Rectángulo_7734" data-name="Rectángulo 7734" width="6.705" height="2.416" transform="translate(28.14 45.407) rotate(-159.535)" fill="#edbdb2"/>
            <rect id="Rectángulo_7735" data-name="Rectángulo 7735" width="9.743" height="2.416" transform="translate(26.52 49.746) rotate(-159.535)" fill="#f37453"/>
            <rect id="Rectángulo_7736" data-name="Rectángulo 7736" width="10.103" height="2.416" transform="matrix(-0.937, -0.35, 0.35, -0.937, 9.465, 43.381)" fill="#ffd0ab"/>
            <rect id="Rectángulo_7737" data-name="Rectángulo 7737" width="6.386" height="2.416" transform="translate(16.458 45.99) rotate(-159.535)" fill="#619ed7"/>
            <rect id="Rectángulo_7738" data-name="Rectángulo 7738" width="3.353" height="2.416" transform="translate(20.511 42.56) rotate(-159.535)" fill="#edbdb2"/>
          </g>
          <g id="Grupo_86476" data-name="Grupo 86476" transform="translate(25.975)">
            <rect id="Rectángulo_7739" data-name="Rectángulo 7739" width="2.416" height="2.416" transform="translate(68.95 13.783) rotate(-159.535)" fill="#b0b7c7"/>
            <rect id="Rectángulo_7740" data-name="Rectángulo 7740" width="2.416" height="2.416" transform="translate(67.136 18.643) rotate(-159.535)" fill="#b0b7c7"/>
            <rect id="Rectángulo_7741" data-name="Rectángulo 7741" width="2.416" height="2.416" transform="matrix(-0.937, -0.35, 0.35, -0.937, 65.322, 23.503)" fill="#b0b7c7"/>
            <rect id="Rectángulo_7742" data-name="Rectángulo 7742" width="2.416" height="2.416" transform="matrix(-0.937, -0.35, 0.35, -0.937, 63.508, 28.363)" fill="#b0b7c7"/>
            <rect id="Rectángulo_7743" data-name="Rectángulo 7743" width="2.416" height="2.416" transform="translate(61.695 33.223) rotate(-159.535)" fill="#b0b7c7"/>
            <rect id="Rectángulo_7744" data-name="Rectángulo 7744" width="2.416" height="2.416" transform="translate(59.881 38.084) rotate(-159.535)" fill="#b0b7c7"/>
            <rect id="Rectángulo_7745" data-name="Rectángulo 7745" width="2.416" height="2.416" transform="translate(58.067 42.944) rotate(-159.535)" fill="#b0b7c7"/>
            <rect id="Rectángulo_7746" data-name="Rectángulo 7746" width="2.416" height="2.416" transform="matrix(-0.937, -0.35, 0.35, -0.937, 56.253, 47.804)" fill="#b0b7c7"/>
            <rect id="Rectángulo_7747" data-name="Rectángulo 7747" width="2.416" height="2.416" transform="translate(54.44 52.664) rotate(-159.535)" fill="#b0b7c7"/>
            <rect id="Rectángulo_7748" data-name="Rectángulo 7748" width="2.416" height="2.416" transform="translate(52.626 57.524) rotate(-159.535)" fill="#b0b7c7"/>
            <rect id="Rectángulo_7749" data-name="Rectángulo 7749" width="7.164" height="2.416" transform="matrix(-0.937, -0.35, 0.35, -0.937, 61.646, 11.057)" fill="#edbdb2"/>
            <rect id="Rectángulo_7750" data-name="Rectángulo 7750" width="12.116" height="2.416" transform="translate(60.027 15.396) rotate(-159.535)" fill="#ffca80"/>
            <rect id="Rectángulo_7751" data-name="Rectángulo 7751" width="3.582" height="2.416" transform="matrix(-0.937, -0.35, 0.35, -0.937, 58.019, 20.778)" fill="#f37453"/>
            <rect id="Rectángulo_7752" data-name="Rectángulo 7752" width="5.373" height="2.416" transform="matrix(-0.937, -0.35, 0.35, -0.937, 53.808, 24.743)" fill="#f37453"/>
            <rect id="Rectángulo_7753" data-name="Rectángulo 7753" width="5.373" height="2.416" transform="matrix(-0.937, -0.35, 0.35, -0.937, 51.994, 29.603)" fill="#f37453"/>
            <rect id="Rectángulo_7754" data-name="Rectángulo 7754" width="5.373" height="2.416" transform="matrix(-0.937, -0.35, 0.35, -0.937, 52.937, 35.492)" fill="#f37453"/>
            <rect id="Rectángulo_7755" data-name="Rectángulo 7755" width="2.09" height="2.416" transform="translate(48.367 39.324) rotate(-159.535)" fill="#f37453"/>
            <rect id="Rectángulo_7756" data-name="Rectángulo 7756" width="10.719" height="2.416" transform="matrix(-0.937, -0.35, 0.35, -0.937, 10.043, 13.948)" fill="#f37453"/>
            <rect id="Rectángulo_7757" data-name="Rectángulo 7757" width="5.373" height="2.416" transform="matrix(-0.937, -0.35, 0.35, -0.937, 45.921, 27.337)" fill="#edbdb2"/>
            <rect id="Rectángulo_7758" data-name="Rectángulo 7758" width="27.511" height="2.416" transform="translate(37.624 24.241) rotate(-159.535)" fill="#edbdb2"/>
            <rect id="Rectángulo_7759" data-name="Rectángulo 7759" width="3.07" height="2.416" transform="matrix(-0.937, -0.35, 0.35, -0.937, 47.975, 22.566)" fill="#619ed7"/>
            <rect id="Rectángulo_7760" data-name="Rectángulo 7760" width="6.125" height="2.416" transform="translate(24.928 13.966) rotate(-159.535)" fill="#ffd0ab"/>
            <rect id="Rectángulo_7761" data-name="Rectángulo 7761" width="18.975" height="2.416" transform="matrix(-0.937, -0.35, 0.35, -0.937, 44.379, 21.225)" fill="#edbdb2"/>
            <rect id="Rectángulo_7762" data-name="Rectángulo 7762" width="6.484" height="2.416" transform="translate(45.41 38.22) rotate(-159.535)" fill="#619ed7"/>
            <rect id="Rectángulo_7763" data-name="Rectángulo 7763" width="4.777" height="2.416" transform="translate(28.866 32.046) rotate(-159.535)" fill="#ffd0ab"/>
            <rect id="Rectángulo_7764" data-name="Rectángulo 7764" width="17.952" height="2.416" transform="matrix(-0.937, -0.35, 0.35, -0.937, 28.235, 37.348)" fill="#b0b7c7"/>
            <rect id="Rectángulo_7765" data-name="Rectángulo 7765" width="9.511" height="2.416" transform="translate(38.617 35.685) rotate(-159.535)" fill="#edbdb2"/>
            <rect id="Rectángulo_7766" data-name="Rectángulo 7766" width="4.509" height="2.416" transform="translate(29.061 3.84) rotate(-159.535)" fill="#ffd0ab"/>
            <rect id="Rectángulo_7767" data-name="Rectángulo 7767" width="17.017" height="2.416" transform="matrix(-0.937, -0.35, 0.35, -0.937, 47.156, 10.593)" fill="#619ed7"/>
            <rect id="Rectángulo_7768" data-name="Rectángulo 7768" width="3.582" height="2.416" transform="matrix(-0.937, -0.35, 0.35, -0.937, 46.553, 44.184)" fill="#f37453"/>
            <rect id="Rectángulo_7769" data-name="Rectángulo 7769" width="5.674" height="2.416" transform="translate(34.727 39.771) rotate(-159.535)" fill="#ffd0ab"/>
            <rect id="Rectángulo_7770" data-name="Rectángulo 7770" width="6.823" height="2.416" transform="translate(42.198 42.559) rotate(-159.535)" fill="#619ed7"/>
            <rect id="Rectángulo_7771" data-name="Rectángulo 7771" width="5.289" height="2.416" transform="translate(53.496 8.016) rotate(-159.535)" fill="#edbdb2"/>
            <rect id="Rectángulo_7772" data-name="Rectángulo 7772" width="7.164" height="2.416" transform="matrix(-0.937, -0.35, 0.35, -0.937, 44.545, 49.565)" fill="#edbdb2"/>
            <rect id="Rectángulo_7773" data-name="Rectángulo 7773" width="10.409" height="2.416" transform="matrix(-0.937, -0.35, 0.35, -0.937, 42.926, 53.904)" fill="#f37453"/>
            <rect id="Rectángulo_7774" data-name="Rectángulo 7774" width="10.794" height="2.416" transform="translate(24.704 47.104) rotate(-159.535)" fill="#ffd0ab"/>
            <rect id="Rectángulo_7775" data-name="Rectángulo 7775" width="6.823" height="2.416" transform="translate(32.175 49.892) rotate(-159.535)" fill="#619ed7"/>
            <rect id="Rectángulo_7776" data-name="Rectángulo 7776" width="3.582" height="2.416" transform="matrix(-0.937, -0.35, 0.35, -0.937, 36.395, 46.524)" fill="#edbdb2"/>
          </g>
        </g>
      </g>
      <g id="Grupo_86479" data-name="Grupo 86479" transform="translate(105.437 39.701)">
        <path id="Trazado_151697" data-name="Trazado 151697" d="M2589.706,2990.506l6.222,2.322a1.121,1.121,0,0,0,1.443-.658h0a1.122,1.122,0,0,0-.659-1.443l-6.222-2.322a1.121,1.121,0,0,0-1.443.659h0A1.121,1.121,0,0,0,2589.706,2990.506Z" transform="translate(-2588.55 -2988.334)" fill="#fae2d7"/>
        <path id="Trazado_151698" data-name="Trazado 151698" d="M2592.93,3004.3l4.635,1.73a.41.41,0,0,0,.527-.24h0a.409.409,0,0,0-.24-.527l-4.635-1.73a.41.41,0,0,0-.527.24h0A.409.409,0,0,0,2592.93,3004.3Z" transform="translate(-2590.225 -2999.402)" fill="#fae2d7"/>
        <path id="Trazado_151699" data-name="Trazado 151699" d="M2595.544,3008.917l6.367,2.376a.41.41,0,0,0,.527-.24h0a.41.41,0,0,0-.241-.527l-6.367-2.376a.409.409,0,0,0-.527.24h0A.41.41,0,0,0,2595.544,3008.917Z" transform="translate(-2595.278 -3002.768)" fill="#fae2d7"/>
      </g>
      <g id="Grupo_86480" data-name="Grupo 86480" transform="translate(84.535 31.9)">
        <path id="Trazado_151700" data-name="Trazado 151700" d="M2666.95,2961.68l6.222,2.322a1.122,1.122,0,0,0,1.443-.659h0a1.121,1.121,0,0,0-.659-1.443l-6.222-2.322a1.121,1.121,0,0,0-1.443.659h0A1.121,1.121,0,0,0,2666.95,2961.68Z" transform="translate(-2665.793 -2959.507)" fill="#fae2d7"/>
        <path id="Trazado_151701" data-name="Trazado 151701" d="M2670.175,2975.474l4.635,1.73a.41.41,0,0,0,.527-.241h0a.41.41,0,0,0-.241-.527l-4.635-1.729a.409.409,0,0,0-.527.24h0A.41.41,0,0,0,2670.175,2975.474Z" transform="translate(-2667.469 -2970.575)" fill="#fae2d7"/>
        <path id="Trazado_151702" data-name="Trazado 151702" d="M2672.789,2980.09l6.368,2.376a.41.41,0,0,0,.527-.241h0a.41.41,0,0,0-.24-.527l-6.368-2.376a.409.409,0,0,0-.527.241h0A.409.409,0,0,0,2672.789,2980.09Z" transform="translate(-2672.522 -2973.942)" fill="#fae2d7"/>
      </g>
      <g id="Grupo_86481" data-name="Grupo 86481" transform="translate(63.633 24.1)">
        <path id="Trazado_151703" data-name="Trazado 151703" d="M2744.194,2932.853l6.222,2.322a1.122,1.122,0,0,0,1.443-.658h0a1.121,1.121,0,0,0-.659-1.443l-6.222-2.322a1.121,1.121,0,0,0-1.443.658h0A1.121,1.121,0,0,0,2744.194,2932.853Z" transform="translate(-2743.038 -2930.681)" fill="#fae2d7"/>
        <path id="Trazado_151704" data-name="Trazado 151704" d="M2747.419,2946.648l4.635,1.73a.409.409,0,0,0,.527-.24h0a.41.41,0,0,0-.241-.527l-4.635-1.73a.41.41,0,0,0-.527.24h0A.41.41,0,0,0,2747.419,2946.648Z" transform="translate(-2744.713 -2941.749)" fill="#fae2d7"/>
        <path id="Trazado_151705" data-name="Trazado 151705" d="M2750.033,2951.264l6.367,2.376a.41.41,0,0,0,.527-.24h0a.409.409,0,0,0-.24-.527l-6.368-2.376a.41.41,0,0,0-.527.241h0A.41.41,0,0,0,2750.033,2951.264Z" transform="translate(-2749.767 -2945.115)" fill="#fae2d7"/>
      </g>
    </g>
    <g id="Grupo_86474" data-name="Grupo 86474" transform="translate(-702.236 -849.883)">
      <g id="Grupo_86466" data-name="Grupo 86466" transform="translate(1626.842 2835.774)">
        <g id="Grupo_86465" data-name="Grupo 86465">
          <g id="Grupo_86461" data-name="Grupo 86461">
            <path id="Trazado_151677" data-name="Trazado 151677" d="M1969.72,3083.408l-161.674,115.976a5.827,5.827,0,0,1-8.132-1.339l-166.892-232.653a5.827,5.827,0,0,1,1.338-8.132l161.674-115.976a5.827,5.827,0,0,1,8.132,1.339l166.892,232.653A5.827,5.827,0,0,1,1969.72,3083.408Z" transform="translate(-1629.276 -2837.887)" fill="#332938"/>
            <rect id="Rectángulo_7649" data-name="Rectángulo 7649" width="207.842" height="64.454" transform="translate(137.151 310.864) rotate(-35.654)" fill="#ffca80"/>
            <path id="Rectángulo_7650" data-name="Rectángulo 7650" d="M14.936,0H196.119a14.936,14.936,0,0,1,14.936,14.936V31.819a0,0,0,0,1,0,0H0a0,0,0,0,1,0,0V14.936A14.936,14.936,0,0,1,14.936,0Z" transform="matrix(0.813, -0.583, 0.583, 0.813, 0, 123.02)" fill="#547896"/>
            <path id="Trazado_151678" data-name="Trazado 151678" d="M1969.213,3083.251l-161.674,115.976a7.358,7.358,0,0,1-10.256-1.687l-166.892-232.654a7.358,7.358,0,0,1,1.688-10.256l161.674-115.976a7.358,7.358,0,0,1,10.256,1.688L1970.9,3073A7.358,7.358,0,0,1,1969.213,3083.251ZM1633.854,2957.1a4.311,4.311,0,0,0-.989,6.008l166.892,232.653a4.311,4.311,0,0,0,6.008.989l161.674-115.976a4.309,4.309,0,0,0,.988-6.007l-166.892-232.653a4.309,4.309,0,0,0-6.008-.989Z" transform="translate(-1627.882 -2836.495)" fill="#547896"/>
          </g>
          <g id="Grupo_86462" data-name="Grupo 86462" transform="translate(146.431 30.456)">
            <path id="Trazado_151679" data-name="Trazado 151679" d="M1908.442,2901.405a4.574,4.574,0,1,0,1.051-6.383A4.573,4.573,0,0,0,1908.442,2901.405Z" transform="translate(-1907.584 -2894.165)" fill="#fff"/>
          </g>
          <g id="Grupo_86463" data-name="Grupo 86463" transform="translate(161.517 19.634)">
            <path id="Trazado_151680" data-name="Trazado 151680" d="M1937.364,2880.657a4.574,4.574,0,1,0,1.051-6.382A4.574,4.574,0,0,0,1937.364,2880.657Z" transform="translate(-1936.506 -2873.417)" fill="#e68466"/>
          </g>
          <g id="Grupo_86464" data-name="Grupo 86464" transform="translate(130.366 39.214)">
            <circle id="Elipse_8310" data-name="Elipse 8310" cx="4.574" cy="4.574" r="4.574" transform="translate(0 8.079) rotate(-62.028)" fill="#fff"/>
          </g>
        </g>
      </g>
      <g id="Grupo_86470" data-name="Grupo 86470" transform="translate(1678.775 2905.768)">
        <g id="Grupo_86469" data-name="Grupo 86469" transform="translate(0 0)">
          <g id="Grupo_86467" data-name="Grupo 86467" transform="translate(52.882 86.856)">
            <rect id="Rectángulo_7651" data-name="Rectángulo 7651" width="5.224" height="5.224" transform="translate(0 67.961) rotate(-35.653)" fill="#b0b7c7"/>
            <rect id="Rectángulo_7652" data-name="Rectángulo 7652" width="5.224" height="5.224" transform="translate(6.537 77.073) rotate(-35.653)" fill="#b0b7c7"/>
            <rect id="Rectángulo_7653" data-name="Rectángulo 7653" width="5.224" height="5.224" transform="translate(13.073 86.185) rotate(-35.654)" fill="#b0b7c7"/>
            <rect id="Rectángulo_7654" data-name="Rectángulo 7654" width="5.224" height="5.224" transform="translate(19.61 95.298) rotate(-35.653)" fill="#b0b7c7"/>
            <rect id="Rectángulo_7655" data-name="Rectángulo 7655" width="5.224" height="5.224" transform="matrix(0.813, -0.583, 0.583, 0.813, 26.147, 104.41)" fill="#b0b7c7"/>
            <rect id="Rectángulo_7656" data-name="Rectángulo 7656" width="34.855" height="5.224" transform="matrix(0.813, -0.583, 0.583, 0.813, 35.609, 42.417)" fill="#fff"/>
            <rect id="Rectángulo_7657" data-name="Rectángulo 7657" width="58.947" height="5.224" transform="matrix(0.813, -0.583, 0.583, 0.813, 41.444, 50.552)" fill="#ffca80"/>
            <rect id="Rectángulo_7658" data-name="Rectángulo 7658" width="7.65" height="5.224" transform="matrix(0.813, -0.583, 0.583, 0.813, 75.553, 41.366)" fill="#f37453"/>
            <rect id="Rectángulo_7659" data-name="Rectángulo 7659" width="11.476" height="5.224" transform="matrix(0.813, -0.583, 0.583, 0.813, 86.53, 47.293)" fill="#f37453"/>
            <rect id="Rectángulo_7660" data-name="Rectángulo 7660" width="11.476" height="5.224" transform="translate(93.067 56.405) rotate(-35.653)" fill="#f37453"/>
            <rect id="Rectángulo_7661" data-name="Rectángulo 7661" width="11.476" height="5.224" transform="matrix(0.813, -0.583, 0.583, 0.813, 140.73, 22.214)" fill="#f37453"/>
            <rect id="Rectángulo_7662" data-name="Rectángulo 7662" width="4.937" height="5.224" transform="matrix(0.813, -0.583, 0.583, 0.813, 104.316, 48.336)" fill="#fff"/>
            <rect id="Rectángulo_7663" data-name="Rectángulo 7663" width="36.073" height="5.224" transform="matrix(0.813, -0.583, 0.583, 0.813, 109.741, 44.444)" fill="#fff"/>
            <rect id="Rectángulo_7664" data-name="Rectángulo 7664" width="6.558" height="5.224" transform="matrix(0.813, -0.583, 0.583, 0.813, 97.335, 39.542)" fill="#619ed7"/>
            <rect id="Rectángulo_7665" data-name="Rectángulo 7665" width="6.558" height="5.224" transform="matrix(0.813, -0.583, 0.583, 0.813, 122.057, 21.808)" fill="#ffd0ab"/>
            <rect id="Rectángulo_7666" data-name="Rectángulo 7666" width="20.315" height="5.224" transform="translate(103.996 34.764) rotate(-35.654)" fill="#fff"/>
            <rect id="Rectángulo_7667" data-name="Rectángulo 7667" width="4.827" height="5.224" transform="matrix(0.813, -0.583, 0.583, 0.813, 107.993, 2.814)" fill="#ffd0ab"/>
            <rect id="Rectángulo_7668" data-name="Rectángulo 7668" width="18.218" height="5.224" transform="matrix(0.813, -0.583, 0.583, 0.813, 91.192, 14.866)" fill="#619ed7"/>
            <rect id="Rectángulo_7669" data-name="Rectángulo 7669" width="11.296" height="5.224" transform="translate(77.577 12.311) rotate(-35.653)" fill="#fff"/>
          </g>
          <g id="Grupo_86468" data-name="Grupo 86468">
            <rect id="Rectángulo_7670" data-name="Rectángulo 7670" width="5.224" height="5.224" transform="translate(0 81.097) rotate(-35.653)" fill="#b0b7c7"/>
            <rect id="Rectángulo_7671" data-name="Rectángulo 7671" width="5.224" height="5.224" transform="translate(6.537 90.209) rotate(-35.654)" fill="#b0b7c7"/>
            <rect id="Rectángulo_7672" data-name="Rectángulo 7672" width="5.224" height="5.224" transform="translate(13.073 99.322) rotate(-35.653)" fill="#b0b7c7"/>
            <rect id="Rectángulo_7673" data-name="Rectángulo 7673" width="5.224" height="5.224" transform="translate(19.61 108.434) rotate(-35.654)" fill="#b0b7c7"/>
            <rect id="Rectángulo_7674" data-name="Rectángulo 7674" width="5.224" height="5.224" transform="translate(26.147 117.546) rotate(-35.653)" fill="#b0b7c7"/>
            <rect id="Rectángulo_7675" data-name="Rectángulo 7675" width="5.224" height="5.224" transform="translate(32.683 126.659) rotate(-35.653)" fill="#b0b7c7"/>
            <rect id="Rectángulo_7676" data-name="Rectángulo 7676" width="5.224" height="5.224" transform="translate(39.22 135.771) rotate(-35.654)" fill="#b0b7c7"/>
            <rect id="Rectángulo_7677" data-name="Rectángulo 7677" width="12.261" height="5.224" transform="matrix(0.813, -0.583, 0.583, 0.813, 22.854, 64.703)" fill="#f37453"/>
            <rect id="Rectángulo_7678" data-name="Rectángulo 7678" width="12.261" height="5.224" transform="matrix(0.813, -0.583, 0.583, 0.813, 29.391, 73.815)" fill="#f37453"/>
            <rect id="Rectángulo_7679" data-name="Rectángulo 7679" width="12.261" height="5.224" transform="matrix(0.813, -0.583, 0.583, 0.813, 30.472, 86.841)" fill="#f37453"/>
            <rect id="Rectángulo_7680" data-name="Rectángulo 7680" width="4.768" height="5.224" transform="matrix(0.813, -0.583, 0.583, 0.813, 42.464, 92.039)" fill="#f37453"/>
            <rect id="Rectángulo_7681" data-name="Rectángulo 7681" width="24.46" height="5.224" transform="matrix(0.813, -0.583, 0.583, 0.813, 112.416, 14.257)" fill="#f37453"/>
            <rect id="Rectángulo_7682" data-name="Rectángulo 7682" width="12.261" height="5.224" transform="matrix(0.813, -0.583, 0.583, 0.813, 41.409, 65.194)" fill="#fff"/>
            <rect id="Rectángulo_7683" data-name="Rectángulo 7683" width="62.777" height="5.224" transform="translate(57.831 53.414) rotate(-35.654)" fill="#fff"/>
            <rect id="Rectángulo_7684" data-name="Rectángulo 7684" width="7.006" height="5.224" transform="matrix(0.813, -0.583, 0.583, 0.813, 34.398, 56.421)" fill="#619ed7"/>
            <rect id="Rectángulo_7685" data-name="Rectángulo 7685" width="13.977" height="5.224" transform="translate(80.01 23.702) rotate(-35.653)" fill="#ffd0ab"/>
            <rect id="Rectángulo_7686" data-name="Rectángulo 7686" width="43.3" height="5.224" transform="translate(41.514 51.317) rotate(-35.653)" fill="#fff"/>
            <rect id="Rectángulo_7687" data-name="Rectángulo 7687" width="14.795" height="5.224" transform="matrix(0.813, -0.583, 0.583, 0.813, 48.315, 87.842)" fill="#619ed7"/>
            <rect id="Rectángulo_7688" data-name="Rectángulo 7688" width="10.901" height="5.224" transform="translate(81.057 64.355) rotate(-35.654)" fill="#ffd0ab"/>
            <rect id="Rectángulo_7689" data-name="Rectángulo 7689" width="40.965" height="5.224" transform="matrix(0.813, -0.583, 0.583, 0.813, 85.253, 75.147)" fill="#b0b7c7"/>
            <rect id="Rectángulo_7690" data-name="Rectángulo 7690" width="21.704" height="5.224" transform="matrix(0.813, -0.583, 0.583, 0.813, 61.761, 78.197)" fill="#fff"/>
            <rect id="Rectángulo_7691" data-name="Rectángulo 7691" width="8.174" height="5.224" transform="matrix(0.813, -0.583, 0.583, 0.813, 49.001, 101.152)" fill="#f37453"/>
            <rect id="Rectángulo_7692" data-name="Rectángulo 7692" width="12.947" height="5.224" transform="matrix(0.813, -0.583, 0.583, 0.813, 72.405, 84.363)" fill="#ffd0ab"/>
            <rect id="Rectángulo_7693" data-name="Rectángulo 7693" width="15.569" height="5.224" transform="translate(57.619 94.97) rotate(-35.654)" fill="#619ed7"/>
            <rect id="Rectángulo_7694" data-name="Rectángulo 7694" width="16.348" height="5.224" transform="matrix(0.813, -0.583, 0.583, 0.813, 56.239, 111.241)" fill="#fff"/>
            <rect id="Rectángulo_7695" data-name="Rectángulo 7695" width="23.752" height="5.224" transform="translate(62.074 119.376) rotate(-35.654)" fill="#f37453"/>
            <rect id="Rectángulo_7696" data-name="Rectángulo 7696" width="24.63" height="5.224" transform="matrix(0.813, -0.583, 0.583, 0.813, 98.137, 93.507)" fill="#ffd0ab"/>
            <rect id="Rectángulo_7697" data-name="Rectángulo 7697" width="15.569" height="5.224" transform="matrix(0.813, -0.583, 0.583, 0.813, 83.351, 104.114)" fill="#619ed7"/>
            <rect id="Rectángulo_7698" data-name="Rectángulo 7698" width="8.174" height="5.224" transform="matrix(0.813, -0.583, 0.583, 0.813, 72.368, 99.671)" fill="#fff"/>
          </g>
        </g>
      </g>
      <path id="Rectángulo_7699" data-name="Rectángulo 7699" d="M0,0H43.713a0,0,0,0,1,0,0V31.428A14.078,14.078,0,0,1,29.635,45.506H14.078A14.078,14.078,0,0,1,0,31.428V0A0,0,0,0,1,0,0Z" transform="translate(1884.531 3060.171) rotate(-35.653)" fill="#619ed7"/>
      <g id="Grupo_86471" data-name="Grupo 86471" transform="translate(1794.409 3129.608)">
        <path id="Trazado_151681" data-name="Trazado 151681" d="M1969.268,3405.12l-15.923,11.423a3.309,3.309,0,0,1-4.618-.76h0a3.31,3.31,0,0,1,.76-4.618l15.923-11.423a3.309,3.309,0,0,1,4.617.76h0A3.308,3.308,0,0,1,1969.268,3405.12Z" transform="translate(-1948.107 -3399.122)" fill="#fff"/>
        <path id="Trazado_151682" data-name="Trazado 151682" d="M1971.623,3425.8l-11.862,8.51a1.209,1.209,0,0,1-1.687-.278h0a1.209,1.209,0,0,1,.278-1.687l11.862-8.51a1.209,1.209,0,0,1,1.687.278h0A1.209,1.209,0,0,1,1971.623,3425.8Z" transform="translate(-1952.767 -3410.836)" fill="#fff"/>
        <path id="Trazado_151683" data-name="Trazado 151683" d="M1982.727,3429l-16.3,11.689a1.209,1.209,0,0,1-1.687-.278h0a1.209,1.209,0,0,1,.278-1.687l16.3-11.69a1.209,1.209,0,0,1,1.687.278h0A1.208,1.208,0,0,1,1982.727,3429Z" transform="translate(-1955.958 -3412.368)" fill="#fff"/>
      </g>
      <g id="Grupo_86472" data-name="Grupo 86472" transform="translate(1847.899 3091.238)">
        <path id="Trazado_151684" data-name="Trazado 151684" d="M2071.821,3331.555l-15.923,11.422a3.31,3.31,0,0,1-4.618-.76h0a3.309,3.309,0,0,1,.761-4.617l15.923-11.422a3.309,3.309,0,0,1,4.618.76h0A3.309,3.309,0,0,1,2071.821,3331.555Z" transform="translate(-2050.66 -3325.557)" fill="#fff"/>
        <path id="Trazado_151685" data-name="Trazado 151685" d="M2074.176,3352.232l-11.862,8.51a1.209,1.209,0,0,1-1.687-.278h0a1.209,1.209,0,0,1,.278-1.687l11.862-8.51a1.209,1.209,0,0,1,1.687.278h0A1.208,1.208,0,0,1,2074.176,3352.232Z" transform="translate(-2055.32 -3337.271)" fill="#fff"/>
        <path id="Trazado_151686" data-name="Trazado 151686" d="M2085.28,3355.435l-16.3,11.69a1.209,1.209,0,0,1-1.687-.278h0a1.209,1.209,0,0,1,.277-1.687l16.3-11.689a1.209,1.209,0,0,1,1.687.277h0A1.209,1.209,0,0,1,2085.28,3355.435Z" transform="translate(-2058.511 -3338.802)" fill="#fff"/>
      </g>
      <g id="Grupo_86473" data-name="Grupo 86473" transform="translate(1901.389 3052.867)">
        <path id="Trazado_151687" data-name="Trazado 151687" d="M2174.374,3257.989l-15.924,11.422a3.308,3.308,0,0,1-4.617-.76h0a3.309,3.309,0,0,1,.76-4.618l15.923-11.422a3.309,3.309,0,0,1,4.618.76h0A3.309,3.309,0,0,1,2174.374,3257.989Z" transform="translate(-2153.213 -3251.991)" fill="#fff"/>
        <path id="Trazado_151688" data-name="Trazado 151688" d="M2176.729,3278.667l-11.862,8.51a1.209,1.209,0,0,1-1.687-.278h0a1.209,1.209,0,0,1,.278-1.687l11.862-8.51a1.21,1.21,0,0,1,1.688.278h0A1.209,1.209,0,0,1,2176.729,3278.667Z" transform="translate(-2157.873 -3263.705)" fill="#fff"/>
        <path id="Trazado_151689" data-name="Trazado 151689" d="M2187.833,3281.87l-16.3,11.689a1.209,1.209,0,0,1-1.687-.278h0a1.209,1.209,0,0,1,.278-1.687l16.3-11.689a1.209,1.209,0,0,1,1.687.278h0A1.209,1.209,0,0,1,2187.833,3281.87Z" transform="translate(-2161.064 -3265.237)" fill="#fff"/>
      </g>
    </g>
  </g>
</svg>
