<svg xmlns="http://www.w3.org/2000/svg" width="501" height="337.01" viewBox="0 0 501 337.01">
  <g id="Grupo_87391" data-name="Grupo 87391" transform="translate(-800 -5947)">
    <path id="Trazado_152267" data-name="Trazado 152267" d="M2487.7,463.884c40.282,19.649,88.791-2.189,101.065-45.294,10.7-37.582,11.856-81.81-11.929-132.831-51.807-111.123-170.193-21.27-196.016-62.491,0,0-51.971-86.722-135.586-22.021s-9.742,254.913,137.76,246.847C2431.723,445.429,2464.994,452.807,2487.7,463.884Z" transform="translate(-1410.177 5791.293)" fill="#befcff"/>
    <g id="Grupo_86714" data-name="Grupo 86714" transform="translate(-37.304 528.634)">
      <g id="Grupo_86704" data-name="Grupo 86704" transform="translate(952.304 5418.367)">
        <g id="Grupo_86703" data-name="Grupo 86703" transform="translate(0 0)">
          <path id="Trazado_152104" data-name="Trazado 152104" d="M1726.532,245.969h0c-8.2-.026-12.155-10.093-6.267-15.954h0a17.216,17.216,0,0,0,.367-24.1l-3.327-3.436a16.647,16.647,0,0,0-23.773-.075h0a9.122,9.122,0,0,1-15.614-6.65h0a16.685,16.685,0,0,0-16.551-17.1l-4.778-.015a17.176,17.176,0,0,0-17.068,16.99h0c-.126,8.315-10.105,12.448-15.815,6.55h0a16.645,16.645,0,0,0-23.772-.075l-3.431,3.415a17.216,17.216,0,0,0-.367,24.1,9.422,9.422,0,0,1-6.751,15.913h0a17.177,17.177,0,0,0-17.068,16.991l-.074,4.844a16.686,16.686,0,0,0,16.551,17.1h0c8.2.026,12.155,10.092,6.267,15.954h0a17.217,17.217,0,0,0-.366,24.1l3.327,3.437a16.645,16.645,0,0,0,23.771.075,9.122,9.122,0,0,1,15.615,6.65,16.684,16.684,0,0,0,16.55,17.1l4.779.015a17.176,17.176,0,0,0,17.069-16.991h0c.127-8.315,10.1-12.448,15.815-6.55h0a16.647,16.647,0,0,0,23.773.075l3.43-3.414a17.216,17.216,0,0,0,.366-24.1h0a9.422,9.422,0,0,1,6.751-15.913h0a17.176,17.176,0,0,0,17.068-16.99l.073-4.845A16.685,16.685,0,0,0,1726.532,245.969Zm-68.869,75.8a56.555,56.555,0,1,1,56.556-56.555A56.555,56.555,0,0,1,1657.663,321.772Z" transform="translate(-1380.766 -178.637)" fill="#f2f2f2"/>
          <path id="Trazado_152108" data-name="Trazado 152108" d="M1556,537.906H1306.084l.867-178.241h249.917Z" transform="translate(-1259.831 -260.892)" fill="#f3feff"/>
          <path id="Trazado_152109" data-name="Trazado 152109" d="M1557.523,352.158H1307.607l.124-25.558h249.916Z" transform="translate(-1260.523 -245.868)" fill="#856de9"/>
          <g id="Grupo_86673" data-name="Grupo 86673" transform="translate(63.319 90.311)">
            <path id="Trazado_152110" data-name="Trazado 152110" d="M1343.762,347.356a3.218,3.218,0,0,1-3.215,3.2,3.181,3.181,0,0,1-3.184-3.2,3.219,3.219,0,0,1,3.215-3.2A3.181,3.181,0,0,1,1343.762,347.356Z" transform="translate(-1337.362 -344.156)" fill="#fff"/>
            <path id="Trazado_152111" data-name="Trazado 152111" d="M1368.335,347.356a3.218,3.218,0,0,1-3.215,3.2,3.181,3.181,0,0,1-3.184-3.2,3.219,3.219,0,0,1,3.215-3.2A3.181,3.181,0,0,1,1368.335,347.356Z" transform="translate(-1348.528 -344.156)" fill="#fff"/>
            <path id="Trazado_152112" data-name="Trazado 152112" d="M1392.911,347.356a3.219,3.219,0,0,1-3.216,3.2,3.181,3.181,0,0,1-3.184-3.2,3.219,3.219,0,0,1,3.215-3.2A3.181,3.181,0,0,1,1392.911,347.356Z" transform="translate(-1359.694 -344.156)" fill="#fff"/>
          </g>
          <g id="Grupo_86680" data-name="Grupo 86680" transform="translate(73.3 114.612)">
            <g id="Grupo_86679" data-name="Grupo 86679">
              <line id="Línea_228" data-name="Línea 228" x1="0.722" y2="131.466" transform="translate(37.382)" fill="none" stroke="#bbf1f3" stroke-linecap="round" stroke-linejoin="round" stroke-width="2"/>
              <line id="Línea_229" data-name="Línea 229" x2="20.126" y2="0.097" transform="translate(3.084 7.593)" fill="none" stroke="#bbf1f3" stroke-linecap="round" stroke-linejoin="round" stroke-width="2"/>
              <line id="Línea_230" data-name="Línea 230" x2="20.126" y2="0.097" transform="translate(0 61.124)" fill="none" stroke="#bbf1f3" stroke-linecap="round" stroke-linejoin="round" stroke-width="2"/>
              <line id="Línea_231" data-name="Línea 231" x2="20.126" y2="0.097" transform="translate(1.008 73.954)" fill="none" stroke="#bbf1f3" stroke-linecap="round" stroke-linejoin="round" stroke-width="2"/>
              <line id="Línea_232" data-name="Línea 232" x2="20.126" y2="0.097" transform="translate(2.082 87.638)" fill="none" stroke="#bbf1f3" stroke-linecap="round" stroke-linejoin="round" stroke-width="2"/>
              <line id="Línea_233" data-name="Línea 233" x2="10.941" y2="0.053" transform="translate(11.242 21.382)" fill="none" stroke="#bbf1f3" stroke-linecap="round" stroke-linejoin="round" stroke-width="2"/>
              <line id="Línea_234" data-name="Línea 234" x2="9.757" y2="0.047" transform="translate(11.398 35.134)" fill="none" stroke="#bbf1f3" stroke-linecap="round" stroke-linejoin="round" stroke-width="2"/>
              <line id="Línea_235" data-name="Línea 235" x2="11.402" y2="0.055" transform="translate(8.726 48.871)" fill="none" stroke="#bbf1f3" stroke-linecap="round" stroke-linejoin="round" stroke-width="2"/>
              <line id="Línea_236" data-name="Línea 236" x2="10.941" y2="0.053" transform="translate(11.218 99.279)" fill="none" stroke="#bbf1f3" stroke-linecap="round" stroke-linejoin="round" stroke-width="2"/>
              <line id="Línea_237" data-name="Línea 237" x2="9.757" y2="0.047" transform="translate(11.375 113.031)" fill="none" stroke="#bbf1f3" stroke-linecap="round" stroke-linejoin="round" stroke-width="2"/>
              <line id="Línea_238" data-name="Línea 238" x2="11.402" y2="0.055" transform="translate(8.703 126.768)" fill="none" stroke="#bbf1f3" stroke-linecap="round" stroke-linejoin="round" stroke-width="2"/>
              <g id="Grupo_86678" data-name="Grupo 86678" transform="translate(49.4 8.365)">
                <line id="Línea_239" data-name="Línea 239" x2="137.093" y2="0.177" fill="none" stroke="#bbf1f3" stroke-linecap="round" stroke-linejoin="round" stroke-width="2"/>
                <g id="Grupo_86674" data-name="Grupo 86674" transform="translate(77.09 18.696)">
                  <line id="Línea_240" data-name="Línea 240" y1="0.329" x2="57.445" fill="none" stroke="#bbf1f3" stroke-linecap="round" stroke-linejoin="round" stroke-width="2"/>
                </g>
                <line id="Línea_241" data-name="Línea 241" x2="39.127" y2="0.05" transform="translate(17.377 18.948)" fill="none" stroke="#bbf1f3" stroke-linecap="round" stroke-linejoin="round" stroke-width="2"/>
                <g id="Grupo_86675" data-name="Grupo 86675" transform="translate(18.933 38.759)">
                  <line id="Línea_242" data-name="Línea 242" x2="116.027" y2="0.15" fill="none" stroke="#bbf1f3" stroke-linecap="round" stroke-linejoin="round" stroke-width="2"/>
                </g>
                <line id="Línea_243" data-name="Línea 243" x2="57.519" y2="0.846" transform="translate(75.076 62.02)" fill="none" stroke="#bbf1f3" stroke-linecap="round" stroke-linejoin="round" stroke-width="2"/>
                <line id="Línea_244" data-name="Línea 244" x2="20.845" y2="0.32" transform="translate(43.051 62.017)" fill="none" stroke="#bbf1f3" stroke-linecap="round" stroke-linejoin="round" stroke-width="2"/>
                <line id="Línea_245" data-name="Línea 245" x2="13.414" y2="0.017" transform="translate(20.755 61.95)" fill="none" stroke="#bbf1f3" stroke-linecap="round" stroke-linejoin="round" stroke-width="2"/>
                <g id="Grupo_86676" data-name="Grupo 86676" transform="translate(18.933 90.917)">
                  <line id="Línea_246" data-name="Línea 246" x2="116.027" y2="0.15" fill="none" stroke="#bbf1f3" stroke-linecap="round" stroke-linejoin="round" stroke-width="2"/>
                </g>
                <g id="Grupo_86677" data-name="Grupo 86677" transform="translate(18.933 117.14)">
                  <line id="Línea_247" data-name="Línea 247" x2="116.027" y2="0.15" fill="none" stroke="#bbf1f3" stroke-linecap="round" stroke-linejoin="round" stroke-width="2"/>
                </g>
              </g>
            </g>
          </g>
          <g id="Grupo_86681" data-name="Grupo 86681" transform="translate(175.592 173.632)">
            <path id="Trazado_152113" data-name="Trazado 152113" d="M1605.326,557.715l-50.341.5a11.723,11.723,0,0,1-11.827-11.7l-.027-37.212a11.988,11.988,0,0,1,11.811-11.938l50.341-.5a11.724,11.724,0,0,1,11.828,11.7l.027,37.212A11.988,11.988,0,0,1,1605.326,557.715Z" transform="translate(-1543.131 -496.863)" fill="#fff"/>
            <path id="Trazado_152114" data-name="Trazado 152114" d="M1606.334,556.886l-41.316.411a9.623,9.623,0,0,1-9.708-9.605l-.021-30.541a9.838,9.838,0,0,1,9.693-9.8l41.317-.411a9.622,9.622,0,0,1,9.707,9.605l.022,30.541A9.839,9.839,0,0,1,1606.334,556.886Z" transform="translate(-1548.655 -501.442)" fill="#d8fdff"/>
            <path id="Trazado_152115" data-name="Trazado 152115" d="M1616.034,571.966l-7.85-6.267a13.221,13.221,0,0,0-17.549,1.014l-6.624,6.566-9.028-10.066a7.918,7.918,0,0,0-11.789.061l-7.865,8.77v.035a9.622,9.622,0,0,0,9.708,9.605l41.317-.411A9.843,9.843,0,0,0,1616.034,571.966Z" transform="translate(-1548.673 -525.829)" fill="#7ff9ff"/>
            <ellipse id="Elipse_8330" data-name="Elipse 8330" cx="5.008" cy="4.962" rx="5.008" ry="4.962" transform="translate(19.608 18.212) rotate(-45.442)" fill="#fff"/>
          </g>
          <circle id="Elipse_8333" data-name="Elipse 8333" cx="3.146" cy="3.146" r="3.146" transform="translate(321.783 205.269)" fill="none" stroke="#1e170f" stroke-linecap="round" stroke-linejoin="round" stroke-width="2"/>
          <g id="Grupo_86683" data-name="Grupo 86683" transform="translate(241.348 23.092)">
            <path id="Trazado_152116" data-name="Trazado 152116" d="M1741.53,304.785H1669.6a5.949,5.949,0,0,1-5.321-8.61l35.963-71.926a5.95,5.95,0,0,1,10.643,0l35.963,71.926A5.949,5.949,0,0,1,1741.53,304.785Z" transform="translate(-1663.647 -220.959)" fill="#fff"/>
            <path id="Trazado_152117" data-name="Trazado 152117" d="M1741.53,304.785H1669.6a5.949,5.949,0,0,1-5.321-8.61l35.963-71.926a5.95,5.95,0,0,1,10.643,0l35.963,71.926A5.949,5.949,0,0,1,1741.53,304.785Z" transform="translate(-1663.647 -220.959)" fill="none" stroke="#856de9" stroke-linecap="round" stroke-linejoin="round" stroke-width="3.827"/>
            <g id="Grupo_86682" data-name="Grupo 86682" transform="translate(37.25 25.321)">
              <path id="Trazado_152118" data-name="Trazado 152118" d="M1736.618,310.121a4.5,4.5,0,0,1-3.353-1.379,5.246,5.246,0,0,1,0-7.021,4.5,4.5,0,0,1,3.353-1.379,4.4,4.4,0,0,1,3.323,1.379,5.338,5.338,0,0,1,0,7.021A4.4,4.4,0,0,1,1736.618,310.121Zm-3.448-35.609-.188-7.147h7.272l-.25,7.147-1,21.378h-4.826Z" transform="translate(-1731.917 -267.366)" fill="#ffc945"/>
            </g>
          </g>
          <g id="Grupo_86684" data-name="Grupo 86684" transform="translate(158.962 192.128)">
            <path id="Trazado_152119" data-name="Trazado 152119" d="M1574.848,591.613l-50.341.5a11.723,11.723,0,0,1-11.827-11.7l-.027-37.212a11.988,11.988,0,0,1,11.81-11.938l50.341-.5a11.723,11.723,0,0,1,11.828,11.7l.027,37.212A11.987,11.987,0,0,1,1574.848,591.613Z" transform="translate(-1512.653 -530.761)" fill="#fff"/>
            <path id="Trazado_152120" data-name="Trazado 152120" d="M1575.856,590.784l-41.317.411a9.622,9.622,0,0,1-9.708-9.605l-.022-30.541a9.838,9.838,0,0,1,9.694-9.8l41.317-.411a9.621,9.621,0,0,1,9.707,9.6l.022,30.541A9.839,9.839,0,0,1,1575.856,590.784Z" transform="translate(-1518.177 -535.34)" fill="#d8fdff"/>
            <path id="Trazado_152121" data-name="Trazado 152121" d="M1585.556,605.863l-7.85-6.266a13.221,13.221,0,0,0-17.55,1.014l-6.623,6.566-9.029-10.066a7.917,7.917,0,0,0-11.788.061l-7.866,8.77v.035a9.622,9.622,0,0,0,9.708,9.605l41.317-.411A9.841,9.841,0,0,0,1585.556,605.863Z" transform="translate(-1518.195 -559.727)" fill="#7ff9ff"/>
            <ellipse id="Elipse_8334" data-name="Elipse 8334" cx="5.008" cy="4.962" rx="5.008" ry="4.962" transform="translate(19.608 18.212) rotate(-45.442)" fill="#fff"/>
          </g>
          <g id="Grupo_86685" data-name="Grupo 86685" transform="translate(137.285 206.769)">
            <path id="Trazado_152122" data-name="Trazado 152122" d="M1535.119,618.448l-50.34.5a11.723,11.723,0,0,1-11.828-11.7l-.027-37.212a11.987,11.987,0,0,1,11.81-11.938l50.341-.5a11.724,11.724,0,0,1,11.828,11.7l.027,37.212A11.987,11.987,0,0,1,1535.119,618.448Z" transform="translate(-1472.924 -557.596)" fill="#fff"/>
            <path id="Trazado_152123" data-name="Trazado 152123" d="M1546.937,628.632v1.377a11.988,11.988,0,0,1-11.81,11.938l-50.341.5a11.723,11.723,0,0,1-11.828-11.7l-.016-21.434" transform="translate(-1472.933 -581.094)" fill="none" stroke="#7ff9ff" stroke-linecap="round" stroke-linejoin="round" stroke-width="2"/>
            <path id="Trazado_152124" data-name="Trazado 152124" d="M1536.126,617.619l-41.317.411a9.623,9.623,0,0,1-9.708-9.605l-.022-30.541a9.839,9.839,0,0,1,9.694-9.8l41.317-.411a9.622,9.622,0,0,1,9.707,9.605l.022,30.541A9.839,9.839,0,0,1,1536.126,617.619Z" transform="translate(-1478.448 -562.175)" fill="#d8fdff"/>
            <path id="Trazado_152125" data-name="Trazado 152125" d="M1545.825,632.7l-7.851-6.267a13.221,13.221,0,0,0-17.549,1.014l-6.623,6.566-9.029-10.066a7.917,7.917,0,0,0-11.788.061l-7.866,8.77v.035a9.622,9.622,0,0,0,9.708,9.605l41.317-.411A9.842,9.842,0,0,0,1545.825,632.7Z" transform="translate(-1478.465 -586.562)" fill="#7ff9ff"/>
            <path id="Trazado_152126" data-name="Trazado 152126" d="M1522.614,586.613a5.041,5.041,0,0,1-4.981,5.035,4.93,4.93,0,0,1-4.989-4.936,5.042,5.042,0,0,1,4.982-5.035A4.93,4.93,0,0,1,1522.614,586.613Z" transform="translate(-1490.972 -568.538)" fill="#fff"/>
          </g>
          <g id="Grupo_86687" data-name="Grupo 86687" transform="translate(0 101.147)">
            <path id="Trazado_152127" data-name="Trazado 152127" d="M1344.606,538.372c4.574,1.377,7.549.933,10.615-2.055l6.952-15.846-4.468-2.141-11.932,14.149Z" transform="translate(-1277.334 -434.132)" fill="#8c5529" fill-rule="evenodd"/>
            <path id="Trazado_152128" data-name="Trazado 152128" d="M1367.056,514.989l2.658-3.642a3.765,3.765,0,0,1,2.184-1.446l3.555-.832a1.822,1.822,0,0,1,2.222,2.007h0l-3.6,4.388a5.674,5.674,0,0,1-3.371,1.9l-2.287.422Z" transform="translate(-1287.535 -429.902)" fill="#8c5529"/>
            <path id="Trazado_152129" data-name="Trazado 152129" d="M1338.539,518.566c2.513.418,3.356-3.765,2.318-6.092L1333.93,494.6c-1.89-4.759-6.139-7.7-8.93-6.184h0c-1.1.6-1.247,2.531-.33,4.342l10.641,29.258Z" transform="translate(-1268.002 -420.359)" fill="#8c5529" fill-rule="evenodd"/>
            <path id="Trazado_152130" data-name="Trazado 152130" d="M1268.718,471.1a2.89,2.89,0,0,0-.448-2.316c-3.644-5.582,4.753-8.959,7.238-10.592,2.593-1.7-.113-6.2,5.312-7.706s7.011,1.378,7.27,1.307c.38-.1-.921,5.128-.921,5.128s-2.7.72-2.932,6.052,1.041,8.176-2.465,12.194-16.284-2.064-16.284-2.064C1267.658,473.193,1268.448,472.1,1268.718,471.1Z" transform="translate(-1241.384 -403.107)" fill="#221f14" fill-rule="evenodd"/>
            <path id="Trazado_152131" data-name="Trazado 152131" d="M1300.775,785.282c0,1.634-17.788,2.959-39.731,2.959s-39.731-1.325-39.731-2.959,17.788-2.959,39.731-2.959S1300.775,783.648,1300.775,785.282Z" transform="translate(-1221.313 -554.084)" fill="#f2f2f2" fill-rule="evenodd"/>
            <path id="Trazado_152132" data-name="Trazado 152132" d="M1306.382,695.87s-5.378-35.951,1.566-50.176l-3.791-48.771,22.731,1.568-15.317,97.661Z" transform="translate(-1258.955 -469.843)" fill="#8c5529" fill-rule="evenodd"/>
            <path id="Trazado_152133" data-name="Trazado 152133" d="M1312.314,775.68l4.512,3.286c.887.812,5.728,2.39,5.728,2.39h0c.482,1.009-.46,1.54-1.26,1.672l-14.282-.3s-3.3-.685-.373-7.042C1309.238,776.835,1311.638,777.657,1312.314,775.68Z" transform="translate(-1259.534 -551.066)" fill="#221f14" fill-rule="evenodd"/>
            <path id="Trazado_152134" data-name="Trazado 152134" d="M1324.723,612.691l-5.258,41.3-6.918,41.405h-16.635s1.554-7.2,1.369-9.484-.788-23.951,4.282-33.919l-.4-40.6Z" transform="translate(-1255.209 -476.421)" fill="#856de9" fill-rule="evenodd"/>
            <path id="Trazado_152135" data-name="Trazado 152135" d="M1301.349,652l-.4-40.6,7.9.433.295,29.728a65.9,65.9,0,0,1-2.07,16.577c-2.7,10.817-2.26,25.893-2.108,27.778.184,2.285-1.37,9.484-1.37,9.484H1295.7s1.553-7.2,1.37-9.484S1296.279,661.964,1301.349,652Z" transform="translate(-1255.111 -476.421)" fill="#6a4ee1" fill-rule="evenodd"/>
            <path id="Trazado_152136" data-name="Trazado 152136" d="M1259.869,694.751s-2.388-36.383,5.739-50.779l.265-49.356,22.6,1.586-23.44,98.834Z" transform="translate(-1238.683 -468.795)" fill="#8c5529" fill-rule="evenodd"/>
            <path id="Trazado_152137" data-name="Trazado 152137" d="M1264.118,775.518l4.24,3.326c.819.822,5.528,2.419,5.528,2.419h0c.4,1.021-.589,1.558-1.4,1.693l-14.257-.3s-3.24-.693.213-7.126C1260.946,776.687,1263.276,777.519,1264.118,775.518Z" transform="translate(-1237.46 -550.992)" fill="#221f14" fill-rule="evenodd"/>
            <path id="Trazado_152138" data-name="Trazado 152138" d="M1284.582,607.281l-8.693,41.8-10.361,41.9h-16.635s2.152-7.286,2.159-9.6,1.2-24.238,7.1-34.326l2.457-45.035Z" transform="translate(-1233.844 -472.16)" fill="#856de9" fill-rule="evenodd"/>
            <path id="Trazado_152139" data-name="Trazado 152139" d="M1279.256,552.629,1310.324,555c5.053,1.855,3.034,30.991,3.034,30.991l-20.428.947c-9.491-.2-20.717,7.245-21.9-8.568C1269.683,560.287,1279.256,552.629,1279.256,552.629Z" transform="translate(-1243.845 -449.717)" fill="#856de9" fill-rule="evenodd"/>
            <path id="Trazado_152140" data-name="Trazado 152140" d="M1270.35,595.572s20.616,2.22,27.324-6.833l-27.637-2.373A80.782,80.782,0,0,0,1270.35,595.572Z" transform="translate(-1243.447 -465.046)" fill="#728cb8" fill-rule="evenodd"/>
            <path id="Trazado_152141" data-name="Trazado 152141" d="M1301.759,485.567l-6.913-2.359-9.355-.637-11.891,4.147a8.742,8.742,0,0,0-4.333,10.849l2.91,13.609c-3.091,10.265-4.687,17.463-4.15,28.028,16.86,6.26,40.036,5.954,45.356-1.781C1312.487,516.276,1309.97,499.177,1301.759,485.567Z" transform="translate(-1242.492 -417.884)" fill="#ffce57" fill-rule="evenodd"/>
            <path id="Trazado_152142" data-name="Trazado 152142" d="M1309.916,468.767l-2.491,7.9a2.762,2.762,0,0,1-2.055,1.876,2.715,2.715,0,0,1-2.62-.884l-.616-.713a3.568,3.568,0,0,1-.569-3.748c1.4-3.222,3.937-9.092,3.937-9.092l4.414,4.662Z" transform="translate(-1257.644 -409.494)" fill="#8c5529" fill-rule="evenodd"/>
            <path id="Trazado_152143" data-name="Trazado 152143" d="M1313.825,476.673l-1.015,2.53-1.739-3.011Z" transform="translate(-1262.097 -414.986)" fill="#873b24" fill-rule="evenodd"/>
            <path id="Trazado_152144" data-name="Trazado 152144" d="M1306.9,482.395s3.739,9.255-2.614,9.661-9.83-9.213-9.83-9.213l4.64-2.061Z" transform="translate(-1254.548 -417.071)" fill="#8c5529"/>
            <path id="Trazado_152145" data-name="Trazado 152145" d="M1304.57,459.889a2.4,2.4,0,0,1,1.762-2.895l4.447-1.066a2.533,2.533,0,0,1,2.865,1.785,25.969,25.969,0,0,1,1.184,6.986,2.911,2.911,0,0,1-1.943,3.04c-1.364.327-5.76-.007-6.735-2.378a34.845,34.845,0,0,1-1.579-5.471Z" transform="translate(-1259.113 -405.75)" fill="#8c5529" fill-rule="evenodd"/>
            <path id="Trazado_152146" data-name="Trazado 152146" d="M1296.783,463.949s.669-6.781,2.5-8.837c2.455-2.761,5.912-4.434,10.041-1.444,0,0-2.062,5.354-10.863,10.23Z" transform="translate(-1255.604 -404.031)" fill="#221f14" fill-rule="evenodd"/>
            <path id="Trazado_152147" data-name="Trazado 152147" d="M1303.924,470.957a1.8,1.8,0,0,0,2.425.753,1.843,1.843,0,0,0,.276-2.549,1.8,1.8,0,0,0-2.426-.753A1.844,1.844,0,0,0,1303.924,470.957Z" transform="translate(-1258.679 -411.345)" fill="#8c5529" fill-rule="evenodd"/>
            <path id="Trazado_152148" data-name="Trazado 152148" d="M1251.848,520.812l13.723-18.82c3.367-4.493,2.749-9.616-1.3-10.767h0c-1.595-.453-3.765.675-4.874,2.535l-14.762,23.008Z" transform="translate(-1231.91 -421.771)" fill="#8c5529" fill-rule="evenodd"/>
            <path id="Trazado_152149" data-name="Trazado 152149" d="M1303.38,453.409s-2.861-.448-3.826,3.561" transform="translate(-1256.864 -404.627)" fill="none" stroke="#8b939c" stroke-linecap="round" stroke-linejoin="round" stroke-width="0.962" fill-rule="evenodd"/>
            <g id="Grupo_86686" data-name="Grupo 86686" transform="translate(17.042)">
              <rect id="Rectángulo_7839" data-name="Rectángulo 7839" width="7.197" height="29.659" transform="matrix(-0.674, -0.739, 0.739, -0.674, 53.043, 94.909)" fill="#3a2e45"/>
              <path id="Trazado_152150" data-name="Trazado 152150" d="M1254.594,569.264h0a7.856,7.856,0,0,0,11.068.487l44.875-41.093a7.857,7.857,0,0,0,.488-11.068h0a7.857,7.857,0,0,0-11.068-.487L1255.081,558.2A7.856,7.856,0,0,0,1254.594,569.264Z" transform="translate(-1252.547 -432.645)" fill="#18b6fe"/>
              <path id="Trazado_152151" data-name="Trazado 152151" d="M1374.675,374.967a41.722,41.722,0,1,0,58.946,2.593A41.722,41.722,0,0,0,1374.675,374.967Zm5,5.458a34.321,34.321,0,1,1-2.133,48.491A34.322,34.322,0,0,1,1379.673,380.425Z" transform="translate(-1301.884 -364.015)" fill="#f4f4fc"/>
              <ellipse id="Elipse_8335" data-name="Elipse 8335" cx="33.867" cy="34.441" rx="33.867" ry="34.441" transform="translate(65.598 74.506) rotate(-89.149)" fill="#fff" opacity="0.38"/>
              <path id="Trazado_152152" data-name="Trazado 152152" d="M1443,394.371a41.728,41.728,0,1,0-11.976,42.136,43.3,43.3,0,0,0,12.618-22.009A37.809,37.809,0,0,0,1443,394.371Zm-63.332-13.946a34.321,34.321,0,1,1-2.133,48.491A34.322,34.322,0,0,1,1379.673,380.425Z" transform="translate(-1301.884 -364.015)" fill="none" stroke="#2d3757" stroke-linecap="round" stroke-linejoin="round" stroke-width="2"/>
            </g>
            <path id="Trazado_152153" data-name="Trazado 152153" d="M1243.889,538.124c-1.852,3.96-.894,7.3,3.417,9.959l23.274,8.448-.173-5.155-17.865-11.469Z" transform="translate(-1231.163 -443.126)" fill="#8c5529" fill-rule="evenodd"/>
            <path id="Trazado_152154" data-name="Trazado 152154" d="M1290.832,562.413l3.454,2.9a3.766,3.766,0,0,1,1.295,2.278l.587,3.6a1.82,1.82,0,0,1-2.155,2.078h0l-4.135-3.89a5.661,5.661,0,0,1-1.667-3.492l-.266-2.31Z" transform="translate(-1251.589 -454.162)" fill="#8c5529"/>
          </g>
          <g id="Grupo_86699" data-name="Grupo 86699" transform="translate(92.233 113.525)">
            <g id="Grupo_86698" data-name="Grupo 86698">
              <g id="Grupo_86688" data-name="Grupo 86688" transform="translate(19.699 8.724)">
                <path id="Trazado_152155" data-name="Trazado 152155" d="M1433.92,422.814h0a7.585,7.585,0,0,1-7.444-7.613l-.018-4.932a7.472,7.472,0,0,1,7.385-7.577h0a7.586,7.586,0,0,1,7.443,7.614l.019,4.932A7.472,7.472,0,0,1,1433.92,422.814Z" transform="translate(-1426.457 -402.691)" fill="#d07efc"/>
              </g>
              <g id="Grupo_86689" data-name="Grupo 86689" transform="translate(33.73 7.837)">
                <path id="Trazado_152156" data-name="Trazado 152156" d="M1453.085,420.605a.906.906,0,0,1-.751-.407.94.94,0,0,1,.233-1.29l9.3-6.5-.039-10.418a.911.911,0,0,1,.9-.927.925.925,0,0,1,.91.931l.041,10.908a.928.928,0,0,1-.392.766l-9.7,6.774A.889.889,0,0,1,1453.085,420.605Z" transform="translate(-1452.174 -401.065)" fill="#d07efc"/>
              </g>
              <g id="Grupo_86690" data-name="Grupo 86690" transform="translate(28.557 0.042)">
                <path id="Trazado_152157" data-name="Trazado 152157" d="M1443.6,400.122a.908.908,0,0,1-.752-.407.941.941,0,0,1,.233-1.29l5.9-4.124-.025-6.594a.911.911,0,0,1,.9-.927.925.925,0,0,1,.91.931l.027,7.085a.93.93,0,0,1-.393.767l-6.3,4.4A.882.882,0,0,1,1443.6,400.122Z" transform="translate(-1442.692 -386.779)" fill="#d07efc"/>
              </g>
              <g id="Grupo_86691" data-name="Grupo 86691" transform="translate(17.428)">
                <path id="Trazado_152158" data-name="Trazado 152158" d="M1429.564,400.075a.889.889,0,0,1-.51-.163l-6.332-4.431a.943.943,0,0,1-.4-.768l-.026-7.085a.911.911,0,0,1,.9-.926.924.924,0,0,1,.91.931l.025,6.595,5.936,4.153a.946.946,0,0,1,.243,1.291A.893.893,0,0,1,1429.564,400.075Z" transform="translate(-1422.296 -386.702)" fill="#d07efc"/>
              </g>
              <g id="Grupo_86692" data-name="Grupo 86692" transform="translate(33.53 40.877)">
                <path id="Trazado_152159" data-name="Trazado 152159" d="M1470.042,473.48a.909.909,0,0,1-.752-.407l-6.4-9.57-10.171-.025a.925.925,0,0,1-.91-.931.911.911,0,0,1,.9-.927l10.649.026a.909.909,0,0,1,.751.407l6.674,9.976a.94.94,0,0,1-.232,1.29A.89.89,0,0,1,1470.042,473.48Z" transform="translate(-1451.807 -461.62)" fill="#d07efc"/>
              </g>
              <g id="Grupo_86693" data-name="Grupo 86693" transform="translate(33.756 32.103)">
                <path id="Trazado_152160" data-name="Trazado 152160" d="M1473.04,447.445l-19.91-.048a.925.925,0,0,1-.91-.931.911.911,0,0,1,.9-.926l19.909.049a.925.925,0,0,1,.91.931A.91.91,0,0,1,1473.04,447.445Z" transform="translate(-1452.22 -445.539)" fill="#d07efc"/>
              </g>
              <g id="Grupo_86694" data-name="Grupo 86694" transform="translate(10.094 7.756)">
                <path id="Trazado_152161" data-name="Trazado 152161" d="M1419.554,420.5a.889.889,0,0,1-.511-.163l-9.749-6.821a.941.941,0,0,1-.4-.768l-.041-10.909a.911.911,0,0,1,.9-.926.924.924,0,0,1,.91.931l.04,10.418,9.352,6.544a.946.946,0,0,1,.243,1.292A.894.894,0,0,1,1419.554,420.5Z" transform="translate(-1408.854 -400.917)" fill="#d07efc"/>
              </g>
              <g id="Grupo_86695" data-name="Grupo 86695" transform="translate(2.954 40.819)">
                <path id="Trazado_152162" data-name="Trazado 152162" d="M1396.677,473.314a.89.89,0,0,1-.511-.163.945.945,0,0,1-.242-1.291l6.6-9.944a.9.9,0,0,1,.747-.4l10.649.026a.925.925,0,0,1,.91.931.911.911,0,0,1-.9.926l-10.17-.024-6.33,9.539A.893.893,0,0,1,1396.677,473.314Z" transform="translate(-1395.768 -461.513)" fill="#d07efc"/>
              </g>
              <g id="Grupo_86696" data-name="Grupo 86696" transform="translate(0 32.021)">
                <path id="Trazado_152163" data-name="Trazado 152163" d="M1411.174,447.295l-19.91-.049a.925.925,0,0,1-.911-.931.911.911,0,0,1,.9-.926l19.909.048a.925.925,0,0,1,.91.931A.91.91,0,0,1,1411.174,447.295Z" transform="translate(-1390.354 -445.389)" fill="#d07efc"/>
              </g>
              <g id="Grupo_86697" data-name="Grupo 86697" transform="translate(15.557 18.785)">
                <path id="Trazado_152164" data-name="Trazado 152164" d="M1430.552,452.641h0a11.879,11.879,0,0,1-11.656-11.922l-.029-7.723a11.7,11.7,0,0,1,11.566-11.866h0a11.879,11.879,0,0,1,11.656,11.922l.03,7.723A11.7,11.7,0,0,1,1430.552,452.641Z" transform="translate(-1418.866 -421.131)" fill="#d07efc"/>
              </g>
            </g>
            <line id="Línea_248" data-name="Línea 248" x2="0.1" y2="26.334" transform="translate(26.96 22.347)" fill="none" stroke="#fff" stroke-linecap="round" stroke-linejoin="round" stroke-width="1.187"/>
            <path id="Trazado_152165" data-name="Trazado 152165" d="M1426.3,423.888s7.195-6.335,14.932-.348" transform="translate(-1406.689 -402.271)" fill="none" stroke="#fff" stroke-linecap="round" stroke-linejoin="round" stroke-width="1.187"/>
          </g>
          <g id="Grupo_86702" data-name="Grupo 86702" transform="translate(235.89 118.369)">
            <g id="Grupo_86700" data-name="Grupo 86700" transform="translate(41.007 38.027)">
              <path id="Trazado_152166" data-name="Trazado 152166" d="M1763.528,488.8c-7.931-5.805-10.683-8.4-18.514-14.409l-4.85,2.975c13.906,14.418,14.186,20.441,22.331,22.983C1770.155,495.5,1765.056,490.551,1763.528,488.8Z" transform="translate(-1733.963 -469.417)" fill="#18b6fe"/>
              <path id="Trazado_152167" data-name="Trazado 152167" d="M1740.862,470.946l-3.271-3.726a4.138,4.138,0,0,0-2.535-1.368l-3.974-.559a2,2,0,0,0-2.233,2.42h0l4.376,4.451a6.23,6.23,0,0,0,3.879,1.748l2.545.236Z" transform="translate(-1728.799 -465.272)" fill="#18b6fe"/>
              <path id="Trazado_152168" data-name="Trazado 152168" d="M1749.263,476.124l-4.839,6.361,7.677,8.145,4.983-9.1Z" transform="translate(-1735.899 -470.203)" fill="#18b6fe" fill-rule="evenodd"/>
            </g>
            <g id="Grupo_86701" data-name="Grupo 86701">
              <path id="Trazado_152169" data-name="Trazado 152169" d="M1703.191,396.953l-1.486,8.4,7.483,2.94,1.149-3.73s-4.056-6.416-4.318-6.5S1703.191,396.953,1703.191,396.953Z" transform="translate(-1675.481 -396.203)" fill="#a541db"/>
              <path id="Trazado_152170" data-name="Trazado 152170" d="M1655.265,406.274c7.642,7.491,17.743,14.262,28.906,20.722l.83-8.758,5.21,15.253,5-15.432,1.827.755-1.524,8.47-4.97,21.432,4.788,7.86,7.13,4.292a31.86,31.86,0,0,0,3.99-1.552c.381-.352,4.227,1.617,4.227,1.617l-1.444,8.031-4.472-4.384-3.7-2.552-5.714-2.9-5.036-2.072-6.064-12.862-26.221-24.017-4.354-4.964Z" transform="translate(-1653.66 -400.438)" fill="#a541db"/>
              <path id="Trazado_152171" data-name="Trazado 152171" d="M1681.838,411.455c-1.327-.446-2.447.259-1.9,1.208l3.2,5.571c2.379,4.145.777,7.965-3.56,8.49l-6.9.836c-4.337.525-9.833-2.436-12.213-6.581l-2.977-5.186c-.576-1-2.46-1.336-3.026-.532-1.133,1.608-1.126,3.951.286,6.411l5.515,9.608c1.859,3.238,8.268,5.433,10.982,6.238a9.3,9.3,0,0,1,2.406,1.106h0a6.552,6.552,0,0,1,2.139,2.154L1705.162,492c1.609,2.8,7.372,12.657,18.327,5.038a7.512,7.512,0,0,0,2.119-10.093l-4.358-7.1s-10.847-8.162-12.7-11.392l-7.973-13.888a5.972,5.972,0,0,0-.388-.829l-8.539-14.875a3.31,3.31,0,0,1-.452-2.358h0a2.773,2.773,0,0,1,.906-1.507c1.5-1.316,4.716-4.677,2.857-7.915l-5.516-9.608A14.212,14.212,0,0,0,1681.838,411.455Z" transform="translate(-1653.642 -402.73)" fill="#a541db"/>
              <path id="Trazado_152172" data-name="Trazado 152172" d="M1684.669,395.716c-1.327-.447-2.447.259-1.9,1.208l3.2,5.57c2.379,4.145.777,7.966-3.56,8.491l-6.9.835c-4.337.526-9.833-2.436-12.213-6.58l-2.977-5.186c-.576-1-2.459-1.336-3.026-.532-1.133,1.609-1.126,3.951.285,6.41l5.516,9.608c1.859,3.238,8.268,5.433,10.982,6.239a9.275,9.275,0,0,1,2.406,1.106,6.547,6.547,0,0,1,2.138,2.154l24.711,43.645c1.855,3.23,6.848,5.451,11.1,4.937l.411-.05c4.249-.515,5.271-5.787,2.6-9.907l-22.957-40.546a3.312,3.312,0,0,1-.452-2.358,2.775,2.775,0,0,1,.906-1.506c1.5-1.316,4.716-4.677,2.857-7.915l-5.516-9.608A14.212,14.212,0,0,0,1684.669,395.716Z" transform="translate(-1654.929 -395.578)" fill="#d07efc"/>
              <path id="Trazado_152173" data-name="Trazado 152173" d="M1688.739,441.737s14.244,5.517,22.3-3.718" transform="translate(-1669.59 -414.862)" fill="none" stroke="#a541db" stroke-linecap="round" stroke-linejoin="round" stroke-width="1"/>
              <path id="Trazado_152174" data-name="Trazado 152174" d="M1736.266,512.29l11.247,19.852c1.769,3.079,6.2,6.284,10.8,4.4l.4-.064c4.5-1.995,5.246-5.832,2.689-9.749l-12.669-22.362Z" transform="translate(-1691.185 -445.011)" fill="#8220b7"/>
              <path id="Trazado_152175" data-name="Trazado 152175" d="M1764.578,542.315h0a3.8,3.8,0,0,1-4.116-1.563l-1.1-1.98a2.073,2.073,0,0,1,1.55-3.055h0a3.8,3.8,0,0,1,4.115,1.564l1.1,1.979A2.072,2.072,0,0,1,1764.578,542.315Z" transform="translate(-1701.553 -459.2)" fill="#a541db"/>
              <path id="Trazado_152176" data-name="Trazado 152176" d="M1764.568,542.914h0a3.8,3.8,0,0,1-4.116-1.563l-1.1-1.98a1.856,1.856,0,0,1,.064-2.082C1760.948,535.331,1765.02,541.722,1764.568,542.914Z" transform="translate(-1701.544 -459.8)" fill="#6b089f"/>
              <path id="Trazado_152177" data-name="Trazado 152177" d="M1702.53,447.782l30.442,54.2s3.782,5.678,8.51,3.911,1.183-6.577,1.183-6.577L1712.1,446.6" transform="translate(-1675.856 -418.762)" fill="none" stroke="#a541db" stroke-linecap="round" stroke-linejoin="round" stroke-width="1"/>
            </g>
            <path id="Trazado_152178" data-name="Trazado 152178" d="M1800.512,689.054s5.927-39.624-1.726-55.3L1802.964,580l-25.054,1.727,15.42,107.72Z" transform="translate(-1710.107 -479.374)" fill="#e3633d" fill-rule="evenodd"/>
            <path id="Trazado_152179" data-name="Trazado 152179" d="M1768.244,787.6c0,1.8,19.605,3.262,43.79,3.262s43.79-1.461,43.79-3.262-19.606-3.262-43.79-3.262S1768.244,785.8,1768.244,787.6Z" transform="translate(-1705.714 -572.222)" fill="#f2f2f2" fill-rule="evenodd"/>
            <path id="Trazado_152180" data-name="Trazado 152180" d="M1807.741,437.971s.7,4.961,1.284,9.071a3.176,3.176,0,0,0,2.179,2.461,4.062,4.062,0,0,0,3.568-.408l.961-.642a3.6,3.6,0,0,0,1.632-3.936c-1.01-3.78-2.847-10.665-2.847-10.665l-6.777,4.119Z" transform="translate(-1723.661 -412.969)" fill="#c95836" fill-rule="evenodd"/>
            <path id="Trazado_152181" data-name="Trazado 152181" d="M1807.952,446.4l.689,2.951,2.952-2.893Z" transform="translate(-1723.757 -418.669)" fill="#873b24" fill-rule="evenodd"/>
            <path id="Trazado_152182" data-name="Trazado 152182" d="M1813.7,427.539a2.649,2.649,0,0,0-1.636-3.358l-4.771-1.628a2.792,2.792,0,0,0-3.327,1.663,28.657,28.657,0,0,0-2.018,7.544,3.21,3.21,0,0,0,1.819,3.536c1.463.5,6.322.586,7.637-1.916a38.627,38.627,0,0,0,2.3-5.842Z" transform="translate(-1721.012 -407.775)" fill="#c95836" fill-rule="evenodd"/>
            <path id="Trazado_152183" data-name="Trazado 152183" d="M1813.587,433.154a6.619,6.619,0,0,0,5.956-8.3,6.791,6.791,0,0,0-.927-2.145c-2.409-3.284-6.031-5.474-10.87-2.618,0,0-.4,6.563,5.833,13.067Z" transform="translate(-1723.661 -406.115)" fill="#221f14" fill-rule="evenodd"/>
            <path id="Trazado_152184" data-name="Trazado 152184" d="M1812.616,436.272a1.984,1.984,0,0,1-2.739.577,2.031,2.031,0,0,1-.041-2.826,1.985,1.985,0,0,1,2.74-.576A2.031,2.031,0,0,1,1812.616,436.272Z" transform="translate(-1724.364 -412.631)" fill="#c95836" fill-rule="evenodd"/>
            <path id="Trazado_152185" data-name="Trazado 152185" d="M1853.28,681.587l23.192,43.045c4.5,1.63,6.814-2.411,5.544-6.595-5.321-18.152-5.014-27.81-19.99-43.995Z" transform="translate(-1744.353 -522.105)" fill="#e3633d" fill-rule="evenodd"/>
            <path id="Trazado_152186" data-name="Trazado 152186" d="M1812.411,587.92l13.677,44.83a41.081,41.081,0,0,0,2.835,7.057l22.064,39.069L1862.6,672.2c-2.9-18.692-6.873-27.512-17.409-46.7l-6.7-42.331-11.852.475Z" transform="translate(-1725.783 -480.813)" fill="#bdcce6" fill-rule="evenodd"/>
            <path id="Trazado_152187" data-name="Trazado 152187" d="M1819.437,588.008l13.338,43.718a41.1,41.1,0,0,0,2.835,7.057l21.8,38.6-6.423,3.692-22.064-39.069a41.081,41.081,0,0,1-2.835-7.057l-13.677-44.83Z" transform="translate(-1725.783 -483.013)" fill="#a7b8d4" fill-rule="evenodd"/>
            <path id="Trazado_152188" data-name="Trazado 152188" d="M1893.752,761.55l-.176,6.15c.111,1.321-1.775,6.605-1.775,6.605h0c.554,1.1,1.654.636,2.308.028l9.365-12.657s3.689-4.406-3.826-6.14C1898.9,758.577,1895.932,762.292,1893.752,761.55Z" transform="translate(-1761.856 -559.134)" fill="#221f14" fill-rule="evenodd"/>
            <path id="Trazado_152189" data-name="Trazado 152189" d="M1811.939,531.177l-34.243,2.609c-5.57,2.045-3.344,34.158-3.344,34.158l22.516,1.043c10.738-.17,23.652,1.436,24.135-9.444C1821.888,539.582,1811.939,531.177,1811.939,531.177Z" transform="translate(-1708.29 -457.191)" fill="#bdcce6" fill-rule="evenodd"/>
            <path id="Trazado_152190" data-name="Trazado 152190" d="M1785.089,455.185l12.577-1.472,3.449.135,9.591,3.345c4.414,2.184,6.449,6.563,6.846,13.188l1.563,15.015c.25,19.326,1.1,22.5,1.87,34.132-18.583,6.9-46.623,5.883-52.488-2.642.521-12.281.285-31.793,2.954-42.2C1773.849,465.337,1780.808,462.281,1785.089,455.185Z" transform="translate(-1705.83 -421.993)" fill="#18b6fe" fill-rule="evenodd"/>
            <path id="Trazado_152191" data-name="Trazado 152191" d="M1797.471,777.247l-3.447,3.4c-.977.9-6.312,2.634-6.312,2.634h0c-.532,1.112.508,1.7,1.389,1.843l15.741-.33s3.634-.754.41-7.761C1802.388,778.3,1798.218,779.427,1797.471,777.247Z" transform="translate(-1714.495 -568.902)" fill="#221f14" fill-rule="evenodd"/>
            <path id="Trazado_152192" data-name="Trazado 152192" d="M1774.717,597.376l5.8,45.522,7.625,45.636h18.334s-1.712-7.935-1.51-10.452.869-26.4-4.719-37.385l.443-44.743Z" transform="translate(-1708.656 -486.624)" fill="#bdcce6" fill-rule="evenodd"/>
            <line id="Línea_249" data-name="Línea 249" x1="8.001" y2="0.263" transform="translate(92.249 111.812)" fill="none" stroke="#8097ba" stroke-linecap="round" stroke-linejoin="round" stroke-width="2"/>
            <path id="Trazado_152193" data-name="Trazado 152193" d="M1769.034,461.922s-28.882,25.754-26.5,29.363l1,1.622a4.205,4.205,0,0,0,6.392.579l14.484-13.521,2.879-2.572Z" transform="translate(-1693.968 -425.723)" fill="#c95836" fill-rule="evenodd"/>
            <path id="Trazado_152194" data-name="Trazado 152194" d="M1705.031,488.916l-4.724-1.5a4.143,4.143,0,0,1-2.269-1.774l-2.1-3.418a2,2,0,0,1,1.323-3.015h0l5.83,2.227a6.234,6.234,0,0,1,3.155,2.854l1.235,2.238Z" transform="translate(-1672.723 -433.576)" fill="#c95836"/>
            <path id="Trazado_152195" data-name="Trazado 152195" d="M1757.527,456.41s-8.265,2.7-11.456,6.415-15.452,15.038-15.452,15.038l-17.478-4.16-5.3,6.072s17.9,14.959,21.531,14.594,25.025-17.006,25.025-17.006Z" transform="translate(-1678.267 -423.219)" fill="#18b6fe" fill-rule="evenodd"/>
            <path id="Trazado_152196" data-name="Trazado 152196" d="M1772.535,501.95l9.84-8.44,2.04-1.564" transform="translate(-1707.664 -439.365)" fill="none" stroke="#4c79c7" stroke-linecap="round" stroke-linejoin="round" stroke-width="2" fill-rule="evenodd"/>
          </g>
        </g>
      </g>
      <g id="Grupo_86713" data-name="Grupo 86713" transform="translate(1041.66 5475.311)">
        <circle id="Elipse_8342" data-name="Elipse 8342" cx="2.854" cy="2.854" r="2.854" transform="translate(261.592 64.194)" fill="none" stroke="#1e170f" stroke-linecap="round" stroke-linejoin="round" stroke-width="2"/>
        <circle id="Elipse_8343" data-name="Elipse 8343" cx="2.854" cy="2.854" r="2.854" transform="translate(28.622)" fill="none" stroke="#1e170f" stroke-linecap="round" stroke-linejoin="round" stroke-width="2"/>
        <circle id="Elipse_8344" data-name="Elipse 8344" cx="2.854" cy="2.854" r="2.854" transform="translate(0 237.173)" fill="none" stroke="#1e170f" stroke-linecap="round" stroke-linejoin="round" stroke-width="2"/>
      </g>
    </g>
  </g>
</svg>
