<svg xmlns="http://www.w3.org/2000/svg" width="310" height="215.604" viewBox="0 0 310 215.604">
  <g id="Grupo_86999" data-name="Grupo 86999" transform="translate(-2409.645 -253.247)">
    <rect id="Rectángulo_8026" data-name="Rectángulo 8026" width="8.41" height="4.947" transform="translate(2465.652 319.7)" fill="#8fb9cf"/>
    <rect id="Rectángulo_8027" data-name="Rectángulo 8027" width="4.947" height="4.205" transform="matrix(0.668, -0.745, 0.745, 0.668, 2483.188, 328.398)" fill="#8fb9cf"/>
    <rect id="Rectángulo_8028" data-name="Rectángulo 8028" width="4.205" height="4.947" transform="matrix(0.745, -0.668, 0.668, 0.745, 2450.047, 327.522)" fill="#8fb9cf"/>
    <path id="Trazado_152812" data-name="Trazado 152812" d="M3167.288,906.082s.175-16.289,13.147-25.93,23.49-10.167,25.156-11.92,1.59,5.868,1.5,8.849.5,13.054-5.622,22.874-25.594,10.347-25.594,10.347Z" transform="translate(-545.135 -442.304)" fill="#f2d6c8"/>
    <path id="Trazado_152813" data-name="Trazado 152813" d="M3197.2,904.512a.213.213,0,0,1-.119-.036.215.215,0,0,1-.06-.3,82.744,82.744,0,0,1,12.974-14.638,99.014,99.014,0,0,1,10.554-7.77c2.957-1.96,5.093-3.376,5.745-4.545a.215.215,0,0,1,.376.21c-.7,1.26-2.876,2.7-5.884,4.694a98.733,98.733,0,0,0-10.51,7.737,82.253,82.253,0,0,0-12.9,14.551A.216.216,0,0,1,3197.2,904.512Z" transform="translate(-566.502 -448.882)" fill="#f5b89b"/>
    <path id="Trazado_152814" data-name="Trazado 152814" d="M3234.895,940.6a56.65,56.65,0,0,1-10.23-.961.215.215,0,1,1,.088-.422c.1.022,10.438,2.132,18.613,0a.215.215,0,0,1,.108.417A34.656,34.656,0,0,1,3234.895,940.6Z" transform="translate(-586.294 -493.564)" fill="#f5b89b"/>
    <path id="Trazado_152815" data-name="Trazado 152815" d="M3266.461,908.346a48.312,48.312,0,0,1-5.875-.406.215.215,0,0,1,.059-.427c.065.009,6.523.886,9.908.005a.215.215,0,0,1,.109.417A17.634,17.634,0,0,1,3266.461,908.346Z" transform="translate(-612.131 -470.752)" fill="#f5b89b"/>
    <path id="Trazado_152816" data-name="Trazado 152816" d="M3214.865,969.7c-4.866,0-13.132-1.812-13.55-1.9a.215.215,0,0,1,.093-.42c.123.027,12.282,2.694,15.8,1.655a.215.215,0,1,1,.122.413A9.207,9.207,0,0,1,3214.865,969.7Z" transform="translate(-569.496 -513.823)" fill="#f5b89b"/>
    <path id="Trazado_152817" data-name="Trazado 152817" d="M3208.143,931.591a.215.215,0,0,1-.208-.163,22.911,22.911,0,0,1,0-10.043.215.215,0,1,1,.415.113,22.448,22.448,0,0,0,0,9.826.216.216,0,0,1-.157.261A.208.208,0,0,1,3208.143,931.591Z" transform="translate(-573.965 -480.62)" fill="#f5b89b"/>
    <path id="Trazado_152818" data-name="Trazado 152818" d="M3238.87,905.531h0a.216.216,0,0,1-.212-.219,28.018,28.018,0,0,1,1.263-7.9.215.215,0,1,1,.4.155,28.151,28.151,0,0,0-1.233,7.756A.215.215,0,0,1,3238.87,905.531Z" transform="translate(-596.484 -463.384)" fill="#f5b89b"/>
    <path id="Trazado_152819" data-name="Trazado 152819" d="M2444.755,897.187c-3.944-4.96-3.736-9.693-9.187-14.6s-12.989-5.434-15.969-7.1-3.331,2.366-2.629,6.223-3.375,21.12,13.739,27.847S2444.755,897.187,2444.755,897.187Z" transform="translate(-5.05 -447.432)" fill="#f2d6c8"/>
    <path id="Trazado_152820" data-name="Trazado 152820" d="M2465.517,659.173c-7.536,4.066-13.5,25.628-12.445,27.205s9.438,7.686,14.01,9.979,3.1-5.421,3.1-5.421-9.035-7.187-8.689-8.239,3.59-11.044,3.59-11.044Z" transform="translate(-31.16 -292.069)" fill="#f2bb34"/>
    <rect id="Rectángulo_8029" data-name="Rectángulo 8029" width="309.999" height="2.669" transform="translate(2409.645 466.181)" fill="#aecbc7"/>
    <path id="Trazado_152821" data-name="Trazado 152821" d="M2894.618,262.146s2.334-1.632,2.334-3.583-2.958-5.5-7.034-4.975-5.259,1.183-5.259,1.183-4.321-3.944-9.523.855,2.358,9.729,6.828,4.733c0,0-2.279,5.3,1.753,5.807S2894.618,262.146,2894.618,262.146Z" transform="translate(-333.661)" fill="#60100f"/>
    <path id="Trazado_152822" data-name="Trazado 152822" d="M2936.638,383.167s-10.781-3.621-11.307-4.373a20.66,20.66,0,0,1-.789-4.5c-.229-2.022-.394-3.952-.394-3.952l5.214-.4s-.089,2.322-.018,4.17a5.6,5.6,0,0,0,.326,2.182c.526.615,8.57,4.515,8.953,5.653S2936.638,383.167,2936.638,383.167Z" transform="translate(-370.192 -83.957)" fill="#ffac95"/>
    <path id="Trazado_152823" data-name="Trazado 152823" d="M2929.344,374.1a26.277,26.277,0,0,0-4.8.187c-.229-2.022-.394-3.952-.394-3.952l5.214-.4S2929.273,372.255,2929.344,374.1Z" transform="translate(-370.192 -83.957)" fill="#e9928b"/>
    <g id="Grupo_86969" data-name="Grupo 86969" transform="translate(2554.174 271.116)">
      <path id="Trazado_152824" data-name="Trazado 152824" d="M2932.115,333.961a3.426,3.426,0,0,1-2.333,1,6.3,6.3,0,0,1-1.052.01,5,5,0,0,0-3.805,1.225l.237-9.443.247-9.8a6.629,6.629,0,0,1,4.6,6.224C2930.143,326.951,2930.8,333,2932.115,333.961Z" transform="translate(-2924.926 -316.956)" fill="#7ff9ff"/>
    </g>
    <g id="Grupo_86970" data-name="Grupo 86970" transform="translate(2553.956 276.596)" opacity="0.65">
      <path id="Trazado_152825" data-name="Trazado 152825" d="M2929.223,349.017a6.3,6.3,0,0,1-1.052.01,5,5,0,0,0-3.805,1.225l-.218-8.233.455-1.21,1.628-4.318s3.466,4.357,2.606,6.924A8.02,8.02,0,0,0,2929.223,349.017Z" transform="translate(-2924.148 -336.493)" fill="#379690"/>
    </g>
    <path id="Trazado_152826" data-name="Trazado 152826" d="M3324.806,627.663a38.447,38.447,0,0,0-7.708-3.278,79.079,79.079,0,0,1-10.655-4.549l-.4,8.763s9.231,5.552,12.71,5.82S3324.806,627.663,3324.806,627.663Z" transform="translate(-644.97 -263.766)" fill="#5e43cc"/>
    <path id="Trazado_152827" data-name="Trazado 152827" d="M3352.026,577.357a6.618,6.618,0,0,1-2.676-2.654c-.58-1.516.847-3.389,2.5-3.657a2.885,2.885,0,0,1,2.631,1.026,2.824,2.824,0,0,1,3.389-1.516c2.587.535,2.274,3.523,2.141,4.772s.669-.312,3.88,1.739-1.427,8.251-3.791,9.678-.2,3.833-3.7,3.791S3352.026,577.357,3352.026,577.357Z" transform="translate(-676.036 -228.244)" fill="#0c1b3c"/>
    <path id="Trazado_152828" data-name="Trazado 152828" d="M3442.555,953.6c-1,.931-4,1.77-4,1.77a5.452,5.452,0,0,0-.731-1.688,21.233,21.233,0,0,0-1.2-1.8l4.054-2.964,1.083,2.706Z" transform="translate(-738.927 -500.549)" fill="#e9928b"/>
    <path id="Trazado_152829" data-name="Trazado 152829" d="M3433.828,965.609a13.757,13.757,0,0,1,3.331,4.33l-12.663,5.6s-.045-1.452,2.814-4.033c1.732-1.563,2.559-1.954,2.522-4.132Z" transform="translate(-730.199 -512.554)" fill="#0c1b3c"/>
    <rect id="Rectángulo_8030" data-name="Rectángulo 8030" width="13.852" height="1.204" transform="translate(2694.297 462.988) rotate(-23.872)" fill="#8dbcd6"/>
    <path id="Trazado_152830" data-name="Trazado 152830" d="M3445.816,975.681a3.5,3.5,0,0,0-2.731-.089l-.064-.128a3.573,3.573,0,0,1,2.851.085Z" transform="translate(-743.528 -519.467)" fill="#fff"/>
    <path id="Trazado_152831" data-name="Trazado 152831" d="M3442.994,980.817a3.76,3.76,0,0,0-2.163-.286l-.026-.141a3.834,3.834,0,0,1,2.257.3Z" transform="translate(-741.934 -523.151)" fill="#fff"/>
    <path id="Trazado_152832" data-name="Trazado 152832" d="M3439.2,984.46a2.375,2.375,0,0,0-1.721-.55l-.013-.143a2.468,2.468,0,0,1,1.839.595Z" transform="translate(-739.53 -525.615)" fill="#fff"/>
    <path id="Trazado_152833" data-name="Trazado 152833" d="M3338.373,970.513l-.126,3.592-.053,1.449c-1.293.444-4.37,0-4.37,0a4.508,4.508,0,0,0,.053-1.449,19.886,19.886,0,0,0-.41-2.522Z" transform="translate(-664.702 -516.083)" fill="#e9928b"/>
    <path id="Trazado_152834" data-name="Trazado 152834" d="M3333.466,971.583l4.907-1.07-.126,3.592h-4.37A19.886,19.886,0,0,0,3333.466,971.583Z" transform="translate(-664.702 -516.083)" fill="#de6667"/>
    <path id="Trazado_152835" data-name="Trazado 152835" d="M3441.764,951.629l-3.937,2.056a21.233,21.233,0,0,0-1.2-1.8l4.054-2.964Z" transform="translate(-738.927 -500.549)" fill="#de6667"/>
    <path id="Trazado_152836" data-name="Trazado 152836" d="M3318.119,988.483a13.76,13.76,0,0,1,1.293,5.307h-13.847s.546-1.346,4.205-2.549c2.217-.729,3.131-.751,3.978-2.758Z" transform="translate(-644.627 -529.013)" fill="#0c1b3c"/>
    <path id="Trazado_152837" data-name="Trazado 152837" d="M3335.061,993.434a3.484,3.484,0,0,0-2.461-1.186l-.007-.143a3.569,3.569,0,0,1,2.573,1.231Z" transform="translate(-664.074 -531.617)" fill="#fff"/>
    <path id="Trazado_152838" data-name="Trazado 152838" d="M3330.517,996.535a3.759,3.759,0,0,0-1.862-1.136l.033-.14a3.839,3.839,0,0,1,1.943,1.189Z" transform="translate(-661.24 -533.888)" fill="#fff"/>
    <path id="Trazado_152839" data-name="Trazado 152839" d="M3325.587,998.22a2.365,2.365,0,0,0-1.351-1.2l.046-.136a2.469,2.469,0,0,1,1.441,1.288Z" transform="translate(-658.061 -535.058)" fill="#fff"/>
    <path id="Trazado_152840" data-name="Trazado 152840" d="M3385.893,821.2l-7.534,3.842s-6.347-8.291-11.1-15.083l-.005-.005a.512.512,0,0,0-.034-.05c-.008-.013-.018-.026-.029-.045a71.76,71.76,0,0,1-4.622-7.213c-1.825-3.655-3.495-17.638-4.289-25.209-.312-2.958-.489-4.938-.489-4.938l10.376-1.712.994-.166,2.68-.442s1.562,26.045,2.1,27.738S3385.893,821.2,3385.893,821.2Z" transform="translate(-682.206 -371.938)" fill="#376f92"/>
    <path id="Trazado_152841" data-name="Trazado 152841" d="M3369.679,779.482c-1.709,5.259.526,9.86-1.841,18.125-2.154,7.52.173,11.58.61,12.248a71.862,71.862,0,0,1-4.623-7.213c-1.825-3.655-3.494-17.638-4.289-25.209l9.887-6.65.9-.608s.039.155.092.442A18.641,18.641,0,0,1,3369.679,779.482Z" transform="translate(-683.461 -371.938)" fill="#1b5175"/>
    <path id="Trazado_152842" data-name="Trazado 152842" d="M3324.938,753.926s-4.192,27.115-4.371,29.97,2.319,26.848,2.319,26.848h8.563s-.089-23.191.535-26.937c.43-2.578,7.346-16.478,9.848-27.148,1.134-4.834,1.361-9-.33-11.16-1.412-1.8-6.842,6.287-6.842,6.287Z" transform="translate(-655.414 -353.993)" fill="#376f92"/>
    <rect id="Rectángulo_8031" data-name="Rectángulo 8031" width="13.852" height="1.204" transform="translate(2660.938 464.778)" fill="#8dbcd6"/>
    <path id="Trazado_152843" data-name="Trazado 152843" d="M2409.645,947.327s.395-10.143,8.677-14.583A12.049,12.049,0,0,1,2432.5,934.2s4.4-12.655,16.8-12.234,13.279,10.778,13.279,10.778,11.688-2.492,20.394,4.225S2491,947.853,2491,947.853Z" transform="translate(0 -481.146)" fill="#adccc7"/>
    <path id="Trazado_152844" data-name="Trazado 152844" d="M2619.8,993.408l-.377-.208c2.686-4.887,8.509-6.6,8.567-6.613l.118.414C2628.054,987.018,2622.4,988.682,2619.8,993.408Z" transform="translate(-150.94 -527.649)" fill="#6eab9c"/>
    <path id="Trazado_152845" data-name="Trazado 152845" d="M2605.934,977.7h-5.172l-.115-1.906-.234-3.857h4.951l.381,3.857Z" transform="translate(-137.259 -517.108)" fill="#e9928b"/>
    <g id="Grupo_86971" data-name="Grupo 86971" transform="translate(2576.176 400.64)" opacity="0.4">
      <path id="Trazado_152846" data-name="Trazado 152846" d="M3037.258,798.648l-.971-.539a1.907,1.907,0,0,1-.983-1.7c0-.079,0-.158,0-.237s0-.158,0-.237a1.907,1.907,0,0,1,.983-1.7l.971-.539a1.917,1.917,0,0,0,.92-2.168c0-.009-.005-.02-.009-.029a1.914,1.914,0,0,0-1.879-1.417l-1.113.018a1.924,1.924,0,0,1-1.709-1c-.071-.122-.14-.245-.21-.365a1.927,1.927,0,0,1-.013-1.985l.57-.948a1.914,1.914,0,0,0-.288-2.337l-.023-.024a1.914,1.914,0,0,0-2.337-.287l-.947.57a1.928,1.928,0,0,1-1.985-.012l-.365-.21a1.925,1.925,0,0,1-1-1.71l.018-1.113a1.913,1.913,0,0,0-1.416-1.879l-.029-.009a1.917,1.917,0,0,0-2.168.92l-.539.971a1.908,1.908,0,0,1-1.7.983c-.079,0-.158,0-.237,0s-.158,0-.237,0a1.908,1.908,0,0,1-1.7-.983l-.54-.971a1.917,1.917,0,0,0-2.168-.92l-.029.009a1.913,1.913,0,0,0-1.417,1.879l.018,1.113a1.926,1.926,0,0,1-1,1.71l-.365.21a1.928,1.928,0,0,1-1.985.012l-.948-.57a1.914,1.914,0,0,0-2.337.287l-.024.024a1.914,1.914,0,0,0-.287,2.337l.57.948a1.929,1.929,0,0,1-.013,1.985c-.07.12-.14.243-.21.365a1.925,1.925,0,0,1-1.71,1l-1.113-.018a1.914,1.914,0,0,0-1.879,1.417c0,.009-.005.02-.009.029a1.917,1.917,0,0,0,.921,2.168l.971.539a1.908,1.908,0,0,1,.983,1.7c0,.079,0,.158,0,.237s0,.158,0,.237a1.908,1.908,0,0,1-.983,1.7l-.971.539a1.917,1.917,0,0,0-.921,2.168c0,.009.005.02.009.029a1.914,1.914,0,0,0,1.879,1.417l1.113-.018a1.925,1.925,0,0,1,1.71,1c.07.122.14.245.21.365a1.929,1.929,0,0,1,.013,1.985l-.57.947a1.914,1.914,0,0,0,.287,2.337l.024.023a1.914,1.914,0,0,0,2.337.288l.948-.57a1.928,1.928,0,0,1,1.985.012l.365.21a1.926,1.926,0,0,1,1,1.71l-.018,1.113a1.913,1.913,0,0,0,1.417,1.879l.029.009a1.917,1.917,0,0,0,2.168-.92l.54-.971a1.907,1.907,0,0,1,1.7-.983c.079,0,.158,0,.237,0s.158,0,.237,0a1.907,1.907,0,0,1,1.7.983l.539.971a1.917,1.917,0,0,0,2.168.92l.029-.009a1.913,1.913,0,0,0,1.416-1.879l-.018-1.113a1.925,1.925,0,0,1,1-1.71l.365-.21a1.928,1.928,0,0,1,1.985-.012l.947.57a1.914,1.914,0,0,0,2.337-.288l.023-.023a1.915,1.915,0,0,0,.288-2.337l-.57-.947a1.927,1.927,0,0,1,.013-1.985c.07-.12.14-.243.21-.365a1.925,1.925,0,0,1,1.709-1l1.113.018a1.914,1.914,0,0,0,1.879-1.417c0-.009.006-.02.009-.029A1.917,1.917,0,0,0,3037.258,798.648Zm-16.453,8.315a10.787,10.787,0,1,1,10.787-10.787A10.786,10.786,0,0,1,3020.8,806.962Z" transform="translate(-3003.367 -778.738)" fill="#d07efc"/>
    </g>
    <g id="Grupo_86972" data-name="Grupo 86972" transform="translate(2522.751 408.596)" opacity="0.4">
      <path id="Trazado_152847" data-name="Trazado 152847" d="M2862.466,836.226l-1.42-.789a2.79,2.79,0,0,1-1.438-2.479c0-.116.005-.231.005-.347s0-.231-.005-.347a2.79,2.79,0,0,1,1.438-2.479l1.42-.789a2.8,2.8,0,0,0,1.346-3.171c-.005-.013-.008-.029-.013-.042a2.8,2.8,0,0,0-2.748-2.072l-1.628.026a2.816,2.816,0,0,1-2.5-1.459c-.1-.179-.205-.358-.308-.534a2.82,2.82,0,0,1-.019-2.9l.834-1.386a2.8,2.8,0,0,0-.421-3.418l-.034-.034a2.8,2.8,0,0,0-3.418-.421l-1.386.834a2.82,2.82,0,0,1-2.9-.018c-.176-.1-.355-.205-.534-.308a2.816,2.816,0,0,1-1.459-2.5l.026-1.628a2.8,2.8,0,0,0-2.072-2.748c-.013-.005-.029-.008-.042-.013a2.8,2.8,0,0,0-3.171,1.346l-.789,1.42a2.79,2.79,0,0,1-2.479,1.438c-.116,0-.231-.005-.347-.005s-.231,0-.347.005a2.79,2.79,0,0,1-2.48-1.438l-.789-1.42a2.8,2.8,0,0,0-3.171-1.346c-.013.005-.029.008-.042.013a2.8,2.8,0,0,0-2.072,2.748l.026,1.628a2.816,2.816,0,0,1-1.459,2.5c-.179.1-.358.205-.534.308a2.82,2.82,0,0,1-2.9.018l-1.386-.834a2.8,2.8,0,0,0-3.418.421l-.034.034a2.8,2.8,0,0,0-.421,3.418l.833,1.386a2.82,2.82,0,0,1-.018,2.9c-.1.176-.205.355-.308.534a2.816,2.816,0,0,1-2.5,1.459l-1.628-.026a2.8,2.8,0,0,0-2.748,2.072c-.005.013-.008.029-.013.042a2.8,2.8,0,0,0,1.346,3.171l1.42.789a2.789,2.789,0,0,1,1.438,2.479c0,.116-.005.231-.005.347s0,.231.005.347a2.789,2.789,0,0,1-1.438,2.479l-1.42.789a2.8,2.8,0,0,0-1.346,3.171c.005.013.008.029.013.042a2.8,2.8,0,0,0,2.748,2.072l1.628-.026a2.816,2.816,0,0,1,2.5,1.459c.1.179.205.358.308.534a2.82,2.82,0,0,1,.018,2.9l-.833,1.386a2.8,2.8,0,0,0,.421,3.418l.034.034a2.8,2.8,0,0,0,3.418.421l1.386-.834a2.82,2.82,0,0,1,2.9.018c.176.1.355.205.534.308a2.816,2.816,0,0,1,1.459,2.5l-.026,1.628a2.8,2.8,0,0,0,2.072,2.748c.013.005.029.008.042.013a2.8,2.8,0,0,0,3.171-1.346l.789-1.42a2.791,2.791,0,0,1,2.48-1.438c.116,0,.231.005.347.005s.231,0,.347-.005a2.791,2.791,0,0,1,2.479,1.438l.789,1.42a2.8,2.8,0,0,0,3.171,1.346c.013-.005.029-.008.042-.013a2.8,2.8,0,0,0,2.072-2.748l-.026-1.628a2.815,2.815,0,0,1,1.459-2.5c.179-.1.358-.205.534-.308a2.82,2.82,0,0,1,2.9-.018l1.386.834a2.8,2.8,0,0,0,3.418-.421l.034-.034a2.8,2.8,0,0,0,.421-3.418l-.834-1.386a2.82,2.82,0,0,1,.019-2.9c.1-.176.205-.355.308-.534a2.816,2.816,0,0,1,2.5-1.459l1.628.026a2.8,2.8,0,0,0,2.748-2.072c.005-.013.008-.029.013-.042A2.8,2.8,0,0,0,2862.466,836.226ZM2838.4,848.387a15.777,15.777,0,1,1,15.777-15.777A15.776,15.776,0,0,1,2838.4,848.387Z" transform="translate(-2812.896 -807.105)" fill="#d07efc"/>
      <circle id="Elipse_8384" data-name="Elipse 8384" cx="7.121" cy="7.121" r="7.121" transform="translate(18.384 18.515)" fill="#d07efc"/>
    </g>
    <path id="Trazado_152848" data-name="Trazado 152848" d="M2872.209,604.243l-156.717,2.892-3.681-2.892V512.737h160.4l3.681,2.892Z" transform="translate(-217.413 -186.707)" fill="#b6d5d0"/>
    <path id="Trazado_152849" data-name="Trazado 152849" d="M2872.209,459.622l-156.717,2.892-3.681-2.892v-11.57h160.4l3.681,2.892Z" transform="translate(-217.413 -140.165)" fill="#b6d5d0"/>
    <rect id="Rectángulo_8032" data-name="Rectángulo 8032" width="160.398" height="91.506" transform="translate(2498.08 328.923)" fill="#dceceb"/>
    <circle id="Elipse_8385" data-name="Elipse 8385" cx="23.012" cy="23.012" r="23.012" transform="translate(2437.313 346.54) rotate(-45)" fill="#b2d3e4"/>
    <path id="Trazado_152850" data-name="Trazado 152850" d="M2593.305,534.99v.045a19.791,19.791,0,1,1,0-.045Z" transform="translate(-103.634 -188.495)" fill="#fff"/>
    <path id="Trazado_152851" data-name="Trazado 152851" d="M2644.13,534.99h-19.813V515.222A19.812,19.812,0,0,1,2644.13,534.99Z" transform="translate(-154.459 -188.495)" fill="#dceceb"/>
    <g id="Grupo_86973" data-name="Grupo 86973" transform="translate(2469.445 328.357)">
      <rect id="Rectángulo_8033" data-name="Rectángulo 8033" width="0.825" height="2.649" fill="#8fb9cf"/>
      <rect id="Rectángulo_8034" data-name="Rectángulo 8034" width="0.825" height="2.649" transform="translate(0 33.63)" fill="#8fb9cf"/>
    </g>
    <g id="Grupo_86974" data-name="Grupo 86974" transform="translate(2451.717 346.065)">
      <rect id="Rectángulo_8035" data-name="Rectángulo 8035" width="0.825" height="2.649" transform="translate(33.63 0.86) rotate(-89.94)" fill="#8fb9cf"/>
      <rect id="Rectángulo_8036" data-name="Rectángulo 8036" width="0.825" height="2.649" transform="translate(0 0.825) rotate(-89.938)" fill="#8fb9cf"/>
    </g>
    <g id="Grupo_86975" data-name="Grupo 86975" transform="translate(2460.274 330.67)">
      <rect id="Rectángulo_8037" data-name="Rectángulo 8037" width="2.649" height="0.825" transform="matrix(0.509, -0.861, 0.861, 0.509, 17.109, 2.28)" fill="#8fb9cf"/>
      <rect id="Rectángulo_8038" data-name="Rectángulo 8038" width="2.649" height="0.825" transform="translate(0 31.234) rotate(-59.42)" fill="#8fb9cf"/>
    </g>
    <g id="Grupo_86976" data-name="Grupo 86976" transform="translate(2454.04 336.897)">
      <rect id="Rectángulo_8039" data-name="Rectángulo 8039" width="0.825" height="2.649" transform="matrix(0.51, -0.86, 0.86, 0.51, 28.935, 17.849)" fill="#8fb9cf"/>
      <rect id="Rectángulo_8040" data-name="Rectángulo 8040" width="0.825" height="2.649" transform="matrix(0.51, -0.86, 0.86, 0.51, 0, 0.709)" fill="#8fb9cf"/>
    </g>
    <g id="Grupo_86977" data-name="Grupo 86977" transform="translate(2453.866 337.206)">
      <rect id="Rectángulo_8041" data-name="Rectángulo 8041" width="2.649" height="0.825" transform="translate(29.27 1.304) rotate(-29.499)" fill="#8fb9cf"/>
      <rect id="Rectángulo_8042" data-name="Rectángulo 8042" width="2.649" height="0.825" transform="translate(0 17.864) rotate(-29.499)" fill="#8fb9cf"/>
    </g>
    <g id="Grupo_86978" data-name="Grupo 86978" transform="translate(2460.583 330.497)">
      <rect id="Rectángulo_8043" data-name="Rectángulo 8043" width="0.825" height="2.649" transform="translate(16.529 29.693) rotate(-29.439)" fill="#8fb9cf"/>
      <rect id="Rectángulo_8044" data-name="Rectángulo 8044" width="0.825" height="2.649" transform="matrix(0.871, -0.491, 0.491, 0.871, 0, 0.405)" fill="#8fb9cf"/>
    </g>
    <path id="Trazado_152852" data-name="Trazado 152852" d="M2632.63,557.67a.494.494,0,0,1-.247-.066l-9.83-5.667V538.871a.495.495,0,1,1,.989,0v12.494l9.336,5.382a.495.495,0,0,1-.248.923Z" transform="translate(-153.19 -205.154)" fill="#3fb8a9"/>
    <rect id="Rectángulo_8045" data-name="Rectángulo 8045" width="160.398" height="11.57" transform="translate(2498.08 310.779)" fill="#c6e0dd"/>
    <g id="Grupo_86982" data-name="Grupo 86982" transform="translate(2504.478 314.899)">
      <g id="Grupo_86979" data-name="Grupo 86979" transform="translate(13.673 0)">
        <path id="Trazado_152853" data-name="Trazado 152853" d="M2799.827,474.716a1.665,1.665,0,1,1-1.666-1.665A1.666,1.666,0,0,1,2799.827,474.716Z" transform="translate(-2796.496 -473.051)" fill="#67b4d2"/>
      </g>
      <g id="Grupo_86980" data-name="Grupo 86980" transform="translate(6.837 0)">
        <circle id="Elipse_8386" data-name="Elipse 8386" cx="1.665" cy="1.665" r="1.665" fill="#eb908b"/>
      </g>
      <g id="Grupo_86981" data-name="Grupo 86981" transform="translate(0 0)">
        <circle id="Elipse_8387" data-name="Elipse 8387" cx="1.665" cy="1.665" r="1.665" fill="#ffaa3f"/>
      </g>
    </g>
    <path id="Trazado_152854" data-name="Trazado 152854" d="M3367.552,628.453l-6.087,1.741-.407-2.624-.395-2.527,5.217-2.34.021.074Z" transform="translate(-684.27 -265.828)" fill="#e9928b"/>
    <path id="Trazado_152855" data-name="Trazado 152855" d="M3365.9,622.776a3.142,3.142,0,0,1-.189.5,8.6,8.6,0,0,1-4.654,4.289l-.395-2.527,5.217-2.34Z" transform="translate(-684.27 -265.829)" fill="#de6667"/>
    <path id="Trazado_152856" data-name="Trazado 152856" d="M3357.033,680.244s-1.338.268-7.938,2.23-14.717-.444-14.717-.444-.047-1.5-.068-3.865c-.026-2.75-.016-6.671.145-10.76.081-2.053.2-4.146.371-6.158.8-9.456,7.67-16.3,7.67-16.3l6.087-1.741s3.279,1,4.439,6.266.712,12.577.98,14.985S3357.033,680.244,3357.033,680.244Z" transform="translate(-665.301 -280.58)" fill="#856de9"/>
    <path id="Trazado_152857" data-name="Trazado 152857" d="M3352.135,668.657a58.718,58.718,0,0,1-1.875,12.637c-1.743,6.324-4.92,6.035-7.726,10.944-2.127,3.726-6.324,4.218-8.225,4.239-.026-2.75-.016-6.671.145-10.76l1.3-.11,7.394-7.321Z" transform="translate(-665.301 -298.893)" fill="#5e43cc"/>
    <path id="Trazado_152858" data-name="Trazado 152858" d="M3357.154,636.672c-.87.358.8,2.421.8,2.421a23.979,23.979,0,0,0,6.891-2.622l-.764-2.627S3359.428,635.735,3357.154,636.672Z" transform="translate(-681.565 -273.845)" fill="#93405e"/>
    <path id="Trazado_152859" data-name="Trazado 152859" d="M2501.978,975.847l-.466,2.761-.323,1.906h-5l.294-1.906.429-2.761Z" transform="translate(-62.273 -519.921)" fill="#e9928b"/>
    <path id="Trazado_152860" data-name="Trazado 152860" d="M2497.672,975.847h5.062l-.465,2.761h-5.025Z" transform="translate(-63.028 -519.921)" fill="#de6667"/>
    <path id="Trazado_152861" data-name="Trazado 152861" d="M2605.744,975.8h-5.1l-.234-3.857h4.951Z" transform="translate(-137.259 -517.108)" fill="#de6667"/>
    <path id="Trazado_152862" data-name="Trazado 152862" d="M2511.575,786.747s-.16,2.834-.41,6.324c-.3,4.241-.734,9.45-1.168,11.688-.208,1.075-.789,3.392-1.533,6.221-2.085,7.9-5.435,19.81-5.435,19.81h-6.836s1.446-19.59,2.041-22.219.195-11.438-.331-17.88.789-18.275.789-18.275l9.816,1.154,1.36.16.094.718.692,5.275.61,4.641Z" transform="translate(-62.273 -373.549)" fill="#489da2"/>
    <path id="Trazado_152863" data-name="Trazado 152863" d="M2531.592,805.175s-.789,13.936-1.578,18.012c-.208,1.075-.789,3.392-1.533,6.221a27.133,27.133,0,0,0-1.623-2.8c-4.078-6.184,1.841-10.255-1.4-15.908s0-12.669,0-12.669l5.824,4.765Z" transform="translate(-82.289 -391.978)" fill="#408c91"/>
    <path id="Trazado_152864" data-name="Trazado 152864" d="M2493.664,992.488h5s.789,1.841,1.906,2.235,3.878.592,3.878,2.827h-11.767a20.175,20.175,0,0,1,.526-3.353A11.158,11.158,0,0,0,2493.664,992.488Z" transform="translate(-59.743 -531.894)" fill="#ffc945"/>
    <rect id="Rectángulo_8046" data-name="Rectángulo 8046" width="11.767" height="1.052" transform="translate(2432.935 465.655)" fill="#fff"/>
    <path id="Trazado_152865" data-name="Trazado 152865" d="M2554.533,830.791h-7.888s-5.785-22.351-5.916-23.928c-.105-1.257-4.376-8.6-7.641-13.792-.833-1.331-1.6-2.522-2.219-3.431-1.93-2.853-3.111-7.852-3.713-11.091-.339-1.835-.494-3.108-.494-3.108l5.222-.991,10.686-2.033s.923,2.75,2.148,6.605c2.3,7.228,5.661,18.335,6,22.45C2551.246,807.783,2554.533,830.791,2554.533,830.791Z" transform="translate(-84.195 -373.549)" fill="#489da2"/>
    <path id="Trazado_152866" data-name="Trazado 152866" d="M2530.215,779.021a20.374,20.374,0,0,1-12.143.7c-.15-.04-.295-.082-.437-.124a40.047,40.047,0,0,0-4.983-1.052c-3.15-.5-6.148-.786-6.148-.786l9.421-4.191,1.36.16.094.718,10.686-2.033S2528.99,775.166,2530.215,779.021Z" transform="translate(-69.692 -373.549)" fill="#408c91"/>
    <path id="Trazado_152867" data-name="Trazado 152867" d="M2599.3,992.488h5.171s2.323,2.366,4.821,2.629,3.813.92,4.47,2.432h-15.382Z" transform="translate(-135.795 -531.894)" fill="#ffc945"/>
    <rect id="Rectángulo_8047" data-name="Rectángulo 8047" width="15.382" height="1.052" transform="translate(2462.582 465.655)" fill="#fff"/>
    <path id="Trazado_152868" data-name="Trazado 152868" d="M2502.208,578.116l1.03-2.169a7.4,7.4,0,0,0,2.388-4.536c.263-2.761-3.681-4.93-6.311-2.432s-3.024,7.56-5.062,7.888-4.93,3.09-1.643,5.259a2.683,2.683,0,0,0,.92,3.681c2.235,1.643,3.221,1.709,3.221,1.709s.922,1.052,1.118.066a12.244,12.244,0,0,1,1.38-2.827Z" transform="translate(-58.624 -226.383)" fill="#0c1b3c"/>
    <path id="Trazado_152869" data-name="Trazado 152869" d="M2516.408,627.263l1.227,5.434-6.442.877v-5.127l1.118-2.965,3.712-.716Z" transform="translate(-73.065 -267.312)" fill="#e9928b"/>
    <path id="Trazado_152870" data-name="Trazado 152870" d="M2507.912,648.243l.465-2.41a18.8,18.8,0,0,1,6.75-.564l1.151,2.2Z" transform="translate(-70.705 -281.982)" fill="#f2bb34"/>
    <path id="Trazado_152871" data-name="Trazado 152871" d="M2516.511,596.641s3.024,4.163,3.506,4.733-.57,1.008-.92,2.06.65,3.594-.771,4.339-4.532-.57-5.8-2.323a2.418,2.418,0,0,1-2.629-1.534c-.964-1.928.394-2.761,1.84-2.147s1.841-.395,1.578-1.709S2516.511,596.641,2516.511,596.641Z" transform="translate(-71.897 -247.077)" fill="#e9928b"/>
    <path id="Trazado_152872" data-name="Trazado 152872" d="M2625.786,557.478s.552-2.535.814-3.674,1.1-4.383,1.885-4.514-.263,3.55,0,3.9,2.41.833,2.454,1.841-1.428,3.916-1.428,3.916Z" transform="translate(-155.516 -213.005)" fill="#e9928b"/>
    <path id="Trazado_152873" data-name="Trazado 152873" d="M2955.332,521.545l-1.553.366a8.864,8.864,0,0,0-2.673,2.691c-.6,1.323-1.93,4.862-1.93,4.862l1.987.689s.6-2.643,1.526-2.393.746,2.764,2.324,3.729a39.266,39.266,0,0,0,5.2,2.257s-2.69-3.577-2.911-5.046a29.436,29.436,0,0,1,.3-5.287Z" transform="translate(-388.199 -193.044)" fill="#1c5276"/>
    <path id="Trazado_152874" data-name="Trazado 152874" d="M2971.267,501.382l-1.417,5.383-.437,1.664-3.828-1.5.145-1.37.513-4.838Z" transform="translate(-400.006 -178.06)" fill="#ffac95"/>
    <path id="Trazado_152875" data-name="Trazado 152875" d="M2966.613,500.719l5.025.663-1.417,5.383-4.12-1.207Z" transform="translate(-400.377 -178.06)" fill="#e9928b"/>
    <path id="Trazado_152876" data-name="Trazado 152876" d="M2943.643,425.344c-.386,1.7-.926,3.684-1.612,5.993-.584,1.972-1.278,4.186-2.072,6.671l-1.678,4.339-2.611-.715-4.388-1.2-4.383-1.63s2.085-5.13,3.776-9.613v0c.473-1.262.917-2.469,1.275-3.5a21.208,21.208,0,0,0,.823-2.748c.058-.379-.389-.886-1.175-1.464-3.2-2.361-12.006-5.94-15.187-7.2-.734-.289-1.168-.455-1.168-.455l.839-.521,2.4-1.5s1.378.118,3.474.329c4.894.492,13.7,1.486,18,2.653C2944.206,415.934,2945.263,418.224,2943.643,425.344Z" transform="translate(-363.784 -114.081)" fill="#5f6386"/>
    <path id="Trazado_152877" data-name="Trazado 152877" d="M2944.739,418.867c.855.824,5.807.843,8.634,3.341s1.928,8.745,1.928,8.745L2931.57,420.59Z" transform="translate(-375.532 -119.166)" fill="#4a4e73"/>
    <path id="Trazado_152878" data-name="Trazado 152878" d="M2981.01,456.139c-.584,1.972-1.278,4.186-2.072,6.671l-2.136,4.339-6.541-1.92c.069-2.114,1.675-4.112.176-5.488-1.335-1.223-1.081-3.776-.784-5.756v0a52.641,52.641,0,0,0,2.1-6.248c.058-.379-.389-.886-1.175-1.464l6.226.413Z" transform="translate(-402.763 -138.884)" fill="#4a4e73"/>
    <path id="Trazado_152879" data-name="Trazado 152879" d="M2998.969,534.3l-1.347.855a8.866,8.866,0,0,0-1.643,3.418c-.132,1.446-.23,5.226-.23,5.226h2.1s-.3-2.7.657-2.761,1.611,2.366,3.418,2.761a39.261,39.261,0,0,0,5.654.427s-3.714-2.5-4.4-3.813a29.416,29.416,0,0,1-1.446-5.094Z" transform="translate(-421.709 -202.221)" fill="#1c5276"/>
    <path id="Trazado_152880" data-name="Trazado 152880" d="M3002.905,519.3l-4.107-.166-.581-2.5-.833-3.581,4.964-1.018.294,3.828Z" transform="translate(-422.886 -186.201)" fill="#ffac95"/>
    <path id="Trazado_152881" data-name="Trazado 152881" d="M3002.642,515.863l-4.425.77-.833-3.581,4.964-1.018Z" transform="translate(-422.886 -186.201)" fill="#e9928b"/>
    <path id="Trazado_152882" data-name="Trazado 152882" d="M2913.32,445.164l-11.133,1.664s-.06-.518-.168-1.372c-.507-4.013-2.043-15.472-3.074-15.851a2.9,2.9,0,0,0-.647-.1c-3.24-.268-16.505.139-23.873-.82-4.181-.544-5.532-3.495-5.864-6.219a15.214,15.214,0,0,1,.276-4.891l13.592-.455.126-.005s.789.074,2.093.216c5.772.623,21.622,2.543,23.413,4.956.389.526,1.128,3.368,1.93,6.881C2911.537,435.926,2913.32,445.164,2913.32,445.164Z" transform="translate(-330.132 -117.905)" fill="#5f6386"/>
    <path id="Trazado_152883" data-name="Trazado 152883" d="M2888.306,412.129a14.324,14.324,0,0,1-2.963,1.162c-.239.068-.471.139-.694.216a15.445,15.445,0,0,0-1.89.765c-3.185,1.536-4.886,3.676-8.333,5a6.434,6.434,0,0,1-5.864-.631,15.214,15.214,0,0,1,.276-4.891l13.592-.455,2.4-1.5S2886.21,411.918,2888.306,412.129Z" transform="translate(-330.132 -114.081)" fill="#4a4e73"/>
    <path id="Trazado_152884" data-name="Trazado 152884" d="M2882.907,327.729c-1.338,2.869-2.432,6.421-2.074,9.689.01.1.023.2.037.3.46,3.353-.105,4.2-1.454,3.994s-5.974,2.448-9.327,3.368-8.283-1.381-8.283-1.381,2.761-8.546,2.761-11.9c0-1.191-.089-3.339-.108-5.732-.032-4.333-1.707-8.96-.266-10.653,1.328-1.562,5.908-2.8,7.881-3.13a20.781,20.781,0,0,1,2.353-.271,10.157,10.157,0,0,1,6.179,1.743l.131.1c1.118.855.723,2.564.855,3.813S2884.288,324.771,2882.907,327.729Z" transform="translate(-325.336 -42.259)" fill="#7ff9ff"/>
    <path id="Trazado_152885" data-name="Trazado 152885" d="M2906.861,313.592c-.01,2.117-.852,4.143-3.579,3.935-6.061-.46-5.035-5.251-5.035-5.251a20.776,20.776,0,0,1,2.353-.271A10.421,10.421,0,0,1,2906.861,313.592Z" transform="translate(-351.509 -42.246)" fill="#fff"/>
    <g id="Grupo_86983" data-name="Grupo 86983" transform="translate(2536.47 278.292)" opacity="0.65">
      <path id="Trazado_152886" data-name="Trazado 152886" d="M2879.416,363.7c-1.349-.205-5.974,2.448-9.327,3.368s-8.283-1.381-8.283-1.381,2.761-8.546,2.761-11.9c0-1.191-.089-3.339-.108-5.732,3.124-2.89,5.979-5.522,5.979-5.522s.768,8.164,2.543,10.465.224,3.055,3.563,3.928a11.226,11.226,0,0,1,4.289,2.474c.01.1.023.2.037.3C2881.33,363.063,2880.764,363.91,2879.416,363.7Z" transform="translate(-2861.806 -342.54)" fill="#379690"/>
    </g>
    <path id="Trazado_152887" data-name="Trazado 152887" d="M2938.016,419.1v-.657L2928,418.215l-11.631,1.022v.657l10.019.884Z" transform="translate(-364.593 -118.697)" fill="#88afc4"/>
    <path id="Trazado_152888" data-name="Trazado 152888" d="M2938.016,416.756,2928,415.872l-11.631,1.679,10.019.884Z" transform="translate(-364.593 -117.011)" fill="#8fb9cf"/>
    <path id="Trazado_152889" data-name="Trazado 152889" d="M2895.012,392.569c-.742.165-2.979-.841-4.951-.834s-14.473-2.979-15.832-4.951c-.118-.171-.234-.355-.35-.547a32.063,32.063,0,0,1-2.237-5.064l5.743.2s.439,1.023.839,1.756a5.393,5.393,0,0,0,.3.5c.437.613,10.868,5.172,12.621,5.609s2.753.121,3.745,1.144S2895.753,392.4,2895.012,392.569Z" transform="translate(-332.413 -92.045)" fill="#ffac95"/>
    <path id="Trazado_152890" data-name="Trazado 152890" d="M2877.384,381.375s.439,1.023.839,1.756a13.045,13.045,0,0,0-4.344,3.105,32.063,32.063,0,0,1-2.237-5.064Z" transform="translate(-332.413 -92.045)" fill="#e9928b"/>
    <path id="Trazado_152891" data-name="Trazado 152891" d="M2909.439,294.408a28.979,28.979,0,0,0-1.2,3.581,4.179,4.179,0,0,0-.118.757c-.042,1.228-.568,2.456-2.145,2.543a5.642,5.642,0,0,1-3.653-1.854,2.676,2.676,0,0,1-.337-3.292l2.017-3.182a3.327,3.327,0,0,0,2.519-2.059c.555-1.186,1.531.418,2.2,1.825C2909.141,293.606,2909.439,294.408,2909.439,294.408Z" transform="translate(-353.95 -26.797)" fill="#ffac95"/>
    <path id="Trazado_152892" data-name="Trazado 152892" d="M2920.618,298.726a28.979,28.979,0,0,0-1.2,3.581c-3.218-1.62-2.135-5.816-2.135-5.816s1.209.252,2.616.555C2920.32,297.924,2920.618,298.726,2920.618,298.726Z" transform="translate(-365.129 -31.115)" fill="#e9928b"/>
    <path id="Trazado_152893" data-name="Trazado 152893" d="M3013.582,262.053h-31.115v10.716h5.545l-2.892,6.814,10.34-6.814h18.123Z" transform="translate(-412.153 -6.336)" fill="#b2e5e0"/>
    <g id="Grupo_86984" data-name="Grupo 86984" transform="translate(2507.357 340.237)">
      <path id="Trazado_152894" data-name="Trazado 152894" d="M2770.164,563.389a12.153,12.153,0,1,0,12.153,12.154A12.152,12.152,0,0,0,2770.164,563.389Zm0,19.976a7.823,7.823,0,1,1,7.822-7.822A7.823,7.823,0,0,1,2770.164,583.365Z" transform="translate(-2758.01 -563.389)" fill="#b2e5e0"/>
    </g>
    <rect id="Rectángulo_8048" data-name="Rectángulo 8048" width="15.514" height="1.928" transform="translate(2511.753 368.365)" fill="#fff"/>
    <g id="Grupo_86985" data-name="Grupo 86985" transform="translate(2544.113 340.237)">
      <path id="Trazado_152895" data-name="Trazado 152895" d="M2901.208,563.389a12.153,12.153,0,1,0,12.153,12.154A12.152,12.152,0,0,0,2901.208,563.389Zm0,19.976a7.823,7.823,0,1,1,7.823-7.822A7.823,7.823,0,0,1,2901.208,583.365Z" transform="translate(-2889.054 -563.389)" fill="#b2e5e0"/>
    </g>
    <rect id="Rectángulo_8049" data-name="Rectángulo 8049" width="15.514" height="1.928" transform="translate(2548.509 368.365)" fill="#fff"/>
    <g id="Grupo_86986" data-name="Grupo 86986" transform="translate(2581.132 340.237)">
      <path id="Trazado_152896" data-name="Trazado 152896" d="M3033.191,563.389a12.153,12.153,0,1,0,12.154,12.154A12.152,12.152,0,0,0,3033.191,563.389Zm0,19.976a7.823,7.823,0,1,1,7.823-7.822A7.823,7.823,0,0,1,3033.191,583.365Z" transform="translate(-3021.038 -563.389)" fill="#b2e5e0"/>
    </g>
    <g id="Grupo_86987" data-name="Grupo 86987" transform="translate(2510.249 341.289)">
      <path id="Trazado_152897" data-name="Trazado 152897" d="M2780.476,567.139c-.09,0-.176,0-.263.005a12.053,12.053,0,1,0,.263-.005Zm4.162,18.777a7.821,7.821,0,1,1-4.426-14.438c.087-.005.174-.008.263-.008a7.823,7.823,0,0,1,4.162,14.446Z" transform="translate(-2768.322 -567.139)" fill="#18b6fe"/>
    </g>
    <g id="Grupo_86988" data-name="Grupo 86988" transform="translate(2547.004 341.289)">
      <path id="Trazado_152898" data-name="Trazado 152898" d="M2922.627,574.365c-.058-.134-.121-.266-.184-.4a12.188,12.188,0,1,0,.184.4Zm-7.544,11.888a7.821,7.821,0,1,1,3.121-11.02,7.57,7.57,0,0,1,.46.886,7.82,7.82,0,0,1-3.581,10.134Z" transform="translate(-2899.362 -567.139)" fill="#18b6fe"/>
    </g>
    <path id="Trazado_152899" data-name="Trazado 152899" d="M2964,596.81a12.149,12.149,0,0,1-6.61,10.818l-1.975-3.858a7.826,7.826,0,0,0,3.121-11.02l4.239-1.265A12.074,12.074,0,0,1,2964,596.81Z" transform="translate(-392.688 -243.367)" fill="#d07efc"/>
    <g id="Grupo_86989" data-name="Grupo 86989" transform="translate(2584.024 341.289)">
      <path id="Trazado_152900" data-name="Trazado 152900" d="M3052.089,570.694a12.153,12.153,0,0,0-20.741,8.6,12.146,12.146,0,0,0,12.154,12.153,12.152,12.152,0,0,0,8.588-20.752Zm-4.667,15.367a7.823,7.823,0,1,1,3.9-6.768A7.777,7.777,0,0,1,3047.422,586.061Z" transform="translate(-3031.348 -567.139)" fill="#18b6fe"/>
    </g>
    <rect id="Rectángulo_8050" data-name="Rectángulo 8050" width="15.514" height="1.928" transform="translate(2585.529 368.365)" fill="#fff"/>
    <rect id="Rectángulo_8051" data-name="Rectángulo 8051" width="25.618" height="1.928" transform="translate(2622.867 402.438)" fill="#fff"/>
    <path id="Trazado_152901" data-name="Trazado 152901" d="M2762.435,742.228v-20.9s7.362,1.841,9.334,8.414,8.809,9.335,12.358,7.231,3.347-7.757,8.05-9.729,7.6,2.893,13.117,8.283,12.885,6.442,18.669,1.578,11.372-6.179,15.744-1.709,6.344,4.865,11.34,3.944a9.222,9.222,0,0,1,8.228,2.892Z" transform="translate(-253.837 -336.788)" fill="#b2e5e0"/>
    <path id="Trazado_152902" data-name="Trazado 152902" d="M3141.8,781.322h0a2.038,2.038,0,0,0-2.038,2.038h0a2.038,2.038,0,0,0,2.038,2.038h0a2.038,2.038,0,0,0,2.038-2.038h0A2.038,2.038,0,0,0,3141.8,781.322Z" transform="translate(-525.332 -379.957)" fill="#fff"/>
    <rect id="Rectángulo_8052" data-name="Rectángulo 8052" width="88.408" height="1.928" transform="translate(2517.031 411.116)" fill="#fff"/>
    <path id="Trazado_152903" data-name="Trazado 152903" d="M2764.473,812.259h0a2.038,2.038,0,0,0-2.038,2.038h0a2.038,2.038,0,0,0,2.038,2.038h0a2.038,2.038,0,0,0,2.038-2.038h0A2.038,2.038,0,0,0,2764.473,812.259Z" transform="translate(-253.837 -402.217)" fill="#fff"/>
    <line id="Línea_287" data-name="Línea 287" x2="39.323" transform="translate(2623.271 337.469)" fill="#3fb8a9"/>
    <rect id="Rectángulo_8053" data-name="Rectángulo 8053" width="43.386" height="59.032" rx="7.243" transform="translate(2618.24 335.028)" fill="#b2e5e0"/>
    <rect id="Rectángulo_8054" data-name="Rectángulo 8054" width="43.386" height="59.032" rx="7.243" transform="translate(2621.24 337.469)" fill="#3fb8a9"/>
    <circle id="Elipse_8388" data-name="Elipse 8388" cx="6.368" cy="6.368" r="6.368" transform="matrix(0.23, -0.973, 0.973, 0.23, 2625.905, 354.025)" fill="#fff"/>
    <g id="Grupo_86997" data-name="Grupo 86997" transform="translate(2627.287 345.565)">
      <g id="Grupo_86990" data-name="Grupo 86990" transform="translate(0 37.864)">
        <rect id="Rectángulo_8055" data-name="Rectángulo 8055" width="32.693" height="1.556" fill="#fff"/>
      </g>
      <g id="Grupo_86991" data-name="Grupo 86991" transform="translate(0 31.554)">
        <rect id="Rectángulo_8056" data-name="Rectángulo 8056" width="32.693" height="1.556" fill="#fff"/>
      </g>
      <g id="Grupo_86992" data-name="Grupo 86992" transform="translate(0 25.243)">
        <rect id="Rectángulo_8057" data-name="Rectángulo 8057" width="32.693" height="1.556" fill="#fff"/>
      </g>
      <g id="Grupo_86993" data-name="Grupo 86993" transform="translate(0 18.932)">
        <rect id="Rectángulo_8058" data-name="Rectángulo 8058" width="32.693" height="1.556" fill="#fff"/>
      </g>
      <g id="Grupo_86994" data-name="Grupo 86994" transform="translate(0 12.621)">
        <rect id="Rectángulo_8059" data-name="Rectángulo 8059" width="32.693" height="1.556" fill="#fff"/>
      </g>
      <g id="Grupo_86995" data-name="Grupo 86995" transform="translate(18.406 6.311)">
        <rect id="Rectángulo_8060" data-name="Rectángulo 8060" width="14.287" height="1.556" fill="#fff"/>
      </g>
      <g id="Grupo_86996" data-name="Grupo 86996" transform="translate(18.406 0)">
        <rect id="Rectángulo_8061" data-name="Rectángulo 8061" width="14.287" height="1.556" fill="#fff"/>
      </g>
    </g>
    <path id="Trazado_152904" data-name="Trazado 152904" d="M3082.283,370.191h57.773s-3.418-6.713-11.307-3.357c0,0-4.295-7.713-13.06-3.155,0,0-3.375-8.59-12.841-7.408a12.344,12.344,0,0,0-10.781,9.073S3083.235,364.958,3082.283,370.191Z" transform="translate(-483.972 -74.047)" fill="#edf6f5"/>
    <path id="Trazado_152905" data-name="Trazado 152905" d="M3346.368,494.712H3379.5s-2.279-5.084-7.538-2.98c0,0-1.928-5.259-6.486-4.645s-5.434,3.788-5.434,3.788a9.981,9.981,0,0,0-9.641,2S3346.543,492.433,3346.368,494.712Z" transform="translate(-673.985 -168.215)" fill="#edf6f5"/>
    <path id="Trazado_152906" data-name="Trazado 152906" d="M2590.64,734.307H2621.4s-2.542-4.829-9.116-3.048a7.907,7.907,0,0,0-7.625-5.056,8.826,8.826,0,0,0-8.064,5.056S2591.166,731.016,2590.64,734.307Z" transform="translate(-130.228 -340.298)" fill="#edf6f5"/>
    <path id="Trazado_152907" data-name="Trazado 152907" d="M3063.066,947.879s.032-19.389-21.2-9.957c0,0-4.666-16.691-16.892-15.9s-13.41,16.583-13.41,16.583-16.744-8.512-25.726,8.751Z" transform="translate(-414.58 -481.172)" fill="#adccc7"/>
    <path id="Trazado_152908" data-name="Trazado 152908" d="M2728.067,979.75l-.392-1.421a15.733,15.733,0,0,1,2.307-13.431l.618.491a15.212,15.212,0,0,0-2.44,11.557c1.069-2.108,4.2-6.34,12.235-6.741l.039.788c-10.111.505-11.979,7.262-12,7.33Z" transform="translate(-228.398 -512.042)" fill="#f2baab"/>
    <circle id="Elipse_8389" data-name="Elipse 8389" cx="1.871" cy="1.871" r="1.871" transform="translate(2512.249 456.817)" fill="#f2baab"/>
    <circle id="Elipse_8390" data-name="Elipse 8390" cx="1.871" cy="1.871" r="1.871" transform="translate(2490.999 456.817)" fill="#f2baab"/>
    <circle id="Elipse_8391" data-name="Elipse 8391" cx="1.871" cy="1.871" r="1.871" transform="translate(2500.689 449.755)" fill="#f2baab"/>
    <path id="Trazado_152909" data-name="Trazado 152909" d="M2715.887,994.461c-.915-3.494-5.147-6.457-5.189-6.487l.449-.649c.184.127,4.514,3.156,5.5,6.936Z" transform="translate(-216.612 -528.18)" fill="#f2baab"/>
    <path id="Trazado_152910" data-name="Trazado 152910" d="M3262.646,705.552a23.362,23.362,0,0,1-2.575-1.137c-1.438-.736-3.078-.7-4.114-1.3s-.87,1.137.635,1.606.937,1.338.234,1.371a25.957,25.957,0,0,1-4.583,0c-1.3-.234-1.037.569-.937.736a4.215,4.215,0,0,0,1.3,1.639c.836.569,3.445.669,3.445.669s-2.375.3-2.542.3-.468.8.635.87a30.158,30.158,0,0,0,5.519-.87,10.325,10.325,0,0,1,2.04-.3Z" transform="translate(-605.521 -323.593)" fill="#e9928b"/>
    <path id="Trazado_152911" data-name="Trazado 152911" d="M3290.049,708.617c-.134,0-2.208-.535-2.208-.535l-1.238,4.884,2.776.836Z" transform="translate(-630.984 -327.26)" fill="#93405e"/>
    <path id="Trazado_152912" data-name="Trazado 152912" d="M3318.345,654.245c-4.375,1.7-10.347,15.609-11.6,16.055s-12.844-1.07-12.844-1.07l-.981,5.708s11.685,4.46,17.036,3.3,11.06-12.487,12.22-17.572S3319.515,653.792,3318.345,654.245Z" transform="translate(-635.531 -288.475)" fill="#856de9"/>
    <path id="Trazado_152913" data-name="Trazado 152913" d="M3352.858,595.032s-3.88,8.63-1.94,10.971,7.693-2.743,7.693-2.743,2.4.615,3.144-1.472c.334-.937-.535-2.127-2.074-.963s-2.341-.977-1.739-2.784-.268-2.475-2.208-2.542A8.769,8.769,0,0,1,3352.858,595.032Z" transform="translate(-676.868 -245.919)" fill="#e9928b"/>
    <path id="Trazado_152914" data-name="Trazado 152914" d="M3341.2,839.929c-.011-.222-1.135-22.28-.672-26.975s5.535-26.945,5.586-27.169l.42.1c-.051.224-5.118,22.45-5.577,27.116s.662,26.689.674,26.911Z" transform="translate(-669.703 -383.169)" fill="#1b5175"/>
    <path id="Trazado_152915" data-name="Trazado 152915" d="M2965.641,385.8l-10.694,1.584a.7.7,0,0,0-.573.516l-2.288,8.9,11.631-1.723L2966,386.2A.321.321,0,0,0,2965.641,385.8Z" transform="translate(-390.294 -95.37)" fill="#b2d3e4"/>
    <path id="Trazado_152916" data-name="Trazado 152916" d="M2977.256,402.277a2.231,2.231,0,0,1-1.768,1.172c-.647,0-.9-.525-.575-1.172a2.231,2.231,0,0,1,1.768-1.172C2977.329,401.105,2977.586,401.63,2977.256,402.277Z" transform="translate(-406.615 -106.386)" fill="#fff"/>
    <path id="Trazado_152917" data-name="Trazado 152917" d="M2865.461,318.568c-4.223.517-5.479,5.143-5.391,8.824s0,8.634-.92,10.869c0,0,2.937,2.63,5.96.7a8.9,8.9,0,0,1,5.539-1.578s-1.727-2.586-1.99-9.291S2868.092,318.246,2865.461,318.568Z" transform="translate(-323.425 -46.984)" fill="#7ff9ff"/>
    <path id="Trazado_152918" data-name="Trazado 152918" d="M2913.732,278.543s1.709,5.128,3.944,4.8,5.029-7.56,5.029-7.56a2.278,2.278,0,0,0-.46-1.578,3.559,3.559,0,0,1-.526-2,3.341,3.341,0,0,1-2.584,1.216c-1.787.066-2.861,2.1-3.8,1.611a1.2,1.2,0,0,0-1.271-.92c-1.084.033-1.709,1.577-1.643,2.925A1.558,1.558,0,0,0,2913.732,278.543Z" transform="translate(-361.749 -13.637)" fill="#ffac95"/>
    <path id="Trazado_152919" data-name="Trazado 152919" d="M2823.131,579.292H2818.8a7.823,7.823,0,0,0-7.823-7.823c-.09,0-.176,0-.263.008v-4.333c.087-.005.174-.005.263-.005A12.152,12.152,0,0,1,2823.131,579.292Z" transform="translate(-288.575 -225.85)" fill="#fff"/>
    <path id="Trazado_152920" data-name="Trazado 152920" d="M2834.483,610.469a12.137,12.137,0,0,1-5.585,10.226l-2.406-3.6a7.82,7.82,0,0,0,3.66-6.623Z" transform="translate(-299.927 -257.026)" fill="#ffc945"/>
    <path id="Trazado_152921" data-name="Trazado 152921" d="M2953.8,574.365l-3.963,1.754a7.57,7.57,0,0,0-.46-.886,7.82,7.82,0,0,0-6.689-3.763v-4.331a12.152,12.152,0,0,1,10.928,6.829C2953.682,574.1,2953.745,574.231,2953.8,574.365Z" transform="translate(-383.534 -225.85)" fill="#ffc945"/>
    <path id="Trazado_152922" data-name="Trazado 152922" d="M3096.888,588.412a12.151,12.151,0,0,1-6.061,10.52l-2.172-3.752a7.823,7.823,0,0,0,1.607-12.306l3.061-3.061A12.1,12.1,0,0,1,3096.888,588.412Z" transform="translate(-488.557 -234.969)" fill="#fff"/>
    <path id="Trazado_152923" data-name="Trazado 152923" d="M3050.14,624.726a12.162,12.162,0,0,1-18.033-8.249l4.254-.815a7.821,7.821,0,0,0,11.606,5.312Z" transform="translate(-447.87 -260.763)" fill="#ffc945"/>
    <g id="Grupo_86998" data-name="Grupo 86998" transform="translate(2508.594 382.402)" opacity="0.38">
      <path id="Trazado_152924" data-name="Trazado 152924" d="M2762.424,736.754h96.842s-2.049-11.57-9.543-11.57-5.649,10.2-15.314,7.6-10.717-18.247-21.1-19.036-12.885,13.8-18.275,13.8-6.442-6.07-13.279-6.453-6.442,9.608-11.438,10.134S2762.293,734.913,2762.424,736.754Z" transform="translate(-2762.42 -713.715)" fill="#3fb8a9"/>
    </g>
    <path id="Trazado_152925" data-name="Trazado 152925" d="M2586.428,844.181c-.024-.212-2.457-21.242-2.717-23.755-.258-2.494-8.022-29.045-8.1-29.313l.413-.121c.321,1.1,7.853,26.857,8.115,29.389.26,2.511,2.692,23.538,2.717,23.75Z" transform="translate(-119.415 -386.915)" fill="#408c91"/>
    <path id="Trazado_152926" data-name="Trazado 152926" d="M2613.942,996.655l-.077-.121a11.362,11.362,0,0,1,2.7-1.285l.03.141A11.488,11.488,0,0,0,2613.942,996.655Z" transform="translate(-146.939 -533.882)" fill="#fff"/>
    <path id="Trazado_152927" data-name="Trazado 152927" d="M2620.007,999.343l-.116-.084a6.107,6.107,0,0,1,1.9-1.718l.06.13A6.082,6.082,0,0,0,2620.007,999.343Z" transform="translate(-151.275 -535.53)" fill="#fff"/>
    <path id="Trazado_152928" data-name="Trazado 152928" d="M2626.668,1001.331l-.134-.051a7.588,7.588,0,0,1,.973-1.745l.112.09A7.426,7.426,0,0,0,2626.668,1001.331Z" transform="translate(-156.055 -536.965)" fill="#fff"/>
    <path id="Trazado_152929" data-name="Trazado 152929" d="M2510.68,996.49l-.056-.132a9.07,9.07,0,0,1,1.508-.459l.029.141A8.9,8.9,0,0,0,2510.68,996.49Z" transform="translate(-72.656 -534.348)" fill="#fff"/>
    <path id="Trazado_152930" data-name="Trazado 152930" d="M2513.614,999.267l-.051-.134a13.729,13.729,0,0,0,1.282-.554l.071.125A13.609,13.609,0,0,1,2513.614,999.267Z" transform="translate(-74.77 -536.277)" fill="#fff"/>
    <rect id="Rectángulo_8062" data-name="Rectángulo 8062" width="0.913" height="0.144" transform="translate(2440.363 463.421) rotate(-37.385)" fill="#fff"/>
    <path id="Trazado_152931" data-name="Trazado 152931" d="M2520.1,628.046s.109,2.561,3.292,4.124l-.417-2.014Z" transform="translate(-79.473 -269.673)" fill="#de6667"/>
    <path id="Trazado_152932" data-name="Trazado 152932" d="M2526.665,579.136s-3.245,13.058-5.785,18.317c-1.9,3.936-8.272,7.675-11.541,10.447a5.214,5.214,0,0,0-1.959,2.437c-.111.694,2.805,15.6,3.418,18.057s1.667,6.135,3.857,7.539a46.929,46.929,0,0,1-4.609,1.425,22.558,22.558,0,0,1-7.4.852,95.819,95.819,0,0,0-13.234-.526l-2.1.176s.087-10.518-1.491-17.091-3.852-13.5-2.8-16.216,5.553-5.214,7.709-5.522c4.433-.628,8.94-1.138,13.5-1.4s11.483-6.224,12.535-7.712,5.435-12.185,5.435-12.185Z" transform="translate(-52.6 -233.472)" fill="#ffc945"/>
    <path id="Trazado_152933" data-name="Trazado 152933" d="M2570.318,713.321a46.929,46.929,0,0,1-4.609,1.425c-.458-1.807-1.449-4.115-3.579-5.02-3.721-1.577-1.541-4.47.5-8.151s-2.739-8.408-2.26-10.058c.935-3.221,4.632-6.229,4.632-6.229a5.214,5.214,0,0,0-1.959,2.437c-.111.694,2.805,15.6,3.418,18.057S2568.127,711.917,2570.318,713.321Z" transform="translate(-108.262 -310.86)" fill="#f2bb34"/>
    <path id="Trazado_152934" data-name="Trazado 152934" d="M3121.913,966.225l-.426-.06a25.188,25.188,0,0,0-4.089-17.447l.342-.262A25.662,25.662,0,0,1,3121.913,966.225Z" transform="translate(-509.238 -500.213)" fill="#6eab9c"/>
    <path id="Trazado_152935" data-name="Trazado 152935" d="M3133.317,960.237l-.347-.254c.05-.068,5.021-6.906,5.871-11.209l.423.084C3138.394,953.254,3133.524,959.954,3133.317,960.237Z" transform="translate(-520.442 -500.441)" fill="#6eab9c"/>
    <path id="Trazado_152936" data-name="Trazado 152936" d="M3114.5,988.826c-3.856-.242-7.271-4.813-7.415-5.008l.346-.255c.034.046,3.441,4.6,7.1,4.833Z" transform="translate(-501.814 -525.473)" fill="#6eab9c"/>
    <path id="Trazado_152937" data-name="Trazado 152937" d="M3178.4,997.146l.578-.415c.067-.048,6.776-4.8,13.958-5.138l.02.43c-5.8.27-11.291,3.479-13.1,4.641l7.158-.249.015.43Z" transform="translate(-553.131 -531.25)" fill="#6eab9c"/>
    <path id="Trazado_152938" data-name="Trazado 152938" d="M3196.35,985.076l-.407-.14a26.445,26.445,0,0,1,3.529-6.384l.341.263A25.978,25.978,0,0,0,3196.35,985.076Z" transform="translate(-565.752 -521.868)" fill="#6eab9c"/>
    <path id="Trazado_152939" data-name="Trazado 152939" d="M3048.777,993.479a41.169,41.169,0,0,0-11.1-6.471l.143-.406a41.624,41.624,0,0,1,11.232,6.549Z" transform="translate(-451.88 -527.659)" fill="#6eab9c"/>
    <path id="Trazado_152940" data-name="Trazado 152940" d="M3028.213,1001.472l-.2-.383c.152-.078,3.811-1.911,10.554-.973l-.06.426C3031.915,999.626,3028.249,1001.454,3028.213,1001.472Z" transform="translate(-444.927 -537.191)" fill="#6eab9c"/>
    <path id="Trazado_152941" data-name="Trazado 152941" d="M2541.988,955.753l-.365-.229a21.711,21.711,0,0,0,1.437-2.968c1.391-3.4,3.212-9.1,2.96-19.372l.43-.01c.254,10.35-1.586,16.112-2.992,19.546A21.6,21.6,0,0,1,2541.988,955.753Z" transform="translate(-94.96 -489.217)" fill="#6eab9c"/>
    <path id="Trazado_152942" data-name="Trazado 152942" d="M2545.188,995.458l-.261-.342c5.376-4.1,12.848-4.5,12.923-4.508l.021.43C2557.8,991.041,2550.456,991.442,2545.188,995.458Z" transform="translate(-97.337 -530.541)" fill="#6eab9c"/>
    <path id="Trazado_152943" data-name="Trazado 152943" d="M2554.366,957.322l-.414-.117c.5-1.781,5.885-8.479,6.114-8.763l.335.27C2560.346,948.781,2554.845,955.625,2554.366,957.322Z" transform="translate(-103.831 -500.203)" fill="#6eab9c"/>
    <path id="Trazado_152944" data-name="Trazado 152944" d="M2538.293,966.966c-1.679-2.595-4.269-9.24-4.379-9.521l.4-.156c.027.068,2.684,6.885,4.339,9.443Z" transform="translate(-89.413 -506.568)" fill="#6eab9c"/>
    <rect id="Rectángulo_8063" data-name="Rectángulo 8063" width="11.873" height="4.947" transform="translate(2463.921 316.319)" fill="#8fb9cf"/>
    <rect id="Rectángulo_8064" data-name="Rectángulo 8064" width="3.298" height="7.915" transform="translate(2484.008 324.704) rotate(-48.123)" fill="#8fb9cf"/>
    <rect id="Rectángulo_8065" data-name="Rectángulo 8065" width="7.915" height="3.298" transform="translate(2447.565 327.532) rotate(-41.877)" fill="#8fb9cf"/>
  </g>
</svg>
